<?xml version="1.0" encoding="UTF-8" standalone="no"?>
<svg width="90px" height="23px" viewBox="0 0 90 23" version="1.1" xmlns="http://www.w3.org/2000/svg" xmlns:xlink="http://www.w3.org/1999/xlink">
    <g id="Symbols" stroke="none" stroke-width="1" fill="none" fill-rule="evenodd">
        <g id="footer" transform="translate(-890.000000, -279.000000)" fill="#00A4E4">
            <g id="Drupal" transform="translate(890.000000, 279.000000)">
                <g id="Group">
                    <path d="M41.9811869,4.29333333 L38.2088902,4.29333333 L38.2088902,11.3338889 C38.2088902,13.3911111 37.3265563,15.0522222 35.2677775,15.0522222 C33.2089986,15.0522222 32.3138773,13.3911111 32.3138773,11.3338889 L32.3138773,4.30611111 L28.554368,4.30611111 L28.554368,11.3466667 C28.554368,15.41 31.1757946,18.7066667 35.2422026,18.7066667 C39.3086106,18.7066667 41.9683994,15.41 41.9683994,11.3466667 L41.9811869,4.29333333 L41.9811869,4.29333333 Z" id="Shape"></path>
                    <rect id="Rectangle-path" x="75.9574322" y="0.0127777778" width="3.74672183" height="18.3361111"></rect>
                    <g transform="translate(82.351155, 0.000000)" id="Shape">
                        <polygon points="0.115087019 0.69 0.115087019 0.0255555556 3.03062482 0.0255555556 3.03062482 0.69 1.95647932 0.69 1.95647932 3.59055556 1.17644508 3.59055556 1.17644508 0.69"></polygon>
                        <polygon points="4.55233096 0.0255555556 5.38351498 2.47888889 5.39630243 2.47888889 6.18912411 0.0255555556 7.28884451 0.0255555556 7.28884451 3.59055556 6.55996006 3.59055556 6.55996006 1.06055556 6.54717261 1.06055556 5.67762625 3.59055556 5.07661626 3.59055556 4.2070699 1.08611111 4.19428245 1.08611111 4.19428245 3.59055556 3.45261056 3.59055556 3.45261056 0.0255555556"></polygon>
                    </g>
                    <path d="M25.5109558,4.14 C22.2757318,3.39888889 20.2425278,6.60611111 20.1530157,6.77222222 C20.1146534,6.86166667 20.1146534,6.9 19.961204,6.9 C19.846117,6.9 19.8333295,6.77222222 19.8333295,6.77222222 L19.4369187,4.33166667 L16.0738203,4.33166667 L16.0738203,18.3361111 L19.8333295,18.3361111 L19.8333295,10.7461111 C19.8333295,10.1327778 21.508485,7.15555556 24.7309215,7.92222222 C26.3677147,8.30555556 27.0582368,9.00833333 27.0582368,9.00833333 L27.0582368,4.74055556 C26.4700143,4.42111111 26.0480285,4.26777778 25.5109558,4.14 L25.5109558,4.14 Z" id="Shape"></path>
                    <path d="M47.0961655,22.9488889 L47.0961655,17.9144444 L47.0961655,17.9144444 L47.0961655,16.0233333 C47.0961655,16.0233333 47.0961655,15.87 47.2368274,15.87 C47.3647019,15.87 47.3902767,15.9466667 47.4158516,16.0233333 C47.6971755,16.7388889 49.2700314,19.435 52.7482168,18.5916667 C55.8683538,17.71 58.1573067,14.8477778 58.1573067,11.4488889 C58.1573067,7.36 54.8325706,4.03777778 50.7405877,4.03777778 C46.6486049,4.03777778 43.3238688,7.36 43.3238688,11.4488889 L43.3238688,22.9488889 L47.0961655,22.9488889 L47.0961655,22.9488889 Z M50.7405877,7.69222222 C52.8121541,7.69222222 54.500097,9.37888889 54.500097,11.4488889 C54.500097,13.5188889 52.8249415,15.2055556 50.7405877,15.2055556 C48.6690214,15.2055556 46.9810785,13.5188889 46.9810785,11.4488889 C46.9810785,9.37888889 48.6690214,7.69222222 50.7405877,7.69222222 L50.7405877,7.69222222 Z" id="Shape"></path>
                    <path d="M70.6506419,18.3361111 L74.4229387,18.3361111 L74.4229387,11.4488889 C74.4229387,7.36 71.0982026,4.03777778 67.0062197,4.03777778 C62.9142368,4.03777778 59.5895007,7.36 59.5895007,11.4488889 C59.5895007,14.8477778 61.8784536,17.71 64.9985906,18.5916667 C68.476776,19.435 70.049632,16.7388889 70.3309558,16.0233333 C70.3565307,15.9466667 70.3821056,15.87 70.50998,15.87 C70.6506419,15.87 70.6506419,16.0233333 70.6506419,16.0233333 L70.6506419,18.3361111 Z M70.765729,11.4488889 C70.765729,13.5188889 69.077786,15.2055556 67.0062197,15.2055556 C64.9346534,15.2055556 63.2467104,13.5188889 63.2467104,11.4488889 C63.2467104,9.37888889 64.9346534,7.69222222 67.0062197,7.69222222 C69.077786,7.69222222 70.765729,9.37888889 70.765729,11.4488889 L70.765729,11.4488889 Z" id="Shape"></path>
                    <path d="M4.28379458,18.3105556 L0,18.3105556 L0,0 L4.5906933,0 C10.1532325,0 14.3730899,1.02222222 14.3730899,9.14888889 C14.3730899,17.2116667 9.91027104,18.3105556 4.28379458,18.3105556 L4.28379458,18.3105556 Z M5.3067903,3.16888889 L3.78508417,3.16888889 L3.78508417,15.1288889 L5.34515264,15.1672222 C8.52922682,15.1672222 10.5880057,14.8733333 10.5880057,9.14888889 C10.5880057,3.66722222 8.7721883,3.16888889 5.3067903,3.16888889 L5.3067903,3.16888889 Z" id="Shape"></path>
                </g>
            </g>
        </g>
    </g>
</svg>
