<?xml version="1.0" encoding="UTF-8" standalone="no"?>
<svg width="28" height="24" version="1.1" viewBox="0 -47.1429 27.9744 23.5715" xmlns="http://www.w3.org/2000/svg" xmlns:xlink="http://www.w3.org/1999/xlink">
    <!--Generated by IJSVG (https://github.com/curthard89/IJSVG)-->
    <g fill="#000000">
        <path d="M23.5715,13.4264c0,-0.217634 -0.133929,-0.401786 -0.334822,-0.485492c-0.066965,-0.033482 -0.133929,-0.050223 -0.200893,-0.050223c-0.133929,0 -0.267858,0.050223 -0.385045,0.167411l-1.07143,1.07143c-0.100447,0.100446 -0.15067,0.234375 -0.15067,0.368304v4.25224c0,1.47322 -1.20536,2.67857 -2.67857,2.67857h-13.9286c-1.47322,0 -2.67857,-1.20536 -2.67857,-2.67857v-13.9286c0,-1.47322 1.20536,-2.67858 2.67857,-2.67858h13.9286c0.251117,0 0.502233,0.033483 0.753349,0.100447c0.050224,0.016741 0.100447,0.033482 0.15067,0.033482c0.133929,0 0.284599,-0.066964 0.385045,-0.167411l0.820314,-0.820313c0.133929,-0.133929 0.184152,-0.30134 0.15067,-0.485492c-0.033482,-0.167411 -0.15067,-0.318081 -0.30134,-0.385045c-0.61942,-0.284599 -1.28906,-0.418527 -1.95871,-0.418527h-13.9286c-2.66183,0 -4.82143,2.1596 -4.82143,4.82143v13.9286c0,2.66183 2.1596,4.82143 4.82143,4.82143h13.9286c2.66183,0 4.82143,-2.1596 4.82143,-4.82143Zm3.86719,-8.18639c0.535715,-0.535715 0.535715,-1.37277 0,-1.90848l-1.84152,-1.84152c-0.535715,-0.535715 -1.37277,-0.535715 -1.90848,0l-10.8315,10.8315l-4.40291,-4.40291c-0.535715,-0.535715 -1.37277,-0.535715 -1.90848,0l-1.84152,1.84152c-0.535715,0.535715 -0.535715,1.37277 0,1.90848l7.19867,7.19867c0.535715,0.535715 1.37277,0.535715 1.90848,0Z" transform="translate(0, -47.1429)"></path>
    </g>
</svg>