<?xml version="1.0" encoding="UTF-8"?><svg version="1.1" viewBox="0 -47.1429 30 23.5714" xmlns="http://www.w3.org/2000/svg" xmlns:xlink="http://www.w3.org/1999/xlink"><!--Generated by IJSVG (https://github.com/curthard89/IJSVG)--><g fill="#000000"><path d="M30,20.3571v2.14286c0,0.290178 -0.106027,0.541295 -0.31808,0.753348c-0.212054,0.212054 -0.46317,0.31808 -0.753349,0.31808h-27.8571c-0.290179,0 -0.541295,-0.106026 -0.753349,-0.31808c-0.212053,-0.212053 -0.31808,-0.46317 -0.31808,-0.753348v-2.14286c0,-0.290179 0.106027,-0.541295 0.31808,-0.753348c0.212054,-0.212054 0.46317,-0.318081 0.753349,-0.318081h27.8571c0.290179,0 0.541295,0.106027 0.753349,0.318081c0.212053,0.212053 0.31808,0.463169 0.31808,0.753348Zm-6.42857,-6.42857v2.14286c0,0.290179 -0.106027,0.541295 -0.318081,0.753349c-0.212053,0.212053 -0.463169,0.31808 -0.753348,0.31808h-15c-0.290179,0 -0.541295,-0.106027 -0.753348,-0.31808c-0.212054,-0.212054 -0.318081,-0.46317 -0.318081,-0.753349v-2.14286c0,-0.290178 0.106027,-0.541294 0.318081,-0.753348c0.212053,-0.212054 0.463169,-0.31808 0.753348,-0.31808h15c0.290179,0 0.541295,0.106026 0.753348,0.31808c0.212054,0.212054 0.318081,0.46317 0.318081,0.753348Zm4.28571,-6.42857v2.14286c0,0.290179 -0.106027,0.541295 -0.318081,0.753348c-0.212053,0.212054 -0.463169,0.318081 -0.753348,0.318081h-23.5714c-0.290179,0 -0.541295,-0.106027 -0.753348,-0.318081c-0.212054,-0.212053 -0.318081,-0.463169 -0.318081,-0.753348v-2.14286c0,-0.290179 0.106027,-0.541295 0.318081,-0.753348c0.212053,-0.212054 0.463169,-0.318081 0.753348,-0.318081h23.5714c0.290179,0 0.541295,0.106027 0.753348,0.318081c0.212054,0.212053 0.318081,0.463169 0.318081,0.753348Zm-6.42857,-6.42857v2.14286c0,0.290178 -0.106026,0.541294 -0.31808,0.753348c-0.212053,0.212053 -0.46317,0.31808 -0.753348,0.31808h-10.7143c-0.290178,0 -0.541295,-0.106027 -0.753348,-0.31808c-0.212054,-0.212054 -0.31808,-0.46317 -0.31808,-0.753348v-2.14286c0,-0.290178 0.106026,-0.541294 0.31808,-0.753348c0.212053,-0.212053 0.46317,-0.31808 0.753348,-0.31808h10.7143c0.290178,0 0.541295,0.106027 0.753348,0.31808c0.212054,0.212054 0.31808,0.46317 0.31808,0.753348Z" transform="translate(0, -47.1429)"></path></g></svg>