<?xml version="1.0" encoding="UTF-8"?><svg width="28" height="26" version="1.1" viewBox="1.07692 -49.5385 28 26" xmlns="http://www.w3.org/2000/svg" xmlns:xlink="http://www.w3.org/1999/xlink"><!--Generated by IJSVG (https://github.com/curthard89/IJSVG)--><g transform="scale(1.00513)"><g fill="#000000"><path d="M17.1429,11.7857c0,-0.290179 -0.106027,-0.541295 -0.318081,-0.753348c-0.212053,-0.212054 -0.463169,-0.318081 -0.753348,-0.318081h-4.28571c-0.290179,0 -0.541295,0.106027 -0.753348,0.318081c-0.212054,0.212053 -0.318081,0.463169 -0.318081,0.753348c0,0.290179 0.106027,0.541295 0.318081,0.753348c0.212053,0.212054 0.463169,0.318081 0.753348,0.318081h4.28571c0.290179,0 0.541295,-0.106027 0.753348,-0.318081c0.212054,-0.212053 0.318081,-0.463169 0.318081,-0.753348Zm9.64286,-3.21429v16.0714c0,0.290178 -0.106027,0.541295 -0.318081,0.753348c-0.212053,0.212054 -0.463169,0.31808 -0.753348,0.31808h-23.5714c-0.290179,0 -0.541295,-0.106026 -0.753348,-0.31808c-0.212054,-0.212053 -0.318081,-0.46317 -0.318081,-0.753348v-16.0714c0,-0.290178 0.106027,-0.541294 0.318081,-0.753348c0.212053,-0.212054 0.463169,-0.31808 0.753348,-0.31808h23.5714c0.290179,0 0.541295,0.106026 0.753348,0.31808c0.212054,0.212054 0.318081,0.46317 0.318081,0.753348Zm1.07143,-7.5v4.28572c0,0.290178 -0.106026,0.541294 -0.31808,0.753348c-0.212054,0.212053 -0.46317,0.31808 -0.753348,0.31808h-25.7143c-0.290178,0 -0.541295,-0.106027 -0.753348,-0.31808c-0.212054,-0.212054 -0.31808,-0.46317 -0.31808,-0.753348v-4.28572c0,-0.290178 0.106026,-0.541294 0.31808,-0.753348c0.212053,-0.212054 0.46317,-0.31808 0.753348,-0.31808h25.7143c0.290178,0 0.541294,0.106026 0.753348,0.31808c0.212054,0.212054 0.31808,0.46317 0.31808,0.753348Z" transform="translate(1.07143, -49.2857)"></path></g></g></svg>