<?xml version="1.0" encoding="UTF-8"?><svg width="24" height="26" version="1.1" viewBox="0 -49.8333 24 26" xmlns="http://www.w3.org/2000/svg" xmlns:xlink="http://www.w3.org/1999/xlink"><!--Generated by IJSVG (https://github.com/curthard89/IJSVG)--><g transform="scale(1.01111)"><g fill="#000000"><path d="M9.29129,23.3203c0.825893,0.357143 1.60714,0.535715 2.34375,0.535715c4.19643,0 6.29464,-1.86942 6.29464,-5.60826c0,-1.27232 -0.228795,-2.27679 -0.686384,-3.01339c-0.30134,-0.491072 -0.644532,-0.904018 -1.02958,-1.23884c-0.385045,-0.334821 -0.761719,-0.594308 -1.13002,-0.778459c-0.368303,-0.184152 -0.817522,-0.323661 -1.34766,-0.418527c-0.530134,-0.094866 -0.998884,-0.15346 -1.40625,-0.175781c-0.407366,-0.022322 -0.93471,-0.033483 -1.58203,-0.033483c-0.814732,0 -1.37835,0.055804 -1.69085,0.167411c0,0.591518 -0.002791,1.47879 -0.008371,2.66183c-0.00558,1.18304 -0.00837,2.06473 -0.00837,2.64509c0,0.089286 -0.005581,0.46596 -0.016741,1.13002c-0.011161,0.664063 -0.013951,1.20257 -0.008371,1.61551c0.00558,0.412946 0.030692,0.878906 0.075335,1.39788c0.044643,0.518973 0.111607,0.890067 0.200893,1.11328Zm-0.234375,-12.4888c0.46875,0.078125 1.07701,0.117187 1.82478,0.117187c0.915179,0 1.71317,-0.072544 2.39397,-0.217634c0.680803,-0.145089 1.29464,-0.393415 1.84152,-0.744977c0.546874,-0.351563 0.962611,-0.851005 1.24721,-1.49833c0.284599,-0.647321 0.426898,-1.43973 0.426898,-2.37723c0,-0.78125 -0.161831,-1.46484 -0.485491,-2.05078c-0.323661,-0.585938 -0.764509,-1.04353 -1.32254,-1.37277c-0.558036,-0.329241 -1.16071,-0.571987 -1.80804,-0.728237c-0.647321,-0.15625 -1.33929,-0.234375 -2.07589,-0.234375c-0.558035,0 -1.28348,0.072545 -2.17634,0.217634c0,0.558036 0.022321,1.40067 0.066964,2.5279c0.044643,1.12723 0.066965,1.97545 0.066965,2.54464c0,0.301339 -0.002791,0.747767 -0.008371,1.33929c-0.00558,0.591518 -0.00837,1.03237 -0.00837,1.32254c0,0.513393 0.00558,0.898437 0.016741,1.15513Zm-9.05692,14.8828l0.033482,-1.57366c0.167411,-0.044643 0.641741,-0.133929 1.42299,-0.267857c0.78125,-0.133929 1.37277,-0.284599 1.77455,-0.452009c0.078125,-0.133929 0.147879,-0.284599 0.209263,-0.452009c0.061384,-0.167411 0.108817,-0.354353 0.142299,-0.560826c0.033482,-0.206473 0.064174,-0.387835 0.092076,-0.544085c0.027902,-0.15625 0.044643,-0.365513 0.050223,-0.62779c0.005581,-0.262277 0.008371,-0.452009 0.008371,-0.569197c0,-0.117187 0,-0.31529 0,-0.594308c0,-0.279017 0,-0.446428 0,-0.502232c0,-10.9598 -0.122768,-16.6797 -0.368304,-17.1596c-0.044643,-0.089286 -0.16741,-0.170201 -0.368303,-0.242746c-0.200893,-0.072544 -0.449219,-0.133928 -0.744978,-0.184151c-0.295759,-0.050224 -0.571986,-0.089286 -0.828683,-0.117188c-0.256696,-0.027902 -0.527344,-0.053013 -0.811942,-0.075335c-0.284598,-0.022321 -0.454799,-0.039062 -0.510603,-0.050223l-0.066964,-1.38951c1.09375,-0.022321 2.99107,-0.086495 5.69196,-0.192522c2.70089,-0.106027 4.78237,-0.15904 6.24442,-0.15904c0.256696,0 0.636161,0.00279 1.13839,0.00837c0.502232,0.005581 0.881696,0.008371 1.13839,0.008371c0.78125,0 1.54297,0.072544 2.28516,0.217634c0.742188,0.145089 1.45926,0.379464 2.15123,0.703125c0.691964,0.32366 1.29464,0.719866 1.80804,1.18862c0.513393,0.46875 0.92634,1.0519 1.23884,1.74944c0.3125,0.697544 0.46875,1.46484 0.46875,2.3019c0,0.580357 -0.092076,1.11328 -0.276228,1.59877c-0.184152,0.485491 -0.401786,0.887277 -0.652902,1.20536c-0.251116,0.31808 -0.611049,0.63895 -1.0798,0.962611c-0.46875,0.323661 -0.876116,0.574777 -1.2221,0.753348c-0.345982,0.178572 -0.814732,0.401786 -1.40625,0.669643c1.71875,0.390625 3.15011,1.13839 4.29408,2.2433c1.14397,1.10491 1.71596,2.48884 1.71596,4.15179c0,1.11607 -0.195313,2.11775 -0.585938,3.00502c-0.390625,0.887277 -0.912388,1.61551 -1.56529,2.18471c-0.652902,0.569196 -1.42299,1.04632 -2.31027,1.43136c-0.887277,0.385045 -1.79967,0.655692 -2.73717,0.811942c-0.9375,0.15625 -1.91964,0.234375 -2.94643,0.234375c-0.491071,0 -1.22768,-0.016741 -2.20982,-0.050223c-0.982143,-0.033482 -1.71875,-0.050223 -2.20982,-0.050223c-1.18303,0 -2.89621,0.061384 -5.13951,0.184152c-2.2433,0.122767 -3.53237,0.189732 -3.86719,0.200892Z" transform="translate(0, -49.2857)"></path></g></g></svg>