<?xml version="1.0" encoding="UTF-8"?><svg width="31" height="23" version="1.1" viewBox="0.752545 -44.1326 31 23" xmlns="http://www.w3.org/2000/svg" xmlns:xlink="http://www.w3.org/1999/xlink"><!--Generated by IJSVG (https://github.com/curthard89/IJSVG)--><g transform="scale(0.998934)"><g fill="#000000"><path d="M9.57589,18.8616l-0.837053,0.837053c-0.111608,0.111607 -0.239956,0.167411 -0.385045,0.167411c-0.145089,0 -0.273438,-0.055804 -0.385045,-0.167411l-7.80134,-7.80134c-0.111607,-0.111607 -0.167411,-0.239955 -0.167411,-0.385045c0,-0.145089 0.055804,-0.273437 0.167411,-0.385044l7.80134,-7.80134c0.111607,-0.111607 0.239956,-0.16741 0.385045,-0.16741c0.145089,0 0.273437,0.055803 0.385045,0.16741l0.837053,0.837054c0.111607,0.111607 0.167411,0.239955 0.167411,0.385045c0,0.145089 -0.055804,0.273437 -0.167411,0.385044l-6.57924,6.57924l6.57924,6.57924c0.111607,0.111608 0.167411,0.239956 0.167411,0.385045c0,0.145089 -0.055804,0.273438 -0.167411,0.385045Zm9.89397,-17.8627l-6.24442,21.6127c-0.044643,0.145089 -0.131139,0.253906 -0.259487,0.326451c-0.128348,0.072544 -0.259487,0.086495 -0.393415,0.041852l-1.03795,-0.284598c-0.145089,-0.044643 -0.253906,-0.131138 -0.32645,-0.259487c-0.072545,-0.128348 -0.086496,-0.265067 -0.041853,-0.410156l6.24442,-21.6127c0.044643,-0.145089 0.131139,-0.253906 0.259487,-0.326451c0.128348,-0.072545 0.259487,-0.086496 0.393415,-0.041853l1.03795,0.284599c0.145089,0.044642 0.253906,0.131138 0.326451,0.259486c0.072544,0.128348 0.086495,0.265067 0.041852,0.410156Zm10.9989,10.8984l-7.80134,7.80134c-0.111607,0.111607 -0.239955,0.167411 -0.385045,0.167411c-0.145089,0 -0.273437,-0.055804 -0.385044,-0.167411l-0.837054,-0.837053c-0.111607,-0.111607 -0.167411,-0.239956 -0.167411,-0.385045c0,-0.145089 0.055804,-0.273437 0.167411,-0.385045l6.57924,-6.57924l-6.57924,-6.57924c-0.111607,-0.111607 -0.167411,-0.239955 -0.167411,-0.385044c0,-0.14509 0.055804,-0.273438 0.167411,-0.385045l0.837054,-0.837054c0.111607,-0.111607 0.239955,-0.16741 0.385044,-0.16741c0.14509,0 0.273438,0.055803 0.385045,0.16741l7.80134,7.80134c0.111607,0.111607 0.167411,0.239955 0.167411,0.385044c0,0.14509 -0.055804,0.273438 -0.167411,0.385045Z" transform="translate(0.753348, -44.1797)"></path></g></g></svg>