<?xml version="1.0" encoding="UTF-8"?><svg width="26" height="26" version="1.1" viewBox="0 -49.8333 26 26" xmlns="http://www.w3.org/2000/svg" xmlns:xlink="http://www.w3.org/1999/xlink"><!--Generated by IJSVG (https://github.com/curthard89/IJSVG)--><g transform="scale(1.01111)"><g fill="#000000"><path d="M19.2522,15.8371v1.82478c0,0.558036 -0.203683,1.05469 -0.611049,1.48996c-0.407366,0.435268 -0.93192,0.77288 -1.57366,1.01283c-0.641741,0.239956 -1.30022,0.421317 -1.97545,0.544085c-0.675223,0.122768 -1.33092,0.184152 -1.96708,0.184152c-2.28795,0 -4.19922,-0.77567 -5.73382,-2.32701c-1.5346,-1.55134 -2.3019,-3.48214 -2.3019,-5.79241c0,-2.26562 0.758928,-4.15737 2.27678,-5.67522c1.51786,-1.51786 3.4096,-2.27679 5.67522,-2.27679c0.379464,0 0.800781,0.025112 1.26395,0.075335c0.463169,0.050223 0.982142,0.15067 1.55692,0.301339c0.574777,0.15067 1.09096,0.340402 1.54855,0.569197c0.45759,0.228794 0.842634,0.544085 1.15513,0.94587c0.3125,0.401786 0.46875,0.853795 0.46875,1.35603v1.82478c0,0.178571 -0.089286,0.267857 -0.267857,0.267857h-1.97545c-0.178572,0 -0.267857,-0.089286 -0.267857,-0.267857v-1.17188c0,-0.479911 -0.365514,-0.856585 -1.09654,-1.13002c-0.731026,-0.273438 -1.49833,-0.410157 -2.3019,-0.410157c-1.5625,0 -2.83761,0.510603 -3.82534,1.53181c-0.987723,1.02121 -1.48158,2.34654 -1.48158,3.97601c0,1.68527 0.510603,3.07757 1.53181,4.1769c1.02121,1.09933 2.32422,1.649 3.90904,1.649c0.758928,0 1.52902,-0.133929 2.31027,-0.401786c0.78125,-0.267857 1.17188,-0.636161 1.17188,-1.10491v-1.17188c0,-0.078125 0.025112,-0.142299 0.075335,-0.192522c0.050223,-0.050223 0.108817,-0.075335 0.175782,-0.075335h1.99219c0.066964,0 0.128348,0.025112 0.184152,0.075335c0.055803,0.050223 0.083705,0.114397 0.083705,0.192522Zm-6.39509,-13.6942c-1.45089,0 -2.83761,0.284598 -4.16016,0.853795c-1.32254,0.569196 -2.46094,1.33092 -3.41518,2.28516c-0.954241,0.954241 -1.71596,2.09263 -2.28516,3.41518c-0.569197,1.32255 -0.853795,2.70926 -0.853795,4.16016c0,1.45089 0.284598,2.83761 0.853795,4.16016c0.569196,1.32254 1.33092,2.46094 2.28516,3.41518c0.954241,0.954241 2.09263,1.71596 3.41518,2.28516c1.32254,0.569196 2.70926,0.853794 4.16016,0.853794c1.45089,0 2.83761,-0.284598 4.16016,-0.853794c1.32254,-0.569197 2.46094,-1.33092 3.41518,-2.28516c0.954241,-0.954241 1.71596,-2.09263 2.28516,-3.41518c0.569196,-1.32255 0.853795,-2.70926 0.853795,-4.16016c0,-1.45089 -0.284599,-2.83761 -0.853795,-4.16016c-0.569196,-1.32254 -1.33092,-2.46094 -2.28516,-3.41518c-0.954241,-0.954241 -2.09263,-1.71596 -3.41518,-2.28516c-1.32255,-0.569197 -2.70926,-0.853795 -4.16016,-0.853795Zm12.8571,10.7143c0,2.33259 -0.574777,4.48382 -1.72433,6.45368c-1.14955,1.96987 -2.70926,3.52958 -4.67913,4.67913c-1.96987,1.14955 -4.12109,1.72433 -6.45368,1.72433c-2.33259,0 -4.48382,-0.574776 -6.45368,-1.72433c-1.96987,-1.14955 -3.52958,-2.70926 -4.67913,-4.67913c-1.14955,-1.96987 -1.72433,-4.12109 -1.72433,-6.45368c0,-2.33259 0.574777,-4.48382 1.72433,-6.45368c1.14955,-1.96987 2.70926,-3.52958 4.67913,-4.67913c1.96987,-1.14955 4.12109,-1.72433 6.45368,-1.72433c2.33259,0 4.48382,0.574776 6.45368,1.72433c1.96987,1.14955 3.52958,2.70926 4.67913,4.67913c1.14955,1.96987 1.72433,4.12109 1.72433,6.45368Z" transform="translate(0, -49.2857)"></path></g></g></svg>