<?xml version="1.0" encoding="UTF-8"?><svg width="26" height="26" version="1.1" viewBox="0 -49.8333 26 26" xmlns="http://www.w3.org/2000/svg" xmlns:xlink="http://www.w3.org/1999/xlink"><!--Generated by IJSVG (https://github.com/curthard89/IJSVG)--><g transform="scale(1.01111)"><g fill="#000000"><path d="M12.6395,15.5357c0,0.145089 -0.055804,0.273438 -0.167411,0.385045l-5.55804,5.55804l2.41071,2.41072c0.212053,0.212053 0.31808,0.463169 0.31808,0.753348c0,0.290178 -0.106027,0.541295 -0.31808,0.753348c-0.212054,0.212054 -0.46317,0.31808 -0.753348,0.31808h-7.5c-0.290179,0 -0.541295,-0.106026 -0.753349,-0.31808c-0.212053,-0.212053 -0.31808,-0.46317 -0.31808,-0.753348v-7.5c0,-0.290179 0.106027,-0.541295 0.31808,-0.753348c0.212054,-0.212054 0.46317,-0.318081 0.753349,-0.318081c0.290178,0 0.541294,0.106027 0.753348,0.318081l2.41071,2.41071l5.55804,-5.55804c0.111607,-0.111607 0.239955,-0.167411 0.385044,-0.167411c0.14509,0 0.273438,0.055804 0.385045,0.167411l1.90848,1.90848c0.111607,0.111607 0.167411,0.239956 0.167411,0.385045Zm13.0748,-14.4643v7.5c0,0.290179 -0.106027,0.541295 -0.318081,0.753348c-0.212053,0.212054 -0.463169,0.318081 -0.753348,0.318081c-0.290178,0 -0.541295,-0.106027 -0.753348,-0.318081l-2.41071,-2.41071l-5.55804,5.55804c-0.111607,0.111607 -0.239955,0.167411 -0.385045,0.167411c-0.145089,0 -0.273437,-0.055804 -0.385044,-0.167411l-1.90848,-1.90848c-0.111608,-0.111607 -0.167411,-0.239956 -0.167411,-0.385045c0,-0.145089 0.055803,-0.273437 0.167411,-0.385045l5.55803,-5.55804l-2.41071,-2.41071c-0.212054,-0.212053 -0.31808,-0.463169 -0.31808,-0.753348c0,-0.290178 0.106026,-0.541294 0.31808,-0.753348c0.212053,-0.212054 0.46317,-0.31808 0.753348,-0.31808h7.5c0.290179,0 0.541295,0.106026 0.753348,0.31808c0.212054,0.212054 0.318081,0.46317 0.318081,0.753348Z" transform="translate(0, -49.2857)"></path></g></g></svg>