<?xml version="1.0" encoding="UTF-8"?><svg version="1.1" viewBox="0 -55.7143 25.7143 30" xmlns="http://www.w3.org/2000/svg" xmlns:xlink="http://www.w3.org/1999/xlink"><!--Generated by IJSVG (https://github.com/curthard89/IJSVG)--><g fill="#000000"><path d="M10.9487,18.0469c-0.011161,0.033482 -0.080915,0.030692 -0.209264,-0.00837c-0.128348,-0.039063 -0.304129,-0.103237 -0.527343,-0.192523l-0.334822,-0.150669c-0.491071,-0.223215 -0.976562,-0.496652 -1.45647,-0.820313c-0.078125,-0.055803 -0.30692,-0.231585 -0.686384,-0.527343c-0.379464,-0.295759 -0.591518,-0.4548 -0.636161,-0.477121c-0.747768,1.14955 -1.49553,2.1596 -2.2433,3.03013c-0.904018,1.06027 -1.48996,1.67411 -1.75781,1.84152c-0.044643,0.022321 -0.15346,0.044643 -0.326451,0.066964c-0.172991,0.022322 -0.276227,0.022322 -0.309709,0c0.066964,-0.044643 0.524553,-0.558036 1.37277,-1.54018c0.234375,-0.267858 0.711496,-0.909599 1.43136,-1.92522c0.719866,-1.01562 1.15792,-1.67411 1.31417,-1.97545c0.189732,-0.334822 0.47433,-0.884487 0.853795,-1.649c0.379464,-0.764509 0.580357,-1.19699 0.602678,-1.29743c-0.089285,-0.01116 -0.703125,0.172991 -1.84152,0.552456c-0.089285,0.022321 -0.242745,0.064174 -0.460379,0.125558c-0.217634,0.061384 -0.410156,0.114397 -0.577567,0.15904c-0.167411,0.044643 -0.262277,0.072545 -0.284598,0.083705c-0.022322,0.022322 -0.033482,0.080915 -0.033482,0.175781c0,0.094867 -0.005581,0.14788 -0.016741,0.159041c-0.055804,0.111607 -0.228795,0.195312 -0.518974,0.251116c-0.256696,0.078125 -0.518973,0.078125 -0.78683,0c-0.200893,-0.044643 -0.357143,-0.161831 -0.46875,-0.351563c-0.044643,-0.066964 -0.072545,-0.195312 -0.083705,-0.385044c0.066964,-0.022322 0.203683,-0.050224 0.410156,-0.083706c0.206473,-0.033482 0.371094,-0.066964 0.493862,-0.100446c0.647321,-0.178572 1.23326,-0.357143 1.75781,-0.535715c1.11607,-0.390624 1.68527,-0.585937 1.70759,-0.585937c0.111607,-0.022321 0.351563,-0.131138 0.719866,-0.326451c0.368304,-0.195312 0.61384,-0.31529 0.736607,-0.359933c0.100447,-0.033482 0.220425,-0.078125 0.359934,-0.133929c0.139508,-0.055803 0.220424,-0.086495 0.242745,-0.092075c0.022321,-0.005581 0.055804,-0.002791 0.100447,0.00837c0.022321,0.133929 0.016741,0.318081 -0.016742,0.552455c0,0.022322 -0.069754,0.172992 -0.209263,0.452009c-0.139509,0.279018 -0.287388,0.577567 -0.443638,0.895648c-0.15625,0.31808 -0.251116,0.505022 -0.284599,0.560826c-0.279017,0.558035 -0.708705,1.28906 -1.28906,2.19308l1.07143,0.46875c0.133929,0.066964 0.549666,0.245536 1.24721,0.535714c0.697545,0.290179 1.07422,0.446429 1.13002,0.46875c0.044643,0.011161 0.103236,0.15346 0.175781,0.426898c0.072545,0.273437 0.097656,0.443638 0.075335,0.510602Zm-3.43192,-8.13616c0.033482,0.16741 0.011161,0.32366 -0.066964,0.46875c-0.133929,0.256696 -0.412947,0.46875 -0.837054,0.63616c-0.334821,0.133929 -0.669643,0.200893 -1.00446,0.200893c-0.290179,-0.033482 -0.563616,-0.178571 -0.820313,-0.435268c-0.15625,-0.16741 -0.256696,-0.396205 -0.301339,-0.686384l0.016741,-0.050223c0.033482,0.033482 0.142299,0.061384 0.326451,0.083705c0.184152,0.022322 0.332031,0.022322 0.443639,0c0.111607,-0.022321 0.435267,-0.111607 0.970982,-0.267857c0.401785,-0.133928 0.708705,-0.212053 0.920759,-0.234375c0.189732,0 0.306919,0.094866 0.351562,0.284599Zm11.6853,2.1596l1.05469,3.80022l-2.32701,-0.703125Zm-18.5491,13.3929l11.6183,-3.88393v-17.2768l-11.6183,3.90067Zm20.7757,-5.30692l1.70759,0.518974l-3.03013,-10.9989l-1.67411,-0.518974l-3.61607,8.97321l1.70759,0.518973l0.753348,-1.84152l3.53237,1.08817Zm-8.42076,-16.1049l9.59263,3.08036v-6.36161Zm5.20647,22.1484l2.64509,0.217634l-0.904018,2.67857l-0.669643,-1.10491c-1.45089,0.926339 -2.99107,1.52902 -4.62053,1.80804c-0.647322,0.133929 -1.15513,0.200893 -1.52344,0.200893h-1.40625c-0.881696,0 -1.99498,-0.217634 -3.33984,-0.652902c-1.34487,-0.435267 -2.36886,-0.909598 -3.07199,-1.42299c-0.089286,-0.078125 -0.133929,-0.16741 -0.133929,-0.267857c0,-0.089285 0.027902,-0.16462 0.083706,-0.226004c0.055803,-0.061384 0.128348,-0.092076 0.217633,-0.092076c0.044643,0 0.14509,0.041853 0.30134,0.125558c0.15625,0.083705 0.326451,0.175781 0.510602,0.276228c0.184152,0.100446 0.298549,0.16183 0.343192,0.184151c0.814733,0.412947 1.7048,0.756139 2.6702,1.02958c0.965402,0.273438 1.84431,0.410157 2.63672,0.410157c1.06027,0 1.99219,-0.080916 2.79576,-0.242746c0.803571,-0.16183 1.67969,-0.443638 2.62835,-0.845424c0.167411,-0.078125 0.337612,-0.164621 0.510603,-0.259487c0.172991,-0.094866 0.362723,-0.200893 0.569196,-0.31808c0.206473,-0.117188 0.365514,-0.209263 0.477121,-0.276228Zm7.5,-18.0636v18.0636l-12.9576,-4.1183c-0.15625,0.066964 -2.24888,0.778459 -6.2779,2.13449c-4.02902,1.35603 -6.08259,2.03404 -6.16071,2.03404c-0.145089,0 -0.245535,-0.072544 -0.301339,-0.217634c-6.93889e-18,-0.01116 -0.00558,-0.027901 -0.016741,-0.050223v-18.0469c0.033482,-0.100446 0.055804,-0.15625 0.066964,-0.167411c0.055804,-0.066964 0.167411,-0.128348 0.334822,-0.184151c1.1942,-0.401786 2.02567,-0.680804 2.49442,-0.837054v-6.42857l9.34152,3.31473c0.022322,0 0.917969,-0.30692 2.68694,-0.920759c1.76897,-0.613839 3.53237,-1.21931 5.29018,-1.81641c1.75781,-0.597099 2.65904,-0.895648 2.70368,-0.895648c0.223214,0 0.334821,0.117188 0.334821,0.351563v6.99777Z" transform="translate(0, -55.7143)"></path></g></svg>