<?xml version="1.0" encoding="UTF-8"?><svg width="27" height="27" version="1.1" viewBox="0.264706 -52.1471 27 27" xmlns="http://www.w3.org/2000/svg" xmlns:xlink="http://www.w3.org/1999/xlink"><!--Generated by IJSVG (https://github.com/curthard89/IJSVG)--><g transform="scale(0.988235)"><g fill="#000000"><path d="M24.1071,20.0893c0,-0.446429 -0.15625,-0.825893 -0.46875,-1.13839l-3.48214,-3.48214c-0.3125,-0.3125 -0.691964,-0.46875 -1.13839,-0.46875c-0.46875,0 -0.870535,0.178571 -1.20536,0.535714c0.033482,0.033482 0.139509,0.136719 0.318081,0.30971c0.178571,0.172991 0.298549,0.292969 0.359933,0.359933c0.061383,0.066964 0.145089,0.172991 0.251116,0.31808c0.106026,0.14509 0.178571,0.287389 0.217634,0.426898c0.039062,0.139509 0.058593,0.292968 0.058593,0.460379c0,0.446429 -0.15625,0.825893 -0.46875,1.13839c-0.3125,0.3125 -0.691964,0.46875 -1.13839,0.46875c-0.16741,0 -0.32087,-0.019531 -0.460379,-0.058594c-0.139509,-0.039062 -0.281808,-0.111607 -0.426897,-0.217634c-0.14509,-0.106026 -0.251116,-0.189732 -0.318081,-0.251116c-0.066964,-0.061384 -0.186942,-0.181361 -0.359933,-0.359933c-0.172991,-0.178571 -0.276227,-0.284598 -0.30971,-0.31808c-0.368303,0.345982 -0.552455,0.753348 -0.552455,1.2221c0,0.446429 0.15625,0.825893 0.46875,1.13839l3.44866,3.4654c0.301339,0.301339 0.680803,0.452009 1.13839,0.452009c0.446428,0 0.825892,-0.14509 1.13839,-0.435268l2.46094,-2.4442c0.3125,-0.3125 0.46875,-0.686384 0.46875,-1.12165Zm-11.769,-11.8025c0,-0.446428 -0.15625,-0.825893 -0.46875,-1.13839l-3.44866,-3.4654c-0.3125,-0.3125 -0.691964,-0.46875 -1.13839,-0.46875c-0.435268,0 -0.814732,0.150669 -1.13839,0.452009l-2.46094,2.4442c-0.3125,0.3125 -0.46875,0.686384 -0.46875,1.12165c0,0.446428 0.15625,0.825893 0.46875,1.13839l3.48214,3.48214c0.301339,0.30134 0.680803,0.452009 1.13839,0.452009c0.46875,0 0.870535,-0.172991 1.20536,-0.518973c-0.033482,-0.033482 -0.139509,-0.136719 -0.318081,-0.30971c-0.178571,-0.172991 -0.298549,-0.292968 -0.359933,-0.359933c-0.061384,-0.066964 -0.145089,-0.172991 -0.251116,-0.31808c-0.106027,-0.145089 -0.178571,-0.287388 -0.217634,-0.426897c-0.039062,-0.139509 -0.058593,-0.292969 -0.058593,-0.46038c0,-0.446428 0.15625,-0.825893 0.46875,-1.13839c0.3125,-0.3125 0.691964,-0.46875 1.13839,-0.46875c0.167411,0 0.320871,0.019532 0.46038,0.058594c0.139509,0.039063 0.281808,0.111607 0.426897,0.217634c0.14509,0.106027 0.251116,0.189732 0.318081,0.251116c0.066964,0.061384 0.186942,0.181362 0.359933,0.359933c0.172991,0.178571 0.276227,0.284598 0.309709,0.31808c0.368304,-0.345982 0.552456,-0.753348 0.552456,-1.2221Zm14.9833,11.8025c0,1.33928 -0.474331,2.4721 -1.42299,3.39844l-2.46094,2.4442c-0.926339,0.926339 -2.05915,1.38951 -3.39844,1.38951c-1.35045,0 -2.48884,-0.47433 -3.41518,-1.42299l-3.44866,-3.4654c-0.926339,-0.92634 -1.38951,-2.05915 -1.38951,-3.39844c0,-1.37277 0.491072,-2.53906 1.47321,-3.49888l-1.47321,-1.47321c-0.959821,0.982143 -2.12054,1.47321 -3.48214,1.47321c-1.33929,0 -2.47768,-0.46875 -3.41518,-1.40625l-3.48214,-3.48214c-0.9375,-0.9375 -1.40625,-2.07589 -1.40625,-3.41518c0,-1.33929 0.474331,-2.4721 1.42299,-3.39844l2.46094,-2.4442c0.926339,-0.92634 2.05915,-1.38951 3.39844,-1.38951c1.35045,0 2.48884,0.47433 3.41518,1.42299l3.44866,3.4654c0.92634,0.926339 1.38951,2.05915 1.38951,3.39844c0,1.37277 -0.491071,2.53906 -1.47321,3.49888l1.47321,1.47321c0.959822,-0.982142 2.12054,-1.47321 3.48214,-1.47321c1.33929,0 2.47768,0.46875 3.41518,1.40625l3.48214,3.48214c0.9375,0.9375 1.40625,2.07589 1.40625,3.41518Z" transform="translate(0.267857, -52.7679)"></path></g></g></svg>