<?xml version="1.0" encoding="UTF-8"?><svg version="1.1" viewBox="0 -46.0714 30 23.5714" xmlns="http://www.w3.org/2000/svg" xmlns:xlink="http://www.w3.org/1999/xlink"><!--Generated by IJSVG (https://github.com/curthard89/IJSVG)--><g fill="#000000"><path d="M6.42857,20.3571c0,0.892857 -0.3125,1.65179 -0.9375,2.27679c-0.625,0.625 -1.38393,0.9375 -2.27678,0.9375c-0.892857,0 -1.65179,-0.3125 -2.27679,-0.9375c-0.625,-0.625 -0.9375,-1.38393 -0.9375,-2.27679c0,-0.892857 0.3125,-1.65179 0.9375,-2.27679c0.625,-0.625 1.38393,-0.9375 2.27679,-0.9375c0.892857,0 1.65178,0.3125 2.27678,0.9375c0.625,0.625 0.9375,1.38393 0.9375,2.27679Zm0,-8.57143c0,0.892857 -0.3125,1.65178 -0.9375,2.27678c-0.625,0.625 -1.38393,0.9375 -2.27678,0.9375c-0.892857,0 -1.65179,-0.3125 -2.27679,-0.9375c-0.625,-0.625 -0.9375,-1.38393 -0.9375,-2.27678c0,-0.892857 0.3125,-1.65179 0.9375,-2.27679c0.625,-0.625 1.38393,-0.9375 2.27679,-0.9375c0.892857,0 1.65178,0.3125 2.27678,0.9375c0.625,0.625 0.9375,1.38393 0.9375,2.27679Zm23.5714,6.96429v3.21429c0,0.145089 -0.053013,0.270647 -0.15904,0.376674c-0.106027,0.106027 -0.231585,0.15904 -0.376674,0.15904h-20.3571c-0.145089,0 -0.270647,-0.053013 -0.376674,-0.15904c-0.106027,-0.106027 -0.15904,-0.231585 -0.15904,-0.376674v-3.21429c0,-0.145089 0.053013,-0.270647 0.15904,-0.376674c0.106027,-0.106026 0.231585,-0.15904 0.376674,-0.15904h20.3571c0.145089,0 0.270647,0.053014 0.376674,0.15904c0.106027,0.106027 0.15904,0.231585 0.15904,0.376674Zm-23.5714,-15.5357c1.77636e-15,0.892857 -0.3125,1.65179 -0.9375,2.27679c-0.625,0.625 -1.38393,0.9375 -2.27678,0.9375c-0.892857,0 -1.65179,-0.3125 -2.27679,-0.9375c-0.625,-0.625 -0.9375,-1.38393 -0.9375,-2.27679c0,-0.892857 0.3125,-1.65179 0.9375,-2.27679c0.625,-0.625 1.38393,-0.9375 2.27679,-0.9375c0.892857,0 1.65178,0.3125 2.27678,0.9375c0.625,0.625 0.9375,1.38393 0.9375,2.27679Zm23.5714,6.96429v3.21429c0,0.145089 -0.053013,0.270647 -0.15904,0.376674c-0.106027,0.106026 -0.231585,0.15904 -0.376674,0.15904h-20.3571c-0.145089,0 -0.270647,-0.053014 -0.376674,-0.15904c-0.106027,-0.106027 -0.15904,-0.231585 -0.15904,-0.376674v-3.21429c0,-0.145089 0.053013,-0.270647 0.15904,-0.376674c0.106027,-0.106027 0.231585,-0.15904 0.376674,-0.15904h20.3571c0.145089,0 0.270647,0.053013 0.376674,0.15904c0.106027,0.106027 0.15904,0.231585 0.15904,0.376674Zm0,-8.57143v3.21429c0,0.145089 -0.053013,0.270647 -0.15904,0.376674c-0.106027,0.106027 -0.231585,0.15904 -0.376674,0.15904h-20.3571c-0.145089,0 -0.270647,-0.053013 -0.376674,-0.15904c-0.106027,-0.106027 -0.15904,-0.231585 -0.15904,-0.376674v-3.21429c0,-0.145089 0.053013,-0.270647 0.15904,-0.376674c0.106027,-0.106027 0.231585,-0.15904 0.376674,-0.15904h20.3571c0.145089,0 0.270647,0.053013 0.376674,0.15904c0.106027,0.106027 0.15904,0.231585 0.15904,0.376674Z" transform="translate(0, -46.0714)"></path></g></svg>