<?xml version="1.0" encoding="UTF-8"?><svg version="1.1" viewBox="0 -47.1429 30 23.5714" xmlns="http://www.w3.org/2000/svg" xmlns:xlink="http://www.w3.org/1999/xlink"><!--Generated by IJSVG (https://github.com/curthard89/IJSVG)--><g fill="#000000"><path d="M6.42857,6.96429v9.64286c0,0.145089 -0.053013,0.270647 -0.15904,0.376674c-0.106027,0.106027 -0.231585,0.15904 -0.376674,0.15904c-0.15625,0 -0.284598,-0.050223 -0.385045,-0.15067l-4.82143,-4.82143c-0.100446,-0.100447 -0.15067,-0.228795 -0.15067,-0.385045c0,-0.15625 0.050224,-0.284598 0.15067,-0.385045l4.82143,-4.82143c0.100447,-0.100446 0.228795,-0.15067 0.385045,-0.15067c0.145089,0 0.270647,0.053014 0.376674,0.15904c0.106027,0.106027 0.15904,0.231585 0.15904,0.376675Zm23.5714,12.8571v3.21429c0,0.145089 -0.053013,0.270647 -0.15904,0.376674c-0.106027,0.106027 -0.231585,0.15904 -0.376674,0.15904h-28.9286c-0.145089,0 -0.270647,-0.053013 -0.376674,-0.15904c-0.106027,-0.106027 -0.15904,-0.231585 -0.15904,-0.376674v-3.21429c0,-0.145089 0.053013,-0.270647 0.15904,-0.376674c0.106027,-0.106026 0.231585,-0.15904 0.376674,-0.15904h28.9286c0.145089,0 0.270647,0.053014 0.376674,0.15904c0.106027,0.106027 0.15904,0.231585 0.15904,0.376674Zm0,-6.42857v3.21429c0,0.145089 -0.053013,0.270647 -0.15904,0.376674c-0.106027,0.106027 -0.231585,0.15904 -0.376674,0.15904h-18.2143c-0.145089,0 -0.270647,-0.053013 -0.376674,-0.15904c-0.106027,-0.106027 -0.15904,-0.231585 -0.15904,-0.376674v-3.21429c0,-0.145089 0.053013,-0.270647 0.15904,-0.376674c0.106027,-0.106027 0.231585,-0.15904 0.376674,-0.15904h18.2143c0.145089,0 0.270647,0.053013 0.376674,0.15904c0.106027,0.106027 0.15904,0.231585 0.15904,0.376674Zm0,-6.42857v3.21428c0,0.14509 -0.053013,0.270648 -0.15904,0.376674c-0.106027,0.106027 -0.231585,0.159041 -0.376674,0.159041h-18.2143c-0.145089,0 -0.270647,-0.053014 -0.376674,-0.159041c-0.106027,-0.106026 -0.15904,-0.231584 -0.15904,-0.376674v-3.21428c0,-0.14509 0.053013,-0.270648 0.15904,-0.376675c0.106027,-0.106026 0.231585,-0.15904 0.376674,-0.15904h18.2143c0.145089,0 0.270647,0.053014 0.376674,0.15904c0.106027,0.106027 0.15904,0.231585 0.15904,0.376675Zm0,-6.42857v3.21429c0,0.145089 -0.053013,0.270647 -0.15904,0.376674c-0.106027,0.106027 -0.231585,0.15904 -0.376674,0.15904h-28.9286c-0.145089,0 -0.270647,-0.053013 -0.376674,-0.15904c-0.106027,-0.106027 -0.15904,-0.231585 -0.15904,-0.376674v-3.21429c0,-0.145089 0.053013,-0.270647 0.15904,-0.376674c0.106027,-0.106027 0.231585,-0.15904 0.376674,-0.15904h28.9286c0.145089,0 0.270647,0.053013 0.376674,0.15904c0.106027,0.106027 0.15904,0.231585 0.15904,0.376674Z" transform="translate(0, -47.1429)"></path></g></svg>