<?xml version="1.0" encoding="UTF-8"?><svg version="1.1" viewBox="0 -55.7143 30 30" xmlns="http://www.w3.org/2000/svg" xmlns:xlink="http://www.w3.org/1999/xlink"><!--Generated by IJSVG (https://github.com/curthard89/IJSVG)--><g fill="#000000"><path d="M12.8571,27.8571h15v-10.7143h-6.96429c-0.446428,0 -0.825893,-0.15625 -1.13839,-0.46875c-0.3125,-0.3125 -0.46875,-0.691964 -0.46875,-1.13839v-6.96429h-6.42857Zm4.28571,-24.1071v-1.07143c0,-0.14509 -0.053013,-0.270648 -0.15904,-0.376674c-0.106027,-0.106027 -0.231585,-0.159041 -0.376674,-0.159041h-11.7857c-0.14509,0 -0.270648,0.053014 -0.376675,0.159041c-0.106026,0.106026 -0.15904,0.231584 -0.15904,0.376674v1.07143c0,0.14509 0.053014,0.270648 0.15904,0.376674c0.106027,0.106027 0.231585,0.159041 0.376675,0.159041h11.7857c0.145089,0 0.270647,-0.053014 0.376674,-0.159041c0.106027,-0.106026 0.15904,-0.231584 0.15904,-0.376674Zm4.28571,11.25h5.00558l-5.00558,-5.00558Zm8.57143,2.14286v11.25c0,0.446429 -0.15625,0.825893 -0.46875,1.13839c-0.3125,0.3125 -0.691964,0.46875 -1.13839,0.46875h-16.0714c-0.446429,0 -0.825893,-0.15625 -1.13839,-0.46875c-0.3125,-0.3125 -0.46875,-0.691964 -0.46875,-1.13839v-2.67857h-9.10714c-0.446429,0 -0.825893,-0.15625 -1.13839,-0.46875c-0.3125,-0.3125 -0.46875,-0.691964 -0.46875,-1.13839v-22.5c0,-0.446428 0.15625,-0.825893 0.46875,-1.13839c0.3125,-0.3125 0.691964,-0.46875 1.13839,-0.46875h18.2143c0.446428,0 0.825892,0.15625 1.13839,0.46875c0.3125,0.3125 0.46875,0.691965 0.46875,1.13839v5.49107c0.234375,0.145089 0.435268,0.301339 0.602679,0.46875l6.83036,6.83036c0.3125,0.3125 0.580357,0.736607 0.803572,1.27232c0.223214,0.535714 0.334821,1.02679 0.334821,1.47321Z" transform="translate(0, -55.7143)"></path></g></svg>