<?xml version="1.0" encoding="UTF-8"?><svg version="1.1" viewBox="0 -51.4286 30 26.7857" xmlns="http://www.w3.org/2000/svg" xmlns:xlink="http://www.w3.org/1999/xlink"><!--Generated by IJSVG (https://github.com/curthard89/IJSVG)--><g fill="#000000"><path d="M30,17.6786c0,1.85268 -0.708705,4.36942 -2.12612,7.55022c-0.033482,0.078125 -0.092076,0.212054 -0.175781,0.401786c-0.083706,0.189732 -0.159041,0.357143 -0.226005,0.502232c-0.066964,0.145089 -0.139509,0.267857 -0.217634,0.368304c-0.133928,0.189732 -0.290178,0.284598 -0.46875,0.284598c-0.16741,0 -0.298549,-0.055804 -0.393415,-0.167411c-0.094866,-0.111607 -0.142299,-0.251116 -0.142299,-0.418527c0,-0.100446 0.013951,-0.248326 0.041853,-0.443638c0.027901,-0.195313 0.041852,-0.326451 0.041852,-0.393415c0.055804,-0.758929 0.083706,-1.44531 0.083706,-2.05915c0,-1.12723 -0.097657,-2.13728 -0.292969,-3.03013c-0.195313,-0.892857 -0.46596,-1.66574 -0.811942,-2.31864c-0.345982,-0.652902 -0.792411,-1.21652 -1.33929,-1.69085c-0.546875,-0.47433 -1.1356,-0.862165 -1.76618,-1.1635c-0.63058,-0.301339 -1.37277,-0.538504 -2.22656,-0.711496c-0.853795,-0.172991 -1.71317,-0.292968 -2.57812,-0.359933c-0.864956,-0.066964 -1.84431,-0.100446 -2.93806,-0.100446h-3.75v4.28571c0,0.290179 -0.106027,0.541295 -0.318081,0.753348c-0.212053,0.212054 -0.463169,0.318081 -0.753348,0.318081c-0.290178,0 -0.541295,-0.106027 -0.753348,-0.318081l-8.57143,-8.57143c-0.212053,-0.212054 -0.31808,-0.46317 -0.31808,-0.753348c0,-0.290179 0.106027,-0.541295 0.31808,-0.753348l8.57143,-8.57143c0.212053,-0.212054 0.46317,-0.31808 0.753348,-0.31808c0.290179,0 0.541295,0.106026 0.753348,0.31808c0.212054,0.212053 0.318081,0.46317 0.318081,0.753348v4.28571h3.75c7.95759,0 12.8404,2.24888 14.6484,6.74665c0.591518,1.49554 0.887277,3.35379 0.887277,5.57478Z" transform="translate(0, -51.4286)"></path></g></svg>