<?xml version="1.0" encoding="UTF-8"?><svg width="30" height="24" version="1.1" viewBox="-0.105536 -44.7917 30 24" xmlns="http://www.w3.org/2000/svg" xmlns:xlink="http://www.w3.org/1999/xlink"><!--Generated by IJSVG (https://github.com/curthard89/IJSVG)--><g transform="scale(0.995371)"><g fill="#000000"><path d="M16.1775,10.7143c0.290178,0 0.541294,0.106026 0.753348,0.31808c0.212053,0.212054 0.31808,0.46317 0.31808,0.753348c0,0.290179 -0.106027,0.541295 -0.31808,0.753348c-0.212054,0.212054 -0.46317,0.318081 -0.753348,0.318081c-0.290179,0 -0.541295,-0.106027 -0.753349,-0.318081c-0.212053,-0.212053 -0.31808,-0.463169 -0.31808,-0.753348c0,-0.290178 0.106027,-0.541294 0.31808,-0.753348c0.212054,-0.212054 0.46317,-0.31808 0.753349,-0.31808Zm5.02232,1.07143l8.48772,6.66295c0.3125,0.223214 0.452009,0.535714 0.418527,0.9375c-0.055804,0.390625 -0.251116,0.675223 -0.585938,0.853794l-2.14286,1.07143c-0.145089,0.078125 -0.306919,0.117187 -0.485491,0.117187c-0.189732,0 -0.362723,-0.044642 -0.518973,-0.133928l-11.5513,-6.4788l-1.84152,1.10491c-0.089286,0.044643 -0.15625,0.072545 -0.200893,0.083705c0.15625,0.546875 0.212054,1.08817 0.167411,1.62388c-0.078125,0.859375 -0.390625,1.68248 -0.9375,2.46931c-0.546875,0.786831 -1.28348,1.47601 -2.20982,2.06752c-1.47321,0.9375 -3.01897,1.40625 -4.63728,1.40625c-1.51786,0 -2.7567,-0.435268 -3.71652,-1.3058c-1.00447,-0.9375 -1.44531,-2.09263 -1.32255,-3.4654c0.078125,-0.848214 0.390625,-1.66853 0.9375,-2.46094c0.546875,-0.792411 1.2779,-1.48438 2.19308,-2.07589c1.47322,-0.9375 3.02455,-1.40625 4.65402,-1.40625c0.92634,0 1.76897,0.172991 2.5279,0.518973c0.100447,-0.145089 0.223214,-0.267857 0.368304,-0.368304l2.04241,-1.2221l-2.04241,-1.2221c-0.14509,-0.100446 -0.267857,-0.223214 -0.368304,-0.368304c-0.758929,0.345983 -1.60156,0.518974 -2.5279,0.518974c-1.62946,0 -3.1808,-0.46875 -4.65402,-1.40625c-0.915178,-0.591518 -1.6462,-1.28348 -2.19308,-2.07589c-0.546875,-0.792411 -0.859375,-1.61272 -0.9375,-2.46094c-0.055803,-0.658482 0.030692,-1.28906 0.259487,-1.89174c0.228794,-0.602678 0.583147,-1.12165 1.06306,-1.55692c0.94866,-0.881697 2.1875,-1.32254 3.71652,-1.32254c1.6183,0 3.16406,0.46875 4.63728,1.40625c0.92634,0.580357 1.66295,1.26674 2.20982,2.05915c0.546875,0.79241 0.859375,1.6183 0.9375,2.47768c0.044643,0.535715 -0.011161,1.07701 -0.167411,1.62388c0.044643,0.011161 0.111607,0.039063 0.200893,0.083706l1.84152,1.10491l11.5513,-6.47879c0.15625,-0.089286 0.329241,-0.133929 0.518973,-0.133929c0.178572,0 0.340402,0.039063 0.485491,0.117188l2.14286,1.07143c0.334822,0.178572 0.530134,0.46317 0.585938,0.853795c0.033482,0.401786 -0.106027,0.714286 -0.418527,0.9375Zm-11.4007,-4.35268c0.513393,-0.46875 0.630581,-1.07143 0.351563,-1.80804c-0.279018,-0.736607 -0.870536,-1.38951 -1.77455,-1.95871c-1.02678,-0.658483 -2.09821,-0.987724 -3.21428,-0.987724c-0.825893,0 -1.45647,0.200893 -1.89174,0.602679c-0.513392,0.46875 -0.63058,1.07143 -0.351562,1.80804c0.279018,0.736607 0.870536,1.38951 1.77455,1.95871c1.02678,0.658482 2.09821,0.987723 3.21428,0.987723c0.825893,0 1.45647,-0.200893 1.89174,-0.602678Zm-1.42299,12.4721c0.904018,-0.569196 1.49554,-1.2221 1.77455,-1.95871c0.279018,-0.736608 0.16183,-1.33929 -0.351563,-1.80804c-0.435268,-0.401786 -1.06585,-0.602679 -1.89174,-0.602679c-1.11607,0 -2.1875,0.329241 -3.21428,0.987724c-0.904018,0.569196 -1.49554,1.2221 -1.77455,1.95871c-0.279018,0.736607 -0.16183,1.33929 0.351562,1.80804c0.435268,0.401785 1.06585,0.602678 1.89174,0.602678c1.11607,0 2.1875,-0.329241 3.21428,-0.987723Zm2.97991,-10.2623l1.60714,0.970982v-0.184151c0,-0.401786 0.184152,-0.714286 0.552455,-0.9375l0.234375,-0.133929l-1.32254,-0.78683l-0.435268,0.435267c-0.033482,0.033483 -0.089286,0.094866 -0.167411,0.184152c-0.078125,0.089286 -0.145089,0.15625 -0.200893,0.200893c-0.022321,0.022321 -0.044643,0.041853 -0.066964,0.058594c-0.022322,0.016741 -0.039063,0.030692 -0.050223,0.041853Zm3.75,3.75l1.60714,0.535714l12.3214,-9.64286l-2.14286,-1.07143l-12.8571,7.2154v1.89174l-2.67857,1.60714l0.15067,0.133929c0.022321,0.022321 0.061384,0.055804 0.117187,0.100446c0.044643,0.044643 0.106027,0.111608 0.184152,0.200893c0.078125,0.089286 0.139509,0.15625 0.184152,0.200893l0.435268,0.435268Zm11.7857,6.96429l2.14286,-1.07143l-8.70536,-6.83036l-2.96317,2.31027c-0.022322,0.033482 -0.094866,0.072545 -0.217634,0.117188Z" transform="translate(-0.106027, -45)"></path></g></g></svg>