<?xml version="1.0" encoding="UTF-8"?><svg version="1.1" viewBox="0 -51.4286 30 26.7857" xmlns="http://www.w3.org/2000/svg" xmlns:xlink="http://www.w3.org/1999/xlink"><!--Generated by IJSVG (https://github.com/curthard89/IJSVG)--><g fill="#000000"><path d="M30,9.64286c0,0.290178 -0.106027,0.541294 -0.31808,0.753348l-8.57143,8.57143c-0.212053,0.212054 -0.46317,0.318081 -0.753348,0.318081c-0.290179,0 -0.541295,-0.106027 -0.753348,-0.318081c-0.212054,-0.212053 -0.318081,-0.463169 -0.318081,-0.753348v-4.28571h-3.75c-1.09375,0 -2.0731,0.033482 -2.93806,0.100446c-0.864955,0.066965 -1.72433,0.186942 -2.57812,0.359933c-0.853794,0.172992 -1.59598,0.410157 -2.22656,0.711496c-0.630581,0.301339 -1.21931,0.689174 -1.76618,1.1635c-0.546875,0.474331 -0.993304,1.03795 -1.33929,1.69085c-0.345982,0.652901 -0.616629,1.42578 -0.811942,2.31864c-0.195312,0.892857 -0.292969,1.9029 -0.292969,3.03013c0,0.613839 0.027902,1.30022 0.083706,2.05915c0,0.066964 0.013951,0.198102 0.041852,0.393415c0.027902,0.195312 0.041853,0.343192 0.041853,0.443638c0,0.167411 -0.047433,0.30692 -0.142299,0.418527c-0.094866,0.111607 -0.226005,0.167411 -0.393415,0.167411c-0.178572,0 -0.334822,-0.094866 -0.46875,-0.284598c-0.078125,-0.100447 -0.15067,-0.223215 -0.217634,-0.368304c-0.066964,-0.145089 -0.142299,-0.3125 -0.226005,-0.502232c-0.083705,-0.189732 -0.142299,-0.323661 -0.175781,-0.401786c-1.41741,-3.1808 -2.12612,-5.69754 -2.12612,-7.55022c0,-2.22098 0.295759,-4.07924 0.887277,-5.57478c1.80803,-4.49777 6.69085,-6.74665 14.6484,-6.74665h3.75v-4.28571c0,-0.290178 0.106027,-0.541295 0.318081,-0.753348c0.212053,-0.212054 0.463169,-0.31808 0.753348,-0.31808c0.290178,0 0.541295,0.106026 0.753348,0.31808l8.57143,8.57143c0.212053,0.212053 0.31808,0.463169 0.31808,0.753348Z" transform="translate(0, -51.4286)"></path></g></svg>