<?xml version="1.0" encoding="UTF-8"?><svg width="26" height="26" version="1.1" viewBox="0 -49.8333 26 26" xmlns="http://www.w3.org/2000/svg" xmlns:xlink="http://www.w3.org/1999/xlink"><!--Generated by IJSVG (https://github.com/curthard89/IJSVG)--><g transform="scale(1.01111)"><g fill="#000000"><path d="M25.7143,12.8571c0,1.74107 -0.340402,3.40402 -1.02121,4.98884c-0.680803,1.58482 -1.59598,2.95201 -2.74553,4.10156c-1.14955,1.14955 -2.51674,2.06473 -4.10156,2.74554c-1.58482,0.680804 -3.24777,1.02121 -4.98884,1.02121c-1.91964,0 -3.74442,-0.404575 -5.47433,-1.21373c-1.72991,-0.809152 -3.20312,-1.95033 -4.41964,-3.42355c-0.078125,-0.111607 -0.114398,-0.237166 -0.108817,-0.376674c0.00558,-0.139509 0.053013,-0.253907 0.142299,-0.343192l2.29353,-2.31027c0.111607,-0.100447 0.251116,-0.15067 0.418526,-0.15067c0.178572,0.022322 0.30692,0.089286 0.385045,0.200893c0.814732,1.06027 1.81362,1.88058 2.99665,2.46094c1.18304,0.580358 2.43862,0.870536 3.76674,0.870536c1.16071,0 2.26841,-0.226004 3.3231,-0.678013c1.05469,-0.452009 1.96708,-1.06306 2.73717,-1.83315c0.770089,-0.770089 1.38114,-1.68248 1.83315,-2.73717c0.452009,-1.05469 0.678013,-2.16239 0.678013,-3.3231c0,-1.16072 -0.226004,-2.26842 -0.678013,-3.3231c-0.452009,-1.05469 -1.06306,-1.96708 -1.83315,-2.73716c-0.77009,-0.77009 -1.68248,-1.38114 -2.73717,-1.83315c-1.05469,-0.452009 -2.16239,-0.678013 -3.3231,-0.678013c-1.09375,0 -2.14286,0.198103 -3.14732,0.594308c-1.00446,0.396205 -1.89732,0.962612 -2.67857,1.69922l2.29353,2.31027c0.345982,0.334821 0.424107,0.719866 0.234375,1.15513c-0.189732,0.446428 -0.518973,0.669642 -0.987723,0.669642h-7.5c-0.290179,0 -0.541295,-0.106026 -0.753349,-0.31808c-0.212053,-0.212053 -0.31808,-0.46317 -0.31808,-0.753348v-7.5c0,-0.46875 0.223214,-0.797991 0.669643,-0.987723c0.435268,-0.189732 0.820312,-0.111608 1.15513,0.234375l2.17634,2.1596c1.1942,-1.12723 2.55859,-2.00056 4.09319,-2.61998c1.5346,-0.619419 3.12221,-0.929129 4.76284,-0.929129c1.74107,0 3.40402,0.340402 4.98884,1.02121c1.58482,0.680804 2.95201,1.59598 4.10156,2.74554c1.14955,1.14955 2.06473,2.51674 2.74553,4.10156c0.680804,1.58482 1.02121,3.24777 1.02121,4.98884Z" transform="translate(0, -49.2857)"></path></g></g></svg>