<?xml version="1.0" encoding="UTF-8"?><svg width="28" height="28" version="1.1" viewBox="0 -53.8462 28 28" xmlns="http://www.w3.org/2000/svg" xmlns:xlink="http://www.w3.org/1999/xlink"><!--Generated by IJSVG (https://github.com/curthard89/IJSVG)--><g transform="scale(1.00513)"><g fill="#000000"><path d="M7.34933,21.2779l-4.28571,4.28571c-0.122768,0.100446 -0.251116,0.150669 -0.385045,0.150669c-0.133928,0 -0.262276,-0.050223 -0.385044,-0.150669c-0.100447,-0.111608 -0.15067,-0.239956 -0.15067,-0.385045c0,-0.145089 0.050223,-0.273438 0.15067,-0.385045l4.28571,-4.28571c0.111607,-0.100446 0.239955,-0.15067 0.385045,-0.15067c0.145089,0 0.273437,0.050224 0.385044,0.15067c0.100447,0.111607 0.15067,0.239955 0.15067,0.385045c0,0.145089 -0.050223,0.273437 -0.15067,0.385044Zm2.82924,0.686384v5.35714c0,0.15625 -0.050223,0.284598 -0.150669,0.385045c-0.100447,0.100446 -0.228795,0.150669 -0.385045,0.150669c-0.15625,0 -0.284598,-0.050223 -0.385045,-0.150669c-0.100446,-0.100447 -0.150669,-0.228795 -0.150669,-0.385045v-5.35714c0,-0.15625 0.050223,-0.284598 0.150669,-0.385045c0.100447,-0.100446 0.228795,-0.150669 0.385045,-0.150669c0.15625,0 0.284598,0.050223 0.385045,0.150669c0.100446,0.100447 0.150669,0.228795 0.150669,0.385045Zm-3.75,-3.75c0,0.15625 -0.050223,0.284598 -0.150669,0.385045c-0.100447,0.100446 -0.228795,0.150669 -0.385045,0.150669h-5.35714c-0.15625,0 -0.284598,-0.050223 -0.385044,-0.150669c-0.100447,-0.100447 -0.15067,-0.228795 -0.15067,-0.385045c0,-0.15625 0.050223,-0.284598 0.15067,-0.385045c0.100446,-0.100446 0.228794,-0.150669 0.385044,-0.150669h5.35714c0.15625,0 0.284598,0.050223 0.385045,0.150669c0.100446,0.100447 0.150669,0.228795 0.150669,0.385045Zm21.1607,2.14286c0,1.33929 -0.474331,2.4721 -1.42299,3.39844l-2.46094,2.4442c-0.926339,0.92634 -2.05915,1.38951 -3.39844,1.38951c-1.35045,0 -2.48884,-0.47433 -3.41518,-1.42299l-5.59152,-5.60826c-0.234375,-0.234375 -0.46875,-0.546875 -0.703125,-0.9375l4.00112,-0.301339l4.57031,4.58705c0.301339,0.30134 0.680803,0.4548 1.13839,0.46038c0.457589,0.00558 0.837053,-0.142299 1.13839,-0.443639l2.46094,-2.4442c0.3125,-0.3125 0.46875,-0.686384 0.46875,-1.12165c0,-0.446428 -0.15625,-0.825893 -0.46875,-1.13839l-4.58705,-4.60379l0.30134,-4.00112c0.390625,0.234375 0.703125,0.46875 0.9375,0.703125l5.625,5.625c0.9375,0.959821 1.40625,2.09821 1.40625,3.41518Zm-10.3292,-12.1205l-4.00112,0.301339l-4.57031,-4.58705c-0.3125,-0.3125 -0.691964,-0.46875 -1.13839,-0.46875c-0.435268,0 -0.814732,0.15067 -1.13839,0.452009l-2.46094,2.4442c-0.3125,0.3125 -0.46875,0.686384 -0.46875,1.12165c0,0.446429 0.15625,0.825893 0.46875,1.13839l4.58705,4.58705l-0.301339,4.01786c-0.390625,-0.234375 -0.703125,-0.46875 -0.9375,-0.703125l-5.625,-5.625c-0.9375,-0.959821 -1.40625,-2.09821 -1.40625,-3.41518c0,-1.33928 0.474331,-2.4721 1.42299,-3.39844l2.46094,-2.4442c0.926339,-0.92634 2.05915,-1.38951 3.39844,-1.38951c1.35045,0 2.48884,0.47433 3.41518,1.42299l5.59152,5.60826c0.234375,0.234375 0.46875,0.546875 0.703125,0.9375Zm10.5971,1.40625c0,0.15625 -0.050223,0.284598 -0.15067,0.385044c-0.100446,0.100447 -0.228794,0.15067 -0.385044,0.15067h-5.35714c-0.15625,0 -0.284598,-0.050223 -0.385045,-0.15067c-0.100446,-0.100446 -0.15067,-0.228794 -0.15067,-0.385044c0,-0.15625 0.050224,-0.284599 0.15067,-0.385045c0.100447,-0.100446 0.228795,-0.15067 0.385045,-0.15067h5.35714c0.15625,0 0.284598,0.050224 0.385044,0.15067c0.100447,0.100446 0.15067,0.228795 0.15067,0.385045Zm-9.10714,-9.10714v5.35714c0,0.15625 -0.050223,0.284598 -0.15067,0.385044c-0.100446,0.100447 -0.228794,0.15067 -0.385044,0.15067c-0.15625,0 -0.284598,-0.050223 -0.385045,-0.15067c-0.100446,-0.100446 -0.15067,-0.228794 -0.15067,-0.385044v-5.35714c0,-0.15625 0.050224,-0.284598 0.15067,-0.385045c0.100447,-0.100446 0.228795,-0.15067 0.385045,-0.15067c0.15625,0 0.284598,0.050224 0.385044,0.15067c0.100447,0.100447 0.15067,0.228795 0.15067,0.385045Zm6.81362,2.5279l-4.28571,4.28571c-0.122768,0.100446 -0.251116,0.150669 -0.385045,0.150669c-0.133928,0 -0.262277,-0.050223 -0.385045,-0.150669c-0.100446,-0.111607 -0.150669,-0.239956 -0.150669,-0.385045c0,-0.145089 0.050223,-0.273437 0.150669,-0.385045l4.28571,-4.28571c0.111607,-0.100446 0.239955,-0.150669 0.385044,-0.150669c0.14509,0 0.273438,0.050223 0.385045,0.150669c0.100446,0.111607 0.15067,0.239956 0.15067,0.385045c0,0.145089 -0.050224,0.273437 -0.15067,0.385045Z" transform="translate(0, -53.5714)"></path></g></g></svg>