<svg width="26" height="25" viewBox="0 -48.7501 25.7143 25.1786" xmlns="http://www.w3.org/2000/svg"><path d="M12.857-48.75c7.098 0 12.857 5.759 12.857 12.857 0 5.675-3.683 10.497-8.789 12.204-.653.118-.887-.284-.887-.619 0-.419.017-1.808.017-3.532 0-1.206-.402-1.976-.87-2.378 2.862-.318 5.875-1.406 5.875-6.344 0-1.407-.502-2.545-1.322-3.45.134-.334.569-1.64-.134-3.414-1.072-.335-3.532 1.322-3.532 1.322a12.105 12.105 0 0 0-6.43 0s-2.46-1.657-3.531-1.322c-.704 1.774-.268 3.08-.134 3.415-.82.904-1.323 2.042-1.323 3.449 0 4.921 2.997 6.026 5.86 6.344-.369.335-.704.904-.82 1.725-.737.335-2.612.904-3.734-1.072a2.696 2.696 0 0 0-1.976-1.322c-1.255-.017-.083.787-.083.787.837.385 1.423 1.875 1.423 1.875.753 2.293 4.336 1.523 4.336 1.523 0 1.071.016 2.076.016 2.394 0 .335-.234.737-.887.62C3.683-25.397 0-30.219 0-35.894 0-42.99 5.76-48.75 12.857-48.75zM4.872-30.285c-.034.067-.134.084-.218.034-.1-.05-.15-.134-.117-.201.033-.05.117-.067.218-.034.1.05.15.134.117.201zm.519.57c-.067.066-.184.033-.268-.05-.084-.101-.1-.218-.034-.269.067-.067.184-.033.268.05.084.101.1.218.034.268zm.502.753c-.067.05-.201 0-.285-.117-.083-.118-.083-.251 0-.302.084-.067.218-.016.285.1.084.118.084.252 0 .319zm.703.703c-.067.084-.218.067-.335-.05-.117-.1-.15-.251-.067-.318.067-.084.218-.067.335.05.1.1.134.251.067.318zm.954.418c-.033.1-.184.151-.318.1-.15-.033-.25-.15-.217-.25s.184-.15.318-.117c.15.05.25.167.217.267zm1.055.084c0 .1-.117.184-.268.184-.167.017-.284-.067-.284-.184 0-.1.117-.184.267-.184.151-.017.285.067.285.184zm.97-.167c.018.1-.083.2-.233.234-.151.034-.285-.033-.302-.134-.017-.117.084-.217.235-.25.15-.018.284.05.3.15z"/></svg>