<?xml version="1.0" encoding="UTF-8"?>
<svg width="26" height="25" version="1.1" viewBox="0 -48.7501 25.7143 25.1786" xmlns="http://www.w3.org/2000/svg" xmlns:xlink="http://www.w3.org/1999/xlink">
    <!--Generated by IJSVG (https://github.com/curthard89/IJSVG)-->
    <g fill="#000000">
        <path d="M12.8572,0c7.09822,0 12.8572,5.75894 12.8572,12.8572c0,5.67523 -3.68304,10.4967 -8.78907,12.2043c-0.652902,0.117187 -0.887277,-0.284599 -0.887277,-0.619421c0,-0.418527 0.016741,-1.80804 0.016741,-3.53237c0,-1.20536 -0.401787,-1.97545 -0.870537,-2.37723c2.86273,-0.318081 5.87612,-1.40625 5.87612,-6.34487c0,-1.40625 -0.502233,-2.54464 -1.32255,-3.44866c0.133928,-0.334822 0.569197,-1.64063 -0.133929,-3.41518c-1.07143,-0.334822 -3.53237,1.32255 -3.53237,1.32255c-1.02121,-0.284598 -2.12612,-0.435268 -3.21429,-0.435268c-1.08817,0 -2.19308,0.15067 -3.21429,0.435268c0,0 -2.46094,-1.65737 -3.53237,-1.32255c-0.703125,1.77456 -0.267857,3.08036 -0.133928,3.41518c-0.820314,0.904019 -1.32255,2.04241 -1.32255,3.44866c0,4.92188 2.99666,6.02679 5.85938,6.34487c-0.368304,0.334822 -0.703125,0.904019 -0.820313,1.72433c-0.736608,0.334822 -2.61161,0.904019 -3.73326,-1.07143c-0.703126,-1.2221 -1.97545,-1.32255 -1.97545,-1.32255c-1.25558,-0.016741 -0.083706,0.786832 -0.083706,0.786832c0.837055,0.385045 1.42299,1.875 1.42299,1.875c0.753349,2.29353 4.33594,1.52344 4.33594,1.52344c0,1.07143 0.016741,2.0759 0.016741,2.39398c0,0.334822 -0.234375,0.736608 -0.887278,0.619421c-5.10603,-1.70759 -8.78907,-6.52903 -8.78907,-12.2043c0,-7.09822 5.75894,-12.8572 12.8572,-12.8572Zm-7.9855,18.4654c-0.033483,0.066964 -0.133929,0.083705 -0.217635,0.033482c-0.100446,-0.050223 -0.150669,-0.133929 -0.117187,-0.200893c0.033482,-0.050224 0.117187,-0.066965 0.217634,-0.033482c0.100447,0.050223 0.15067,0.133928 0.117188,0.200893Zm0.518973,0.569197c-0.066964,0.066964 -0.184152,0.033482 -0.267857,-0.050223c-0.083705,-0.100447 -0.100447,-0.217635 -0.033482,-0.267858c0.066964,-0.066964 0.184152,-0.033482 0.267857,0.050223c0.083706,0.100447 0.100447,0.217635 0.033482,0.267858Zm0.502233,0.753349c-0.066964,0.050223 -0.200893,0 -0.284598,-0.117188c-0.083706,-0.117187 -0.083706,-0.251116 0,-0.301339c0.083705,-0.066965 0.217634,-0.016741 0.284598,0.100446c0.083706,0.117188 0.083706,0.251117 0,0.318081Zm0.703126,0.703126c-0.066964,0.083705 -0.217634,0.066964 -0.334822,-0.050224c-0.117187,-0.100446 -0.15067,-0.251116 -0.066964,-0.31808c0.066964,-0.083706 0.217634,-0.066965 0.334822,0.050223c0.100446,0.100447 0.133928,0.251116 0.066964,0.318081Zm0.954242,0.418527c-0.033482,0.100447 -0.184152,0.15067 -0.318081,0.100447c-0.150669,-0.033483 -0.251116,-0.15067 -0.217634,-0.251117c0.033482,-0.100446 0.184152,-0.15067 0.318081,-0.117187c0.15067,0.050223 0.251116,0.16741 0.217634,0.267857Zm1.05469,0.083705c0,0.100447 -0.117188,0.184152 -0.267857,0.184152c-0.167411,0.016742 -0.284599,-0.066964 -0.284599,-0.184152c0,-0.100446 0.117188,-0.184152 0.267857,-0.184152c0.15067,-0.016741 0.284599,0.066965 0.284599,0.184152Zm0.970983,-0.16741c0.016741,0.100446 -0.083705,0.200893 -0.234375,0.234375c-0.15067,0.033482 -0.284599,-0.033482 -0.30134,-0.133929c-0.016741,-0.117188 0.083706,-0.217634 0.234376,-0.251116c0.150669,-0.016741 0.284598,0.050223 0.301339,0.15067Z" transform="translate(0, -48.7501)"></path>
    </g>
</svg>