<?xml version="1.0" encoding="UTF-8"?>
<svg width="26" height="21" version="1.1" viewBox="0.736608 -42.8572 26.384 21.4286" xmlns="http://www.w3.org/2000/svg" xmlns:xlink="http://www.w3.org/1999/xlink">
    <!--Generated by IJSVG (https://github.com/curthard89/IJSVG)-->
    <g fill="#000000">
        <path d="M26.384,2.54465c-0.970983,0.418527 -2.02567,0.719867 -3.11384,0.837055c1.12165,-0.669644 1.97545,-1.72433 2.37723,-2.97991c-1.03795,0.619421 -2.20982,1.07143 -3.43192,1.3058c-0.987724,-1.05469 -2.39398,-1.70759 -3.9509,-1.70759c-2.99666,0 -5.40737,2.42746 -5.40737,5.40737c0,0.418527 0.050223,0.837054 0.133929,1.23884c-4.48661,-0.234375 -8.48773,-2.37724 -11.1496,-5.65849c-0.46875,0.803573 -0.736608,1.72433 -0.736608,2.7288c0,1.875 0.954242,3.53237 2.41072,4.50335c-0.887278,-0.033482 -1.72433,-0.284599 -2.4442,-0.686385c0,0.016741 0,0.050223 0,0.066965c0,2.62835 1.85826,4.80469 4.33594,5.30693c-0.45201,0.117187 -0.937502,0.184152 -1.42299,0.184152c-0.351563,0 -0.686385,-0.033483 -1.02121,-0.083706c0.686385,2.14286 2.67857,3.69978 5.05581,3.75001c-1.85826,1.45647 -4.18527,2.31027 -6.71318,2.31027c-0.452009,0 -0.870537,-0.016741 -1.3058,-0.066964c2.39398,1.54018 5.23996,2.42746 8.30358,2.42746c9.94421,0 15.3851,-8.23662 15.3851,-15.3851c0,-0.234375 0,-0.468751 -0.016741,-0.703126c1.05469,-0.77009 1.97545,-1.72433 2.71206,-2.79576Z" transform="translate(0.736608, -42.8572)"></path>
    </g>
</svg>