<?xml version="1.0" encoding="UTF-8"?>
<svg width="32" height="24" version="1.1" viewBox="0 -47.1429 32.1429 23.5715" xmlns="http://www.w3.org/2000/svg" xmlns:xlink="http://www.w3.org/1999/xlink">
    <!--Generated by IJSVG (https://github.com/curthard89/IJSVG)-->
    <g fill="#000000">
        <path d="M21.4286,12.3214c0,0.284598 -0.234375,0.535715 -0.535715,0.535715h-3.75v5.89286c0,0.284599 -0.251117,0.535715 -0.535715,0.535715h-3.21429c-0.284598,0 -0.535715,-0.251116 -0.535715,-0.535715v-5.89286h-3.75c-0.30134,0 -0.535715,-0.234375 -0.535715,-0.535715c0,-0.15067 0.066964,-0.284599 0.167411,-0.401786l5.87612,-5.87612c0.100446,-0.100447 0.251116,-0.15067 0.385045,-0.15067c0.15067,0 0.284598,0.050223 0.385045,0.15067l5.89286,5.89286c0.100447,0.100446 0.15067,0.251116 0.15067,0.385045Zm10.7143,4.82143c0,-2.97991 -2.05915,-5.57478 -4.9721,-6.26117c0.45201,-0.686385 0.686385,-1.48996 0.686385,-2.31027c0,-2.36049 -1.92522,-4.28572 -4.28572,-4.28572c-1.02121,0 -2.00893,0.368304 -2.77902,1.03795c-1.32255,-3.21429 -4.45313,-5.32367 -7.93528,-5.32367c-4.73773,0 -8.57144,3.83371 -8.57144,8.57144c0,0.234376 0.016741,0.468751 0.033483,0.719867c-2.62835,1.2221 -4.3192,3.86719 -4.3192,6.78014c0,4.13505 3.36496,7.50001 7.50001,7.50001h18.2143c3.54911,0 6.42858,-2.87947 6.42858,-6.42858Z" transform="translate(0, -47.1429)"></path>
    </g>
</svg>