<?xml version="1.0" encoding="UTF-8"?>
<svg width="26" height="30" version="1.1" viewBox="0 -55.7144 25.7143 30" xmlns="http://www.w3.org/2000/svg" xmlns:xlink="http://www.w3.org/1999/xlink">
    <!--Generated by IJSVG (https://github.com/curthard89/IJSVG)-->
    <g fill="#000000">
        <path d="M24.5759,6.36162l-5.22322,-5.22322c-0.619421,-0.61942 -1.85826,-1.13839 -2.74554,-1.13839h-15c-0.887278,0 -1.60714,0.719867 -1.60714,1.60714v26.7857c0,0.887278 0.719867,1.60714 1.60715,1.60714h22.5c0.887277,0 1.60714,-0.719867 1.60714,-1.60714v-19.2857c0,-0.887278 -0.518973,-2.12612 -1.13839,-2.74554Zm-7.43304,-4.08483c0.284598,0.100447 0.569197,0.251117 0.686384,0.368304l5.23996,5.23996c0.117188,0.117188 0.267857,0.401786 0.368304,0.686385h-6.29465Zm6.42858,25.5804h-21.4286v-25.7143h12.8572v6.96429c0,0.887277 0.719867,1.60714 1.60714,1.60714h6.96429Zm-15.5357,-15l-3.78349,5.03907c-0.133929,0.184152 -0.133929,0.452009 0,0.636161l3.78349,5.03907c0.184152,0.234375 0.518974,0.284598 0.753349,0.100446l0.853796,-0.636161c0.234375,-0.184152 0.284598,-0.518974 0.100446,-0.753349l-3.04688,-4.06809l3.04688,-4.06808c0.184152,-0.234375 0.133929,-0.569197 -0.100446,-0.753349l-0.853796,-0.636161c-0.234375,-0.184153 -0.569197,-0.133929 -0.753349,0.100446Zm13.4264,5.03907l-3.78349,-5.03907c-0.184153,-0.234375 -0.518974,-0.284599 -0.75335,-0.100446l-0.853795,0.636161c-0.234376,0.184152 -0.284599,0.518974 -0.100447,0.753349l3.04688,4.06808l-3.04688,4.06809c-0.184152,0.234375 -0.133929,0.569197 0.100447,0.753349l0.853795,0.636161c0.234376,0.184152 0.569197,0.133929 0.75335,-0.100446l3.78349,-5.03907c0.133929,-0.184152 0.133929,-0.452009 0,-0.636161Zm-10.3795,7.71764l1.05469,0.167411c0.284599,0.050223 0.569197,-0.133929 0.619421,-0.435269l2.31027,-13.9118c0.050224,-0.284598 -0.133928,-0.569197 -0.435268,-0.61942l-1.05469,-0.167411c-0.284598,-0.050223 -0.569197,0.133929 -0.61942,0.435268l-2.31027,13.9118c-0.050223,0.284599 0.133929,0.569197 0.435268,0.619421Z" transform="translate(0, -55.7144)"></path>
    </g>
</svg>