<?xml version="1.0" encoding="UTF-8"?>
<svg width="26" height="30" version="1.1" viewBox="0 -55.7144 25.7143 30" xmlns="http://www.w3.org/2000/svg" xmlns:xlink="http://www.w3.org/1999/xlink">
    <!--Generated by IJSVG (https://github.com/curthard89/IJSVG)-->
    <g fill="#000000">
        <path d="M24.5759,6.36162l-5.22322,-5.22322c-0.619421,-0.61942 -1.85826,-1.13839 -2.74554,-1.13839h-15c-0.887278,0 -1.60714,0.719867 -1.60714,1.60714v26.7857c0,0.887278 0.719867,1.60714 1.60715,1.60714h22.5c0.887277,0 1.60714,-0.719867 1.60714,-1.60714v-19.2857c0,-0.887278 -0.518973,-2.12612 -1.13839,-2.74554Zm-7.43304,-4.08483c0.284598,0.100447 0.569197,0.251117 0.686384,0.368304l5.23996,5.23996c0.117188,0.117188 0.267857,0.401786 0.368304,0.686385h-6.29465Zm6.42858,25.5804h-21.4286v-25.7143h12.8572v6.96429c0,0.887277 0.719867,1.60714 1.60714,1.60714h6.96429Zm-13.192,-13.6272c-0.200893,-0.083706 -0.418528,-0.033483 -0.585939,0.117187l-2.77902,2.79576h-2.19308c-0.301339,0 -0.535715,0.234376 -0.535715,0.535715v3.21429c0,0.30134 0.234376,0.535715 0.535715,0.535715h2.19308l2.77902,2.79576c0.117188,0.100447 0.251117,0.15067 0.385046,0.15067c0.066964,0 0.133928,-0.016741 0.200893,-0.033482c0.200893,-0.083706 0.334821,-0.284599 0.334821,-0.502233v-9.10715c0,-0.217634 -0.133928,-0.418527 -0.334821,-0.502232Zm6.98104,11.5346c0.318081,0 0.61942,-0.133929 0.837054,-0.401787c1.38951,-1.70759 2.1596,-3.86719 2.1596,-6.07702c0,-2.20982 -0.77009,-4.36942 -2.1596,-6.07702c-0.368304,-0.468751 -1.05469,-0.535715 -1.5067,-0.167411c-0.46875,0.385045 -0.535715,1.05469 -0.15067,1.52344c1.08817,1.33929 1.67411,2.97991 1.67411,4.72099c0,1.74107 -0.585938,3.3817 -1.67411,4.72099c-0.385045,0.46875 -0.31808,1.13839 0.15067,1.5067c0.200893,0.167411 0.435268,0.251117 0.669644,0.251117Zm-3.53237,-2.47768c0.284599,0 0.569198,-0.117188 0.786832,-0.334822c0.937501,-1.00447 1.45647,-2.29353 1.45647,-3.6663c0,-1.37277 -0.518974,-2.66183 -1.45647,-3.6663c-0.401786,-0.435268 -1.08817,-0.452009 -1.52344,-0.050223c-0.418527,0.401786 -0.452009,1.08817 -0.033482,1.52344c0.552456,0.602679 0.870537,1.37277 0.870537,2.19308c0,0.820314 -0.318081,1.5904 -0.870537,2.19308c-0.418527,0.435268 -0.385045,1.12165 0.033482,1.52344c0.217635,0.184152 0.485492,0.284599 0.736608,0.284599Z" transform="translate(0, -55.7144)"></path>
    </g>
</svg>