<svg width="26" height="30" viewBox="0 -55.7144 25.7143 30" xmlns="http://www.w3.org/2000/svg"><path d="M24.576-49.353l-5.223-5.223c-.62-.62-1.859-1.138-2.746-1.138h-15c-.887 0-1.607.72-1.607 1.607v26.785c0 .888.72 1.608 1.607 1.608h22.5c.887 0 1.607-.72 1.607-1.608v-19.285c0-.888-.519-2.126-1.138-2.746zm-7.433-4.085c.284.1.57.252.686.369l5.24 5.24c.117.117.268.401.369.686h-6.295zm6.428 25.58H2.143v-25.714H15v6.965c0 .887.72 1.607 1.607 1.607h6.964zM3.901-41.065h1.172L7.818-30h2.662l2.143-8.12c.083-.25.134-.502.167-.77.017-.133.034-.267.034-.401h.067l.05.401c.05.235.067.503.15.77L15.235-30h2.662l2.746-11.066h1.172v-1.791H16.79v1.791h1.507l-1.657 7.333c-.067.268-.1.552-.118.77l-.033.351h-.067c0-.1-.034-.234-.05-.351-.05-.218-.084-.502-.15-.77l-2.412-9.124h-1.908l-2.41 9.124c-.068.268-.085.552-.135.77l-.067.351h-.067l-.033-.351a4.798 4.798 0 0 0-.117-.77l-1.658-7.333h1.507v-1.791H3.901z"/></svg>