<?xml version="1.0" encoding="UTF-8"?>
<svg width="30" height="30" version="1.1" viewBox="0 -55.7144 30 30" xmlns="http://www.w3.org/2000/svg" xmlns:xlink="http://www.w3.org/1999/xlink">
    <!--Generated by IJSVG (https://github.com/curthard89/IJSVG)-->
    <g fill="#000000">
        <path d="M28.3929,6.42858h-6.96429c-0.652903,0 -1.48996,0.284599 -2.14286,0.669644v-5.49108c0,-0.887278 -0.719867,-1.60714 -1.60714,-1.60714h-6.96429c-0.887277,0 -2.12612,0.518974 -2.74554,1.13839l-6.83037,6.83037c-0.61942,0.619421 -1.13839,1.85826 -1.13839,2.74554v11.25c0,0.887278 0.719867,1.60714 1.60715,1.60714h9.10715v4.82143c0,0.887278 0.719867,1.60714 1.60715,1.60714h16.0714c0.887278,0 1.60715,-0.719867 1.60715,-1.60714v-20.3572c0,-0.887278 -0.719867,-1.60714 -1.60715,-1.60714Zm-9.10715,3.56585v5.00559h-5.00559Zm-10.7143,-6.42858v5.00559h-5.00559Zm3.28125,10.8315c-0.619421,0.619421 -1.1384,1.85826 -1.1384,2.74554v4.28572h-8.57144v-10.7143h6.96429c0.887278,0 1.60714,-0.719867 1.60714,-1.60714v-6.96429h6.42858v6.96429Zm16.0045,13.4598h-15v-10.7143h6.96429c0.887278,0 1.60714,-0.719866 1.60714,-1.60714v-6.96429h6.42858Z" transform="translate(0, -55.7144)"></path>
    </g>
</svg>