<svg width="26" height="30" viewBox="0 -55.7144 25.7143 30" xmlns="http://www.w3.org/2000/svg"><path d="M24.576-49.353l-5.223-5.223c-.62-.62-1.859-1.138-2.746-1.138h-15c-.887 0-1.607.72-1.607 1.607v26.785c0 .888.72 1.608 1.607 1.608h22.5c.887 0 1.607-.72 1.607-1.608v-19.285c0-.888-.519-2.126-1.138-2.746zm-7.433-4.085c.284.1.57.252.686.369l5.24 5.24c.117.117.268.401.369.686h-6.295zm6.428 25.58H2.143v-25.714H15v6.965c0 .887.72 1.607 1.607 1.607h6.964zM6.964-30h5.475v-1.775h-1.557v-2.795h2.293c.72 0 1.373-.034 1.976-.251 1.506-.52 2.444-2.076 2.444-3.901 0-1.825-.904-3.231-2.294-3.817-.636-.251-1.406-.318-2.176-.318h-6.16v1.791h1.54v9.291h-1.54zm3.918-6.462v-4.487h2.009c.586 0 1.038.1 1.39.302.602.351.937 1.038.937 1.925 0 .937-.335 1.657-1.038 2.009-.352.167-.787.25-1.306.25z"/></svg>