<svg width="30" height="30" viewBox="0 -55.7144 30 30" xmlns="http://www.w3.org/2000/svg"><path d="M28.393-49.286h-6.964c-.653 0-1.49.285-2.143.67v-5.491c0-.888-.72-1.607-1.607-1.607h-6.965c-.887 0-2.126.519-2.745 1.138l-6.83 6.83C.518-47.126 0-45.887 0-45v11.25c0 .887.72 1.607 1.607 1.607h9.107v4.821c0 .888.72 1.608 1.607 1.608h16.072c.887 0 1.607-.72 1.607-1.608v-20.357c0-.887-.72-1.607-1.607-1.607zm-9.107 3.566v5.006H14.28zM8.57-52.149v5.006H3.566zm3.282 10.832c-.62.62-1.139 1.858-1.139 2.745v4.286H2.143V-45h6.964c.887 0 1.607-.72 1.607-1.607v-6.965h6.429v6.965zm16.004 13.46h-15v-10.715h6.964c.888 0 1.608-.72 1.608-1.607v-6.964h6.428z"/></svg>