<svg width="26" height="30" viewBox="0 -55.7144 25.7143 30" xmlns="http://www.w3.org/2000/svg"><path d="M24.576-49.353l-5.223-5.223c-.62-.62-1.859-1.138-2.746-1.138h-15c-.887 0-1.607.72-1.607 1.607v26.785c0 .888.72 1.608 1.607 1.608h22.5c.887 0 1.607-.72 1.607-1.608v-19.285c0-.888-.519-2.126-1.138-2.746zm-7.433-4.085c.284.1.57.252.686.369l5.24 5.24c.117.117.268.401.369.686h-6.295zm6.428 25.58H2.143v-25.714H15v6.965c0 .887.72 1.607 1.607 1.607h6.964zM6.43-42.321v1.072c0 .301.234.536.535.536H18.75a.529.529 0 0 0 .536-.536v-1.072a.529.529 0 0 0-.536-.535H6.964a.529.529 0 0 0-.535.535zm12.32 3.75H6.965a.529.529 0 0 0-.535.536v1.072c0 .301.234.535.535.535H18.75a.529.529 0 0 0 .536-.535v-1.072a.529.529 0 0 0-.536-.536zm0 4.286H6.965a.529.529 0 0 0-.535.536v1.071c0 .302.234.536.535.536H18.75a.529.529 0 0 0 .536-.536v-1.071a.529.529 0 0 0-.536-.536z"/></svg>