<svg width="26" height="30" viewBox="0 -55.7144 25.7143 30" xmlns="http://www.w3.org/2000/svg"><path d="M24.576-49.353l-5.223-5.223c-.62-.62-1.859-1.138-2.746-1.138h-15c-.887 0-1.607.72-1.607 1.607v26.785c0 .888.72 1.608 1.607 1.608h22.5c.887 0 1.607-.72 1.607-1.608v-19.285c0-.888-.519-2.126-1.138-2.746zm-7.433-4.085c.284.1.57.252.686.369l5.24 5.24c.117.117.268.401.369.686h-6.295zm6.428 25.58H2.143v-25.714H15v6.965c0 .887.72 1.607 1.607 1.607h6.964zm-15.535-15l-3.784 5.04a.554.554 0 0 0 0 .636l3.784 5.04a.536.536 0 0 0 .753.1l.854-.637a.536.536 0 0 0 .1-.753L6.696-37.5l3.047-4.068a.536.536 0 0 0-.1-.753l-.854-.637a.536.536 0 0 0-.753.1zm13.426 5.04l-3.783-5.04a.536.536 0 0 0-.754-.1l-.853.637a.536.536 0 0 0-.1.753l3.046 4.068-3.047 4.068a.536.536 0 0 0 .1.753l.854.637c.235.184.57.133.754-.1l3.783-5.04a.554.554 0 0 0 0-.636zM11.082-30.1l1.055.167c.285.05.57-.134.62-.435l2.31-13.912a.531.531 0 0 0-.435-.62l-1.055-.167a.531.531 0 0 0-.62.435l-2.31 13.912c-.05.285.134.57.436.62z"/></svg>