<svg width="26" height="30" viewBox="0 -55.7144 25.7143 30" xmlns="http://www.w3.org/2000/svg"><path d="M24.576-49.353l-5.223-5.223c-.62-.62-1.859-1.138-2.746-1.138h-15c-.887 0-1.607.72-1.607 1.607v26.785c0 .888.72 1.608 1.607 1.608h22.5c.887 0 1.607-.72 1.607-1.608v-19.285c0-.888-.519-2.126-1.138-2.746zm-7.433-4.085c.284.1.57.252.686.369l5.24 5.24c.117.117.268.401.369.686h-6.295zm6.428 25.58H2.143v-25.714H15v6.965c0 .887.72 1.607 1.607 1.607h6.964zm-8.604-9.927c-.988-.803-1.859-2.226-2.445-3.984.201-1.155.218-2.16.235-3.214v-.503c0-.05 0-.083-.017-.134a.336.336 0 0 0 .067-.133c.1-.536.05-.904-.15-1.139-.135-.167-.336-.25-.587-.25h-.368c-.335 0-.586.25-.703.669-.301 1.105-.134 2.98.402 4.804-.402 1.407-.988 2.88-1.741 4.387a43.312 43.312 0 0 1-1.792 3.298.127.127 0 0 0-.033-.067c-.084-.134-.251-.185-.385-.1-2.076 1.087-2.98 2.376-3.148 3.146-.05.335.017.52.1.603.034.034.051.067.101.084l.402.2c.15.084.301.118.469.118 1.004 0 2.327-1.44 4.051-4.386 1.792-.62 4.236-1.139 6.563-1.39 1.406.737 3.03 1.222 4.101 1.222.888 0 1.139-.334 1.189-.636v-.017c.017-.016.033-.05.05-.067.184-.401.084-.703-.033-.87-.419-.686-1.842-.82-2.964-.82-.602 0-1.255.033-1.958.117a11.399 11.399 0 0 1-1.406-.938zm-9.643 6.88c.25-.568 1.038-1.673 2.293-2.644-1.071 1.69-1.791 2.41-2.293 2.645zm6.663-15.4c0-.018.016-.034.016-.068.1.117.201.301.218.603.017.033.017.067.033.084a.501.501 0 0 0-.067.133c-.033.201-.083.436-.117.72-.033.218-.067.47-.117.737-.134-.938-.134-1.741.034-2.21zM9.91-35.24c.25-.452.502-.92.753-1.39.603-1.188 1.071-2.276 1.39-3.297.569 1.222 1.305 2.226 2.126 2.946.15.134.318.251.485.385a25.55 25.55 0 0 0-4.754 1.356zm10.814-.268c.017.017.034.034.034.05-.067.017-.15.017-.301.017-.503 0-1.256-.167-2.076-.469 1.824 0 2.26.318 2.343.402z"/></svg>