<svg width="26" height="30" viewBox="0 -55.7144 25.7143 30" xmlns="http://www.w3.org/2000/svg"><path d="M24.576-47.746l-6.83-6.83a3.58 3.58 0 0 0-.603-.469v7.902h7.902a3.58 3.58 0 0 0-.47-.603zM16.607-45C15.72-45 15-45.72 15-46.607v-9.107H1.607c-.887 0-1.607.72-1.607 1.607v26.785c0 .888.72 1.608 1.607 1.608h22.5c.887 0 1.607-.72 1.607-1.608V-45zm2.679 12.321a.529.529 0 0 1-.536.536H6.964a.529.529 0 0 1-.535-.536v-1.071c0-.301.234-.536.535-.536H18.75c.301 0 .536.235.536.536zm0-4.285a.529.529 0 0 1-.536.535H6.964a.529.529 0 0 1-.535-.535v-1.072c0-.301.234-.536.535-.536H18.75c.301 0 .536.235.536.536zm0-4.286a.529.529 0 0 1-.536.536H6.964a.529.529 0 0 1-.535-.536v-1.072c0-.3.234-.535.535-.535H18.75c.301 0 .536.234.536.535z"/></svg>