<svg width="26" height="30" viewBox="0 -55.7144 25.7143 30" xmlns="http://www.w3.org/2000/svg"><path d="M24.576-49.353l-5.223-5.223c-.62-.62-1.859-1.138-2.746-1.138h-15c-.887 0-1.607.72-1.607 1.607v26.785c0 .888.72 1.608 1.607 1.608h22.5c.887 0 1.607-.72 1.607-1.608v-19.285c0-.888-.519-2.126-1.138-2.746zm-7.433-4.085c.284.1.57.252.686.369l5.24 5.24c.117.117.268.401.369.686h-6.295zm6.428 25.58H2.143v-25.714H15v6.965c0 .887.72 1.607 1.607 1.607h6.964zM10.38-41.483a.548.548 0 0 0-.585.117l-2.78 2.796H4.821a.529.529 0 0 0-.535.535v3.215c0 .3.234.535.535.535h2.193l2.78 2.796c.117.1.25.15.385.15.067 0 .133-.016.2-.033a.548.548 0 0 0 .335-.502v-9.107a.548.548 0 0 0-.335-.502zM17.36-29.95c.319 0 .62-.134.838-.402a9.661 9.661 0 0 0 2.16-6.077c0-2.21-.771-4.369-2.16-6.077a1.071 1.071 0 0 0-1.657 1.356 7.428 7.428 0 0 1 1.673 4.721 7.428 7.428 0 0 1-1.674 4.721 1.05 1.05 0 0 0 .15 1.507c.202.167.436.251.67.251zm-3.532-2.477c.285 0 .57-.118.787-.335a5.34 5.34 0 0 0 0-7.333 1.082 1.082 0 0 0-1.523-.05 1.081 1.081 0 0 0-.034 1.523c.552.603.87 1.373.87 2.193 0 .82-.318 1.59-.87 2.193a1.081 1.081 0 0 0 .034 1.524c.217.184.485.285.736.285z"/></svg>