<svg width="26" height="30" viewBox="0 -55.7144 25.7143 30" xmlns="http://www.w3.org/2000/svg"><path d="M24.576-49.353l-5.223-5.223c-.62-.62-1.859-1.138-2.746-1.138h-15c-.887 0-1.607.72-1.607 1.607v26.785c0 .888.72 1.608 1.607 1.608h22.5c.887 0 1.607-.72 1.607-1.608v-19.285c0-.888-.519-2.126-1.138-2.746zm-7.433-4.085c.284.1.57.252.686.369l5.24 5.24c.117.117.268.401.369.686h-6.295zm6.428 25.58H2.143v-25.714H15v6.965c0 .887.72 1.607 1.607 1.607h6.964zM7.181-30h4.705v-1.775h-1.255l1.724-2.695c.2-.318.301-.57.352-.57h.033c.017.068.05.118.084.168.067.134.167.235.284.402l1.792 2.695h-1.273V-30H18.5v-1.775H17.36l-3.215-4.57 3.265-4.72h1.121v-1.792h-4.67v1.791H15.1l-1.724 2.662c-.2.318-.351.57-.351.552h-.034a.524.524 0 0 0-.084-.167 2.233 2.233 0 0 0-.284-.385l-1.775-2.662h1.273v-1.791H7.266v1.791h1.138l3.164 4.554-3.248 4.737H7.182z"/></svg>