<?xml version="1.0" encoding="UTF-8"?>
<svg width="26" height="30" version="1.1" viewBox="0 -55.7144 25.7143 30" xmlns="http://www.w3.org/2000/svg" xmlns:xlink="http://www.w3.org/1999/xlink">
    <!--Generated by IJSVG (https://github.com/curthard89/IJSVG)-->
    <g fill="#000000">
        <path d="M24.5759,6.36162l-5.22322,-5.22322c-0.619421,-0.61942 -1.85826,-1.13839 -2.74554,-1.13839h-15c-0.887278,0 -1.60714,0.719867 -1.60714,1.60714v26.7857c0,0.887278 0.719867,1.60714 1.60715,1.60714h22.5c0.887277,0 1.60714,-0.719867 1.60714,-1.60714v-19.2857c0,-0.887278 -0.518973,-2.12612 -1.13839,-2.74554Zm-7.43304,-4.08483c0.284598,0.100447 0.569197,0.251117 0.686384,0.368304l5.23996,5.23996c0.117188,0.117188 0.267857,0.401786 0.368304,0.686385h-6.29465Zm6.42858,25.5804h-21.4286v-25.7143h12.8572v6.96429c0,0.887277 0.719867,1.60714 1.60714,1.60714h6.96429Zm-16.3895,-2.14286h4.70425v-1.77455h-1.25558l1.72433,-2.69532c0.200894,-0.318081 0.30134,-0.569197 0.351563,-0.569197h0.033483c0.016741,0.066964 0.050223,0.117187 0.083705,0.167411c0.066964,0.133928 0.167411,0.234375 0.284599,0.401786l1.7913,2.69532h-1.27232v1.77455h4.87166v-1.77455h-1.13839l-3.21429,-4.57032l3.26451,-4.72099h1.12165v-1.7913h-4.67076v1.7913h1.23884l-1.72433,2.66183c-0.200893,0.318081 -0.351563,0.569197 -0.351563,0.552456h-0.033482c-0.016741,-0.066964 -0.050223,-0.117187 -0.083706,-0.167411c-0.066964,-0.117187 -0.150669,-0.234375 -0.284598,-0.385045l-1.77456,-2.66183h1.27232v-1.7913h-4.85492v1.7913h1.13839l3.16407,4.55358l-3.24777,4.73773h-1.13839Z" transform="translate(0, -55.7144)"></path>
    </g>
</svg>