<svg width="26" height="30" viewBox="0 -55.7144 25.7143 30" xmlns="http://www.w3.org/2000/svg"><path d="M10.714-51.429H8.571v2.143h2.143zm2.143 2.143h-2.143v2.143h2.143zm-2.143 2.143H8.571V-45h2.143zM12.857-45h-2.143v2.143h2.143zm11.719-4.353l-5.223-5.223c-.62-.62-1.859-1.138-2.746-1.138h-15c-.887 0-1.607.72-1.607 1.607v26.785c0 .888.72 1.608 1.607 1.608h22.5c.887 0 1.607-.72 1.607-1.608v-19.285c0-.888-.519-2.126-1.138-2.746zm-7.433-4.085c.285.1.57.252.686.369l5.24 5.24c.117.117.268.401.369.686h-6.295zm6.429 25.58H2.142v-25.714h8.572v2.143h2.143v-2.143H15v6.965c0 .887.72 1.607 1.607 1.607h6.964zm-10.497-12.07a1.075 1.075 0 0 0-1.038-.786h-1.323v-2.143H8.571v2.143c-1.657 5.591-2.008 6.63-2.008 6.63-.084.284-.134.568-.134.87 0 1.858 1.808 3.214 4.285 3.214C13.192-30 15-31.356 15-33.214c0-.302-.05-.586-.134-.87 0 0-.368-1.039-1.791-5.844zm-2.36 7.785c-1.19 0-2.144-.485-2.144-1.071s.955-1.072 2.143-1.072c1.189 0 2.143.486 2.143 1.072 0 .586-.954 1.071-2.143 1.071z"/></svg>