<svg width="28" height="27" viewBox="0 -51.4286 27.8572 26.7857" xmlns="http://www.w3.org/2000/svg"><path d="M21.429-27.857c0 .586-.486 1.071-1.072 1.071a1.079 1.079 0 0 1-1.071-1.071c0-.586.485-1.072 1.071-1.072s1.072.486 1.072 1.072zm4.285 0c0 .586-.485 1.071-1.071 1.071a1.079 1.079 0 0 1-1.072-1.071c0-.586.486-1.072 1.072-1.072.586 0 1.071.486 1.071 1.072zm2.143-3.75c0-.887-.72-1.607-1.607-1.607h-7.148c-.452 1.239-1.641 2.143-3.03 2.143h-4.286c-1.39 0-2.578-.904-3.03-2.143H1.607c-.887 0-1.607.72-1.607 1.607v5.357c0 .887.72 1.607 1.607 1.607H26.25c.887 0 1.607-.72 1.607-1.607zm-5.44-10.848a1.033 1.033 0 0 0-.235-1.155l-7.5-7.5a1.026 1.026 0 0 0-.753-.319c-.268 0-.553.1-.754.319l-7.5 7.5c-.318.3-.402.77-.234 1.155.167.401.552.67.988.67h4.285v7.5c0 .585.486 1.07 1.072 1.07h4.285c.586 0 1.072-.485 1.072-1.07v-7.5h4.286c.435 0 .82-.269.987-.67z"/></svg>