<?xml version="1.0" encoding="UTF-8"?>
<svg width="28" height="27" version="1.1" viewBox="0 -51.4286 27.8572 26.7857" xmlns="http://www.w3.org/2000/svg" xmlns:xlink="http://www.w3.org/1999/xlink">
    <!--Generated by IJSVG (https://github.com/curthard89/IJSVG)-->
    <g fill="#000000">
        <path d="M21.4286,23.5715c0,0.585938 -0.485492,1.07143 -1.07143,1.07143c-0.585938,0 -1.07143,-0.485492 -1.07143,-1.07143c0,-0.585938 0.485492,-1.07143 1.07143,-1.07143c0.585938,0 1.07143,0.485492 1.07143,1.07143Zm4.28572,0c0,0.585938 -0.485491,1.07143 -1.07143,1.07143c-0.585939,0 -1.07143,-0.485492 -1.07143,-1.07143c0,-0.585938 0.485491,-1.07143 1.07143,-1.07143c0.585938,0 1.07143,0.485492 1.07143,1.07143Zm2.14286,-3.75001c0,-0.887277 -0.719867,-1.60714 -1.60714,-1.60714h-7.14845c-0.452009,1.23884 -1.64063,2.14286 -3.03014,2.14286h-4.28572c-1.38951,0 -2.57813,-0.904019 -3.03014,-2.14286h-7.14845c-0.887278,0 -1.60715,0.719867 -1.60715,1.60714v5.35715c0,0.887278 0.719867,1.60714 1.60715,1.60714h24.6429c0.887278,0 1.60714,-0.719866 1.60714,-1.60714Zm-5.44085,-10.8482c0.167411,-0.385045 0.083706,-0.853795 -0.234375,-1.15514l-7.50001,-7.50001c-0.200893,-0.217634 -0.485492,-0.318081 -0.753349,-0.318081c-0.267857,0 -0.552456,0.100447 -0.753349,0.318081l-7.50001,7.50001c-0.318081,0.30134 -0.401786,0.77009 -0.234375,1.15514c0.167411,0.401786 0.552456,0.669644 0.987724,0.669644h4.28572v7.50001c0,0.585938 0.485492,1.07143 1.07143,1.07143h4.28572c0.585938,0 1.07143,-0.485492 1.07143,-1.07143v-7.50001h4.28572c0.435268,0 0.820313,-0.267858 0.987724,-0.669644Z" transform="translate(0, -51.4286)"></path>
    </g>
</svg>