<?xml version="1.0" encoding="UTF-8" standalone="no"?>
<svg width="26" height="26" version="1.1" viewBox="0 -49.2858 25.7143 25.7143" xmlns="http://www.w3.org/2000/svg" xmlns:xlink="http://www.w3.org/1999/xlink">
    <!--Generated by IJSVG (https://github.com/curthard89/IJSVG)-->
    <g fill="#000000">
        <path d="M11.4676,19.6038c-0.418528,0.418527 -1.08817,0.418527 -1.5067,0l-5.99331,-5.99331c-0.418528,-0.418527 -0.418528,-1.08817 0,-1.5067l1.70759,-1.70759c0.418527,-0.418528 1.08817,-0.418528 1.5067,0l3.53237,3.53237l7.81809,-7.81809c0.418527,-0.418527 1.08817,-0.418527 1.5067,0l1.70759,1.70759c0.418527,0.418527 0.418527,1.08817 0,1.5067Zm14.2467,-14.7824c0,-2.66183 -2.1596,-4.82143 -4.82143,-4.82143h-16.0714c-2.66183,0 -4.82143,2.1596 -4.82143,4.82143v16.0714c0,2.66183 2.1596,4.82143 4.82143,4.82143h16.0714c2.66183,0 4.82143,-2.1596 4.82143,-4.82143Z" transform="translate(0, -49.2858)"></path>
    </g>
</svg>