<?xml version="1.0" encoding="UTF-8" standalone="no"?>
<svg width="34" height="26" version="1.1" viewBox="0 -49.2858 34.2858 25.7143" xmlns="http://www.w3.org/2000/svg" xmlns:xlink="http://www.w3.org/1999/xlink">
    <!--Generated by IJSVG (https://github.com/curthard89/IJSVG)-->
    <g fill="#000000">
        <path d="M17.1429,16.7913c0,1.45648 -0.954243,2.49442 -2.14286,2.49442h-8.57144c-1.18862,0 -2.14286,-1.03795 -2.14286,-2.49442c0,-2.59487 0.636162,-5.47434 3.28125,-5.47434c0.820314,0.46875 1.92523,1.27232 3.14732,1.27232c1.2221,0 2.32701,-0.803573 3.14733,-1.27232c2.64509,0 3.28125,2.87947 3.28125,5.47434Zm-2.62835,-8.70537c0,2.10938 -1.70759,3.80023 -3.80023,3.80023c-2.09264,0 -3.80023,-1.69085 -3.80023,-3.80023c0,-2.09264 1.70759,-3.80023 3.80023,-3.80023c2.09264,0 3.80023,1.70759 3.80023,3.80023Zm15.4855,8.52122c0,0.301339 -0.234376,0.535715 -0.535715,0.535715h-9.64287c-0.301339,0 -0.535715,-0.234376 -0.535715,-0.535715v-1.07143c0,-0.30134 0.234376,-0.535715 0.535715,-0.535715h9.64287c0.301339,0 0.535715,0.234375 0.535715,0.535715Zm0,-4.35268c0,0.334822 -0.267858,0.602679 -0.60268,0.602679h-9.50894c-0.334822,0 -0.60268,-0.267857 -0.60268,-0.602679v-0.937501c0,-0.334822 0.267858,-0.60268 0.60268,-0.60268h9.50894c0.334822,0 0.60268,0.267858 0.60268,0.60268Zm0,-4.21875c0,0.301339 -0.234376,0.535715 -0.535715,0.535715h-9.64287c-0.301339,0 -0.535715,-0.234376 -0.535715,-0.535715v-1.07143c0,-0.30134 0.234376,-0.535715 0.535715,-0.535715h9.64287c0.301339,0 0.535715,0.234375 0.535715,0.535715Zm4.28572,-5.35715c0,-1.47322 -1.20536,-2.67858 -2.67857,-2.67858h-28.9286c-1.47322,0 -2.67857,1.20536 -2.67857,2.67858v20.3572c0,1.47322 1.20536,2.67857 2.67857,2.67857h5.89286v-1.60714c0,-0.30134 0.234375,-0.535715 0.535715,-0.535715h1.07143c0.301339,0 0.535714,0.234375 0.535714,0.535715v1.60714h12.8572v-1.60714c0,-0.30134 0.234375,-0.535715 0.535715,-0.535715h1.07143c0.30134,0 0.535715,0.234375 0.535715,0.535715v1.60714h5.89287c1.47322,0 2.67857,-1.20536 2.67857,-2.67857Z" transform="translate(0, -49.2858)"></path>
    </g>
</svg>