<?xml version="1.0" encoding="UTF-8" standalone="no"?>
<svg width="32" height="26" version="1.1" viewBox="0 -49.2858 32.1429 25.7143" xmlns="http://www.w3.org/2000/svg" xmlns:xlink="http://www.w3.org/1999/xlink">
    <!--Generated by IJSVG (https://github.com/curthard89/IJSVG)-->
    <g fill="#000000">
        <path d="M10.7143,7.50001c0,-1.77456 -1.43973,-3.21429 -3.21429,-3.21429c-1.77456,0 -3.21429,1.43973 -3.21429,3.21429c0,1.77456 1.43973,3.21429 3.21429,3.21429c1.77456,0 3.21429,-1.43973 3.21429,-3.21429Zm17.1429,6.42858l-6.96429,-6.96429l-8.57144,8.57144l-2.67857,-2.67858l-5.35715,5.35715v3.21429h23.5715Zm1.60715,-11.7857c0.284598,0 0.535715,0.251116 0.535715,0.535715v20.3572c0,0.284598 -0.251117,0.535715 -0.535715,0.535715h-26.7857c-0.284599,0 -0.535715,-0.251117 -0.535715,-0.535715v-20.3572c0,-0.284599 0.251116,-0.535715 0.535715,-0.535715Zm2.67857,0.535715c0,-1.47322 -1.20536,-2.67858 -2.67857,-2.67858h-26.7857c-1.47322,0 -2.67857,1.20536 -2.67857,2.67858v20.3572c0,1.47322 1.20536,2.67857 2.67857,2.67857h26.7857c1.47322,0 2.67857,-1.20536 2.67857,-2.67857Z" transform="translate(0, -49.2858)"></path>
    </g>
</svg>