<?xml version="1.0" encoding="UTF-8" standalone="no"?>
<svg width="26" height="26" version="1.1" viewBox="0 -49.2858 25.7143 25.7143" xmlns="http://www.w3.org/2000/svg" xmlns:xlink="http://www.w3.org/1999/xlink">
    <!--Generated by IJSVG (https://github.com/curthard89/IJSVG)-->
    <g fill="#000000">
        <path d="M23.4375,19.2857c-0.100447,0.284599 -0.251116,0.569197 -0.368304,0.686385l-3.0971,3.0971c-0.117188,0.117188 -0.401786,0.267857 -0.686385,0.368304v-4.15179Zm-4.68751,-2.14286c-0.887277,0 -1.60714,0.719866 -1.60714,1.60714v4.82144h-15v-21.4286h21.4286v15Zm6.96429,-15.5357c0,-0.887278 -0.719867,-1.60714 -1.60714,-1.60714h-22.5c-0.887278,0 -1.60714,0.719867 -1.60714,1.60714v22.5c0,0.887277 0.719867,1.60714 1.60715,1.60714h17.1429c0.887278,0 2.12612,-0.518974 2.74554,-1.13839l3.08036,-3.08036c0.619421,-0.61942 1.13839,-1.85826 1.13839,-2.74554Z" transform="translate(0, -49.2858)"></path>
    </g>
</svg>