<?xml version="1.0" encoding="UTF-8" standalone="no"?>
<svg width="27" height="26" version="1.1" viewBox="0 -49.2858 26.7857 25.7143" xmlns="http://www.w3.org/2000/svg" xmlns:xlink="http://www.w3.org/1999/xlink">
    <!--Generated by IJSVG (https://github.com/curthard89/IJSVG)-->
    <g fill="#000000">
        <path d="M4.28572,20.3572c0,0.602679 -0.485491,1.07143 -1.07143,1.07143c-0.60268,0 -1.07143,-0.468751 -1.07143,-1.07143c0,-0.585938 0.46875,-1.07143 1.07143,-1.07143c0.585938,0 1.07143,0.485492 1.07143,1.07143Zm2.67857,-8.57144c0,-0.585938 -0.485492,-1.07143 -1.07143,-1.07143h-4.82143c-0.585938,0 -1.07143,0.485492 -1.07143,1.07143v10.7143c0,0.585938 0.485492,1.07143 1.07143,1.07143h4.82143c0.585938,0 1.07143,-0.485492 1.07143,-1.07143Zm19.8215,0c0,-1.74107 -1.47322,-3.21429 -3.21429,-3.21429h-4.63728c0.133929,-0.535715 0.30134,-0.703126 0.485492,-1.07143c0.452009,-0.870537 0.937501,-1.84152 0.937501,-3.21429c0,-1.28906 0,-4.28572 -3.75,-4.28572c-0.284599,0 -0.552456,0.117188 -0.753349,0.318081c-0.719867,0.703126 -0.92076,1.74107 -1.10491,2.7288c-0.200894,0.970983 -0.385046,1.97545 -1.03795,2.62835c-0.518974,0.518974 -1.08817,1.23884 -1.69085,2.00893c-0.736608,0.970983 -2.34375,2.96317 -2.96317,3.0134c-0.552456,0.050224 -1.02121,0.518974 -1.02121,1.07143v10.731c0,0.585938 0.502233,1.05469 1.07143,1.07143c0.585938,0.016741 1.5904,0.368304 2.64509,0.736608c1.80804,0.61942 4.06808,1.40625 6.46206,1.40625h0.284599h1.27232c0.30134,0 0.535715,0 0.602679,0c1.47322,-0.016741 2.57813,-0.452009 3.298,-1.30581c0.636162,-0.753349 0.92076,-1.77455 0.820314,-3.03014c0.418527,-0.401787 0.736608,-0.954243 0.904019,-1.57366c0.184152,-0.669644 0.184152,-1.33929 0,-1.95871c0.502232,-0.669643 0.753349,-1.45648 0.719867,-2.29353c0,-0.234375 -0.066965,-0.736608 -0.251117,-1.27232c0.569197,-0.652903 0.92076,-1.60714 0.92076,-2.49442Z" transform="translate(0, -49.2858)"></path>
    </g>
</svg>