<?xml version="1.0" encoding="UTF-8" standalone="no"?>
<svg version="1.1" viewBox="0 -49.9219 30 26.8527" xmlns="http://www.w3.org/2000/svg" xmlns:xlink="http://www.w3.org/1999/xlink">
    <!--Generated by IJSVG (https://github.com/curthard89/IJSVG)-->
    <g fill="#000000">
        <path d="M5.60827,20.0558c0.083705,0 0.167411,-0.083705 0.167411,-0.167411c0,-0.100446 -2.71206,-5.03907 -2.94643,-5.47434c-0.184152,-0.334822 -0.46875,-0.669643 -0.686384,-0.987724c0.401786,-0.619421 0.837054,-1.20536 1.3058,-1.77456l3.75,6.91407l1.77456,3.298c0.083705,0.15067 2.31027,0.837054 2.59487,0.837054c0.100447,0 0.184152,-0.033482 0.184152,-0.167411c0,-0.100446 -6.3951,-11.8694 -6.7634,-12.5223c0.435269,-0.401786 0.887278,-0.786831 1.37277,-1.13839l7.63394,14.0793c0.066965,0.15067 0.820314,0.117187 1.00447,0.117187c0.368304,0 0.837054,0.033483 1.20536,-0.050223c0.083706,-0.016741 0.15067,-0.066964 0.15067,-0.15067c0,-0.117187 -7.9855,-14.7824 -8.18639,-15.1674c0.535715,-0.30134 1.08817,-0.552456 1.65737,-0.786832l-0.117188,0.117188l7.43304,13.7277l1.07143,1.99219l2.0759,3.83371c0.100446,0.167411 0.284598,0.267857 0.485491,0.267857c0.284599,0 1.7913,-0.887278 2.12612,-1.07143c0.184152,-0.100446 0.284599,-0.284598 0.284599,-0.485491c0,-0.30134 -1.5904,-3.08036 -1.84152,-3.53237c3.41518,-1.45648 6.32813,-4.05134 8.32032,-7.18193c0.217634,-0.334822 0.334822,-0.736608 0.334822,-1.15514c0,-0.418528 -0.117188,-0.820314 -0.334822,-1.15514c-3.21429,-5.05581 -8.60492,-8.48773 -14.6652,-8.48773c-1.07143,0 -2.1596,0.100447 -3.21429,0.318081l-2.0759,-3.83371c-0.100447,-0.167411 -0.284599,-0.267858 -0.468751,-0.267858c-0.301339,0 -1.80804,0.887278 -2.14286,1.07143c-0.167411,0.100447 -0.284599,0.284599 -0.284599,0.485492c0,0.30134 1.5904,3.08036 1.84152,3.53237c-3.03014,1.28906 -5.62501,3.46541 -7.56697,6.1105c-0.485492,0.652902 -1.08817,1.35603 -1.08817,2.22657c0,0.418527 0.117188,0.820313 0.351563,1.15514c1.23884,1.99219 3.19755,4.13505 5.15626,5.44085c0.033482,0.016741 0.066964,0.033482 0.100447,0.033482Zm13.8951,-1.70759c1.89174,-1.40625 2.99666,-3.63282 2.99666,-5.99331c0,-2.05915 -0.837055,-4.01786 -2.32701,-5.44085c3.18081,1.27232 5.8259,3.64956 7.68416,6.51228c-1.82478,2.82924 -4.40291,5.173 -7.53349,6.44532Zm-5.30693,-10.279c0,-0.435269 0.368305,-0.803573 0.803573,-0.803573c2.8125,0 5.08929,2.27679 5.08929,5.08929c0,0.435268 -0.368304,0.803572 -0.803573,0.803572c-0.435268,0 -0.803572,-0.368304 -0.803572,-0.803572c0,-0.92076 -0.368304,-1.80804 -1.02121,-2.46094c-0.652902,-0.652902 -1.54018,-1.02121 -2.46094,-1.02121c-0.435268,0 -0.803573,-0.368304 -0.803573,-0.803572Zm6.12724,-1.08817l-0.033482,0.050223l-0.117188,-0.117188Z" transform="translate(0, -49.9219)"></path>
    </g>
</svg>