<?xml version="1.0" encoding="UTF-8" standalone="no"?>
<svg width="80px" height="27px" viewBox="0 0 80 27" version="1.1" xmlns="http://www.w3.org/2000/svg" xmlns:xlink="http://www.w3.org/1999/xlink">
    <!-- Generator: Sketch 39.1 (31720) - http://www.bohemiancoding.com/sketch -->
    <title>checkbox--module-cantbeinstalled</title>
    <desc>Created with Sketch.</desc>
    <defs></defs>
    <g id="Admin-pages" stroke="none" stroke-width="1" fill="none" fill-rule="evenodd">
        <g id="Block-layout-Copy" transform="translate(-896.000000, -1652.000000)">
            <g id="checkbox--module-cantbeinstalled" transform="translate(896.000000, 1652.000000)">
                <rect id="Rectangle-14-Copy-3" fill="#999999" x="0" y="0" width="80" height="27" rx="4"></rect>
                <path d="M40,6 C35.6,6 32,9.6 32,14 C32,18.4 35.6,22 40,22 C44.4,22 48,18.4 48,14 C48,9.6 44.4,6 40,6 L40,6 Z M33.6,14 C33.6,10.48 36.48,7.6 40,7.6 C41.48,7.6 42.84,8.12 43.92,8.96 L34.96,17.92 C34.12,16.84 33.6,15.48 33.6,14 L33.6,14 Z M40,20.4 C38.52,20.4 37.16,19.88 36.08,19.04 L45.04,10.08 C45.88,11.16 46.4,12.52 46.4,14 C46.4,17.52 43.52,20.4 40,20.4 L40,20.4 Z" id="permission-off" fill="#A84065"></path>
            </g>
        </g>
    </g>
</svg>