<?xml version="1.0" encoding="UTF-8" standalone="no"?>
<svg width="26" height="26" version="1.1" viewBox="0 -49.2858 25.7143 25.7143" xmlns="http://www.w3.org/2000/svg" xmlns:xlink="http://www.w3.org/1999/xlink">
    <!--Generated by IJSVG (https://github.com/curthard89/IJSVG)-->
    <g fill="#000000">
        <path d="M18.9844,18.4319c-0.837055,-2.69532 -3.29799,-4.50335 -6.12724,-4.50335c-2.82924,0 -5.29019,1.80804 -6.12724,4.50335c-0.184152,0.569197 0.133928,1.15513 0.703126,1.33929c0.552456,0.184152 1.15513,-0.133929 1.33929,-0.703126c0.552456,-1.7913 2.20982,-2.99666 4.08483,-2.99666c1.875,0 3.53237,1.20536 4.08483,2.99666c0.184152,0.569197 0.786832,0.887278 1.35603,0.703126c0.552456,-0.184152 0.870537,-0.77009 0.686385,-1.33929Zm-8.2701,-9.8605c0,-1.18862 -0.954242,-2.14286 -2.14286,-2.14286c-1.18862,0 -2.14286,0.954242 -2.14286,2.14286c0,1.18862 0.954242,2.14286 2.14286,2.14286c1.18862,0 2.14286,-0.954242 2.14286,-2.14286Zm8.57144,0c0,-1.18862 -0.954242,-2.14286 -2.14286,-2.14286c-1.18862,0 -2.14286,0.954242 -2.14286,2.14286c0,1.18862 0.954242,2.14286 2.14286,2.14286c1.18862,0 2.14286,-0.954242 2.14286,-2.14286Zm4.28572,4.28572c0,5.9096 -4.80469,10.7143 -10.7143,10.7143c-5.9096,0 -10.7143,-4.80469 -10.7143,-10.7143c-4.44089e-16,-5.9096 4.80469,-10.7143 10.7143,-10.7143c5.90961,0 10.7143,4.80469 10.7143,10.7143Zm2.14286,0c0,-7.09822 -5.75894,-12.8572 -12.8572,-12.8572c-7.09822,0 -12.8572,5.75894 -12.8572,12.8572c0,7.09822 5.75894,12.8572 12.8572,12.8572c7.09822,0 12.8572,-5.75894 12.8572,-12.8572Z" transform="translate(0, -49.2858)"></path>
    </g>
</svg>