<svg width="26" height="26" viewBox="0 -49.2858 25.7143 25.7143" xmlns="http://www.w3.org/2000/svg"><path d="M18.984-30.854a6.38 6.38 0 0 0-6.127-4.503 6.38 6.38 0 0 0-6.127 4.503c-.184.57.134 1.155.703 1.34.553.184 1.155-.135 1.34-.704a4.26 4.26 0 0 1 4.084-2.996 4.26 4.26 0 0 1 4.085 2.996c.184.57.787.888 1.356.703.552-.184.87-.77.686-1.339zm-8.27-9.86a2.136 2.136 0 0 0-2.143-2.143 2.136 2.136 0 0 0-2.142 2.143c0 1.188.954 2.142 2.142 2.142a2.136 2.136 0 0 0 2.143-2.142zm8.572 0a2.136 2.136 0 0 0-2.143-2.143A2.136 2.136 0 0 0 15-40.714c0 1.188.954 2.142 2.143 2.142a2.136 2.136 0 0 0 2.143-2.142zm4.285 4.285c0 5.91-4.804 10.715-10.714 10.715S2.143-30.52 2.143-36.43s4.805-10.714 10.714-10.714c5.91 0 10.714 4.805 10.714 10.714zm2.143 0c0-7.098-5.759-12.857-12.857-12.857C5.76-49.286 0-43.526 0-36.429 0-29.33 5.759-23.57 12.857-23.57c7.098 0 12.857-5.76 12.857-12.858z"/></svg>