<?xml version="1.0" encoding="UTF-8" standalone="no"?>
<svg width="40px" height="40px" viewBox="0 0 40 40" version="1.1" xmlns="http://www.w3.org/2000/svg" xmlns:xlink="http://www.w3.org/1999/xlink">
    <!-- Generator: Sketch 39.1 (31720) - http://www.bohemiancoding.com/sketch -->
    <title>info</title>
    <desc>Created with Sketch.</desc>
    <defs></defs>
    <g id="Page-1" stroke="none" stroke-width="1" fill="none" fill-rule="evenodd">
        <path d="M18,30 L22,30 L22,18 L18,18 L18,30 L18,30 Z M20,0 C8.95,0 0,8.95 0,20 C0,31.05 8.95,40 20,40 C31.05,40 40,31.05 40,20 C40,8.95 31.05,0 20,0 L20,0 Z M20,36 C11.18,36 4,28.82 4,20 C4,11.18 11.18,4 20,4 C28.82,4 36,11.18 36,20 C36,28.82 28.82,36 20,36 L20,36 Z M18,14 L22,14 L22,10 L18,10 L18,14 L18,14 Z" id="info" fill="#77AFEF"></path>
    </g>
</svg>