<?xml version="1.0" encoding="UTF-8" standalone="no"?>
<svg width="16px" height="16px" viewBox="0 0 16 16" version="1.1" xmlns="http://www.w3.org/2000/svg" xmlns:xlink="http://www.w3.org/1999/xlink">
    <!-- Generator: Sketch 39.1 (31720) - http://www.bohemiancoding.com/sketch -->
    <title>module-help</title>
    <desc>Created with Sketch.</desc>
    <defs></defs>
    <g id="Admin-pages" stroke="none" stroke-width="1" fill="none" fill-rule="evenodd">
        <g id="Block-layout-Copy" transform="translate(-1035.000000, -1429.000000)" fill="#90A4AE">
            <g id="Group-2-Copy-3" transform="translate(883.000000, 1197.000000)">
                <path d="M166.222222,232 L153.777778,232 C152.795556,232 152,232.681905 152,233.52381 L152,244.190476 C152,245.032381 152.795556,245.714286 153.777778,245.714286 L157.333333,245.714286 L160,248 L162.666667,245.714286 L166.222222,245.714286 C167.204444,245.714286 168,245.032381 168,244.190476 L168,233.52381 C168,232.681905 167.204444,232 166.222222,232 L166.222222,232 Z M160.888889,244.190476 L159.111111,244.190476 L159.111111,242.666667 L160.888889,242.666667 L160.888889,244.190476 L160.888889,244.190476 Z M162.724444,238.289524 L161.928889,238.990476 C161.288889,239.539048 160.888889,240 160.888889,241.142857 L159.111111,241.142857 L159.111111,240.761905 C159.111111,239.92 159.511111,239.158095 160.151111,238.605714 L161.257778,237.645714 C161.577778,237.371429 161.777778,236.990476 161.777778,236.571429 C161.777778,235.729524 160.982222,235.047619 160,235.047619 C159.017778,235.047619 158.222222,235.729524 158.222222,236.571429 L156.444444,236.571429 C156.444444,234.887619 158.035556,233.52381 160,233.52381 C161.964444,233.52381 163.555556,234.887619 163.555556,236.571429 C163.555556,237.241905 163.24,237.847619 162.724444,238.289524 L162.724444,238.289524 Z" id="module-help"></path>
            </g>
        </g>
    </g>
</svg>