<?xml version="1.0" encoding="UTF-8" standalone="no"?>
<svg width="16px" height="16px" viewBox="0 0 16 16" version="1.1" xmlns="http://www.w3.org/2000/svg" xmlns:xlink="http://www.w3.org/1999/xlink">
    <!-- Generator: Sketch 39.1 (31720) - http://www.bohemiancoding.com/sketch -->
    <title>module-notinstalled</title>
    <desc>Created with Sketch.</desc>
    <defs></defs>
    <g id="Admin-pages" stroke="none" stroke-width="1" fill="none" fill-rule="evenodd">
        <g id="Block-layout-Copy-2" transform="translate(-519.000000, -679.000000)" fill="#F9F9F9">
            <path d="M527,679 C522.6,679 519,682.6 519,687 C519,691.4 522.6,695 527,695 C531.4,695 535,691.4 535,687 C535,682.6 531.4,679 527,679 L527,679 Z M520.6,687 C520.6,683.48 523.48,680.6 527,680.6 C528.48,680.6 529.84,681.12 530.92,681.96 L521.96,690.92 C521.12,689.84 520.6,688.48 520.6,687 L520.6,687 Z M527,693.4 C525.52,693.4 524.16,692.88 523.08,692.04 L532.04,683.08 C532.88,684.16 533.4,685.52 533.4,687 C533.4,690.52 530.52,693.4 527,693.4 L527,693.4 Z" id="module-notinstalled"></path>
        </g>
    </g>
</svg>