<?xml version="1.0" encoding="UTF-8" standalone="no"?>
<svg width="13px" height="16px" viewBox="0 0 13 16" version="1.1" xmlns="http://www.w3.org/2000/svg" xmlns:xlink="http://www.w3.org/1999/xlink">
    <!-- Generator: Sketch 39.1 (31720) - http://www.bohemiancoding.com/sketch -->
    <title>module-permission</title>
    <desc>Created with Sketch.</desc>
    <defs></defs>
    <g id="Admin-pages" stroke="none" stroke-width="1" fill="none" fill-rule="evenodd">
        <g id="Block-layout-Copy" transform="translate(-991.000000, -1429.000000)" fill="#90A4AE">
            <g id="Group-2-Copy-3" transform="translate(883.000000, 1197.000000)">
                <path d="M118.666667,237.333333 L117.904762,237.333333 L117.904762,235.809524 C117.904762,233.706667 116.198095,232 114.095238,232 C111.992381,232 110.285714,233.706667 110.285714,235.809524 L110.285714,237.333333 L109.52381,237.333333 C108.681905,237.333333 108,238.015238 108,238.857143 L108,246.47619 C108,247.318095 108.681905,248 109.52381,248 L118.666667,248 C119.508571,248 120.190476,247.318095 120.190476,246.47619 L120.190476,238.857143 C120.190476,238.015238 119.508571,237.333333 118.666667,237.333333 L118.666667,237.333333 Z M114.095238,244.190476 C113.253333,244.190476 112.571429,243.508571 112.571429,242.666667 C112.571429,241.824762 113.253333,241.142857 114.095238,241.142857 C114.937143,241.142857 115.619048,241.824762 115.619048,242.666667 C115.619048,243.508571 114.937143,244.190476 114.095238,244.190476 L114.095238,244.190476 Z M116.457143,236.952381 L111.733333,236.952381 L111.733333,235.428571 C111.733333,234.125714 112.792381,233.066667 114.095238,233.066667 C115.398095,233.066667 116.457143,234.125714 116.457143,235.428571 L116.457143,236.952381 L116.457143,236.952381 Z" id="module-permission"></path>
            </g>
        </g>
    </g>
</svg>