<?xml version="1.0" encoding="UTF-8" standalone="no"?>
<svg width="16px" height="16px" viewBox="0 0 16 16" version="1.1" xmlns="http://www.w3.org/2000/svg" xmlns:xlink="http://www.w3.org/1999/xlink">
    <!-- Generator: Sketch 39.1 (31720) - http://www.bohemiancoding.com/sketch -->
    <title>module-config</title>
    <desc>Created with Sketch.</desc>
    <defs></defs>
    <g id="Admin-pages" stroke="none" stroke-width="1" fill="none" fill-rule="evenodd">
        <g id="Block-layout-Copy" transform="translate(-947.000000, -1429.000000)" fill="#90A4AE">
            <g id="Group-2-Copy-3" transform="translate(883.000000, 1197.000000)">
                <path d="M77.725698,240.78 C77.757698,240.524 77.781698,240.264 77.781698,240 C77.781698,239.736 77.757698,239.476 77.725698,239.22 L79.417698,237.896 C79.569698,237.776 79.613698,237.56 79.513698,237.384 L77.913698,234.612 C77.813698,234.44 77.605698,234.368 77.425698,234.44 L75.433698,235.244 C75.021698,234.928 74.569698,234.66 74.081698,234.456 L73.781698,232.336 C73.745698,232.148 73.581698,232 73.381698,232 L70.181698,232 C69.981698,232 69.817698,232.148 69.785698,232.336 L69.485698,234.456 C68.997698,234.66 68.545698,234.924 68.133698,235.244 L66.141698,234.44 C65.961698,234.372 65.753698,234.44 65.653698,234.612 L64.053698,237.384 C63.953698,237.556 63.997698,237.772 64.149698,237.896 L65.837698,239.22 C65.805698,239.476 65.781698,239.736 65.781698,240 C65.781698,240.264 65.805698,240.524 65.837698,240.78 L64.149698,242.104 C63.997698,242.224 63.953698,242.44 64.053698,242.616 L65.653698,245.388 C65.753698,245.56 65.961698,245.632 66.141698,245.56 L68.133698,244.756 C68.545698,245.072 68.997698,245.34 69.485698,245.544 L69.785698,247.664 C69.817698,247.852 69.981698,248 70.181698,248 L73.381698,248 C73.581698,248 73.745698,247.852 73.777698,247.664 L74.077698,245.544 C74.565698,245.34 75.017698,245.076 75.429698,244.756 L77.421698,245.56 C77.601698,245.628 77.809698,245.56 77.909698,245.388 L79.509698,242.616 C79.609698,242.444 79.565698,242.228 79.413698,242.104 L77.725698,240.78 L77.725698,240.78 Z M71.781698,242.8 C70.233698,242.8 68.981698,241.548 68.981698,240 C68.981698,238.452 70.233698,237.2 71.781698,237.2 C73.329698,237.2 74.581698,238.452 74.581698,240 C74.581698,241.548 73.329698,242.8 71.781698,242.8 L71.781698,242.8 Z" id="module-config"></path>
            </g>
        </g>
    </g>
</svg>