<?xml version="1.0" encoding="UTF-8" standalone="no"?>
<svg width="24" height="24" version="1.1" viewBox="0 -47.1429 23.5715 23.5715" xmlns="http://www.w3.org/2000/svg" xmlns:xlink="http://www.w3.org/1999/xlink">
    <!--Generated by IJSVG (https://github.com/curthard89/IJSVG)-->
    <g fill="#000000">
        <path d="M23.5715,10.1786c0,-0.887278 -0.719867,-1.60715 -1.60714,-1.60715h-6.96429v-6.96429c0,-0.887277 -0.719867,-1.60714 -1.60715,-1.60714h-3.21429c-0.887278,0 -1.60715,0.719867 -1.60715,1.60714v6.96429h-6.96429c-0.887278,0 -1.60715,0.719867 -1.60715,1.60715v3.21429c0,0.887278 0.719867,1.60714 1.60715,1.60714h6.96429v6.96429c0,0.887277 0.719867,1.60714 1.60715,1.60714h3.21429c0.887278,0 1.60715,-0.719867 1.60715,-1.60714v-6.96429h6.96429c0.887278,0 1.60714,-0.719867 1.60714,-1.60714Z" transform="translate(0, -47.1429)"></path>
    </g>
</svg>