<?xml version="1.0" encoding="UTF-8"?>
<svg width="26" height="26" version="1.1" viewBox="0 -49.2858 25.7143 25.7143" xmlns="http://www.w3.org/2000/svg" xmlns:xlink="http://www.w3.org/1999/xlink">
    <!--Generated by IJSVG (https://github.com/curthard89/IJSVG)-->
    <g fill="#000000">
        <path d="M18.365,15.9208c0.217634,-0.217634 0.217634,-0.552456 0,-0.77009l-2.29353,-2.29353l2.29353,-2.29353c0.217634,-0.217635 0.217634,-0.552456 0,-0.770091l-2.4442,-2.4442c-0.217634,-0.217634 -0.552456,-0.217634 -0.77009,0l-2.29353,2.29353l-2.29353,-2.29353c-0.217635,-0.217634 -0.552456,-0.217634 -0.770091,0l-2.4442,2.4442c-0.217634,0.217635 -0.217634,0.552456 0,0.770091l2.29353,2.29353l-2.29353,2.29353c-0.217634,0.217634 -0.217634,0.552456 0,0.77009l2.4442,2.4442c0.217635,0.217634 0.552456,0.217634 0.770091,0l2.29353,-2.29353l2.29353,2.29353c0.217634,0.217634 0.552456,0.217634 0.77009,0Zm3.59933,-3.06362c0,5.02233 -4.08483,9.10715 -9.10715,9.10715c-5.02233,0 -9.10715,-4.08483 -9.10715,-9.10715c-4.44089e-16,-5.02233 4.08483,-9.10715 9.10715,-9.10715c5.02233,0 9.10715,4.08483 9.10715,9.10715Zm3.75,0c0,-7.09822 -5.75894,-12.8572 -12.8572,-12.8572c-7.09822,0 -12.8572,5.75894 -12.8572,12.8572c0,7.09822 5.75894,12.8572 12.8572,12.8572c7.09822,0 12.8572,-5.75894 12.8572,-12.8572Z" transform="translate(0, -49.2858)"></path>
    </g>
</svg>