<?xml version="1.0" encoding="UTF-8"?>
<svg width="20" height="20" version="1.1" viewBox="1.84152 -39.4755 19.8884 19.8884" xmlns="http://www.w3.org/2000/svg" xmlns:xlink="http://www.w3.org/1999/xlink">
    <!--Generated by IJSVG (https://github.com/curthard89/IJSVG)-->
    <g fill="#000000">
        <path d="M19.8884,16.0045c0,-0.418527 -0.167411,-0.837055 -0.468751,-1.13839l-4.92188,-4.92188l4.92188,-4.92188c0.30134,-0.30134 0.468751,-0.719867 0.468751,-1.13839c0,-0.418528 -0.167411,-0.837055 -0.468751,-1.13839l-2.27679,-2.27679c-0.30134,-0.30134 -0.719867,-0.46875 -1.13839,-0.46875c-0.418527,0 -0.837054,0.16741 -1.13839,0.46875l-4.92188,4.92188l-4.92188,-4.92188c-0.301339,-0.30134 -0.719866,-0.46875 -1.13839,-0.46875c-0.418527,0 -0.837054,0.16741 -1.13839,0.46875l-2.27679,2.27679c-0.30134,0.301339 -0.468751,0.719866 -0.468751,1.13839c0,0.418527 0.167411,0.837054 0.468751,1.13839l4.92188,4.92188l-4.92188,4.92188c-0.30134,0.301339 -0.468751,0.719867 -0.468751,1.13839c0,0.418527 0.167411,0.837054 0.468751,1.13839l2.27679,2.27679c0.30134,0.301339 0.719867,0.46875 1.13839,0.46875c0.418528,0 0.837055,-0.167411 1.13839,-0.46875l4.92188,-4.92188l4.92188,4.92188c0.30134,0.301339 0.719867,0.46875 1.13839,0.46875c0.418528,0 0.837055,-0.167411 1.13839,-0.46875l2.27679,-2.27679c0.30134,-0.30134 0.468751,-0.719867 0.468751,-1.13839Z" transform="translate(1.84152, -39.4755)"></path>
    </g>
</svg>