<?xml version="1.0" encoding="UTF-8" standalone="no"?>
<svg version="1.1" viewBox="0 -55.7144 30 30" xmlns="http://www.w3.org/2000/svg" xmlns:xlink="http://www.w3.org/1999/xlink">
    <!--Generated by IJSVG (https://github.com/curthard89/IJSVG)-->
    <g fill="#000000">
        <path d="M30,15c0,-0.284599 -0.117188,-0.552456 -0.318081,-0.753349l-4.28572,-4.28572c-0.200893,-0.200893 -0.468751,-0.31808 -0.753349,-0.31808c-0.585939,0 -1.07143,0.485491 -1.07143,1.07143v2.14286h-6.42858v-6.42858h2.14286c0.585938,0 1.07143,-0.485492 1.07143,-1.07143c0,-0.284598 -0.117188,-0.552456 -0.318081,-0.753349l-4.28572,-4.28572c-0.200893,-0.200893 -0.468751,-0.318081 -0.753349,-0.318081c-0.284599,0 -0.552456,0.117188 -0.753349,0.318081l-4.28572,4.28572c-0.200893,0.200893 -0.31808,0.468751 -0.31808,0.753349c0,0.585938 0.485491,1.07143 1.07143,1.07143h2.14286v6.42858h-6.42858v-2.14286c0,-0.585938 -0.485492,-1.07143 -1.07143,-1.07143c-0.284598,0 -0.552456,0.117187 -0.753349,0.31808l-4.28572,4.28572c-0.200893,0.200893 -0.318081,0.46875 -0.318081,0.753349c0,0.284598 0.117188,0.552456 0.318081,0.753349l4.28572,4.28572c0.200893,0.200893 0.468751,0.318081 0.753349,0.318081c0.585938,0 1.07143,-0.485492 1.07143,-1.07143v-2.14286h6.42858v6.42858h-2.14286c-0.585938,0 -1.07143,0.485491 -1.07143,1.07143c0,0.284599 0.117187,0.552456 0.31808,0.75335l4.28572,4.28572c0.200893,0.200893 0.46875,0.318081 0.753349,0.318081c0.284598,0 0.552456,-0.117188 0.753349,-0.318081l4.28572,-4.28572c0.200893,-0.200894 0.318081,-0.468751 0.318081,-0.75335c0,-0.585938 -0.485492,-1.07143 -1.07143,-1.07143h-2.14286v-6.42858h6.42858v2.14286c0,0.585938 0.485491,1.07143 1.07143,1.07143c0.284598,0 0.552456,-0.117188 0.753349,-0.318081l4.28572,-4.28572c0.200893,-0.200893 0.318081,-0.468751 0.318081,-0.753349Z" transform="translate(0, -55.7144)"></path>
    </g>
</svg>