<svg width="28" height="30" viewBox="1.07143 -55.7144 27.8572 30" xmlns="http://www.w3.org/2000/svg"><path d="M15.268-27.321c0 .15-.117.267-.268.267A2.95 2.95 0 0 1 12.054-30c0-.15.117-.268.267-.268.151 0 .268.117.268.268A2.422 2.422 0 0 0 15-27.59c.15 0 .268.118.268.269zm13.66-4.822c-2.477-2.093-5.357-5.843-5.357-13.929 0-3.214-2.661-6.73-7.098-7.382.084-.201.134-.419.134-.653a1.608 1.608 0 0 0-3.214 0c0 .234.05.452.134.653-4.437.653-7.098 4.168-7.098 7.382 0 8.086-2.88 11.836-5.358 13.93 0 1.171.971 2.142 2.143 2.142h7.5A4.294 4.294 0 0 0 15-25.714 4.294 4.294 0 0 0 19.286-30h7.5a2.158 2.158 0 0 0 2.143-2.143z"/></svg>