<?xml version="1.0" encoding="UTF-8" standalone="no"?>
<svg width="28" height="30" version="1.1" viewBox="1.07143 -55.7144 27.8572 30" xmlns="http://www.w3.org/2000/svg" xmlns:xlink="http://www.w3.org/1999/xlink">
    <!--Generated by IJSVG (https://github.com/curthard89/IJSVG)-->
    <g fill="#000000">
        <path d="M14.1964,28.3929c0,0.15067 -0.117187,0.267857 -0.267857,0.267857c-1.62389,0 -2.94643,-1.32255 -2.94643,-2.94643c0,-0.15067 0.117187,-0.267857 0.267857,-0.267857c0.15067,0 0.267858,0.117187 0.267858,0.267857c0,1.32255 1.08817,2.41072 2.41072,2.41072c0.15067,0 0.267857,0.117188 0.267857,0.267858Zm13.6607,-4.82143c-2.47768,-2.09264 -5.35715,-5.84264 -5.35715,-13.9286c0,-3.21429 -2.66183,-6.72992 -7.09822,-7.38282c0.083705,-0.200893 0.133929,-0.418527 0.133929,-0.652902c0,-0.887278 -0.719867,-1.60714 -1.60714,-1.60714c-0.887278,0 -1.60715,0.719867 -1.60715,1.60714c0,0.234375 0.050223,0.452009 0.133929,0.652902c-4.43639,0.652903 -7.09822,4.16853 -7.09822,7.38282c0,8.08595 -2.87947,11.836 -5.35715,13.9286c0,1.17188 0.970983,2.14286 2.14286,2.14286h7.50001c0,2.36049 1.92523,4.28572 4.28572,4.28572c2.36049,0 4.28572,-1.92523 4.28572,-4.28572h7.50001c1.17188,0 2.14286,-0.970983 2.14286,-2.14286Z" transform="translate(1.07143, -55.7144)"></path>
    </g>
</svg>