<?xml version="1.0" encoding="UTF-8"?>
<svg width="30" height="30" version="1.1" viewBox="0 -55.7144 30 30" xmlns="http://www.w3.org/2000/svg" xmlns:xlink="http://www.w3.org/1999/xlink">
    <!--Generated by IJSVG (https://github.com/curthard89/IJSVG)-->
    <g fill="#000000">
        <path d="M9.55916,9.8605c0.234375,0.552456 -0.033482,1.17188 -0.585938,1.40625c-1.875,0.753349 -3.3817,2.26005 -4.13505,4.13505c-0.184152,0.418527 -0.569197,0.669644 -1.00446,0.669644c-0.133929,0 -0.267858,-0.033483 -0.401786,-0.083706c-0.552456,-0.217634 -0.803573,-0.837054 -0.585938,-1.38951c0.970983,-2.41072 2.91295,-4.35268 5.32367,-5.32367c0.552456,-0.217634 1.17188,0.033483 1.38951,0.585939Zm15.7701,-5.95983l-4.06808,4.08483l-1.13839,-1.13839c-0.418527,-0.418527 -1.10491,-0.418527 -1.52344,0l-1.07143,1.07143c-1.69085,-0.937501 -3.64956,-1.48996 -5.7422,-1.48996c-6.51228,0 -11.7857,5.27344 -11.7857,11.7857c0,6.51228 5.27344,11.7857 11.7857,11.7857c6.51229,0 11.7857,-5.27344 11.7857,-11.7857c0,-2.09264 -0.552456,-4.05134 -1.48996,-5.74219l1.07143,-1.07143c0.418528,-0.418527 0.418528,-1.10491 0,-1.52344l-1.13839,-1.13839l4.08483,-4.06809Zm0.133929,-0.937501c0.217634,-0.200893 0.217634,-0.552456 0,-0.753349l-1.5067,-1.52344c-0.217634,-0.200893 -0.552456,-0.200893 -0.77009,0c-0.200894,0.217634 -0.200894,0.552456 0,0.77009l1.52344,1.5067c0.100446,0.100447 0.234375,0.167411 0.385045,0.167411c0.133929,0 0.267857,-0.066964 0.368304,-0.167411Zm3.85045,3.85045c0.200893,-0.217634 0.200893,-0.552456 0,-0.77009l-1.52344,-1.5067c-0.200893,-0.217635 -0.552456,-0.217635 -0.753349,0c-0.217635,0.200893 -0.217635,0.552456 0,0.753349l1.5067,1.52344c0.117187,0.100447 0.251116,0.15067 0.385045,0.15067c0.133929,0 0.267857,-0.050223 0.385045,-0.15067Zm0.686385,-3.06362c0,-0.301339 -0.234376,-0.535715 -0.535715,-0.535715h-1.60715c-0.30134,0 -0.535715,0.234376 -0.535715,0.535715c0,0.30134 0.234375,0.535715 0.535715,0.535715h1.60715c0.301339,0 0.535715,-0.234375 0.535715,-0.535715Zm-3.21429,-3.21429c0,-0.30134 -0.234375,-0.535715 -0.535715,-0.535715c-0.301339,0 -0.535715,0.234375 -0.535715,0.535715v1.60715c0,0.301339 0.234376,0.535714 0.535715,0.535714c0.30134,0 0.535715,-0.234375 0.535715,-0.535714Zm2.52791,0.92076c0.200893,-0.217634 0.200893,-0.552456 0,-0.77009c-0.217634,-0.200893 -0.552456,-0.200893 -0.77009,0l-1.5067,1.52344c-0.217635,0.200893 -0.217635,0.552456 0,0.753349c0.100446,0.100447 0.234375,0.167411 0.385045,0.167411c0.133928,0 0.267857,-0.066964 0.368304,-0.167411Z" transform="translate(0, -55.7144)"></path>
    </g>
</svg>