<svg width="30" height="30" viewBox="0 -55.7144 30 30" xmlns="http://www.w3.org/2000/svg"><path d="M9.56-45.854a1.07 1.07 0 0 1-.587 1.406 7.484 7.484 0 0 0-4.135 4.135c-.184.419-.569.67-1.004.67a1.15 1.15 0 0 1-.402-.084 1.06 1.06 0 0 1-.586-1.39A9.661 9.661 0 0 1 8.17-46.44a1.06 1.06 0 0 1 1.39.586zm15.77-5.96l-4.069 4.085-1.138-1.138a1.081 1.081 0 0 0-1.524 0l-1.071 1.071a11.818 11.818 0 0 0-5.742-1.49C5.273-49.286 0-44.012 0-37.5s5.273 11.786 11.786 11.786c6.512 0 11.785-5.274 11.785-11.786 0-2.093-.552-4.051-1.49-5.742l1.072-1.072a1.081 1.081 0 0 0 0-1.523l-1.139-1.139 4.085-4.068zm.133-.937a.516.516 0 0 0 0-.754l-1.507-1.523a.567.567 0 0 0-.77 0c-.2.218-.2.552 0 .77l1.524 1.507c.1.1.234.167.385.167a.538.538 0 0 0 .368-.167zm3.85 3.85c.202-.217.202-.552 0-.77l-1.523-1.507a.516.516 0 0 0-.753 0 .516.516 0 0 0 0 .754l1.507 1.523c.117.1.25.15.385.15a.59.59 0 0 0 .385-.15zM30-51.964a.529.529 0 0 0-.536-.536h-1.607a.529.529 0 0 0-.536.536c0 .3.235.535.536.535h1.607a.529.529 0 0 0 .536-.535zm-3.214-3.215a.529.529 0 0 0-.536-.535.529.529 0 0 0-.536.535v1.607c0 .302.235.536.536.536a.529.529 0 0 0 .536-.536zm2.528.921c.2-.218.2-.552 0-.77a.567.567 0 0 0-.77 0l-1.507 1.523a.516.516 0 0 0 0 .754c.1.1.234.167.385.167a.538.538 0 0 0 .368-.167z"/></svg>