<svg width="30" height="26" viewBox="0 -49.721 30 26.1496" xmlns="http://www.w3.org/2000/svg"><path d="M27.857-41.15v-6.428a2.158 2.158 0 0 0-2.143-2.143c-3.214 2.679-8.571 6.429-15 6.429H2.68A2.686 2.686 0 0 0 0-40.614v3.214a2.686 2.686 0 0 0 2.679 2.679H4.72c-1.172 3.767.268 6.747 1.239 9.727 1.54 1.423 5.86 1.39 6.897-.653-1.774-1.39-3.281-2.746-2.11-4.671-1.305-1.34-.619-3.666 1.374-4.336 5.809.485 10.613 3.884 13.593 6.362a2.158 2.158 0 0 0 2.143-2.143v-6.429A2.136 2.136 0 0 0 30-39.007a2.136 2.136 0 0 0-2.143-2.143zm-2.143 10.112c-4.37-3.348-8.605-5.24-12.857-5.709v-4.52c4.252-.469 8.488-2.394 12.857-5.742z"/></svg>