<svg width="26" height="26" viewBox="0 -49.2858 25.7143 25.7143" xmlns="http://www.w3.org/2000/svg"><path d="M17.143-28.393a.529.529 0 0 1-.536.536h-7.5a.529.529 0 0 1-.536-.536v-2.678c0-.302.235-.536.536-.536h1.607v-5.357H9.107a.529.529 0 0 1-.536-.536v-2.679c0-.301.235-.535.536-.535h5.357c.302 0 .536.234.536.535v8.572h1.607c.302 0 .536.234.536.536zm-2.143-15a.529.529 0 0 1-.536.536H11.25a.529.529 0 0 1-.536-.536v-2.678c0-.302.235-.536.536-.536h3.214c.302 0 .536.234.536.536zm10.714 6.964c0-7.098-5.759-12.857-12.857-12.857C5.76-49.286 0-43.526 0-36.429 0-29.33 5.759-23.57 12.857-23.57c7.098 0 12.857-5.76 12.857-12.858z"/></svg>