<svg width="26" height="26" viewBox="0 -49.2858 25.7143 25.7143" xmlns="http://www.w3.org/2000/svg"><path d="M19.235-32.645c0 .284-.117.569-.318.77l-1.506 1.507c-.201.2-.486.318-.77.318-.285 0-.553-.118-.754-.318l-3.03-3.03-3.03 3.03c-.2.2-.469.318-.753.318-.285 0-.57-.118-.77-.318l-1.507-1.507c-.201-.201-.318-.486-.318-.77 0-.285.117-.553.318-.754l3.03-3.03-3.03-3.03c-.201-.2-.318-.469-.318-.753 0-.285.117-.57.318-.77l1.507-1.507c.2-.2.485-.318.77-.318.284 0 .552.117.753.318l3.03 3.03 3.03-3.03c.201-.2.469-.318.754-.318.284 0 .569.117.77.318l1.506 1.507c.201.2.318.485.318.77 0 .284-.117.552-.318.753l-3.03 3.03 3.03 3.03c.201.201.318.47.318.754zm6.48-3.784c0-7.098-5.76-12.857-12.858-12.857C5.76-49.286 0-43.527 0-36.429 0-29.33 5.759-23.57 12.857-23.57c7.098 0 12.857-5.76 12.857-12.858z"/></svg>