<svg width="28" height="30" viewBox="0 -55.7144 27.8572 30" xmlns="http://www.w3.org/2000/svg"><path d="M2.143-27.857V-45h23.571v17.143zM8.57-48.214a.529.529 0 0 1-.535.535H6.964a.529.529 0 0 1-.535-.535v-4.822c0-.301.234-.536.535-.536h1.072c.301 0 .535.235.535.536zm12.858 0a.529.529 0 0 1-.536.535H19.82a.529.529 0 0 1-.535-.535v-4.822c0-.301.234-.536.535-.536h1.072c.301 0 .536.235.536.536zm6.428-1.072a2.158 2.158 0 0 0-2.143-2.143h-2.142v-1.607a2.686 2.686 0 0 0-2.68-2.678h-1.07a2.686 2.686 0 0 0-2.68 2.678v1.607h-6.428v-1.607a2.686 2.686 0 0 0-2.678-2.678H6.964a2.686 2.686 0 0 0-2.678 2.678v1.607H2.143A2.158 2.158 0 0 0 0-49.286v21.429c0 1.172.971 2.143 2.143 2.143h23.571a2.158 2.158 0 0 0 2.143-2.143z"/></svg>