<?xml version="1.0" encoding="UTF-8"?>
<svg width="28" height="30" version="1.1" viewBox="0 -55.7144 27.8572 30" xmlns="http://www.w3.org/2000/svg" xmlns:xlink="http://www.w3.org/1999/xlink">
    <!--Generated by IJSVG (https://github.com/curthard89/IJSVG)-->
    <g fill="#000000">
        <path d="M2.14286,27.8572v-17.1429h23.5715v17.1429Zm6.42858,-20.3572c0,0.301339 -0.234375,0.535715 -0.535715,0.535715h-1.07143c-0.30134,0 -0.535715,-0.234376 -0.535715,-0.535715v-4.82144c0,-0.301339 0.234375,-0.535714 0.535715,-0.535714h1.07143c0.30134,0 0.535715,0.234375 0.535715,0.535714Zm12.8572,0c0,0.301339 -0.234375,0.535715 -0.535715,0.535715h-1.07143c-0.301339,0 -0.535715,-0.234376 -0.535715,-0.535715v-4.82144c0,-0.301339 0.234376,-0.535714 0.535715,-0.535714h1.07143c0.30134,0 0.535715,0.234375 0.535715,0.535714Zm6.42858,-1.07143c0,-1.17188 -0.970983,-2.14286 -2.14286,-2.14286h-2.14286v-1.60715c0,-1.47322 -1.20536,-2.67857 -2.67857,-2.67857h-1.07143c-1.47322,0 -2.67857,1.20536 -2.67857,2.67857v1.60715h-6.42858v-1.60715c0,-1.47322 -1.20536,-2.67857 -2.67857,-2.67857h-1.07143c-1.47322,0 -2.67857,1.20536 -2.67857,2.67857v1.60715h-2.14286c-1.17188,0 -2.14286,0.970984 -2.14286,2.14286v21.4286c0,1.17188 0.970983,2.14286 2.14286,2.14286h23.5715c1.17188,0 2.14286,-0.970984 2.14286,-2.14286Z" transform="translate(0, -55.7144)"></path>
    </g>
</svg>