<?xml version="1.0" encoding="UTF-8" standalone="no"?>
<svg width="30" height="24" version="1.1" viewBox="0 -45.0001 30 23.5715" xmlns="http://www.w3.org/2000/svg" xmlns:xlink="http://www.w3.org/1999/xlink">
    <!--Generated by IJSVG (https://github.com/curthard89/IJSVG)-->
    <g fill="#000000">
        <path d="M27.8572,20.8929c0,0.284599 -0.251116,0.535715 -0.535715,0.535715h-24.6429c-0.284599,0 -0.535715,-0.251116 -0.535715,-0.535715v-12.8572c0.351563,0.401786 0.736608,0.77009 1.15513,1.10491c2.39398,1.84152 4.80469,3.71652 7.13171,5.65849c1.25558,1.05469 2.8125,2.34375 4.55358,2.34375h0.016741h0.016741c1.74107,0 3.298,-1.28906 4.55358,-2.34375c2.32701,-1.94197 4.73773,-3.81697 7.13171,-5.65849c0.418527,-0.334822 0.803572,-0.703126 1.15513,-1.10491Zm0,-17.5949c0,1.42299 -1.37277,3.28125 -2.46094,4.13505c-2.24331,1.75782 -4.48661,3.53237 -6.71318,5.30693c-0.887278,0.719867 -2.49442,2.26005 -3.6663,2.26005h-0.016741h-0.016741c-1.17188,0 -2.77902,-1.54018 -3.6663,-2.26005c-2.22657,-1.77456 -4.46987,-3.54911 -6.71318,-5.30693c-1.5067,-1.18862 -2.46094,-2.84599 -2.46094,-4.75447c0,-0.284599 0.251116,-0.535715 0.535715,-0.535715h24.6429c0.636162,0 0.535715,0.736608 0.535715,1.15514Zm2.14286,-0.61942c0,-1.47322 -1.20536,-2.67858 -2.67858,-2.67858h-24.6429c-1.47322,0 -2.67857,1.20536 -2.67857,2.67858v18.2143c0,1.47322 1.20536,2.67857 2.67857,2.67857h24.6429c1.47322,0 2.67858,-1.20536 2.67858,-2.67857Z" transform="translate(0, -45.0001)"></path>
    </g>
</svg>