<svg width="30" height="24" viewBox="0 -45.0001 30 23.5715" xmlns="http://www.w3.org/2000/svg"><path d="M27.857-24.107a.55.55 0 0 1-.536.536H2.68a.55.55 0 0 1-.536-.536v-12.857c.351.401.736.77 1.155 1.105 2.394 1.841 4.805 3.716 7.132 5.658 1.255 1.055 2.812 2.344 4.553 2.344h.034c1.74 0 3.298-1.29 4.553-2.344 2.327-1.942 4.738-3.817 7.132-5.658a9.013 9.013 0 0 0 1.155-1.105zm0-17.595c0 1.423-1.373 3.281-2.46 4.135a1038.133 1038.133 0 0 0-6.714 5.307c-.887.72-2.494 2.26-3.666 2.26h-.034c-1.172 0-2.779-1.54-3.666-2.26-2.227-1.775-4.47-3.55-6.713-5.307-1.507-1.189-2.461-2.846-2.461-4.755a.55.55 0 0 1 .536-.535H27.32c.637 0 .536.736.536 1.155zm2.143-.62A2.686 2.686 0 0 0 27.321-45H2.68A2.686 2.686 0 0 0 0-42.322v18.215a2.686 2.686 0 0 0 2.679 2.678H27.32a2.686 2.686 0 0 0 2.68-2.678z"/></svg>