<svg width="34" height="26" viewBox="0 -49.2858 34.2858 25.7143" xmlns="http://www.w3.org/2000/svg"><path d="M17.143-32.495c0-2.594-.636-5.474-3.281-5.474-.82.469-1.926 1.272-3.148 1.272-1.222 0-2.327-.803-3.147-1.272-2.645 0-3.281 2.88-3.281 5.475 0 1.456.954 2.494 2.143 2.494H15c1.189 0 2.143-1.038 2.143-2.495zM14.515-41.2c0-2.093-1.708-3.8-3.8-3.8a3.808 3.808 0 0 0-3.8 3.8c0 2.11 1.707 3.8 3.8 3.8 2.092 0 3.8-1.69 3.8-3.8zM30-33.75a.529.529 0 0 0-.536-.536h-9.643a.529.529 0 0 0-.535.536v1.071c0 .302.234.536.535.536h9.643a.529.529 0 0 0 .536-.536zm0-4.219a.6.6 0 0 0-.603-.603h-9.509a.6.6 0 0 0-.602.603v.938a.6.6 0 0 0 .602.602h9.51A.6.6 0 0 0 30-37.03zm0-4.353a.529.529 0 0 0-.536-.535h-9.643a.529.529 0 0 0-.535.535v1.072c0 .301.234.536.535.536h9.643A.529.529 0 0 0 30-41.25zm2.143 16.072a.55.55 0 0 1-.536.536h-5.893v-1.608a.529.529 0 0 0-.535-.535h-1.072a.529.529 0 0 0-.536.535v1.608H10.714v-1.608a.529.529 0 0 0-.535-.535H9.107a.529.529 0 0 0-.536.535v1.608H2.68a.55.55 0 0 1-.536-.536v-20.357a.55.55 0 0 1 .536-.536h28.928a.55.55 0 0 1 .536.536zm2.143-20.357a2.686 2.686 0 0 0-2.679-2.679H2.68A2.686 2.686 0 0 0 0-46.607v20.357a2.686 2.686 0 0 0 2.679 2.678h28.928a2.686 2.686 0 0 0 2.679-2.678z"/></svg>