<svg width="30" height="30" viewBox="0 -55.7144 30 30" xmlns="http://www.w3.org/2000/svg"><path d="M25.497-33.298c-2.327 3.281-6.161 5.44-10.497 5.44s-8.17-2.159-10.497-5.44c.436-3.13 1.708-5.91 4.554-6.295A8.066 8.066 0 0 0 15-36.964a8.066 8.066 0 0 0 5.943-2.629c2.846.385 4.118 3.164 4.554 6.295zM21.429-45A6.43 6.43 0 0 1 15-38.572 6.43 6.43 0 0 1 8.571-45 6.43 6.43 0 0 1 15-51.43 6.43 6.43 0 0 1 21.429-45zM30-40.714c0-8.287-6.713-15-15-15-8.287 0-15 6.713-15 15 0 8.27 6.713 15 15 15 8.304 0 15-6.747 15-15z"/></svg>