<?xml version="1.0" encoding="UTF-8" standalone="no"?>
<svg width="30" height="30" version="1.1" viewBox="0 -55.7144 30 30" xmlns="http://www.w3.org/2000/svg" xmlns:xlink="http://www.w3.org/1999/xlink">
    <!--Generated by IJSVG (https://github.com/curthard89/IJSVG)-->
    <g fill="#000000">
        <path d="M25.4967,22.4163c-2.32701,3.28125 -6.16072,5.44086 -10.4967,5.44086c-4.33594,0 -8.16965,-2.1596 -10.4967,-5.44086c0.435268,-3.13058 1.70759,-5.9096 4.55358,-6.29465c1.47322,1.60714 3.59933,2.62835 5.94309,2.62835c2.34375,0 4.46987,-1.02121 5.94309,-2.62835c2.84599,0.385045 4.11831,3.16407 4.55358,6.29465Zm-4.06808,-11.702c0,3.54911 -2.87947,6.42858 -6.42858,6.42858c-3.54911,0 -6.42858,-2.87947 -6.42858,-6.42858c0,-3.54911 2.87947,-6.42858 6.42858,-6.42858c3.54911,0 6.42858,2.87947 6.42858,6.42858Zm8.57144,4.28572c0,-8.28684 -6.71318,-15 -15,-15c-8.28684,0 -15,6.71318 -15,15c0,8.2701 6.71318,15 15,15c8.30358,0 15,-6.74666 15,-15Z" transform="translate(0, -55.7144)"></path>
    </g>
</svg>