<?xml version="1.0" encoding="UTF-8" standalone="no"?>
<svg width="30" height="30" version="1.1" viewBox="0 -55.7144 30 30" xmlns="http://www.w3.org/2000/svg" xmlns:xlink="http://www.w3.org/1999/xlink">
    <!--Generated by IJSVG (https://github.com/curthard89/IJSVG)-->
    <g fill="#000000">
        <path d="M15,0c-8.28684,0 -15,6.71318 -15,15c0,8.25336 6.69644,15 15,15c8.32032,0 15,-6.7634 15,-15c0,-8.28684 -6.71318,-15 -15,-15Zm10.3627,22.6172c-0.602679,-2.99665 -2.05915,-5.47434 -5.12277,-5.47434c-1.35603,1.32255 -3.19755,2.14286 -5.23996,2.14286c-2.04241,0 -3.88393,-0.820313 -5.23996,-2.14286c-3.06362,0 -4.52009,2.47768 -5.12277,5.47434c-1.55692,-2.14286 -2.49442,-4.77121 -2.49442,-7.6172c0,-7.08148 5.77568,-12.8572 12.8572,-12.8572c7.08148,0 12.8572,5.77568 12.8572,12.8572c0,2.84598 -0.937501,5.47434 -2.49442,7.6172Zm-3.93416,-10.8315c0,-3.54911 -2.87947,-6.42858 -6.42858,-6.42858c-3.54911,0 -6.42858,2.87947 -6.42858,6.42858c0,3.54911 2.87947,6.42858 6.42858,6.42858c3.54911,0 6.42858,-2.87947 6.42858,-6.42858Z" transform="translate(0, -55.7144)"></path>
    </g>
</svg>