<svg width="30" height="30" viewBox="0 -55.7144 30 30" xmlns="http://www.w3.org/2000/svg"><path d="M15-55.714c-8.287 0-15 6.713-15 15 0 8.253 6.696 15 15 15 8.32 0 15-6.764 15-15 0-8.287-6.713-15-15-15zm10.363 22.617c-.603-2.997-2.06-5.475-5.123-5.475a7.475 7.475 0 0 1-10.48 0c-3.064 0-4.52 2.478-5.123 5.475a12.923 12.923 0 0 1-2.494-7.617c0-7.082 5.776-12.858 12.857-12.858 7.082 0 12.857 5.776 12.857 12.858 0 2.846-.937 5.474-2.494 7.617zM21.429-43.93A6.43 6.43 0 0 0 15-50.357a6.43 6.43 0 0 0-6.429 6.428A6.43 6.43 0 0 0 15-37.5a6.43 6.43 0 0 0 6.429-6.429z"/></svg>