<svg width="28" height="28" viewBox="0 -51.4286 27.8572 27.8572" xmlns="http://www.w3.org/2000/svg"><path d="M17.143-40.179a.55.55 0 0 0-.536-.535h-3.75v-3.75a.55.55 0 0 0-.536-.536H11.25a.55.55 0 0 0-.536.536v3.75h-3.75a.55.55 0 0 0-.535.535v1.072a.55.55 0 0 0 .535.536h3.75v3.75a.55.55 0 0 0 .536.535h1.071a.55.55 0 0 0 .536-.535v-3.75h3.75a.55.55 0 0 0 .536-.536zm2.143.536c0 4.135-3.365 7.5-7.5 7.5s-7.5-3.365-7.5-7.5 3.365-7.5 7.5-7.5 7.5 3.365 7.5 7.5zm8.571 13.929c0-.57-.234-1.122-.62-1.507l-5.741-5.742a11.758 11.758 0 0 0 2.075-6.68c0-6.512-5.273-11.786-11.785-11.786C5.273-51.429 0-46.155 0-39.643s5.274 11.786 11.786 11.786c2.377 0 4.72-.72 6.68-2.076l5.742 5.725c.385.402.937.637 1.506.637a2.136 2.136 0 0 0 2.143-2.143z"/></svg>