<?xml version="1.0" encoding="UTF-8" standalone="no"?>
<svg width="28" height="28" version="1.1" viewBox="0 -51.4286 27.8572 27.8572" xmlns="http://www.w3.org/2000/svg" xmlns:xlink="http://www.w3.org/1999/xlink">
    <!--Generated by IJSVG (https://github.com/curthard89/IJSVG)-->
    <g fill="#000000">
        <path d="M19.2857,11.7857c0,4.13505 -3.36496,7.50001 -7.50001,7.50001c-4.13505,0 -7.50001,-3.36496 -7.50001,-7.50001c0,-4.13505 3.36496,-7.50001 7.50001,-7.50001c4.13505,0 7.50001,3.36496 7.50001,7.50001Zm8.57144,13.9286c0,-0.569197 -0.234375,-1.12165 -0.61942,-1.5067l-5.7422,-5.74219c1.35603,-1.95871 2.0759,-4.30246 2.0759,-6.6797c0,-6.51228 -5.27344,-11.7857 -11.7857,-11.7857c-6.51228,0 -11.7857,5.27344 -11.7857,11.7857c0,6.51228 5.27344,11.7857 11.7857,11.7857c2.37723,0 4.72099,-0.719867 6.6797,-2.0759l5.74219,5.72545c0.385045,0.401786 0.937501,0.636161 1.5067,0.636161c1.17188,0 2.14286,-0.970983 2.14286,-2.14286Z" transform="translate(0, -51.4286)"></path>
    </g>
</svg>