<?xml version="1.0" encoding="UTF-8" standalone="no"?>
<svg width="19" height="26" version="1.1" viewBox="0 -51.4286 19.2857 25.7143" xmlns="http://www.w3.org/2000/svg" xmlns:xlink="http://www.w3.org/1999/xlink">
    <!--Generated by IJSVG (https://github.com/curthard89/IJSVG)-->
    <g fill="#000000">
        <path d="M17.6786,12.8572h-12.3214v-5.35715c0,-2.36049 1.92523,-4.28572 4.28572,-4.28572c2.36049,0 4.28572,1.92522 4.28572,4.28572c0,0.585938 0.485492,1.07143 1.07143,1.07143h1.07143c0.585938,0 1.07143,-0.485492 1.07143,-1.07143c0,-4.13505 -3.36496,-7.50001 -7.50001,-7.50001c-4.13505,0 -7.50001,3.36496 -7.50001,7.50001v5.35715h-0.535715c-0.887278,0 -1.60715,0.719867 -1.60715,1.60715v9.64287c0,0.887278 0.719867,1.60714 1.60715,1.60714h16.0714c0.887277,0 1.60714,-0.719867 1.60714,-1.60714v-9.64287c0,-0.887278 -0.719867,-1.60715 -1.60714,-1.60715Z" transform="translate(0, -51.4286)"></path>
    </g>
</svg>