<?xml version="1.0" encoding="UTF-8"?><svg width="26" height="26" version="1.1" viewBox="0 -49.8333 26 26" xmlns="http://www.w3.org/2000/svg" xmlns:xlink="http://www.w3.org/1999/xlink"><!--Generated by IJSVG (https://github.com/curthard89/IJSVG)--><g transform="scale(1.01111)"><g fill="#000000"><path d="M12.8571,21.9643v-18.2143c-1.65179,0 -3.17522,0.407366 -4.57031,1.2221c-1.39509,0.814732 -2.5,1.91964 -3.31473,3.31473c-0.814732,1.39509 -1.2221,2.91853 -1.2221,4.57031c0,1.65178 0.407366,3.17522 1.2221,4.57031c0.814732,1.39509 1.91964,2.5 3.31473,3.31473c1.39509,0.814732 2.91853,1.2221 4.57031,1.2221Zm12.8571,-9.10714c0,2.33259 -0.574777,4.48382 -1.72433,6.45368c-1.14955,1.96987 -2.70926,3.52958 -4.67913,4.67913c-1.96987,1.14955 -4.12109,1.72433 -6.45368,1.72433c-2.33259,0 -4.48382,-0.574776 -6.45368,-1.72433c-1.96987,-1.14955 -3.52958,-2.70926 -4.67913,-4.67913c-1.14955,-1.96987 -1.72433,-4.12109 -1.72433,-6.45368c0,-2.33259 0.574777,-4.48382 1.72433,-6.45368c1.14955,-1.96987 2.70926,-3.52958 4.67913,-4.67913c1.96987,-1.14955 4.12109,-1.72433 6.45368,-1.72433c2.33259,0 4.48382,0.574776 6.45368,1.72433c1.96987,1.14955 3.52958,2.70926 4.67913,4.67913c1.14955,1.96987 1.72433,4.12109 1.72433,6.45368Z" transform="translate(0, -49.2857)"></path></g></g></svg>