<svg viewBox="0 -55.7144 30 30" xmlns="http://www.w3.org/2000/svg"><path d="M30-40.714c0-.285-.117-.553-.318-.754l-4.286-4.285c-.2-.201-.469-.319-.753-.319-.586 0-1.072.486-1.072 1.072v2.143h-6.428v-6.429h2.143c.586 0 1.071-.485 1.071-1.071 0-.285-.117-.553-.318-.754l-4.286-4.285c-.2-.201-.468-.318-.753-.318s-.552.117-.753.318L9.96-51.111c-.201.201-.318.47-.318.754 0 .586.485 1.071 1.071 1.071h2.143v6.429H6.43V-45c0-.586-.486-1.072-1.072-1.072-.284 0-.552.118-.753.319L.318-41.468c-.2.201-.318.469-.318.754 0 .284.117.552.318.753l4.286 4.286c.2.2.469.318.753.318.586 0 1.072-.486 1.072-1.072v-2.143h6.428v6.429h-2.143c-.586 0-1.071.486-1.071 1.071 0 .285.117.553.318.754l4.286 4.286c.2.2.468.318.753.318s.552-.118.753-.318l4.286-4.286c.2-.201.318-.469.318-.754 0-.585-.485-1.071-1.071-1.071h-2.143v-6.429h6.428v2.143c0 .586.486 1.072 1.072 1.072.284 0 .552-.117.753-.318l4.286-4.286c.2-.2.318-.469.318-.753z"/></svg>