<?xml version="1.0" encoding="UTF-8" standalone="no"?>
<svg width="26" height="30" version="1.1" viewBox="0 -55.7144 25.7143 30" xmlns="http://www.w3.org/2000/svg" xmlns:xlink="http://www.w3.org/1999/xlink">
    <!--Generated by IJSVG (https://github.com/curthard89/IJSVG)-->
    <g fill="#000000">
        <path d="M24.5759,6.36162l-5.22322,-5.22322c-0.619421,-0.61942 -1.85826,-1.13839 -2.74554,-1.13839h-15c-0.887278,0 -1.60714,0.719867 -1.60714,1.60714v26.7857c0,0.887278 0.719867,1.60714 1.60715,1.60714h22.5c0.887277,0 1.60714,-0.719867 1.60714,-1.60714v-19.2857c0,-0.887278 -0.518973,-2.12612 -1.13839,-2.74554Zm-7.43304,-4.08483c0.284598,0.100447 0.569197,0.251117 0.686384,0.368304l5.23996,5.23996c0.117188,0.117188 0.267857,0.401786 0.368304,0.686385h-6.29465Zm6.42858,25.5804h-21.4286v-25.7143h12.8572v6.96429c0,0.887277 0.719867,1.60714 1.60714,1.60714h6.96429Zm-8.60492,-9.92747c-0.987725,-0.803573 -1.85826,-2.22657 -2.4442,-3.98438c0.200893,-1.15514 0.217635,-2.1596 0.234376,-3.21429c0,-0.16741 0,-0.334821 0,-0.502232c0,-0.050224 0,-0.083706 -0.016741,-0.133929c0.033482,-0.033482 0.050223,-0.083705 0.066964,-0.133929c0.100446,-0.535715 0.050223,-0.904019 -0.15067,-1.13839c-0.133929,-0.167411 -0.334822,-0.251116 -0.585938,-0.251116h-0.016741h-0.351563c-0.334822,0 -0.585938,0.251116 -0.703126,0.669643c-0.30134,1.10491 -0.133929,2.97991 0.401786,4.80469c-0.401786,1.40625 -0.987724,2.87947 -1.74107,4.38616c-0.669644,1.35603 -1.27232,2.4442 -1.7913,3.298c0,-0.016741 -0.016741,-0.050223 -0.033482,-0.066964c-0.083706,-0.133929 -0.251117,-0.184152 -0.385045,-0.100446c-2.0759,1.08817 -2.97991,2.37723 -3.14733,3.14732c-0.050223,0.334822 0.016742,0.518974 0.100447,0.602679c0.033482,0.033482 0.050223,0.066964 0.100447,0.083706l0.401786,0.200893c0.15067,0.083705 0.301339,0.117187 0.46875,0.117187c1.00447,0 2.32701,-1.43973 4.05134,-4.38617c1.7913,-0.61942 4.2355,-1.13839 6.56251,-1.38951c1.40625,0.736608 3.03014,1.2221 4.10157,1.2221c0.887278,0 1.13839,-0.334821 1.18862,-0.636161c0,0 0,-0.016741 0,-0.016741c0.016741,-0.016741 0.033482,-0.050223 0.050223,-0.066965c0.184152,-0.401786 0.083706,-0.703125 -0.033482,-0.870536c-0.418527,-0.686385 -1.84152,-0.820314 -2.96317,-0.820314c-0.602679,0 -1.25558,0.033482 -1.95871,0.117188c-0.518973,-0.30134 -0.987724,-0.602679 -1.40625,-0.937501Zm-9.64287,6.88059c0.251116,-0.569197 1.03795,-1.67411 2.29353,-2.64509c-1.07143,1.69085 -1.7913,2.41072 -2.29353,2.64509Zm6.66295,-15.4018c0,-0.016741 0.016742,-0.033482 0.016742,-0.066964c0.100446,0.117188 0.200893,0.30134 0.217634,0.602679c0.016741,0.033482 0.016741,0.066965 0.033482,0.083706c-0.033482,0.050223 -0.050223,0.083705 -0.066964,0.133928c-0.033483,0.200893 -0.083706,0.435269 -0.117188,0.719867c-0.033482,0.217634 -0.066964,0.468751 -0.117188,0.736608c-0.133928,-0.937501 -0.133928,-1.74107 0.033482,-2.20982Zm-2.07589,11.0659c0.251116,-0.45201 0.502233,-0.92076 0.753349,-1.38951c0.60268,-1.18862 1.07143,-2.27679 1.38951,-3.298c0.569197,1.2221 1.30581,2.22657 2.12612,2.94643c0.15067,0.133929 0.318081,0.251117 0.485492,0.385045c-1.64063,0.30134 -3.28125,0.77009 -4.75447,1.35603Zm10.8147,-0.267858c0.016741,0.016741 0.033482,0.033482 0.033482,0.050223c-0.066964,0.016742 -0.15067,0.016742 -0.301339,0.016742c-0.502233,0 -1.25558,-0.167411 -2.0759,-0.468751c1.82478,0 2.26005,0.318081 2.34375,0.401786Z" transform="translate(0, -55.7144)"></path>
    </g>
</svg>