<?xml version="1.0" encoding="UTF-8" standalone="no"?>
<svg width="26" height="30" version="1.1" viewBox="0 -55.7144 25.7143 30" xmlns="http://www.w3.org/2000/svg" xmlns:xlink="http://www.w3.org/1999/xlink">
    <!--Generated by IJSVG (https://github.com/curthard89/IJSVG)-->
    <g fill="#000000">
        <path d="M24.5759,6.36162l-5.22322,-5.22322c-0.619421,-0.61942 -1.85826,-1.13839 -2.74554,-1.13839h-15c-0.887278,0 -1.60714,0.719867 -1.60714,1.60714v26.7857c0,0.887278 0.719867,1.60714 1.60715,1.60714h22.5c0.887277,0 1.60714,-0.719867 1.60714,-1.60714v-19.2857c0,-0.887278 -0.518973,-2.12612 -1.13839,-2.74554Zm-7.43304,-4.08483c0.284598,0.100447 0.569197,0.251117 0.686384,0.368304l5.23996,5.23996c0.117188,0.117188 0.267857,0.401786 0.368304,0.686385h-6.29465Zm6.42858,25.5804h-21.4286v-25.7143h12.8572v6.96429c0,0.887277 0.719867,1.60714 1.60714,1.60714h6.96429Zm-16.6072,-2.14286h5.47434v-1.77455h-1.55692v-2.79576h2.29353c0.719867,0 1.37277,-0.033482 1.97545,-0.251116c1.5067,-0.518974 2.4442,-2.0759 2.4442,-3.90067c0,-1.82478 -0.904019,-3.23103 -2.29353,-3.81697c-0.636162,-0.251117 -1.40625,-0.318081 -2.17634,-0.318081h-6.16072v1.7913h1.54018v9.29131h-1.54018Zm3.91742,-6.46206v-4.48661h2.00893c0.585939,0 1.03795,0.100447 1.38951,0.30134c0.602679,0.351563 0.937501,1.03795 0.937501,1.92523c0,0.937501 -0.334822,1.65737 -1.03795,2.00893c-0.351563,0.167411 -0.786831,0.251116 -1.3058,0.251116Z" transform="translate(0, -55.7144)"></path>
    </g>
</svg>