<?xml version="1.0" encoding="UTF-8" standalone="no"?>
<svg width="26" height="30" version="1.1" viewBox="0 -55.7144 25.7143 30" xmlns="http://www.w3.org/2000/svg" xmlns:xlink="http://www.w3.org/1999/xlink">
    <!--Generated by IJSVG (https://github.com/curthard89/IJSVG)-->
    <g fill="#000000">
        <path d="M24.5759,6.36162l-5.22322,-5.22322c-0.619421,-0.61942 -1.85826,-1.13839 -2.74554,-1.13839h-15c-0.887278,0 -1.60714,0.719867 -1.60714,1.60714v26.7857c0,0.887278 0.719867,1.60714 1.60715,1.60714h22.5c0.887277,0 1.60714,-0.719867 1.60714,-1.60714v-19.2857c0,-0.887278 -0.518973,-2.12612 -1.13839,-2.74554Zm-7.43304,-4.08483c0.284598,0.100447 0.569197,0.251117 0.686384,0.368304l5.23996,5.23996c0.117188,0.117188 0.267857,0.401786 0.368304,0.686385h-6.29465Zm6.42858,25.5804h-21.4286v-25.7143h12.8572v6.96429c0,0.887277 0.719867,1.60714 1.60714,1.60714h6.96429Zm-19.6708,-13.2087h1.17188l2.74554,11.0659h2.66183l2.14286,-8.11943c0.083705,-0.251116 0.133929,-0.502233 0.167411,-0.77009c0.016741,-0.133929 0.033482,-0.267858 0.033482,-0.401786h0.066964l0.050224,0.401786c0.050223,0.234375 0.066964,0.502232 0.150669,0.77009l2.14286,8.11943h2.66183l2.74554,-11.0659h1.17188v-1.7913h-5.02233v1.7913h1.5067l-1.65737,7.3326c-0.066965,0.267857 -0.100447,0.552456 -0.117188,0.77009l-0.033482,0.351563h-0.066964c0,-0.100447 -0.033483,-0.234375 -0.050224,-0.351563c-0.050223,-0.217634 -0.083705,-0.502233 -0.150669,-0.77009l-2.41072,-9.12389h-1.90848l-2.41072,9.12389c-0.066965,0.267857 -0.083706,0.552456 -0.133929,0.77009l-0.066964,0.351563h-0.066965l-0.033482,-0.351563c-0.016741,-0.217634 -0.050223,-0.502233 -0.117187,-0.77009l-1.65737,-7.3326h1.5067v-1.7913h-5.02233Z" transform="translate(0, -55.7144)"></path>
    </g>
</svg>