<?xml version="1.0" encoding="UTF-8" standalone="no"?>
<svg width="26" height="30" version="1.1" viewBox="0 -55.7144 25.7143 30" xmlns="http://www.w3.org/2000/svg" xmlns:xlink="http://www.w3.org/1999/xlink">
    <!--Generated by IJSVG (https://github.com/curthard89/IJSVG)-->
    <g fill="#000000">
        <path d="M10.7143,4.28572h-2.14286v2.14286h2.14286Zm2.14286,2.14286h-2.14286v2.14286h2.14286Zm-2.14286,2.14286h-2.14286v2.14286h2.14286Zm2.14286,2.14286h-2.14286v2.14286h2.14286Zm11.7188,-4.35268l-5.22322,-5.22322c-0.619421,-0.61942 -1.85826,-1.13839 -2.74554,-1.13839h-15c-0.887278,0 -1.60714,0.719867 -1.60714,1.60714v26.7857c0,0.887278 0.719867,1.60714 1.60715,1.60714h22.5c0.887277,0 1.60714,-0.719867 1.60714,-1.60714v-19.2857c0,-0.887278 -0.518973,-2.12612 -1.13839,-2.74554Zm-7.43304,-4.08483c0.284598,0.100447 0.569197,0.251117 0.686384,0.368304l5.23996,5.23996c0.117188,0.117188 0.267857,0.401786 0.368304,0.686385h-6.29465Zm6.42858,25.5804h-21.4286v-25.7143h8.57144v2.14286h2.14286v-2.14286h2.14286v6.96429c0,0.887277 0.719867,1.60714 1.60714,1.60714h6.96429Zm-10.4967,-12.0703c-0.133928,-0.468751 -0.552456,-0.786831 -1.03795,-0.786831h-1.32255v-2.14286h-2.14286v2.14286c-1.65737,5.59152 -2.00893,6.62947 -2.00893,6.62947c-0.083706,0.284598 -0.133929,0.569197 -0.133929,0.870537c0,1.85826 1.80804,3.21429 4.28572,3.21429c2.47768,0 4.28572,-1.35603 4.28572,-3.21429c0,-0.30134 -0.050223,-0.585939 -0.133929,-0.870537c0,0 -0.368304,-1.03795 -1.7913,-5.84264Zm-2.36049,7.78461c-1.18862,0 -2.14286,-0.485492 -2.14286,-1.07143c0,-0.585939 0.954242,-1.07143 2.14286,-1.07143c1.18862,0 2.14286,0.485491 2.14286,1.07143c0,0.585938 -0.954242,1.07143 -2.14286,1.07143Z" transform="translate(0, -55.7144)"></path>
    </g>
</svg>