<?xml version="1.0" encoding="UTF-8" standalone="no"?>
<svg width="26" height="30" version="1.1" viewBox="0 -55.7144 25.7143 30" xmlns="http://www.w3.org/2000/svg" xmlns:xlink="http://www.w3.org/1999/xlink">
    <!--Generated by IJSVG (https://github.com/curthard89/IJSVG)-->
    <g fill="#000000">
        <path d="M24.5759,6.36162l-5.22322,-5.22322c-0.619421,-0.61942 -1.85826,-1.13839 -2.74554,-1.13839h-15c-0.887278,0 -1.60714,0.719867 -1.60714,1.60714v26.7857c0,0.887278 0.719867,1.60714 1.60715,1.60714h22.5c0.887277,0 1.60714,-0.719867 1.60714,-1.60714v-19.2857c0,-0.887278 -0.518973,-2.12612 -1.13839,-2.74554Zm-7.43304,-4.08483c0.284598,0.100447 0.569197,0.251117 0.686384,0.368304l5.23996,5.23996c0.117188,0.117188 0.267857,0.401786 0.368304,0.686385h-6.29465Zm6.42858,25.5804h-21.4286v-25.7143h12.8572v6.96429c0,0.887277 0.719867,1.60714 1.60714,1.60714h6.96429Zm-10.7143,-15h-6.42858c-1.17188,0 -2.14286,0.970983 -2.14286,2.14286v6.42858c0,1.17188 0.970984,2.14286 2.14286,2.14286h6.42858c1.17188,0 2.14286,-0.970984 2.14286,-2.14286v-6.42858c0,-1.17188 -0.970983,-2.14286 -2.14286,-2.14286Zm8.23662,0.033482c-0.066964,-0.016741 -0.133929,-0.033482 -0.200893,-0.033482c-0.133929,0 -0.284599,0.050223 -0.385045,0.15067l-4.43639,4.45313v1.5067l4.43639,4.45313c0.100446,0.100446 0.251116,0.15067 0.385045,0.15067c0.066964,0 0.133929,-0.016742 0.200893,-0.033483c0.200893,-0.083705 0.334822,-0.284598 0.334822,-0.502232v-9.64287c0,-0.217634 -0.133929,-0.418527 -0.334822,-0.502233Z" transform="translate(0, -55.7144)"></path>
    </g>
</svg>