<?xml version="1.0" encoding="UTF-8" standalone="no"?>
<svg width="17" height="10" version="1.1" viewBox="1.28906 -23.99 16.7076 9.74332" xmlns="http://www.w3.org/2000/svg" xmlns:xlink="http://www.w3.org/1999/xlink">
    <!--Generated by IJSVG (https://github.com/curthard89/IJSVG)-->
    <g fill="#000000">
        <path d="M16.7076,8.3538c0,-0.133929 -0.066964,-0.284599 -0.167411,-0.385045l-7.80135,-7.80135c-0.100447,-0.100447 -0.251117,-0.167411 -0.385045,-0.167411c-0.133929,0 -0.284599,0.066964 -0.385045,0.167411l-7.80135,7.80135c-0.100447,0.100446 -0.167411,0.251116 -0.167411,0.385045c0,0.133928 0.066964,0.284598 0.167411,0.385045l0.837055,0.837054c0.100446,0.100447 0.251116,0.167411 0.385045,0.167411c0.133928,0 0.284598,-0.066964 0.385045,-0.167411l6.57925,-6.57925l6.57925,6.57925c0.100446,0.100447 0.251116,0.167411 0.385045,0.167411c0.150669,0 0.284598,-0.066964 0.385045,-0.167411l0.837054,-0.837054c0.100447,-0.100447 0.167411,-0.251117 0.167411,-0.385045Z" transform="translate(1.28906, -23.99)"></path>
    </g>
</svg>