<?xml version="1.0" encoding="UTF-8"?>
<svg width="10" height="17" version="1.1" viewBox="0.217634 -34.7043 9.74332 16.7076" xmlns="http://www.w3.org/2000/svg" xmlns:xlink="http://www.w3.org/1999/xlink">
    <!--Generated by IJSVG (https://github.com/curthard89/IJSVG)-->
    <g fill="#000000">
        <path d="M9.74331,8.3538c0,-0.133929 -0.066964,-0.284598 -0.167411,-0.385045l-7.80135,-7.80135c-0.100447,-0.100446 -0.251116,-0.16741 -0.385045,-0.16741c-0.133929,0 -0.284599,0.066964 -0.385045,0.16741l-0.837055,0.837055c-0.100446,0.100447 -0.167411,0.251116 -0.167411,0.385045c0,0.133929 0.066965,0.284599 0.167411,0.385045l6.57925,6.57925l-6.57925,6.57925c-0.100446,0.100447 -0.167411,0.251116 -0.167411,0.385045c0,0.15067 0.066965,0.284599 0.167411,0.385045l0.837055,0.837055c0.100446,0.100446 0.251116,0.167411 0.385045,0.167411c0.133929,0 0.284598,-0.066965 0.385045,-0.167411l7.80135,-7.80135c0.100447,-0.100446 0.167411,-0.251116 0.167411,-0.385045Z" transform="translate(0.217634, -34.7043)"></path>
    </g>
</svg>