<svg width="26" height="26" viewBox="0 -49.2858 25.7143 25.7143" xmlns="http://www.w3.org/2000/svg"><path d="M21.496-36.412c0 .285-.1.553-.302.753l-6.06 6.06-1.523 1.524c-.201.201-.47.301-.754.301-.284 0-.552-.1-.753-.3l-1.524-1.524-6.06-6.06a1.05 1.05 0 0 1-.301-.754c0-.284.1-.552.301-.753l1.524-1.524c.2-.2.468-.318.753-.318s.552.117.753.318l3.164 3.164v-8.404c0-.586.486-1.071 1.072-1.071h2.143c.586 0 1.071.485 1.071 1.071v8.404l3.164-3.164c.201-.2.469-.301.753-.301.285 0 .553.1.754.301l1.523 1.524c.201.2.302.469.302.753zm4.218-.017c0-7.098-5.759-12.857-12.857-12.857C5.76-49.286 0-43.526 0-36.429 0-29.33 5.759-23.57 12.857-23.57c7.098 0 12.857-5.76 12.857-12.858z"/></svg>