<svg width="26" height="25" viewBox="0.887278 -47.1429 26.0826 24.6429" xmlns="http://www.w3.org/2000/svg"><path d="M26.97-34.102c0-.569-.234-1.121-.62-1.523L15.452-46.524a2.153 2.153 0 0 0-1.523-.619c-.57 0-1.122.218-1.507.62L1.523-35.626a2.169 2.169 0 0 0-.636 1.523c0 .57.235 1.105.636 1.507l1.256 1.256a2.101 2.101 0 0 0 3.013 0l4.922-4.905v11.785c0 1.206 1.005 1.959 2.143 1.959H15c1.138 0 2.143-.753 2.143-1.959v-11.785l4.922 4.905c.385.401.937.636 1.506.636.57 0 1.122-.235 1.524-.636l1.255-1.256c.385-.402.62-.937.62-1.507z"/></svg>