<?xml version="1.0" encoding="UTF-8"?>
<svg width="26" height="26" version="1.1" viewBox="0 -49.2858 25.7143 25.7143" xmlns="http://www.w3.org/2000/svg" xmlns:xlink="http://www.w3.org/1999/xlink">
    <!--Generated by IJSVG (https://github.com/curthard89/IJSVG)-->
    <g fill="#000000">
        <path d="M21.5123,12.8572c0,0.284599 -0.100446,0.552456 -0.301339,0.753349l-1.52344,1.52344l-6.06027,6.06028c-0.200893,0.200893 -0.46875,0.301339 -0.753349,0.301339c-0.284598,0 -0.552456,-0.100446 -0.753349,-0.301339l-1.52344,-1.52344c-0.200893,-0.200893 -0.318081,-0.46875 -0.318081,-0.753349c0,-0.284598 0.117188,-0.552456 0.318081,-0.753349l3.16407,-3.16407h-8.40403c-0.585938,0 -1.07143,-0.485492 -1.07143,-1.07143v-2.14286c0,-0.585938 0.485492,-1.07143 1.07143,-1.07143h8.40403l-3.16407,-3.16407c-0.200893,-0.200893 -0.30134,-0.46875 -0.30134,-0.753349c0,-0.284598 0.100447,-0.552456 0.30134,-0.753349l1.52344,-1.52344c0.200893,-0.200893 0.468751,-0.30134 0.753349,-0.30134c0.284599,0 0.552456,0.100447 0.753349,0.30134l6.06027,6.06028l1.52344,1.52344c0.200893,0.200893 0.301339,0.468751 0.301339,0.753349Zm4.20201,0c0,-7.09822 -5.75894,-12.8572 -12.8572,-12.8572c-7.09822,0 -12.8572,5.75894 -12.8572,12.8572c0,7.09822 5.75894,12.8572 12.8572,12.8572c7.09822,0 12.8572,-5.75894 12.8572,-12.8572Z" transform="translate(0, -49.2858)"></path>
    </g>
</svg>