<?xml version="1.0" encoding="UTF-8" standalone="no"?>
<svg width="26" height="25" version="1.1" viewBox="0.887278 -48.3985 26.0826 24.827" xmlns="http://www.w3.org/2000/svg" xmlns:xlink="http://www.w3.org/1999/xlink">
    <!--Generated by IJSVG (https://github.com/curthard89/IJSVG)-->
    <g fill="#000000">
        <path d="M26.0826,11.7857c0,-0.569197 -0.234375,-1.12165 -0.61942,-1.52344l-1.25558,-1.25558c-0.401786,-0.385045 -0.954242,-0.61942 -1.52344,-0.61942c-0.569197,0 -1.12165,0.234375 -1.5067,0.61942l-4.92188,4.92188v-11.7857c0,-1.17188 -0.970984,-2.14286 -2.14286,-2.14286h-2.14286c-1.17188,0 -2.14286,0.970983 -2.14286,2.14286v11.7857l-4.92188,-4.92188c-0.385045,-0.385045 -0.937501,-0.61942 -1.5067,-0.61942c-0.569197,0 -1.12165,0.234375 -1.52344,0.61942l-1.23884,1.25558c-0.401786,0.401786 -0.636161,0.954242 -0.636161,1.52344c0,0.569197 0.234375,1.12165 0.636161,1.5067l10.8985,10.9152c0.385045,0.385045 0.937501,0.61942 1.5067,0.61942c0.569197,0 1.12165,-0.234375 1.52344,-0.61942l10.8985,-10.9152c0.385045,-0.385045 0.61942,-0.937501 0.61942,-1.5067Z" transform="translate(0.887278, -48.3985)"></path>
    </g>
</svg>