<svg width="26" height="25" viewBox="0.887278 -48.3985 26.0826 24.827" xmlns="http://www.w3.org/2000/svg"><path d="M26.97-36.613c0-.569-.234-1.121-.62-1.523l-1.255-1.256a2.226 2.226 0 0 0-1.524-.62c-.569 0-1.121.235-1.506.62l-4.922 4.922v-11.786A2.158 2.158 0 0 0 15-48.398h-2.143a2.158 2.158 0 0 0-2.143 2.142v11.786l-4.922-4.922a2.156 2.156 0 0 0-1.506-.62c-.57 0-1.122.235-1.524.62l-1.239 1.256a2.169 2.169 0 0 0-.636 1.523c0 .57.235 1.122.636 1.507l10.899 10.915c.385.385.937.62 1.507.62.569 0 1.121-.235 1.523-.62l10.899-10.915c.385-.385.619-.938.619-1.507z"/></svg>