<?xml version="1.0" encoding="UTF-8" standalone="no"?>
<svg width="26" height="25" version="1.1" viewBox="0.887278 -47.1429 26.0826 24.6429" xmlns="http://www.w3.org/2000/svg" xmlns:xlink="http://www.w3.org/1999/xlink">
    <!--Generated by IJSVG (https://github.com/curthard89/IJSVG)-->
    <g fill="#000000">
        <path d="M26.0826,13.0413c0,-0.569197 -0.234375,-1.12165 -0.61942,-1.52344l-10.8985,-10.8985c-0.401786,-0.401786 -0.954242,-0.61942 -1.52344,-0.61942c-0.569197,0 -1.12165,0.217634 -1.5067,0.61942l-10.8985,10.8985c-0.401786,0.401786 -0.636161,0.954242 -0.636161,1.52344c0,0.569197 0.234375,1.10491 0.636161,1.5067l1.25558,1.25558c0.385045,0.401786 0.937501,0.636161 1.5067,0.636161c0.569198,0 1.12165,-0.234375 1.5067,-0.636161l4.92188,-4.90514v11.7857c0,1.20536 1.00447,1.95871 2.14286,1.95871h2.14286c1.13839,0 2.14286,-0.753349 2.14286,-1.95871v-11.7857l4.92188,4.90514c0.385046,0.401786 0.937502,0.636161 1.5067,0.636161c0.569197,0 1.12165,-0.234375 1.52344,-0.636161l1.25558,-1.25558c0.385045,-0.401786 0.61942,-0.937501 0.61942,-1.5067Z" transform="translate(0.887278, -47.1429)"></path>
    </g>
</svg>