<svg width="26" height="26" viewBox="0 -49.2858 25.7143 25.7143" xmlns="http://www.w3.org/2000/svg"><path d="M21.496-36.445c0 .284-.1.552-.302.753l-1.523 1.523c-.201.201-.469.318-.754.318-.284 0-.552-.117-.753-.318L15-37.333v8.404c0 .586-.485 1.072-1.071 1.072h-2.143a1.079 1.079 0 0 1-1.072-1.072v-8.404L7.55-34.169c-.2.201-.468.302-.753.302s-.553-.1-.753-.302L4.52-35.692a1.05 1.05 0 0 1-.301-.753c0-.285.1-.553.301-.754l6.06-6.06 1.524-1.523c.2-.201.469-.302.753-.302.285 0 .553.1.754.302l1.523 1.523 6.06 6.06c.201.201.302.469.302.754zm4.218.016c0-7.098-5.759-12.857-12.857-12.857C5.76-49.286 0-43.526 0-36.429 0-29.33 5.759-23.57 12.857-23.57c7.098 0 12.857-5.76 12.857-12.858z"/></svg>