<svg width="23.571457" height="23.571457" viewBox="0.000000 -47.142913 23.571457 23.571457" xmlns="http://www.w3.org/2000/svg"><path d="M23.571457 -36.964330C23.571457 -37.851608 22.851590 -38.571475 21.964312 -38.571475L15.000018 -38.571475L15.000018 -45.535769C15.000018 -46.423046 14.280151 -47.142913 13.392873 -47.142913L10.178584 -47.142913C9.291306 -47.142913 8.571439 -46.423046 8.571439 -45.535769L8.571439 -38.571475L1.607145 -38.571475C0.719867 -38.571475 0.000000 -37.851608 0.000000 -36.964330L0.000000 -33.750040C0.000000 -32.862762 0.719867 -32.142895 1.607145 -32.142895L8.571439 -32.142895L8.571439 -25.178601C8.571439 -24.291324 9.291306 -23.571457 10.178584 -23.571457L13.392873 -23.571457C14.280151 -23.571457 15.000018 -24.291324 15.000018 -25.178601L15.000018 -32.142895L21.964312 -32.142895C22.851590 -32.142895 23.571457 -32.862762 23.571457 -33.750040ZM23.571457 -36.964330"></path></svg>