<svg width="25.714316" height="25.714316" viewBox="0.000000 -49.285773 25.714316 25.714316" xmlns="http://www.w3.org/2000/svg"><path d="M21.428597 -35.357185C21.428597 -34.771247 20.943105 -34.285755 20.357167 -34.285755L15.000018 -34.285755L15.000018 -28.928606C15.000018 -28.342668 14.514526 -27.857176 13.928588 -27.857176L11.785728 -27.857176C11.199790 -27.857176 10.714298 -28.342668 10.714298 -28.928606L10.714298 -34.285755L5.357149 -34.285755C4.771211 -34.285755 4.285719 -34.771247 4.285719 -35.357185L4.285719 -37.500045C4.285719 -38.085983 4.771211 -38.571475 5.357149 -38.571475L10.714298 -38.571475L10.714298 -43.928624C10.714298 -44.514562 11.199790 -45.000054 11.785728 -45.000054L13.928588 -45.000054C14.514526 -45.000054 15.000018 -44.514562 15.000018 -43.928624L15.000018 -38.571475L20.357167 -38.571475C20.943105 -38.571475 21.428597 -38.085983 21.428597 -37.500045ZM25.714316 -44.464339C25.714316 -47.126172 23.554716 -49.285773 20.892882 -49.285773L4.821434 -49.285773C2.159601 -49.285773 0.000000 -47.126172 0.000000 -44.464339L0.000000 -28.392891C0.000000 -25.731057 2.159601 -23.571457 4.821434 -23.571457L20.892882 -23.571457C23.554716 -23.571457 25.714316 -25.731057 25.714316 -28.392891ZM25.714316 -44.464339"></path></svg>