<?xml version="1.0" standalone="no"?>
<!DOCTYPE svg PUBLIC "-//W3C//DTD SVG 20010904//EN"
 "http://www.w3.org/TR/2001/REC-SVG-20010904/DTD/svg10.dtd">
<svg version="1.0" xmlns="http://www.w3.org/2000/svg"
 width="1392.000000pt" height="1392.000000pt" viewBox="0 0 1392.000000 1392.000000"
 preserveAspectRatio="xMidYMid meet">
<metadata>
Created by potrace 1.11, written by Peter Selinger 2001-2013
</metadata>
<g transform="translate(0.000000,1392.000000) scale(0.100000,-0.100000)"
fill="#000000" stroke="none">
<path d="M6284 13905 c25 -102 27 -789 2 -920 -2 -11 -7 -46 -11 -79 -27 -223
-99 -493 -186 -696 -62 -143 -192 -367 -269 -464 -120 -150 -310 -345 -416
-426 -11 -8 -40 -31 -64 -51 -151 -119 -403 -282 -635 -409 -27 -15 -72 -40
-100 -55 -66 -36 -202 -107 -460 -240 -412 -211 -492 -253 -734 -388 -30 -16
-94 -54 -143 -83 -49 -30 -91 -54 -94 -54 -3 0 -10 -4 -17 -10 -7 -5 -93 -63
-192 -129 -150 -98 -305 -212 -434 -316 -134 -109 -383 -347 -511 -490 -90
-100 -219 -264 -312 -395 -55 -79 -188 -288 -188 -297 0 -4 -6 -14 -14 -22
-25 -29 -146 -263 -215 -416 -45 -98 -46 -101 -81 -185 -17 -41 -35 -84 -40
-95 -27 -62 -141 -395 -135 -395 2 0 -2 -15 -10 -34 -8 -18 -16 -44 -19 -58
-2 -13 -13 -55 -24 -93 -30 -107 -81 -333 -97 -435 -3 -19 -10 -60 -15 -90 -5
-30 -12 -75 -15 -100 -3 -25 -8 -56 -10 -70 -2 -14 -7 -52 -10 -85 -4 -33 -8
-72 -10 -88 -21 -170 -28 -791 -12 -962 18 -189 26 -263 32 -295 2 -14 7 -50
10 -80 3 -30 8 -62 10 -70 3 -8 7 -31 9 -51 7 -54 43 -239 72 -363 70 -309
201 -710 318 -971 12 -27 29 -66 36 -85 7 -19 61 -129 120 -245 220 -435 475
-817 795 -1191 122 -143 449 -475 565 -574 41 -35 80 -69 85 -75 6 -6 62 -53
125 -104 148 -119 139 -112 180 -141 19 -13 40 -28 45 -32 77 -62 318 -227
380 -262 17 -9 48 -28 70 -43 46 -31 54 -43 -90 149 -189 250 -313 465 -463
798 -23 53 -122 326 -128 354 -2 11 -10 40 -18 65 -17 50 -59 222 -72 286 -4
22 -8 45 -10 50 -1 6 -5 30 -8 55 -4 25 -9 52 -11 60 -2 8 -7 40 -10 70 -3 30
-8 66 -10 80 -21 124 -33 518 -21 660 2 25 7 82 11 127 3 46 8 91 9 100 2 10
7 43 10 73 7 60 12 90 26 165 5 28 12 61 14 75 28 160 137 521 201 665 7 17
25 59 40 95 99 236 290 559 468 790 135 176 340 394 497 530 35 30 68 60 74
65 25 24 227 176 301 226 74 51 191 124 275 172 163 94 459 224 666 293 101
33 338 98 399 109 69 12 93 16 145 26 77 14 130 22 163 23 32 1 33 5 7 39 -61
78 -201 337 -266 494 -93 224 -178 536 -199 733 -2 14 -7 52 -11 85 -19 138
-9 568 16 715 5 30 11 71 14 90 19 125 120 490 145 525 4 6 16 33 26 60 45
126 179 376 284 530 305 450 761 827 1246 1030 61 26 119 50 130 55 118 52
448 136 615 156 25 3 56 7 70 9 109 17 480 24 556 11 74 -13 154 -16 154 -6 0
5 -3 10 -7 10 -5 0 -24 15 -43 33 -19 17 -96 84 -170 148 -75 64 -142 122
-150 130 -9 8 -47 41 -85 74 -39 33 -90 78 -115 101 -25 23 -81 72 -125 110
-44 38 -89 78 -101 89 -11 11 -40 37 -65 58 -24 21 -66 60 -94 85 -27 26 -97
90 -155 142 -57 52 -114 104 -126 115 -244 229 -345 327 -538 521 -282 281
-326 328 -593 624 -51 57 -125 142 -173 200 -81 97 -92 108 -86 85z"/>
<path d="M8487 10184 c-1 -1 -38 -4 -82 -8 -129 -10 -165 -15 -253 -36 -111
-26 -221 -64 -310 -106 -41 -19 -75 -34 -78 -34 -14 0 -200 -121 -267 -173
-89 -70 -213 -190 -256 -247 -14 -19 -36 -46 -48 -60 -13 -14 -23 -28 -23 -32
0 -3 -6 -13 -13 -20 -19 -20 -88 -134 -129 -213 -80 -156 -143 -366 -166 -550
-9 -79 -9 -345 1 -415 23 -170 57 -294 119 -439 179 -422 510 -747 933 -914
90 -36 256 -83 324 -92 20 -3 47 -7 61 -11 73 -18 419 -11 520 11 14 3 50 10
82 15 147 27 402 135 548 232 259 173 455 394 588 664 71 143 127 309 146 435
3 20 7 42 10 50 17 51 24 339 11 436 -10 74 -16 116 -21 143 -3 14 -8 39 -10
55 -12 62 -86 273 -125 354 -169 348 -452 629 -804 796 -130 61 -344 126 -470
140 -113 14 -148 17 -213 18 -41 1 -74 1 -75 1z"/>
<path d="M11364 9095 c64 -345 75 -599 41 -940 -3 -29 -11 -83 -21 -135 -2
-14 -7 -41 -10 -60 -3 -19 -23 -102 -44 -185 -166 -646 -568 -1234 -1105
-1617 -94 -67 -155 -108 -159 -108 -2 0 -40 -22 -83 -48 -94 -58 -254 -136
-378 -184 -49 -20 -99 -39 -110 -43 -26 -11 -21 -9 -92 -30 -66 -19 -75 -30
-45 -56 9 -8 43 -45 75 -81 361 -409 660 -948 796 -1438 12 -41 26 -91 31
-110 14 -50 47 -198 54 -244 4 -21 8 -41 10 -45 2 -3 7 -30 11 -60 4 -30 8
-61 10 -70 1 -9 6 -45 10 -81 4 -36 9 -76 11 -90 28 -231 18 -636 -21 -900
-19 -121 -29 -180 -51 -275 -14 -60 -27 -117 -29 -125 -55 -255 -218 -655
-382 -943 -190 -334 -508 -721 -793 -967 -41 -36 -77 -68 -80 -71 -8 -10 -214
-165 -236 -177 -10 -6 -15 -12 -11 -12 25 -1 461 157 582 210 22 10 74 32 115
50 124 54 357 169 499 248 127 70 374 216 396 234 6 5 55 38 110 75 195 129
521 382 699 542 467 422 836 862 1163 1386 115 184 353 641 353 677 0 8 4 18
9 23 20 24 191 469 218 570 3 11 23 79 43 150 51 176 99 390 114 505 2 14 6
34 9 45 3 11 8 43 12 70 3 28 8 61 10 75 28 189 41 675 22 875 -24 245 -63
474 -121 705 -25 97 -110 364 -135 425 -5 11 -32 78 -61 150 -134 332 -355
731 -609 1097 -52 75 -272 371 -281 378 -3 3 -31 37 -62 76 -102 128 -298 353
-447 514 -42 45 -42 45 -37 15z"/>
<path d="M6557 5304 c-1 -1 -56 -4 -121 -8 -66 -4 -122 -8 -125 -10 -3 -2 -26
-7 -51 -10 -112 -15 -259 -52 -386 -97 -399 -140 -764 -404 -1017 -734 -156
-205 -283 -448 -354 -680 -26 -88 -61 -229 -69 -284 -3 -20 -7 -43 -9 -51 -27
-104 -25 -511 4 -670 6 -30 13 -70 16 -88 24 -143 109 -395 182 -537 65 -127
159 -282 190 -313 7 -7 13 -17 13 -20 0 -4 10 -18 23 -32 12 -14 34 -41 49
-61 47 -64 231 -246 315 -312 208 -166 425 -287 662 -369 47 -17 93 -31 101
-33 8 -2 49 -12 90 -23 41 -11 98 -24 125 -28 28 -5 52 -9 55 -9 5 -1 79 -11
155 -21 46 -6 358 -6 386 0 13 3 52 8 87 11 35 3 107 15 160 26 53 11 107 22
120 25 131 26 444 161 596 257 282 177 522 414 702 692 71 110 182 340 219
455 16 47 32 94 36 105 22 59 63 271 76 400 10 89 9 347 0 445 -40 412 -212
828 -479 1160 -150 185 -395 395 -601 514 -241 138 -527 240 -762 272 -27 3
-52 8 -55 9 -9 6 -327 23 -333 19z"/>
</g>
</svg>
