<?xml version="1.0" standalone="no"?>
<!DOCTYPE svg PUBLIC "-//W3C//DTD SVG 20010904//EN"
 "http://www.w3.org/TR/2001/REC-SVG-20010904/DTD/svg10.dtd">
<svg version="1.0" xmlns="http://www.w3.org/2000/svg"
 width="240.000000pt" height="240.000000pt" viewBox="0 0 240.000000 240.000000"
 preserveAspectRatio="xMidYMid meet">
<metadata>
Created by potrace 1.11, written by Peter Selinger 2001-2013
</metadata>
<g transform="translate(0.000000,240.000000) scale(0.100000,-0.100000)"
fill="#000000" stroke="none">
<path d="M397 2113 c-4 -3 -7 -55 -7 -114 l0 -107 -89 -4 c-80 -3 -94 -6 -133
-33 -23 -17 -54 -51 -68 -75 l-25 -45 -1 -529 c0 -448 -3 -531 -15 -534 -8 -3
-24 -14 -36 -25 -20 -18 -23 -30 -23 -98 0 -107 14 -123 106 -125 38 -1 74 -2
79 -3 7 -1 11 -26 10 -61 -1 -39 4 -65 12 -72 15 -12 203 -15 222 -4 6 4 11
35 11 74 l0 67 688 0 c378 -1 692 -4 698 -8 7 -4 10 -28 8 -59 -5 -78 4 -83
127 -81 72 1 104 5 110 15 4 7 8 36 8 65 -1 28 1 56 4 60 3 5 43 8 88 7 74 -2
84 0 106 22 20 20 23 32 22 99 -1 80 -22 125 -57 125 -15 0 -17 19 -15 208 1
114 2 287 2 385 l1 178 70 -2 c41 -1 76 3 82 9 13 13 19 94 8 112 -5 8 -34 13
-84 13 l-76 0 -1 31 c-1 95 -9 139 -30 178 -30 52 -93 98 -147 105 l-41 6 -3
111 -3 111 -801 3 c-440 1 -804 -1 -807 -5z"/>
</g>
</svg>
