<svg width="27" height="26" viewBox="0 -49.2858 26.7857 25.7143" xmlns="http://www.w3.org/2000/svg"><path d="M4.286-28.929c0 .603-.486 1.072-1.072 1.072a1.058 1.058 0 0 1-1.071-1.072c0-.586.469-1.071 1.071-1.071.586 0 1.072.485 1.072 1.071zM6.964-37.5c0-.586-.485-1.071-1.071-1.071H1.07C.485-38.571 0-38.086 0-37.5v10.714c0 .586.485 1.072 1.071 1.072h4.822c.586 0 1.071-.486 1.071-1.072zm19.822 0c0-1.741-1.473-3.214-3.215-3.214h-4.637c.134-.536.302-.703.486-1.072.452-.87.937-1.841.937-3.214 0-1.29 0-4.286-3.75-4.286-.284 0-.552.117-.753.318-.72.703-.92 1.741-1.105 2.73-.2.97-.385 1.975-1.038 2.627-.519.52-1.088 1.24-1.69 2.01-.737.97-2.345 2.963-2.964 3.013-.552.05-1.021.519-1.021 1.071v10.731c0 .586.502 1.055 1.071 1.072.586.016 1.59.368 2.645.736 1.808.62 4.068 1.407 6.462 1.407h2.16c1.473-.017 2.578-.453 3.298-1.306.636-.754.92-1.775.82-3.03.419-.402.737-.955.904-1.574a3.54 3.54 0 0 0 0-1.959c.503-.67.754-1.456.72-2.293 0-.235-.067-.737-.251-1.273.57-.653.92-1.607.92-2.494z"/></svg>