<svg width="26" height="26" viewBox="0 -49.2858 25.7143 25.7143" xmlns="http://www.w3.org/2000/svg"><path d="M18.365-33.365a.536.536 0 0 0 0-.77l-2.294-2.294 2.294-2.293a.536.536 0 0 0 0-.77l-2.444-2.444a.536.536 0 0 0-.77 0l-2.294 2.293-2.293-2.293a.536.536 0 0 0-.77 0l-2.445 2.444a.536.536 0 0 0 0 .77l2.294 2.293-2.294 2.294a.536.536 0 0 0 0 .77l2.445 2.444a.536.536 0 0 0 .77 0l2.293-2.293 2.294 2.293a.536.536 0 0 0 .77 0zm3.6-3.064c0 5.023-4.086 9.108-9.108 9.108S3.75-31.406 3.75-36.43c0-5.022 4.085-9.107 9.107-9.107 5.023 0 9.107 4.085 9.107 9.107zm3.75 0c0-7.098-5.76-12.857-12.858-12.857C5.76-49.286 0-43.526 0-36.429 0-29.33 5.759-23.57 12.857-23.57c7.098 0 12.857-5.76 12.857-12.858z"/></svg>