<?xml version="1.0" encoding="UTF-8" standalone="no"?>
<svg width="26" height="20" version="1.1" viewBox="2.02567 -40.0112 25.9487 19.8884" xmlns="http://www.w3.org/2000/svg" xmlns:xlink="http://www.w3.org/1999/xlink">
    <!--Generated by IJSVG (https://github.com/curthard89/IJSVG)-->
    <g fill="#000000">
        <path d="M25.9487,3.88393c0,-0.418527 -0.167411,-0.837055 -0.468751,-1.13839l-2.27679,-2.27679c-0.30134,-0.301339 -0.719867,-0.46875 -1.13839,-0.46875c-0.418528,0 -0.837055,0.167411 -1.13839,0.46875l-10.9822,10.9989l-4.92188,-4.93862c-0.301339,-0.301339 -0.719866,-0.46875 -1.13839,-0.46875c-0.418527,0 -0.837054,0.167411 -1.13839,0.46875l-2.27679,2.27679c-0.30134,0.301339 -0.468751,0.719867 -0.468751,1.13839c0,0.418527 0.167411,0.837054 0.468751,1.13839l6.06028,6.06027l2.27679,2.27679c0.30134,0.301339 0.719867,0.46875 1.13839,0.46875c0.418528,0 0.837055,-0.167411 1.1384,-0.46875l2.27679,-2.27679l12.1205,-12.1205c0.30134,-0.30134 0.468751,-0.719867 0.468751,-1.13839Z" transform="translate(2.02567, -40.0112)"></path>
    </g>
</svg>