<?xml version="1.0" encoding="utf-8"?>
<!-- Generator: Adobe Illustrator 18.1.1, SVG Export Plug-In . SVG Version: 6.00 Build 0)  -->
<!DOCTYPE svg PUBLIC "-//W3C//DTD SVG 1.1//EN" "http://www.w3.org/Graphics/SVG/1.1/DTD/svg11.dtd">
<svg version="1.1" xmlns="http://www.w3.org/2000/svg" xmlns:xlink="http://www.w3.org/1999/xlink" x="0px" y="0px"
	 viewBox="0 0 36 36" enable-background="new 0 0 36 36" xml:space="preserve">
<g id="Guide">
</g>
<g id="Layer_1">
	<path d="M34,20v-4l-4.4-0.9c0-0.2-0.1-0.3-0.1-0.5l3.3-2.9l-2-3.5l-4.2,1.4c-0.1-0.1-0.2-0.2-0.3-0.3l1.4-4.2l-3.5-2l-2.9,3.3
		c-0.2,0-0.3-0.1-0.5-0.1L20,2h-4l-0.9,4.4c-0.2,0-0.3,0.1-0.5,0.1l-2.9-3.3l-3.5,2l1.4,4.2C9.6,9.5,9.5,9.6,9.4,9.7L5.1,8.3l-2,3.5
		l3.3,2.9c0,0.2-0.1,0.3-0.1,0.5L2,16v4l4.4,0.9c0,0.2,0.1,0.3,0.1,0.5l-3.3,2.9l2,3.5l4.2-1.4c0.1,0.1,0.2,0.2,0.3,0.3l-1.4,4.2
		l3.5,2l2.9-3.3c0.2,0,0.3,0.1,0.5,0.1L16,34h4l0.9-4.4c0.2,0,0.3-0.1,0.5-0.1l2.9,3.3l3.5-2l-1.4-4.2c0.1-0.1,0.2-0.2,0.3-0.3
		l4.2,1.4l2-3.5l-3.3-2.9c0-0.2,0.1-0.3,0.1-0.5L34,20z M24,18c0,3.3-2.7,6-6,6s-6-2.7-6-6s2.7-6,6-6S24,14.7,24,18z"/>
</g>
</svg>
