<?xml version="1.0" encoding="utf-8"?>
<!-- Generator: Adobe Illustrator 18.1.1, SVG Export Plug-In . SVG Version: 6.00 Build 0)  -->
<!DOCTYPE svg PUBLIC "-//W3C//DTD SVG 1.1//EN" "http://www.w3.org/Graphics/SVG/1.1/DTD/svg11.dtd">
<svg version="1.1" xmlns="http://www.w3.org/2000/svg" xmlns:xlink="http://www.w3.org/1999/xlink" x="0px" y="0px"
	 viewBox="0 0 36 36" enable-background="new 0 0 36 36" xml:space="preserve">
<g id="Guide">
</g>
<g id="Layer_1">
	<g>
		<path d="M12.2,14.1l1.8,1.3l1.4-1.4l-1.3-1.8c0.3-0.5,0.6-1.2,0.7-1.8L17,10V8l-2.2-0.4c-0.2-0.6-0.4-1.3-0.7-1.8l1.3-1.8
			l-1.4-1.4l-1.8,1.3c-0.5-0.3-1.2-0.6-1.8-0.7L10,1H8L7.6,3.2C7,3.3,6.4,3.6,5.8,3.9L4.1,2.6L2.6,4.1l1.3,1.8
			C3.6,6.4,3.3,7,3.2,7.6L1,8v2l2.2,0.4c0.2,0.6,0.4,1.3,0.7,1.8l-1.3,1.8l1.4,1.4l1.8-1.3c0.5,0.3,1.2,0.6,1.8,0.7L8,17h2l0.4-2.2
			C11,14.7,11.6,14.4,12.2,14.1z M6,9c0-1.7,1.3-3,3-3s3,1.3,3,3s-1.3,3-3,3S6,10.7,6,9z"/>
		<path d="M29.2,27.1l3.6,1l1.1-2.8l-3.1-1.7c0.1-0.7,0.2-1.5,0.1-2.2l3-1.7l-1.2-2.8l-3,0.8c-0.5-0.8-1.1-1.4-1.7-1.9l0.8-2.9
			L26,11.8l-1.4,2.4c-0.9-0.2-1.9-0.2-2.9-0.1l-1.4-2.4L17.6,13l0.7,2.6c-0.8,0.6-1.5,1.3-2,2.1L13.6,17l-1.1,2.8l2.6,1.5
			c-0.1,0.9,0,1.7,0.1,2.6l-2.7,1.6l1.2,2.8l3.3-0.9c0.5,0.6,1,1.1,1.7,1.5l-0.9,3.4l2.8,1.1l1.8-3.2c0.6,0.1,1.3,0,1.9-0.1l1.9,3.3
			l2.8-1.2l-1-3.6C28.3,28.1,28.8,27.6,29.2,27.1z M19,22c0-2.2,1.8-4,4-4s4,1.8,4,4c0,2.2-1.8,4-4,4S19,24.2,19,22z"/>
	</g>
</g>
</svg>
