<?xml version="1.0" encoding="UTF-8"?>
<svg width="24" height="6" version="1.1" viewBox="0 -21.4286 23.5715 6.42858" xmlns="http://www.w3.org/2000/svg" xmlns:xlink="http://www.w3.org/1999/xlink">
    <!--Generated by IJSVG (https://github.com/curthard89/IJSVG)-->
    <g fill="#000000">
        <path d="M6.42858,1.60714c0,-0.887278 -0.719867,-1.60714 -1.60715,-1.60714h-3.21429c-0.887278,0 -1.60715,0.719867 -1.60715,1.60714v3.21429c0,0.887278 0.719867,1.60714 1.60715,1.60714h3.21429c0.887278,0 1.60715,-0.719867 1.60715,-1.60714Zm8.57144,0c0,-0.887278 -0.719867,-1.60714 -1.60715,-1.60714h-3.21429c-0.887278,0 -1.60715,0.719867 -1.60715,1.60714v3.21429c0,0.887278 0.719867,1.60714 1.60715,1.60714h3.21429c0.887278,0 1.60715,-0.719867 1.60715,-1.60714Zm8.57144,0c0,-0.887278 -0.719867,-1.60714 -1.60714,-1.60714h-3.21429c-0.887277,0 -1.60714,0.719867 -1.60714,1.60714v3.21429c0,0.887278 0.719867,1.60714 1.60714,1.60714h3.21429c0.887278,0 1.60714,-0.719867 1.60714,-1.60714Z" transform="translate(0, -21.4286)"></path>
    </g>
</svg>