<svg width="24" height="6" viewBox="0 -21.4286 23.5715 6.42858" xmlns="http://www.w3.org/2000/svg"><path d="M6.429-19.821c0-.888-.72-1.608-1.608-1.608H1.607C.72-21.429 0-20.709 0-19.82v3.214C0-15.72.72-15 1.607-15h3.214c.888 0 1.608-.72 1.608-1.607zm8.571 0c0-.888-.72-1.608-1.607-1.608h-3.214c-.888 0-1.608.72-1.608 1.608v3.214c0 .887.72 1.607 1.608 1.607h3.214C14.28-15 15-15.72 15-16.607zm8.571 0c0-.888-.72-1.608-1.607-1.608H18.75c-.887 0-1.607.72-1.607 1.608v3.214c0 .887.72 1.607 1.607 1.607h3.214c.888 0 1.607-.72 1.607-1.607z"/></svg>