<?xml version="1.0" encoding="UTF-8" standalone="no"?>
<svg width="26" height="26" version="1.1" viewBox="0 -49.4532 25.7143 25.798" xmlns="http://www.w3.org/2000/svg" xmlns:xlink="http://www.w3.org/1999/xlink">
    <!--Generated by IJSVG (https://github.com/curthard89/IJSVG)-->
    <g fill="#000000">
        <path d="M21.9643,12.8906c0,5.05581 -4.08483,9.15738 -9.10715,9.15738c-1.82478,0 -3.53237,-0.552456 -4.9721,-1.48996l12.6228,-12.606c0.92076,1.42299 1.45648,3.11384 1.45648,4.93862Zm-16.7244,5.00559c-0.937502,-1.43973 -1.48996,-3.14732 -1.48996,-5.00559c0,-5.03907 4.08483,-9.14063 9.10715,-9.14063c1.85826,0 3.58259,0.552456 5.02233,1.52344Zm20.4744,-5.00559c0,-7.11496 -5.75894,-12.8906 -12.8572,-12.8906c-7.09822,0 -12.8572,5.77568 -12.8572,12.8906c0,7.13171 5.75894,12.9074 12.8572,12.9074c7.09822,0 12.8572,-5.77568 12.8572,-12.9074Z" transform="translate(0, -49.4532)"></path>
    </g>
</svg>