<?xml version="1.0" encoding="UTF-8"?>
<svg width="26" height="26" version="1.1" viewBox="0 -49.2858 25.7143 25.7143" xmlns="http://www.w3.org/2000/svg" xmlns:xlink="http://www.w3.org/1999/xlink">
    <!--Generated by IJSVG (https://github.com/curthard89/IJSVG)-->
    <g fill="#000000">
        <path d="M19.6038,11.4676c0.418527,-0.418528 0.418527,-1.08817 0,-1.5067l-1.70759,-1.70759c-0.418528,-0.418527 -1.08817,-0.418527 -1.5067,0l-4.6038,4.6038l-2.46094,-2.46094c-0.418527,-0.418528 -1.08817,-0.418528 -1.5067,0l-1.70759,1.70759c-0.418527,0.418527 -0.418527,1.08817 0,1.5067l4.92188,4.92188c0.418528,0.418527 1.08817,0.418527 1.5067,0Zm2.36049,1.38951c0,5.02233 -4.08483,9.10715 -9.10715,9.10715c-5.02233,0 -9.10715,-4.08483 -9.10715,-9.10715c-4.44089e-16,-5.02233 4.08483,-9.10715 9.10715,-9.10715c5.02233,0 9.10715,4.08483 9.10715,9.10715Zm3.75,0c0,-7.09822 -5.75894,-12.8572 -12.8572,-12.8572c-7.09822,0 -12.8572,5.75894 -12.8572,12.8572c0,7.09822 5.75894,12.8572 12.8572,12.8572c7.09822,0 12.8572,-5.75894 12.8572,-12.8572Z" transform="translate(0, -49.2858)"></path>
    </g>
</svg>