<?xml version="1.0" encoding="UTF-8"?>
<svg width="25" height="25" version="1.1" viewBox="0.217634 -48.6329 25.279 25.279" xmlns="http://www.w3.org/2000/svg" xmlns:xlink="http://www.w3.org/1999/xlink">
    <!--Generated by IJSVG (https://github.com/curthard89/IJSVG)-->
    <g fill="#000000">
        <path d="M12.6395,13.711c0,-0.585938 -0.485491,-1.07143 -1.07143,-1.07143h-7.50001c-0.585938,0 -1.07143,0.485491 -1.07143,1.07143c0,0.284599 0.117187,0.552456 0.31808,0.753349l2.41072,2.41072l-5.55804,5.55804c-0.100446,0.100447 -0.167411,0.251116 -0.167411,0.385045c0,0.133929 0.066965,0.284599 0.167411,0.385045l1.90849,1.90849c0.100446,0.100446 0.251116,0.167411 0.385045,0.167411c0.133928,0 0.284598,-0.066965 0.385045,-0.167411l5.55804,-5.55804l2.41072,2.41072c0.200893,0.200894 0.468751,0.318081 0.753349,0.318081c0.585939,0 1.07143,-0.485491 1.07143,-1.07143Zm12.6395,-11.25c0,-0.133929 -0.066964,-0.284599 -0.167411,-0.385045l-1.90848,-1.90848c-0.100447,-0.100446 -0.251117,-0.16741 -0.385045,-0.16741c-0.133929,0 -0.284599,0.066964 -0.385045,0.16741l-5.55804,5.55804l-2.41072,-2.41072c-0.200893,-0.200893 -0.46875,-0.318081 -0.753349,-0.318081c-0.585938,0 -1.07143,0.485492 -1.07143,1.07143v7.50001c0,0.585938 0.485492,1.07143 1.07143,1.07143h7.50001c0.585938,0 1.07143,-0.485492 1.07143,-1.07143c0,-0.284599 -0.117188,-0.552456 -0.318081,-0.753349l-2.41072,-2.41072l5.55804,-5.55804c0.100447,-0.100446 0.167411,-0.251116 0.167411,-0.385045Z" transform="translate(0.217634, -48.6329)"></path>
    </g>
</svg>