<?xml version="1.0" encoding="UTF-8"?>
<svg width="30" height="26" version="1.1" viewBox="0 -49.8885 30 26.1161" xmlns="http://www.w3.org/2000/svg" xmlns:xlink="http://www.w3.org/1999/xlink">
    <!--Generated by IJSVG (https://github.com/curthard89/IJSVG)-->
    <g fill="#000000">
        <path d="M0.753349,25.6976l11.8862,-11.8862c0.100447,-0.100446 0.167411,-0.200893 0.217634,-0.318081v11.8862c0,0.585938 0.334822,0.736608 0.753349,0.318081l11.8862,-11.8862c0.100447,-0.100446 0.167411,-0.200893 0.217634,-0.318081v11.3505c0,0.585938 0.485492,1.07143 1.07143,1.07143h2.14286c0.585938,0 1.07143,-0.485492 1.07143,-1.07143v-23.5715c0,-0.585939 -0.485492,-1.07143 -1.07143,-1.07143h-2.14286c-0.585938,0 -1.07143,0.485491 -1.07143,1.07143v11.3505c-0.050223,-0.117188 -0.117187,-0.217635 -0.217634,-0.318081l-11.8862,-11.8862c-0.418527,-0.418527 -0.753349,-0.267858 -0.753349,0.318081v11.8862c-0.050223,-0.117188 -0.117187,-0.217635 -0.217634,-0.318081l-11.8862,-11.8862c-0.418527,-0.418527 -0.753349,-0.267858 -0.753349,0.318081v24.6429c0,0.585938 0.334822,0.736608 0.753349,0.318081Z" transform="translate(0, -49.8885)"></path>
    </g>
</svg>