<?xml version="1.0" encoding="UTF-8" standalone="no"?>
<svg width="26" height="30" version="1.1" viewBox="0 -55.7144 25.7143 30" xmlns="http://www.w3.org/2000/svg" xmlns:xlink="http://www.w3.org/1999/xlink">
    <!--Generated by IJSVG (https://github.com/curthard89/IJSVG)-->
    <g fill="#000000">
        <path d="M24.5759,6.36162l-5.22322,-5.22322c-0.619421,-0.61942 -1.85826,-1.13839 -2.74554,-1.13839h-15c-0.887278,0 -1.60714,0.719867 -1.60714,1.60714v26.7857c0,0.887278 0.719867,1.60714 1.60715,1.60714h22.5c0.887277,0 1.60714,-0.719867 1.60714,-1.60714v-19.2857c0,-0.887278 -0.518973,-2.12612 -1.13839,-2.74554Zm-7.43304,-4.08483c0.284598,0.100447 0.569197,0.251117 0.686384,0.368304l5.23996,5.23996c0.117188,0.117188 0.267857,0.401786 0.368304,0.686385h-6.29465Zm6.42858,25.5804h-21.4286v-25.7143h12.8572v6.96429c0,0.887277 0.719867,1.60714 1.60714,1.60714h6.96429Zm-17.1429,-14.4643v1.07143c8.88178e-16,0.301339 0.234375,0.535715 0.535715,0.535715h11.7857c0.30134,0 0.535715,-0.234376 0.535715,-0.535715v-1.07143c0,-0.30134 -0.234375,-0.535715 -0.535715,-0.535715h-11.7857c-0.30134,0 -0.535715,0.234375 -0.535715,0.535715Zm12.3214,3.75h-11.7857c-0.30134,0 -0.535715,0.234376 -0.535715,0.535715v1.07143c0,0.30134 0.234375,0.535715 0.535715,0.535715h11.7857c0.30134,0 0.535715,-0.234375 0.535715,-0.535715v-1.07143c0,-0.301339 -0.234375,-0.535715 -0.535715,-0.535715Zm0,4.28572h-11.7857c-0.30134,0 -0.535715,0.234375 -0.535715,0.535715v1.07143c0,0.301339 0.234375,0.535715 0.535715,0.535715h11.7857c0.30134,0 0.535715,-0.234376 0.535715,-0.535715v-1.07143c0,-0.30134 -0.234375,-0.535715 -0.535715,-0.535715Z" transform="translate(0, -55.7144)"></path>
    </g>
</svg>