<?xml version="1.0" encoding="UTF-8" standalone="no"?>
<svg width="15" height="28" version="1.1" viewBox="-0.033482 -51.4286 15.0837 27.8572" xmlns="http://www.w3.org/2000/svg" xmlns:xlink="http://www.w3.org/1999/xlink">
    <!--Generated by IJSVG (https://github.com/curthard89/IJSVG)-->
    <g fill="#000000">
        <path d="M14.8493,7.3326c-0.15067,-0.15067 -0.351563,-0.251116 -0.569197,-0.251116c-0.066965,0 -0.133929,0.016741 -0.200893,0.033482l-6.62947,1.64063l2.86273,-7.75112c0.050223,-0.100447 0.083706,-0.200893 0.083706,-0.30134c0,-0.385045 -0.334822,-0.703126 -0.75335,-0.703126h-5.49108c-0.351562,0 -0.652902,0.217634 -0.736608,0.535715l-3.36496,13.8114c-0.050223,0.234375 0.016741,0.485491 0.217634,0.652902c0.133929,0.117188 0.334822,0.184152 0.518974,0.184152c0.066964,0 0.133929,0 0.200893,-0.016741l6.79688,-1.69085l-3.298,13.5268c-0.083705,0.351563 0.133929,0.703126 0.502233,0.820313c0.083706,0.016741 0.167411,0.033482 0.234375,0.033482c0.30134,0 0.569197,-0.167411 0.703126,-0.418527l9.04019,-19.3694c0.117187,-0.251116 0.066964,-0.535715 -0.117188,-0.736608Z" transform="translate(-0.033482, -51.4286)"></path>
    </g>
</svg>