<?xml version="1.0" encoding="UTF-8"?>
<svg width="32" height="24" version="1.1" viewBox="0 -47.1429 31.9587 23.5715" xmlns="http://www.w3.org/2000/svg" xmlns:xlink="http://www.w3.org/1999/xlink">
    <!--Generated by IJSVG (https://github.com/curthard89/IJSVG)-->
    <g fill="#000000">
        <path d="M29.8159,13.4431c0,0.251116 -0.15067,0.468751 -0.30134,0.652903l-4.92188,6.07702c-0.569197,0.703126 -1.74107,1.25558 -2.62835,1.25558h-18.2143c-0.368304,0 -0.887277,-0.117188 -0.887277,-0.585939c0,-0.251116 0.150669,-0.46875 0.301339,-0.669643l4.92188,-6.07702c0.569197,-0.686385 1.74107,-1.23884 2.62835,-1.23884h18.2143c0.368304,0 0.887278,0.117187 0.887278,0.585938Zm-19.1016,-2.7288c-1.52344,0 -3.31474,0.853796 -4.28572,2.04241l-4.28572,5.27344v-14.2802c4.44089e-16,-0.887278 0.719867,-1.60714 1.60714,-1.60714h5.35715c0.887278,0 1.60714,0.719867 1.60714,1.60714v1.07143c0,0.887278 0.719867,1.60714 1.60715,1.60714h9.64287c0.887278,0 1.60714,0.719867 1.60714,1.60715v2.67857Zm21.2444,2.7288c0,-0.401786 -0.083705,-0.786831 -0.251116,-1.13839c-0.502233,-1.07143 -1.64063,-1.5904 -2.77902,-1.5904h-3.21429v-2.67857c0,-2.05916 -1.69085,-3.75001 -3.75,-3.75001h-9.10715v-0.535715c0,-2.05915 -1.69085,-3.75 -3.75,-3.75h-5.35715c-2.05915,0 -3.75,1.69085 -3.75,3.75v16.0714c0,2.05915 1.69085,3.75 3.75,3.75h18.2143c1.5067,0 3.33148,-0.870536 4.28572,-2.04241l4.93862,-6.07702c0.45201,-0.569197 0.77009,-1.27232 0.77009,-2.00893Z" transform="translate(0, -47.1429)"></path>
    </g>
</svg>