<?xml version="1.0" encoding="UTF-8"?>
<svg width="26" height="26" version="1.1" viewBox="0 -49.2858 25.7143 25.7143" xmlns="http://www.w3.org/2000/svg" xmlns:xlink="http://www.w3.org/1999/xlink">
    <!--Generated by IJSVG (https://github.com/curthard89/IJSVG)-->
    <g fill="#000000">
        <path d="M17.1429,20.8929c0,0.30134 -0.234376,0.535715 -0.535715,0.535715h-7.50001c-0.30134,0 -0.535715,-0.234375 -0.535715,-0.535715v-2.67858c0,-0.301339 0.234375,-0.535715 0.535715,-0.535715h1.60714v-5.35715h-1.60714c-0.30134,0 -0.535715,-0.234375 -0.535715,-0.535715v-2.67857c0,-0.30134 0.234375,-0.535715 0.535715,-0.535715h5.35715c0.30134,0 0.535715,0.234375 0.535715,0.535715v8.57144h1.60714c0.301339,0 0.535715,0.234376 0.535715,0.535715Zm-2.14286,-15c0,0.30134 -0.234375,0.535715 -0.535715,0.535715h-3.21429c-0.301339,0 -0.535715,-0.234375 -0.535715,-0.535715v-2.67857c0,-0.30134 0.234376,-0.535715 0.535715,-0.535715h3.21429c0.30134,0 0.535715,0.234375 0.535715,0.535715Zm10.7143,6.96429c0,-7.09822 -5.75894,-12.8572 -12.8572,-12.8572c-7.09822,0 -12.8572,5.75894 -12.8572,12.8572c0,7.09822 5.75894,12.8572 12.8572,12.8572c7.09822,0 12.8572,-5.75894 12.8572,-12.8572Z" transform="translate(0, -49.2858)"></path>
    </g>
</svg>