<?xml version="1.0" encoding="UTF-8"?>
<svg width="26" height="26" version="1.1" viewBox="-0.016741 -49.336 25.7478 25.7478" xmlns="http://www.w3.org/2000/svg" xmlns:xlink="http://www.w3.org/1999/xlink">
    <!--Generated by IJSVG (https://github.com/curthard89/IJSVG)-->
    <g fill="#000000">
        <path d="M17.1596,12.8739c0,2.36049 -1.92523,4.28572 -4.28572,4.28572c-2.36049,0 -4.28572,-1.92522 -4.28572,-4.28572c0,-2.36049 1.92523,-4.28572 4.28572,-4.28572c2.36049,0 4.28572,1.92522 4.28572,4.28572Zm2.31027,0c0,-3.64956 -2.94643,-6.59599 -6.59599,-6.59599c-3.64956,0 -6.59599,2.94643 -6.59599,6.59599c0,3.64956 2.94643,6.59599 6.59599,6.59599c3.64956,0 6.59599,-2.94643 6.59599,-6.59599Zm1.80804,-6.86385c0,-0.853795 -0.686385,-1.54018 -1.54018,-1.54018c-0.853796,0 -1.54018,0.686385 -1.54018,1.54018c0,0.853796 0.686385,1.54018 1.54018,1.54018c0.853795,0 1.54018,-0.686385 1.54018,-1.54018Zm-8.40403,-3.68304c1.875,0 5.89286,-0.150669 7.58371,0.518974c0.585938,0.234376 1.02121,0.518974 1.47322,0.970984c0.452009,0.452009 0.736608,0.887277 0.970983,1.47322c0.669644,1.69085 0.518974,5.70871 0.518974,7.58371c0,1.875 0.15067,5.89286 -0.518974,7.58371c-0.234375,0.585939 -0.518974,1.02121 -0.970983,1.47322c-0.45201,0.45201 -0.887278,0.736608 -1.47322,0.970984c-1.69085,0.669643 -5.70871,0.518974 -7.58371,0.518974c-1.875,0 -5.89286,0.150669 -7.58371,-0.518974c-0.585938,-0.234376 -1.02121,-0.518974 -1.47322,-0.970984c-0.45201,-0.452009 -0.736608,-0.887277 -0.970984,-1.47322c-0.669643,-1.69085 -0.518973,-5.70871 -0.518973,-7.58371c0,-1.875 -0.15067,-5.89286 0.518973,-7.58371c0.234376,-0.585939 0.518974,-1.02121 0.970984,-1.47322c0.452009,-0.45201 0.887278,-0.736608 1.47322,-0.970984c1.69085,-0.669643 5.70871,-0.518974 7.58371,-0.518974Zm12.8572,10.5469c0,-1.77456 0.016741,-3.53237 -0.083705,-5.30693c-0.100447,-2.05915 -0.569197,-3.88393 -2.07589,-5.39063c-1.5067,-1.5067 -3.33148,-1.97545 -5.39063,-2.0759c-1.77456,-0.100446 -3.53237,-0.083705 -5.30693,-0.083705c-1.77456,0 -3.53237,-0.016741 -5.30693,0.083705c-2.05915,0.100447 -3.88393,0.569197 -5.39063,2.0759c-1.5067,1.5067 -1.97545,3.33148 -2.0759,5.39063c-0.100446,1.77456 -0.083705,3.53237 -0.083705,5.30693c-6.93889e-18,1.77456 -0.016741,3.53237 0.083705,5.30693c0.100447,2.05915 0.569198,3.88393 2.0759,5.39063c1.5067,1.5067 3.33148,1.97545 5.39063,2.0759c1.77456,0.100446 3.53237,0.083705 5.30693,0.083705c1.77456,0 3.53237,0.016741 5.30693,-0.083705c2.05915,-0.100447 3.88393,-0.569197 5.39063,-2.0759c1.5067,-1.5067 1.97545,-3.33148 2.07589,-5.39063c0.100446,-1.77456 0.083705,-3.53237 0.083705,-5.30693Z" transform="translate(-0.016741, -49.336)"></path>
    </g>
</svg>