<?xml version="1.0" encoding="UTF-8"?>
<svg width="28" height="27" version="1.1" viewBox="0 -50.2233 28.1753 26.6518" xmlns="http://www.w3.org/2000/svg" xmlns:xlink="http://www.w3.org/1999/xlink">
    <!--Generated by IJSVG (https://github.com/curthard89/IJSVG)-->
    <g fill="#000000">
        <path d="M13.9286,6.42858c0,1.77456 -1.43973,3.21429 -3.21429,3.21429c-0.485491,0 -0.954242,-0.117187 -1.38951,-0.31808c0.200893,0.435268 0.318081,0.904019 0.318081,1.38951c0,1.77456 -1.43973,3.21429 -3.21429,3.21429c-1.77456,0 -3.21429,-1.43973 -3.21429,-3.21429c0,-1.77456 1.43973,-3.21429 3.21429,-3.21429c0.485492,0 0.954242,0.117187 1.38951,0.318081c-0.200893,-0.435269 -0.318081,-0.904019 -0.318081,-1.38951c0,-1.77456 1.43973,-3.21429 3.21429,-3.21429c1.77456,0 3.21429,1.43973 3.21429,3.21429Zm14.2467,11.7857c0,-0.485491 -4.67076,-4.8884 -5.29018,-5.50782c-0.100447,-0.100446 -0.251116,-0.167411 -0.385045,-0.167411c-0.385045,0 -1.92523,1.54018 -1.92523,1.92523c0,0.435268 1.57366,1.7913 1.92523,2.14286l-1.60714,1.60715l-5.94309,-5.94309c1.30581,-1.75782 2.19308,-3.90067 2.19308,-6.1105c0,-3.64956 -2.5279,-6.16072 -6.16072,-6.16072c-5.49108,0 -10.9822,5.49108 -10.9822,10.9822c0,3.63282 2.51116,6.16072 6.16072,6.16072c2.20982,0 4.35268,-0.887277 6.1105,-2.19308l11.2333,11.2333c0.30134,0.301339 0.719867,0.46875 1.1384,0.46875c0.937501,0 2.00893,-1.07143 2.00893,-2.00893c0,-0.418527 -0.16741,-0.837054 -0.46875,-1.13839l-3.68304,-3.68304l1.60714,-1.60714c0.351563,0.351563 1.70759,1.92523 2.14286,1.92523c0.385045,0 1.92523,-1.54018 1.92523,-1.92523Z" transform="translate(0, -50.2233)"></path>
    </g>
</svg>