<?xml version="1.0" encoding="UTF-8" standalone="no"?>
<svg width="19" height="24" version="1.1" viewBox="0 -47.1429 19.2857 23.5715" xmlns="http://www.w3.org/2000/svg" xmlns:xlink="http://www.w3.org/1999/xlink">
    <!--Generated by IJSVG (https://github.com/curthard89/IJSVG)-->
    <g fill="#000000">
        <path d="M5.35715,10.7143v-3.21429c0,-2.36049 1.92523,-4.28572 4.28572,-4.28572c2.36049,0 4.28572,1.92523 4.28572,4.28572v3.21429Zm13.9286,1.60715c0,-0.887278 -0.719867,-1.60715 -1.60714,-1.60715h-0.535715v-3.21429c0,-4.11831 -3.3817,-7.50001 -7.50001,-7.50001c-4.11831,0 -7.50001,3.3817 -7.50001,7.50001v3.21429h-0.535715c-0.887278,0 -1.60715,0.719867 -1.60715,1.60715v9.64287c0,0.887277 0.719867,1.60714 1.60715,1.60714h16.0714c0.887277,0 1.60714,-0.719867 1.60714,-1.60714Z" transform="translate(0, -47.1429)"></path>
    </g>
</svg>