<?xml version="1.0" encoding="UTF-8" standalone="no"?>
<svg width="30" height="30" version="1.1" viewBox="0 -55.7144 29.9666 30" xmlns="http://www.w3.org/2000/svg" xmlns:xlink="http://www.w3.org/1999/xlink">
    <!--Generated by IJSVG (https://github.com/curthard89/IJSVG)-->
    <g fill="#000000">
        <path d="M27.0369,0c-0.820314,0 -1.5904,0.368304 -2.17634,0.904019l-10.6808,9.69309c-0.987724,0.904019 -1.54018,2.20982 -1.54018,3.54911c0,2.8125 2.31027,5.22322 5.13952,5.22322c1.42299,0 2.62835,-0.569198 3.64956,-1.52344c2.09264,-1.92522 6.4788,-10.1116 7.78461,-12.5893c0.401787,-0.786832 0.75335,-1.64063 0.75335,-2.5279c0,-1.5904 -1.40625,-2.7288 -2.92969,-2.7288Zm-15.2177,17.3103c-3.76675,0.167411 -5.99331,0.837055 -7.4163,4.55358c-0.15067,0.385045 -0.502233,0.619421 -0.92076,0.619421c-0.703126,0 -2.86273,-1.72433 -3.48215,-2.14286c0,5.13951 2.46094,9.65961 8.13617,9.65961c4.78795,0 8.10269,-3.28125 8.00224,-8.05247l-0.016741,-1.18862c-1.84152,-0.485491 -3.43192,-1.75781 -4.30246,-3.44866Z" transform="translate(0, -55.7144)"></path>
    </g>
</svg>