<?xml version="1.0" encoding="UTF-8"?>
<svg width="21" height="26" version="1.1" viewBox="0.401786 -49.2858 20.9933 25.7143" xmlns="http://www.w3.org/2000/svg" xmlns:xlink="http://www.w3.org/1999/xlink">
    <!--Generated by IJSVG (https://github.com/curthard89/IJSVG)-->
    <g fill="#000000">
        <path d="M20.9933,1.02121c0,-0.569198 -0.45201,-1.02121 -1.02121,-1.02121h-8.01898c-3.08036,0 -5.72545,0.200893 -6.98104,0.61942c-1.33929,0.45201 -2.51116,1.33929 -3.49889,2.66183c-0.970983,1.32255 -1.47322,2.92969 -1.47322,4.78795c0,1.5904 0.368304,3.04688 1.07143,4.33594c0.736608,1.33929 1.80804,2.34375 3.21429,2.99665c1.08817,0.518974 2.47768,0.853796 4.10157,0.987724v8.30358c0,0.569197 0.452009,1.02121 1.02121,1.02121h1.80804c0.569198,0 1.02121,-0.452009 1.02121,-1.02121v-20.3907h2.39398v20.3907c0,0.569197 0.45201,1.02121 1.02121,1.02121h1.80804c0.569197,0 1.02121,-0.452009 1.02121,-1.02121v-19.2857c0,-0.351562 -0.033482,-0.753349 0.050223,-1.07143c0.066965,-0.267858 0.267858,-0.45201 0.535715,-0.518974c0.284599,-0.066965 0.619421,-0.016741 0.904019,-0.016741c0.569197,0 1.02121,-0.987725 1.02121,-1.55692Z" transform="translate(0.401786, -49.2858)"></path>
    </g>
</svg>