<?xml version="1.0" encoding="UTF-8" standalone="no"?>
<svg width="24" height="24" version="1.1" viewBox="0 -47.1429 23.5882 23.5715" xmlns="http://www.w3.org/2000/svg" xmlns:xlink="http://www.w3.org/1999/xlink">
    <!--Generated by IJSVG (https://github.com/curthard89/IJSVG)-->
    <g fill="#000000">
        <path d="M6.42858,20.3572c0,-1.77456 -1.43973,-3.21429 -3.21429,-3.21429c-1.77456,0 -3.21429,1.43973 -3.21429,3.21429c0,1.77455 1.43973,3.21429 3.21429,3.21429c1.77456,0 3.21429,-1.43973 3.21429,-3.21429Zm8.57144,2.05915c-0.284599,-3.56585 -1.84152,-6.93081 -4.38617,-9.45872c-2.5279,-2.54465 -5.89286,-4.10157 -9.45872,-4.38617c-0.033482,0 -0.050223,0 -0.083705,0c-0.267858,0 -0.535715,0.100447 -0.719867,0.284599c-0.234375,0.200893 -0.351563,0.485492 -0.351563,0.786831v2.26005c0,0.552456 0.418527,1.00447 0.970983,1.05469c5.10603,0.485492 9.15738,4.53684 9.64287,9.64287c0.050223,0.552456 0.502233,0.970983 1.05469,0.970983h2.26005c0.30134,0 0.585938,-0.117187 0.786831,-0.351563c0.200893,-0.217634 0.30134,-0.502232 0.284599,-0.803572Zm8.57144,0.033482c-0.30134,-5.85938 -2.76228,-11.3672 -6.93081,-15.519c-4.15179,-4.16853 -9.65961,-6.62947 -15.519,-6.93081c-0.016741,0 -0.033482,0 -0.050223,0c-0.267858,0 -0.535715,0.100446 -0.736608,0.301339c-0.217634,0.200893 -0.334822,0.468751 -0.334822,0.770091v2.39398c0,0.552456 0.435268,1.02121 1.00446,1.05469c9.72658,0.569197 17.4777,8.32032 18.0302,18.0469c0.033482,0.569197 0.502233,1.00446 1.07143,1.00446h2.39398c0.301339,0 0.569197,-0.117187 0.77009,-0.334821c0.217634,-0.217635 0.318081,-0.502233 0.30134,-0.786832Z" transform="translate(0, -47.1429)"></path>
    </g>
</svg>