<?xml version="1.0" encoding="UTF-8" standalone="no"?>
<svg width="26" height="26" version="1.1" viewBox="0 -49.2858 25.7143 25.7143" xmlns="http://www.w3.org/2000/svg" xmlns:xlink="http://www.w3.org/1999/xlink">
    <!--Generated by IJSVG (https://github.com/curthard89/IJSVG)-->
    <g fill="#000000">
        <path d="M20.3572,15c-1.40625,0 -2.69532,0.552456 -3.64956,1.43973l-6.02679,-3.0134c0.016741,-0.184152 0.033482,-0.385045 0.033482,-0.569197c0,-0.184152 -0.016741,-0.385045 -0.033482,-0.569197l6.02679,-3.0134c0.954242,0.887277 2.24331,1.43973 3.64956,1.43973c2.96317,0 5.35715,-2.39398 5.35715,-5.35715c0,-2.96317 -2.39398,-5.35715 -5.35715,-5.35715c-2.96317,0 -5.35715,2.39398 -5.35715,5.35715c0,0.184152 0.016741,0.385045 0.033482,0.569197l-6.02679,3.0134c-0.954242,-0.887278 -2.24331,-1.43973 -3.64956,-1.43973c-2.96317,0 -5.35715,2.39398 -5.35715,5.35715c0,2.96317 2.39398,5.35715 5.35715,5.35715c1.40625,0 2.69532,-0.552456 3.64956,-1.43973l6.02679,3.0134c-0.016741,0.184152 -0.033482,0.385045 -0.033482,0.569197c0,2.96317 2.39398,5.35715 5.35715,5.35715c2.96317,0 5.35715,-2.39398 5.35715,-5.35715c0,-2.96317 -2.39398,-5.35715 -5.35715,-5.35715Z" transform="translate(0, -49.2858)"></path>
    </g>
</svg>