<?xml version="1.0" encoding="UTF-8" standalone="no"?>
<svg width="29" height="24" version="1.1" viewBox="1.07143 -45.0001 28.9286 23.5715" xmlns="http://www.w3.org/2000/svg" xmlns:xlink="http://www.w3.org/1999/xlink">
    <!--Generated by IJSVG (https://github.com/curthard89/IJSVG)-->
    <g fill="#000000">
        <path d="M9.64287,19.2857c0,1.17188 -0.970983,2.14286 -2.14286,2.14286c-1.17188,0 -2.14286,-0.970983 -2.14286,-2.14286c0,-1.17188 0.970983,-2.14286 2.14286,-2.14286c1.17188,0 2.14286,0.970983 2.14286,2.14286Zm-6.42858,-8.57144v-0.502233c0,-0.066964 0.100447,-0.318081 0.15067,-0.368304l3.26451,-3.26451c0.050223,-0.050223 0.30134,-0.15067 0.368304,-0.15067h2.64509v4.28572Zm21.4286,8.57144c0,1.17188 -0.970983,2.14286 -2.14286,2.14286c-1.17188,0 -2.14286,-0.970983 -2.14286,-2.14286c0,-1.17188 0.970983,-2.14286 2.14286,-2.14286c1.17188,0 2.14286,0.970983 2.14286,2.14286Zm4.28572,-18.2143c0,-0.585938 -0.485492,-1.07143 -1.07143,-1.07143h-17.1429c-0.585938,0 -1.07143,0.485492 -1.07143,1.07143v3.21429h-2.67857c-0.602679,0 -1.40625,0.334822 -1.82478,0.753349l-3.31474,3.31474c-0.92076,0.92076 -0.753349,2.24331 -0.753349,3.43192v5.35715c-0.585939,0 -1.07143,0.485492 -1.07143,1.07143c0,1.23884 1.30581,1.07143 2.14286,1.07143h1.07143c0,2.36049 1.92523,4.28572 4.28572,4.28572c2.36049,0 4.28572,-1.92523 4.28572,-4.28572h6.42858c0,2.36049 1.92523,4.28572 4.28572,4.28572c2.36049,0 4.28572,-1.92523 4.28572,-4.28572c0.837055,0 2.14286,0.167411 2.14286,-1.07143Z" transform="translate(1.07143, -45.0001)"></path>
    </g>
</svg>