<svg width="25" height="25" viewBox="0 -48.5826 25.3628 25.3628" xmlns="http://www.w3.org/2000/svg"><path d="M6.077-25.363H4.286v-2.143H2.143v-1.79l1.523-1.524L7.6-26.886zm8.756-15.535c0 .1-.034.2-.118.284L5.642-31.54a.392.392 0 0 1-.285.117.352.352 0 0 1-.368-.368c0-.1.033-.201.117-.285l9.074-9.074a.392.392 0 0 1 .284-.117c.218 0 .369.151.369.369zm-.904-3.215L0-30.184v6.964h6.964l13.929-13.928zm11.434 1.607c0-.569-.235-1.121-.62-1.523l-3.934-3.917a2.169 2.169 0 0 0-1.523-.637c-.57 0-1.122.235-1.507.637L15-45.184l6.964 6.964 2.78-2.779c.384-.385.619-.937.619-1.507z"/></svg>