<svg viewBox="0.92076 -50.0893 19.5871 27.0536" xmlns="http://www.w3.org/2000/svg"><path d="M19.888-43.594c.62-.636.62-1.64 0-2.277a1.627 1.627 0 0 0-2.276 0l-3.817 3.817H7.634L3.817-45.87a1.627 1.627 0 0 0-2.277 0c-.62.637-.62 1.641 0 2.277l4.889 4.889v13.794c0 1.038.837 1.875 1.875 1.875a1.872 1.872 0 0 0 1.875-1.875v-6.428h1.071v6.428c0 1.038.837 1.875 1.875 1.875A1.872 1.872 0 0 0 15-24.91v-13.794zm-5.424-2.745a3.744 3.744 0 0 0-3.75-3.75 3.744 3.744 0 0 0-3.75 3.75 3.744 3.744 0 0 0 3.75 3.75 3.744 3.744 0 0 0 3.75-3.75z"/></svg>