<?xml version="1.0" encoding="UTF-8" standalone="no"?>
<svg version="1.1" viewBox="0 -49.2858 17.1429 25.7143" xmlns="http://www.w3.org/2000/svg" xmlns:xlink="http://www.w3.org/1999/xlink">
    <!--Generated by IJSVG (https://github.com/curthard89/IJSVG)-->
    <g fill="#000000">
        <path d="M4.82143,22.5c0,0.887278 -0.719867,1.60714 -1.60714,1.60714c-0.887278,0 -1.60715,-0.719867 -1.60715,-1.60714c0,-0.887278 0.719867,-1.60714 1.60715,-1.60714c0.887277,0 1.60714,0.719867 1.60714,1.60714Zm0,-19.2857c0,0.887277 -0.719867,1.60714 -1.60714,1.60714c-0.887278,0 -1.60715,-0.719867 -1.60715,-1.60714c0,-0.887278 0.719867,-1.60715 1.60715,-1.60715c0.887277,0 1.60714,0.719867 1.60714,1.60715Zm10.7143,2.14286c0,0.887278 -0.719867,1.60715 -1.60715,1.60715c-0.887278,0 -1.60714,-0.719867 -1.60714,-1.60715c0,-0.887278 0.719867,-1.60715 1.60714,-1.60715c0.887278,0 1.60715,0.719867 1.60715,1.60715Zm1.60714,0c0,-1.77455 -1.43973,-3.21429 -3.21429,-3.21429c-1.77456,0 -3.21429,1.43973 -3.21429,3.21429c0,1.18862 0.652903,2.22657 1.60715,2.77902c-0.033482,3.49889 -1.80804,4.2355 -4.92188,5.22322c-0.820313,0.251116 -1.72433,0.535715 -2.57813,0.954242v-8.32032c0.954243,-0.552456 1.60715,-1.5904 1.60715,-2.77902c0,-1.77456 -1.43973,-3.21429 -3.21429,-3.21429c-1.77456,0 -3.21429,1.43973 -3.21429,3.21429c0,1.18862 0.652903,2.22657 1.60715,2.77902v13.7277c-0.954242,0.552456 -1.60715,1.5904 -1.60715,2.77902c0,1.77455 1.43973,3.21429 3.21429,3.21429c1.77456,0 3.21429,-1.43973 3.21429,-3.21429c0,-1.18862 -0.652902,-2.22657 -1.60715,-2.77902v-0.435269c0,-1.62389 0.870537,-2.02567 3.53237,-2.86273c2.84599,-0.904019 7.13171,-2.24331 7.18193,-8.28684c0.954242,-0.552456 1.60714,-1.5904 1.60714,-2.77902Z" transform="translate(0, -49.2858)"></path>
    </g>
</svg>