<svg width="6" height="24" viewBox="0 -47.1429 6.42858 23.5715" xmlns="http://www.w3.org/2000/svg"><path d="M6.429-28.393c0-.887-.72-1.607-1.608-1.607H1.607C.72-30 0-29.28 0-28.393v3.214c0 .888.72 1.608 1.607 1.608h3.214c.888 0 1.608-.72 1.608-1.608zm0-8.571c0-.888-.72-1.607-1.608-1.607H1.607c-.887 0-1.607.72-1.607 1.607v3.214c0 .887.72 1.607 1.607 1.607h3.214c.888 0 1.608-.72 1.608-1.607zm0-8.572c0-.887-.72-1.607-1.608-1.607H1.607c-.887 0-1.607.72-1.607 1.607v3.215c0 .887.72 1.607 1.607 1.607h3.214c.888 0 1.608-.72 1.608-1.607z"/></svg>