<?xml version="1.0" encoding="UTF-8" standalone="no"?>
<svg version="1.1" viewBox="0 -43.3929 30 22.5" xmlns="http://www.w3.org/2000/svg" xmlns:xlink="http://www.w3.org/1999/xlink">
    <!--Generated by IJSVG (https://github.com/curthard89/IJSVG)-->
    <g fill="#000000">
        <path d="M30,15c0,-0.30134 -0.251117,-0.535715 -0.535715,-0.535715h-23.0357v-3.21429c8.88178e-16,-0.30134 -0.251116,-0.535715 -0.535715,-0.535715c-0.133929,0 -0.284598,0.050223 -0.385045,0.150669l-5.35715,5.35715c-0.100447,0.100446 -0.15067,0.234375 -0.15067,0.385045c0,0.133929 0.050223,0.267857 0.15067,0.368304l5.34041,5.35715c0.117188,0.100447 0.251116,0.167411 0.401786,0.167411c0.30134,0 0.535715,-0.251116 0.535715,-0.535715v-3.21429h23.0357c0.284598,0 0.535715,-0.251116 0.535715,-0.535714Zm0,-9.10715c0,-0.133928 -0.050224,-0.284598 -0.15067,-0.385045l-5.34041,-5.34041c-0.117188,-0.100447 -0.251117,-0.167411 -0.401786,-0.167411c-0.30134,0 -0.535715,0.234375 -0.535715,0.535715v3.21429h-23.0357c-0.284599,0 -0.535715,0.251116 -0.535715,0.535715v3.21429c0,0.284599 0.251116,0.535715 0.535715,0.535715h23.0357v3.21429c0,0.284598 0.251116,0.535714 0.535715,0.535714c0.133928,0 0.284598,-0.050223 0.385045,-0.150669l5.35715,-5.35715c0.100446,-0.100446 0.15067,-0.251116 0.15067,-0.385045Z" transform="translate(0, -43.3929)"></path>
    </g>
</svg>