<?xml version="1.0" encoding="UTF-8"?>
<svg width="30" height="30" version="1.1" viewBox="0 -55.7144 30 30" xmlns="http://www.w3.org/2000/svg" xmlns:xlink="http://www.w3.org/1999/xlink">
    <!--Generated by IJSVG (https://github.com/curthard89/IJSVG)-->
    <g fill="#000000">
        <path d="M27.8572,27.3215c0,0.284599 -0.251116,0.535715 -0.535715,0.535715h-18.2143c-0.284599,0 -0.535715,-0.251116 -0.535715,-0.535715v-18.2143c0,-0.284599 0.251116,-0.535715 0.535715,-0.535715h18.2143c0.284599,0 0.535715,0.251116 0.535715,0.535715Zm2.14286,-18.2143c0,-1.47322 -1.20536,-2.67858 -2.67858,-2.67858h-18.2143c-1.47322,0 -2.67858,1.20536 -2.67858,2.67858v18.2143c0,1.47322 1.20536,2.67857 2.67857,2.67857h18.2143c1.47322,0 2.67858,-1.20536 2.67858,-2.67857Zm-6.42858,-6.42858c0,-1.47322 -1.20536,-2.67857 -2.67857,-2.67857h-18.2143c-1.47322,0 -2.67857,1.20536 -2.67857,2.67857v18.2143c0,1.47322 1.20536,2.67857 2.67857,2.67857h2.67857v-2.14286h-2.67857c-0.284599,0 -0.535715,-0.251117 -0.535715,-0.535715v-18.2143c0,-0.284598 0.251116,-0.535714 0.535715,-0.535714h18.2143c0.284599,0 0.535715,0.251116 0.535715,0.535714v2.67858h2.14286Z" transform="translate(0, -55.7144)"></path>
    </g>
</svg>