<svg width="30" height="30" viewBox="0 -55.7144 30 30" xmlns="http://www.w3.org/2000/svg"><path d="M27.857-28.393a.55.55 0 0 1-.536.536H9.107a.55.55 0 0 1-.536-.536v-18.214a.55.55 0 0 1 .536-.536h18.214a.55.55 0 0 1 .536.536zM30-46.607a2.686 2.686 0 0 0-2.679-2.679H9.107a2.686 2.686 0 0 0-2.678 2.679v18.214a2.686 2.686 0 0 0 2.678 2.679h18.214A2.686 2.686 0 0 0 30-28.393zm-6.429-6.429a2.686 2.686 0 0 0-2.678-2.678H2.679A2.686 2.686 0 0 0 0-53.036v18.215a2.686 2.686 0 0 0 2.679 2.678h2.678v-2.143H2.68a.55.55 0 0 1-.536-.535v-18.215a.55.55 0 0 1 .536-.535h18.214a.55.55 0 0 1 .536.535v2.679h2.142z"/></svg>