<svg viewBox="0 -54.9275 32.1429 29.4811" xmlns="http://www.w3.org/2000/svg"><path d="M15-40.195a4.294 4.294 0 0 1-4.286 4.285 4.294 4.294 0 0 1-4.285-4.285 4.294 4.294 0 0 1 4.285-4.286A4.294 4.294 0 0 1 15-40.195zm12.857 8.571a2.147 2.147 0 0 1-2.143 2.143 2.147 2.147 0 0 1-2.143-2.143c0-1.172.971-2.143 2.143-2.143 1.172 0 2.143.971 2.143 2.143zm0-17.143a2.147 2.147 0 0 1-2.143 2.143 2.147 2.147 0 0 1-2.143-2.143c0-1.172.971-2.143 2.143-2.143 1.172 0 2.143.971 2.143 2.143zm-6.428 7.048a.519.519 0 0 0-.402-.502l-2.545-.385c-.15-.469-.351-.92-.569-1.373.469-.653.971-1.255 1.456-1.908a.57.57 0 0 0 .118-.318c0-.47-1.976-2.277-2.411-2.679a.54.54 0 0 0-.352-.134.512.512 0 0 0-.334.117l-1.976 1.49c-.402-.2-.82-.385-1.255-.519l-.386-2.561c-.033-.234-.267-.419-.502-.419H9.157a.533.533 0 0 0-.502.402c-.217.82-.301 1.741-.385 2.578a8.71 8.71 0 0 0-1.289.536l-1.925-1.507a.631.631 0 0 0-.352-.117c-.485 0-2.36 2.026-2.695 2.478a.512.512 0 0 0-.117.335c0 .117.05.234.117.334a27.167 27.167 0 0 1 1.507 1.926 7.61 7.61 0 0 0-.536 1.272l-2.595.402c-.218.033-.385.284-.385.502v3.097c0 .234.167.452.402.486l2.544.401c.151.47.352.921.586 1.373-.485.653-.987 1.272-1.473 1.909a.57.57 0 0 0-.117.318c0 .485 1.975 2.277 2.41 2.678a.54.54 0 0 0 .352.134.483.483 0 0 0 .335-.117l1.976-1.49c.401.201.82.385 1.255.519l.385 2.561c.034.235.268.419.502.419h3.114a.533.533 0 0 0 .502-.402c.218-.82.302-1.74.386-2.595.452-.134.87-.301 1.289-.519l1.925 1.507c.1.067.217.117.351.117.486 0 2.36-2.042 2.696-2.494a.442.442 0 0 0 .117-.318.579.579 0 0 0-.117-.335 27.165 27.165 0 0 1-1.507-1.925 7.61 7.61 0 0 0 .536-1.273l2.595-.401c.217-.034.385-.285.385-.503zm10.714 8.923c0-.25-2.16-.485-2.495-.519a4.52 4.52 0 0 0-.502-.87c.15-.335.854-2.01.854-2.31a.145.145 0 0 0-.067-.118c-.2-.117-1.992-1.172-2.076-1.172l-.1.034c-.57.57-1.072 1.222-1.54 1.875-.168-.017-.335-.034-.503-.034-.167 0-.334.017-.502.034-.167-.251-1.423-1.909-1.64-1.909-.084 0-1.876 1.072-2.076 1.172a.145.145 0 0 0-.067.117c0 .285.703 1.976.853 2.31-.2.269-.368.57-.502.871-.335.034-2.494.268-2.494.52v2.343c0 .251 2.16.485 2.494.519.134.318.302.603.502.87-.15.335-.853 2.026-.853 2.31 0 .034.016.084.067.118.2.117 1.992 1.189 2.075 1.189.218 0 1.474-1.675 1.641-1.926.168.017.335.034.502.034.168 0 .335-.017.503-.034.167.251 1.423 1.926 1.64 1.926.084 0 1.875-1.072 2.076-1.189.05-.034.067-.067.067-.117 0-.302-.703-1.976-.854-2.31.201-.268.369-.553.503-.871.334-.034 2.494-.268 2.494-.519zm0-17.143c0-.25-2.16-.485-2.495-.519a4.52 4.52 0 0 0-.502-.87c.15-.335.854-2.01.854-2.31a.145.145 0 0 0-.067-.118c-.2-.117-1.992-1.172-2.076-1.172l-.1.034c-.57.57-1.072 1.222-1.54 1.875a5.059 5.059 0 0 0-.503-.034c-.167 0-.334.017-.502.034-.167-.251-1.423-1.909-1.64-1.909-.084 0-1.876 1.072-2.076 1.172a.145.145 0 0 0-.067.118c0 .284.703 1.975.853 2.31-.2.268-.368.569-.502.87-.335.034-2.494.268-2.494.52v2.343c0 .251 2.16.486 2.494.52.134.317.302.602.502.87-.15.334-.853 2.025-.853 2.31 0 .033.016.084.067.117.2.117 1.992 1.189 2.075 1.189.218 0 1.474-1.674 1.641-1.926.168.017.335.034.502.034.168 0 .335-.017.503-.034.167.252 1.423 1.926 1.64 1.926.084 0 1.875-1.072 2.076-1.189.05-.033.067-.067.067-.117 0-.301-.703-1.976-.854-2.31.201-.268.369-.553.503-.87.334-.034 2.494-.269 2.494-.52z"/></svg>