<?xml version="1.0" encoding="UTF-8"?>
<svg width="26" height="26" version="1.1" viewBox="0 -49.2858 25.7143 25.7143" xmlns="http://www.w3.org/2000/svg" xmlns:xlink="http://www.w3.org/1999/xlink">
    <!--Generated by IJSVG (https://github.com/curthard89/IJSVG)-->
    <g fill="#000000">
        <path d="M25.7143,12.8572c0,-7.08148 -5.77568,-12.8572 -12.8572,-12.8572c-3.298,0 -6.49554,1.32255 -8.85604,3.54911l-2.17634,-2.1596c-0.30134,-0.318081 -0.77009,-0.401787 -1.15514,-0.234376c-0.401787,0.167411 -0.669644,0.552456 -0.669644,0.987725v7.50001c0,0.585938 0.485492,1.07143 1.07143,1.07143h7.50001c0.435268,0 0.820313,-0.267857 0.987724,-0.669643c0.167411,-0.385045 0.083706,-0.853796 -0.234375,-1.15514l-2.29353,-2.31027c1.55692,-1.45647 3.63282,-2.29353 5.8259,-2.29353c4.72099,0 8.57144,3.85045 8.57144,8.57144c0,4.72099 -3.85045,8.57144 -8.57144,8.57144c-2.66183,0 -5.12277,-1.20536 -6.7634,-3.33148c-0.083705,-0.117188 -0.234375,-0.184152 -0.385045,-0.200893c-0.15067,0 -0.301339,0.050223 -0.418527,0.150669l-2.29353,2.31027c-0.184152,0.184152 -0.200893,0.502233 -0.033482,0.719867c2.4442,2.94643 6.06028,4.63728 9.89399,4.63728c7.08148,0 12.8572,-5.77568 12.8572,-12.8572Zm-10.7143,-4.82143c0,-0.30134 -0.234375,-0.535715 -0.535715,-0.535715h-1.07143c-0.30134,0 -0.535715,0.234375 -0.535715,0.535715v5.89286h-3.75c-0.30134,0 -0.535715,0.234375 -0.535715,0.535715v1.07143c0,0.301339 0.234375,0.535715 0.535715,0.535715h5.35715c0.30134,0 0.535715,-0.234376 0.535715,-0.535715Z" transform="translate(0, -49.2858)"></path>
    </g>
</svg>