<?xml version="1.0" encoding="UTF-8" standalone="no"?>
<svg version="1.1" viewBox="0 -47.1429 30 23.5715" xmlns="http://www.w3.org/2000/svg" xmlns:xlink="http://www.w3.org/1999/xlink">
    <!--Generated by IJSVG (https://github.com/curthard89/IJSVG)-->
    <g fill="#000000">
        <path d="M6.42858,17.6786c0,-0.284598 -0.251116,-0.535715 -0.535715,-0.535715h-1.07143c-0.284598,0 -0.535715,0.251117 -0.535715,0.535715v1.07143c0,0.284599 0.251117,0.535715 0.535715,0.535715h1.07143c0.284599,0 0.535715,-0.251116 0.535715,-0.535715Zm0,-4.28572c0,-0.284599 -0.251116,-0.535715 -0.535715,-0.535715h-1.07143c-0.284598,0 -0.535715,0.251116 -0.535715,0.535715v1.07143c0,0.284598 0.251117,0.535715 0.535715,0.535715h1.07143c0.284599,0 0.535715,-0.251117 0.535715,-0.535715Zm0,-4.28572c0,-0.284598 -0.251116,-0.535715 -0.535715,-0.535715h-1.07143c-0.284598,0 -0.535715,0.251117 -0.535715,0.535715v1.07143c0,0.284599 0.251117,0.535715 0.535715,0.535715h1.07143c0.284599,0 0.535715,-0.251116 0.535715,-0.535715Zm19.2857,8.57144c0,-0.284598 -0.251116,-0.535715 -0.535715,-0.535715h-16.0714c-0.284599,0 -0.535715,0.251117 -0.535715,0.535715v1.07143c0,0.284599 0.251116,0.535715 0.535715,0.535715h16.0714c0.284599,0 0.535715,-0.251116 0.535715,-0.535715Zm0,-4.28572c0,-0.284599 -0.251116,-0.535715 -0.535715,-0.535715h-16.0714c-0.284599,0 -0.535715,0.251116 -0.535715,0.535715v1.07143c0,0.284598 0.251116,0.535715 0.535715,0.535715h16.0714c0.284599,0 0.535715,-0.251117 0.535715,-0.535715Zm0,-4.28572c0,-0.284598 -0.251116,-0.535715 -0.535715,-0.535715h-16.0714c-0.284599,0 -0.535715,0.251117 -0.535715,0.535715v1.07143c0,0.284599 0.251116,0.535715 0.535715,0.535715h16.0714c0.284599,0 0.535715,-0.251116 0.535715,-0.535715Zm2.14286,11.7857c0,0.284598 -0.251116,0.535715 -0.535715,0.535715h-24.6429c-0.284599,0 -0.535715,-0.251117 -0.535715,-0.535715v-13.9286c0,-0.284599 0.251116,-0.535715 0.535715,-0.535715h24.6429c0.284599,0 0.535715,0.251116 0.535715,0.535715Zm2.14286,-18.2143c0,-1.47322 -1.20536,-2.67857 -2.67858,-2.67857h-24.6429c-1.47322,0 -2.67857,1.20536 -2.67857,2.67857v18.2143c0,1.47322 1.20536,2.67857 2.67857,2.67857h24.6429c1.47322,0 2.67858,-1.20536 2.67858,-2.67857Z" transform="translate(0, -47.1429)"></path>
    </g>
</svg>