<?xml version="1.0" encoding="UTF-8" standalone="no"?>
<svg version="1.1" viewBox="0 -47.1764 30.0168 23.5882" xmlns="http://www.w3.org/2000/svg" xmlns:xlink="http://www.w3.org/1999/xlink">
    <!--Generated by IJSVG (https://github.com/curthard89/IJSVG)-->
    <g fill="#000000">
        <path d="M14.8661,17.6953h-0.937501v-1.60714h-1.60714v-0.937501l1.94197,-1.94197l2.54465,2.54465Zm7.36608,-12.0536c0.15067,0.15067 0.133929,0.401786 -0.016741,0.552456l-5.85938,5.85938c-0.15067,0.15067 -0.401786,0.167411 -0.552456,0.016741c-0.15067,-0.150669 -0.133928,-0.401786 0.016741,-0.552456l5.85938,-5.85938c0.15067,-0.150669 0.401787,-0.167411 0.552456,-0.016741Zm1.33929,9.94421c0,-0.217635 -0.133929,-0.401787 -0.334822,-0.485492c-0.200893,-0.083706 -0.418527,-0.050223 -0.585938,0.117188l-1.07143,1.07143c-0.100447,0.100447 -0.15067,0.234376 -0.15067,0.368304v2.10938c0,1.47322 -1.20536,2.67857 -2.67857,2.67857h-13.9286c-1.47322,0 -2.67857,-1.20536 -2.67857,-2.67857v-13.9286c0,-1.47322 1.20536,-2.67858 2.67857,-2.67858h13.9286c0.251117,0 0.502233,0.033482 0.753349,0.100447c0.184152,0.066964 0.385046,0.016741 0.535715,-0.133929l0.820314,-0.820313c0.133929,-0.133929 0.184152,-0.30134 0.15067,-0.485492c-0.033482,-0.167411 -0.15067,-0.318081 -0.30134,-0.385045c-0.61942,-0.284599 -1.28906,-0.418527 -1.95871,-0.418527h-13.9286c-2.66183,0 -4.82143,2.1596 -4.82143,4.82143v13.9286c0,2.66183 2.1596,4.82143 4.82143,4.82143h13.9286c2.66183,0 4.82143,-2.1596 4.82143,-4.82143Zm-1.60714,-12.3549l-11.25,11.25v4.82143h4.82144l11.25,-11.25Zm7.43304,2.20982c0.619421,-0.61942 0.619421,-1.65737 0,-2.27679l-2.54464,-2.54465c-0.619421,-0.619421 -1.65737,-0.619421 -2.27679,0l-1.54018,1.54018l4.82143,4.82144Z" transform="translate(0, -47.1764)"></path>
    </g>
</svg>