<svg viewBox="0 -47.1764 30.0168 23.5882" xmlns="http://www.w3.org/2000/svg"><path d="M14.866-29.481h-.937v-1.607H12.32v-.938l1.942-1.942 2.545 2.545zm7.366-12.054c.15.151.134.402-.017.553l-5.859 5.86c-.15.15-.402.167-.552.016-.151-.15-.134-.402.016-.553l5.86-5.859c.15-.15.402-.167.552-.017zm1.34 9.945a.525.525 0 0 0-.335-.486.518.518 0 0 0-.586.117l-1.072 1.072a.52.52 0 0 0-.15.368v2.11a2.686 2.686 0 0 1-2.679 2.678H4.821a2.686 2.686 0 0 1-2.678-2.679v-13.928a2.686 2.686 0 0 1 2.678-2.679H18.75c.251 0 .502.034.753.1a.504.504 0 0 0 .536-.133l.82-.82a.526.526 0 0 0 .151-.486.546.546 0 0 0-.301-.385 4.684 4.684 0 0 0-1.959-.419H4.821A4.823 4.823 0 0 0 0-42.338v13.928a4.823 4.823 0 0 0 4.821 4.822H18.75a4.823 4.823 0 0 0 4.821-4.822zm-1.608-12.355l-11.25 11.25v4.821h4.822l11.25-11.25zm7.433 2.21c.62-.62.62-1.658 0-2.277l-2.544-2.545a1.627 1.627 0 0 0-2.277 0l-1.54 1.54 4.821 4.822z"/></svg>