<?xml version="1.0" encoding="UTF-8" standalone="no"?>
<svg version="1.1" viewBox="0 -53.5715 25.7143 27.8572" xmlns="http://www.w3.org/2000/svg" xmlns:xlink="http://www.w3.org/1999/xlink">
    <!--Generated by IJSVG (https://github.com/curthard89/IJSVG)-->
    <g fill="#000000">
        <path d="M25.7143,15c0,-4.06809 -1.875,-7.81809 -5.13951,-10.2623c-0.937501,-0.719867 -2.29353,-0.535714 -2.99666,0.418528c-0.719867,0.937501 -0.518974,2.29353 0.418527,2.99665c2.17634,1.64063 3.43192,4.13505 3.43192,6.84711c0,4.72099 -3.85045,8.57144 -8.57144,8.57144c-4.72099,0 -8.57144,-3.85045 -8.57144,-8.57144c0,-2.71206 1.25558,-5.20648 3.43192,-6.84711c0.937501,-0.703126 1.13839,-2.05915 0.418527,-2.99665c-0.703125,-0.954242 -2.04241,-1.1384 -2.99665,-0.418528c-3.26451,2.4442 -5.13952,6.1942 -5.13952,10.2623c0,7.08148 5.77568,12.8572 12.8572,12.8572c7.08148,0 12.8572,-5.77568 12.8572,-12.8572Zm-10.7143,-12.8572c0,-1.17188 -0.970983,-2.14286 -2.14286,-2.14286c-1.17188,0 -2.14286,0.970983 -2.14286,2.14286v10.7143c0,1.17188 0.970984,2.14286 2.14286,2.14286c1.17188,0 2.14286,-0.970983 2.14286,-2.14286Z" transform="translate(0, -53.5715)"></path>
    </g>
</svg>