<svg width="30" height="26" viewBox="0 -49.2858 30 25.7143" xmlns="http://www.w3.org/2000/svg"><path d="M27.857-41.451c0 3.064-3.097 5.91-3.147 5.96L15-26.133l-9.727-9.375c-.033-.033-3.13-2.88-3.13-5.943 0-4.704 3.18-5.692 5.86-5.692 2.494 0 5.306 2.695 6.177 3.733.402.486 1.239.486 1.64 0 .87-1.038 3.683-3.733 6.178-3.733 2.678 0 5.86.988 5.86 5.692zm2.143 0c0-4.905-2.997-7.835-8.002-7.835-2.93 0-5.675 2.31-6.998 3.616-1.323-1.306-4.068-3.616-6.998-3.616C2.997-49.286 0-46.356 0-41.45c0 4.018 3.683 7.383 3.817 7.5l10.446 10.078c.201.201.47.301.737.301.268 0 .536-.1.737-.3l10.43-10.046c.15-.15 3.833-3.515 3.833-7.533z"/></svg>