<?xml version="1.0" encoding="UTF-8" standalone="no"?>
<svg width="30" height="26" version="1.1" viewBox="0 -49.2858 30 25.7143" xmlns="http://www.w3.org/2000/svg" xmlns:xlink="http://www.w3.org/1999/xlink">
    <!--Generated by IJSVG (https://github.com/curthard89/IJSVG)-->
    <g fill="#000000">
        <path d="M27.8572,7.83483c0,3.06362 -3.0971,5.9096 -3.14732,5.95983l-9.70983,9.35827l-9.72657,-9.37501c-0.033482,-0.033482 -3.13058,-2.87947 -3.13058,-5.94309c0,-4.70425 3.18081,-5.69197 5.85938,-5.69197c2.49442,0 5.30693,2.69532 6.17746,3.73326c0.401787,0.485492 1.23884,0.485492 1.64063,0c0.870537,-1.03795 3.68304,-3.73326 6.17746,-3.73326c2.67858,0 5.85938,0.987724 5.85938,5.69197Zm2.14286,0c0,-4.90514 -2.99666,-7.83483 -8.00224,-7.83483c-2.92969,0 -5.67523,2.31027 -6.99778,3.61608c-1.32255,-1.3058 -4.06808,-3.61608 -6.99778,-3.61608c-5.00559,0 -8.00224,2.92969 -8.00224,7.83483c0,4.01786 3.68304,7.38282 3.81697,7.50001l10.4464,10.0781c0.200893,0.200893 0.46875,0.301339 0.736608,0.301339c0.267857,0 0.535715,-0.100446 0.736608,-0.301339l10.4297,-10.0447c0.15067,-0.15067 3.83371,-3.51563 3.83371,-7.53349Z" transform="translate(0, -49.2858)"></path>
    </g>
</svg>