<?xml version="1.0" encoding="UTF-8"?>
<svg width="26" height="26" version="1.1" viewBox="0 -49.2858 25.7143 25.7143" xmlns="http://www.w3.org/2000/svg" xmlns:xlink="http://www.w3.org/1999/xlink">
    <!--Generated by IJSVG (https://github.com/curthard89/IJSVG)-->
    <g fill="#000000">
        <path d="M17.1429,12.8572c0,-2.36049 -1.92523,-4.28572 -4.28572,-4.28572c-2.36049,0 -4.28572,1.92522 -4.28572,4.28572c0,2.36049 1.92523,4.28572 4.28572,4.28572c2.36049,0 4.28572,-1.92523 4.28572,-4.28572Zm2.14286,0c0,3.54911 -2.87947,6.42858 -6.42858,6.42858c-3.54911,0 -6.42858,-2.87947 -6.42858,-6.42858c0,-3.54911 2.87947,-6.42858 6.42858,-6.42858c3.54911,0 6.42858,2.87947 6.42858,6.42858Zm2.14286,0c0,-4.73773 -3.83371,-8.57144 -8.57144,-8.57144c-4.73773,0 -8.57144,3.83371 -8.57144,8.57144c0,4.73773 3.83371,8.57144 8.57144,8.57144c4.73773,0 8.57144,-3.83371 8.57144,-8.57144Zm2.14286,0c0,5.9096 -4.80469,10.7143 -10.7143,10.7143c-5.9096,0 -10.7143,-4.80469 -10.7143,-10.7143c-4.44089e-16,-5.9096 4.80469,-10.7143 10.7143,-10.7143c5.90961,0 10.7143,4.80469 10.7143,10.7143Zm2.14286,0c0,-7.09822 -5.75894,-12.8572 -12.8572,-12.8572c-7.09822,0 -12.8572,5.75894 -12.8572,12.8572c0,7.09822 5.75894,12.8572 12.8572,12.8572c7.09822,0 12.8572,-5.75894 12.8572,-12.8572Z" transform="translate(0, -49.2858)"></path>
    </g>
</svg>