<?xml version="1.0" encoding="UTF-8"?>
<svg width="30" height="26" version="1.1" viewBox="0 -51.4286 30 25.7143" xmlns="http://www.w3.org/2000/svg" xmlns:xlink="http://www.w3.org/1999/xlink">
    <!--Generated by IJSVG (https://github.com/curthard89/IJSVG)-->
    <g fill="#000000">
        <path d="M10.7143,4.28572v-2.14286h8.57144v2.14286Zm19.2857,10.7143h-11.25v2.67858c0,0.585938 -0.485491,1.07143 -1.07143,1.07143h-5.35715c-0.585938,0 -1.07143,-0.485492 -1.07143,-1.07143v-2.67858h-11.25v8.03572c0,1.47322 1.20536,2.67857 2.67857,2.67857h24.6429c1.47322,0 2.67858,-1.20536 2.67858,-2.67857Zm-12.8572,0h-4.28572v2.14286h4.28572Zm12.8572,-8.03572c0,-1.47322 -1.20536,-2.67857 -2.67858,-2.67857h-5.89286v-2.67858c0,-0.887278 -0.719867,-1.60714 -1.60714,-1.60714h-9.64287c-0.887278,0 -1.60715,0.719867 -1.60715,1.60714v2.67858h-5.89286c-1.47322,0 -2.67858,1.20536 -2.67858,2.67857v6.42858h30Z" transform="translate(0, -51.4286)"></path>
    </g>
</svg>