<?xml version="1.0" encoding="UTF-8" standalone="no"?>
<svg width="30" height="26" version="1.1" viewBox="0 -49.721 30 26.1496" xmlns="http://www.w3.org/2000/svg" xmlns:xlink="http://www.w3.org/1999/xlink">
    <!--Generated by IJSVG (https://github.com/curthard89/IJSVG)-->
    <g fill="#000000">
        <path d="M27.8572,8.57144v-6.42858c0,-1.17188 -0.970983,-2.14286 -2.14286,-2.14286c-3.21429,2.67857 -8.57144,6.42858 -15,6.42858h-8.03572c-1.47322,0 -2.67858,1.20536 -2.67858,2.67857v3.21429c0,1.47322 1.20536,2.67857 2.67857,2.67857h2.04241c-1.17188,3.76675 0.267857,6.74666 1.23884,9.72658c1.54018,1.42299 5.85938,1.38951 6.89733,-0.652903c-1.77456,-1.38951 -3.28125,-2.74554 -2.10938,-4.67076c-1.3058,-1.33929 -0.619421,-3.6663 1.37277,-4.33594c5.80916,0.485491 10.6139,3.88393 13.5938,6.36161c1.17188,0 2.14286,-0.970984 2.14286,-2.14286v-6.42858c1.18862,0 2.14286,-0.954242 2.14286,-2.14286c0,-1.18862 -0.954242,-2.14286 -2.14286,-2.14286Zm-2.14286,10.1116c-4.36942,-3.34822 -8.60492,-5.23996 -12.8572,-5.70871v-4.52009c4.25224,-0.468751 8.48773,-2.39398 12.8572,-5.7422Z" transform="translate(0, -49.721)"></path>
    </g>
</svg>