<?xml version="1.0" encoding="UTF-8" standalone="no"?>
<svg width="26" height="26" version="1.1" viewBox="0 -49.2858 25.7143 25.7143" xmlns="http://www.w3.org/2000/svg" xmlns:xlink="http://www.w3.org/1999/xlink">
    <!--Generated by IJSVG (https://github.com/curthard89/IJSVG)-->
    <g fill="#000000">
        <path d="M15,6.96429c0,-0.30134 -0.234375,-0.535715 -0.535715,-0.535715h-1.07143c-0.30134,0 -0.535715,0.234375 -0.535715,0.535715v5.89286h-3.75c-0.30134,0 -0.535715,0.234375 -0.535715,0.535715v1.07143c0,0.30134 0.234375,0.535715 0.535715,0.535715h5.35715c0.30134,0 0.535715,-0.234375 0.535715,-0.535715Zm6.96429,5.89286c0,5.02233 -4.08483,9.10715 -9.10715,9.10715c-5.02233,0 -9.10715,-4.08483 -9.10715,-9.10715c-4.44089e-16,-5.02233 4.08483,-9.10715 9.10715,-9.10715c5.02233,0 9.10715,4.08483 9.10715,9.10715Zm3.75,0c0,-7.09822 -5.75894,-12.8572 -12.8572,-12.8572c-7.09822,0 -12.8572,5.75894 -12.8572,12.8572c0,7.09822 5.75894,12.8572 12.8572,12.8572c7.09822,0 12.8572,-5.75894 12.8572,-12.8572Z" transform="translate(0, -49.2858)"></path>
    </g>
</svg>