<svg viewBox="0 -47.1429 32.1429 23.5715" xmlns="http://www.w3.org/2000/svg"><path d="M21.429-33.75c0 .15-.067.285-.168.402l-5.876 5.876c-.1.1-.251.15-.385.15a.53.53 0 0 1-.385-.15l-5.893-5.893a.559.559 0 0 1-.15-.385.54.54 0 0 1 .535-.536h3.75v-5.893a.55.55 0 0 1 .536-.535h3.214a.55.55 0 0 1 .536.535v5.893h3.75c.301 0 .536.235.536.536zM32.143-30c0-2.98-2.06-5.575-4.972-6.261.452-.687.686-1.49.686-2.31a4.294 4.294 0 0 0-4.286-4.286 4.236 4.236 0 0 0-2.779 1.038 8.586 8.586 0 0 0-7.935-5.324 8.567 8.567 0 0 0-8.571 8.572c0 .234.016.468.033.72A7.479 7.479 0 0 0 0-31.072c0 4.135 3.365 7.5 7.5 7.5h18.214A6.43 6.43 0 0 0 32.143-30z"/></svg>