<svg viewBox="0 -47.1429 32.1429 23.5715" xmlns="http://www.w3.org/2000/svg"><path d="M21.429-34.822a.54.54 0 0 1-.536.536h-3.75v5.893a.55.55 0 0 1-.536.536h-3.214a.55.55 0 0 1-.536-.536v-5.893h-3.75a.529.529 0 0 1-.536-.535c0-.151.067-.285.168-.402l5.876-5.876c.1-.1.251-.151.385-.151.15 0 .285.05.385.15l5.893 5.893c.1.1.15.252.15.385zM32.143-30c0-2.98-2.06-5.575-4.972-6.261.452-.687.686-1.49.686-2.31a4.294 4.294 0 0 0-4.286-4.286 4.236 4.236 0 0 0-2.779 1.038 8.586 8.586 0 0 0-7.935-5.324 8.567 8.567 0 0 0-8.571 8.571c0 .235.016.47.033.72A7.479 7.479 0 0 0 0-31.072c0 4.136 3.365 7.5 7.5 7.5h18.214A6.43 6.43 0 0 0 32.143-30z"/></svg>