<?xml version="1.0" encoding="UTF-8" standalone="no"?>
<svg version="1.1" viewBox="0 -47.1429 32.1429 23.5715" xmlns="http://www.w3.org/2000/svg" xmlns:xlink="http://www.w3.org/1999/xlink">
    <!--Generated by IJSVG (https://github.com/curthard89/IJSVG)-->
    <g fill="#000000">
        <path d="M21.4286,13.3929c0,0.15067 -0.066964,0.284598 -0.167411,0.401786l-5.87612,5.87612c-0.100447,0.100447 -0.251116,0.15067 -0.385045,0.15067c-0.15067,0 -0.284599,-0.050223 -0.385045,-0.15067l-5.89286,-5.89286c-0.100447,-0.100447 -0.15067,-0.251117 -0.15067,-0.385045c0,-0.284599 0.234375,-0.535715 0.535715,-0.535715h3.75v-5.89286c0,-0.284599 0.251117,-0.535715 0.535715,-0.535715h3.21429c0.284598,0 0.535715,0.251116 0.535715,0.535715v5.89286h3.75c0.30134,0 0.535715,0.234375 0.535715,0.535715Zm10.7143,3.75c0,-2.97991 -2.05915,-5.57478 -4.9721,-6.26117c0.45201,-0.686385 0.686385,-1.48996 0.686385,-2.31027c0,-2.36049 -1.92522,-4.28572 -4.28572,-4.28572c-1.02121,0 -2.00893,0.368304 -2.77902,1.03795c-1.32255,-3.21429 -4.45313,-5.32367 -7.93528,-5.32367c-4.73773,0 -8.57144,3.83371 -8.57144,8.57144c0,0.234376 0.016741,0.468751 0.033483,0.719867c-2.62835,1.2221 -4.3192,3.86719 -4.3192,6.78014c0,4.13505 3.36496,7.50001 7.50001,7.50001h18.2143c3.54911,0 6.42858,-2.87947 6.42858,-6.42858Z" transform="translate(0, -47.1429)"></path>
    </g>
</svg>