<svg viewBox="0 -49.2858 17.1429 25.7143" xmlns="http://www.w3.org/2000/svg"><path d="M4.821-26.786a1.608 1.608 0 1 1-3.215 0 1.608 1.608 0 0 1 3.215 0zm0-19.285a1.608 1.608 0 1 1-3.215-.001 1.608 1.608 0 0 1 3.215 0zm10.715 2.142a1.608 1.608 0 1 1-3.215 0 1.608 1.608 0 0 1 3.215 0zm1.607 0a3.215 3.215 0 0 0-6.429 0c0 1.189.653 2.227 1.607 2.78-.033 3.498-1.808 4.235-4.921 5.223-.82.25-1.725.535-2.579.954v-8.32a3.215 3.215 0 0 0 1.608-2.78 3.215 3.215 0 0 0-6.429 0c0 1.19.653 2.227 1.607 2.78v13.727A3.215 3.215 0 0 0 0-26.785a3.215 3.215 0 0 0 6.429 0 3.215 3.215 0 0 0-1.608-2.78V-30c0-1.624.871-2.026 3.533-2.863 2.846-.904 7.132-2.243 7.182-8.287a3.215 3.215 0 0 0 1.607-2.779z"/></svg>