<?xml version="1.0" encoding="UTF-8" standalone="no"?>
<svg version="1.1" viewBox="0 -45.0335 30 23.6049" xmlns="http://www.w3.org/2000/svg" xmlns:xlink="http://www.w3.org/1999/xlink">
    <!--Generated by IJSVG (https://github.com/curthard89/IJSVG)-->
    <g fill="#000000">
        <path d="M23.5715,8.57144c0,-4.73773 -5.27344,-8.57144 -11.7857,-8.57144c-6.51228,0 -11.7857,3.83371 -11.7857,8.57144c0,2.71206 1.74107,5.13951 4.45313,6.71318c-0.569197,1.38951 -1.3058,2.04241 -1.95871,2.77902c-0.184152,0.217634 -0.401787,0.418527 -0.334822,0.736608c0.050223,0.284598 0.284598,0.485491 0.535715,0.485491c0.016741,0 0.033482,0 0.050223,0c0.502233,-0.066964 0.987724,-0.150669 1.43973,-0.267857c1.69085,-0.435268 3.26451,-1.15514 4.65402,-2.14286c0.937501,0.167411 1.92523,0.267858 2.94643,0.267858c6.51229,0 11.7857,-3.83371 11.7857,-8.57144Zm6.42858,4.28572c0,-2.79576 -1.84152,-5.27344 -4.67077,-6.83037c0.251117,0.820314 0.385045,1.67411 0.385045,2.54465c0,2.99665 -1.54018,5.75894 -4.33594,7.80135c-2.59487,1.875 -5.99331,2.91295 -9.59265,2.91295c-0.485491,0 -0.987724,-0.033482 -1.47322,-0.066964c2.09264,1.37277 4.87166,2.20982 7.9018,2.20982c1.02121,0 2.00893,-0.100446 2.94643,-0.267857c1.38951,0.987724 2.96317,1.70759 4.65402,2.14286c0.452009,0.117188 0.937501,0.200893 1.43973,0.267858c0.267857,0.033482 0.518974,-0.184152 0.585938,-0.485492c0.066964,-0.318081 -0.15067,-0.518974 -0.334822,-0.736608c-0.652902,-0.736608 -1.38951,-1.38951 -1.95871,-2.77902c2.71206,-1.57366 4.45313,-3.98438 4.45313,-6.71318Z" transform="translate(0, -45.0335)"></path>
    </g>
</svg>