<svg viewBox="0 -55.7144 25.7143 30" xmlns="http://www.w3.org/2000/svg"><path d="M12.857-42.857c-5.039 0-10.095-.904-12.857-2.846v2.846c0 2.36 5.759 4.286 12.857 4.286 7.098 0 12.857-1.926 12.857-4.286v-2.846c-2.762 1.942-7.818 2.846-12.857 2.846zm0 12.857C7.818-30 2.762-30.904 0-32.846V-30c0 2.36 5.759 4.286 12.857 4.286 7.098 0 12.857-1.926 12.857-4.286v-2.846C22.952-30.904 17.896-30 12.857-30zm0-6.429c-5.039 0-10.095-.904-12.857-2.846v2.846c0 2.36 5.759 4.286 12.857 4.286 7.098 0 12.857-1.925 12.857-4.286v-2.846c-2.762 1.942-7.818 2.846-12.857 2.846zm0-19.285C5.76-55.714 0-53.79 0-51.43v2.143C0-46.926 5.759-45 12.857-45c7.098 0 12.857-1.925 12.857-4.286v-2.143c0-2.36-5.759-4.285-12.857-4.285z"/></svg>