<?xml version="1.0" encoding="UTF-8" standalone="no"?>
<svg version="1.1" viewBox="0 -55.7144 25.7143 30" xmlns="http://www.w3.org/2000/svg" xmlns:xlink="http://www.w3.org/1999/xlink">
    <!--Generated by IJSVG (https://github.com/curthard89/IJSVG)-->
    <g fill="#000000">
        <path d="M12.8572,12.8572c-5.03907,0 -10.0949,-0.904019 -12.8572,-2.84598v2.84598c0,2.36049 5.75894,4.28572 12.8572,4.28572c7.09822,0 12.8572,-1.92522 12.8572,-4.28572v-2.84598c-2.76228,1.94197 -7.81809,2.84598 -12.8572,2.84598Zm0,12.8572c-5.03907,0 -10.0949,-0.904019 -12.8572,-2.84598v2.84598c0,2.36049 5.75894,4.28572 12.8572,4.28572c7.09822,0 12.8572,-1.92523 12.8572,-4.28572v-2.84598c-2.76228,1.94197 -7.81809,2.84598 -12.8572,2.84598Zm0,-6.42858c-5.03907,0 -10.0949,-0.904019 -12.8572,-2.84598v2.84598c0,2.36049 5.75894,4.28572 12.8572,4.28572c7.09822,0 12.8572,-1.92523 12.8572,-4.28572v-2.84598c-2.76228,1.94197 -7.81809,2.84598 -12.8572,2.84598Zm0,-19.2857c-7.09822,0 -12.8572,1.92522 -12.8572,4.28572v2.14286c0,2.36049 5.75894,4.28572 12.8572,4.28572c7.09822,0 12.8572,-1.92523 12.8572,-4.28572v-2.14286c0,-2.36049 -5.75894,-4.28572 -12.8572,-4.28572Z" transform="translate(0, -55.7144)"></path>
    </g>
</svg>