<?xml version="1.0" encoding="UTF-8"?>
<svg width="30" height="24" version="1.1" viewBox="0 -45.0001 30 23.5715" xmlns="http://www.w3.org/2000/svg" xmlns:xlink="http://www.w3.org/1999/xlink">
    <!--Generated by IJSVG (https://github.com/curthard89/IJSVG)-->
    <g fill="#000000">
        <path d="M30,7.60046c-0.502233,0.552456 -1.07143,1.03795 -1.67411,1.45647c-2.79576,1.89174 -5.60827,3.80023 -8.33706,5.77568c-1.40625,1.03795 -3.14732,2.31027 -4.9721,2.31027h-0.016741h-0.016741c-1.82478,0 -3.56585,-1.27232 -4.9721,-2.31027c-2.7288,-1.99219 -5.5413,-3.88393 -8.32032,-5.77568c-0.61942,-0.418527 -1.18862,-0.904019 -1.69085,-1.45647v13.2924c0,1.47322 1.20536,2.67857 2.67857,2.67857h24.6429c1.47322,0 2.67858,-1.20536 2.67858,-2.67857Zm0,-4.92188c0,-1.47322 -1.2221,-2.67858 -2.67858,-2.67858h-24.6429c-1.7913,0 -2.67857,1.40625 -2.67857,3.04688c0,1.52344 1.69085,3.41518 2.87947,4.21876c2.59487,1.80804 5.22322,3.61608 7.81809,5.44085c1.08817,0.753349 2.92969,2.29353 4.28572,2.29353h0.016741h0.016741c1.35603,0 3.19755,-1.54018 4.28572,-2.29353c2.59487,-1.82478 5.22322,-3.63282 7.83483,-5.44085c1.47322,-1.02121 2.86273,-2.71206 2.86273,-4.58706Z" transform="translate(0, -45.0001)"></path>
    </g>
</svg>