<?xml version="1.0" encoding="UTF-8" standalone="no"?>
<svg version="1.1" viewBox="0 -55.7144 25.7143 30" xmlns="http://www.w3.org/2000/svg" xmlns:xlink="http://www.w3.org/1999/xlink">
    <!--Generated by IJSVG (https://github.com/curthard89/IJSVG)-->
    <g fill="#000000">
        <path d="M24.5759,7.96876l-6.83036,-6.83037c-0.167411,-0.167411 -0.368304,-0.318081 -0.602679,-0.46875v7.90179h7.90179c-0.15067,-0.234376 -0.30134,-0.435269 -0.468751,-0.60268Zm-7.96876,2.74554c-0.887278,0 -1.60714,-0.719867 -1.60714,-1.60714v-9.10715h-13.3929c-0.887278,0 -1.60714,0.719867 -1.60714,1.60714v26.7857c0,0.887278 0.719867,1.60714 1.60715,1.60714h22.5c0.887277,0 1.60714,-0.719867 1.60714,-1.60714v-17.6786Zm2.67857,12.3214c0,0.301339 -0.234375,0.535715 -0.535715,0.535715h-11.7857c-0.30134,0 -0.535715,-0.234376 -0.535715,-0.535715v-1.07143c0,-0.30134 0.234375,-0.535715 0.535715,-0.535715h11.7857c0.30134,0 0.535715,0.234375 0.535715,0.535715Zm0,-4.28572c0,0.30134 -0.234375,0.535715 -0.535715,0.535715h-11.7857c-0.30134,0 -0.535715,-0.234375 -0.535715,-0.535715v-1.07143c0,-0.301339 0.234375,-0.535715 0.535715,-0.535715h11.7857c0.30134,0 0.535715,0.234376 0.535715,0.535715Zm0,-4.28572c0,0.301339 -0.234375,0.535715 -0.535715,0.535715h-11.7857c-0.30134,0 -0.535715,-0.234376 -0.535715,-0.535715v-1.07143c0,-0.30134 0.234375,-0.535715 0.535715,-0.535715h11.7857c0.30134,0 0.535715,0.234375 0.535715,0.535715Z" transform="translate(0, -55.7144)"></path>
    </g>
</svg>