<?xml version="1.0" encoding="UTF-8" standalone="no"?>
<svg version="1.1" viewBox="1.07143 -49.2858 28.9286 25.7143" xmlns="http://www.w3.org/2000/svg" xmlns:xlink="http://www.w3.org/1999/xlink">
    <!--Generated by IJSVG (https://github.com/curthard89/IJSVG)-->
    <g fill="#000000">
        <path d="M4.28572,2.14286c0,-1.18862 -0.954242,-2.14286 -2.14286,-2.14286c-1.18862,0 -2.14286,0.954242 -2.14286,2.14286c0,0.77009 0.418527,1.45647 1.07143,1.84152v21.1942c0,0.284599 0.251116,0.535715 0.535715,0.535715h1.07143c0.284599,0 0.535715,-0.251116 0.535715,-0.535715v-21.1942c0.652903,-0.385045 1.07143,-1.07143 1.07143,-1.84152Zm24.6429,1.07143c0,-0.585939 -0.485492,-1.07143 -1.07143,-1.07143c-0.736608,0 -3.56585,2.27679 -6.1942,2.27679c-0.518974,0 -1.00446,-0.083705 -1.47322,-0.318081c-2.32701,-1.08817 -4.38617,-1.95871 -7.01452,-1.95871c-2.37724,0 -4.93862,0.937501 -7.048,2.00893c-0.435268,0.217634 -0.92076,0.452009 -1.32255,0.719867c-0.318081,0.234375 -0.518974,0.518973 -0.518974,0.92076v12.4219c0,0.585939 0.485492,1.07143 1.07143,1.07143c0.200893,0 0.368304,-0.050223 0.552456,-0.15067c2.31027,-1.23884 5.10603,-2.4442 7.76787,-2.4442c3.64956,0 5.12277,2.34375 8.20313,2.34375c2.19308,0 4.28572,-0.92076 6.17746,-1.94197c0.485492,-0.251116 0.870537,-0.485491 0.870537,-1.10491Z" transform="translate(1.07143, -49.2858)"></path>
    </g>
</svg>