<?xml version="1.0" encoding="UTF-8" standalone="no"?>
<svg version="1.1" viewBox="0 -49.2858 25.7143 25.7143" xmlns="http://www.w3.org/2000/svg" xmlns:xlink="http://www.w3.org/1999/xlink">
    <!--Generated by IJSVG (https://github.com/curthard89/IJSVG)-->
    <g fill="#000000">
        <path d="M17.1429,12.8572c0,2.36049 -1.92523,4.28572 -4.28572,4.28572c-2.36049,0 -4.28572,-1.92523 -4.28572,-4.28572c0,-2.36049 1.92523,-4.28572 4.28572,-4.28572c2.36049,0 4.28572,1.92522 4.28572,4.28572Zm8.57144,-1.82478c0,-0.284598 -0.200893,-0.552456 -0.485491,-0.602679l-3.06362,-0.468751c-0.167411,-0.552456 -0.401786,-1.10491 -0.686385,-1.64063c0.569197,-0.786831 1.18862,-1.52344 1.75782,-2.29353c0.083705,-0.117188 0.133929,-0.234375 0.133929,-0.385045c0,-0.133929 -0.033483,-0.267858 -0.117188,-0.368304c-0.703126,-0.987725 -1.875,-2.02567 -2.76228,-2.84599c-0.117188,-0.100446 -0.267858,-0.167411 -0.418527,-0.167411c-0.15067,0 -0.30134,0.050224 -0.401787,0.15067l-2.37723,1.7913c-0.485491,-0.251116 -0.987724,-0.45201 -1.5067,-0.61942l-0.46875,-3.08036c-0.033483,-0.284599 -0.30134,-0.502233 -0.60268,-0.502233h-3.71652c-0.30134,0 -0.535715,0.200893 -0.602679,0.468751c-0.267858,1.00447 -0.368304,2.09264 -0.485492,3.11384c-0.518974,0.16741 -1.03795,0.385045 -1.52344,0.636161l-2.31027,-1.7913c-0.133929,-0.100446 -0.284598,-0.167411 -0.435268,-0.167411c-0.569197,0 -2.82924,2.4442 -3.23103,2.99666c-0.083705,0.117187 -0.15067,0.234375 -0.15067,0.385045c0,0.15067 0.066965,0.284598 0.167411,0.401786c0.619421,0.753349 1.2221,1.5067 1.7913,2.31027c-0.267857,0.502232 -0.485492,1.00446 -0.652903,1.54018l-3.11384,0.468751c-0.251116,0.050223 -0.452009,0.351562 -0.452009,0.602679v3.71652c0,0.284599 0.200893,0.552456 0.485492,0.602679l3.06362,0.45201c0.167411,0.569197 0.401787,1.12165 0.686385,1.65737c-0.569197,0.786831 -1.18862,1.52344 -1.75781,2.29353c-0.083706,0.117188 -0.133929,0.234376 -0.133929,0.385046c0,0.133928 0.033482,0.267857 0.117187,0.385045c0.703126,0.970983 1.875,2.00893 2.76228,2.8125c0.117187,0.117188 0.267857,0.184152 0.418527,0.184152c0.15067,0 0.301339,-0.050223 0.418527,-0.15067l2.36049,-1.7913c0.485492,0.251117 0.987724,0.45201 1.5067,0.619421l0.468751,3.08036c0.033482,0.284598 0.301339,0.502232 0.602679,0.502232h3.71652c0.30134,0 0.535715,-0.200893 0.60268,-0.46875c0.267857,-1.00447 0.368304,-2.09264 0.485491,-3.11384c0.518974,-0.167411 1.03795,-0.385045 1.52344,-0.636162l2.31027,1.80804c0.133929,0.083706 0.284599,0.15067 0.435269,0.15067c0.569197,0 2.82924,-2.46094 3.23103,-2.99666c0.100447,-0.117188 0.15067,-0.234376 0.15067,-0.385045c0,-0.15067 -0.066964,-0.30134 -0.167411,-0.418528c-0.61942,-0.753349 -1.2221,-1.48996 -1.7913,-2.31027c0.267858,-0.485492 0.468751,-0.987725 0.652903,-1.52344l3.0971,-0.46875c0.267857,-0.050224 0.46875,-0.351563 0.46875,-0.60268Z" transform="translate(0, -49.2858)"></path>
    </g>
</svg>