<svg viewBox="0 -49.2858 25.7143 25.7143" xmlns="http://www.w3.org/2000/svg"><path d="M17.143-36.429a4.294 4.294 0 0 1-4.286 4.286 4.294 4.294 0 0 1-4.286-4.286 4.294 4.294 0 0 1 4.286-4.285 4.294 4.294 0 0 1 4.286 4.285zm8.571-1.824a.61.61 0 0 0-.485-.603l-3.064-.469a9.222 9.222 0 0 0-.686-1.64c.569-.787 1.188-1.524 1.758-2.294a.632.632 0 0 0 .134-.385.57.57 0 0 0-.118-.368c-.703-.988-1.875-2.026-2.762-2.846a.66.66 0 0 0-.418-.168.57.57 0 0 0-.402.151l-2.377 1.791a9.83 9.83 0 0 0-1.507-.62l-.469-3.08c-.033-.284-.301-.502-.603-.502H11c-.301 0-.536.201-.603.469-.268 1.004-.368 2.093-.485 3.114-.52.167-1.038.385-1.524.636l-2.31-1.791a.745.745 0 0 0-.435-.168c-.57 0-2.83 2.444-3.231 2.997-.084.117-.15.234-.15.385 0 .15.066.285.166.402.62.753 1.223 1.506 1.792 2.31a8.857 8.857 0 0 0-.653 1.54l-3.114.469c-.251.05-.452.352-.452.603v3.716c0 .285.2.553.486.603l3.063.452c.168.57.402 1.122.687 1.657-.57.787-1.19 1.524-1.758 2.294a.651.651 0 0 0-.017.77c.703.97 1.875 2.009 2.762 2.812a.6.6 0 0 0 .419.185c.15 0 .301-.05.418-.151l2.36-1.791a9.83 9.83 0 0 0 1.508.619l.468 3.08c.034.285.302.503.603.503h3.716c.302 0 .536-.201.603-.47.268-1.004.368-2.092.486-3.113a10.095 10.095 0 0 0 1.523-.636l2.31 1.808c.134.084.285.15.436.15.569 0 2.829-2.46 3.23-2.996.101-.117.151-.235.151-.385a.66.66 0 0 0-.167-.419c-.62-.753-1.222-1.49-1.791-2.31.267-.485.468-.988.653-1.523l3.097-.47c.267-.05.468-.35.468-.602z"/></svg>