<?xml version="1.0" encoding="UTF-8"?>
<svg width="26" height="21" version="1.1" viewBox="0 -42.8572 25.7143 21.4286" xmlns="http://www.w3.org/2000/svg" xmlns:xlink="http://www.w3.org/1999/xlink">
    <!--Generated by IJSVG (https://github.com/curthard89/IJSVG)-->
    <g fill="#000000">
        <path d="M17.4107,16.0714c0,-0.736608 -0.602679,-1.33929 -1.33929,-1.33929c-0.736608,0 -1.33929,0.60268 -1.33929,1.33929c0,0.736608 0.60268,1.33929 1.33929,1.33929c0.736608,0 1.33929,-0.602679 1.33929,-1.33929Zm4.28572,0c0,-0.736608 -0.602679,-1.33929 -1.33929,-1.33929c-0.736608,0 -1.33929,0.60268 -1.33929,1.33929c0,0.736608 0.602679,1.33929 1.33929,1.33929c0.736608,0 1.33929,-0.602679 1.33929,-1.33929Zm1.875,2.67857c0,0.284599 -0.251117,0.535715 -0.535715,0.535715h-20.3572c-0.284599,0 -0.535715,-0.251116 -0.535715,-0.535715v-5.35715c0,-0.284598 0.251116,-0.535715 0.535715,-0.535715h20.3572c0.284598,0 0.535715,0.251117 0.535715,0.535715Zm-20.5915,-8.03572l2.62835,-8.06921c0.083705,-0.284598 0.401786,-0.502232 0.703125,-0.502232h13.0915c0.30134,0 0.61942,0.217634 0.703126,0.502232l2.62835,8.06921Zm22.7344,2.67857c0,-0.452009 -0.133928,-0.837054 -0.267857,-1.25558l-3.298,-10.1451c-0.385045,-1.17188 -1.5067,-1.99219 -2.74554,-1.99219h-13.0915c-1.23884,0 -2.36049,0.820314 -2.74554,1.99219l-3.298,10.1451c-0.133928,0.418528 -0.267857,0.803573 -0.267857,1.25558v5.35715c0,1.47322 1.20536,2.67857 2.67857,2.67857h20.3572c1.47322,0 2.67857,-1.20536 2.67857,-2.67857Z" transform="translate(0, -42.8572)"></path>
    </g>
</svg>