<svg width="26" height="21" viewBox="0 -42.8572 25.7143 21.4286" xmlns="http://www.w3.org/2000/svg"><path d="M17.41-26.786c0-.736-.602-1.34-1.339-1.34-.736 0-1.339.604-1.339 1.34 0 .737.603 1.34 1.34 1.34.736 0 1.339-.603 1.339-1.34zm4.286 0c0-.736-.602-1.34-1.339-1.34-.736 0-1.34.604-1.34 1.34 0 .737.604 1.34 1.34 1.34.737 0 1.34-.603 1.34-1.34zm1.875 2.679a.55.55 0 0 1-.535.535H2.679a.55.55 0 0 1-.536-.535v-5.357A.55.55 0 0 1 2.679-30h20.357a.55.55 0 0 1 .535.536zM2.98-32.143l2.628-8.07c.084-.284.402-.501.703-.501h13.092c.301 0 .62.217.703.502l2.628 8.07zm22.734 2.679c0-.452-.134-.837-.268-1.256l-3.298-10.145a2.917 2.917 0 0 0-2.745-1.992H6.31c-1.238 0-2.36.82-2.745 1.992L.268-30.72c-.134.419-.268.804-.268 1.256v5.357a2.686 2.686 0 0 0 2.679 2.678h20.357a2.686 2.686 0 0 0 2.678-2.678z"/></svg>