<?xml version="1.0" encoding="UTF-8"?>
<svg width="26" height="21" version="1.1" viewBox="0 -42.8572 25.7143 21.4286" xmlns="http://www.w3.org/2000/svg" xmlns:xlink="http://www.w3.org/1999/xlink">
    <!--Generated by IJSVG (https://github.com/curthard89/IJSVG)-->
    <g fill="#000000">
        <path d="M17.1261,11.7857l-1.5904,3.21429h-5.35715l-1.5904,-3.21429h-5.29018c0.033482,-0.083705 0.050223,-0.184152 0.083705,-0.267857l3.54911,-8.30358h11.8527l3.54911,8.30358c0.033482,0.083705 0.050223,0.184152 0.083705,0.267857Zm8.58818,0.502233c0,-0.602679 -0.184152,-1.48996 -0.418527,-2.05915l-3.98438,-9.24108c-0.234375,-0.552456 -0.904019,-0.987724 -1.48996,-0.987724h-13.9286c-0.585938,0 -1.25558,0.435268 -1.48996,0.987724l-3.98438,9.24108c-0.234375,0.569197 -0.418527,1.45647 -0.418527,2.05915v8.06921c0,0.585938 0.485492,1.07143 1.07143,1.07143h23.5715c0.585938,0 1.07143,-0.485492 1.07143,-1.07143Z" transform="translate(0, -42.8572)"></path>
    </g>
</svg>