<?xml version="1.0" encoding="UTF-8" standalone="no"?>
<svg version="1.1" viewBox="0 -47.1429 30 23.5715" xmlns="http://www.w3.org/2000/svg" xmlns:xlink="http://www.w3.org/1999/xlink">
    <!--Generated by IJSVG (https://github.com/curthard89/IJSVG)-->
    <g fill="#000000">
        <path d="M4.28572,19.8215c0,-0.284599 -0.251116,-0.535715 -0.535715,-0.535715h-3.21429c-0.284599,0 -0.535715,0.251116 -0.535715,0.535715v3.21429c0,0.284599 0.251116,0.535715 0.535715,0.535715h3.21429c0.284599,0 0.535715,-0.251116 0.535715,-0.535715Zm0,-6.42858c0,-0.284599 -0.251116,-0.535715 -0.535715,-0.535715h-3.21429c-0.284599,0 -0.535715,0.251116 -0.535715,0.535715v3.21429c0,0.284599 0.251116,0.535715 0.535715,0.535715h3.21429c0.284599,0 0.535715,-0.251116 0.535715,-0.535715Zm0,-6.42858c0,-0.284599 -0.251116,-0.535715 -0.535715,-0.535715h-3.21429c-0.284599,0 -0.535715,0.251116 -0.535715,0.535715v3.21429c0,0.284599 0.251116,0.535715 0.535715,0.535715h3.21429c0.284599,0 0.535715,-0.251116 0.535715,-0.535715Zm25.7143,12.8572c0,-0.284599 -0.251117,-0.535715 -0.535715,-0.535715h-22.5c-0.284599,0 -0.535715,0.251116 -0.535715,0.535715v3.21429c0,0.284599 0.251116,0.535715 0.535715,0.535715h22.5c0.284598,0 0.535715,-0.251116 0.535715,-0.535715Zm-25.7143,-19.2857c0,-0.284599 -0.251116,-0.535715 -0.535715,-0.535715h-3.21429c-0.284599,0 -0.535715,0.251116 -0.535715,0.535715v3.21429c0,0.284599 0.251116,0.535715 0.535715,0.535715h3.21429c0.284599,0 0.535715,-0.251116 0.535715,-0.535715Zm25.7143,12.8572c0,-0.284599 -0.251117,-0.535715 -0.535715,-0.535715h-22.5c-0.284599,0 -0.535715,0.251116 -0.535715,0.535715v3.21429c0,0.284599 0.251116,0.535715 0.535715,0.535715h22.5c0.284598,0 0.535715,-0.251116 0.535715,-0.535715Zm0,-6.42858c0,-0.284599 -0.251117,-0.535715 -0.535715,-0.535715h-22.5c-0.284599,0 -0.535715,0.251116 -0.535715,0.535715v3.21429c0,0.284599 0.251116,0.535715 0.535715,0.535715h22.5c0.284598,0 0.535715,-0.251116 0.535715,-0.535715Zm0,-6.42858c0,-0.284599 -0.251117,-0.535715 -0.535715,-0.535715h-22.5c-0.284599,0 -0.535715,0.251116 -0.535715,0.535715v3.21429c0,0.284599 0.251116,0.535715 0.535715,0.535715h22.5c0.284598,0 0.535715,-0.251116 0.535715,-0.535715Z" transform="translate(0, -47.1429)"></path>
    </g>
</svg>