<svg viewBox="0 -47.1429 30 23.5715" xmlns="http://www.w3.org/2000/svg"><path d="M4.286-27.321a.55.55 0 0 0-.536-.536H.536a.55.55 0 0 0-.536.536v3.214a.55.55 0 0 0 .536.536H3.75a.55.55 0 0 0 .536-.536zm0-6.429a.55.55 0 0 0-.536-.536H.536A.55.55 0 0 0 0-33.75v3.214A.55.55 0 0 0 .536-30H3.75a.55.55 0 0 0 .536-.536zm0-6.429a.55.55 0 0 0-.536-.535H.536A.55.55 0 0 0 0-40.18v3.215a.55.55 0 0 0 .536.535H3.75a.55.55 0 0 0 .536-.535zM30-27.32a.55.55 0 0 0-.536-.536h-22.5a.55.55 0 0 0-.535.536v3.214a.55.55 0 0 0 .535.536h22.5a.55.55 0 0 0 .536-.536zM4.286-46.607a.55.55 0 0 0-.536-.536H.536a.55.55 0 0 0-.536.536v3.214a.55.55 0 0 0 .536.536H3.75a.55.55 0 0 0 .536-.536zM30-33.75a.55.55 0 0 0-.536-.536h-22.5a.55.55 0 0 0-.535.536v3.214a.55.55 0 0 0 .535.536h22.5a.55.55 0 0 0 .536-.536zm0-6.428a.55.55 0 0 0-.536-.536h-22.5a.55.55 0 0 0-.535.536v3.214a.55.55 0 0 0 .535.536h22.5a.55.55 0 0 0 .536-.536zm0-6.429a.55.55 0 0 0-.536-.536h-22.5a.55.55 0 0 0-.535.536v3.214a.55.55 0 0 0 .535.536h22.5a.55.55 0 0 0 .536-.536z"/></svg>