<svg viewBox="0 -55.7144 29.9666 30" xmlns="http://www.w3.org/2000/svg"><path d="M27.037-55.714c-.82 0-1.59.368-2.176.904L14.18-45.117c-.988.904-1.54 2.21-1.54 3.549 0 2.812 2.31 5.223 5.14 5.223 1.422 0 2.627-.57 3.649-1.523 2.092-1.926 6.478-10.112 7.784-12.59.402-.787.754-1.64.754-2.528 0-1.59-1.407-2.728-2.93-2.728zm-15.218 17.31c-3.767.167-5.993.837-7.416 4.553a.963.963 0 0 1-.92.62c-.704 0-2.864-1.724-3.483-2.143 0 5.14 2.46 9.66 8.136 9.66 4.788 0 8.103-3.282 8.002-8.053l-.016-1.188a6.838 6.838 0 0 1-4.303-3.45z"/></svg>