<?xml version="1.0" encoding="UTF-8" standalone="no"?>
<svg version="1.1" viewBox="0 -42.8572 25.7143 21.4286" xmlns="http://www.w3.org/2000/svg" xmlns:xlink="http://www.w3.org/1999/xlink">
    <!--Generated by IJSVG (https://github.com/curthard89/IJSVG)-->
    <g fill="#000000">
        <path d="M25.7143,18.2143c0,-0.585938 -0.485491,-1.07143 -1.07143,-1.07143h-23.5715c-0.585938,0 -1.07143,0.485491 -1.07143,1.07143v2.14286c0,0.585938 0.485492,1.07143 1.07143,1.07143h23.5715c0.585938,0 1.07143,-0.485492 1.07143,-1.07143Zm0,-8.57144c0,-0.585939 -0.485491,-1.07143 -1.07143,-1.07143h-23.5715c-0.585938,0 -1.07143,0.485491 -1.07143,1.07143v2.14286c0,0.585939 0.485492,1.07143 1.07143,1.07143h23.5715c0.585938,0 1.07143,-0.485491 1.07143,-1.07143Zm0,-8.57144c0,-0.585938 -0.485491,-1.07143 -1.07143,-1.07143h-23.5715c-0.585938,0 -1.07143,0.485492 -1.07143,1.07143v2.14286c0,0.585938 0.485492,1.07143 1.07143,1.07143h23.5715c0.585938,0 1.07143,-0.485491 1.07143,-1.07143Z" transform="translate(0, -42.8572)"></path>
    </g>
</svg>