<svg viewBox="0.485492 -50.8929 27.3717 27.3215" xmlns="http://www.w3.org/2000/svg"><path d="M24.107-45.536a1.608 1.608 0 1 1-3.215 0 1.608 1.608 0 0 1 3.215 0zm3.75-4.821c0-.302-.268-.536-.569-.536-5.826 0-9.023 1.34-13.209 5.508a59.348 59.348 0 0 0-2.946 3.264l-6.345.335a.612.612 0 0 0-.435.268l-3.75 6.429a.56.56 0 0 0 .083.653l1.072 1.071c.1.1.251.15.385.15.05 0 .1 0 .15-.016l4.621-1.423 4.704 4.704-1.423 4.62a.58.58 0 0 0 .134.536l1.072 1.072c.117.1.25.15.385.15.1 0 .184-.016.268-.066l6.428-3.75c.15-.1.251-.268.268-.436l.335-6.345a59.343 59.343 0 0 0 3.264-2.946c3.968-3.984 5.508-7.684 5.508-13.242z"/></svg>