<?xml version="1.0" encoding="UTF-8" standalone="no"?>
<svg version="1.1" viewBox="0.485492 -50.8929 27.3717 27.3215" xmlns="http://www.w3.org/2000/svg" xmlns:xlink="http://www.w3.org/1999/xlink">
    <!--Generated by IJSVG (https://github.com/curthard89/IJSVG)-->
    <g fill="#000000">
        <path d="M23.6217,5.35715c0,0.887278 -0.719867,1.60715 -1.60714,1.60715c-0.887278,0 -1.60714,-0.719867 -1.60714,-1.60715c0,-0.887277 0.719867,-1.60714 1.60714,-1.60714c0.887278,0 1.60714,0.719867 1.60714,1.60714Zm3.75,-4.82143c0,-0.30134 -0.267857,-0.535715 -0.569197,-0.535715c-5.8259,0 -9.02345,1.33929 -13.2087,5.50782c-0.954242,0.970984 -1.94197,2.0759 -2.94643,3.26451l-6.34487,0.334822c-0.167411,0.016741 -0.334822,0.117188 -0.435268,0.267857l-3.75001,6.42858c-0.117187,0.200894 -0.083705,0.468751 0.083706,0.652903l1.07143,1.07143c0.100446,0.100446 0.251116,0.15067 0.385045,0.15067c0.050223,0 0.100446,0 0.15067,-0.016741l4.62054,-1.42299l4.70425,4.70425l-1.42299,4.62054c-0.050224,0.184152 0,0.385045 0.133928,0.535715l1.07143,1.07143c0.117188,0.100446 0.251117,0.150669 0.385045,0.150669c0.100447,0 0.184152,-0.016741 0.267858,-0.066964l6.42858,-3.75c0.15067,-0.100446 0.251116,-0.267857 0.267857,-0.435268l0.334822,-6.34487c1.18862,-1.00446 2.29353,-1.99219 3.26451,-2.94643c3.96764,-3.98438 5.50782,-7.68416 5.50782,-13.2422Z" transform="translate(0.485492, -50.8929)"></path>
    </g>
</svg>