<svg viewBox="0 -49.2858 25.7143 25.7143" xmlns="http://www.w3.org/2000/svg"><path d="M25.714-47.143c0-.435-.268-.82-.653-.988a1.053 1.053 0 0 0-1.171.235l-2.177 2.16c-2.36-2.227-5.558-3.55-8.856-3.55C5.776-49.286 0-43.51 0-36.429 0-29.347 5.776-23.57 12.857-23.57c3.834 0 7.45-1.691 9.894-4.638.168-.217.168-.535-.033-.72l-2.294-2.31a.643.643 0 0 0-.418-.15.546.546 0 0 0-.385.2 8.476 8.476 0 0 1-6.764 3.332c-4.72 0-8.571-3.85-8.571-8.572 0-4.72 3.85-8.571 8.571-8.571 2.193 0 4.27.837 5.843 2.294l-2.31 2.31c-.319.301-.402.77-.235 1.155.168.402.553.67.988.67h7.5c.586 0 1.071-.486 1.071-1.072z"/></svg>