<?xml version="1.0" encoding="UTF-8" standalone="no"?>
<svg version="1.1" viewBox="0 -49.2858 25.7143 25.7143" xmlns="http://www.w3.org/2000/svg" xmlns:xlink="http://www.w3.org/1999/xlink">
    <!--Generated by IJSVG (https://github.com/curthard89/IJSVG)-->
    <g fill="#000000">
        <path d="M25.7143,2.14286c0,-0.435269 -0.267857,-0.820314 -0.652902,-0.987725c-0.401786,-0.167411 -0.870537,-0.083705 -1.17188,0.234376l-2.17634,2.1596c-2.36049,-2.22657 -5.55804,-3.54911 -8.85604,-3.54911c-7.08148,0 -12.8572,5.77568 -12.8572,12.8572c0,7.08148 5.77568,12.8572 12.8572,12.8572c3.83371,0 7.44979,-1.69085 9.89398,-4.63728c0.167411,-0.217634 0.167411,-0.535715 -0.033482,-0.719867l-2.29353,-2.31027c-0.117187,-0.100446 -0.267857,-0.150669 -0.418527,-0.150669c-0.15067,0.016741 -0.301339,0.083705 -0.385045,0.200893c-1.64063,2.12612 -4.10157,3.33148 -6.7634,3.33148c-4.72099,0 -8.57144,-3.85045 -8.57144,-8.57144c0,-4.72099 3.85045,-8.57144 8.57144,-8.57144c2.19308,0 4.26898,0.837055 5.84264,2.29353l-2.31027,2.31027c-0.31808,0.30134 -0.401786,0.770091 -0.234375,1.15514c0.167411,0.401786 0.552456,0.669643 0.987725,0.669643h7.50001c0.585938,0 1.07143,-0.485491 1.07143,-1.07143Z" transform="translate(0, -49.2858)"></path>
    </g>
</svg>