<?xml version="1.0" encoding="UTF-8" standalone="no"?>
<svg version="1.1" viewBox="0 -48.9342 25.3628 25.3628" xmlns="http://www.w3.org/2000/svg" xmlns:xlink="http://www.w3.org/1999/xlink">
    <!--Generated by IJSVG (https://github.com/curthard89/IJSVG)-->
    <g fill="#000000">
        <path d="M7.50001,5.35715c0,1.18862 -0.954242,2.14286 -2.14286,2.14286c-1.18862,0 -2.14286,-0.954242 -2.14286,-2.14286c0,-1.18862 0.954242,-2.14286 2.14286,-2.14286c1.18862,0 2.14286,0.954243 2.14286,2.14286Zm17.8627,9.64287c3.55271e-15,-0.569197 -0.234375,-1.12165 -0.61942,-1.52344l-11.9699,-11.9531c-0.853796,-0.853795 -2.47768,-1.52344 -3.6663,-1.52344h-6.96429c-1.17188,0 -2.14286,0.970983 -2.14286,2.14286v6.96429c0,1.18862 0.669644,2.8125 1.52344,3.64956l11.9699,11.9866c0.385045,0.385045 0.937501,0.61942 1.5067,0.61942c0.569197,0 1.12165,-0.234375 1.52344,-0.61942l8.21988,-8.23662c0.385045,-0.385045 0.61942,-0.937501 0.61942,-1.5067Z" transform="translate(0, -48.9342)"></path>
    </g>
</svg>