<?xml version="1.0" encoding="UTF-8" standalone="no"?>
<svg width="28" height="18" version="1.1" viewBox="0.167411 -36.0938 27.6898 18.0469" xmlns="http://www.w3.org/2000/svg" xmlns:xlink="http://www.w3.org/1999/xlink">
    <!--Generated by IJSVG (https://github.com/curthard89/IJSVG)-->
    <g fill="#000000">
        <path d="M9.62613,8.78907c0.217635,-0.217634 0.217635,-0.552456 0,-0.77009l-7.80135,-7.80135c-0.217634,-0.217634 -0.552456,-0.217634 -0.77009,0l-0.837055,0.837055c-0.217634,0.217634 -0.217634,0.552456 2.77556e-17,0.77009l6.57925,6.57925l-6.57925,6.57925c-0.217634,0.217634 -0.217634,0.552456 -3.05311e-16,0.77009l0.837055,0.837055c0.217634,0.217634 0.552456,0.217634 0.77009,0Zm18.0636,7.65068c0,-0.30134 -0.234375,-0.535715 -0.535715,-0.535715h-16.0714c-0.301339,0 -0.535715,0.234375 -0.535715,0.535715v1.07143c0,0.301339 0.234376,0.535714 0.535715,0.535714h16.0714c0.30134,0 0.535715,-0.234375 0.535715,-0.535714Z" transform="translate(0.167411, -36.0938)"></path>
    </g>
</svg>