<?xml version="1.0" encoding="UTF-8"?>
<svg width="24" height="26" version="1.1" viewBox="0 -49.2858 23.5715 25.7143" xmlns="http://www.w3.org/2000/svg" xmlns:xlink="http://www.w3.org/1999/xlink">
    <!--Generated by IJSVG (https://github.com/curthard89/IJSVG)-->
    <g fill="#000000">
        <path d="M8.57144,20.8929c0,0.30134 -0.234375,0.535715 -0.535715,0.535715h-1.07143c-0.30134,0 -0.535715,-0.234375 -0.535715,-0.535715v-11.7857c0,-0.30134 0.234375,-0.535715 0.535715,-0.535715h1.07143c0.30134,0 0.535715,0.234375 0.535715,0.535715Zm4.28572,0c0,0.30134 -0.234375,0.535715 -0.535715,0.535715h-1.07143c-0.301339,0 -0.535715,-0.234375 -0.535715,-0.535715v-11.7857c0,-0.30134 0.234376,-0.535715 0.535715,-0.535715h1.07143c0.30134,0 0.535715,0.234375 0.535715,0.535715Zm4.28572,0c0,0.30134 -0.234376,0.535715 -0.535715,0.535715h-1.07143c-0.30134,0 -0.535715,-0.234375 -0.535715,-0.535715v-11.7857c0,-0.30134 0.234375,-0.535715 0.535715,-0.535715h1.07143c0.301339,0 0.535715,0.234375 0.535715,0.535715Zm-9.10715,-16.6072l0.820313,-1.95871c0.050224,-0.066965 0.184152,-0.167411 0.284599,-0.184152h5.30693c0.083705,0.016741 0.234375,0.117187 0.284598,0.184152l0.803573,1.95871Zm15.5357,0.535715c0,-0.301339 -0.234376,-0.535715 -0.535715,-0.535715h-5.173l-1.17188,-2.79576c-0.334822,-0.820313 -1.33929,-1.48996 -2.22656,-1.48996h-5.35715c-0.887278,0 -1.89174,0.669644 -2.22656,1.48996l-1.17188,2.79576h-5.173c-0.30134,0 -0.535715,0.234376 -0.535715,0.535715v1.07143c0,0.30134 0.234375,0.535715 0.535715,0.535715h1.60715v15.9375c0,1.84152 1.20536,3.34822 2.67857,3.34822h13.9286c1.47322,0 2.67857,-1.57366 2.67857,-3.41518v-15.8706h1.60714c0.301339,0 0.535715,-0.234375 0.535715,-0.535715Z" transform="translate(0, -49.2858)"></path>
    </g>
</svg>