<?xml version="1.0" encoding="UTF-8" standalone="no"?>
<svg version="1.1" viewBox="0 -49.2858 34.2858 25.7143" xmlns="http://www.w3.org/2000/svg" xmlns:xlink="http://www.w3.org/1999/xlink">
    <!--Generated by IJSVG (https://github.com/curthard89/IJSVG)-->
    <g fill="#000000">
        <path d="M15,18.1473c0,-2.20982 -0.535715,-4.75447 -2.74554,-4.75447c-0.669644,0.669644 -1.5904,1.07143 -2.61161,1.07143c-1.02121,0 -1.94197,-0.401786 -2.61161,-1.07143c-2.20982,0 -2.74554,2.54465 -2.74554,4.75447c0,1.2221 0.803573,2.20982 1.7913,2.20982h7.13171c0.987724,0 1.7913,-0.987724 1.7913,-2.20982Zm-2.14286,-7.43304c0,-1.77455 -1.43973,-3.21429 -3.21429,-3.21429c-1.77456,0 -3.21429,1.43973 -3.21429,3.21429c0,1.77456 1.43973,3.21429 3.21429,3.21429c1.77456,0 3.21429,-1.43973 3.21429,-3.21429Zm17.1429,6.96429c0,-0.301339 -0.234376,-0.535714 -0.535715,-0.535714h-11.7857c-0.30134,0 -0.535715,0.234375 -0.535715,0.535714v1.07143c0,0.30134 0.234375,0.535715 0.535715,0.535715h11.7857c0.301339,0 0.535715,-0.234375 0.535715,-0.535715Zm-6.42858,-4.28572c0,-0.30134 -0.234376,-0.535715 -0.535715,-0.535715h-5.35715c-0.30134,0 -0.535715,0.234375 -0.535715,0.535715v1.07143c0,0.30134 0.234375,0.535715 0.535715,0.535715h5.35715c0.301339,0 0.535715,-0.234375 0.535715,-0.535715Zm6.42858,0c0,-0.30134 -0.234376,-0.535715 -0.535715,-0.535715h-3.21429c-0.301339,0 -0.535715,0.234375 -0.535715,0.535715v1.07143c0,0.30134 0.234376,0.535715 0.535715,0.535715h3.21429c0.301339,0 0.535715,-0.234375 0.535715,-0.535715Zm0,-4.28572c0,-0.30134 -0.234376,-0.535715 -0.535715,-0.535715h-11.7857c-0.30134,0 -0.535715,0.234375 -0.535715,0.535715v1.07143c0,0.301339 0.234375,0.535714 0.535715,0.535714h11.7857c0.301339,0 0.535715,-0.234375 0.535715,-0.535714Zm2.14286,13.9286c0,0.284598 -0.251116,0.535715 -0.535714,0.535715h-28.9286c-0.284599,0 -0.535715,-0.251117 -0.535715,-0.535715v-18.75h30Zm2.14286,-20.3572c0,-1.47322 -1.20536,-2.67858 -2.67857,-2.67858h-28.9286c-1.47322,0 -2.67857,1.20536 -2.67857,2.67858v20.3572c0,1.47322 1.20536,2.67857 2.67857,2.67857h28.9286c1.47322,0 2.67857,-1.20536 2.67857,-2.67857Z" transform="translate(0, -49.2858)"></path>
    </g>
</svg>