<svg viewBox="0 -49.2858 34.2858 25.7143" xmlns="http://www.w3.org/2000/svg"><path d="M15-31.139c0-2.21-.536-4.754-2.746-4.754a3.668 3.668 0 0 1-2.611 1.071 3.668 3.668 0 0 1-2.612-1.071c-2.21 0-2.745 2.545-2.745 4.755 0 1.222.803 2.21 1.791 2.21h7.132c.987 0 1.791-.988 1.791-2.21zm-2.143-7.433a3.215 3.215 0 1 0-6.43.002 3.215 3.215 0 0 0 6.43-.002zM30-31.607a.529.529 0 0 0-.536-.536H17.68a.529.529 0 0 0-.536.536v1.071c0 .302.234.536.536.536h11.785a.529.529 0 0 0 .536-.536zm-6.429-4.286a.529.529 0 0 0-.535-.536h-5.357a.529.529 0 0 0-.536.536v1.071c0 .302.234.536.536.536h5.357a.529.529 0 0 0 .535-.536zm6.429 0a.529.529 0 0 0-.536-.536H26.25a.529.529 0 0 0-.536.536v1.071c0 .302.235.536.536.536h3.214a.529.529 0 0 0 .536-.536zm0-4.286a.529.529 0 0 0-.536-.535H17.68a.529.529 0 0 0-.536.535v1.072c0 .301.234.535.536.535h11.785a.529.529 0 0 0 .536-.535zm2.143 13.929a.55.55 0 0 1-.536.536H2.68a.55.55 0 0 1-.536-.536V-45h30zm2.143-20.357a2.686 2.686 0 0 0-2.679-2.679H2.68A2.686 2.686 0 0 0 0-46.607v20.357a2.686 2.686 0 0 0 2.679 2.678h28.928a2.686 2.686 0 0 0 2.679-2.678z"/></svg>