<svg width="32" height="28" viewBox="0 -53.5715 32.1429 27.8572" xmlns="http://www.w3.org/2000/svg"><path d="M30-36.964a.55.55 0 0 1-.536.535H2.68a.55.55 0 0 1-.536-.535v-13.929a.55.55 0 0 1 .536-.536h26.785a.55.55 0 0 1 .536.536zm2.143-13.929a2.686 2.686 0 0 0-2.679-2.678H2.68A2.686 2.686 0 0 0 0-50.893v18.214A2.686 2.686 0 0 0 2.679-30h9.107c0 1.456-1.072 2.595-1.072 3.214 0 .586.486 1.072 1.072 1.072h8.571c.586 0 1.072-.486 1.072-1.072 0-.586-1.072-1.791-1.072-3.214h9.107a2.686 2.686 0 0 0 2.679-2.679z"/></svg>