<?xml version="1.0" encoding="UTF-8"?>
<svg width="32" height="28" version="1.1" viewBox="0 -53.5715 32.1429 27.8572" xmlns="http://www.w3.org/2000/svg" xmlns:xlink="http://www.w3.org/1999/xlink">
    <!--Generated by IJSVG (https://github.com/curthard89/IJSVG)-->
    <g fill="#000000">
        <path d="M30,16.6072c0,0.284599 -0.251117,0.535715 -0.535715,0.535715h-26.7857c-0.284599,0 -0.535715,-0.251116 -0.535715,-0.535715v-13.9286c0,-0.284598 0.251116,-0.535715 0.535715,-0.535715h26.7857c0.284598,0 0.535715,0.251117 0.535715,0.535715Zm2.14286,-13.9286c0,-1.47322 -1.20536,-2.67857 -2.67857,-2.67857h-26.7857c-1.47322,0 -2.67857,1.20536 -2.67857,2.67857v18.2143c0,1.47322 1.20536,2.67857 2.67857,2.67857h9.10715c0,1.45648 -1.07143,2.59487 -1.07143,3.21429c0,0.585938 0.485492,1.07143 1.07143,1.07143h8.57144c0.585938,0 1.07143,-0.485492 1.07143,-1.07143c0,-0.585938 -1.07143,-1.7913 -1.07143,-3.21429h9.10715c1.47322,0 2.67857,-1.20536 2.67857,-2.67857Z" transform="translate(0, -53.5715)"></path>
    </g>
</svg>