<svg viewBox="0 -49.9219 30 26.8527" xmlns="http://www.w3.org/2000/svg"><path d="M5.608-29.866a.18.18 0 0 0 .168-.168c0-.1-2.712-5.039-2.947-5.474-.184-.335-.468-.67-.686-.988.402-.619.837-1.205 1.306-1.774l3.75 6.914 1.774 3.298c.084.15 2.31.837 2.595.837.1 0 .184-.033.184-.167 0-.1-6.395-11.87-6.763-12.523.435-.402.887-.787 1.373-1.138l7.634 14.08c.067.15.82.116 1.004.116.368 0 .837.034 1.205-.05.084-.017.151-.067.151-.15 0-.118-7.985-14.783-8.186-15.168a15.003 15.003 0 0 1 1.657-.787l-.117.117 7.433 13.728 1.071 1.992 2.076 3.834c.1.167.285.268.486.268.284 0 1.791-.887 2.126-1.072a.543.543 0 0 0 .284-.485c0-.301-1.59-3.08-1.841-3.532 3.415-1.457 6.328-4.052 8.32-7.182.218-.335.335-.737.335-1.155 0-.419-.117-.82-.335-1.156-3.214-5.055-8.605-8.487-14.665-8.487-1.071 0-2.16.1-3.214.318L9.71-49.654a.555.555 0 0 0-.469-.268c-.301 0-1.808.887-2.143 1.072a.577.577 0 0 0-.284.485c0 .301 1.59 3.08 1.841 3.532-3.03 1.29-5.625 3.466-7.567 6.111C.603-38.069 0-37.366 0-36.495c0 .418.117.82.352 1.155 1.238 1.992 3.197 4.135 5.156 5.44a.238.238 0 0 0 .1.034zm13.895-1.708a7.461 7.461 0 0 0 2.997-5.993c0-2.06-.837-4.018-2.327-5.44 3.18 1.271 5.826 3.649 7.684 6.511-1.825 2.83-4.403 5.173-7.533 6.446zm-5.307-10.279c0-.435.369-.803.804-.803a5.087 5.087 0 0 1 5.09 5.089.815.815 0 0 1-.804.804.815.815 0 0 1-.804-.804A3.485 3.485 0 0 0 15-41.049a.815.815 0 0 1-.804-.804zm6.128-1.088l-.034.05-.117-.117z"/></svg>