<?xml version="1.0" encoding="UTF-8" standalone="no"?>
<svg width="25" height="25" version="1.1" viewBox="0 -48.5826 25.3628 25.3628" xmlns="http://www.w3.org/2000/svg" xmlns:xlink="http://www.w3.org/1999/xlink">
    <!--Generated by IJSVG (https://github.com/curthard89/IJSVG)-->
    <g fill="#000000">
        <path d="M6.07702,23.2199h-1.7913v-2.14286h-2.14286v-1.7913l1.52344,-1.52344l3.93416,3.93416Zm8.75559,-15.5357c0,0.100446 -0.033482,0.200893 -0.117188,0.284598l-9.07367,9.07367c-0.083706,0.083705 -0.184152,0.117187 -0.284599,0.117187c-0.217634,0 -0.368304,-0.150669 -0.368304,-0.368304c0,-0.100446 0.033482,-0.200893 0.117188,-0.284598l9.07367,-9.07367c0.083706,-0.083705 0.184152,-0.117187 0.284599,-0.117187c0.217634,0 0.368304,0.15067 0.368304,0.368304Zm-0.904019,-3.21429l-13.9286,13.9286v6.96429h6.96429l13.9286,-13.9286Zm11.4342,1.60714c0,-0.569197 -0.234375,-1.12165 -0.61942,-1.52344l-3.93416,-3.91742c-0.401787,-0.401786 -0.954243,-0.636161 -1.52344,-0.636161c-0.569197,0 -1.12165,0.234375 -1.5067,0.636161l-2.77902,2.76228l6.96429,6.96429l2.77902,-2.77902c0.385045,-0.385045 0.61942,-0.937501 0.61942,-1.5067Z" transform="translate(0, -48.5826)"></path>
    </g>
</svg>