<?xml version="1.0" encoding="UTF-8" standalone="no"?>
<svg width="26" height="26" version="1.1" viewBox="0 -49.2858 25.7143 25.7143" xmlns="http://www.w3.org/2000/svg" xmlns:xlink="http://www.w3.org/1999/xlink">
    <!--Generated by IJSVG (https://github.com/curthard89/IJSVG)-->
    <g fill="#000000">
        <path d="M25.2958,15.5357c0,-0.284599 -0.234375,-0.535715 -0.535715,-0.535715h-3.21429c-0.251117,0 -0.418528,0.15067 -0.502233,0.385045c-0.284599,0.669644 -0.485492,1.3058 -0.887278,1.95871c-1.55692,2.54465 -4.3192,4.08483 -7.29912,4.08483c-2.1596,0 -4.25224,-0.837055 -5.8259,-2.31027l2.29353,-2.29353c0.200893,-0.200893 0.318081,-0.468751 0.318081,-0.753349c0,-0.585939 -0.485492,-1.07143 -1.07143,-1.07143h-7.50001c-0.585938,0 -1.07143,0.485491 -1.07143,1.07143v7.50001c0,0.585938 0.485492,1.07143 1.07143,1.07143c0.284598,0 0.552456,-0.117187 0.753349,-0.31808l2.1596,-2.1596c2.37723,2.26005 5.5413,3.54911 8.80581,3.54911c6.17746,0 11.0659,-4.13505 12.4889,-10.0614c0.016741,-0.033482 0.016741,-0.083705 0.016741,-0.117187Zm0.418527,-13.3929c0,-0.585939 -0.485491,-1.07143 -1.07143,-1.07143c-0.284599,0 -0.552456,0.117187 -0.75335,0.318081l-2.17634,2.1596c-2.37723,-2.24331 -5.57478,-3.54911 -8.85604,-3.54911c-6.17746,0 -11.1161,4.11831 -12.5558,10.0614c2.77556e-16,0.033482 2.77556e-16,0.083705 2.77556e-16,0.117188c0,0.284598 0.234375,0.535714 0.535715,0.535714h3.33148c0.251116,0 0.418527,-0.150669 0.502232,-0.385045c0.284599,-0.669643 0.485492,-1.3058 0.887278,-1.95871c1.55692,-2.54465 4.3192,-4.08483 7.29912,-4.08483c2.1596,0 4.25224,0.820314 5.84264,2.29353l-2.31027,2.31027c-0.200893,0.200894 -0.31808,0.468751 -0.31808,0.75335c0,0.585938 0.485491,1.07143 1.07143,1.07143h7.50001c0.585938,0 1.07143,-0.485491 1.07143,-1.07143Z" transform="translate(0, -49.2858)"></path>
    </g>
</svg>