<svg width="26" height="28" viewBox="0 -53.5715 25.7143 27.8572" xmlns="http://www.w3.org/2000/svg"><path d="M4.286-31.072C4.286-30.486 3.8-30 3.214-30a1.079 1.079 0 0 1-1.071-1.072c0-.585.485-1.07 1.071-1.07s1.072.485 1.072 1.07zm19.285-9.642c0 .619-.468 2.126-1.255 2.142.351.402.586 1.19.586 1.725 0 .787-.318 1.456-.888 1.992.201.352.302.753.302 1.155 0 .77-.385 1.724-1.088 2.11.05.3.083.619.083.937 0 2.042-1.322 2.796-3.214 2.796h-2.026c-1.975 0-3.884-.586-5.725-1.222C9.442-29.397 7.902-30 6.964-30H6.43v-10.714h.535c1.323 0 3.315-2.863 4.068-3.834.419-.52.82-1.038 1.29-1.524 1.623-1.707 1.07-4.269 2.142-5.357 2.294 0 2.679 1.256 2.679 3.215 0 1.975-1.607 3.398-1.607 5.357h5.893c1.121 0 2.142 1.004 2.142 2.143zm2.143-.017c0-2.31-1.975-4.27-4.285-4.27h-2.947c.502-1.037.804-2.042.804-3.213 0-1.122-.067-2.093-.586-3.114-.82-1.624-2.495-2.244-4.236-2.244-.569 0-1.105.235-1.506.62-1.675 1.64-1.139 4.286-2.143 5.357a31.123 31.123 0 0 0-1.792 2.143c-.502.653-1.64 2.16-2.293 2.595H2.143A2.136 2.136 0 0 0 0-40.714V-30c0 1.189.954 2.143 2.143 2.143h4.821c.469 0 1.825.502 2.31.67 2.21.77 4.42 1.473 6.797 1.473h2.16c3.097 0 5.257-1.859 5.223-5.023a4.883 4.883 0 0 0 1.005-2.98c0-.234-.017-.485-.05-.72a4.896 4.896 0 0 0 .636-2.41c0-.385-.05-.787-.151-1.155.536-.804.82-1.758.82-2.73z"/></svg>