<?xml version="1.0" encoding="UTF-8"?>
<svg width="26" height="28" version="1.1" viewBox="0 -53.5715 25.7143 27.8572" xmlns="http://www.w3.org/2000/svg" xmlns:xlink="http://www.w3.org/1999/xlink">
    <!--Generated by IJSVG (https://github.com/curthard89/IJSVG)-->
    <g fill="#000000">
        <path d="M4.28572,22.5c0,0.585939 -0.485491,1.07143 -1.07143,1.07143c-0.585939,0 -1.07143,-0.485491 -1.07143,-1.07143c0,-0.585938 0.485491,-1.07143 1.07143,-1.07143c0.585938,0 1.07143,0.485491 1.07143,1.07143Zm19.2857,-9.64287c0,0.61942 -0.468751,2.12612 -1.25558,2.14286c0.351563,0.401787 0.585938,1.18862 0.585938,1.72433c0,0.786831 -0.318081,1.45647 -0.887278,1.99219c0.200893,0.351563 0.30134,0.753349 0.30134,1.15513c0,0.77009 -0.385045,1.72433 -1.08817,2.10938c0.050223,0.301339 0.083705,0.61942 0.083705,0.937501c0,2.04241 -1.32255,2.79576 -3.21429,2.79576h-2.02567c-1.97545,0 -3.88393,-0.585938 -5.72545,-1.2221c-0.904018,-0.31808 -2.4442,-0.92076 -3.3817,-0.92076h-0.535715v-10.7143h0.535715c1.32255,0 3.31474,-2.86273 4.06809,-3.83371c0.418528,-0.518974 0.820314,-1.03795 1.28906,-1.52344c1.62389,-1.70759 1.07143,-4.26898 2.14286,-5.35715c2.29353,0 2.67858,1.25558 2.67858,3.21429c0,1.97545 -1.60714,3.39844 -1.60714,5.35715h5.89286c1.12165,0 2.14286,1.00447 2.14286,2.14286Zm2.14286,-0.016741c0,-2.31027 -1.97545,-4.26898 -4.28572,-4.26898h-2.94643c0.502233,-1.03795 0.803572,-2.04241 0.803572,-3.21429c0,-1.12165 -0.066964,-2.09264 -0.585938,-3.11384c-0.820313,-1.62389 -2.49442,-2.24331 -4.2355,-2.24331c-0.569197,0 -1.10491,0.234375 -1.5067,0.61942c-1.67411,1.64063 -1.13839,4.28572 -2.14286,5.35715c-0.636161,0.686385 -1.2221,1.40625 -1.7913,2.14286c-0.502232,0.652902 -1.64063,2.1596 -2.29353,2.59487h-4.58706c-1.18862,0 -2.14286,0.954242 -2.14286,2.14286v10.7143c0,1.18862 0.954242,2.14286 2.14286,2.14286h4.82143c0.468751,0 1.82478,0.502233 2.31027,0.669644c2.20982,0.77009 4.41965,1.47322 6.79688,1.47322h1.55692h0.60268c3.0971,0 5.2567,-1.85826 5.22322,-5.02233c0.652903,-0.837054 1.00447,-1.90848 1.00447,-2.97991c0,-0.234375 -0.016742,-0.485492 -0.050224,-0.719867c0.418528,-0.736608 0.636162,-1.57366 0.636162,-2.41072c0,-0.385045 -0.050224,-0.786831 -0.15067,-1.15514c0.535715,-0.803573 0.820313,-1.75782 0.820313,-2.7288Z" transform="translate(0, -53.5715)"></path>
    </g>
</svg>