<?xml version="1.0" encoding="UTF-8"?>
<svg width="26" height="26" version="1.1" viewBox="0 -49.2858 25.7143 25.7143" xmlns="http://www.w3.org/2000/svg" xmlns:xlink="http://www.w3.org/1999/xlink">
    <!--Generated by IJSVG (https://github.com/curthard89/IJSVG)-->
    <g fill="#000000">
        <path d="M19.2355,16.6406c0,0.284598 -0.117188,0.569197 -0.318081,0.77009l-1.5067,1.5067c-0.200893,0.200893 -0.485492,0.318081 -0.77009,0.318081c-0.284599,0 -0.552456,-0.117188 -0.753349,-0.318081l-3.03014,-3.03014l-3.03014,3.03014c-0.200893,0.200893 -0.468751,0.318081 -0.753349,0.318081c-0.284599,0 -0.569198,-0.117188 -0.770091,-0.318081l-1.5067,-1.5067c-0.200893,-0.200893 -0.318081,-0.485492 -0.318081,-0.77009c0,-0.284599 0.117188,-0.552456 0.318081,-0.753349l3.03014,-3.03014l-3.03014,-3.03014c-0.200893,-0.200893 -0.318081,-0.468751 -0.318081,-0.75335c0,-0.284598 0.117188,-0.569197 0.318081,-0.77009l1.5067,-1.5067c0.200893,-0.200893 0.485492,-0.318081 0.770091,-0.318081c0.284598,0 0.552456,0.117188 0.753349,0.318081l3.03014,3.03014l3.03014,-3.03014c0.200893,-0.200893 0.46875,-0.318081 0.753349,-0.318081c0.284598,0 0.569197,0.117188 0.77009,0.318081l1.5067,1.5067c0.200893,0.200893 0.318081,0.485492 0.318081,0.77009c0,0.284599 -0.117188,0.552457 -0.318081,0.75335l-3.03014,3.03014l3.03014,3.03014c0.200893,0.200893 0.318081,0.46875 0.318081,0.753349Zm6.4788,-3.78349c0,-7.09822 -5.75894,-12.8572 -12.8572,-12.8572c-7.09822,0 -12.8572,5.75894 -12.8572,12.8572c0,7.09822 5.75894,12.8572 12.8572,12.8572c7.09822,0 12.8572,-5.75894 12.8572,-12.8572Z" transform="translate(0, -49.2858)"></path>
    </g>
</svg>