<svg width="24" height="26" viewBox="0 -49.2858 23.5715 25.7143" xmlns="http://www.w3.org/2000/svg"><path d="M8.571-28.393a.529.529 0 0 1-.535.536H6.964a.529.529 0 0 1-.535-.536v-11.786c0-.3.234-.535.535-.535h1.072c.301 0 .535.234.535.535zm4.286 0a.529.529 0 0 1-.536.536H11.25a.529.529 0 0 1-.536-.536v-11.786c0-.3.235-.535.536-.535h1.071c.302 0 .536.234.536.535zm4.286 0a.529.529 0 0 1-.536.536h-1.071a.529.529 0 0 1-.536-.536v-11.786c0-.3.234-.535.536-.535h1.071c.302 0 .536.234.536.535zM8.036-45l.82-1.959a.564.564 0 0 1 .285-.184h5.307a.646.646 0 0 1 .284.184L15.536-45zm15.535.536a.529.529 0 0 0-.535-.536h-5.173l-1.172-2.796c-.335-.82-1.34-1.49-2.227-1.49H9.107c-.887 0-1.892.67-2.226 1.49L5.709-45H.536a.529.529 0 0 0-.536.536v1.071c0 .301.234.536.536.536h1.607v15.937c0 1.842 1.205 3.348 2.678 3.348H18.75c1.473 0 2.679-1.573 2.679-3.415v-15.87h1.607a.529.529 0 0 0 .535-.536z"/></svg>