<?xml version="1.0" encoding="UTF-8" standalone="no"?>
<svg width="28" height="28" version="1.1" viewBox="0 -51.4286 27.8572 27.8572" xmlns="http://www.w3.org/2000/svg" xmlns:xlink="http://www.w3.org/1999/xlink">
    <!--Generated by IJSVG (https://github.com/curthard89/IJSVG)-->
    <g fill="#000000">
        <path d="M15,25.1284v-12.5893l10.7143,-3.90067v10.6473Zm-1.07143,-14.481l-11.6853,-4.25224l11.6853,-4.25224l11.6853,4.25224Zm13.9286,-4.21876c0,-0.904019 -0.569197,-1.70759 -1.40625,-2.00893l-11.7857,-4.28572c-0.234375,-0.083705 -0.485492,-0.133929 -0.736608,-0.133929c-0.251116,0 -0.502233,0.050224 -0.736608,0.133929l-11.7857,4.28572c-0.837055,0.30134 -1.40625,1.10491 -1.40625,2.00893v12.8572c0,0.786831 0.435268,1.5067 1.12165,1.875l11.7857,6.42858c0.318081,0.184152 0.669644,0.267857 1.02121,0.267857c0.351563,0 0.703126,-0.083705 1.02121,-0.267857l11.7857,-6.42858c0.686385,-0.368304 1.12165,-1.08817 1.12165,-1.875Z" transform="translate(0, -51.4286)"></path>
    </g>
</svg>