<svg width="30" height="30" viewBox="0 -55.7144 30 30" xmlns="http://www.w3.org/2000/svg"><path d="M15-55.714c-8.287 0-15 6.713-15 15 0 8.286 6.713 15 15 15 8.287 0 15-6.714 15-15 0-8.287-6.713-15-15-15zm0 2.142c2.176 0 4.236.553 6.044 1.507l-3.248 3.248A8.594 8.594 0 0 0 15-49.286a8.67 8.67 0 0 0-2.796.469l-3.248-3.248A12.928 12.928 0 0 1 15-53.572zM3.65-34.67a12.928 12.928 0 0 1-1.507-6.043c0-2.177.552-4.236 1.506-6.044l3.248 3.248a8.594 8.594 0 0 0-.468 2.796c0 .97.167 1.908.468 2.795zM15-27.857c-2.176 0-4.236-.553-6.044-1.507l3.248-3.248a8.67 8.67 0 0 0 2.796.47c.988 0 1.908-.168 2.796-.47l3.248 3.248A12.928 12.928 0 0 1 15-27.857zm0-6.429a6.43 6.43 0 0 1-6.429-6.428A6.43 6.43 0 0 1 15-47.143a6.43 6.43 0 0 1 6.429 6.429A6.43 6.43 0 0 1 15-34.286zm8.103-3.633a8.67 8.67 0 0 0 .468-2.795 8.67 8.67 0 0 0-.468-2.796l3.247-3.248a12.928 12.928 0 0 1 1.507 6.044c0 2.176-.552 4.235-1.507 6.043z"/></svg>