<?xml version="1.0" encoding="UTF-8"?>
<svg width="30" height="30" version="1.1" viewBox="0 -55.7144 30 30" xmlns="http://www.w3.org/2000/svg" xmlns:xlink="http://www.w3.org/1999/xlink">
    <!--Generated by IJSVG (https://github.com/curthard89/IJSVG)-->
    <g fill="#000000">
        <path d="M15,0c-8.28684,0 -15,6.71318 -15,15c0,8.28684 6.71318,15 15,15c8.28684,0 15,-6.71318 15,-15c0,-8.28684 -6.71318,-15 -15,-15Zm0,2.14286c2.17634,0 4.2355,0.552456 6.04353,1.5067l-3.24777,3.24777c-0.887278,-0.30134 -1.80804,-0.468751 -2.79576,-0.468751c-0.970983,0 -1.90849,0.167411 -2.79576,0.468751l-3.24777,-3.24777c1.80804,-0.954242 3.86719,-1.5067 6.04353,-1.5067Zm-11.3505,18.9007c-0.954242,-1.80804 -1.5067,-3.86719 -1.5067,-6.04353c0,-2.17634 0.552456,-4.2355 1.5067,-6.04353l3.24777,3.24777c-0.30134,0.887278 -0.468751,1.80804 -0.468751,2.79576c0,0.970983 0.167411,1.90848 0.468751,2.79576Zm11.3505,6.81362c-2.17634,0 -4.2355,-0.552456 -6.04353,-1.5067l3.24777,-3.24777c0.887277,0.30134 1.82478,0.468751 2.79576,0.468751c0.987724,0 1.90848,-0.167411 2.79576,-0.468751l3.24777,3.24777c-1.80804,0.954242 -3.86719,1.5067 -6.04353,1.5067Zm0,-6.42858c-3.54911,0 -6.42858,-2.87947 -6.42858,-6.42858c0,-3.54911 2.87947,-6.42858 6.42858,-6.42858c3.54911,0 6.42858,2.87947 6.42858,6.42858c0,3.54911 -2.87947,6.42858 -6.42858,6.42858Zm8.10269,-3.63282c0.30134,-0.887278 0.468751,-1.82478 0.468751,-2.79576c0,-0.970984 -0.167411,-1.90848 -0.468751,-2.79576l3.24777,-3.24777c0.954242,1.80804 1.5067,3.86719 1.5067,6.04353c0,2.17634 -0.552456,4.2355 -1.5067,6.04353Z" transform="translate(0, -55.7144)"></path>
    </g>
</svg>