<?xml version="1.0" encoding="UTF-8" standalone="no"?>
<svg width="16px" height="16px" viewBox="0 0 16 16" version="1.1" xmlns="http://www.w3.org/2000/svg" xmlns:xlink="http://www.w3.org/1999/xlink">
    <!-- Generator: Sketch 39.1 (31720) - http://www.bohemiancoding.com/sketch -->
    <title>pacman</title>
    <desc>Created with Sketch.</desc>
    <defs></defs>
    <g id="Symbols" stroke="none" stroke-width="1" fill="none" fill-rule="evenodd">
        <g id="navigation-/-Main" transform="translate(-963.000000, -42.000000)" fill="#000000">
            <g id="pacman" transform="translate(963.000000, 42.000000)">
                <g id="Group">
                    <path d="M12.357,12.243 C9.992,14.586 6.157,14.586 3.792,12.243 C1.427,9.899 1.427,6.101 3.792,3.757 C6.157,1.414 9.992,1.414 12.357,3.757 C12.5,3.5 8.61,7.293 8.61,7.293 L8.253,7.646 C8.056,7.842 8.063,8.164 8.253,8.354 L8.61,8.707 C8.61,8.707 12.537,12.064 12.357,12.243 L12.357,12.243 Z M14.933,12.295 C14.97,12.248 14.973,12.183 14.926,12.137 L11.096,8.36 C10.901,8.166 10.903,7.85 11.09,7.664 L14.926,3.864 C14.966,3.824 14.976,3.76 14.933,3.704 L14.453,3.094 C14.247,2.831 14.023,2.581 13.783,2.344 C10.631,-0.781 5.518,-0.781 2.365,2.344 C-0.788,5.467 -0.788,10.534 2.365,13.657 C5.518,16.781 10.631,16.781 13.785,13.657 C14.025,13.419 14.247,13.169 14.453,12.907 L14.933,12.295 L14.933,12.295 Z" id="base" opacity="0.8"></path>
                    <circle id="dot" opacity="0.6" cx="14" cy="8" r="1.5"></circle>
                </g>
            </g>
        </g>
    </g>
</svg>