<?xml version="1.0" encoding="UTF-8" standalone="no"?>
<svg width="16px" height="16px" viewBox="0 0 16 16" version="1.1" xmlns="http://www.w3.org/2000/svg" xmlns:xlink="http://www.w3.org/1999/xlink">
    <!-- Generator: Sketch 39.1 (31720) - http://www.bohemiancoding.com/sketch -->
    <title>appearance</title>
    <desc>Created with Sketch.</desc>
    <defs></defs>
    <g id="Symbols" stroke="none" stroke-width="1" fill="none" fill-rule="evenodd">
        <g id="admin-/-menu-sub-horizontal" transform="translate(-232.000000, -7.000000)" fill="#FFFFFF">
            <path d="M246.41966,7 C245.98216,7 245.571445,7.19642881 245.258944,7.48214343 L239.562509,12.6517925 C239.035723,13.1339359 238.741079,13.8303653 238.741079,14.5446519 C238.741079,16.0446536 239.973224,17.3303695 241.482154,17.3303695 C242.241084,17.3303695 242.883942,17.0267977 243.428585,16.5178685 C244.544658,15.4910816 246.883946,11.1250049 247.580376,9.80357477 C247.794662,9.38393141 247.982162,8.92857373 247.982162,8.45535888 C247.982162,7.60714358 247.232161,7 246.41966,7 L246.41966,7 Z M238.303579,16.2321539 C236.294648,16.3214397 235.107147,16.678583 234.348217,18.6607282 C234.26786,18.8660856 234.08036,18.9910857 233.857145,18.9910857 C233.482145,18.9910857 232.330358,18.0714418 232,17.8482272 C232,20.5893019 233.312502,23.0000191 236.339291,23.0000191 C238.892865,23.0000191 240.660725,21.250017 240.607153,18.7053711 L240.598225,18.0714418 C239.616081,17.8125129 238.767865,17.1339407 238.303579,16.2321539 L238.303579,16.2321539 Z" id="appearance"></path>
        </g>
    </g>
</svg>