<?xml version="1.0" encoding="UTF-8" standalone="no"?>
<svg width="14px" height="14px" viewBox="0 0 14 14" version="1.1" xmlns="http://www.w3.org/2000/svg" xmlns:xlink="http://www.w3.org/1999/xlink">
    <!-- Generator: Sketch 39.1 (31720) - http://www.bohemiancoding.com/sketch -->
    <title>back</title>
    <desc>Created with Sketch.</desc>
    <defs></defs>
    <g id="Page-1" stroke="none" stroke-width="1" fill="none" fill-rule="evenodd">
        <g id="Artboard" transform="translate(-1500.000000, -2089.000000)" fill="#FFFFFF">
            <g id="admin-menu-7" transform="translate(1490.000000, 2076.000000)">
                <path d="M23.1428728,19.3839362 C23.1428728,18.7767926 22.7410866,18.2410777 22.0982287,18.2410777 L15.8125069,18.2410777 L18.4285815,15.6250031 C18.6428674,15.4107172 18.7678676,15.116074 18.7678676,14.8125022 C18.7678676,14.5089304 18.6428674,14.2142872 18.4285815,14.0000012 L17.7589378,13.3392861 C17.5446519,13.1250001 17.2589372,13 16.9553654,13 C16.6517936,13 16.3571504,13.1250001 16.1428645,13.3392861 L10.3303575,19.1428645 C10.1250001,19.3571504 10,19.6517936 10,19.9553654 C10,20.2589372 10.1250001,20.5535804 10.3303575,20.7589378 L16.1428645,26.5803733 C16.3571504,26.7857307 16.6517936,26.9107309 16.9553654,26.9107309 C17.2589372,26.9107309 17.5535804,26.7857307 17.7589378,26.5803733 L18.4285815,25.9018011 C18.6428674,25.6964437 18.7678676,25.4018005 18.7678676,25.0982287 C18.7678676,24.7946569 18.6428674,24.5000137 18.4285815,24.2946563 L15.8125069,21.6696532 L22.0982287,21.6696532 C22.7410866,21.6696532 23.1428728,21.1339383 23.1428728,20.5267947 L23.1428728,19.3839362 Z" id="back"></path>
            </g>
        </g>
    </g>
</svg>