<?xml version="1.0" encoding="UTF-8" standalone="no"?>
<svg width="14px" height="17px" viewBox="0 0 14 17" version="1.1" xmlns="http://www.w3.org/2000/svg" xmlns:xlink="http://www.w3.org/1999/xlink">
    <!-- Generator: Sketch 39.1 (31720) - http://www.bohemiancoding.com/sketch -->
    <title>Shape</title>
    <desc>Created with Sketch.</desc>
    <defs></defs>
    <g id="Page-1" stroke="none" stroke-width="1" fill="none" fill-rule="evenodd">
        <path d="M11.3184878,5.03151217 L6.6286898,0.35 L1.93889177,5.03151217 C0.646297255,6.32410668 0,8.04756603 0,9.70473848 C0,11.3619109 0.646297255,13.1102279 1.93889177,14.4028224 C3.23148628,15.6954169 4.93008804,16.35 6.6286898,16.35 C8.32729156,16.35 10.0258933,15.6954169 11.3184878,14.4028224 C12.6110823,13.1102279 13.2573796,11.3619109 13.2573796,9.70473848 C13.2573796,8.04756603 12.6110823,6.32410668 11.3184878,5.03151217 L11.3184878,5.03151217 Z M1.65717245,10.0030295 C1.66545831,8.34585707 2.17089591,7.29355256 3.11548421,6.35725013 L6.6286898,2.76947178 L10.1418954,6.39867944 C11.0864837,7.32669601 11.5919213,8.34585707 11.6002071,10.0030295 L1.65717245,10.0030295 L1.65717245,10.0030295 Z" id="Shape" fill="#26C4FF"></path>
    </g>
</svg>