<?xml version="1.0" encoding="UTF-8" standalone="no"?>
<svg width="16px" height="16px" viewBox="0 0 16 16" version="1.1" xmlns="http://www.w3.org/2000/svg" xmlns:xlink="http://www.w3.org/1999/xlink">
    <!-- Generator: Sketch 39.1 (31720) - http://www.bohemiancoding.com/sketch -->
    <title>help</title>
    <desc>Created with Sketch.</desc>
    <defs></defs>
    <g id="Symbols" stroke="none" stroke-width="1" fill="none" fill-rule="evenodd">
        <g id="admin-/-menu-sub-horizontal" transform="translate(-770.000000, -7.000000)" fill="#FFFFFF">
            <path d="M778.00001,7 C773.580361,7 770,10.5803614 770,15.0000095 C770,19.4196577 773.580361,23.0000191 778.00001,23.0000191 C782.419658,23.0000191 786.000019,19.4196577 786.000019,15.0000095 C786.000019,10.5803614 782.419658,7 778.00001,7 L778.00001,7 Z M778.00001,8.14285851 C779.160725,8.14285851 780.258941,8.43750171 781.223228,8.94643089 L779.491083,10.6785758 C779.017868,10.5178613 778.526796,10.4285755 778.00001,10.4285755 C777.482152,10.4285755 776.982151,10.5178613 776.508936,10.6785758 L774.776791,8.94643089 C775.741078,8.43750171 776.839294,8.14285851 778.00001,8.14285851 L778.00001,8.14285851 Z M771.946431,18.2232277 C771.437502,17.2589408 771.142859,16.1607252 771.142859,15.0000095 C771.142859,13.8392939 771.437502,12.7410783 771.946431,11.7767914 L773.678576,13.5089363 C773.517861,13.9821512 773.428576,14.4732232 773.428576,15.0000095 C773.428576,15.5178673 773.517861,16.0178679 773.678576,16.4910827 L771.946431,18.2232277 Z M778.00001,21.8571606 C776.839294,21.8571606 775.741078,21.5625174 774.776791,21.0535882 L776.508936,19.3214433 C776.982151,19.4821577 777.482152,19.5714436 778.00001,19.5714436 C778.526796,19.5714436 779.017868,19.4821577 779.491083,19.3214433 L781.223228,21.0535882 C780.258941,21.5625174 779.160725,21.8571606 778.00001,21.8571606 L778.00001,21.8571606 Z M778.00001,18.4285851 C776.10715,18.4285851 774.571434,16.8928689 774.571434,15.0000095 C774.571434,13.1071501 776.10715,11.571434 778.00001,11.571434 C779.892869,11.571434 781.428585,13.1071501 781.428585,15.0000095 C781.428585,16.8928689 779.892869,18.4285851 778.00001,18.4285851 L778.00001,18.4285851 Z M782.321443,16.4910827 C782.482158,16.0178679 782.571444,15.5178673 782.571444,15.0000095 C782.571444,14.4821518 782.482158,13.9821512 782.321443,13.5089363 L784.053588,11.7767914 C784.562517,12.7410783 784.857161,13.8392939 784.857161,15.0000095 C784.857161,16.1607252 784.562517,17.2589408 784.053588,18.2232277 L782.321443,16.4910827 Z" id="help"></path>
        </g>
    </g>
</svg>