<?xml version="1.0" encoding="UTF-8" standalone="no"?>
<svg width="16px" height="14px" viewBox="0 0 16 14" version="1.1" xmlns="http://www.w3.org/2000/svg" xmlns:xlink="http://www.w3.org/1999/xlink">
    <!-- Generator: Sketch 39.1 (31720) - http://www.bohemiancoding.com/sketch -->
    <title>manage</title>
    <desc>Created with Sketch.</desc>
    <defs></defs>
    <g id="Page-1" stroke="none" stroke-width="1" fill="none" fill-rule="evenodd">
        <g id="Artboard" transform="translate(-1546.000000, -2090.000000)" fill="#FBA026">
            <g id="admin-menu-7" transform="translate(1490.000000, 2076.000000)">
                <path d="M59.4285755,22.5714245 C59.4285755,23.2053538 58.9196463,23.714283 58.285717,23.714283 C57.6517877,23.714283 57.1428585,23.2053538 57.1428585,22.5714245 C57.1428585,21.9374952 57.6517877,21.428566 58.285717,21.428566 C58.9196463,21.428566 59.4285755,21.9374952 59.4285755,22.5714245 L59.4285755,22.5714245 Z M61.1428633,18.5714197 C61.1428633,19.205349 60.6339341,19.7142782 60.0000048,19.7142782 C59.3660754,19.7142782 58.8571463,19.205349 58.8571463,18.5714197 C58.8571463,17.9374904 59.3660754,17.4285612 60.0000048,17.4285612 C60.6339341,17.4285612 61.1428633,17.9374904 61.1428633,18.5714197 L61.1428633,18.5714197 Z M64.9642964,22.8660677 C65.5446542,23.2678539 65.848226,23.9999976 65.6607258,24.7232128 C65.4196541,25.6339281 64.482153,26.1875002 63.562509,25.9464285 C62.6517936,25.7053568 62.0982216,24.7678557 62.3392933,23.8482117 C62.5357221,23.1249966 63.1517942,22.6339246 63.8571522,22.5803531 L64.758939,19.1696347 C64.8392963,18.8660629 65.1517966,18.6785627 65.4553684,18.7589199 C65.7589402,18.8392772 65.9375118,19.1517776 65.8660832,19.4553493 L64.9642964,22.8660677 Z M70.8571606,22.5714245 C70.8571606,23.2053538 70.3482314,23.714283 69.7143021,23.714283 C69.0803727,23.714283 68.5714436,23.2053538 68.5714436,22.5714245 C68.5714436,21.9374952 69.0803727,21.428566 69.7143021,21.428566 C70.3482314,21.428566 70.8571606,21.9374952 70.8571606,22.5714245 L70.8571606,22.5714245 Z M65.142868,16.857132 C65.142868,17.4910613 64.6339389,17.9999905 64.0000095,17.9999905 C63.3660802,17.9999905 62.857151,17.4910613 62.857151,16.857132 C62.857151,16.2232026 63.3660802,15.7142735 64.0000095,15.7142735 C64.6339389,15.7142735 65.142868,16.2232026 65.142868,16.857132 L65.142868,16.857132 Z M69.1428728,18.5714197 C69.1428728,19.205349 68.6339436,19.7142782 68.0000143,19.7142782 C67.366085,19.7142782 66.8571558,19.205349 66.8571558,18.5714197 C66.8571558,17.9374904 67.366085,17.4285612 68.0000143,17.4285612 C68.6339436,17.4285612 69.1428728,17.9374904 69.1428728,18.5714197 L69.1428728,18.5714197 Z M72.0000191,22.5714245 C72.0000191,18.1607049 68.4107291,14.5714149 64.0000095,14.5714149 C59.58929,14.5714149 56,18.1607049 56,22.5714245 C56,24.1071406 56.4375005,25.5982138 57.2589301,26.8839296 C57.3660731,27.0446441 57.5446447,27.1428585 57.7410735,27.1428585 L70.2589456,27.1428585 C70.4553744,27.1428585 70.633946,27.0446441 70.741089,26.8839296 C71.5625186,25.5892852 72.0000191,24.1071406 72.0000191,22.5714245 L72.0000191,22.5714245 Z" id="manage"></path>
            </g>
        </g>
    </g>
</svg>