<?xml version="1.0" encoding="UTF-8" standalone="no"?>
<svg width="18px" height="16px" viewBox="0 0 18 16" version="1.1" xmlns="http://www.w3.org/2000/svg" xmlns:xlink="http://www.w3.org/1999/xlink">
    <!-- Generator: Sketch 39.1 (31720) - http://www.bohemiancoding.com/sketch -->
    <title>Users</title>
    <desc>Created with Sketch.</desc>
    <defs></defs>
    <g id="Symbols" stroke="none" stroke-width="1" fill="none" fill-rule="evenodd">
        <g id="admin-/-menu-sub-horizontal" transform="translate(-571.000000, -7.000000)" fill="#FFFFFF">
            <path d="M576.294704,15.0000095 C575.830417,14.3303659 575.571489,13.5267935 575.571489,12.7142925 C575.571489,12.5178637 575.589346,12.3214349 575.616131,12.1250061 C575.232202,12.2589348 574.839345,12.3303635 574.42863,12.3303635 C573.223271,12.3303635 572.294699,11.571434 572.107199,11.571434 C570.973269,11.571434 571.000055,14.0000083 571.000055,14.7232235 C571.000055,15.7142961 571.839341,16.142868 572.732199,16.142868 L573.928629,16.142868 C574.526844,15.4285815 575.366131,15.0267953 576.294704,15.0000095 L576.294704,15.0000095 Z M585.857215,20.6875163 C585.857215,18.6696568 585.384,15.5714388 582.767926,15.5714388 C582.464354,15.5714388 581.35721,16.8125117 579.571493,16.8125117 C577.785777,16.8125117 576.678633,15.5714388 576.375061,15.5714388 C573.758986,15.5714388 573.285772,18.6696568 573.285772,20.6875163 C573.285772,22.1339466 574.24113,23.0000191 575.669703,23.0000191 L583.473284,23.0000191 C584.901857,23.0000191 585.857215,22.1339466 585.857215,20.6875163 L585.857215,20.6875163 Z M576.714347,9.28571701 C576.714347,8.02678694 575.68756,7 574.42863,7 C573.1697,7 572.142913,8.02678694 572.142913,9.28571701 C572.142913,10.5446471 573.1697,11.571434 574.42863,11.571434 C575.68756,11.571434 576.714347,10.5446471 576.714347,9.28571701 L576.714347,9.28571701 Z M583.000069,12.7142925 C583.000069,10.8214331 581.464353,9.28571701 579.571493,9.28571701 C577.678634,9.28571701 576.142918,10.8214331 576.142918,12.7142925 C576.142918,14.6071519 577.678634,16.142868 579.571493,16.142868 C581.464353,16.142868 583.000069,14.6071519 583.000069,12.7142925 L583.000069,12.7142925 Z M588.142932,14.7232235 C588.142932,14.0000083 588.169718,11.571434 587.035788,11.571434 C586.848288,11.571434 585.919715,12.3303635 584.714357,12.3303635 C584.303642,12.3303635 583.910784,12.2589348 583.526855,12.1250061 C583.553641,12.3214349 583.571498,12.5178637 583.571498,12.7142925 C583.571498,13.5267935 583.312569,14.3303659 582.848283,15.0000095 C583.776855,15.0267953 584.616142,15.4285815 585.214357,16.142868 L586.410787,16.142868 C587.303645,16.142868 588.142932,15.7142961 588.142932,14.7232235 L588.142932,14.7232235 Z M587.000074,9.28571701 C587.000074,8.02678694 585.973287,7 584.714357,7 C583.455427,7 582.42864,8.02678694 582.42864,9.28571701 C582.42864,10.5446471 583.455427,11.571434 584.714357,11.571434 C585.973287,11.571434 587.000074,10.5446471 587.000074,9.28571701 L587.000074,9.28571701 Z" id="Users"></path>
        </g>
    </g>
</svg>