<?xml version="1.0" encoding="UTF-8" standalone="no"?>
<svg width="15px" height="16px" viewBox="0 0 15 16" version="1.1" xmlns="http://www.w3.org/2000/svg" xmlns:xlink="http://www.w3.org/1999/xlink">
    <!-- Generator: Sketch 39.1 (31720) - http://www.bohemiancoding.com/sketch -->
    <title>user</title>
    <desc>Created with Sketch.</desc>
    <defs></defs>
    <g id="Page-1" stroke="none" stroke-width="1" fill="none" fill-rule="evenodd">
        <g id="Artboard" transform="translate(-1767.000000, -2088.000000)" fill="#FFDB77">
            <g id="admin-menu-7" transform="translate(1490.000000, 2076.000000)">
                <path d="M286.547475,13.6 C286.216162,12.672 285.327273,12 284.272727,12 C283.218182,12 282.329293,12.672 281.99798,13.6 L278.616162,13.6 C277.723232,13.6 277,14.316 277,15.2 L277,26.4 C277,27.284 277.723232,28 278.616162,28 L289.929293,28 C290.822222,28 291.545455,27.284 291.545455,26.4 L291.545455,15.2 C291.545455,14.316 290.822222,13.6 289.929293,13.6 L286.547475,13.6 Z M284.272727,13.6 C284.717172,13.6 285.080808,13.956 285.080808,14.4 C285.080808,14.844 284.717172,15.2 284.272727,15.2 C283.828283,15.2 283.464646,14.844 283.464646,14.4 C283.464646,13.956 283.828283,13.6 284.272727,13.6 L284.272727,13.6 Z M284.272727,16.8 C285.610101,16.8 286.69697,17.876 286.69697,19.2 C286.69697,20.528 285.610101,21.6 284.272727,21.6 C282.935354,21.6 281.848485,20.528 281.848485,19.2 C281.848485,17.876 282.935354,16.8 284.272727,16.8 L284.272727,16.8 Z M289.121212,26.4 L279.424242,26.4 L279.424242,25.28 C279.424242,23.68 282.656566,22.8 284.272727,22.8 C285.888889,22.8 289.121212,23.68 289.121212,25.28 L289.121212,26.4 L289.121212,26.4 Z" id="user"></path>
            </g>
        </g>
    </g>
</svg>