<?xml version="1.0" encoding="UTF-8"?>
<svg width="26" height="26" version="1.1" viewBox="0 -49.2858 25.7143 25.7143" xmlns="http://www.w3.org/2000/svg" xmlns:xlink="http://www.w3.org/1999/xlink">
    <!--Generated by IJSVG (https://github.com/curthard89/IJSVG)-->
    <g fill="#000000">
        <path d="M21.4956,10.1451c0,0.284599 -0.100446,0.552456 -0.301339,0.753349l-9.09041,9.09041c-0.200893,0.200893 -0.485492,0.318081 -0.77009,0.318081c-0.267858,0 -0.552456,-0.117188 -0.753349,-0.318081l-6.06027,-6.06028c-0.200893,-0.200893 -0.30134,-0.468751 -0.30134,-0.753349c0,-0.284599 0.100447,-0.569197 0.30134,-0.77009l1.52344,-1.5067c0.200893,-0.200893 0.468751,-0.31808 0.753349,-0.31808c0.284599,0 0.552456,0.117187 0.753349,0.31808l3.78349,3.78349l6.83036,-6.81362c0.200893,-0.200893 0.468751,-0.318081 0.753349,-0.318081c0.284599,0 0.552456,0.117188 0.753349,0.318081l1.52344,1.5067c0.200893,0.200893 0.301339,0.485492 0.301339,0.77009Zm4.21876,2.71206c0,-7.09822 -5.75894,-12.8572 -12.8572,-12.8572c-7.09822,0 -12.8572,5.75894 -12.8572,12.8572c0,7.09822 5.75894,12.8572 12.8572,12.8572c7.09822,0 12.8572,-5.75894 12.8572,-12.8572Z" transform="translate(0, -49.2858)"></path>
    </g>
</svg>