<svg width="26" height="26" viewBox="0 -49.2858 25.7143 25.7143" xmlns="http://www.w3.org/2000/svg"><path d="M21.496-39.14c0 .284-.1.552-.302.753l-9.09 9.09c-.201.201-.486.318-.77.318-.268 0-.553-.117-.754-.318l-6.06-6.06a1.05 1.05 0 0 1-.301-.754c0-.284.1-.569.301-.77l1.524-1.506c.2-.201.468-.318.753-.318s.552.117.753.318l3.784 3.783 6.83-6.813c.201-.201.469-.319.753-.319.285 0 .553.118.754.319l1.523 1.506c.201.201.302.486.302.77zm4.218 2.711c0-7.098-5.759-12.857-12.857-12.857C5.76-49.286 0-43.526 0-36.429 0-29.33 5.759-23.57 12.857-23.57c7.098 0 12.857-5.76 12.857-12.858z"/></svg>