<?xml version="1.0" encoding="UTF-8"?>
<svg width="24" height="24" version="1.1" viewBox="-0.083705 -45.0001 23.7389 23.5715" xmlns="http://www.w3.org/2000/svg" xmlns:xlink="http://www.w3.org/1999/xlink">
    <!--Generated by IJSVG (https://github.com/curthard89/IJSVG)-->
    <g fill="#000000">
        <path d="M23.5715,0.652903c-0.167411,-0.385045 -0.552456,-0.652903 -0.987724,-0.652903h-21.4286c-0.435269,0 -0.820314,0.267858 -0.987725,0.652903c-0.16741,0.401786 -0.083705,0.870537 0.234376,1.17188l8.25336,8.25336v8.13617c0,0.284598 0.117187,0.552456 0.318081,0.753349l4.28572,4.28572c0.200893,0.217634 0.46875,0.318081 0.753349,0.318081c0.133929,0 0.284599,-0.033482 0.418527,-0.083705c0.385045,-0.167411 0.652903,-0.552456 0.652903,-0.987725v-12.4219l8.25336,-8.25336c0.318081,-0.301339 0.401786,-0.77009 0.234375,-1.17188Z" transform="translate(-0.083705, -45.0001)"></path>
    </g>
</svg>