<svg width="32" height="19" viewBox="0 -38.5715 32.1429 19.2857" xmlns="http://www.w3.org/2000/svg"><path d="M21.429-19.822a.678.678 0 0 0-.118-.351l-2.678-3.214a.57.57 0 0 0-.419-.185H8.571V-30h3.215c.586 0 1.071-.486 1.071-1.072 0-.25-.084-.502-.251-.686l-5.357-6.428a1.078 1.078 0 0 0-.82-.369c-.318 0-.62.134-.82.369L.25-31.758a1.022 1.022 0 0 0-.251.686C0-30.486.485-30 1.071-30h3.215v9.643c0 .418-.084 1.071.535 1.071h16.072a.55.55 0 0 0 .536-.536zm10.714-6.964c0-.586-.486-1.071-1.072-1.071h-3.214V-37.5c0-.419.084-1.072-.536-1.072h-16.07a.55.55 0 0 0-.537.536c0 .117.05.251.118.335l2.678 3.214c.1.134.268.201.419.201h9.643v6.429h-3.215c-.586 0-1.071.485-1.071 1.071 0 .251.084.502.25.687l5.358 6.428c.201.235.502.385.82.385.318 0 .62-.15.82-.385l5.358-6.428c.167-.185.251-.436.251-.687z"/></svg>