<svg width="28" height="24" viewBox="0 -47.1429 27.9744 23.5715" xmlns="http://www.w3.org/2000/svg"><path d="M23.572-33.716a.525.525 0 0 0-.335-.486.446.446 0 0 0-.201-.05.535.535 0 0 0-.385.167l-1.072 1.072a.52.52 0 0 0-.15.368v4.252a2.686 2.686 0 0 1-2.679 2.679H4.821a2.686 2.686 0 0 1-2.678-2.679V-42.32A2.686 2.686 0 0 1 4.82-45h13.93c.25 0 .501.033.752.1.05.017.1.034.151.034a.577.577 0 0 0 .385-.167l.82-.82a.526.526 0 0 0 .151-.486.546.546 0 0 0-.301-.385 4.684 4.684 0 0 0-1.959-.419H4.821A4.823 4.823 0 0 0 0-42.32v13.928a4.823 4.823 0 0 0 4.821 4.822h13.93a4.823 4.823 0 0 0 4.82-4.822zm3.867-8.187a1.334 1.334 0 0 0 0-1.908l-1.842-1.842a1.334 1.334 0 0 0-1.908 0L12.857-34.82l-4.403-4.403a1.334 1.334 0 0 0-1.908 0l-1.842 1.841a1.334 1.334 0 0 0 0 1.909l7.199 7.198a1.334 1.334 0 0 0 1.908 0z"/></svg>