<?xml version="1.0" encoding="UTF-8" standalone="no"?>
<svg width="15px" height="15px" viewBox="0 0 15 15" version="1.1" xmlns="http://www.w3.org/2000/svg" xmlns:xlink="http://www.w3.org/1999/xlink">
    <!-- Generator: Sketch 39.1 (31720) - http://www.bohemiancoding.com/sketch -->
    <title>configuration</title>
    <desc>Created with Sketch.</desc>
    <defs></defs>
    <g id="Symbols" stroke="none" stroke-width="1" fill="none" fill-rule="evenodd">
        <g id="admin-/-menu-sub-horizontal" transform="translate(-440.000000, -8.000000)" fill="#FFFFFF">
            <path d="M443.241075,20.0000143 C443.241075,20.3125147 442.982146,20.5714436 442.669646,20.5714436 C442.357146,20.5714436 442.098217,20.3125147 442.098217,20.0000143 C442.098217,19.6875139 442.357146,19.4285851 442.669646,19.4285851 C442.982146,19.4285851 443.241075,19.6875139 443.241075,20.0000143 L443.241075,20.0000143 Z M448.991082,16.2500098 C447.821438,15.7857236 446.883937,14.8482224 446.419651,13.6785782 L440.339286,19.7589426 C440.125,19.9732286 440,20.2678718 440,20.5714436 C440,20.8750153 440.125,21.1696586 440.339286,21.3750159 L441.285716,22.3393028 C441.500002,22.5446602 441.794645,22.6696603 442.098217,22.6696603 C442.401789,22.6696603 442.696432,22.5446602 442.901789,22.3393028 L448.991082,16.2500098 Z M454.651803,12.3660766 C454.651803,12.187505 454.54466,12.0535763 454.366089,12.0535763 C454.187517,12.0535763 452.116086,13.3571492 451.821443,13.5267923 L450.098226,12.571434 L450.098226,10.5714316 L452.714301,9.06250127 C452.794658,9.00892977 452.857158,8.91071537 452.857158,8.81250097 C452.857158,8.70535798 452.803587,8.62500075 452.714301,8.56250067 C452.169657,8.19642881 451.321442,8 450.669656,8 C448.464296,8 446.669651,9.794645 446.669651,12.0000048 C446.669651,14.2053645 448.464296,16.0000095 450.669656,16.0000095 C452.357158,16.0000095 453.883945,14.9017939 454.446446,13.3125063 C454.54466,13.0267917 454.651803,12.6607198 454.651803,12.3660766 L454.651803,12.3660766 Z" id="configuration"></path>
        </g>
    </g>
</svg>