<?xml version="1.0" encoding="UTF-8" standalone="no"?>
<svg width="20px" height="16px" viewBox="0 0 20 16" version="1.1" xmlns="http://www.w3.org/2000/svg" xmlns:xlink="http://www.w3.org/1999/xlink">
    <!-- Generator: Sketch 39.1 (31720) - http://www.bohemiancoding.com/sketch -->
    <title>extend</title>
    <desc>Created with Sketch.</desc>
    <defs></defs>
    <g id="Symbols" stroke="none" stroke-width="1" fill="none" fill-rule="evenodd">
        <g id="admin-/-menu-sub-horizontal" transform="translate(-347.000000, -7.000000)" fill="#FFFFFF">
            <path d="M352.714293,21.5714459 L352.714293,18.5178709 L356.142868,17.0535834 L356.142868,19.8571582 L352.714293,21.5714459 Z M352.142863,17.5178697 L348.535716,15.973225 L352.142863,14.4285803 L355.75001,15.973225 L352.142863,17.5178697 Z M361.857161,21.5714459 L361.857161,18.5178709 L365.285736,17.0535834 L365.285736,19.8571582 L361.857161,21.5714459 Z M361.285731,17.5178697 L357.678584,15.973225 L361.285731,14.4285803 L364.892878,15.973225 L361.285731,17.5178697 Z M357.285727,14.9017951 L357.285727,12.5178637 L360.714302,11.0535763 L360.714302,13.4285791 L357.285727,14.9017951 Z M356.714297,11.5178625 L352.776793,9.83036052 L356.714297,8.14285851 L360.651802,9.83036052 L356.714297,11.5178625 Z M366.428595,16.142868 C366.428595,15.6875104 366.160737,15.2767956 365.732165,15.0892954 L361.857161,13.4285791 L361.857161,9.85714626 C361.857161,9.40178858 361.580375,8.9910738 361.160731,8.80357358 L357.160726,7.08928582 C357.017869,7.02678575 356.866083,7 356.714297,7 C356.562511,7 356.410726,7.02678575 356.267868,7.08928582 L352.267863,8.80357358 C351.84822,8.9910738 351.571434,9.40178858 351.571434,9.85714626 L351.571434,13.4285791 L347.696429,15.0892954 C347.276786,15.2767956 347,15.6875104 347,16.142868 L347,19.8571582 C347,20.2857301 347.241072,20.6875163 347.633929,20.8750165 L351.633934,22.8750189 C351.794649,22.9643047 351.964292,23.0000191 352.142863,23.0000191 C352.321435,23.0000191 352.491078,22.9643047 352.651792,22.8750189 L356.651797,20.8750165 C356.678583,20.866088 356.69644,20.8571594 356.714297,20.8393022 C356.732154,20.8571594 356.750012,20.866088 356.776797,20.8750165 L360.776802,22.8750189 C360.937517,22.9643047 361.10716,23.0000191 361.285731,23.0000191 C361.464303,23.0000191 361.633946,22.9643047 361.79466,22.8750189 L365.794665,20.8750165 C366.187523,20.6875163 366.428595,20.2857301 366.428595,19.8571582 L366.428595,16.142868 Z" id="extend"></path>
        </g>
    </g>
</svg>