<svg width="20" height="20" viewBox="1.84152 -39.4755 19.8884 19.8884" xmlns="http://www.w3.org/2000/svg"><path d="M21.73-23.471c0-.419-.167-.837-.469-1.138l-4.922-4.922 4.922-4.922c.302-.301.469-.72.469-1.139 0-.418-.167-.837-.469-1.138l-2.277-2.277a1.623 1.623 0 0 0-1.138-.468c-.419 0-.837.167-1.138.468l-4.922 4.922-4.922-4.922a1.623 1.623 0 0 0-1.139-.468c-.418 0-.837.167-1.138.468L2.31-36.73c-.301.301-.468.72-.468 1.138 0 .419.167.838.468 1.139l4.922 4.922L2.31-24.61c-.301.3-.468.72-.468 1.138 0 .419.167.837.468 1.138l2.277 2.277c.301.302.72.469 1.138.469.419 0 .838-.167 1.139-.469l4.922-4.922 4.922 4.922c.3.302.72.469 1.138.469.419 0 .837-.167 1.138-.469l2.277-2.277c.302-.3.469-.72.469-1.138z"/></svg>