<?xml version="1.0" encoding="UTF-8"?>
<svg width="170px" height="200px" viewBox="0 0 170 200" version="1.1" xmlns="http://www.w3.org/2000/svg" xmlns:xlink="http://www.w3.org/1999/xlink">
    <!-- Generator: Sketch 43.2 (39069) - http://www.bohemiancoding.com/sketch -->
    <title>acquia</title>
    <desc>Created with Sketch.</desc>
    <defs></defs>
    <g id="Page-1" stroke="none" stroke-width="1" fill="none" fill-rule="evenodd">
        <g id="acquia" fill-rule="nonzero">
            <g id="shapes">
                <path d="M79.8,0 C86,13 97.6,19.3 108.6,26.3 C122.4,35.1 136.3,43.5 147.7,55.5 C162.3,70.8 169.5,89.1 169.9,110.1 C170.4,138.2 159.8,161.5 138.9,180 C127,190.6 113,197 97.2,199.1 C71.5,202.6 49.1,195.6 30.1,178.2 C13,162.5 2.7,143.2 0.6,119.9 C-1.8,93.8 6.6,71.3 24.7,52.4 C34.1,42.6 45.1,34.6 55.9,26.4 C62.7,21.2 69.6,16.1 74.9,9.1 C76.8,6.5 78.1,3.5 79.8,0 Z" id="Bubble" fill="#2FB9E7"></path>
                <g id="Acquia" transform="translate(6.000000, 89.000000)" fill="#FFFFFF">
                    <path d="M99.6,33.1 C92.3,33.1 87,27.2 87,19.1 L87,5.8 L92.3,5.8 L92.3,19.1 C92.3,24.6 95.1,28 99.6,28 C104.1,28 106.9,24.6 106.9,19.1 L106.9,5.8 L112.2,5.8 L112.2,19.1 C112.2,27.2 106.9,33.1 99.6,33.1 L99.6,33.1 Z" id="Shape"></path>
                    <rect id="Rectangle-path" x="117.1" y="5.8" width="5.3" height="26.5"></rect>
                    <path d="M45.7,28.3 C40.7,28.3 36.7,24.3 36.7,19.3 C36.7,14.3 40.7,10.3 45.7,10.3 C48,10.3 50.2,11.2 51.7,12.7 C52.3,11.1 53.2,9.5 54.3,8.2 C51.9,6.3 49,5.3 45.7,5.3 C37.9,5.3 31.7,11.6 31.7,19.3 C31.7,27.1 38,33.3 45.7,33.3 C49,33.3 51.9,32.2 54.3,30.4 C53.3,29 52.4,27.5 51.7,25.9 C50.2,27.3 48.1,28.3 45.7,28.3 Z" id="Shape"></path>
                    <path d="M138.8,33 C135.2,33 132.1,31.7 129.7,29 C127.4,26.3 126.1,22.9 126.1,18.8 C126.1,14.8 127.3,11.5 129.7,8.9 C132,6.3 135,4.9 138.5,4.9 C141.5,4.9 144.3,6.1 146.7,8.7 L147.7,9.7 L147.7,5.7 L153,5.7 L153,32.1 L147.7,32.1 L147.7,28.5 L146.7,29.4 C144.4,31.8 141.7,33 138.8,33 L138.8,33 Z M139.8,9.6 C137.5,9.6 135.5,10.5 133.8,12.3 C132.2,14.1 131.5,16.3 131.5,18.9 C131.5,21.7 132.3,24 133.7,25.7 C135.3,27.5 137.3,28.4 139.7,28.4 C142.3,28.4 144.3,27.5 145.8,25.8 C147.4,24 148.1,21.7 148.1,19 C148.1,16.3 147.3,14 145.8,12.2 C144.4,10.5 142.3,9.6 139.8,9.6 L139.8,9.6 Z" id="Shape"></path>
                    <g id="Group" transform="translate(55.000000, 5.000000)">
                        <path d="M14.8,0.3 L14.8,0.3 C14.5,0.3 14.4,0.4 14.5,0.6 C14.5,0.6 14.5,0.7 14.6,0.7 C15.1,1.8 16.4,4.3 18.6,6 C21.5,8.2 23.3,11 23.3,14.3 C23.3,18.6 20,23.2 14.5,23.2 C9,23.2 5.7,18.5 5.7,14.3 C5.7,11 7.5,8.3 10.4,6 C12.6,4.2 14,1.6 14.4,0.6 C14.5,0.4 14.5,0.3 14.2,0.3 C14.2,0.3 14.2,0.3 14.1,0.3 C6.5,0.5 0.3,6.7 0.3,14.3 C0.3,20.6 5.6,27.9 14.2,27.9 C22.8,27.9 28.5,22.1 28.5,14.3 C28.2,6.6 22.2,0.6 14.8,0.3 Z" id="Shape"></path>
                        <polygon id="Shape" points="24.6 18.5 21 22.3 26.2 27.2 33.8 27.2"></polygon>
                    </g>
                    <path d="M27.1,32.3 L32.7,32.3 L18.7,1.5 C18.3,0.7 17.5,0.2 16.7,0.2 C15.8,0.2 15,0.7 14.7,1.5 L0.7,32.3 L6.3,32.3 L8.3,27.9 L25.1,27.9 L27.1,32.3 Z M10.5,22.9 L16.7,9.2 L22.9,22.9 L10.5,22.9 Z" id="Shape"></path>
                </g>
            </g>
        </g>
    </g>
</svg>