<svg width="170" height="200" viewBox="0 0 170 200" xmlns="http://www.w3.org/2000/svg"><title>acquia</title><g fill-rule="nonzero" fill="none"><path d="M79.8 0c6.2 13 17.8 19.3 28.8 26.3 13.8 8.8 27.7 17.2 39.1 29.2 14.6 15.3 21.8 33.6 22.2 54.6.5 28.1-10.1 51.4-31 69.9-11.9 10.6-25.9 17-41.7 19.1-25.7 3.5-48.1-3.5-67.1-20.9C13 162.5 2.7 143.2.6 119.9c-2.4-26.1 6-48.6 24.1-67.5 9.4-9.8 20.4-17.8 31.2-26 6.8-5.2 13.7-10.3 19-17.3 1.9-2.6 3.2-5.6 4.9-9.1z" fill="#2FB9E7"/><g fill="#FFF"><path d="M105.6 122.1c-7.3 0-12.6-5.9-12.6-14V94.8h5.3v13.3c0 5.5 2.8 8.9 7.3 8.9s7.3-3.4 7.3-8.9V94.8h5.3v13.3c0 8.1-5.3 14-12.6 14zM123.1 94.8h5.3v26.5h-5.3zM51.7 117.3c-5 0-9-4-9-9s4-9 9-9c2.3 0 4.5.9 6 2.4.6-1.6 1.5-3.2 2.6-4.5-2.4-1.9-5.3-2.9-8.6-2.9-7.8 0-14 6.3-14 14 0 7.8 6.3 14 14 14 3.3 0 6.2-1.1 8.6-2.9-1-1.4-1.9-2.9-2.6-4.5-1.5 1.4-3.6 2.4-6 2.4zM144.8 122c-3.6 0-6.7-1.3-9.1-4-2.3-2.7-3.6-6.1-3.6-10.2 0-4 1.2-7.3 3.6-9.9 2.3-2.6 5.3-4 8.8-4 3 0 5.8 1.2 8.2 3.8l1 1v-4h5.3v26.4h-5.3v-3.6l-1 .9c-2.3 2.4-5 3.6-7.9 3.6zm1-23.4c-2.3 0-4.3.9-6 2.7-1.6 1.8-2.3 4-2.3 6.6 0 2.8.8 5.1 2.2 6.8 1.6 1.8 3.6 2.7 6 2.7 2.6 0 4.6-.9 6.1-2.6 1.6-1.8 2.3-4.1 2.3-6.8s-.8-5-2.3-6.8c-1.4-1.7-3.5-2.6-6-2.6zM75.8 94.3c-.3 0-.4.1-.3.3 0 0 0 .1.1.1.5 1.1 1.8 3.6 4 5.3 2.9 2.2 4.7 5 4.7 8.3 0 4.3-3.3 8.9-8.8 8.9-5.5 0-8.8-4.7-8.8-8.9 0-3.3 1.8-6 4.7-8.3 2.2-1.8 3.6-4.4 4-5.4.1-.2.1-.3-.2-.3h-.1c-7.6.2-13.8 6.4-13.8 14 0 6.3 5.3 13.6 13.9 13.6 8.6 0 14.3-5.8 14.3-13.6-.3-7.7-6.3-13.7-13.7-14z"/><path d="M85.6 112.5l-3.6 3.8 5.2 4.9h7.6zM33.1 121.3h5.6l-14-30.8c-.4-.8-1.2-1.3-2-1.3-.9 0-1.7.5-2 1.3l-14 30.8h5.6l2-4.4h16.8l2 4.4zm-16.6-9.4l6.2-13.7 6.2 13.7H16.5z"/></g></g></svg>