<svg xmlns="http://www.w3.org/2000/svg" xmlns:xlink="http://www.w3.org/1999/xlink" width="100" height="100" viewBox="0 0 100 100"><path fill="#E2574C" d="M50.006-.005c27.614 0 50 22.386 50 50 0 27.615-22.386 50-50 50s-50-22.385-50-50 22.386-50 50-50z"/><path fill="#415E6D" d="M22.406 20.088l17.387 4.647c1.601.428 2.551 2.069 2.121 3.665l-18.635 69.385c-.429 1.596-2.073 2.545-3.674 2.117l-17.386-4.648c-1.601-.428-2.551-2.068-2.121-3.666l18.635-69.383c.428-1.597 2.074-2.545 3.673-2.117z"/><path fill="#2C4552" d="M16.299 78.158c2.667.715 4.25 3.457 3.535 6.123-.715 2.668-3.456 4.252-6.123 3.537-2.668-.715-4.251-3.457-3.536-6.125.715-2.666 3.456-4.25 6.124-3.535z"/><path fill="#fff" d="M17.074 75.289c-4.268-1.141-8.654 1.387-9.798 5.646s1.39 8.637 5.657 9.779c4.268 1.141 8.654-1.387 9.798-5.646s-1.388-8.636-5.657-9.779zm2.76 9.004c-.715 2.662-3.457 4.242-6.124 3.529s-4.25-3.449-3.535-6.111 3.456-4.242 6.123-3.529c2.668.713 4.251 3.449 3.536 6.111zm16.437-53.675l-13.324-3.598c-.525-.142-1.065.173-1.207.702l-9.689 36.434c-.141.529.172 1.074.697 1.217l13.323 3.596c.525.143 1.065-.172 1.206-.701l9.689-36.435c.142-.53-.17-1.075-.695-1.215z"/><path fill="#B2B2B2" d="M20.134 43.993l-.528 1.873 9.865 2.511.528-1.874-9.865-2.51zm-1.771 6.494l9.865 2.509.528-1.873-9.865-2.51-.528 1.874z"/><path fill="#26A6D1" d="M23.522 32.991l9.472 2.472-1.523 5.536-9.471-2.473 1.522-5.535z"/><defs><path id="a" d="M50.006-.005c27.614 0 50 22.386 50 50 0 27.615-22.386 50-50 50s-50-22.385-50-50 22.386-50 50-50z"/></defs><clipPath id="b"><use xlink:href="#a" overflow="visible"/></clipPath><g clip-path="url(#b)"><path fill="#415E6D" d="M69.006 21.995h18c1.657 0 3 1.344 3 3v72c0 1.658-1.343 3-3 3h-18c-1.657 0-3-1.342-3-3v-72c0-1.657 1.343-3 3-3z"/><path fill="#2C4552" d="M77.506 80.994c3.037 0 5.5 2.238 5.5 5s-2.463 5-5.5 5-5.5-2.238-5.5-5 2.463-5 5.5-5z"/><path fill="#415E6D" d="M45.006 21.995h18c1.657 0 3 1.344 3 3v72c0 1.658-1.343 3-3 3h-18c-1.657 0-3-1.342-3-3v-72c0-1.657 1.343-3 3-3z"/><path fill="#2C4552" d="M54.006 80.994c2.762 0 5 2.238 5 5s-2.238 5-5 5-5-2.238-5-5 2.238-5 5-5z"/><path fill="#fff" d="M54.006 77.994c-4.418 0-8 3.582-8 8s3.582 8 8 8 8-3.582 8-8-3.582-8-8-8zm0 13c-2.762 0-5-2.238-5-5s2.238-5 5-5 5 2.238 5 5-2.238 5-5 5zm7-60.999h-14c-.553 0-1 .447-1 1v38c0 .553.447 1 1 1h14c.553 0 1-.447 1-1v-38c0-.553-.447-1-1-1z"/><path fill="#B2B2B2" d="M49.006 45.995v2h10v-2h-10zm0 6.999h10v-2h-10v2z"/><path fill="#4BBFAA" d="M49.006 35.995h10v6h-10v-6z"/><path fill="#344B57" d="M44.006 96.994v-72c0-1.656 1.343-3 3-3h-2c-1.657 0-3 1.344-3 3v72c0 1.658 1.343 3 3 3h2c-1.657 0-3-1.342-3-3zM68.006 96.994v-72c0-1.656 1.343-3 3-3h-2c-1.657 0-3 1.344-3 3v72c0 1.658 1.343 3 3 3h2c-1.657 0-3-1.342-3-3z"/><path fill="#233742" d="M77.506 80.994c-1.881 0-3.54.859-4.531 2.17.955-.729 2.187-1.17 3.531-1.17 3.037 0 5.5 2.238 5.5 5 0 1.053-.358 2.025-.969 2.832 1.203-.918 1.969-2.293 1.969-3.832 0-2.762-2.463-5-5.5-5z"/><path fill="#fff" d="M78.006 77.994c-4.418 0-8 3.582-8 8s3.582 8 8 8 8-3.582 8-8-3.582-8-8-8zm0 13c-2.762 0-5-2.238-5-5s2.238-5 5-5 5 2.238 5 5-2.238 5-5 5zm7-60.999h-14c-.553 0-1 .447-1 1v38c0 .553.447 1 1 1h14c.553 0 1-.447 1-1v-38c0-.553-.447-1-1-1z"/><path fill="#B2B2B2" d="M73.006 45.995v2h10v-2h-10zm0 6.999h10v-2h-10v2z"/><path fill="#F4B459" d="M73.006 35.995h10v6h-10v-6z"/><path fill="#233742" d="M54.006 80.994c-1.637 0-3.075.797-3.987 2.014.835-.629 1.862-1.014 2.987-1.014 2.762 0 5 2.238 5 5 0 1.125-.385 2.152-1.013 2.988 1.216-.912 2.013-2.352 2.013-3.988 0-2.762-2.238-5-5-5z"/></g><path fill="#233742" d="M16.299 78.158c-2.045-.547-4.124.262-5.31 1.867 1.188-.902 2.756-1.283 4.31-.867 2.667.715 4.25 3.457 3.535 6.123-.167.623-.453 1.182-.814 1.67.853-.646 1.516-1.555 1.814-2.67.715-2.666-.868-5.408-3.535-6.123z"/><path fill="#344B57" d="M22.406 20.088c-1.6-.429-3.245.52-3.674 2.116l-18.634 69.384c-.43 1.598.521 3.238 2.121 3.666l1.575.422c-1.589-.438-2.53-2.096-2.103-3.686l18.635-69.384c.408-1.518 1.916-2.435 3.438-2.155l-1.358-.363z"/></svg>