<svg width="30" height="11" viewBox="0 -26.7857 30 10.7143" xmlns="http://www.w3.org/2000/svg"><path d="M30-21.429c0-.284-.117-.552-.318-.753l-4.286-4.286c-.2-.2-.469-.318-.753-.318-.586 0-1.072.486-1.072 1.072v2.143H6.43v-2.143c0-.586-.486-1.072-1.072-1.072-.285 0-.552.117-.753.318L.318-22.182c-.2.201-.318.469-.318.753 0 .285.117.553.318.754l4.286 4.286c.2.2.468.318.753.318.586 0 1.072-.486 1.072-1.072v-2.143H23.57v2.143c0 .586.486 1.072 1.072 1.072.284 0 .552-.118.753-.318l4.286-4.286c.2-.201.318-.469.318-.754z"/></svg>