<?xml version="1.0" encoding="UTF-8"?>
<svg width="26" height="26" version="1.1" viewBox="0 -49.2858 25.7143 25.7143" xmlns="http://www.w3.org/2000/svg" xmlns:xlink="http://www.w3.org/1999/xlink">
    <!--Generated by IJSVG (https://github.com/curthard89/IJSVG)-->
    <g fill="#000000">
        <path d="M21.4788,6.91407l2.41072,2.41072c0.200894,0.200893 0.468751,0.318081 0.75335,0.318081c0.133928,0 0.284598,-0.033483 0.418527,-0.083706c0.385045,-0.167411 0.652902,-0.552456 0.652902,-0.987724v-7.50001c0,-0.585938 -0.485491,-1.07143 -1.07143,-1.07143h-7.50001c-0.435269,0 -0.820314,0.267857 -0.987725,0.669644c-0.167411,0.385045 -0.083705,0.853795 0.234375,1.15514l2.41072,2.41072l-5.94309,5.94309l-5.94309,-5.94309l2.41072,-2.41072c0.318081,-0.30134 0.401786,-0.77009 0.234375,-1.15514c-0.167411,-0.401787 -0.552456,-0.669644 -0.987724,-0.669644h-7.50001c-0.585938,0 -1.07143,0.485492 -1.07143,1.07143v7.50001c0,0.435268 0.267857,0.820313 0.669644,0.987724c0.117187,0.050223 0.267857,0.083706 0.401786,0.083706c0.284598,0 0.552456,-0.117188 0.753349,-0.318081l2.41072,-2.41072l5.94309,5.94309l-5.94309,5.94309l-2.41072,-2.41072c-0.30134,-0.31808 -0.77009,-0.401786 -1.15514,-0.234375c-0.401787,0.167411 -0.669644,0.552456 -0.669644,0.987725v7.50001c0,0.585939 0.485492,1.07143 1.07143,1.07143h7.50001c0.435268,0 0.820313,-0.267857 0.987724,-0.669643c0.167411,-0.385045 0.083706,-0.853796 -0.234375,-1.15514l-2.41072,-2.41072l5.94309,-5.94309l5.94309,5.94309l-2.41072,2.41072c-0.31808,0.30134 -0.401786,0.770091 -0.234375,1.15514c0.167411,0.401786 0.552456,0.669643 0.987725,0.669643h7.50001c0.585938,0 1.07143,-0.485491 1.07143,-1.07143v-7.50001c0,-0.435269 -0.267857,-0.820314 -0.652902,-0.987725c-0.401786,-0.167411 -0.870537,-0.083705 -1.17188,0.234375l-2.41072,2.41072l-5.94309,-5.94309Z" transform="translate(0, -49.2858)"></path>
    </g>
</svg>