<svg width="26" height="26" viewBox="0 -49.2858 25.7143 25.7143" xmlns="http://www.w3.org/2000/svg"><path d="M21.479-42.372l2.41 2.411c.201.2.47.318.754.318.134 0 .284-.033.418-.084.385-.167.653-.552.653-.987v-7.5c0-.586-.485-1.072-1.071-1.072h-7.5c-.435 0-.82.268-.988.67-.167.385-.084.854.235 1.155l2.41 2.41-5.943 5.944-5.943-5.943 2.41-2.411c.319-.301.403-.77.235-1.155a1.074 1.074 0 0 0-.988-.67h-7.5C.485-49.286 0-48.8 0-48.214v7.5c0 .435.268.82.67.987.117.05.267.084.401.084.285 0 .553-.117.754-.318l2.41-2.41 5.944 5.942-5.944 5.943-2.41-2.41a1.033 1.033 0 0 0-1.155-.235c-.402.168-.67.553-.67.988v7.5c0 .586.485 1.072 1.071 1.072h7.5c.436 0 .82-.268.988-.67a1.033 1.033 0 0 0-.234-1.155l-2.411-2.411 5.943-5.943 5.943 5.943-2.41 2.41c-.319.302-.402.77-.235 1.156.168.402.553.67.988.67h7.5c.586 0 1.071-.486 1.071-1.072v-7.5c0-.435-.268-.82-.653-.988a1.053 1.053 0 0 0-1.171.235l-2.411 2.41-5.943-5.943z"/></svg>