<svg xmlns="http://www.w3.org/2000/svg" width="100" height="100" viewBox="0 0 100 100"><circle fill="#2EA9D3" cx="50" cy="50" r="50"/><path fill="#43B2D7" d="M91.283 21.999c-.459-.679-.938-1.345-1.428-2h-8v-8.412c-.654-.545-1.32-1.076-2-1.587v9.999h-18v-18.539c-.662-.163-1.328-.321-2-.458v18.996h-18v-19.352c-.67.108-1.34.223-2 .357v18.996h-18v-11.428c-.679.46-1.345.937-2 1.429v9.999h-10c-.492.655-.969 1.321-1.429 2h11.428v18h-18.997c-.134.661-.25 1.33-.357 2h19.355v18h-18.998c.137.674.294 1.338.458 2h18.541v18h-10.003c.512.683 1.042 1.349 1.587 2h8.415v8.001c.655.492 1.321.969 2 1.43v-9.432h18v17c.66.133 1.33.248 2 .357v-17.357h18v17c.672-.137 1.338-.295 2-.459v-16.541h18v8.002c.68-.512 1.346-1.043 2-1.588v-6.414h6.414c.545-.652 1.076-1.318 1.588-2h-8.002v-18h16.541c.162-.662.319-1.326.457-2h-16.998v-18h17.354c-.107-.67-.223-1.339-.355-2h-16.999v-18l9.428.001zm-51.428 57.999h-18v-18h18v18zm0-20h-18v-18h18v18zm0-19.999h-18v-18h18v18zm20 39.999h-18v-18h18v18zm0-20h-18v-18h18v18zm0-19.999h-18v-18h18v18zm20 39.999h-18v-18h18v18zm0-20h-18v-18h18v18zm0-19.999h-18v-18h18v18z"/><path fill="#EFEFEF" d="M76.456 38.26l-5.164 5.164c-.767.767-2.01.767-2.776 0l-8.94-8.94c-.767-.767-.767-2.01 0-2.776l5.165-5.165c.767-.767 2.01-.767 2.775 0l8.94 8.94c.767.767.767 2.01 0 2.777z"/><path fill="#D7D7D7" d="M70.516 41.424l-8.94-8.94c-.767-.767-.767-2.01 0-2.776l-2 2c-.767.767-.767 2.01 0 2.776l8.94 8.94c.768.767 2.01.767 2.776 0l2-2c-.767.767-2.01.767-2.776 0z"/><path fill="#EFC75E" d="M91.438 77.986l-49.704-49.704c-.396-.395-1.036-.395-1.432 0l-10.02 10.021c-.395.395-.395 1.035 0 1.431l50.025 50.026c4.316-3.295 8.084-7.27 11.131-11.774z"/><path fill="#D9B556" d="M45.497 32.006l-5.206 5.205c-.41.41-.41 1.076 0 1.487.411.41 1.077.41 1.487 0l5.206-5.206-1.487-1.486zm2.943 2.984l-3.121 3.121c-.431.431-.431 1.129 0 1.56.431.432 1.13.432 1.561 0l3.121-3.12-1.561-1.561zm1.44 7.68l3.121-3.12-1.562-1.56-3.121 3.12c-.431.432-.431 1.13 0 1.561.432.431 1.131.431 1.562-.001zm4.617-1.664l-5.206 5.205c-.41.41-.41 1.076 0 1.487.411.411 1.077.411 1.486 0l5.207-5.205-1.487-1.487zm2.942 2.984l-3.121 3.12c-.43.432-.43 1.13 0 1.561.432.432 1.131.432 1.562 0l3.121-3.121-1.562-1.56zm1.441 7.682l3.121-3.123-1.562-1.56-3.121 3.12c-.43.431-.43 1.129 0 1.562.432.431 1.131.431 1.562.001zm4.617-1.667l-5.206 5.206c-.41.41-.41 1.076 0 1.488.411.41 1.077.41 1.486 0l5.207-5.207-1.487-1.487zm2.942 2.983l-3.121 3.123c-.43.43-.43 1.129 0 1.561.432.43 1.131.43 1.562 0l3.121-3.123-1.562-1.561zm1.441 7.684l3.121-3.123-1.562-1.559-3.121 3.121c-.43.43-.43 1.129 0 1.561.432.43 1.131.43 1.562 0zm4.617-1.666l-5.206 5.205c-.41.41-.41 1.076 0 1.488.411.41 1.077.41 1.486 0l5.207-5.207-1.487-1.486zm2.942 2.984l-3.121 3.121c-.43.43-.43 1.129 0 1.559.432.432 1.131.432 1.562 0l3.121-3.119-1.562-1.561zm1.441 7.68l3.121-3.119-1.562-1.561-3.121 3.119c-.43.432-.43 1.131 0 1.561.432.432 1.131.432 1.562 0zm4.617-1.664l-5.206 5.205c-.41.412-.41 1.076 0 1.488.411.41 1.077.41 1.486 0l5.207-5.205-1.487-1.488zm2.942 2.984l-3.121 3.119c-.43.432-.43 1.131 0 1.561.432.432 1.131.432 1.562 0l3.121-3.121-1.562-1.559zm3 3l-3.121 3.121c-.43.43-.43 1.129 0 1.561.432.43 1.131.43 1.562 0l3.121-3.123-1.562-1.559zM45.497 32.006l-5.206 5.205c-.41.41-.41 1.076 0 1.487.411.41 1.077.41 1.487 0l5.206-5.206-1.487-1.486zm2.943 2.984l-3.121 3.121c-.431.431-.431 1.129 0 1.56.431.432 1.13.432 1.561 0l3.121-3.12-1.561-1.561zm1.44 7.68l3.121-3.12-1.562-1.56-3.121 3.12c-.431.432-.431 1.13 0 1.561.432.431 1.131.431 1.562-.001zm4.617-1.664l-5.206 5.205c-.41.41-.41 1.076 0 1.487.411.411 1.077.411 1.486 0l5.207-5.205-1.487-1.487zm2.942 2.984l-3.121 3.12c-.43.432-.43 1.13 0 1.561.432.432 1.131.432 1.562 0l3.121-3.121-1.562-1.56zm1.441 7.682l3.121-3.123-1.562-1.56-3.121 3.12c-.43.431-.43 1.129 0 1.562.432.431 1.131.431 1.562.001zm4.617-1.667l-5.206 5.206c-.41.41-.41 1.076 0 1.488.411.41 1.077.41 1.486 0l5.207-5.207-1.487-1.487zm2.942 2.983l-3.121 3.123c-.43.43-.43 1.129 0 1.561.432.43 1.131.43 1.562 0l3.121-3.123-1.562-1.561zm1.441 7.684l3.121-3.123-1.562-1.559-3.121 3.121c-.43.43-.43 1.129 0 1.561.432.43 1.131.43 1.562 0zm4.617-1.666l-5.206 5.205c-.41.41-.41 1.076 0 1.488.411.41 1.077.41 1.486 0l5.207-5.207-1.487-1.486zm2.942 2.984l-3.121 3.121c-.43.43-.43 1.129 0 1.559.432.432 1.131.432 1.562 0l3.121-3.119-1.562-1.561zm1.441 7.68l3.121-3.119-1.562-1.561-3.121 3.119c-.43.432-.43 1.131 0 1.561.432.432 1.131.432 1.562 0zm4.617-1.664l-5.206 5.205c-.41.412-.41 1.076 0 1.488.411.41 1.077.41 1.486 0l5.207-5.205-1.487-1.488zm2.942 2.984l-3.121 3.119c-.43.432-.43 1.131 0 1.561.432.432 1.131.432 1.562 0l3.121-3.121-1.562-1.559zm3 3l-3.121 3.121c-.43.43-.43 1.129 0 1.561.432.43 1.131.43 1.562 0l3.121-3.123-1.562-1.559z"/><path fill="#324D5B" d="M57.008 77.256l-27.345-27.321s-8.174-3.337-8.616-2.895c-.467.466 2.859 8.646 2.859 8.646l27.141 27.024c.78.78 2.771.03 4.335-1.53 1.382-1.381 2.031-3.022 1.626-3.924z"/><path fill="#E2574C" d="M60.988 37.06l9.072-9.071 4.949 4.949-9.07 9.071-4.951-4.949z"/><path fill="#2D4552" d="M26.906 55.686s-2.34-5.755-2.813-7.878c-1.556-.544-2.875-.937-3.046-.766-.467.466 2.859 8.645 2.859 8.645l27.141 27.025c.523.523 1.592.348 2.71-.289l-26.851-26.737z"/><path fill="#F2D079" d="M81.913 88.48l-50.903-50.904-.727.726c-.377.377-.383.975-.039 1.373l50.076 50.075c.539-.412 1.071-.836 1.593-1.27z"/><path fill="#2A9AC1" d="M56.841 79.088c-.288.682-.784 1.418-1.459 2.092-1.562 1.562-3.555 2.312-4.335 1.531l-27.141-27.025s-1.667-4.102-2.474-6.661c-.194-.027-.34-.03-.386.016-.467.466 2.859 8.645 2.859 8.645l27.141 27.025c.78.781 2.772.031 4.335-1.531 1.381-1.381 2.031-3.021 1.626-3.924l-.166-.168z"/><g fill="#3DA3C5"><path d="M57.118 79.998h-.776c-.262.4-.578.801-.96 1.182-.312.311-.64.578-.972.818h1.936c.466-.711.738-1.414.772-2zM28.237 61.998h2.009l-2.009-2h-2.008zM22 50.701c-.21-.59-.406-1.165-.567-1.676-.194-.027-.34-.03-.386.016-.203.202.309 1.855.953 3.665v-2.005zM48.322 79.998h-2.008l2.008 2h2.009zM42 73.703l-2-1.992v2l2 1.992z"/></g><path fill="#2A9AC1" d="M80.309 89.758l-49.74-49.74-.285.285c-.395.395-.395 1.035 0 1.431l48.873 48.874c.387-.28.773-.561 1.152-.85z"/><g fill="#3DA3C5"><path d="M42 51.449l-2-1.999v1.999l2 2zM30.568 40.018l-.285.285c-.395.395-.395 1.035 0 1.431l.266.266h2l-1.981-1.982zM50.549 61.998h2l-2-2h-2zM70.549 79.998h-2l2 2h2zM62 71.449l-2-2v2l2 2z"/></g><path fill="#CB4E44" d="M62.986 35.062l4.95 4.949-1.999 2-4.95-4.949z"/><path fill="#2A9AC1" d="M68.516 43.424l-8.94-8.94c-.767-.767-.767-2.01 0-2.776l-1 1c-.767.767-.767 2.01 0 2.776l8.94 8.94c.768.767 2.01.767 2.776 0l1-1c-.767.767-2.01.767-2.776 0z"/><g fill="#3DA3C5"><path d="M61.855 36.765l-2-2v2l2 2zM65.09 41.999h2l-2-2h-2z"/></g><path fill="#FFE296" d="M29.663 49.935s-8.174-3.337-8.616-2.895c-.467.466 2.859 8.646 2.859 8.646l.268.268c1.43-.15 2.818-.77 3.914-1.865 1.084-1.084 1.701-2.455 1.859-3.869l-.284-.285z"/><path fill="#E9CF89" d="M24.093 47.806c-1.556-.544-2.875-.937-3.046-.766-.467.466 2.859 8.646 2.859 8.646l.268.268c.873-.092 1.723-.381 2.508-.824-.592-1.485-2.203-5.596-2.589-7.324z"/><path fill="#2D4552" d="M23.963 47.76c-1.5-.521-2.751-.885-2.917-.72-.174.174.18 1.423.692 2.919.591.072 1.207-.109 1.66-.562.449-.447.63-1.053.565-1.637z"/></svg>