<?xml version="1.0" encoding="UTF-8" standalone="no"?>
<svg width="28" height="26" version="1.1" viewBox="-0.066964 -50.2902 28.0413 26.2165" xmlns="http://www.w3.org/2000/svg" xmlns:xlink="http://www.w3.org/1999/xlink">
    <!--Generated by IJSVG (https://github.com/curthard89/IJSVG)-->
    <g fill="#000000">
        <path d="M27.5056,6.36162c-0.251117,-0.334822 -0.60268,-0.569197 -0.987725,-0.719867c0.016741,0.30134 0.016741,0.636162 -0.083705,0.954242l-5.02233,16.5235c-0.184152,0.602679 -0.904019,0.954242 -1.52344,0.954242h-15.452c-0.92076,0 -2.07589,-0.200893 -2.41072,-1.17188c-0.133929,-0.368304 -0.117188,-0.518973 0.016741,-0.719866c0.15067,-0.200894 0.418527,-0.251117 0.636161,-0.251117h14.548c2.12612,0 2.56139,-0.569197 3.34822,-3.14733l4.58706,-15.1674c0.234375,-0.786831 0.133929,-1.57366 -0.30134,-2.17634c-0.418527,-0.585938 -1.12165,-0.937501 -1.90848,-0.937501h-12.74c-0.284598,0 -0.569197,0.083706 -0.853795,0.15067l0.016741,-0.050223c-2.12612,-0.60268 -2.26005,1.69085 -2.96317,2.7288c-0.267858,0.385045 -0.669644,0.719867 -0.736608,1.03795c-0.050224,0.30134 0.117187,0.585939 0.083705,0.870537c-0.100446,0.887278 -0.77009,2.47768 -1.17188,3.03014c-0.251117,0.334821 -0.619421,0.502232 -0.736608,0.887277c-0.100447,0.267858 0.066964,0.652903 0.033482,1.00447c-0.083706,0.786831 -0.669644,2.27679 -1.12165,3.04688c-0.167411,0.301339 -0.485492,0.535715 -0.569197,0.853795c-0.083706,0.284599 0.083705,0.652903 0,0.970984c-0.184152,0.870536 -0.75335,2.22657 -1.25558,3.06362c-0.267858,0.45201 -0.619421,0.736608 -0.686385,1.13839c-0.033482,0.200894 0.117188,0.418528 0.100447,0.686385c-0.016742,0.401786 -0.083706,0.736608 -0.117188,1.07143c-0.234375,0.636162 -0.234375,1.37277 0.033482,2.12612c0.61942,1.74107 2.4442,3.0971 4.15179,3.0971h15.452c1.43973,0 2.91295,-1.10491 3.33148,-2.5279l4.6038,-15.1674c0.234376,-0.77009 0.117188,-1.55692 -0.301339,-2.1596Zm-17.8125,0.033482l0.351562,-1.07143c0.100447,-0.30134 0.418528,-0.535715 0.703126,-0.535715h10.1786c0.30134,0 0.46875,0.234375 0.368304,0.535715l-0.351563,1.07143c-0.100447,0.30134 -0.418527,0.535715 -0.703126,0.535715h-10.1786c-0.30134,0 -0.468751,-0.234375 -0.368304,-0.535715Zm-1.38951,4.28572l0.351563,-1.07143c0.100446,-0.30134 0.418527,-0.535715 0.703126,-0.535715h10.1786c0.30134,0 0.468751,0.234375 0.368304,0.535715l-0.351563,1.07143c-0.100446,0.301339 -0.418527,0.535715 -0.703125,0.535715h-10.1786c-0.30134,0 -0.468751,-0.234376 -0.368304,-0.535715Z" transform="translate(-0.066964, -50.2902)"></path>
    </g>
</svg>