<svg xmlns="http://www.w3.org/2000/svg" xmlns:xlink="http://www.w3.org/1999/xlink" width="100" height="100" viewBox="0 0 100 100"><path fill="#324D5B" d="M50 0c27.614 0 50 22.386 50 50s-22.386 50-50 50-50-22.386-50-50 22.386-50 50-50z"/><defs><path id="a" d="M50 0c27.614 0 50 22.386 50 50s-22.386 50-50 50-50-22.386-50-50 22.386-50 50-50z"/></defs><clipPath id="b"><use xlink:href="#a" overflow="visible"/></clipPath><g clip-path="url(#b)"><path fill="#CDCFCF" d="M29.014 39.959l18.615-25.457c2.959-1.484 5.358.32 5.358 4.03l-2 61.862-21.974-.004v-40.431z"/><path fill="#D7D9D9" d="M28.014 40.865l28.615-24.363c2.959-1.484 5.358.32 5.358 4.03l1 62.695-34.974.018v-42.38z"/><path fill="#E4E7E7" d="M26.991 41.485l38.638-22.983c2.959-1.484 5.358.32 5.358 4.03l3 63.695-46.974.018-.022-44.76zM25.009 36.485c-9.322-4.03-36.638-17.983-36.638-17.983-2.959-1.484-5.358 1.32-5.358 5.03v62.695l45.975-.065v-45.107c-.001-2.055-2.064-3.742-3.979-4.57z"/><path fill="#F9A54B" d="M27.991 41c-3.497 0-6.991-1-6.991-1v55l14 6v-61s-3.506 1-7.009 1z"/><path fill="#C88B4A" d="M26 70h4c1.104 0 2 .896 2 2v26l-8-4v-22c0-1.104.896-2 2-2z"/><path fill="#E09443" d="M27 40.934c-3.137-.157-6-.979-6-.979v55.396l6 2.59v-57.007z"/><path fill="#BF392B" d="M27.991 52c-3.497 0-6.991-1-6.991-1v6s3.494 1 6.991 1c3.503 0 7.009-1 7.009-1v-6s-3.506 1-7.009 1z"/><path fill="#FAAE5D" d="M35.014 39.99l39.615-18.488c2.959-1.484 5.358.32 5.358 4.03v63.695c0 3.71-2.399 7.92-5.358 9.404l-39.615 18.363v-77.004z"/><path fill="#E08F38" d="M36.986 111.998v-72.935l-1.993.928v72.007h1.993z"/><path fill="#FBBA74" d="M37 39.09v72.906h2v-73.84l-2 .934z"/><path fill="#FAAE5D" d="M20.987 39.99l-39.616-18.488c-2.959-1.484-5.358.32-5.358 4.03v63.695c0 3.71 2.399 7.92 5.358 9.404l39.616 18.363v-77.004z"/><path fill="#DA872F" d="M19.014 111.998v-72.935l1.993.928v72.007h-1.993z"/><path fill="#FBBA74" d="M19 39.09v72.906h-2v-73.84l2 .934z"/><path fill="#824A0E" d="M59 51.203c-6.627 3.259-12 12.503-12 20.648s5.373 12.107 12 8.848c6.628-3.258 12-12.502 12-20.648 0-8.145-5.372-12.107-12-8.848zm2.06 8.109c0 1.193-.769 2.548-1.718 3.024-.949.478-1.719-.103-1.719-1.296s.77-2.548 1.719-3.024c.949-.478 1.718.102 1.718 1.296zm-1.718 17.698l-.215.095v.011l-.125.07c-4.933 2.48-8.932-.535-8.932-6.736s3.999-13.238 8.932-15.719l.125-.055v.02c-2.36 1.336-4.242 4.711-4.242 7.711 0 3.002 1.88 4.501 4.242 3.461v.056l.215-.136c2.467-1.24 4.467.266 4.467 3.365 0 3.098-2 6.617-4.467 7.857zm-.344-7.889c-1.105.506-2.001 1.941-2.001 3.206s.896 1.88 2.001 1.374c1.104-.506 2-1.941 2-3.207 0-1.264-.895-1.879-2-1.373z"/><path fill="#B47D42" d="M27 70h-1c-1.104 0-2 .896-2 2v22l3 1.5v-25.5z"/></g></svg>