<svg width="30" height="26" viewBox="0 -51.4286 30 25.7143" xmlns="http://www.w3.org/2000/svg"><path d="M10.714-47.143v-2.143h8.572v2.143zM30-36.429H18.75v2.679c0 .586-.485 1.071-1.071 1.071H12.32a1.079 1.079 0 0 1-1.071-1.071v-2.679H0v8.036a2.686 2.686 0 0 0 2.679 2.679H27.32A2.686 2.686 0 0 0 30-28.393zm-12.857 0h-4.286v2.143h4.286zM30-44.464a2.686 2.686 0 0 0-2.679-2.679H21.43v-2.678c0-.888-.72-1.608-1.608-1.608H10.18c-.888 0-1.608.72-1.608 1.608v2.678H2.68A2.686 2.686 0 0 0 0-44.464v6.428h30z"/></svg>