<svg xmlns="http://www.w3.org/2000/svg" width="100" height="100" viewBox="0 0 100 100"><path fill="#3DB39E" d="M49.97 0c27.614 0 50 22.386 50 50s-22.386 50-50 50-50-22.387-50-50c0-27.615 22.385-50 50-50z"/><path fill="#F7F7F7" d="M24.97 20c-2.761 0-5 2.239-5 5v65c8.356 6.277 18.743 10 30 10 27.614 0 50-22.387 50-50 0-11.257-3.722-21.643-9.999-30h-65.001z"/><path fill="#324D5B" d="M25.97 49v20c0 1.104.896 2 2 2h67.376c2.96-6.387 4.624-13.498 4.624-21 0-1.008-.039-2.007-.098-3h-71.902c-1.105 0-2 .895-2 2z"/><path fill="#EFC75E" d="M89.368 48.001c-.293 2.633-1.76 4.096-4.398 4.389 2.639.293 4.105 1.758 4.398 4.391.293-2.633 1.76-4.098 4.398-4.391-2.638-.292-4.105-1.755-4.398-4.389zm-32.148 10.171c-.228 2.047-1.367 3.186-3.42 3.414 2.053.229 3.192 1.367 3.42 3.414.229-2.047 1.369-3.186 3.422-3.414-2.053-.229-3.194-1.367-3.422-3.414z"/><path fill="#556C77" d="M38.526 50.025c-.162 1.463-.977 2.276-2.443 2.44 1.467.162 2.281.975 2.443 2.438.164-1.463.979-2.275 2.443-2.438-1.464-.164-2.279-.977-2.443-2.44zm45.796 13.024c-.13 1.17-.782 1.822-1.954 1.951 1.172.131 1.824.781 1.954 1.951.13-1.17.782-1.82 1.954-1.951-1.172-.129-1.824-.781-1.954-1.951zm-12.317-8.342c-.164 1.463-.979 2.277-2.443 2.439 1.465.162 2.279.977 2.443 2.439.162-1.463.977-2.277 2.443-2.439-1.467-.162-2.281-.976-2.443-2.439z"/><path fill="#DCDDDD" d="M40.97 59c4.971 0 9 4.029 9 9s-4.029 9-9 9-9-4.029-9-9 4.029-9 9-9z"/><path fill="#E2574C" d="M29.47 26c-1.933 0-3.5 1.567-3.5 3.5 0 1.934 1.567 3.5 3.5 3.5 1.934 0 3.5-1.566 3.5-3.5 0-1.933-1.567-3.5-3.5-3.5zm0 5c-.828 0-1.5-.672-1.5-1.5s.672-1.5 1.5-1.5 1.5.672 1.5 1.5-.672 1.5-1.5 1.5z"/><path fill="#EFC75E" d="M39.47 26c-1.934 0-3.5 1.567-3.5 3.5 0 1.934 1.566 3.5 3.5 3.5s3.5-1.566 3.5-3.5c0-1.933-1.567-3.5-3.5-3.5zm0 5c-.828 0-1.5-.672-1.5-1.5s.672-1.5 1.5-1.5 1.5.672 1.5 1.5-.672 1.5-1.5 1.5z"/><path fill="#3DB39E" d="M49.47 26c-1.934 0-3.5 1.567-3.5 3.5 0 1.934 1.566 3.5 3.5 3.5s3.5-1.566 3.5-3.5c0-1.933-1.567-3.5-3.5-3.5zm0 5c-.828 0-1.5-.672-1.5-1.5s.672-1.5 1.5-1.5 1.5.672 1.5 1.5-.672 1.5-1.5 1.5z"/><g fill="#E4E7E7"><path d="M25.97 82c0 .553.448 1 1 1h26c.553 0 1-.447 1-1s-.447-1-1-1h-26c-.553 0-1 .447-1 1zM57.97 86c0 .553.447 1 1 1h24.631c.709-.645 1.393-1.316 2.063-2h-26.694c-.553 0-1 .447-1 1zM53.97 90c0-.553-.447-1-1-1h-26c-.552 0-1 .447-1 1s.448 1 1 1h26c.552 0 1-.447 1-1zM57.97 82c0 .553.447 1 1 1h28.547c.573-.652 1.129-1.318 1.668-2h-30.215c-.553 0-1 .447-1 1zM93.839 26h-33.869c-1.104 0-2 .896-2 2v3c0 1.104.896 2 2 2h37.031c-.878-2.426-1.937-4.765-3.162-7zM52.97 85h-26c-.552 0-1 .447-1 1s.448 1 1 1h26c.553 0 1-.447 1-1s-.448-1-1-1zM58.97 89c-.553 0-1 .447-1 1s.447 1 1 1h19.604c.912-.639 1.803-1.305 2.67-2h-22.274z"/></g><path fill="#E4E7E7" d="M98.741 39h-78.771v2h79.177c-.123-.672-.257-1.338-.406-2z"/><path fill="#349886" d="M43.97 67.5c0-2.486-1.344-4.5-3-4.5s-3 2.014-3 4.5c0 1.479.482 2.779 1.216 3.6-2.308.258-4.296 1.006-5.598 2.041 1.626 2.33 4.323 3.859 7.382 3.859s5.756-1.529 7.382-3.859c-1.302-1.035-3.29-1.783-5.598-2.041.733-.821 1.216-2.121 1.216-3.6z"/></svg>