<svg xmlns="http://www.w3.org/2000/svg" width="100" height="100" viewBox="0 0 100 100"><path fill="#3DB39E" d="M50 0c-27.614 0-50 22.386-50 50 0 27.615 22.386 50 50 50s50-22.385 50-50c0-27.614-22.386-50-50-50z"/><path fill="#EFC75E" d="M23 22h54c1.657 0 3 1.343 3 3v50c0 1.657-1.343 3-3 3h-54c-1.657 0-3-1.343-3-3v-50c0-1.657 1.343-3 3-3z"/><path fill="#fff" d="M27 27h46c1.104 0 2 .896 2 1.999v43.002c0 1.103-.896 1.999-2 1.999h-46c-1.104 0-2-.896-2-1.999v-43.002c0-1.103.896-1.999 2-1.999z"/><path fill="#F2F2F2" d="M25 72.001c0 1.103.896 1.999 2 1.999h46c1.104 0 2-.896 2-1.999v-21.001h-50v21.001z"/><path fill="#40545E" d="M46.894 56.526h-4.905c2.278-2.806 6.433-6.423 6.433-10.067 0-3.33-2.653-5.454-5.95-5.454s-6.3 2.647-6.3 5.951c0 1.022.671 1.914 1.957 1.914 2.573 0 1.099-4.247 4.182-4.247 1.099 0 1.93.943 1.93 2.019 0 .944-.455 1.757-.938 2.438-2.037 2.885-4.449 5.244-6.674 7.84-.268.315-.616.787-.616 1.337 0 1.207.911 1.73 2.091 1.73h8.952c1.019 0 1.931-.523 1.931-1.73-.003-1.206-.915-1.731-2.093-1.731zm13.991-6.856c1.41-.902 2.103-2.321 2.103-3.946 0-2.012-1.77-4.719-5.462-4.719-2.847 0-5.591 2.166-5.591 4.178 0 .954.615 1.908 1.667 1.908 1.743 0 1.41-2.527 3.847-2.527 1.153 0 1.847.748 1.847 1.728 0 2.863-3.642 1.032-3.642 3.739 0 3.044 4.359.387 4.359 3.997 0 1.367-1.077 2.399-2.411 2.399-2.897 0-2.487-3.018-4.23-3.018-.924 0-1.976.722-1.976 1.728 0 2.037 2.359 4.849 6.155 4.849 3.642 0 6.463-2.605 6.463-5.699 0-2.038-1.284-3.766-3.129-4.617z"/><path fill="#2B414D" d="M25 48c-.553 0-1 .447-1 1v3c0 .552.447 1 1 1s1-.448 1-1v-3c0-.553-.447-1-1-1zm50 0c-.553 0-1 .447-1 1v3c0 .552.447 1 1 1s1-.448 1-1v-3c0-.553-.447-1-1-1z"/><path fill="#E5E5E5" d="M26 50h48v1h-48v-1z"/><path fill="#B5B5B6" d="M73 73h-46c-1.104 0-2-.896-2-1.999v1c0 1.103.896 1.999 2 1.999h46c1.104 0 2-.896 2-1.999v-1c0 1.103-.896 1.999-2 1.999z"/><g fill="#394B54"><path d="M55.653 50.03c0 .427.093.734.24.97h6.818c-.35-.385-.76-.721-1.216-1h-5.84l-.002.03zM42.597 50c-.254.334-.502.677-.765 1h4.818c.231-.33.447-.664.643-1h-4.696z"/></g></svg>