<svg xmlns="http://www.w3.org/2000/svg" width="100" height="100" viewBox="0 0 100 100"><path fill="#EFC75E" d="M50 0c27.614 0 50 22.387 50 50 0 27.615-22.386 50-50 50s-50-22.385-50-50c0-27.613 22.386-50 50-50z"/><path fill="#2D4552" d="M43 66c2.209 0 4 1.791 4 4v11c0 1.105.896 2 2 2h9c1.104 0 2-.895 2-2v-15h-17zM43 66c2.209 0 4 1.791 4 4v11c0 1.105.896 2 2 2h9c1.104 0 2-.895 2-2v-15h-17z"/><path fill="#324D5B" d="M67 61v3c0 1.105-.896 2-2 2h-33c-1.104 0-2-.895-2-2v-3h37z"/><path fill="#2D4552" d="M18 33h7c1.104 0 2 .896 2 2v5c0 1.105-.896 2-2 2h-7c-1.104 0-2-.895-2-2v-5c0-1.104.896-2 2-2z"/><path fill="#3F5E6D" d="M24 27h43c1.656 0 3 1.344 3 3v31h-46c-1.657 0-3-1.343-3-3v-28c0-1.656 1.343-3 3-3z"/><path fill="#3DB39E" d="M62.5 51c1.381 0 2.5 1.119 2.5 2.5s-1.119 2.5-2.5 2.5-2.5-1.119-2.5-2.5 1.119-2.5 2.5-2.5z"/><path fill="#EFC75E" d="M54.5 51c1.381 0 2.5 1.119 2.5 2.5s-1.119 2.5-2.5 2.5-2.5-1.119-2.5-2.5 1.119-2.5 2.5-2.5z"/><path fill="#E4E7E7" d="M61.5 32c1.934 0 3.5 1.567 3.5 3.5 0 1.934-1.566 3.5-3.5 3.5s-3.5-1.566-3.5-3.5c0-1.933 1.566-3.5 3.5-3.5z"/><path fill="#2D4552" d="M70 38h5v14h-5v-14z"/><path fill="#3F5E6D" d="M80 35h1c1.656 0 3 1.344 3 3v14c0 1.657-1.344 3-3 3h-1c-1.656 0-5-3-5-3v-14s3.344-3 5-3z"/><path fill="#2D4552" d="M30 61h37v2h-37z"/><path fill="#E4E7E7" d="M21 55h24.5c.829 0 1.5-.672 1.5-1.5s-.671-1.5-1.5-1.5h-24.5v3z"/><path fill="#BCBEBE" d="M61.5 32c-.171 0-.335.027-.5.05v2.45c0 .276.224.5.5.5s.5-.224.5-.5v-2.45c-.165-.023-.329-.05-.5-.05z"/><path fill="#395462" d="M61.5 39c-1.934 0-3.5-1.566-3.5-3.5 0-.71.215-1.37.578-1.921-.949.626-1.578 1.699-1.578 2.921 0 1.934 1.566 3.5 3.5 3.5 1.223 0 2.296-.628 2.922-1.578-.552.363-1.211.578-1.922.578z"/><g fill="#263A45"><path d="M47 74h13v2h-13zM46.445 68h13.555v-2h-17c1.477 0 2.752.81 3.445 2zM47 70h13v2h-13zM47 78h13v2h-13z"/></g></svg>