<svg width="30" height="26" viewBox="0 -49.2858 30 25.7143" xmlns="http://www.w3.org/2000/svg"><path d="M15.536-37.5a.529.529 0 0 1-.536.536c-.887 0-1.607.72-1.607 1.607a.529.529 0 0 1-.536.535.529.529 0 0 1-.536-.535A2.686 2.686 0 0 1 15-38.036c.301 0 .536.235.536.536zm3.75 2.176A4.294 4.294 0 0 0 15-39.609a4.294 4.294 0 0 0-4.286 4.285A4.294 4.294 0 0 0 15-31.038a4.294 4.294 0 0 0 4.286-4.286zm-17.143 9.61v-2.143h25.714v2.143zm19.285-9.61A6.43 6.43 0 0 1 15-28.895a6.43 6.43 0 0 1-6.429-6.429A6.43 6.43 0 0 1 15-41.752a6.43 6.43 0 0 1 6.428 6.428zM4.286-46.072v-2.142h6.428v2.142zm-2.143 3.215V-45h10.781l1.071-2.143h13.862v4.286zM30-47.143a2.136 2.136 0 0 0-2.143-2.143H2.143A2.136 2.136 0 0 0 0-47.143v21.429c0 1.188.954 2.142 2.143 2.142h25.714A2.136 2.136 0 0 0 30-25.714z"/></svg>