<svg xmlns="http://www.w3.org/2000/svg" width="100" height="100" viewBox="0 0 100 100"><path fill="#EFC75E" d="M50 0c27.614 0 50 22.385 50 50 0 27.613-22.386 50-50 50s-50-22.387-50-50c0-27.615 22.386-50 50-50z"/><path fill="#E37948" d="M53 58.424c0-9.628-9.626-17.435-21.5-17.435s-21.5 7.806-21.5 17.435c0 9.629 9.626 17.434 21.5 17.434 1.044 0 2.062-.08 3.066-.197 4.466 3.479 8.967 4.334 9.027 4.229-1.569-1.617-2.524-3.668-3.113-5.639 7.384-2.761 12.52-8.8 12.52-15.827z"/><path fill="#F1BCA4" d="M24.5 56c-1.381 0-2.5 1.119-2.5 2.5s1.119 2.5 2.5 2.5 2.5-1.119 2.5-2.5-1.119-2.5-2.5-2.5zm8 0c-1.381 0-2.5 1.119-2.5 2.5s1.119 2.5 2.5 2.5 2.5-1.119 2.5-2.5-1.119-2.5-2.5-2.5z"/><path fill="#CC6D41" d="M53 58.424c0-8.081-6.79-14.859-15.989-16.835l-.011.33c0 9.232 5.963 17.324 14.93 21.916.687-1.704 1.07-3.519 1.07-5.411z"/><path fill="#D17042" d="M13 58.322c0-7.391 5.146-13.745 12.544-16.641-8.974 2.097-15.544 8.792-15.544 16.743 0 8.367 7.271 15.35 16.965 17.037-8.152-2.604-13.965-9.283-13.965-17.139z"/><path fill="#26A6D1" d="M87.947 17.443c-4.695-2.193-10.138-3.454-15.947-3.454-17.673 0-32 11.609-32 25.929 0 10.452 7.638 19.454 18.635 23.555-.877 2.925-2.305 5.968-4.635 8.367.09.154 6.769-1.115 13.404-6.266 1.502.176 3.035.27 4.596.27 11.999 0 22.449-5.354 27.926-13.27.048-.887.074-1.779.074-2.679 0-12.397-4.546-23.728-12.053-32.452z"/><path fill="#fff" d="M58 36c-2.209 0-4 1.792-4 4.001 0 2.211 1.791 4 4 4s4-1.789 4-4c0-2.209-1.791-4.001-4-4.001zm14 0c-2.209 0-4 1.792-4 4.001 0 2.211 1.791 4 4 4s4-1.789 4-4c0-2.209-1.791-4.001-4-4.001zm14 0c-2.209 0-4 1.792-4 4.001 0 2.211 1.791 4 4 4s4-1.789 4-4c0-2.209-1.791-4.001-4-4.001z"/><path fill="#2295BC" d="M57 70.84c2.33-2.398 3.758-5.441 4.635-8.367-10.997-4.102-18.635-13.103-18.635-23.556 0-10.357 7.498-19.293 18.333-23.447-12.427 3.561-21.333 13.159-21.333 24.447 0 10.452 7.638 19.454 18.635 23.555-.877 2.926-2.305 5.969-4.635 8.368.048.082 1.938-.24 4.68-1.312-1.028.273-1.653.359-1.68.312z"/><g fill="#2295BC"><path d="M58 44c-2.209 0-4-1.789-4-4 0-.85.269-1.634.721-2.282-1.038.724-1.721 1.922-1.721 3.282 0 2.211 1.791 4 4 4 1.36 0 2.559-.682 3.281-1.72-.647.452-1.431.72-2.281.72zM72 44c-2.209 0-4-1.789-4-4 0-.85.269-1.634.721-2.282-1.038.724-1.721 1.922-1.721 3.282 0 2.211 1.791 4 4 4 1.36 0 2.559-.682 3.281-1.72-.647.452-1.431.72-2.281.72zM86 44c-2.209 0-4-1.789-4-4 0-.85.269-1.634.721-2.282-1.038.724-1.721 1.922-1.721 3.282 0 2.211 1.791 4 4 4 1.36 0 2.559-.682 3.281-1.72-.647.452-1.431.72-2.281.72z"/></g></svg>