<svg width="26" height="26" viewBox="0 -49.2858 25.7143 25.7143" xmlns="http://www.w3.org/2000/svg"><path d="M19.604-37.818a1.061 1.061 0 0 0 0-1.507l-1.708-1.707a1.061 1.061 0 0 0-1.506 0l-4.604 4.603-2.461-2.46a1.061 1.061 0 0 0-1.507 0L6.11-37.183a1.061 1.061 0 0 0 0 1.507l4.922 4.922a1.061 1.061 0 0 0 1.507 0zm2.36 1.39c0 5.022-4.085 9.106-9.107 9.106-5.022 0-9.107-4.084-9.107-9.107 0-5.022 4.085-9.107 9.107-9.107 5.022 0 9.107 4.085 9.107 9.107zm3.75 0c0-7.099-5.759-12.858-12.857-12.858C5.76-49.286 0-43.527 0-36.429 0-29.33 5.759-23.57 12.857-23.57c7.098 0 12.857-5.76 12.857-12.858z"/></svg>