<?xml version="1.0" encoding="UTF-8"?>
<svg width="20" height="27" version="1.1" viewBox="0.92076 -50.0893 19.5871 27.0536" xmlns="http://www.w3.org/2000/svg" xmlns:xlink="http://www.w3.org/1999/xlink">
    <!--Generated by IJSVG (https://github.com/curthard89/IJSVG)-->
    <g fill="#000000">
        <path d="M18.9677,6.49554c0.61942,-0.636161 0.61942,-1.64063 0,-2.27679c-0.636162,-0.619421 -1.64063,-0.619421 -2.27679,0l-3.81697,3.81697h-6.16072l-3.81697,-3.81697c-0.636162,-0.619421 -1.64063,-0.619421 -2.27679,0c-0.61942,0.636161 -0.61942,1.64063 2.22045e-16,2.27679l4.8884,4.8884v13.7947c0,1.03795 0.837055,1.875 1.875,1.875c1.03795,0 1.875,-0.837054 1.875,-1.875v-6.42858h1.07143v6.42858c0,1.03795 0.837055,1.875 1.875,1.875c1.03795,0 1.875,-0.837054 1.875,-1.875v-13.7947Zm-5.42411,-2.74554c0,-2.0759 -1.67411,-3.75 -3.75,-3.75c-2.07589,0 -3.75,1.67411 -3.75,3.75c0,2.07589 1.67411,3.75 3.75,3.75c2.0759,0 3.75,-1.67411 3.75,-3.75Z" transform="translate(0.92076, -50.0893)"></path>
    </g>
</svg>