<svg xmlns="http://www.w3.org/2000/svg" width="100" height="100" viewBox="0 0 100 100"><path fill="#324D5B" d="M50.104 0c27.613 0 50 22.385 50 49.999 0 27.616-22.387 50-50 50-27.615 0-50-22.385-50-50-.001-27.613 22.385-49.999 50-49.999z"/><path fill="#475F6C" d="M85.547 85.264l-32.443-63.264h-5l-32.775 63.91c9 8.717 21.256 14.09 34.775 14.09 13.851 0 26.386-5.635 35.443-14.736z"/><path fill="#9E3D35" d="M100.104 50c0-2.723-.227-5.395-.645-8h-3.725c-1.502 0-2.756 1.225-2.885 2.816l.008 15.184h-2.066l.01-15.184c-.131-1.594-1.383-2.816-2.885-2.816h-11.133c-1.502 0-2.756 1.225-2.887 2.816l.01 15.184h-2.066l.01-15.184c-.131-1.594-1.383-2.816-2.885-2.816h-11.133c-1.502 0-2.756 1.225-2.887 2.816l.01 15.184h-2.066l.01-15.184c-.131-1.594-1.383-2.816-2.885-2.816h-11.134c-1.502 0-2.755 1.225-2.885 2.816l.008 15.184h-2.065l.009-15.184c-.13-1.594-1.383-2.816-2.885-2.816h-11.133c-1.502 0-2.755 1.225-2.885 2.816l.009 15.184h-2.066l.009-15.184c-.13-1.594-1.383-2.816-2.885-2.816h-11.363c-.419 2.605-.645 5.277-.645 8 0 9.95 2.917 19.211 7.926 27h84.146c5.011-7.789 7.929-17.051 7.929-27z"/><g fill="#C04A41"><path d="M100.035 52.611c-.629-.384-1.355-.611-2.135-.611h-14.593c-2.176 0-3.99 1.713-4.18 3.943l-.023 34.775c12.042-8.593 20.123-22.384 20.931-38.107zM76.105 92.715l-.027-36.771c-.187-2.231-2.002-3.944-4.178-3.944h-15.593c-2.176 0-3.99 1.713-4.18 3.943l-.031 44.006c8.771-.344 16.965-2.937 24.009-7.234zM17.901 52h-15.595c-.779 0-1.507.227-2.135.611.831 16.159 9.331 30.287 21.933 38.819l-.025-35.486c-.189-2.231-2.003-3.944-4.178-3.944zM29.306 52c-2.176 0-3.99 1.713-4.179 3.943l-.026 37.35c7.087 4.104 15.272 6.512 24.008 6.682l-.031-44.031c-.187-2.231-2.002-3.944-4.178-3.944h-15.594z"/></g><path fill="#A8514A" d="M33.944 49.611l-14.046 27.389h61.411l-8.719-17h-.75l.002-1.461-8.483-16.539h-5.527c-1.502 0-2.756 1.225-2.887 2.816l.01 15.184h-2.066l.01-15.184c-.131-1.594-1.383-2.816-2.885-2.816h-11.134c-.419 0-.813.104-1.175.275l-1.709 3.334.007 14.391h-2.065l.006-10.389z"/><g fill="#C65C54"><path d="M44.9 52h-12.182l-7.598 14.818-.019 26.475c7.087 4.104 15.272 6.512 24.008 6.682l-.031-44.031c-.187-2.231-2.002-3.944-4.178-3.944zM76.086 66.818l-7.598-14.818h-12.181c-2.176 0-3.99 1.713-4.18 3.943l-.031 44.006c8.771-.344 16.965-2.938 24.01-7.234l-.02-25.897z"/></g><path fill="#3C5663" d="M50.604 10c6.902 0 12.5 5.597 12.5 12.5s-5.598 12.5-12.5 12.5c-6.904 0-12.5-5.597-12.5-12.5s5.595-12.5 12.5-12.5z"/><path fill="#465F6B" d="M50.604 14c4.693 0 8.5 3.806 8.5 8.5s-3.807 8.5-8.5 8.5c-4.695 0-8.5-3.806-8.5-8.5s3.804-8.5 8.5-8.5z"/><g fill="#CD6E67"><path d="M25.127 58.455v-.01c.188-2.23 2.003-3.943 4.179-3.943h15.594c2.176 0 3.99 1.713 4.178 3.943v.01h.002l-.002-2.512c-.187-2.23-2.002-3.943-4.178-3.943h-15.594c-2.176 0-3.99 1.713-4.179 3.943l-.002 2.512h.002zM52.127 58.455v-.01c.189-2.23 2.004-3.943 4.18-3.943h15.593c2.176 0 3.99 1.713 4.178 3.943v.01h.002l-.002-2.512c-.187-2.23-2.002-3.943-4.178-3.943h-15.593c-2.176 0-3.99 1.713-4.18 3.943l-.002 2.512h.002zM17.901 52h-15.595c-.779 0-1.507.227-2.135.611.042.807.104 1.609.183 2.406.587-.32 1.246-.516 1.952-.516h15.595c2.175 0 3.989 1.713 4.178 3.943v.01h.002l-.002-2.512c-.189-2.229-2.003-3.942-4.178-3.942zM97.9 52h-14.593c-2.176 0-3.99 1.713-4.18 3.943l-.002 2.512h.002v-.01c.189-2.23 2.004-3.943 4.18-3.943h14.593c.707 0 1.365.195 1.951.516.08-.797.143-1.6.184-2.406-.629-.385-1.355-.612-2.135-.612z"/></g><g fill="#A8514A"><path d="M76.783 44h11.133c1.5 0 2.75 1.221 2.883 2.811l.002-1.994c-.131-1.595-1.383-2.817-2.885-2.817h-11.133c-1.502 0-2.756 1.225-2.887 2.816l.002 1.994c.135-1.59 1.385-2.81 2.885-2.81zM57.832 44h11.133c1.5 0 2.75 1.221 2.883 2.811l.002-1.994c-.131-1.595-1.383-2.817-2.885-2.817h-11.133c-1.502 0-2.756 1.225-2.887 2.816l.002 1.994c.133-1.59 1.385-2.81 2.885-2.81zM38.88 44h11.133c1.5 0 2.75 1.221 2.883 2.811l.002-1.994c-.13-1.595-1.382-2.817-2.884-2.817h-11.134c-1.502 0-2.755 1.225-2.885 2.816l.001 1.994c.133-1.59 1.384-2.81 2.884-2.81zM19.929 44h11.133c1.5 0 2.751 1.221 2.884 2.811l.001-1.994c-.13-1.595-1.383-2.817-2.885-2.817h-11.133c-1.502 0-2.755 1.225-2.885 2.816l.001 1.994c.133-1.59 1.384-2.81 2.884-2.81zM99.459 42h-3.725c-1.502 0-2.756 1.225-2.885 2.816v1.994c.133-1.59 1.385-2.81 2.885-2.81h3.998c-.08-.67-.168-1.338-.273-2zM12.111 42h-11.363c-.106.662-.194 1.33-.274 2h11.637c1.5 0 2.751 1.221 2.884 2.811l.001-1.994c-.13-1.595-1.383-2.817-2.885-2.817z"/></g><g fill="#B1635C"><path d="M63.359 42h-5.527c-1.502 0-2.756 1.225-2.887 2.816l.002 1.992c.135-1.588 1.385-2.808 2.885-2.808h6.553l-1.026-2zM50.014 42h-11.134c-.208 0-.409.027-.604.072l-.028.01c-.188.047-.369.111-.541.193h-.002l-1.709 3.334v1.201c.133-1.59 1.384-2.81 2.884-2.81h11.133c1.498 0 2.75 1.219 2.883 2.809l.002-1.992c-.13-1.595-1.382-2.817-2.884-2.817z"/></g><path fill="#506773" d="M42.832 32.28c2.133 1.698 4.83 2.72 7.771 2.72 2.939 0 5.637-1.021 7.771-2.72l-5.27-10.28h-5l-5.272 10.28z"/><path fill="#697875" d="M53.762 24.01c1.146-.804 2.588-1.312 4.344-1.507-1.748-.194-3.184-.699-4.328-1.496.229-1 .656-2 1.316-2.997-.99.665-1.994 1.09-3.002 1.312-.793-1.143-1.295-2.577-1.488-4.319-.193 1.741-.695 3.175-1.488 4.318-1.004-.22-2.008-.642-3.006-1.311.682.993 1.115 1.986 1.344 2.979-1.148.807-2.592 1.318-4.35 1.514 1.758.195 3.199.705 4.348 1.511-.23.993-.662 1.987-1.342 2.98.979-.694 1.967-1.134 2.961-1.366.816 1.152 1.336 2.602 1.533 4.375.197-1.768.713-3.215 1.525-4.364.99.235 1.98.673 2.967 1.356-.686-.99-1.114-1.987-1.334-2.985z"/><path fill="#596F7A" d="M44.709 28.616c1.529 1.474 3.603 2.384 5.895 2.384 2.289 0 4.365-.91 5.893-2.384l-3.393-6.616h-5l-3.395 6.616z"/><path fill="#949887" d="M53.104 22h-5l-.943 1.839.291.175c-.23.993-.662 1.987-1.342 2.98.979-.694 1.967-1.134 2.961-1.366.816 1.152 1.336 2.602 1.533 4.375.197-1.768.713-3.215 1.525-4.364.99.235 1.98.673 2.967 1.356-.686-.99-1.113-1.987-1.334-2.985l.285-.17-.943-1.84z"/><path fill="#EFD48C" d="M50.604 20c1.381 0 2.5 1.12 2.5 2.5 0 1.381-1.119 2.5-2.5 2.5s-2.5-1.119-2.5-2.5c0-1.38 1.119-2.5 2.5-2.5z"/><path fill="#D27D76" d="M44.9 54.502c2.176 0 3.99 1.713 4.178 3.943v.01h.002l-.002-2.512c-.187-2.23-2.002-3.943-4.178-3.943h-12.182l-1.283 2.502h13.465zM52.127 58.455v-.01c.189-2.23 2.004-3.943 4.18-3.943h13.465l-1.284-2.502h-12.181c-2.176 0-3.99 1.713-4.18 3.943l-.002 2.512h.002z"/><g fill="#E2574C"><path d="M69.104 96.254l-.025-23.762c-.268-3.107-2.85-5.492-5.944-5.492h-25.061c-3.097 0-5.679 2.385-5.946 5.494l-.024 24.154c5.587 2.156 11.653 3.352 18 3.352 6.728 0 13.14-1.338 19-3.746zM27.102 94.393l-.023-21.9c-.268-3.108-2.85-5.493-5.945-5.493h-18.062c4.291 11.869 12.948 21.639 24.03 27.393zM97.135 67h-17.061c-3.098 0-5.68 2.385-5.947 5.494l-.021 21.375c10.603-5.814 18.867-15.357 23.029-26.869z"/></g><g fill="#E5685E"><path d="M24.485 68.057l-9.156 17.853c3.477 3.367 7.438 6.23 11.773 8.482l-.023-21.9c-.161-1.861-1.161-3.449-2.594-4.435zM76.723 68.057c-1.436.986-2.436 2.576-2.596 4.438l-.021 21.375c4.221-2.314 8.072-5.219 11.441-8.605l-8.824-17.208zM63.135 67h-25.061c-3.097 0-5.679 2.385-5.946 5.494l-.025 24.154c5.587 2.157 11.651 3.352 18.001 3.352 6.729 0 13.141-1.338 19-3.746l-.025-23.762c-.268-3.107-2.85-5.492-5.944-5.492z"/></g><g fill="#E26258"><path d="M21.005 85.086c-.196-2.311-2.08-4.084-4.34-4.084h-5.776c2.909 3.676 6.321 6.928 10.136 9.662l-.02-5.578zM89.316 81.002h-4.857c-2.26 0-4.146 1.773-4.342 4.084l-.016 4.918c3.448-2.59 6.542-5.623 9.215-9.002zM62.006 85.086c-.195-2.311-2.08-4.084-4.34-4.084h-14.125c-2.26 0-4.145 1.773-4.34 4.084l-.047 13.697c3.526.789 7.186 1.217 10.95 1.217 4.119 0 8.119-.508 11.949-1.447l-.047-13.467z"/></g><path fill="#D85E54" d="M39.231 89.414c.272-2.225 2.107-3.914 4.31-3.914h14.125c2.203 0 4.037 1.689 4.309 3.914h.045l-.014-4.328c-.195-2.311-2.08-4.084-4.34-4.084h-14.125c-2.26 0-4.145 1.773-4.34 4.084l-.015 4.328h.045z"/><path fill="#D44C41" d="M16.666 81.002h-5.776c1.248 1.578 2.582 3.084 4.009 4.498h1.768c2.203 0 4.036 1.689 4.31 3.914h.045l-.015-4.328c-.198-2.311-2.082-4.084-4.341-4.084zM84.459 81.002c-2.26 0-4.146 1.773-4.342 4.084l-.014 4.328h.045c.271-2.225 2.107-3.914 4.311-3.914h.85c1.426-1.414 2.76-2.92 4.008-4.498h-4.858z"/><path fill="#D85E54" d="M16.666 85.5c2.203 0 4.036 1.689 4.31 3.914h.045l-.015-4.328c-.163-1.922-1.5-3.455-3.243-3.922l-2.223 4.336h1.126zM85.541 85.254l-2.107-4.111c-1.779.443-3.15 1.996-3.316 3.943l-.014 4.328h.045c.271-2.225 2.107-3.914 4.311-3.914h.836l.115-.109.13-.137z"/><path fill="#EA877F" d="M32.127 75.99c.268-3.107 2.85-5.492 5.946-5.492h25.061c3.094 0 5.676 2.385 5.943 5.49v-3.496c-.266-3.107-2.848-5.492-5.942-5.492h-25.061c-3.097 0-5.679 2.385-5.946 5.494v3.496z"/><path fill="#E87970" d="M21.134 70.498c3.095 0 5.677 2.385 5.944 5.49v-3.496c-.267-3.107-2.849-5.492-5.944-5.492h-18.062c.43 1.189.916 2.352 1.432 3.498h16.63zM74.127 75.99c.268-3.107 2.85-5.492 5.947-5.492h15.631c.516-1.146 1-2.309 1.43-3.498h-17.061c-3.098 0-5.68 2.385-5.947 5.494v3.496z"/><path fill="#EA877F" d="M26.84 71.279c-.087-.291-.197-.572-.325-.844l-.146-.281c-.103-.189-.217-.371-.339-.547-.112-.162-.232-.318-.359-.469l-.299-.33c-.271-.277-.566-.531-.887-.752l-1.427 2.781c2.179.752 3.812 2.721 4.021 5.15v-3.496c-.029-.346-.098-.678-.183-1.002l-.056-.21zM78.148 70.838l-1.426-2.781c-.32.221-.615.475-.887.75l-.303.336c-.127.148-.244.301-.355.461-.123.178-.238.361-.342.555l-.145.277c-.129.271-.238.553-.326.846l-.055.209c-.086.326-.154.658-.184 1.004v3.496c.211-2.43 1.844-4.401 4.023-5.153z"/></svg>