<svg xmlns="http://www.w3.org/2000/svg" width="100" height="100" viewBox="0 0 100 100"><path fill="#324D5B" d="M50 0c-27.614 0-50 22.385-50 49.999 0 27.615 22.386 50.001 50 50.001s50-22.386 50-50.001c0-27.614-22.386-49.999-50-49.999z"/><path fill="#E2574C" d="M81 27.999h-62c-2.209 0-4 1.791-4 4v53.695c9.02 8.845 21.37 14.306 35 14.306 13.631 0 25.98-5.461 35-14.306v-53.695c0-2.209-1.791-4-4-4z"/><path fill="#F0DDAB" d="M77 36.999h-54c-1.104 0-2 .896-2 2v51.719c8.181 5.837 18.185 9.282 29 9.282 10.815 0 20.819-3.445 29-9.282v-51.719c0-1.104-.896-2-2-2z"/><path fill="#BF392B" d="M81 27.999h-62c-2.209 0-4 1.791-4 4v2c0-2.209 1.791-4 4-4h62c2.209 0 4 1.791 4 4v-2c0-2.209-1.791-4-4-4z"/><path fill="#D8C69A" d="M69 80.999h-38c-.553 0-1 .447-1 1s.447 1 1 1h38c.553 0 1-.447 1-1s-.447-1-1-1zm0-10h-38c-.553 0-1 .447-1 1s.447 1 1 1h38c.553 0 1-.447 1-1s-.447-1-1-1zm0-10h-38c-.553 0-1 .448-1 1 0 .553.447 1 1 1h38c.553 0 1-.447 1-1 0-.552-.447-1-1-1zm0 30h-38c-.553 0-1 .447-1 1s.447 1 1 1h38c.553 0 1-.447 1-1s-.447-1-1-1zm-38-38h38c.553 0 1-.447 1-1 0-.552-.447-1-1-1h-38c-.553 0-1 .448-1 1 0 .553.447 1 1 1z"/><path fill="#CCD0D2" d="M31 31.999h39c.553 0 1 .448 1 1v7c0 1.657-1.344 3-3 3h-35c-1.656 0-3-1.343-3-3v-7c0-.552.447-1 1-1zM44.354 21.999h12.646c1.656 0 2.521 1.21 3 3l2 7h-22l2-7c.292-1.27.875-3 2.354-3z"/><path fill="#A4A7A9" d="M40.667 29.667l-.667 2.332h22l-.666-2.332z"/><path fill="#B7BBBD" d="M70 31.999h-39c-.553 0-1 .448-1 1v3c0-.552.447-1 1-1h39c.553 0 1 .448 1 1v-3c0-.552-.447-1-1-1z"/></svg>