<svg width="31" height="23" viewBox="0.703126 -44.2969 30.7366 23.1027" xmlns="http://www.w3.org/2000/svg"><path d="M10.33-25.396a.536.536 0 0 0 0-.77l-6.58-6.58 6.58-6.579a.536.536 0 0 0 0-.77l-.838-.837a.536.536 0 0 0-.77 0L.921-33.13a.536.536 0 0 0 0 .77l7.801 7.802a.536.536 0 0 0 .77 0zm9.893-17.863a.543.543 0 0 0-.368-.67l-1.038-.284c-.268-.084-.57.084-.653.368L11.92-22.232a.543.543 0 0 0 .368.67l1.038.284c.268.084.57-.084.653-.368zm11 10.899a.536.536 0 0 0 0-.77l-7.802-7.802a.536.536 0 0 0-.77 0l-.837.837a.536.536 0 0 0 0 .77l6.579 6.58-6.58 6.579a.536.536 0 0 0 0 .77l.838.837a.536.536 0 0 0 .77 0z"/></svg>