<svg width="30" height="24" viewBox="0 -45.0335 30 23.6049" xmlns="http://www.w3.org/2000/svg"><path d="M11.786-42.89c5.223 0 9.643 2.946 9.643 6.428 0 3.482-4.42 6.429-9.643 6.429-.87 0-1.725-.084-2.562-.235l-.887-.167-.737.519a13.46 13.46 0 0 1-1.038.653l.586-1.407-1.623-.937c-2.143-1.239-3.382-3.014-3.382-4.855 0-3.482 4.42-6.429 9.643-6.429zm0-2.143C5.273-45.033 0-41.2 0-36.463c0 2.713 1.741 5.14 4.453 6.714-.57 1.39-1.306 2.043-1.959 2.78-.184.217-.401.418-.334.736.05.284.284.485.535.485h.05c.503-.067.988-.15 1.44-.268a14.055 14.055 0 0 0 4.654-2.142c.938.167 1.926.267 2.947.267 6.512 0 11.785-3.833 11.785-8.571 0-4.738-5.273-8.571-11.785-8.571zm13.76 19.57C28.26-27.037 30-29.448 30-32.176c0-2.796-1.841-5.274-4.67-6.83.25.82.384 1.673.384 2.544 0 2.997-1.54 5.759-4.336 7.801-2.595 1.875-5.993 2.913-9.592 2.913-.486 0-.988-.033-1.474-.067 2.093 1.373 4.872 2.21 7.902 2.21 1.022 0 2.01-.1 2.947-.268a14.055 14.055 0 0 0 4.654 2.143c.452.117.937.201 1.44.268.267.033.518-.184.585-.486.067-.318-.15-.519-.334-.736-.653-.737-1.39-1.39-1.96-2.78z"/></svg>