<svg width="25" height="25" viewBox="0.217634 -48.6329 25.279 25.279" xmlns="http://www.w3.org/2000/svg"><path d="M12.857-34.922c0-.586-.485-1.071-1.071-1.071h-7.5c-.586 0-1.072.485-1.072 1.071 0 .285.117.553.318.753l2.411 2.411L.385-26.2c-.1.1-.167.251-.167.385s.067.285.167.385l1.909 1.909c.1.1.25.167.385.167a.577.577 0 0 0 .385-.167l5.558-5.558 2.41 2.41c.201.201.47.319.754.319.586 0 1.071-.486 1.071-1.072zm12.64-11.25a.577.577 0 0 0-.168-.385l-1.908-1.908a.577.577 0 0 0-.385-.168.577.577 0 0 0-.385.168l-5.558 5.558-2.411-2.411c-.201-.201-.469-.318-.753-.318-.586 0-1.072.485-1.072 1.071v7.5c0 .586.486 1.072 1.072 1.072h7.5c.585 0 1.071-.486 1.071-1.072 0-.284-.117-.552-.318-.753l-2.41-2.41 5.557-5.559c.1-.1.168-.251.168-.385z"/></svg>