<svg xmlns="http://www.w3.org/2000/svg" width="100" height="100" viewBox="0 0 100 100"><path fill="#2EA9D3" d="M50 0c27.614 0 50 22.386 50 50s-22.386 50-50 50-50-22.386-50-50 22.386-50 50-50z"/><path fill="#EFEFEF" d="M50 8c23.196 0 42 18.805 42 42 0 23.196-18.804 42-42 42s-42-18.804-42-42c0-23.195 18.804-42 42-42z"/><path fill="#CCD0D2" d="M50 31c-10.493 0-19 8.507-19 19 0 10.494 8.507 19 19 19s19-8.506 19-19c0-10.493-8.507-19-19-19zm0 36c-9.389 0-17-7.611-17-17s7.611-17 17-17 17 7.611 17 17-7.611 17-17 17z"/><path fill="#BF392B" d="M72.916 27.116c1.461 1.458-16.044 26.85-17.503 28.31-1.46 1.459-26.832 18.987-28.329 17.491-1.465-1.464 16.089-26.895 17.503-28.31 1.414-1.414 26.79-19.029 28.329-17.491z"/><path fill="#CCD0D2" d="M50 17c-1.104 0-2 .896-2 2s.896 2 2 2 2-.896 2-2-.896-2-2-2zm0 62c-1.104 0-2 .896-2 2 0 1.105.896 2 2 2s2-.895 2-2c0-1.104-.896-2-2-2zm31-31c-1.104 0-2 .896-2 2 0 1.105.896 2 2 2s2-.895 2-2c0-1.104-.896-2-2-2zm-62 0c-1.104 0-2 .896-2 2 0 1.105.896 2 2 2s2-.895 2-2c0-1.104-.896-2-2-2zm51.506 22.506c-.781.781-.781 2.048 0 2.829.781.78 2.048.78 2.829 0 .78-.781.78-2.048 0-2.829-.781-.781-2.048-.781-2.829 0zm-43.841-43.84c-.78.781-.78 2.047 0 2.829.781.781 2.048.781 2.829 0s.781-2.047 0-2.829-2.048-.782-2.829 0z"/><path fill="#E2574C" d="M55.758 55.019c2.827-3.547 18.546-26.517 17.158-27.902-1.501-1.5-25.661 15.208-28.169 17.349l11.011 10.553z"/><path fill="#C64D41" d="M44.587 44.607c-1.4 1.4-18.609 26.328-17.529 28.244l45.772-45.771c-2.109-1.045-26.847 16.131-28.243 17.527z"/><path fill="#E5685E" d="M44.747 44.465l5.462 5.235 22.621-22.62c-2.057-1.019-25.607 15.272-28.083 17.385z"/><path fill="#EFEFEF" d="M50 47c1.657 0 3 1.343 3 3s-1.343 3-3 3-3-1.343-3-3 1.343-3 3-3z"/><path fill="#AD3427" d="M50 53c-1.657 0-3-1.343-3-3 0-.571.168-1.1.445-1.555-.863.527-1.445 1.47-1.445 2.555 0 1.657 1.343 3 3 3 1.086 0 2.028-.582 2.555-1.445-.455.277-.984.445-1.555.445z"/><path fill="#D7D7D7" d="M50 8c-12.361 0-23.474 5.342-31.159 13.841 7.449-6.737 17.324-10.841 28.159-10.841 23.196 0 42 18.805 42 42 0 10.835-4.104 20.71-10.841 28.159 8.499-7.685 13.841-18.798 13.841-31.159 0-23.195-18.804-42-42-42z"/></svg>