<svg xmlns="http://www.w3.org/2000/svg" width="100" height="100" viewBox="0 0 100 100"><path fill="#4681A0" d="M50 0c-27.614 0-50 22.386-50 50 0 27.615 22.386 50 50 50s50-22.385 50-50c0-27.614-22.386-50-50-50z"/><path fill="#3C6E89" d="M28 31.999c-4.418 0-8 3.582-8 8s3.582 8 8 8 8-3.582 8-8-3.582-8-8-8zm21 22c-4.418 0-8 3.581-8 8s3.582 8 8 8 8-3.581 8-8-3.582-8-8-8zm21-22c-4.418 0-8 3.582-8 8s3.582 8 8 8 8-3.582 8-8-3.582-8-8-8z"/><path fill="#70A0BA" d="M71 20.999c1.104 0 2 .896 2 2v54c0 1.104-.896 2-2 2s-2-.896-2-2v-54c0-1.104.896-2 2-2m-21 0c1.104 0 2 .896 2 2v54c0 1.104-.896 2-2 2s-2-.896-2-2v-54c0-1.104.896-2 2-2m-21 0c1.104 0 2 .896 2 2v54c0 1.104-.896 2-2 2s-2-.896-2-2v-54c0-1.104.896-2 2-2m42-2c-2.206 0-4 1.794-4 4v54c0 2.206 1.794 4 4 4s4-1.794 4-4v-54c0-2.206-1.794-4-4-4zm-21 0c-2.206 0-4 1.794-4 4v54c0 2.206 1.794 4 4 4s4-1.794 4-4v-54c0-2.206-1.794-4-4-4zm-21 0c-2.206 0-4 1.794-4 4v54c0 2.206 1.794 4 4 4s4-1.794 4-4v-54c0-2.206-1.794-4-4-4z"/><g fill="#628CA3"><path d="M75 33.76c-.602-.483-1.274-.88-2-1.174v14.826c.726-.294 1.398-.691 2-1.174v-12.478zM67 47.412c.631.255 1.302.431 2 .518v-15.862c-.698.087-1.369.262-2 .518v14.826zM46 69.412c.631.256 1.301.431 2 .518v-15.862c-.699.087-1.369.262-2 .518v14.826zM33 33.759c-.602-.483-1.274-.879-2-1.173v14.826c.726-.294 1.398-.69 2-1.173v-12.48zM54 55.76c-.602-.483-1.274-.88-2-1.174v14.826c.726-.294 1.398-.69 2-1.174v-12.478zM25 47.412c.631.255 1.301.431 2 .518v-15.862c-.699.087-1.369.262-2 .518v14.826z"/></g><path fill="#376B86" d="M50 20.999c-1.104 0-2 .896-2 2v54c0 1.104.896 2 2 2s2-.896 2-2v-54c0-1.104-.896-2-2-2zm21 0c-1.104 0-2 .896-2 2v54c0 1.104.896 2 2 2s2-.896 2-2v-54c0-1.104-.896-2-2-2zm-42 0c-1.104 0-2 .896-2 2v54c0 1.104.896 2 2 2s2-.896 2-2v-54c0-1.104-.896-2-2-2z"/><g fill="#305E75"><path d="M48 54.068v15.862c.328.041.66.069 1 .069 1.062 0 2.073-.211 3-.587v-14.826c-.927-.376-1.938-.587-3-.587-.34 0-.672.028-1 .069zM69 32.068v15.862c.328.041.66.069 1 .069 1.062 0 2.073-.211 3-.587v-14.826c-.927-.375-1.938-.587-3-.587-.34 0-.672.028-1 .069zM27 32.068v15.862c.328.041.661.069 1 .069 1.062 0 2.073-.211 3-.587v-14.826c-.927-.375-1.938-.587-3-.587-.339 0-.672.028-1 .069z"/></g><g fill="#316078"><path d="M29 20.999c-.174 0-.339.029-.5.071.861.223 1.5.999 1.5 1.929v54c0 .931-.639 1.706-1.5 1.93.161.041.326.07.5.07 1.104 0 2-.896 2-2v-54c0-1.104-.896-2-2-2zM71 20.999c-.174 0-.339.029-.5.071.861.223 1.5.999 1.5 1.929v54c0 .931-.639 1.706-1.5 1.93.161.041.326.07.5.07 1.104 0 2-.896 2-2v-54c0-1.104-.896-2-2-2zM50 20.999c-.174 0-.339.029-.5.071.861.223 1.5.999 1.5 1.929v54c0 .931-.639 1.706-1.5 1.93.161.041.326.07.5.07 1.104 0 2-.896 2-2v-54c0-1.104-.896-2-2-2z"/></g><path fill="#2D586E" d="M73 47.412v-14.826c-.323-.131-.658-.236-1-.325v15.476c.342-.089.677-.194 1-.325zM52 69.412v-14.826c-.323-.131-.658-.236-1-.324v15.475c.342-.089.677-.194 1-.325zM31 47.412v-14.826c-.323-.131-.658-.236-1-.325v15.476c.342-.089.677-.194 1-.325z"/><path fill="#EDEDED" d="M29 30.999c-4.418 0-8 3.582-8 8s3.582 8 8 8 8-3.582 8-8-3.582-8-8-8zm21 22c-4.418 0-8 3.581-8 8s3.582 8 8 8 8-3.581 8-8-3.582-8-8-8zm21-22c-4.418 0-8 3.582-8 8s3.582 8 8 8 8-3.582 8-8-3.582-8-8-8z"/><path fill="#C3C3C3" d="M29 35.999c-1.657 0-3 1.343-3 3s1.343 3 3 3 3-1.343 3-3-1.343-3-3-3zm21 22c-1.657 0-3 1.343-3 3s1.343 3 3 3c1.656 0 3-1.343 3-3s-1.344-3-3-3zm21-22c-1.656 0-3 1.343-3 3s1.344 3 3 3 3-1.343 3-3-1.344-3-3-3z"/><g fill="#FAFBFC"><path d="M29 30.999c-2.464 0-4.666 1.116-6.133 2.867 1.39-1.164 3.179-1.867 5.133-1.867 4.418 0 8 3.582 8 8 0 1.955-.703 3.744-1.867 5.133 1.752-1.467 2.867-3.669 2.867-6.133 0-4.418-3.582-8-8-8zM71 30.999c-2.464 0-4.666 1.116-6.133 2.867 1.389-1.164 3.179-1.867 5.133-1.867 4.418 0 8 3.582 8 8 0 1.955-.703 3.743-1.867 5.133 1.752-1.468 2.867-3.669 2.867-6.133 0-4.418-3.582-8-8-8zM50 52.999c-2.464 0-4.666 1.115-6.133 2.867 1.389-1.164 3.179-1.867 5.133-1.867 4.418 0 8 3.581 8 8 0 1.954-.703 3.743-1.866 5.133 1.751-1.468 2.866-3.669 2.866-6.133 0-4.419-3.582-8-8-8z"/></g><g fill="#D6D6D6"><path d="M30 45.999c-4.418 0-8-3.582-8-8 0-1.955.703-3.743 1.867-5.133-1.752 1.468-2.867 3.669-2.867 6.133 0 4.418 3.582 8 8 8 2.464 0 4.666-1.115 6.133-2.867-1.389 1.164-3.178 1.867-5.133 1.867zM72 45.999c-4.418 0-8-3.582-8-8 0-1.955.703-3.743 1.867-5.133-1.752 1.468-2.867 3.669-2.867 6.133 0 4.418 3.582 8 8 8 2.464 0 4.666-1.116 6.133-2.867-1.389 1.164-3.179 1.867-5.133 1.867zM51 67.999c-4.418 0-8-3.581-8-8 0-1.954.703-3.743 1.867-5.133-1.752 1.468-2.867 3.669-2.867 6.133 0 4.419 3.582 8 8 8 2.464 0 4.666-1.115 6.134-2.867-1.39 1.164-3.179 1.867-5.134 1.867z"/></g></svg>