<svg xmlns="http://www.w3.org/2000/svg" width="100" height="100" viewBox="0 0 100 100"><path fill="#E2574C" d="M50 0c27.614 0 50 22.386 50 50s-22.386 50-50 50-50-22.386-50-50 22.386-50 50-50z"/><path fill="#E6E6E6" d="M26 28c-1.657 0-3 1.344-3 3v61.073c7.789 5.009 17.051 7.927 27 7.927 27.614 0 50-22.386 50-50 0-7.896-1.837-15.36-5.096-22h-68.904z"/><path fill="#2B414D" d="M27 42v52.392c6.887 3.576 14.704 5.608 23 5.608 27.614 0 50-22.386 50-50 0-3.426-.346-6.77-1.002-10.001h-69.998c-1.104 0-2 .897-2 2.001z"/><path fill="#E4E7E7" d="M64 47h-29c-.553 0-1 .447-1 1v1c0 .553.447 1 1 1h29c.553 0 1-.447 1-1v-1c0-.553-.447-1-1-1zm-6 42h-23c-.553 0-1 .448-1 1.001v.999c0 .553.447 1 1 1h23c.553 0 1-.447 1-1v-.999c0-.553-.447-1.001-1-1.001z"/><path fill="#E35E53" d="M47 54h-12c-.553 0-1 .447-1 1v1c0 .552.447 1 1 1h12c.553 0 1-.448 1-1v-1c0-.553-.447-1-1-1zm-3 13.999h-9c-.553 0-1 .448-1 1v1.001c0 .552.447 1 1 1h9c.553 0 1-.448 1-1v-1.001c0-.552-.447-1-1-1zm36 0h-12c-.553 0-1 .448-1 1v1.001c0 .552.447 1 1 1h12c.553 0 1-.448 1-1v-1.001c0-.552-.447-1-1-1zm-36 14.001h-9c-.553 0-1 .447-1 .999v1c0 .554.447 1.001 1 1.001h9c.553 0 1-.447 1-1.001v-1c0-.552-.447-.999-1-.999z"/><path fill="#26A6D1" d="M84 54h-31c-.553 0-1 .447-1 1v1c0 .552.447 1 1 1h31c.553 0 1-.448 1-1v-1c0-.553-.447-1-1-1zm-15 20.999h-34c-.553 0-1 .449-1 1.001v1c0 .553.447 1 1 1h34c.553 0 1-.447 1-1v-1c0-.552-.447-1.001-1-1.001z"/><path fill="#49B8A4" d="M74 60.999h-39c-.553 0-1 .449-1 1.001v1c0 .553.447.999 1 .999h39c.553 0 1-.446 1-.999v-1c0-.552-.447-1.001-1-1.001zm-24 10.001h12c.553 0 1-.448 1-1v-1.001c0-.552-.447-1-1-1h-12c-.553 0-1 .448-1 1v1.001c0 .552.447 1 1 1zm14 11h-14c-.553 0-1 .447-1 .999v1c0 .554.447 1.001 1 1.001h14c.553 0 1-.447 1-1.001v-1c0-.552-.447-.999-1-.999z"/><path fill="#737373" d="M29 32c-1.104 0-2 .896-2 2s.896 2 2 2 2-.896 2-2-.896-2-2-2zm6 0c-1.104 0-2 .896-2 2s.896 2 2 2 2-.896 2-2-.896-2-2-2zm6 0c-1.104 0-2 .896-2 2s.896 2 2 2 2-.896 2-2-.896-2-2-2z"/></svg>