<svg xmlns="http://www.w3.org/2000/svg" width="100" height="100" viewBox="0 0 100 100"><path fill="#3DB39E" d="M50 0c-27.614 0-50 22.385-50 49.999 0 27.615 22.386 50 50 50s50-22.385 50-50c0-27.614-22.386-49.999-50-49.999z"/><g fill="#37A18E"><path d="M70.748 34.812h7.035c.925 0 1.695.639 1.917 1.5.041-.161.07-.326.07-.5 0-1.104-.89-2-1.987-2h-7.035c-2.573 0-4.664-1.977-4.917-4.5-.017.167-.05.329-.05.5 0 2.762 2.224 5 4.967 5zM77.783 40.812h-14.353l-1.982-2h-.991l2.974 3h14.354c2.743 0 4.967-2.239 4.967-5 0-.171-.033-.333-.05-.5-.255 2.523-2.346 4.5-4.919 4.5z"/></g><path fill="#E4E7E7" d="M70.748 26.812h23.548c-.535-1.021-1.1-2.022-1.701-3h-21.847c-2.743 0-4.967 2.239-4.967 5s2.224 5 4.967 5h7.035c1.098 0 1.987.896 1.987 2s-.89 2-1.987 2h-17.327l2.974 3h14.354c2.743 0 4.967-2.239 4.967-5s-2.224-5-4.967-5h-7.036c-1.098 0-1.987-.896-1.987-2s.889-2 1.987-2z"/><g fill="#37A18E"><path d="M41 39.498c0-1.933-1.567-3.5-3.5-3.5-1.223 0-2.295.629-2.921 1.579.552-.364 1.211-.579 1.921-.579 1.933 0 3.5 1.567 3.5 3.5 0 .71-.215 1.37-.579 1.921.95-.625 1.579-1.698 1.579-2.921zM56.369 77.986c-1.355 1.354-3.551 1.354-4.905 0l-23.107-22.872c-.167-.167-1.372-2.032-1.372-3.56l.01-19.314c0-.815.102-1.43.312-1.906-.937.411-1.312 1.285-1.312 2.906l-.01 19.314c0 1.527 1.205 3.393 1.372 3.56l23.107 22.872c1.354 1.354 3.55 1.354 4.905 0l19.619-19.604.004-.004-18.623 18.608z"/></g><path fill="#EFC75E" d="M75.988 53.48l-22.89-23.089c-.169-.169-1.821-1.373-3.528-1.378-4.743.05-14.38.018-19.409.018-2.352 0-3.166.775-3.166 3.209l-.01 19.314c0 1.527 1.205 3.393 1.372 3.56l23.107 22.872c1.354 1.354 3.55 1.354 4.905 0l19.619-19.604c1.354-1.354 1.354-3.548 0-4.902zm-38.488-10.482c-1.933 0-3.5-1.567-3.5-3.5s1.567-3.5 3.5-3.5 3.5 1.567 3.5 3.5-1.567 3.5-3.5 3.5z"/><path fill="#30444D" d="M37.5 33.998c-3.038 0-5.5 2.462-5.5 5.5s2.462 5.5 5.5 5.5 5.5-2.462 5.5-5.5-2.462-5.5-5.5-5.5zm0 8c-1.381 0-2.5-1.119-2.5-2.5s1.119-2.5 2.5-2.5 2.5 1.119 2.5 2.5-1.119 2.5-2.5 2.5z"/><path fill="#D07C40" d="M54 51.998c2.209 0 4-1.791 4-4s-1.791-4-4-4-4 1.791-4 4 1.791 4 4 4zm0-6c1.104 0 2 .896 2 2s-.896 2-2 2-2-.896-2-2 .896-2 2-2zm0 14c-2.209 0-4 1.791-4 4s1.791 4 4 4 4-1.791 4-4-1.791-4-4-4zm0 6c-1.104 0-2-.896-2-2s.896-2 2-2 2 .896 2 2-.896 2-2 2zm10-11h-20c-.552 0-1 .447-1 1s.448 1 1 1h20c.553 0 1-.447 1-1s-.447-1-1-1z"/><path fill="#CDCFCF" d="M63.229 37.812h-2.773l2.974 3h2.799z"/><path fill="#E4E7E7" d="M1.46 37.998c-.244.988-.453 1.99-.636 3h38.665c.316-.419.511-.935.511-1.5s-.195-1.081-.511-1.5h-38.029z"/><path fill="#F2D27E" d="M75.988 53.48l-22.89-23.089c-.169-.169-1.821-1.373-3.528-1.378-4.743.05-14.38.018-19.409.018-1.564 0-2.438.357-2.854 1.303.469-.206 1.069-.303 1.854-.303 5.029 0 14.667.032 19.409-.018 1.707.005 3.359 1.208 3.528 1.378l22.89 23.089c1.353 1.353 1.354 3.543.004 4.898l.996-.996c1.354-1.354 1.354-3.548 0-4.902z"/><path fill="#37A18E" d="M94.296 26.812h-23.548c-1.098 0-1.987.896-1.987 2 0 .174.029.339.07.5.222-.861.992-1.5 1.917-1.5h24.061c-.167-.335-.339-.668-.513-1zM39.489 40.998h-38.452999999999996l-.212 1h36.676c.815 0 1.532-.396 1.989-1z"/><path fill="#D7B354" d="M26.99 41.998h8.065c-.293-.286-.528-.626-.706-1h-7.358l-.001 1z"/><path fill="#273A45" d="M32.605 41.998h4.895c-.815 0-1.532-.396-1.989-1h-3.299c.099.349.231.683.393 1z"/><path fill="#319180" d="M25.991 41.998h.999l.001-1h-.999l-.001 1z"/></svg>