<svg xmlns="http://www.w3.org/2000/svg" width="100" height="100" viewBox="0 0 100 100"><path fill="#E2574C" d="M50 0c-27.614 0-50 22.386-50 50s22.386 50 50 50 50-22.386 50-50-22.386-50-50-50z"/><path fill="#CCD0D2" d="M76 28h7c2.209 0 4 1.792 4 4v7c0 2.209-1.791 4-4 4h-7c-2.209 0-4-1.791-4-4v-7c0-2.209 1.791-4 4-4z"/><path fill="#F3F3F3" d="M79 32c0-2.209 1.791-4 4-4h-62c-2.061 0-4 1.955-4 4v55.547c8.806 7.746 20.35 12.453 33 12.453 10.815 0 20.819-3.445 29-9.282v-58.718z"/><path fill="#CCD0D2" d="M69.5 53h-43c-.828 0-1.5.672-1.5 1.5s.672 1.5 1.5 1.5h43c.828 0 1.5-.672 1.5-1.5s-.672-1.5-1.5-1.5zm0 7h-43c-.828 0-1.5.672-1.5 1.5 0 .829.672 1.5 1.5 1.5h43c.828 0 1.5-.671 1.5-1.5 0-.828-.672-1.5-1.5-1.5zm0 7h-43c-.828 0-1.5.672-1.5 1.5s.672 1.5 1.5 1.5h43c.828 0 1.5-.672 1.5-1.5s-.672-1.5-1.5-1.5zm0 7h-43c-.828 0-1.5.672-1.5 1.5s.672 1.5 1.5 1.5h43c.828 0 1.5-.672 1.5-1.5s-.672-1.5-1.5-1.5zm-12-32h12c.828 0 1.5-.672 1.5-1.5s-.672-1.5-1.5-1.5h-12c-.828 0-1.5.672-1.5 1.5s.672 1.5 1.5 1.5zm-1 38.999h-30c-.828 0-1.5.673-1.5 1.501s.672 1.5 1.5 1.5h30c.828 0 1.5-.672 1.5-1.5s-.672-1.501-1.5-1.501zM28.5 37c-1.933 0-3.5 1.566-3.5 3.5s1.567 3.5 3.5 3.5 3.5-1.567 3.5-3.5c0-1.934-1.567-3.5-3.5-3.5zm10 0c-1.933 0-3.5 1.566-3.5 3.5s1.567 3.5 3.5 3.5 3.5-1.567 3.5-3.5c0-1.934-1.567-3.5-3.5-3.5z"/></svg>