<?xml version="1.0" encoding="UTF-8" standalone="no"?>
<svg width="26" height="29" version="1.1" viewBox="0 -54.8103 25.7143 29.3974" xmlns="http://www.w3.org/2000/svg" xmlns:xlink="http://www.w3.org/1999/xlink">
    <!--Generated by IJSVG (https://github.com/curthard89/IJSVG)-->
    <g fill="#000000">
        <path d="M19.5369,26.25c0.033482,0.117188 0.083705,0.284599 -0.117188,0.485492c-0.133929,0.133928 -1.43973,1.03795 -2.97991,1.18862c-1.52344,0.133929 -3.59933,0.234376 -4.83818,-0.904019c-0.200893,-0.200893 -0.133928,-0.485491 0,-0.602679c0.15067,-0.117188 0.251117,-0.200893 0.435269,-0.200893c0.167411,0 0.133928,0 0.217634,0.066964c0.569197,0.435269 1.42299,0.820314 3.23103,0.820314c1.80804,0 3.08036,-0.518974 3.64956,-0.937501c0.267858,-0.200893 0.368304,-0.033483 0.401787,0.083705Zm-0.652903,-1.92523c0.117188,0.284598 0,0.452009 -0.234375,0.569197c-0.200893,0.100446 -0.217634,0.050223 -0.418527,-0.318081c-0.200894,-0.368304 -0.368304,-0.736608 -1.35603,-0.736608c-0.987724,0 -1.3058,0.351563 -1.7913,0.736608c-0.46875,0.401786 -0.652902,0.535715 -0.820313,0.318081c-0.167411,-0.234376 -0.117188,-0.45201 0.200893,-0.736608c0.318081,-0.284599 0.820313,-0.736608 1.30581,-0.937501c0.485492,-0.200894 0.736608,-0.167411 1.18862,-0.167411c0.452009,0 0.937501,0.033482 1.27232,0.251116c0.334821,0.234375 0.535714,0.736608 0.652902,1.02121Zm5.94309,-4.70425c0,0.887278 -0.284599,2.46094 -0.954243,3.46541c-0.686384,0.987724 -1.10491,1.35603 -1.90848,1.28906c-1.02121,-0.066965 -3.04688,-3.26451 -4.35268,-3.31474c-1.64063,-0.050224 -5.20648,3.43192 -8.01898,3.43192c-1.69085,0 -2.20982,-0.234376 -2.77902,-0.619421c-0.853795,-0.585938 -1.25558,-1.5067 -1.23884,-2.74554c0.033483,-2.20982 2.09264,-4.28572 4.70425,-4.30246c3.31474,-0.033483 5.60827,3.28125 7.26563,3.24777c1.42299,-0.016741 4.13505,-2.79576 5.47434,-2.79576c1.42299,0 1.80804,1.47322 1.80804,2.34375Zm0.887277,-2.67858c0,-7.51675 -5.55804,-10.9152 -6.46206,-11.4676c-1.48996,-0.937501 -2.91295,-1.3058 -4.33594,-2.24331c-0.870536,-0.585938 -2.09264,-2.00893 -3.11384,-3.23103c-0.184152,1.95871 -0.77009,2.76228 -1.47322,3.31474c-1.42299,1.13839 -2.32701,1.48996 -3.58259,2.1596c-1.05469,0.552456 -6.74666,3.93416 -6.74666,11.2333c0,7.31586 6.14398,12.6897 12.9743,12.6897c6.81362,0 12.74,-4.95536 12.74,-12.4554Z" transform="translate(0, -54.8103)"></path>
    </g>
</svg>