<svg xmlns="http://www.w3.org/2000/svg" width="100" height="100" viewBox="0 0 100 100"><path fill="#324D5B" d="M50 0c27.615 0 50 22.386 50 50 0 27.613-22.385 50-50 50-27.614 0-50-22.387-50-50 0-27.614 22.386-50 50-50z"/><path fill="#91918F" d="M36.304 33.193l10.566 32.453 3.244 5.404 3.402-5.703 10.457-32.358 26.029 15.131-22.604 25.297-5.512 9.24-11.398-6.626-12.083 6.973-5.562-9.266-22.837-25.371 26.298-15.174z"/><path fill="#747C7F" d="M50 75.001c9.941 0 18-8.059 18-18 0-5.863-2.814-11.055-7.152-14.341l-7.332 22.687-3.402 5.703-3.244-5.404-7.529-23.126c-4.445 3.277-7.341 8.535-7.341 14.481 0 9.941 8.059 18 18 18z"/><path fill="#7D7D7B" d="M28.991 69.458l-1.362-1.514 16.827-9.716.631 1.937-16.096 9.293zm-3.408-3.785l-1.363-1.516 18.658-10.771.631 1.938-17.926 10.349zm-3.407-3.786l-1.363-1.515 20.451-11.807.04-.015.629 1.929-19.757 11.408zm-3.408-3.786l-1.363-1.514 22.23-12.835.097-.032.624 1.918-21.588 12.463zm-3.408-3.786l-1.362-1.515 24.01-13.862.151-.051.621 1.907-23.42 13.521zm-3.407-3.786l-1.363-1.515 25.79-14.889.206-.069.617 1.896-25.25 14.577zm76.559-1.456c.146.084.25.206.334.34l-1.26 1.41-.072-.025-24.69-14.255.627-1.939 25.061 14.469zm-3.356 3.817c.133.076.234.182.316.3l-1.283 1.436-.029-.011-22.904-13.223.627-1.939 23.273 13.437zm-3.353 3.816c.119.068.217.157.295.26l-1.303 1.459-21.106-12.185.627-1.939 21.487 12.405zm-3.354 3.816c.105.061.189.143.262.232l-1.309 1.465-19.279-11.13.627-1.939 19.699 11.372zm-7.828 9.288l-15.633-9.023.627-1.939 16.125 9.309.201.178-1.32 1.475zm4.473-5.471c.094.055.164.129.232.205l-1.314 1.471-17.455-10.077.627-1.94 17.91 10.341z"/><path fill="#CECDCB" d="M39.741 37.491c-.275-.477-.885-.641-1.361-.365l-25.89 14.947c-.477.274-.64.884-.364 1.36.275.478.885.64 1.361.364l25.889-14.946c.476-.275.639-.884.365-1.36zm1.628 4.812c-.275-.477-.885-.64-1.361-.365l-24.164 13.952c-.477.274-.64.885-.364 1.361.274.477.884.639 1.36.364l24.163-13.951c.478-.275.641-.884.366-1.361zm1.628 4.814c-.275-.477-.885-.64-1.361-.365l-22.437 12.954c-.477.275-.641.885-.365 1.361s.885.64 1.361.364l22.438-12.954c.476-.275.639-.884.364-1.36zm1.628 4.812c-.274-.477-.885-.639-1.36-.363l-20.713 11.956c-.477.275-.64.885-.364 1.361s.885.64 1.361.364l20.711-11.957c.477-.274.64-.884.365-1.361zm1.628 4.814c-.275-.477-.885-.641-1.361-.365l-18.985 10.961c-.477.275-.64.885-.365 1.361.275.477.885.641 1.361.365l18.985-10.961c.477-.275.641-.884.365-1.361zm.267 4.447l-17.26 9.965c-.476.275-.64.885-.364 1.361s.885.641 1.361.365l17.26-9.965c.476-.275.64-.885.364-1.361s-.884-.64-1.361-.365zm40.83-8.859l-26.157-14.991c-.48-.276-1.098-.112-1.375.365-.277.478-.113 1.089.369 1.365l26.154 14.991c.482.275 1.098.112 1.377-.365.278-.478.112-1.09-.368-1.365zm-3.389 3.827l-24.412-13.991c-.482-.276-1.098-.112-1.375.365-.277.479-.113 1.089.369 1.365l24.41 13.992c.482.275 1.098.111 1.377-.366.277-.477.111-1.088-.369-1.365zm-3.389 3.827l-22.668-12.99c-.482-.276-1.098-.112-1.375.365-.279.478-.113 1.089.367 1.366l22.668 12.99c.482.277 1.098.113 1.377-.365.278-.478.112-1.089-.369-1.366zm-3.388 3.828l-20.924-11.992c-.482-.276-1.098-.112-1.377.365-.277.479-.111 1.09.369 1.365l20.924 11.992c.482.276 1.098.113 1.377-.365.277-.478.111-1.089-.369-1.365zm-3.389 3.829l-19.182-10.994c-.48-.276-1.096-.112-1.375.366-.277.478-.113 1.088.369 1.365l19.18 10.992c.482.275 1.098.111 1.377-.365.277-.478.111-1.089-.369-1.364zm-3.389 3.827l-17.438-9.993c-.48-.276-1.098-.113-1.375.365s-.113 1.09.369 1.365l17.436 9.994c.482.275 1.098.111 1.377-.366.278-.478.112-1.089-.369-1.365z"/><path fill="#E2574C" d="M29.893 28.35l-20.785 12c-1.913 1.104-2.568 3.551-1.464 5.464l.5.866 27.713-16-.5-.866c-1.105-1.913-3.551-2.568-5.464-1.464zm60.873 12.224l-20.998-12.035c-1.934-1.108-4.404-.451-5.52 1.468l-.506.869 27.998 16.046.506-.869c1.115-1.918.453-4.371-1.48-5.479z"/><path fill="#EFC75E" d="M45.532 73.106c-.276-.479-.888-.642-1.366-.365-.479.275-1.09.112-1.366-.366l-14-24.249c-.275-.478-.112-1.089.366-1.366s.643-.888.366-1.366l-4-6.928c-.276-.479-.888-.643-1.366-.366l-4.33 2.5c-.479.276-.643.888-.366 1.366l4 6.927c.276.479.888.643 1.366.367.479-.277 1.09-.113 1.366.365l14 24.249c.276.479.112 1.09-.366 1.366-.479.275-.643.888-.366 1.365l4 6.929c.276.479.888.642 1.366.366l4.33-2.5c.479-.276.643-.889.366-1.366l-4-6.928zm35.687-32.679l-4.389-2.508c-.484-.277-1.104-.113-1.385.367l-4.053 6.951c-.279.48-.113 1.093.371 1.371.484.277.65.891.371 1.371l-14.185 24.327c-.281.48-.9.645-1.385.367s-1.104-.113-1.385.367l-4.053 6.951c-.279.48-.113 1.094.371 1.37l4.389 2.509c.484.277 1.104.111 1.383-.367l4.053-6.951c.281-.48.115-1.094-.369-1.371-.486-.277-.652-.891-.371-1.37l14.186-24.328c.279-.479.898-.644 1.383-.367.486.277 1.105.112 1.385-.367l4.053-6.951c.28-.481.114-1.094-.37-1.371z"/><g fill="#6A7173"><path d="M57.184 53.997l-.627 1.94 10.697 6.176c.195-.662.346-1.342.465-2.033l-10.535-6.083zM60.316 44.301l-.627 1.939 7.002 4.042c-.469-1.166-1.049-2.275-1.74-3.306l-4.635-2.675zM66.145 64.925l-10.529-6.078-.627 1.939 10.182 5.877c.356-.559.679-1.14.974-1.738zM58.75 49.149l-.627 1.939 9.867 5.696c-.01-.822-.088-1.626-.203-2.418l-9.037-5.217zM41.933 50.479l-.629-1.929-.04.015-8.953 5.169c-.147.801-.232 1.622-.27 2.456l9.892-5.711zM43.509 55.323l-.631-1.938-10.676 6.165c.1.701.239 1.389.417 2.062l10.89-6.289zM45.086 60.165l-.631-1.937-10.815 6.246c.278.607.59 1.193.931 1.763l10.515-6.072zM39.635 43.751l-3.834 2.214c-.848 1.089-1.57 2.276-2.152 3.544l6.708-3.873-.624-1.918-.098.033z"/></g><g fill="#AEB1B1"><path d="M54.613 56.648c-.48-.276-1.096-.112-1.375.366-.277.478-.113 1.088.369 1.365l12.295 7.047c.314-.591.586-1.203.834-1.83l-12.123-6.948zM56.26 51.821c-.482-.276-1.098-.112-1.377.365-.277.479-.111 1.09.369 1.365l12.379 7.094c.143-.697.232-1.413.293-2.139l-11.664-6.685zM64.266 67.949l-11.297-6.474c-.48-.276-1.098-.113-1.375.365s-.113 1.09.369 1.365l10.977 6.291c.472-.487.91-1.007 1.326-1.547zM57.904 46.995c-.482-.276-1.098-.112-1.375.365-.279.478-.113 1.089.367 1.366l10.99 6.298c-.098-.887-.273-1.747-.494-2.591l-9.488-5.438zM58.174 42.533c-.277.479-.113 1.089.369 1.365l6.961 3.991c-.971-1.648-2.191-3.125-3.619-4.382l-2.336-1.339c-.483-.277-1.098-.113-1.375.365zM45.888 58.104c.477-.275.641-.885.365-1.361s-.885-.641-1.361-.365l-11.78 6.801c.231.633.495 1.248.792 1.845l11.984-6.92zM42.997 47.117c-.275-.477-.885-.64-1.361-.365l-8.886 5.13c-.251.849-.431 1.727-.556 2.622l10.439-6.026c.476-.276.639-.885.364-1.361zM34.933 47.169l6.07-3.505c.478-.275.641-.885.365-1.361-.212-.368-.623-.542-1.019-.48-2.163 1.379-4.013 3.2-5.416 5.346zM44.26 53.29c.477-.274.64-.884.364-1.361-.274-.477-.885-.639-1.36-.363l-11.211 6.473c.042.731.121 1.452.248 2.157l11.959-6.906zM46.52 61.19l-11.062 6.387c.397.546.825 1.066 1.28 1.563l10.779-6.224c.476-.275.64-.885.364-1.361s-.884-.64-1.361-.365z"/></g><g fill="#BAA55D"><path d="M67.91 55.223l-9.961 17.083c-.281.48-.9.645-1.385.367s-1.104-.113-1.385.367l-.82 1.407c3.539-.882 6.656-2.805 9.02-5.434l3.693-6.335c.594-1.785.928-3.691.928-5.677 0-.601-.031-1.193-.09-1.778zM45.532 73.106c-.276-.479-.888-.642-1.366-.365-.479.275-1.09.112-1.366-.366l-10.546-18.266c-.153.944-.254 1.906-.254 2.892 0 1.089.113 2.149.298 3.186l6.101 10.566c2.264 1.912 5.002 3.28 8.019 3.89l-.886-1.537z"/></g><path fill="#E2574C" d="M50 39c8.837 0 16 7.164 16 16s-7.162 16-16 16c-8.837 0-16-7.164-16-16s7.164-16 16-16z"/><path fill="#E7766D" d="M49.992 42.881c4.448 0 8.706 2.381 11.002 6.124-1.779-4.691-6.033-7.996-11.002-7.996-4.97 0-9.223 3.305-11.002 7.995 2.295-3.742 6.554-6.123 11.002-6.123z"/><path fill="#EFC75E" d="M49.989 50.999c-.119 0-.238.036-.342.105-.025.018-.765.51-1.488.69-.474.118-.983.136-1.239.136l-.264-.006-.04-.002c-.156 0-.307.061-.421.17-.125.118-.195.284-.195.458v1.879c0 5.789 3.722 6.533 3.88 6.562l.109.01.108-.01c.158-.029 3.909-.773 3.909-6.562v-1.566c0-.174-.072-.652-.197-.771-.113-.107-.264-.168-.42-.168l-.041.002-.264.006c-.256 0-.756-.018-1.23-.136-.611-.153-1.318-.55-1.523-.689-.104-.072-.223-.108-.342-.108z"/><path fill="#CB4E44" d="M50 69.001c-8.499 0-15.431-6.633-15.95-15-.021.332-.05.662-.05 1 0 8.836 7.163 16 16 16s16-7.164 16-16c0-.338-.029-.668-.051-1-.517 8.367-7.449 15-15.949 15z"/><path fill="#CDCCCA" d="M77.113 89.599l-24.363-13.877c-1.709-.974-3.791-.974-5.5 0l-24.363 13.877c-.628.357-1.157.813-1.584 1.336 8.124 5.706 18.016 9.066 28.697 9.066 10.681 0 20.574-3.36 28.697-9.066-.426-.523-.955-.979-1.584-1.336z"/><path fill="#C3C2C0" d="M52.473 82.12c-1.537-.869-3.412-.869-4.95 0l-21.151 11.95c7.037 3.781 15.081 5.931 23.629 5.931 8.546 0 16.589-2.148 23.626-5.929l-21.154-11.952z"/><path fill="#B4B3B1" d="M50 85.001c-1.104 0-2 .895-2 2 0 1.104.896 2 2 2 1.105 0 2-.896 2-2 0-1.105-.895-2-2-2zm-11 6c-1.104 0-2 .895-2 2 0 1.104.896 2 2 2s2-.896 2-2c0-1.105-.895-2-2-2zm22 0c-1.104 0-2 .895-2 2 0 1.104.896 2 2 2 1.105 0 2-.896 2-2 0-1.105-.895-2-2-2z"/><g fill="#CBA950"><path d="M29.345 49.071l-.546-.945c-.275-.478-.112-1.089.366-1.366l-4.084 2.417c.426-.114.889.048 1.121.448l.523.906.061.057 2.559-1.517zM80.502 43.66l-6.127-3.537-1.004 1.721 6.127 3.538zM75.02 49.199c.098-.076.207-.129.324-.165l-3.104-1.792.006.124.014.244c-.016.126-.057.251-.125.369l-.656 1.125 2.625 1.517.664-1.137c.066-.116.152-.21.252-.285zM20.078 43.02l.999 1.73 6.021-3.572-.999-1.73z"/></g><path fill="#F2F1EF" d="M5.912 46.814l2 3.464 31.178-18-2-3.464-31.178 18zm56.586-17.81l-2.021 3.474 31.498 18.052 2.021-3.474-31.498-18.052z"/></svg>