<?xml version="1.0" encoding="UTF-8"?>
<svg width="26" height="26" version="1.1" viewBox="0 -49.2858 25.7143 25.7143" xmlns="http://www.w3.org/2000/svg" xmlns:xlink="http://www.w3.org/1999/xlink">
    <!--Generated by IJSVG (https://github.com/curthard89/IJSVG)-->
    <g fill="#000000">
        <path d="M12.8572,0c-7.09822,0 -12.8572,5.75894 -12.8572,12.8572c0,7.09822 5.75894,12.8572 12.8572,12.8572c7.09822,0 12.8572,-5.75894 12.8572,-12.8572c0,-7.09822 -5.75894,-12.8572 -12.8572,-12.8572Zm2.14286,20.8761c0,0.30134 -0.234375,0.552456 -0.518974,0.552456h-3.21429c-0.30134,0 -0.552457,-0.251116 -0.552457,-0.552456v-3.18081c0,-0.30134 0.251117,-0.552456 0.552457,-0.552456h3.21429c0.284599,0 0.518974,0.251116 0.518974,0.552456Zm-0.033482,-5.75894c-0.016741,0.234376 -0.267858,0.418528 -0.569197,0.418528h-3.0971c-0.318081,0 -0.569197,-0.184152 -0.569197,-0.418528l-0.284599,-10.3962c0,-0.117188 0.050223,-0.234376 0.167411,-0.30134c0.100446,-0.083705 0.251116,-0.133929 0.401786,-0.133929h3.68304c0.15067,0 0.30134,0.050224 0.401786,0.133929c0.117188,0.066964 0.167411,0.184152 0.167411,0.30134Z" transform="translate(0, -49.2858)"></path>
    </g>
</svg>