<svg width="34" height="30" viewBox="0 -55.8483 34.2858 30.0837" xmlns="http://www.w3.org/2000/svg"><path d="M33.817-55.614c-.301-.2-.67-.234-1.004-.1L22.5-51.596l-10.312-4.118a.962.962 0 0 0-.804 0L.67-51.43c-.402.151-.67.553-.67.988v23.572c0 .351.184.686.469.887.184.117.385.184.602.184a.868.868 0 0 0 .402-.084L11.786-30l10.312 4.118a.962.962 0 0 0 .804 0l10.714-4.285c.402-.151.67-.553.67-.988v-23.572c0-.351-.184-.686-.469-.887zm-21.496 2.26l9.643 3.85v21.262l-9.643-3.85zM2.143-49.72l9.107-3.633v21.261L2.143-28.46zm30 17.846l-9.107 3.633v-21.261l9.107-3.633z"/></svg>