<svg xmlns="http://www.w3.org/2000/svg" width="100" height="100" viewBox="0 0 100 100"><circle fill="#E2574C" cx="50.045" cy="50" r="50"/><path fill="#EFC75E" d="M31.045 31.999c12.702 0 23 10.298 23 23 0 12.703-10.298 23-23 23s-23-10.297-23-23c0-12.702 10.298-23 23-23z"/><path fill="#D7B354" d="M11.045 54.999c0-12.198 9.498-22.172 21.5-22.946-.497-.032-.996-.054-1.5-.054-12.702 0-23 10.298-23 23 0 12.703 10.298 23 23 23 .504 0 1.003-.022 1.5-.054-12.003-.773-21.5-10.748-21.5-22.946z"/><path fill="#3C5663" d="M83.045 52.999v-3c0-.552-.447-1-1-1h-3v-8c.553 0 1-.447 1-1v-1c0-.552-.447-1-1-1h-10c-.553 0-1 .448-1 1v1c0 .553.447 1 1 1v8h-3c-.553 0-1 .448-1 1v3h-22.991c-.872 0-1.004 1-1.004 1l-.017 12s-23.361-12.671-22.012-12l-1.963-1c-1.043-.53-1.015 1-1.015 1l-.013 12s-8.878-4.588-15.363-8.122c3.777 23.859 24.423 42.103 49.339 42.122h.077c26.589-.021 48.313-20.795 49.864-47h-16.902z"/><path fill="#E87970" d="M55.045 9.999h-14c-1.104 0-2 .896-2 2s.896 2 2 2h2v.003c.813.017 1.469.679 1.469 1.497 0 .818-.655 1.48-1.469 1.498v.003h-8c-1.104 0-2 .896-2 2 0 1.105.896 2 2 2h15c1.104 0 2-.895 2-2 0-1.104-.896-2-2-2-.828 0-1.5-.671-1.5-1.5 0-.828.672-1.5 1.5-1.5h5c1.104 0 2-.895 2-2s-.896-2.001-2-2.001z"/><g fill="#334954"><path d="M16.751 87.293c6.717 6 15.063 10.205 24.294 11.884v-33.178l-2-1-22.294 22.294zM5.785 73.259c2.649 5.031 6.128 9.555 10.26 13.389v-20.649l-2-1-8.26 8.26z"/></g><path fill="#2B414D" d="M69.045 40.999v8h5v-8h5c.553 0 1-.447 1-1v-1c0-.552-.447-1-1-1h-10c-.553 0-1 .448-1 1v1c0 .553.447 1 1 1z"/><g fill="#EFEFEF"><path d="M49.045 71.999h12v5h-12zM30.045 71.999h5v5h-5zM65.045 79.999h12v5h-12zM30.045 79.999h5v5h-5zM65.045 71.999h12v5h-12zM90.047 79.999h-9.002v5h4.695c1.54-1.57 2.983-3.237 4.307-5zM81.045 71.999v5h11.074c1.033-1.607 1.983-3.273 2.83-5h-13.904zM22.045 79.999h5v5h-5zM22.045 71.999h5v5h-5zM49.045 79.999h12v5h-12z"/></g><g fill="#D7D7D7"><path d="M30.045 71.999h5v2h-5zM30.045 79.999h5v2h-5zM49.045 79.999h12v2h-12zM22.045 79.999h5v2h-5zM22.045 71.999h5v2h-5zM49.045 71.999h12v2h-12zM94.949 71.999h-13.904v2h12.87c.36-.657.703-1.325 1.034-2zM65.045 79.999h12v2h-12zM65.045 71.999h12v2h-12zM90.047 79.999h-9.002v2h7.414c.545-.653 1.076-1.319 1.588-2z"/></g><path fill="#38505C" d="M99.4 57.999h-58.355v3h57.771c.223-.99.421-1.988.584-3z"/><path fill="#2B414D" d="M99.947 52.999h-58.902c-.553 0-1 .448-1 1v3c0 .553.447 1 1 1h58.355c.264-1.642.448-3.31.547-5z"/><path fill="#EA8981" d="M90.045 30.999c0-1.656-1.343-3-3-3h-7c-.828 0-1.5-.671-1.5-1.5s.672-1.501 1.5-1.501h3.5c1.381 0 2.5-1.119 2.5-2.5s-1.119-2.5-2.5-2.5h-1.5c-.828 0-1.5-.671-1.5-1.5s.672-1.5 1.5-1.5h5.546c-1.233-1.402-2.535-2.744-3.917-4h-13.629c-1.104 0-2 .896-2 2 0 1.105.896 2 2 2h3v.003c.813.017 1.469.679 1.469 1.497 0 .817-.655 1.48-1.469 1.497v.002h-10.5c-1.381 0-2.5 1.12-2.5 2.5s1.119 2.5 2.5 2.5h6.5v.002c.838.015 1.469.679 1.469 1.499 0 .819-.631 1.481-1.469 1.497v.003h-5c-1.657 0-3 1.344-3 3 0 1.657 1.343 3 3 3h4c2.209 0 4 1.791 4 4h4c0-2.209 1.791-4 4-4h7c1.657.001 3-1.342 3-2.999z"/></svg>