<svg width="30" height="26" viewBox="0 -49.8885 30 26.1161" xmlns="http://www.w3.org/2000/svg"><path d="M.753-24.19L12.64-36.078c.1-.1.167-.201.217-.318v11.886c0 .586.335.737.754.318l11.886-11.886c.1-.1.167-.201.217-.318v11.35c0 .586.486 1.072 1.072 1.072h2.143c.586 0 1.071-.486 1.071-1.072v-23.571c0-.586-.485-1.072-1.071-1.072h-2.143c-.586 0-1.072.486-1.072 1.072v11.35a.981.981 0 0 0-.217-.318L13.61-49.47c-.419-.418-.754-.268-.754.318v11.886a.981.981 0 0 0-.217-.318L.753-49.47c-.418-.418-.753-.268-.753.318v24.643c0 .586.335.737.753.318z"/></svg>