<svg width="26" height="30" viewBox="0 -55.7144 25.7143 30" xmlns="http://www.w3.org/2000/svg"><path d="M24.576-49.353l-5.223-5.223c-.62-.62-1.859-1.138-2.746-1.138h-15c-.887 0-1.607.72-1.607 1.607v26.785c0 .888.72 1.608 1.607 1.608h22.5c.887 0 1.607-.72 1.607-1.608v-19.285c0-.888-.519-2.126-1.138-2.746zm-7.433-4.085c.284.1.57.252.686.369l5.24 5.24c.117.117.268.401.369.686h-6.295zm6.428 25.58H2.143v-25.714H15v6.965c0 .887.72 1.607 1.607 1.607h6.964zm-10.714-15H6.43a2.158 2.158 0 0 0-2.143 2.144v6.428c0 1.172.97 2.143 2.143 2.143h6.428A2.158 2.158 0 0 0 15-34.286v-6.428a2.158 2.158 0 0 0-2.143-2.143zm8.237.034a.84.84 0 0 0-.201-.033.559.559 0 0 0-.385.15l-4.437 4.454v1.506l4.437 4.453c.1.1.25.151.385.151.067 0 .134-.017.2-.033a.548.548 0 0 0 .336-.503v-9.642a.548.548 0 0 0-.335-.503z"/></svg>