<svg width="29" height="26" viewBox="1.07143 -49.2858 28.9286 25.7143" xmlns="http://www.w3.org/2000/svg"><path d="M5.357-47.143a2.136 2.136 0 0 0-2.143-2.143 2.136 2.136 0 0 0-2.143 2.143c0 .77.419 1.457 1.072 1.842v21.194a.55.55 0 0 0 .536.535H3.75a.55.55 0 0 0 .536-.535v-21.194a2.138 2.138 0 0 0 1.071-1.842zM30-46.072c0-.585-.485-1.07-1.071-1.07-.737 0-3.566 2.276-6.195 2.276-.519 0-1.004-.084-1.473-.318-2.327-1.088-4.386-1.959-7.014-1.959-2.378 0-4.939.938-7.048 2.009-.436.218-.921.452-1.323.72-.318.234-.519.519-.519.92v12.423c0 .585.486 1.07 1.072 1.07.2 0 .368-.05.552-.15 2.31-1.239 5.106-2.444 7.768-2.444 3.65 0 5.123 2.344 8.203 2.344 2.193 0 4.286-.92 6.178-1.942.485-.251.87-.486.87-1.105z"/></svg>