<?xml version="1.0" encoding="UTF-8" standalone="no"?>
<svg width="32" height="29" version="1.1" viewBox="0 -54.9275 32.1429 29.4811" xmlns="http://www.w3.org/2000/svg" xmlns:xlink="http://www.w3.org/1999/xlink">
    <!--Generated by IJSVG (https://github.com/curthard89/IJSVG)-->
    <g fill="#000000">
        <path d="M15,14.7322c0,2.36049 -1.92523,4.28572 -4.28572,4.28572c-2.36049,0 -4.28572,-1.92523 -4.28572,-4.28572c0,-2.36049 1.92523,-4.28572 4.28572,-4.28572c2.36049,0 4.28572,1.92523 4.28572,4.28572Zm12.8572,8.57144c0,1.17188 -0.954242,2.14286 -2.14286,2.14286c-1.17188,0 -2.14286,-0.954242 -2.14286,-2.14286c0,-1.17188 0.970983,-2.14286 2.14286,-2.14286c1.17188,0 2.14286,0.970983 2.14286,2.14286Zm0,-17.1429c0,1.17188 -0.954242,2.14286 -2.14286,2.14286c-1.17188,0 -2.14286,-0.954242 -2.14286,-2.14286c0,-1.17188 0.970983,-2.14286 2.14286,-2.14286c1.17188,0 2.14286,0.970983 2.14286,2.14286Zm-6.42858,7.048c0,-0.234375 -0.167411,-0.452009 -0.401786,-0.502232l-2.54465,-0.385046c-0.15067,-0.46875 -0.351563,-0.92076 -0.569197,-1.37277c0.46875,-0.652903 0.970983,-1.25558 1.45648,-1.90848c0.066964,-0.100447 0.117187,-0.200894 0.117187,-0.318081c0,-0.468751 -1.97545,-2.27679 -2.41072,-2.67857c-0.100446,-0.083705 -0.217634,-0.133929 -0.351563,-0.133929c-0.117187,0 -0.234375,0.033483 -0.334822,0.117188l-1.97545,1.48996c-0.401787,-0.200893 -0.820314,-0.385045 -1.25558,-0.518974l-0.385045,-2.56139c-0.033482,-0.234375 -0.267858,-0.418527 -0.502233,-0.418527h-3.11384c-0.234375,0 -0.435268,0.167411 -0.502233,0.401786c-0.217634,0.820314 -0.301339,1.74107 -0.385045,2.57813c-0.452009,0.15067 -0.870537,0.318081 -1.28906,0.535715l-1.92523,-1.5067c-0.100447,-0.066964 -0.217635,-0.117188 -0.351563,-0.117188c-0.485492,0 -2.36049,2.02567 -2.69532,2.47768c-0.083705,0.100446 -0.117188,0.217634 -0.117188,0.334822c0,0.117187 0.050224,0.234375 0.117188,0.334822c0.535715,0.636161 1.03795,1.25558 1.5067,1.92522c-0.217634,0.418527 -0.401786,0.837055 -0.535715,1.27232l-2.59487,0.401786c-0.217634,0.033482 -0.385045,0.284599 -0.385045,0.502233v3.0971c0,0.234375 0.167411,0.452009 0.401786,0.485492l2.54465,0.401786c0.15067,0.46875 0.351563,0.92076 0.585938,1.37277c-0.485491,0.652903 -0.987724,1.27232 -1.47322,1.90848c-0.066964,0.100446 -0.117187,0.200893 -0.117187,0.31808c0,0.485492 1.97545,2.27679 2.41072,2.67857c0.100446,0.083705 0.217634,0.133929 0.351563,0.133929c0.117187,0 0.251116,-0.033482 0.334822,-0.117188l1.97545,-1.48996c0.401786,0.200893 0.820314,0.385045 1.25558,0.518974l0.385045,2.56139c0.033482,0.234375 0.267858,0.418527 0.502233,0.418527h3.11384c0.234375,0 0.435268,-0.167411 0.502233,-0.401786c0.217634,-0.820314 0.301339,-1.74107 0.385045,-2.59487c0.452009,-0.133929 0.870537,-0.30134 1.28906,-0.518974l1.92522,1.5067c0.100447,0.066964 0.217635,0.117188 0.351563,0.117188c0.485492,0 2.36049,-2.04241 2.69532,-2.49442c0.083705,-0.083705 0.117188,-0.200893 0.117188,-0.318081c0,-0.133928 -0.050224,-0.234375 -0.117188,-0.334821c-0.535715,-0.636162 -1.03795,-1.25558 -1.5067,-1.92523c0.217634,-0.418527 0.401786,-0.837055 0.535715,-1.27232l2.59487,-0.401786c0.217634,-0.033482 0.385045,-0.284599 0.385045,-0.502233Zm10.7143,8.923c0,-0.251116 -2.1596,-0.485492 -2.49442,-0.518974c-0.133929,-0.30134 -0.30134,-0.602679 -0.502233,-0.870537c0.15067,-0.334821 0.853796,-2.00893 0.853796,-2.31027c0,-0.033482 -0.016741,-0.083706 -0.066965,-0.117188c-0.200893,-0.117187 -1.99219,-1.17188 -2.0759,-1.17188l-0.100446,0.033482c-0.569198,0.569197 -1.07143,1.2221 -1.54018,1.875c-0.167411,-0.016741 -0.334822,-0.033482 -0.502233,-0.033482c-0.167411,0 -0.334821,0.016741 -0.502232,0.033482c-0.167411,-0.251116 -1.42299,-1.90848 -1.64063,-1.90848c-0.083706,0 -1.875,1.07143 -2.0759,1.17188c-0.050223,0.033482 -0.066964,0.083706 -0.066964,0.117188c0,0.284598 0.703126,1.97545 0.853796,2.31027c-0.200893,0.267858 -0.368304,0.569197 -0.502233,0.870537c-0.334822,0.033482 -2.49442,0.267858 -2.49442,0.518974v2.34375c0,0.251116 2.1596,0.485491 2.49442,0.518974c0.133929,0.31808 0.30134,0.602679 0.502233,0.870536c-0.15067,0.334822 -0.853796,2.02567 -0.853796,2.31027c0,0.033482 0.016741,0.083705 0.066964,0.117188c0.200893,0.117187 1.99219,1.18862 2.0759,1.18862c0.217634,0 1.47322,-1.67411 1.64063,-1.92522c0.167411,0.016741 0.334821,0.033482 0.502232,0.033482c0.167411,0 0.334822,-0.016741 0.502233,-0.033482c0.167411,0.251116 1.42299,1.92522 1.64063,1.92522c0.083706,0 1.875,-1.07143 2.0759,-1.18862c0.050224,-0.033483 0.066965,-0.066965 0.066965,-0.117188c0,-0.30134 -0.703126,-1.97545 -0.853796,-2.31027c0.200893,-0.267857 0.368304,-0.552456 0.502233,-0.870536c0.334822,-0.033483 2.49442,-0.267858 2.49442,-0.518974Zm0,-17.1429c0,-0.251116 -2.1596,-0.485491 -2.49442,-0.518973c-0.133929,-0.30134 -0.30134,-0.60268 -0.502233,-0.870537c0.15067,-0.334822 0.853796,-2.00893 0.853796,-2.31027c0,-0.033482 -0.016741,-0.083705 -0.066965,-0.117187c-0.200893,-0.117188 -1.99219,-1.17188 -2.0759,-1.17188l-0.100446,0.033482c-0.569198,0.569197 -1.07143,1.2221 -1.54018,1.875c-0.167411,-0.016742 -0.334822,-0.033483 -0.502233,-0.033483c-0.167411,0 -0.334821,0.016741 -0.502232,0.033483c-0.167411,-0.251117 -1.42299,-1.90848 -1.64063,-1.90848c-0.083706,0 -1.875,1.07143 -2.0759,1.17188c-0.050223,0.033482 -0.066964,0.083705 -0.066964,0.117187c0,0.284599 0.703126,1.97545 0.853796,2.31027c-0.200893,0.267857 -0.368304,0.569197 -0.502233,0.870537c-0.334822,0.033482 -2.49442,0.267857 -2.49442,0.518973v2.34375c0,0.251117 2.1596,0.485492 2.49442,0.518974c0.133929,0.318081 0.30134,0.602679 0.502233,0.870537c-0.15067,0.334822 -0.853796,2.02567 -0.853796,2.31027c0,0.033483 0.016741,0.083706 0.066964,0.117188c0.200893,0.117188 1.99219,1.18862 2.0759,1.18862c0.217634,0 1.47322,-1.67411 1.64063,-1.92523c0.167411,0.016741 0.334821,0.033482 0.502232,0.033482c0.167411,0 0.334822,-0.016741 0.502233,-0.033482c0.167411,0.251116 1.42299,1.92523 1.64063,1.92523c0.083706,0 1.875,-1.07143 2.0759,-1.18862c0.050224,-0.033482 0.066965,-0.066964 0.066965,-0.117188c0,-0.301339 -0.703126,-1.97545 -0.853796,-2.31027c0.200893,-0.267858 0.368304,-0.552456 0.502233,-0.870537c0.334822,-0.033482 2.49442,-0.267857 2.49442,-0.518974Z" transform="translate(0, -54.9275)"></path>
    </g>
</svg>