<svg xmlns="http://www.w3.org/2000/svg" width="100" height="100" viewBox="0 0 100 100"><circle fill="#EFC75E" cx="50" cy="50" r="50"/><path fill="#344955" d="M45 99.75c1.645.164 3.312.25 5 .25 2.032 0 4.031-.136 6-.371v-7.63h-11v7.751z"/><path fill="#405C6A" d="M46.602 89.879c2.141-1.164 5.612-1.164 7.754 0 2.142 1.165 2.142 3.053 0 4.217s-5.613 1.164-7.754 0c-2.142-1.164-2.142-3.052 0-4.217z"/><path fill="#344955" d="M49 79.999v12c0 .553.672 1 1.5 1s1.5-.447 1.5-1v-12h-3z"/><path fill="#324D5B" d="M50.955 81.998c-8.191 0-16.384-3.119-22.62-9.358-12.474-12.479-12.474-32.782 0-45.261.556-.557 1.458-.557 2.014 0 .557.557.557 1.459 0 2.015-11.362 11.367-11.362 29.863 0 41.23 11.363 11.368 29.851 11.368 41.213 0 .557-.556 1.459-.556 2.015 0 .557.557.557 1.459 0 2.016-6.237 6.239-14.43 9.358-22.622 9.358z"/><g fill="#283E49"><path d="M71.562 70.624c-.635.635-1.295 1.229-1.972 1.794l2.02 2.02c.673-.569 1.332-1.163 1.967-1.798.448-.448.518-1.113.243-1.649l-.609-.609c-.536-.275-1.201-.206-1.649.242zM28.548 31.375c.566-.68 1.163-1.344 1.8-1.982.433-.432.519-1.07.278-1.596l-.697-.697c-.525-.24-1.162-.153-1.594.279-.638.638-1.234 1.301-1.806 1.977l2.019 2.019z"/></g><path fill="#405C6A" d="M27.373 25.372c-.781.781-.781 2.047 0 2.828l45.426 45.427c.781.78 2.048.78 2.828 0 .781-.781.781-2.048 0-2.829l-45.426-45.426c-.781-.781-2.048-.781-2.828 0z"/><path fill="#2EA9D3" d="M51 23.999c14.359 0 26 11.641 26 26s-11.641 26-26 26-26-11.641-26-26 11.641-26 26-26z"/><path fill="#AEC225" d="M45.596 44.91c2.886-2.125 4.23 2.055 5.386.812 1.915-2.319.579-4.449 3.073-9.47 2.497-5.027 2.735-4.104 4.613-8.312.446-1.001.759-1.755.848-2.508-2.669-.925-5.532-1.434-8.516-1.434-10.217 0-19.053 5.896-23.303 14.468.669 1.637 1.707 3.413 3.287 5.32 3.847 4.639 7.883 6.575 14.231 10.441 6.345 3.862 5.38 5.604 3.838 7.347-1.536 1.737-3.945 9.229.577 11.595 2.16 1.301 3.439 2.021 4.104 2.686 4.335-.453 8.353-1.971 11.787-4.287.485-1.039.96-2.17 1.407-3.425 1.798-6.325 4.04-17.395-1.147-16.234-4.57 1.021-10.187 2.125-12.885 2.509-2.688.388-5.957-2.319-9.607-4.25-.51-2.058-.574-3.134 2.307-5.258z"/><path fill="#2998BE" d="M54 73.999c-14.359 0-26-11.641-26-26 0-8.382 3.97-15.832 10.128-20.587-7.839 4.478-13.128 12.912-13.128 22.587 0 14.359 11.641 26 26 26 5.978 0 11.48-2.022 15.872-5.413-3.796 2.168-8.187 3.413-12.872 3.413z"/><g fill="#9CAE21"><path d="M65.675 71.221c-3.512 1.771-7.474 2.778-11.675 2.778-1.139 0-2.259-.081-3.359-.224 1.543.924 2.524 1.519 3.079 2.066.55-.058 1.101-.117 1.641-.209l.158-.031c.593-.104 1.178-.231 1.757-.375l.525-.14c.489-.133.973-.278 1.449-.438l.42-.14c1.24-.439 2.436-.97 3.581-1.583l.297-.163c.512-.283 1.015-.582 1.505-.897l.177-.112.307-.218.138-.314zM28.971 40.976c1.525-5.438 4.768-10.158 9.115-13.529l-.301.176c-.323.191-.645.385-.958.59l-.504.344c-.303.208-.605.417-.899.637l-.508.4c-.278.219-.557.438-.825.668l-.531.48c-.245.222-.493.441-.729.673-.205.2-.398.411-.596.617l-.588.616c-.301.336-.589.685-.872 1.036l-.231.275c-.361.46-.708.933-1.038 1.417l-.069.109c-.303.449-.594.906-.869 1.375l-.146.266c-.24.421-.474.846-.691 1.281l-.03.063c.326.803.745 1.639 1.27 2.506z"/></g></svg>