<?xml version="1.0" encoding="UTF-8" standalone="no"?>
<svg width="26" height="26" version="1.1" viewBox="0 -49.2858 25.7143 25.7143" xmlns="http://www.w3.org/2000/svg" xmlns:xlink="http://www.w3.org/1999/xlink">
    <!--Generated by IJSVG (https://github.com/curthard89/IJSVG)-->
    <g fill="#000000">
        <path d="M12.8572,0c-7.09822,0 -12.8572,5.75894 -12.8572,12.8572c0,7.09822 5.75894,12.8572 12.8572,12.8572c7.09822,0 12.8572,-5.75894 12.8572,-12.8572c0,-7.09822 -5.75894,-12.8572 -12.8572,-12.8572Zm4.58706,8.72211c0.184152,-0.117188 0.485492,-0.267858 0.719867,-0.200894c0.184152,0.050224 0.334822,0.117188 0.117188,0.267858c-0.100447,0.066964 -0.251117,0 -0.368304,0.033482c0.15067,0.033482 0.368304,0.100447 0.301339,0.251116c0.435269,0.251117 -0.133928,0.552457 -0.418527,0.518974c0.133929,0.016741 -0.284598,0.267858 -0.284598,0.251117c-0.15067,0.083705 -0.351563,0.083705 -0.468751,0.234375c-0.133929,0.184152 0.050223,0.502233 -0.200893,0.435268c-0.100447,0.217635 -0.485492,0.100447 -0.652903,0.334822c0.184152,0.200893 -0.184152,0.485492 -0.368304,0.234375c-0.167411,0.066965 -0.083705,0.251117 -0.251116,0.351563c0.066964,0.100447 0.083705,0.200893 -0.033482,0.267858c0.033482,-0.016741 0.234375,0.15067 0.284598,0.167411c-0.033482,0.083705 -0.100446,0.15067 -0.184152,0.15067c0.083706,0.217634 -0.100446,0.452009 -0.251116,0.585938c-0.167411,0.133929 -0.552456,0.267857 -0.602679,0.301339c-0.30134,0.284599 -0.502233,0.703126 0.033482,0.820314c0.016741,0 0.016741,0.552456 0.033482,0.569197c0.033482,0.200893 0.117188,0.786831 -0.234375,0.569197c-0.167411,-0.083705 -0.267858,-0.552456 -0.318081,-0.736608c-0.050223,-0.200893 -0.066964,-0.200893 -0.200893,-0.401786c-0.217634,0.251116 -0.251116,0.066964 -0.435268,-0.050223c-0.184152,-0.100447 -0.45201,-0.066965 -0.552456,-0.167411c-0.251117,0.184152 -0.435269,0.133928 -0.485492,-0.15067c-0.066964,0.133929 0.066964,0.334822 0.050223,0.385045c-0.083705,0.167411 -0.234375,0.133929 -0.368304,0.033482c-0.217634,-0.167411 -0.686385,0.117188 -0.937501,0c0.016741,0 0.083706,0.066965 0.133929,0.100447c-0.050223,0.200893 -0.167411,0.083705 -0.267858,0.15067c-0.117187,0.083705 -0.217634,0.251116 -0.31808,0.334821c0.217634,0.418528 -0.016742,0.820314 0,1.27232c0,0.334822 0.217634,0.92076 0.535715,1.10491c0.150669,0.083706 0.652902,0.117188 0.803572,0.050224c0.234375,-0.100447 0.200893,-0.284599 0.284598,-0.485492c0.083706,-0.217634 0.184152,-0.318081 0.435269,-0.334822c0.719867,-0.033482 0.167411,0.552456 0.083705,0.853796c-0.050223,0.217634 -0.066964,0.46875 -0.100446,0.669643c0.083705,0.033483 0.167411,0.016742 0.251116,0.016742c0,-0.066965 0.050223,-0.15067 0.050223,-0.200894c0.100447,0.167411 0.435269,0.217635 0.535715,0.016742c0.117188,0.200893 0.351563,0.351562 0.385045,0.585938c0.033483,0.234375 0.251117,0.485491 -0.066964,0.485491c-0.234375,0 0.033482,0.468751 0.066964,0.552456c0.184152,0.334822 0.485492,0.468751 0.820314,0.30134c0,0.133929 -0.050223,0.502233 -0.234375,0.535715c-0.167411,0.033482 -0.485492,-0.318081 -0.418528,-0.502233c-0.016741,0.066965 -0.066964,0.117188 -0.117187,0.15067c-0.167411,-0.200893 -0.45201,-0.30134 -0.60268,-0.502233c-0.033482,-0.050223 -0.485491,-0.736608 -0.385045,-0.77009c-0.234375,0.100447 -0.703126,-0.066964 -0.92076,-0.184152c-0.351563,-0.184152 -0.401786,-0.669644 -0.837054,-0.602679c-0.30134,0.050223 -0.385045,0.167411 -0.736608,0.033482c-0.234376,-0.083705 -0.435269,-0.251116 -0.669644,-0.368304c-0.267857,-0.15067 -0.736608,-0.30134 -0.837055,-0.636161c-0.100446,-0.267858 -0.066964,-0.585939 -0.217634,-0.837055c-0.100446,-0.167411 -0.401786,-0.502233 -0.61942,-0.502233c0.200893,0 -0.184152,-0.502233 -0.234375,-0.552456c-0.184152,-0.217634 -0.853796,-0.803572 -0.719867,-1.13839c0.033482,-0.050223 -0.334822,-0.184152 -0.401787,-0.200893c0.066965,0.167411 0.083706,0.351563 0.167411,0.502233c0.083706,0.167411 0.184152,0.31808 0.284599,0.485491c0.184152,0.30134 0.435268,0.669644 0.401786,1.03795c-0.217634,0.066964 -0.15067,-0.251116 -0.217634,-0.385045c-0.117188,-0.217634 -0.435268,-0.217634 -0.518974,-0.45201c0.033482,-0.016741 0.050223,-0.016741 0.083706,-0.033482c0.016741,-0.284598 -0.401787,-0.518974 -0.334822,-0.719867c-0.234376,-0.184152 -0.234376,-0.535715 -0.401786,-0.77009c-0.15067,-0.217634 -0.401787,-0.318081 -0.619421,-0.468751c-0.083705,-0.050223 -0.686385,-0.820313 -0.46875,-0.870536c-0.334822,0.083705 -0.502233,-0.703126 -0.45201,-0.904019c0,0 -0.033482,0 -0.033482,-0.016741c0.066964,-0.200893 -0.050223,-1.23884 0.217634,-1.25558c-0.184152,0.016741 -0.234375,-0.435269 -0.184152,-0.518974c0.033482,-0.066964 0.284599,0.184152 0.30134,0.217634c0.100446,-0.050223 0.200893,-0.184152 0.167411,-0.301339c-0.050224,-0.133929 -0.234376,-0.251117 -0.351563,-0.351563c-0.050223,-0.033483 -0.719867,-0.468751 -0.736608,-0.45201c0.066964,-0.117187 0.050223,-0.234375 -0.050224,-0.318081c-0.31808,0.251117 -0.150669,-0.234375 -0.31808,-0.284598c-0.066965,-0.016741 -0.133929,-0.066964 -0.200893,-0.133929c0.970983,-1.54018 2.32701,-2.82924 3.93416,-3.71652c0.100447,-0.016741 0.234375,-0.016741 0.368304,-0.016741c0.30134,0.033482 0.468751,0.284598 0.686385,0.435268c0.033482,-0.083705 -0.033482,-0.217634 -0.083706,-0.301339c0.050224,-0.133929 0.251117,-0.167411 0.368304,-0.200894c0.15067,-0.016741 0.368304,-0.050223 0.502233,0.016742c-0.100446,-0.15067 -0.217634,-0.284599 -0.334822,-0.418528c-0.016741,0.016741 -0.066964,0.050224 -0.083705,0.083706c-0.184152,-0.15067 -0.535715,0.050223 -0.703126,0.117187c-0.133929,0.066965 -0.251116,0.15067 -0.385045,0.200893c-0.083706,0.033483 -0.133929,0.033483 -0.200893,0.016742c0.502233,-0.267858 1.02121,-0.502233 1.57366,-0.686385c0.100447,0.066964 0.200894,0.184152 0.351563,0.301339c-0.100446,-0.083705 -0.100446,0.30134 -0.066964,0.368304c0.184152,0.251117 0.585938,0.083706 0.837055,0.083706c-0.016742,0 0.736608,0.100446 0.585938,-0.083706c0.117187,0.167411 0.117187,0.418528 0.267857,0.569198c0.15067,-0.15067 -0.066964,-0.318081 0.033482,-0.468751c0.033483,-0.066964 0.334822,-0.15067 0.435269,-0.200893c0.117187,-0.083706 -0.083706,-0.200893 -0.133929,-0.234375c-0.167411,-0.100447 -0.820313,-0.15067 -0.502233,-0.535715c0.117188,-0.133929 0.535715,-0.066965 0.669644,0.016741c0.184152,0.100446 0.385045,0.284598 0.133929,0.452009c0.117187,0.016741 0.669643,0.167411 0.585938,0.385045c0.050223,-0.100446 0.133929,-0.251116 0.267857,-0.251116c0.15067,0.016741 0.184152,0.368304 0.251117,0.452009c0.234375,0.418528 0.636161,-0.418527 0.703126,-0.385045c-0.30134,-0.117187 0.267857,-0.267857 0.418527,-0.217634c0.117188,0.050223 0.30134,0.45201 0.083705,0.435269c0.184152,0.16741 0.200893,0.535714 -0.133928,0.518973c-0.234376,-0.016741 -0.502233,-0.334821 -0.719867,-0.083705c-0.15067,0.167411 -0.217635,0.418527 -0.368304,0.569197c-0.234376,0.234375 -0.552456,0.217634 -0.837055,0.184152c0.117188,0.016741 -0.251116,0.401786 -0.284598,0.468751c-0.100447,0.117187 -0.167411,0.251116 -0.200894,0.385045c-0.033482,0.167411 0,0.351563 -0.083705,0.518973c0.284599,-0.083705 0.435268,0.435269 0.318081,0.45201c0.351563,-0.050223 0.636161,-0.050223 0.970983,0.066964c0.234375,0.083706 0.585938,0.184152 0.686385,0.435269c0.066964,-0.100447 0.385045,-0.050224 0.485491,-0.016741c0.200894,0.100446 0.217635,0.31808 0.267858,0.502232c0.066964,0.251117 0.284598,0.669644 0.569197,0.535715c0.050223,-0.033482 0.418527,-0.200893 0.284599,-0.301339c-0.133929,-0.117188 -0.284599,-0.418528 -0.15067,-0.585939c0.133928,-0.184152 0.452009,-0.234375 0.535715,-0.46875c0.133928,-0.385045 -0.401787,-0.334822 -0.401787,-0.619421c0,-0.16741 0.217635,-0.217634 0.200894,-0.418527c0,-0.167411 -0.251117,-0.502233 -0.050224,-0.61942c0.167411,-0.100447 0.970984,0.066964 1.12165,0.167411c0.15067,0.100446 0.619421,0.234375 0.652903,0.385045c-0.033482,0 -0.050223,0 -0.083706,0c0.133929,0.117187 0.251117,0.368304 0.016742,0.435268c0.150669,-0.033482 0.585938,0.133929 0.284598,0.234375c0.100447,-0.050223 0.184152,-0.016741 0.284599,-0.083705c0.117187,-0.066964 0.184152,-0.184152 0.334822,-0.100447c0.033482,0.016742 0.217634,-0.351562 0.31808,-0.334821c0.15067,0.016741 0.184152,0.234375 0.251117,0.334821c0.066964,0.15067 0.251116,0.200894 0.31808,0.351563c0.117188,0.284599 0.066965,0.552456 0.45201,0.652903c0.117187,0.033482 0.435268,-0.15067 0.418527,0.100447c0.066964,-0.066965 0.100447,-0.117188 0.100447,-0.133929c0.016741,0.234375 0.117187,0.502233 0.401786,0.46875c0,0 0,0.318081 -0.033482,0.368304c-0.100447,0.15067 -0.351563,0.117188 -0.502233,0.200893c-0.050223,0.016742 -0.45201,0.368304 -0.401786,0.418528c-0.217634,-0.251117 -0.569197,-0.251117 -0.853796,-0.184152c-0.30134,0.050223 -0.585938,0.083705 -0.870537,0.200893c-0.133928,0.066964 -0.267857,0.133929 -0.368304,0.251116c-0.050223,0.066965 -0.133928,0.368304 -0.217634,0.385045c0.167411,-0.033482 0.251116,-0.217634 0.385045,-0.31808Zm-2.7288,14.6819c-0.016741,-0.083706 -0.033482,-0.251117 -0.033482,-0.267858c-0.016741,-0.267857 0.267858,-0.452009 0.251117,-0.703126c-0.184152,-0.050223 -0.234376,-0.234375 -0.200894,-0.435268c0.033483,-0.284599 0.284599,-0.485492 0.485492,-0.669644c0.200893,-0.184152 0.251116,-0.569197 0.200893,-0.803572c-0.083705,-0.401786 -0.083705,-0.820313 -0.15067,-1.2221c0.016741,0.100447 0.30134,0.066965 0.351563,0.200893c0.066965,-0.117187 0.100447,-0.267857 0.184152,-0.385045c0.066965,-0.100446 0.184152,-0.133928 0.284599,-0.217634c0.167411,-0.100446 0.518974,-0.485492 0.719867,-0.251116c0.167411,0.200893 -0.251117,0.418527 -0.033482,0.602679c0.066964,-0.133929 0,-0.334822 0.133928,-0.468751c0.267858,-0.301339 0.45201,0.033483 0.719867,0.117188c0.284599,0.083706 0.385045,0.184152 0.60268,0.368304c-0.066965,-0.066964 0.267857,-0.184152 0.301339,-0.200893c0.318081,-0.066964 0.45201,0.117188 0.669644,0.284599c0.234375,0.167411 0.602679,0.284598 0.569197,0.61942c0.167411,0.033482 0.267857,0.083705 0.401786,0.133929c0.133929,0.066964 0.318081,0.033482 0.418527,0.133928c-1.54018,1.62389 -3.58259,2.76228 -5.87612,3.16407Z" transform="translate(0, -49.2858)"></path>
    </g>
</svg>