<?xml version="1.0" encoding="UTF-8"?>
<svg width="25" height="26" version="1.1" viewBox="0 -49.2858 25.1953 25.7143" xmlns="http://www.w3.org/2000/svg" xmlns:xlink="http://www.w3.org/1999/xlink">
    <!--Generated by IJSVG (https://github.com/curthard89/IJSVG)-->
    <g fill="#000000">
        <path d="M12.8572,11.0156v4.41965h7.29912c-0.30134,1.89174 -2.20982,5.5413 -7.29912,5.5413c-4.38617,0 -7.96876,-3.63282 -7.96876,-8.11943c0,-4.48661 3.58259,-8.11943 7.96876,-8.11943c2.49442,0 4.16853,1.07143 5.12277,1.99219l3.49889,-3.36496c-2.24331,-2.09264 -5.15626,-3.36496 -8.62166,-3.36496c-7.11496,0 -12.8572,5.74219 -12.8572,12.8572c0,7.11496 5.74219,12.8572 12.8572,12.8572c7.4163,0 12.3382,-5.22322 12.3382,-12.5558c0,-0.853796 -0.083706,-1.48996 -0.200894,-2.14286Z" transform="translate(0, -49.2858)"></path>
    </g>
</svg>