<svg xmlns="http://www.w3.org/2000/svg" width="100" height="100" viewBox="0 0 100 100"><path fill="#EFC75E" d="M50 0c27.614 0 50 22.386 50 50s-22.386 50-50 50-50-22.386-50-50 22.386-50 50-50z"/><path fill="#3DB39E" d="M78 40l-27 22-30-13-19.961 11.178c4.702 22.733 24.835 39.822 48.961 39.822 27.614 0 50-22.386 50-50 0-5.354-.851-10.507-2.408-15.343l-19.592 5.343z"/><g fill="#E1BB58"><path d="M20 90.001c.655.491 1.321.969 2 1.429v-82.859c-.679.46-1.345.937-2 1.429v80.001zM78 91.43c.679-.46 1.346-.938 2-1.429v-80.001c-.654-.492-1.321-.969-2-1.429v82.859zM51 .025l-1-.025-1 .025v99.949l1 .025 1-.025v-99.949z"/></g><path fill="#3DB39E" d="M78 40l-27 22-30-13-19.961 11.178c4.702 22.733 24.835 39.822 48.961 39.822 27.614 0 50-22.386 50-50 0-5.354-.851-10.507-2.408-15.343l-19.592 5.343z"/><path fill="#39A895" d="M78 40v51.43l.159-.113c.621-.425 1.235-.861 1.836-1.312l.005-.004v-50.546l-2 .545zM49 99.975l1 .025 1-.025v-37.975l-2-.866v38.841zM20 49.56v40.439l.219.158c.526.391 1.058.772 1.6 1.143l.181.12v-41.986l-1-.434-1 .56z"/><g fill="#D8B355"><path d="M50 69c-3.866 0-7-3.134-7-7 0-1.422.426-2.742 1.154-3.846-1.899 1.252-3.154 3.401-3.154 5.846 0 3.866 3.134 7 7 7 2.445 0 4.594-1.255 5.846-3.154-1.104.727-2.424 1.154-3.846 1.154zM21 56c-3.866 0-7-3.134-7-7 0-1.421.426-2.742 1.154-3.846-1.899 1.252-3.154 3.401-3.154 5.846 0 3.866 3.134 7 7 7 2.445 0 4.594-1.255 5.846-3.154-1.104.727-2.425 1.154-3.846 1.154zM79 47c-3.866 0-7-3.134-7-7 0-1.421.427-2.742 1.154-3.846-1.899 1.252-3.154 3.401-3.154 5.846 0 3.866 3.134 7 7 7 2.445 0 4.594-1.255 5.846-3.154-1.104.728-2.424 1.154-3.846 1.154z"/></g><path fill="#37A18E" d="M14.895 52.419l-2.342 1.312c1.064 2.509 3.55 4.269 6.447 4.269 2.445 0 4.594-1.255 5.846-3.154-1.104.727-2.425 1.154-3.846 1.154-2.624 0-4.907-1.445-6.105-3.581zM53.846 67.846c-1.104.727-2.424 1.154-3.846 1.154-3.866 0-7-3.134-7-7 0-1.132.279-2.193.757-3.139l-.336-.146c-1.481 1.283-2.421 3.172-2.421 5.285 0 3.866 3.134 7 7 7 2.445 0 4.594-1.255 5.846-3.154zM73.196 43.915l-2.151 1.752c1.233 1.997 3.435 3.333 5.955 3.333 2.445 0 4.594-1.255 5.846-3.154-1.104.728-2.424 1.154-3.846 1.154-2.416 0-4.546-1.224-5.804-3.085z"/><g fill="#F2F1EF"><path d="M52.043 63.637l26.414-21.15-2.5-3.122-25.7 20.578-28.493-11.79-.53 1.281-1.187-2.192-19.443 10.531c.217 1.388.498 2.754.826 4.101l18.89-10.231-.085.205 29 12 1.015-2.451 1.793 2.24zM96.896 32.632l-19.436 5.442 1.078 3.852 19.585-5.483c-.361-1.292-.765-2.565-1.227-3.811z"/></g><path fill="#fff" d="M21 42c-3.866 0-7 3.134-7 7s3.134 7 7 7 7-3.134 7-7-3.134-7-7-7zm29 13c-3.866 0-7 3.134-7 7s3.134 7 7 7 7-3.134 7-7-3.134-7-7-7zm29-22c-3.866 0-7 3.134-7 7s3.134 7 7 7 7-3.134 7-7-3.134-7-7-7z"/><path fill="#3DB39E" d="M21 46c-1.657 0-3 1.343-3 3s1.343 3 3 3 3-1.343 3-3-1.343-3-3-3zm29 13c-1.657 0-3 1.343-3 3s1.343 3 3 3c1.656 0 3-1.343 3-3s-1.344-3-3-3zm29-22c-1.656 0-3 1.343-3 3s1.344 3 3 3 3-1.343 3-3-1.344-3-3-3z"/><g fill="#D9D8D7"><path d="M12.029 51.584c.117 1.41.651 2.699 1.479 3.748l2.546-1.379c-.946-.944-1.622-2.158-1.905-3.517l-2.12 1.148zM41.798 60.771l1.254.519c.118-1.148.497-2.219 1.102-3.135-.992.654-1.802 1.557-2.356 2.616zM72.371 42.235l-2.099 1.681c.38 1.336 1.144 2.507 2.168 3.388l2.246-1.798c-1.061-.834-1.874-1.964-2.315-3.271z"/></g><path fill="#339786" d="M20 55.927v1.997c.708-.103 1.377-.316 2-.613v-1.385c-.327.047-.66.074-1 .074s-.673-.026-1-.073zM49 70.924c.708-.103 1.377-.316 2-.613v-1.385c-.327.047-.66.074-1 .074-.34 0-.672-.032-1-.079v2.003zM78 48.923c.708-.102 1.377-.315 2-.613v-1.385c-.327.048-.66.075-1 .075s-.673-.03-1-.077v2z"/></svg>