<svg xmlns="http://www.w3.org/2000/svg" width="100" height="100" viewBox="0 0 100 100"><path fill="#E2574C" d="M50 0c27.614 0 50 22.386 50 50s-22.386 50-50 50-50-22.386-50-50 22.386-50 50-50z"/><path fill="#324D5B" d="M93.867 74.003l-9.868.005c-.004 1.653-1.345 2.992-2.999 2.992s-2.995-1.339-2.999-2.992h-53.001000000000005v1.245c.613 7.712 7.299 12.911 13.828 13.913l.22-.012c.437 0 .856.062 1.26.17l.123.01v.021c2.042.598 3.534 2.481 3.534 4.717 0 2.227-1.92 4.106-3.952 4.71l-.003.218c3.228.654 6.568 1 9.99 1 18.915 0 35.373-10.505 43.867-25.997z"/><path fill="#F4C179" d="M42.396 39.182c-.566-.982-1.821-1.318-2.803-.752l-38.45 22.2c.727 3.357 1.793 6.587 3.158 9.655l39.397-22.745c.981-.567 1.318-1.822.751-2.804l-2.053-5.554z"/><path fill="#E87970" d="M63.502 68h-5.004c-.827 0-1.498.671-1.498 1.498v.004c0 .827.671 1.498 1.498 1.498h5.004c.827 0 1.498-.671 1.498-1.498v-.004c0-.827-.671-1.498-1.498-1.498zm-4.397-3.204l4.152-2.31c.688-.383.94-1.203.564-1.834-.377-.629-1.24-.83-1.928-.447l-4.152 2.309c-.688.383-.94 1.203-.563 1.834.377.63 1.24.831 1.927.448zm-17.603 3.204h-5.004c-.827 0-1.498.671-1.498 1.498v.004c0 .827.671 1.498 1.498 1.498h5.004c.827 0 1.498-.671 1.498-1.498v-.004c0-.827-.671-1.498-1.498-1.498zm-4.76-5.514l4.152 2.31c.688.383 1.551.182 1.928-.448.376-.631.123-1.451-.564-1.834l-4.152-2.309c-.688-.383-1.551-.182-1.928.447-.376.631-.123 1.452.564 1.834zm13.258 3.514c-1.104 0-2 .896-2 2 0 1.105.896 2 2 2s2-.895 2-2c0-1.104-.896-2-2-2z"/><path fill="#2D4552" d="M45.431 88.355v-.021l-.123-.01c-5.021-2.57-13.805-1.501-15.322-14.316h-4.986v1.245c.613 7.712 7.299 12.911 13.828 13.913l.22-.012c.437 0 .856.062 1.26.17l.123.01v.021c2.042.598 3.534 2.481 3.534 4.717 0 2.227-1.92 4.106-3.952 4.71l-.003.218c2.277.462 4.612.761 6.99.901 1.139-1.786 1.965-4.371 1.965-5.829 0-2.235-1.492-5.119-3.534-5.717z"/><path fill="#DCAE6E" d="M44.449 44.736l-2.053-5.555c-.167-.289-.396-.514-.657-.684l1.566 4.239c.567.981.23 2.236-.751 2.804l-39.142 22.599c.282.724.576 1.44.89 2.146l39.396-22.745c.982-.567 1.319-1.822.751-2.804z"/><path fill="#D8AB6B" d="M35.368 40.87l-3.377 13.429 8.595-4.962-4.701-8.766z"/><g fill="#E8B873"><path d="M14.35 61.571c-.521 1.256-1.017 2.46-1.343 3.688l1.767-1.02c.269-1.019.698-2.063 1.327-3.106 1.971-3.265 1.653-6.92.906-9.662l-1.014.585c.734 3.745-.505 6.767-1.643 9.515zM10.551 55.198l-2.275 1.313c-.628 2.49-2.156 5.454-5.601 8.188l-.359.31c.295.936.61 1.862.957 2.774.695-.826 1.398-1.627 2.097-2.378 3.804-4.083 5.002-7.589 5.181-10.207zM23.802 58.836c-1.678-3.594-2.784-6.785-3.504-9.265l-1.762 1.018c.926 3.092 1.418 7.421-.985 11.405-.188.311-.348.62-.497.929l6.818-3.936-.07-.151zM12.785 60.939c1.058-2.555 2.067-5.015 1.65-7.984l-2.167 1.252c.074 3.065-1.02 7.354-5.661 12.338-.927.996-1.798 1.997-2.615 2.994l.31.746 6.767-3.907c.273-1.929.995-3.698 1.716-5.439zM35.577 52.229l2.725-1.573c-2.621-.756-5.194-3.242-6.431-6.358-.159-.4-.279-.795-.381-1.188l-1.468.848c.618 2.923 2.115 6.251 5.555 8.271zM6.063 57.79l-2.812 1.623c-.5.706-1.113 1.438-1.871 2.188.131.551.259 1.104.409 1.647 2.231-1.811 3.533-3.714 4.274-5.458zM33.446 43.67c1.187 2.989 3.868 5.375 6.233 5.535.548.037 1.065-.051 1.555-.243l.959-.554c.564-.438 1.082-1.044 1.543-1.84.325-.561.58-1.109.794-1.65l-.082-.182-1.036-2.803c-.093 1.415-.561 2.864-1.526 4.202-1.641 2.271-3.373 2.074-4.259 1.754-1.994-.718-3.634-3.481-4.137-5.935l-.462.267c.096.473.222.955.418 1.449zM38.215 46.305c.289.104 1.168.42 2.301-1.147 1.628-2.254 1.475-5.034.341-6.982-.424-.05-.865.025-1.263.254l-.149.086c.12.113.228.225.312.327.885 1.073 1.127 2.648.6 3.911-.181.43-.677.637-1.107.46-.433-.175-.634-.667-.455-1.098.29-.692.142-1.598-.351-2.2-.165-.2-.367-.354-.591-.481l-2.8 1.616c.227 2.015 1.618 4.698 3.162 5.254zM28.536 44.814l-1.159.669c.786 3.005 2.063 6.584 3.998 8.6l.336.378 2.217-1.28c-3.157-2.194-4.681-5.431-5.392-8.367zM30.146 55.254c-2.084-2.174-3.442-5.784-4.292-8.892l-1.736 1.002c.967 3.327 2.467 7.037 4.33 7.83.35.148.533.507.49.867l1.272-.734-.064-.073zM22.6 48.242l-.783.452c.698 2.475 1.805 5.751 3.52 9.423l.009.02 2.418-1.396c-2.447-1.05-4.137-5.08-5.164-8.499z"/></g><g fill="#D0A567"><path d="M11.873 63.254l-4.812 2.777-.454.514c-.927.996-1.798 1.997-2.615 2.994l.31.746 6.767-3.907c.154-1.084.446-2.118.804-3.124zM25.85 55.185l-1.443.833c.29.685.596 1.381.931 2.099l.009.02 2.418-1.396c-.701-.302-1.337-.852-1.915-1.556zM14.213 61.902c-.47 1.138-.909 2.238-1.206 3.356l1.767-1.02c.269-1.019.698-2.063 1.327-3.106l.253-.466-2.141 1.236zM23.802 58.836c-.313-.67-.602-1.322-.876-1.963l-4.175 2.41c-.276.909-.663 1.819-1.201 2.711-.188.311-.348.62-.497.929l6.818-3.936-.069-.151zM38.302 50.655c-.844-.243-1.681-.667-2.472-1.233l-2.255 1.302c.58.554 1.245 1.06 2.002 1.504l2.725-1.573zM43.737 46.568c.325-.561.58-1.109.794-1.65l-.082-.182-1.036-2.803c-.018.274-.051.548-.099.823.552.979.215 2.22-.76 2.784l-.451.26-.217.334c-1.328 1.838-2.715 2.059-3.666 1.907l-.735.424c.727.416 1.474.69 2.193.739.548.037 1.065-.051 1.555-.243l.959-.554c.566-.436 1.084-1.043 1.545-1.839zM30.146 55.254c-.492-.513-.931-1.125-1.346-1.773l-1.475.852c.357.393.731.696 1.122.862.35.148.533.507.49.867l1.272-.734-.063-.074zM32.071 51.593l-1.814 1.048c.346.533.717 1.024 1.118 1.442l.336.378 2.217-1.28c-.696-.484-1.312-1.017-1.857-1.588z"/></g><g fill="#BF9760"><path d="M39.68 49.205c.279.019.548-.003.812-.044l-.689-1.285c-.885.336-1.669.195-2.175.012-1.28-.461-2.415-1.766-3.198-3.29l-.165.655c1.368 2.206 3.489 3.822 5.415 3.952zM35.368 40.87l-.207.821c.409 1.905 1.668 4.116 3.054 4.614.137.049.411.141.778.062l-3.108-5.795-.517.298zM35.577 52.229l2.725-1.572c-1.655-.478-3.291-1.645-4.583-3.227l-.688 2.734c.699.774 1.539 1.474 2.546 2.065z"/></g><path fill="#F2F1EF" d="M51.146 16.004l18.576 32.609c.539.947.219 2.16-.716 2.707l-19.474 11.395c-.936.548-2.132.223-2.671-.725l-18.576-32.609c-.541-.948-.221-2.16.715-2.707l19.475-11.396c.935-.548 2.13-.222 2.671.726z"/><path fill="#FCFBFB" d="M52.211 17.872l-1.064-1.868c-.541-.948-1.736-1.273-2.672-.726l-19.475 11.396c-.936.547-1.256 1.759-.715 2.707l1.157 2.032 22.769-13.541zM67.021 52.482l1.986-1.162c.935-.547 1.255-1.76.716-2.707l-18.577-32.609c-.541-.948-1.736-1.273-2.672-.726l-2.496 1.46 21.043 35.744z"/><path fill="#B7915A" d="M39.68 49.205c.279.019.548-.003.812-.044l-.689-1.285c-.587.223-1.122.228-1.568.158l-.762.439c.73.423 1.482.683 2.207.732z"/><path fill="#DFDEDC" d="M69.007 51.32c.935-.547 1.255-1.76.716-2.707l-1.359-2.387-22.769 13.542 1.267 2.223c.527.927 1.682 1.252 2.608.753l1.045-.604 18.492-10.82zM30.762 25.643l-1.762 1.031c-.936.547-1.256 1.759-.715 2.707l18.576 32.609c.539.947 1.735 1.272 2.671.725l2.271-1.328-21.041-35.744z"/><path fill="#FEFEFE" d="M48.089 20.323l4.122-2.451-1.064-1.868c-.541-.948-1.736-1.273-2.672-.726l-2.496 1.46 2.11 3.585z"/><path fill="#E8E7E7" d="M69.723 48.613l-1.359-2.387-3.723 2.213 2.38 4.042 1.986-1.162c.934-.546 1.255-1.758.716-2.706z"/><path fill="#CECDCB" d="M47.217 62.433l.149.14.218.139.094.059.312.122.027.01c.47.135.989.091 1.452-.158l1.045-.604 1.288-.754-2.316-3.933-3.892 2.314 1.266 2.223c.066.117.144.225.229.321l.128.121z"/><path fill="#E8E7E7" d="M32.936 29.335l-2.173-3.692-1.763 1.031c-.936.547-1.256 1.759-.715 2.707l1.157 2.032 3.494-2.078z"/><path fill="#B7915A" d="M35.829 49.423l-2.253 1.301.047.042c.24.227.498.442.767.651l.247.186c.298.219.606.431.94.626l2.724-1.572c-.844-.245-1.681-.669-2.472-1.234zM31.991 54.299l1.937-1.118c-.497-.345-.959-.712-1.378-1.104l-.559 2.222z"/></svg>