<svg xmlns="http://www.w3.org/2000/svg" width="100" height="100" viewBox="0 0 100 100"><path fill="#CCD0D2" d="M9.628 9.627c-9.35 9.35-10.076 24.106-2.202 34.337.165-1.171.379-2.325.636-3.464-5.652-9.11-4.562-21.235 3.321-29.118 7.889-7.888 20.027-8.974 29.139-3.308 1.138-.256 2.292-.469 3.463-.633-10.233-7.89-25.001-7.17-34.357 2.186zm78.989 1.755c7.88 7.88 8.972 19.999 3.327 29.108.258 1.139.473 2.293.638 3.465 7.865-10.231 7.138-24.98-2.21-34.328-9.356-9.356-24.123-10.076-34.355-2.187 1.171.164 2.325.376 3.464.633 9.112-5.665 21.248-4.579 29.136 3.309zm3.965 44.662c-.165 1.172-.38 2.326-.638 3.466 5.645 9.109 4.553 21.227-3.327 29.106-7.888 7.888-20.023 8.975-29.136 3.312-1.139.256-2.294.469-3.465.633 10.234 7.889 25.001 7.167 34.356-2.188 9.348-9.348 10.075-24.097 2.21-34.329zm-81.199 32.572c-7.883-7.883-8.973-20.007-3.321-29.117-.257-1.139-.471-2.293-.636-3.464-7.874 10.232-7.148 24.987 2.201 34.337 9.356 9.355 24.124 10.077 34.357 2.188-1.17-.164-2.324-.378-3.462-.634-9.114 5.666-21.251 4.579-29.139-3.31z"/><path fill="#E2574C" d="M50-.009c-27.619 0-50.009 22.39-50.009 50.009s22.39 50.009 50.009 50.009 50.009-22.39 50.009-50.009-22.39-50.009-50.009-50.009zm0 74.997c-13.801 0-24.987-11.188-24.987-24.988 0-13.8 11.187-24.988 24.987-24.988s24.988 11.188 24.988 24.988c0 13.8-11.187 24.988-24.988 24.988z"/><path fill="#E4645A" d="M50 6.999c-23.748 0-43 19.252-43 43s19.252 43 43 43 43-19.252 43-43-19.252-43-43-43zm0 83c-22.092 0-40-17.908-40-40 0-22.091 17.908-40 40-40s40 17.909 40 40c0 22.092-17.908 40-40 40z"/><g fill="#D85349"><path d="M8.125 22.674l18.498 18.498c.801-2.121 1.882-4.103 3.198-5.903l-17.792-17.793c-1.41 1.644-2.715 3.379-3.904 5.198zM22.652 91.861l18.493-18.493c-2.117-.803-4.096-1.884-5.894-3.2l-17.791 17.79c1.644 1.409 3.376 2.714 5.192 3.903zM64.732 70.18c-1.8 1.316-3.782 2.397-5.902 3.198l18.496 18.496c1.819-1.188 3.554-2.494 5.198-3.903l-17.792-17.791zM87.958 17.461l-17.79 17.791c1.316 1.797 2.397 3.776 3.2 5.894l18.493-18.493c-1.189-1.817-2.494-3.549-3.903-5.192z"/></g><path fill="#D95449" d="M50 18.999c-17.121 0-31 13.879-31 31s13.879 31 31 31 31-13.879 31-31-13.879-31-31-31zm0 55.989c-13.801 0-24.987-11.188-24.987-24.988 0-13.8 11.187-24.988 24.987-24.988s24.988 11.188 24.988 24.988c0 13.8-11.187 24.988-24.988 24.988z"/><path fill="#D05046" d="M22.042 36.591l4.58 4.58c.192-.51.403-1.01.627-1.502l.048-.106c.458-.993.977-1.951 1.556-2.868l.065-.101c.286-.449.585-.89.898-1.319l.004-.006-4.291-4.291c-1.349 1.735-2.525 3.612-3.487 5.613zM74.457 30.962l-4.289 4.29c.314.43.614.871.901 1.321l.068.106c.58.918 1.101 1.876 1.56 2.869l.039.086c.226.495.438.998.632 1.51l4.578-4.579c-.962-1.997-2.138-3.87-3.489-5.603zM64.732 70.18l-.019.013c-.422.308-.854.601-1.295.882l-.122.078c-.912.575-1.863 1.092-2.85 1.546l-.127.058c-.489.223-.985.432-1.49.622l4.578 4.578c2.002-.961 3.879-2.137 5.613-3.487l-4.288-4.29zM41.146 73.368c-.511-.193-1.014-.405-1.508-.632l-.089-.04c-.992-.458-1.949-.979-2.866-1.558l-.111-.071c-.447-.285-.886-.583-1.313-.896l-.005-.004-4.289 4.288c1.732 1.351 3.606 2.527 5.604 3.489l4.577-4.576z"/><path fill="#DA5E54" d="M13.199 27.748l2.197 2.197c1.1-1.894 2.341-3.695 3.727-5.375l-2.126-2.126c-1.394 1.666-2.667 3.437-3.798 5.304zM82.991 22.428l-2.126 2.126c1.385 1.678 2.626 3.477 3.727 5.368l2.196-2.197c-1.131-1.864-2.404-3.632-3.797-5.297zM75.43 80.876c-1.68 1.386-3.481 2.627-5.375 3.727l2.197 2.197c1.867-1.132 3.638-2.403 5.305-3.797l-2.127-2.127zM29.923 84.591c-1.891-1.101-3.69-2.342-5.368-3.727l-2.126 2.126c1.665 1.393 3.433 2.666 5.297 3.797l2.197-2.196z"/><g fill="#EFEFEF"><path d="M38.388 72.125c-4.496-2.364-8.18-6.058-10.535-10.559l-18.105 18.105c2.969 4.021 6.523 7.58 10.541 10.553l18.099-18.099zM61.567 27.852c4.501 2.356 8.193 6.041 10.558 10.536l18.099-18.099c-2.973-4.018-6.532-7.572-10.553-10.541l-18.104 18.104zM9.762 20.311l18.102 18.102c2.36-4.5 6.05-8.19 10.551-10.551l-18.103-18.102c-4.02 2.971-7.579 6.53-10.55 10.551zM90.24 79.687l-18.101-18.102c-2.359 4.501-6.05 8.191-10.55 10.552l18.101 18.101c4.021-2.971 7.58-6.53 10.55-10.551z"/></g><path fill="#F1F1F1" d="M25.315 85.197l2.151-2.15c-4.139-2.827-7.719-6.41-10.542-10.553l-2.151 2.151c2.875 4.101 6.445 7.674 10.542 10.552zM85.215 74.661l-2.15-2.15c-2.826 4.142-6.408 7.725-10.551 10.551l2.15 2.15c4.101-2.877 7.674-6.45 10.551-10.551zM74.646 14.772l-2.151 2.151c4.143 2.822 7.726 6.402 10.553 10.541l2.15-2.151c-2.878-4.096-6.451-7.666-10.552-10.541zM14.786 25.335l2.151 2.151c2.826-4.142 6.409-7.725 10.551-10.55l-2.151-2.151c-4.1 2.877-7.673 6.45-10.551 10.55z"/><path fill="#E6E6E6" d="M27.863 38.412c.881-1.681 1.949-3.248 3.175-4.676l.033-.039c.81-.939 1.688-1.818 2.628-2.628l.04-.034c1.427-1.226 2.993-2.292 4.673-3.173l.001-.001-4.416-4.416c-4.316 2.606-7.944 6.234-10.551 10.55l4.417 4.417zM65.984 23.435l-4.417 4.417.004.002c1.681.88 3.247 1.945 4.676 3.169l.034.029c.939.809 1.818 1.685 2.629 2.624l.04.046c.813.947 1.559 1.954 2.225 3.016l.004.005c.335.535.651 1.083.946 1.645l4.415-4.415c-2.609-4.312-6.239-7.935-10.556-10.538zM72.139 61.585c-.881 1.681-1.947 3.247-3.173 4.675l-.036.041c-.81.939-1.688 1.817-2.627 2.627l-.039.034c-1.428 1.226-2.994 2.294-4.675 3.175l4.415 4.415c4.315-2.606 7.944-6.235 10.551-10.552l-4.416-4.415zM36.746 71.18l-.013-.008c-1.059-.665-2.064-1.408-3.009-2.221l-.051-.044c-.938-.811-1.814-1.688-2.622-2.628l-.027-.032c-1.225-1.43-2.291-2.998-3.171-4.681l-4.417 4.417c2.603 4.315 6.227 7.946 10.538 10.556l4.414-4.414c-.561-.295-1.108-.61-1.642-.945z"/></svg>