<svg xmlns="http://www.w3.org/2000/svg" width="100" height="100" viewBox="0 0 100 100"><path fill="#EFC75E" d="M50 0c27.614 0 50 22.386 50 50s-22.386 50-50 50-50-22.386-50-50 22.386-50 50-50z"/><g fill="#F2F1EF"><path d="M26 93.869v-49.869h-25.629c-.236 1.969-.371 3.968-.371 6 0 18.916 10.506 35.375 26 43.869zM74 44v49.869c15.493-8.494 26-24.953 26-43.869 0-2.032-.136-4.031-.371-6h-25.629z"/></g><g fill="#E2574C"><path d="M98.54 38h-24.54c-1.104 0-2 .896-2 2v2c0 1.104.896 2 2 2h25.629c-.244-2.04-.607-4.043-1.089-6zM26 38h-24.54c-.482 1.957-.845 3.96-1.089 6h25.629c1.104 0 2-.896 2-2v-2c0-1.104-.896-2-2-2zM77 28v-2c0-1.104-.896-2-2-2h-50c-1.104 0-2 .896-2 2v2c0 1.104.896 2 2 2h50c1.104 0 2-.896 2-2z"/></g><path fill="#F2F1EF" d="M74 30h-48v63.869c7.125 3.906 15.302 6.131 24 6.131s16.875-2.225 24-6.131v-63.869z"/><path fill="#C2C1BF" d="M36 97.999c4.444 1.294 9.138 2.001 14 2.001 4.861 0 9.556-.707 14-2.001v-17.999h-28v17.999z"/><path fill="#CFCDCB" d="M50 17c5.522 0 10 4.478 10 10 0 5.523-4.478 10-10 10s-10-4.477-10-10c0-5.522 4.478-10 10-10z"/><path fill="#CC5248" d="M60 27c0-1.045-.162-2.053-.459-3h-19.082c-.297.947-.459 1.955-.459 3s.162 2.053.459 3h19.082c.297-.947.459-1.955.459-3z"/><path fill="#D9D8D7" d="M26 30h48v3h-48z"/><path fill="#BAB8B6" d="M42.014 33h15.973c.675-.897 1.21-1.905 1.555-3h-19.083c.344 1.095.88 2.103 1.555 3z"/><path fill="#CBCAC9" d="M36 97.999c2.69.783 5.472 1.35 8.329 1.672l19.671-19.671h-28v17.999z"/><path fill="#AEADAC" d="M49 82h2v18h-2v-18z"/><path fill="#B6B5B5" d="M38 82h24v3h-24v-3z"/><path fill="#D7D6D4" d="M53 90v4h2v-4h-2zm-8 4h2v-4h-2v4z"/><path fill="#fff" d="M50 15c5.522 0 10 4.478 10 10 0 5.523-4.478 10-10 10s-10-4.477-10-10c0-5.522 4.478-10 10-10z"/><path fill="#E2574C" d="M54 23h-2v-2c0-.552-.447-1-1-1h-2c-.553 0-1 .448-1 1v2h-2c-.553 0-1 .448-1 1v2c0 .553.447 1 1 1h2v2c0 .553.447 1 1 1h2c.553 0 1-.447 1-1v-2h2c.553 0 1-.447 1-1v-2c0-.552-.447-1-1-1z"/><path fill="#4ABEE5" d="M32 53h8v-10h-8v10zm14 0h8v-10h-8v10zm14-10v10h8v-10h-8zm-28 26h8v-10h-8v10zm14 0h8v-10h-8v10zm14 0h8v-10h-8v10z"/><path fill="#6ECBEA" d="M32 53l8-10h-8v10zm0 16l8-10h-8v10zm14 0l8-10h-8v10zm14 0l8-10h-8v10zm0-26v10l8-10h-8zm-14 10l8-10h-8v10z"/><path fill="#B6B5B5" d="M51 93v-11h-2v13z"/><path fill="#D6D6D5" d="M34 97.369c1.311.442 2.643.837 4 1.171v-17.54h-4v16.369z"/><path fill="#A3A3A3" d="M49 82h2v3h-2z"/><g fill="#D9D8D7"><path d="M74 93.869c.411-.225.813-.463 1.217-.699l2.783-49.17h-4v49.869zM24.783 93.17c.404.236.806.475 1.217.699v-49.869h-4l2.783 49.17z"/></g><g fill="#4ABEE5"><path d="M82 65v7h12.904c1.102-2.244 2.044-4.581 2.804-7h-15.708zM82 51v7h17.355c.367-2.285.572-4.623.619-7h-17.974zM82 79v7h2.68c2.221-2.141 4.242-4.482 6.038-7h-8.718zM.645 58h17.355v-7h-17.975c.047 2.377.252 4.715.62 7zM18 65h-15.708c.76 2.419 1.702 4.756 2.803 7h12.905v-7zM18 79h-8.718c1.796 2.518 3.817 4.859 6.039 7h2.679v-7z"/></g><g fill="#6ECBEA"><path d="M82 51v7l17.975-6.99v-.01zM82 65v7l15.36-5.974.348-1.026h-15.708zM90.718 79h-8.718v7l4.355-1.694c1.573-1.665 3.03-3.437 4.363-5.306zM2.292 65c.573 1.822 1.256 3.595 2.025 5.321l13.683-5.321h-15.708zM.603 57.766l17.397-6.766h-17.975c.045 2.296.233 4.556.578 6.766zM18 79h-8.718c.637.893 1.295 1.77 1.988 2.617l6.73-2.617z"/></g><path fill="#FBFBFA" d="M62 98.54c1.356-.334 2.689-.729 4-1.171v-16.369h-4v17.54z"/><path fill="#D6D6D5" d="M64 97.999c.673-.196 1.339-.406 2-.63v-16.369h-2v16.999z"/><path fill="#FBFBFA" d="M36 97.999c.662.192 1.327.376 2 .541v-17.54h-2v16.999z"/><path fill="#E2574C" d="M34 78h32c1.104 0 2 .896 2 2 0 1.105-.896 2-2 2h-32c-1.104 0-2-.895-2-2 0-1.104.896-2 2-2z"/></svg>