<?xml version="1.0" encoding="UTF-8"?>
<svg width="34" height="21" version="1.1" viewBox="0 -42.8572 34.2858 21.4286" xmlns="http://www.w3.org/2000/svg" xmlns:xlink="http://www.w3.org/1999/xlink">
    <!--Generated by IJSVG (https://github.com/curthard89/IJSVG)-->
    <g fill="#000000">
        <path d="M33.2143,12.8572c0.585939,0 1.07143,0.485492 1.07143,1.07143v7.50001h-4.28572v-4.28572h-25.7143v4.28572h-4.28572v-20.3572c0,-0.585938 0.485492,-1.07143 1.07143,-1.07143h2.14286c0.585938,0 1.07143,0.485492 1.07143,1.07143v11.7857Zm-19.2857,-5.35715c1.77636e-15,2.36049 -1.92522,4.28572 -4.28572,4.28572c-2.36049,0 -4.28572,-1.92522 -4.28572,-4.28572c0,-2.36049 1.92523,-4.28572 4.28572,-4.28572c2.36049,0 4.28572,1.92523 4.28572,4.28572Zm20.3572,4.28572h-19.2857v-6.42858c0,-0.585938 0.485492,-1.07143 1.07143,-1.07143h11.7857c3.54911,0 6.42858,2.87947 6.42858,6.42858Z" transform="translate(0, -42.8572)"></path>
    </g>
</svg>