<svg width="34" height="26" viewBox="0 -49.2858 34.2858 25.7143" xmlns="http://www.w3.org/2000/svg"><path d="M17.143-32.495C17.143-31.038 16.189-30 15-30H6.429c-1.189 0-2.143-1.038-2.143-2.495 0-2.594.636-5.474 3.281-5.474.82.469 1.925 1.272 3.147 1.272 1.222 0 2.327-.803 3.148-1.272 2.645 0 3.28 2.88 3.28 5.475zM14.515-41.2c0 2.11-1.708 3.8-3.8 3.8-2.093 0-3.8-1.69-3.8-3.8 0-2.093 1.707-3.8 3.8-3.8 2.092 0 3.8 1.707 3.8 3.8zM30-32.679a.529.529 0 0 1-.536.536h-9.643a.529.529 0 0 1-.535-.536v-1.071c0-.301.234-.536.535-.536h9.643c.302 0 .536.235.536.536zm0-4.352a.6.6 0 0 1-.603.602h-9.509a.6.6 0 0 1-.602-.602v-.938a.6.6 0 0 1 .602-.603h9.51a.6.6 0 0 1 .602.603zm0-4.22a.529.529 0 0 1-.536.537h-9.643a.529.529 0 0 1-.535-.536v-1.072c0-.3.234-.535.535-.535h9.643c.302 0 .536.234.536.535zm4.286-5.356a2.686 2.686 0 0 0-2.679-2.679H2.68A2.686 2.686 0 0 0 0-46.607v20.357a2.686 2.686 0 0 0 2.679 2.679H8.57v-1.608c0-.3.235-.535.536-.535h1.072c.3 0 .535.234.535.535v1.608h12.858v-1.608c0-.3.234-.535.535-.535h1.072c.301 0 .535.234.535.535v1.608h5.893a2.686 2.686 0 0 0 2.679-2.679z"/></svg>