<svg width="26" height="26" viewBox="-0.016741 -49.336 25.7478 25.7478" xmlns="http://www.w3.org/2000/svg"><path d="M17.143-36.462a4.294 4.294 0 0 1-4.286 4.286 4.294 4.294 0 0 1-4.286-4.286 4.294 4.294 0 0 1 4.286-4.286 4.294 4.294 0 0 1 4.286 4.286zm2.31 0a6.587 6.587 0 0 0-6.596-6.596 6.587 6.587 0 0 0-6.596 6.596 6.587 6.587 0 0 0 6.596 6.596 6.587 6.587 0 0 0 6.596-6.596zm1.808-6.864c0-.854-.686-1.54-1.54-1.54s-1.54.686-1.54 1.54.686 1.54 1.54 1.54 1.54-.686 1.54-1.54zm-8.404-3.683c1.875 0 5.893-.15 7.584.519a4.11 4.11 0 0 1 1.473.971c.452.452.737.887.971 1.473.67 1.691.519 5.709.519 7.584s.15 5.893-.519 7.584a4.11 4.11 0 0 1-.97 1.473 4.11 4.11 0 0 1-1.474.97c-1.691.67-5.709.52-7.584.52s-5.893.15-7.584-.52a4.11 4.11 0 0 1-1.473-.97 4.11 4.11 0 0 1-.97-1.473c-.67-1.691-.52-5.71-.52-7.584 0-1.875-.15-5.893.52-7.584a4.11 4.11 0 0 1 .97-1.473 4.11 4.11 0 0 1 1.473-.971c1.691-.67 5.71-.519 7.584-.519zm12.857 10.547c0-1.775.017-3.532-.083-5.307-.1-2.06-.57-3.884-2.076-5.39-1.507-1.507-3.332-1.976-5.39-2.077-1.775-.1-3.533-.083-5.308-.083-1.774 0-3.532-.017-5.307.083-2.059.1-3.884.57-5.39 2.076C.653-45.653.184-43.828.084-41.769-.016-39.994 0-38.237 0-36.462c0 1.774-.017 3.532.084 5.307.1 2.059.569 3.884 2.076 5.39 1.506 1.507 3.331 1.976 5.39 2.076 1.775.1 3.533.084 5.307.084 1.775 0 3.533.017 5.307-.084 2.06-.1 3.884-.569 5.39-2.076 1.507-1.506 1.976-3.331 2.077-5.39.1-1.775.083-3.533.083-5.307z"/></svg>