<?xml version="1.0" encoding="UTF-8" standalone="no"?>
<svg width="17" height="26" version="1.1" viewBox="0 -49.2858 17.1429 25.7143" xmlns="http://www.w3.org/2000/svg" xmlns:xlink="http://www.w3.org/1999/xlink">
    <!--Generated by IJSVG (https://github.com/curthard89/IJSVG)-->
    <g fill="#000000">
        <path d="M0,25.6808c1.47322,-0.083705 2.92969,-0.334822 4.41965,-0.334822c1.13839,0 2.29353,0.016741 3.44867,0.033483c0.954242,0.016741 1.94197,0.334821 2.89621,0.334821c0.368304,0 0.719867,-0.050223 1.08817,-0.050223c0.133928,-0.552456 0.234375,-1.10491 0.267857,-1.65737c-1.03795,-0.167411 -2.07589,-0.284599 -3.0971,-0.518974l-0.016741,-0.301339c-0.066964,-0.703126 0.753349,-4.0346 0.92076,-4.83818c0.887278,-4.30246 1.95871,-8.6384 2.76228,-12.9743c0.167411,-0.954242 0.251117,-1.94197 0.619421,-2.84598c1.13839,-0.45201 2.36049,-0.636162 3.51563,-1.03795c0.133929,-0.485492 0.251116,-0.987724 0.318081,-1.48996c-1.77456,0.100447 -3.54911,0.267857 -5.32367,0.267857c-2.17634,0 -4.36942,-0.16741 -6.52903,-0.267857l-0.318081,1.72433c1.00447,0.167411 2.12612,0.033483 3.04688,0.535715v0.418528c0.050223,1.33929 -3.59934,17.7623 -3.81697,18.9007c-0.117188,0.585938 -0.30134,1.20536 -0.686385,1.69085c-1.00447,0.518974 -2.1596,0.652903 -3.23103,0.987724Z" transform="translate(0, -49.2858)"></path>
    </g>
</svg>