<svg xmlns="http://www.w3.org/2000/svg" width="100" height="100" viewBox="0 0 100 100"><path fill="#324D5B" d="M50 0c27.614 0 50 22.386 50 50s-22.386 50-50 50-50-22.386-50-50 22.386-50 50-50z"/><path fill="#2D4552" d="M66.077 34.834c-8.828-6.168-20.985-4.01-27.152 4.818-3.373 4.828-4.239 10.648-2.903 15.943l-4.43 6.331c-.937 1.339-.921 3.058-.096 4.354l-14.727 21.067c4.192 3.733 9.015 6.769 14.292 8.931l1.123-1.607s-.242-1.321-.438-2.421c-.136-.766.424-1.573 1.22-1.715l2.348-.416 1.721-2.384s-.286-1.701-.529-3.085c-.207-1.167.551-1.926 1.543-2.102 1.376-.25 3.014-.573 3.014-.573l4.251-6.083c1.489.301 3.082-.275 4.008-1.599l2.918-4.17c7.021.965 14.319-1.927 18.657-8.136 6.166-8.829 4.009-20.985-4.82-27.153z"/><path fill="#F4CA5D" d="M40.143 30.189c-5.397 5.396-7.215 12.995-5.501 19.898l-3.516 3.511c-1.156 1.154-1.44 2.848-.855 4.269l-21.058 21.036c3.268 4.604 7.293 8.627 11.897 11.894l4.878-4.874s-.007-1.343-.007-2.46c0-.776.691-1.475 1.499-1.475l2.384.001 2.11-2.045s.015-1.724.018-3.128c0-1.184.879-1.799 1.886-1.799 1.398-.006 3.066-.037 3.066-.037l5.247-5.244c1.413.557 3.081.268 4.224-.873l3.517-3.51c6.897 1.701 14.485-.117 19.876-5.506 8.191-8.19 8.191-21.469 0-29.658-8.192-8.19-21.474-8.19-29.665 0zm19.857 14.811c-2.762 0-5-2.238-5-5s2.238-5 5-5 5 2.238 5 5-2.238 5-5 5z"/><g fill="#D5B151"><path d="M64.933 35.036c-2.733-2.733-7.166-2.733-9.899 0s-2.733 7.166 0 9.899c2.733 2.734 7.166 2.734 9.899 0 2.733-2.733 2.733-7.165 0-9.899zm-4.933 8.964c-2.209 0-4-1.791-4-4s1.791-4 4-4 4 1.791 4 4-1.791 4-4 4zM12.043 82.526c.434.506.875 1.006 1.329 1.494l19.627-19.603-1.412-1.41-19.544 19.519zM39.462 67.974l-.14.138.751 3.742 2.117-2.115c-.762-.162-1.489-.531-2.081-1.12l-.647-.645zM45.917 64.68l1.693 2.991 2.322-2.317.128.027c-1.136-.255-2.598-.747-3.654-1.14l-.489.439z"/></g><g fill="#EFEFEF"><path d="M98.996 39.992c-.326-1.604-.73-3.18-1.206-4.725-4.571 5.918-11.733 9.733-19.79 9.733-.692 0-1.375-.035-2.054-.091-4.059-.331-7.843-1.627-11.121-3.665-2.213-1.375-4.176-3.103-5.855-5.079-1.389.37-2.471 1.456-2.83 2.846 1.803 2.069 3.876 3.896 6.192 5.387 3.883 2.499 8.397 4.095 13.255 4.495.796.065 1.6.107 2.413.107 8.264 0 15.714-3.462 20.996-9.008zM53 20c0-7.431 3.246-14.101 8.393-18.681-1.575-.367-3.178-.659-4.806-.874-4.712 5.157-7.587 12.02-7.587 19.555 0 1.641.143 3.246.404 4.812 1.294-.355 2.611-.585 3.94-.688-.222-1.342-.344-2.719-.344-4.124z"/></g></svg>