<?xml version="1.0" encoding="UTF-8"?>
<svg width="26" height="30" version="1.1" viewBox="0 -55.7144 25.7143 30" xmlns="http://www.w3.org/2000/svg" xmlns:xlink="http://www.w3.org/1999/xlink">
    <!--Generated by IJSVG (https://github.com/curthard89/IJSVG)-->
    <g fill="#000000">
        <path d="M10.9487,18.0469c0.033482,-0.133928 -0.15067,-0.904019 -0.251117,-0.937501c-0.100446,-0.033482 -2.09264,-0.870536 -2.37723,-1.00447c-0.234375,-0.117188 -0.803572,-0.351563 -1.07143,-0.468751c0.753349,-1.17188 1.2221,-2.05915 1.28906,-2.19308c0.117187,-0.251116 0.92076,-1.82478 0.937501,-1.90848c0.016741,-0.100447 0.033482,-0.468751 0.016741,-0.552456c-0.016741,-0.083706 -0.30134,0.083705 -0.703126,0.217634c-0.401786,0.133929 -1.15514,0.636161 -1.45648,0.686385c-0.284599,0.066964 -1.2221,0.418527 -1.70759,0.585938c-0.485492,0.167411 -1.38951,0.435268 -1.75781,0.535715c-0.368304,0.100446 -0.703126,0.117188 -0.904019,0.184152c0.016741,0.284598 0.083706,0.385045 0.083706,0.385045c0.050223,0.083705 0.251116,0.30134 0.46875,0.351563c0.234375,0.066964 0.619421,0.050223 0.786831,0c0.184152,-0.033482 0.485492,-0.184152 0.518974,-0.251116c0.033483,-0.066965 -0.016741,-0.267858 0.050224,-0.334822c0.066964,-0.050224 0.987724,-0.267858 1.32255,-0.368304c0.351563,-0.117188 1.67411,-0.569197 1.84152,-0.552456c-0.050223,0.200893 -1.10491,2.31027 -1.45648,2.94643c-0.334822,0.636161 -2.32701,3.41518 -2.74554,3.90067c-0.334822,0.385045 -1.10491,1.33929 -1.37277,1.54018c0.066965,0.033483 0.552456,-0.016741 0.636162,-0.066964c0.552456,-0.351563 1.45647,-1.48996 1.75782,-1.84152c0.870536,-1.02121 1.64063,-2.10938 2.24331,-3.03014c0.117187,0.050223 1.07143,0.837054 1.32255,1.00447c0.251116,0.167411 1.23884,0.719867 1.45647,0.820313c0.217634,0.083706 1.03795,0.468751 1.07143,0.351563Zm-3.43192,-8.13617c-0.050223,-0.217634 -0.184152,-0.284599 -0.351563,-0.284599c-0.167411,0.016742 -0.669644,0.15067 -0.92076,0.234376c-0.234375,0.066964 -0.753349,0.217634 -0.970983,0.267857c-0.217634,0.050223 -0.703126,-0.016741 -0.77009,-0.083705c-0.066965,-0.066965 0.083705,0.518974 0.284598,0.736608c0.368304,0.368304 0.669644,0.418527 0.820314,0.435268c0.334821,0 0.753349,-0.100446 1.00446,-0.200893c0.251116,-0.100447 0.669644,-0.318081 0.837055,-0.636161c0.033482,-0.066965 0.117187,-0.184152 0.066964,-0.468751Zm11.6853,2.1596l-1.27232,3.0971l2.32701,0.703126Zm-18.5491,13.3929v-17.2601l11.6183,-3.90067v17.2768Zm20.7757,-5.30693l-0.61942,-2.26005l-3.53237,-1.08817l-0.753349,1.84152l-1.70759,-0.518974l3.61608,-8.97322l1.67411,0.518974l3.03014,10.9989Zm-8.42077,-16.1049l9.59265,-3.28125v6.36162Zm5.20648,22.1485l0.719867,1.2221c-0.518973,0.284598 -1.00446,0.602679 -1.55692,0.853795c-1.90848,0.820314 -3.33148,1.08817 -5.42411,1.08817c-1.69085,0 -3.80023,-0.686385 -5.30693,-1.43973c-0.217634,-0.100446 -1.00447,-0.585938 -1.15514,-0.585938c-0.167411,0 -0.30134,0.133929 -0.30134,0.318081c0,0.117187 0.033483,0.184152 0.133929,0.267857c1.40625,1.02121 4.63728,2.0759 6.41184,2.0759h1.40625c0.485491,0 1.03795,-0.100447 1.52344,-0.200893c1.5904,-0.267858 3.26451,-0.937502 4.62054,-1.80804l0.669644,1.10491l0.904019,-2.67858Zm7.50001,-18.0636l-2.46094,-0.786831v-6.99778c0,-0.217634 -0.15067,-0.351563 -0.334822,-0.351563c-0.15067,0 -10.5636,3.59933 -10.6808,3.63282l-9.34153,-3.31474v6.42858c-1.42299,0.485491 -2.4442,0.820313 -2.49442,0.837054c-0.100446,0.033482 -0.234375,0.066965 -0.334822,0.184152c-0.033482,0.033482 -0.050223,0.117188 -0.066964,0.167411v18.0469c0,0.016741 0.016741,0.033482 0.016741,0.050223c0.050223,0.133929 0.167411,0.217634 0.30134,0.217634c0.167411,0 12.1708,-4.05134 12.4386,-4.16853c0,0 0.016741,0 12.9576,4.11831Z" transform="translate(0, -55.7144)"></path>
    </g>
</svg>