<svg width="26" height="30" viewBox="0 -55.7144 25.7143 30" xmlns="http://www.w3.org/2000/svg"><path d="M10.949-37.667c.033-.134-.151-.905-.251-.938-.1-.033-2.093-.87-2.378-1.004-.234-.118-.803-.352-1.071-.47a28.409 28.409 0 0 0 1.289-2.192c.117-.251.92-1.825.937-1.909.017-.1.034-.469.017-.552-.017-.084-.301.083-.703.217-.402.134-1.155.637-1.456.687-.285.067-1.222.418-1.708.586-.485.167-1.39.435-1.758.535-.368.1-.703.118-.904.185.017.284.084.385.084.385.05.083.251.301.469.351.234.067.62.05.786 0 .185-.033.486-.184.52-.25.033-.068-.017-.269.05-.336.067-.05.987-.268 1.322-.368.352-.117 1.674-.57 1.842-.553-.05.201-1.105 2.31-1.457 2.947-.335.636-2.327 3.415-2.745 3.9-.335.386-1.105 1.34-1.373 1.54.067.034.552-.016.636-.066.553-.352 1.457-1.49 1.758-1.842.87-1.02 1.64-2.11 2.243-3.03.117.05 1.072.837 1.323 1.005.25.167 1.239.72 1.456.82.218.084 1.038.469 1.072.351zm-3.432-8.137c-.05-.217-.184-.284-.352-.284-.167.016-.67.15-.92.234-.235.067-.754.218-.972.268-.217.05-.703-.017-.77-.084-.067-.067.084.52.285.737.368.368.67.418.82.435.335 0 .754-.1 1.005-.2.25-.101.67-.319.837-.637.033-.067.117-.184.067-.469zm11.685 2.16l-1.272 3.097 2.327.703zM.653-30.251v-17.26l11.618-3.9v17.276zm20.776-5.307l-.62-2.26-3.532-1.088-.753 1.841-1.708-.519 3.616-8.973 1.674.519 3.03 10.999zm-8.421-16.105l9.593-3.281v6.361zm5.206 22.148l.72 1.223c-.519.284-1.004.602-1.557.853-1.908.82-3.331 1.089-5.424 1.089-1.69 0-3.8-.687-5.307-1.44-.217-.1-1.004-.586-1.155-.586-.167 0-.301.134-.301.318 0 .117.033.184.134.268 1.406 1.021 4.637 2.076 6.412 2.076h1.406c.485 0 1.038-.1 1.523-.201 1.59-.268 3.265-.938 4.62-1.808l.67 1.105.904-2.679zm7.5-18.063l-2.46-.787v-6.998c0-.217-.151-.351-.335-.351-.151 0-10.564 3.6-10.681 3.633l-9.342-3.315v6.428c-1.423.486-2.444.82-2.494.837-.1.034-.234.067-.335.185-.033.033-.05.117-.067.167v18.047c0 .017.017.033.017.05.05.134.167.218.301.218.168 0 12.171-4.052 12.439-4.169 0 0 .017 0 12.957 4.119z"/></svg>