<?xml version="1.0" encoding="UTF-8"?>
<svg width="129px" height="153px" viewBox="0 0 129 153" version="1.1" xmlns="http://www.w3.org/2000/svg" xmlns:xlink="http://www.w3.org/1999/xlink">
    <!-- Generator: Sketch 43.2 (39069) - http://www.bohemiancoding.com/sketch -->
    <title>lightning</title>
    <desc>Created with Sketch.</desc>
    <defs></defs>
    <g id="Page-1" stroke="none" stroke-width="1" fill="none" fill-rule="evenodd">
        <g id="lightning" transform="translate(2.000000, 4.000000)" fill-rule="nonzero">
            <g id="flash" transform="translate(45.000000, 49.000000)" fill="#000000">
                <path d="M39.508848,19.9864828 C39.1070613,19.5864279 38.5713467,19.3197265 37.9909893,19.3197265 C37.812416,19.3197265 37.6338453,19.3641767 37.4552747,19.408627 L19.776688,23.7647825 L27.4106347,3.18422248 C27.5445627,2.91751838 27.6338507,2.65081693 27.6338507,2.38411283 C27.6338507,1.36175197 26.740992,0.517192069 25.6249173,0.517192069 L10.9820373,0.517192069 C10.0445387,0.517192069 9.24096533,1.09504786 9.01774933,1.93960776 L0.0445226667,38.611256 C-0.0894053333,39.2335621 0.0891653333,39.9003183 0.62488,40.3448234 C0.982024,40.6559778 1.51773867,40.8337787 2.00881067,40.8337787 C2.18738133,40.8337787 2.36595467,40.8337787 2.54452533,40.7893285 L20.6695387,36.2998302 L11.874872,72.2158164 C11.6516587,73.1492768 12.232016,74.0827372 13.21416,74.3938889 C13.437376,74.4383391 13.6605893,74.4827893 13.83916,74.4827893 C14.6427333,74.4827893 15.3570187,74.0382843 15.7141627,73.371528 L39.821336,21.9424314 C40.1338347,21.2756752 39.9999067,20.5200158 39.5088347,19.9866102 L39.508848,19.9864828 Z" id="Shape"></path>
            </g>
            <path d="M58.6276378,0 C63.1940248,9.55617237 71.7375876,14.1872405 79.839242,19.3328718 C90.0031356,25.8016654 100.240681,31.9764229 108.636941,40.7975051 C119.390045,52.0443849 124.692947,65.4965353 124.987552,80.9334291 C125.355809,101.589463 117.54876,118.717064 102.155617,132.316233 C93.3911002,140.108189 83.0799037,144.812766 71.442982,146.356455 C52.5145714,148.929271 36.0166571,143.78364 22.0228904,130.993071 C9.42850049,119.452155 1.84240596,105.264914 0.295726492,88.1373129 C-1.47190719,68.9514591 4.71481069,52.41193 18.0457147,38.5187256 C24.9689466,31.3148418 33.0706009,25.4341203 41.0249525,19.4063808 C46.0332479,15.5839119 51.1151947,11.8349519 55.0187191,6.68932066 C56.4180957,4.77808619 57.375564,2.57281564 58.6276378,0 Z" id="Bubble" stroke="#000000" stroke-width="3"></path>
        </g>
    </g>
</svg>