<svg width="129" height="153" viewBox="0 0 129 153" xmlns="http://www.w3.org/2000/svg"><title>lightning</title><g fill-rule="nonzero" fill="none"><path d="M86.509 72.986c-.402-.4-.938-.666-1.518-.666a2.25 2.25 0 0 0-.536.089l-17.678 4.356 7.634-20.58c.134-.267.223-.534.223-.8 0-1.023-.893-1.868-2.01-1.868H57.983c-.937 0-1.741.578-1.964 1.423L47.045 91.61c-.134.623.044 1.29.58 1.734.357.311.893.489 1.384.489.178 0 .357 0 .536-.045L67.67 89.3l-8.795 35.917c-.223.933.357 1.867 1.34 2.178.222.044.446.089.624.089.804 0 1.518-.445 1.875-1.111l24.107-51.43a1.758 1.758 0 0 0-.312-1.955z" fill="#000"/><path d="M60.628 4c4.566 9.556 13.11 14.187 21.211 19.333 10.164 6.469 20.402 12.643 28.798 21.465 10.753 11.246 16.056 24.699 16.35 40.135.369 20.656-7.438 37.784-22.831 51.383-8.765 7.792-19.076 12.497-30.713 14.04-18.928 2.573-35.426-2.572-49.42-15.363-12.594-11.54-20.18-25.728-21.727-42.856C.528 72.951 6.715 56.412 20.046 42.52c6.923-7.204 15.025-13.085 22.979-19.113 5.008-3.822 10.09-7.571 13.994-12.717 1.4-1.91 2.357-4.116 3.609-6.689z" stroke="#000" stroke-width="3"/></g></svg>