<?xml version="1.0" encoding="UTF-8"?>
<svg width="27" height="27" version="1.1" viewBox="0.267857 -52.7679 27.3215 27.3215" xmlns="http://www.w3.org/2000/svg" xmlns:xlink="http://www.w3.org/1999/xlink">
    <!--Generated by IJSVG (https://github.com/curthard89/IJSVG)-->
    <g fill="#000000">
        <path d="M24.1072,20.0893c0,0.418527 -0.167411,0.820313 -0.468751,1.12165l-2.46094,2.4442c-0.30134,0.284599 -0.719867,0.435268 -1.13839,0.435268c-0.418527,0 -0.837055,-0.150669 -1.13839,-0.452009l-3.44867,-3.46541c-0.30134,-0.30134 -0.468751,-0.719867 -0.468751,-1.13839c0,-0.502233 0.200893,-0.887278 0.552456,-1.2221c0.552456,0.552456 1.02121,1.20536 1.875,1.20536c0.887277,0 1.60714,-0.719867 1.60714,-1.60715c0,-0.853796 -0.652902,-1.32255 -1.20536,-1.875c0.334822,-0.351563 0.719867,-0.535715 1.20536,-0.535715c0.418528,0 0.837055,0.167411 1.13839,0.46875l3.48215,3.48215c0.30134,0.30134 0.468751,0.703126 0.468751,1.1384Zm-11.769,-11.8025c0,0.502233 -0.200893,0.887278 -0.552456,1.2221c-0.552456,-0.552456 -1.02121,-1.20536 -1.875,-1.20536c-0.887278,0 -1.60715,0.719867 -1.60715,1.60715c0,0.853796 0.652902,1.32255 1.20536,1.875c-0.334821,0.351563 -0.719867,0.518974 -1.20536,0.518974c-0.418527,0 -0.837055,-0.15067 -1.13839,-0.452009l-3.48215,-3.48215c-0.30134,-0.30134 -0.468751,-0.703126 -0.468751,-1.1384c0,-0.418527 0.167411,-0.820313 0.468751,-1.12165l2.46094,-2.4442c0.30134,-0.284599 0.719867,-0.45201 1.13839,-0.45201c0.418527,0 0.837055,0.167411 1.13839,0.468751l3.44867,3.46541c0.30134,0.30134 0.468751,0.719867 0.468751,1.13839Zm14.9833,11.8025c0,-1.28906 -0.485492,-2.49442 -1.40625,-3.41518l-3.48215,-3.48215c-0.904019,-0.904019 -2.14286,-1.40625 -3.41518,-1.40625c-1.32255,0 -2.56139,0.535715 -3.48215,1.47322l-1.47322,-1.47322c0.937501,-0.92076 1.47322,-2.17634 1.47322,-3.49889c0,-1.27232 -0.485491,-2.49442 -1.38951,-3.39844l-3.44867,-3.46541c-0.904019,-0.92076 -2.12612,-1.42299 -3.41518,-1.42299c-1.27232,0 -2.49442,0.485492 -3.39844,1.38951l-2.46094,2.4442c-0.904019,0.887278 -1.42299,2.12612 -1.42299,3.39844c0,1.28906 0.485492,2.49442 1.40625,3.41518l3.48215,3.48215c0.904019,0.904019 2.14286,1.40625 3.41518,1.40625c1.32255,0 2.56139,-0.535715 3.48215,-1.47322l1.47322,1.47322c-0.937501,0.92076 -1.47322,2.17634 -1.47322,3.49889c0,1.27232 0.485491,2.49442 1.38951,3.39844l3.44866,3.46541c0.904019,0.92076 2.12612,1.42299 3.41518,1.42299c1.27232,0 2.49442,-0.485492 3.39844,-1.38951l2.46094,-2.4442c0.904019,-0.887278 1.42299,-2.12612 1.42299,-3.39844Z" transform="translate(0.267857, -52.7679)"></path>
    </g>
</svg>