<svg width="27" height="27" viewBox="0.267857 -52.7679 27.3215 27.3215" xmlns="http://www.w3.org/2000/svg"><path d="M24.375-32.679c0 .419-.167.82-.469 1.122l-2.46 2.444c-.302.285-.72.436-1.139.436-.419 0-.837-.151-1.138-.452l-3.45-3.466a1.623 1.623 0 0 1-.468-1.138c0-.503.201-.888.553-1.222.552.552 1.02 1.205 1.875 1.205.887 0 1.607-.72 1.607-1.607 0-.854-.653-1.323-1.206-1.875.335-.352.72-.536 1.206-.536.418 0 .837.168 1.138.469l3.482 3.482c.302.301.47.703.47 1.138zM12.606-44.48c0 .502-.2.887-.552 1.222-.553-.552-1.022-1.205-1.875-1.205-.888 0-1.608.72-1.608 1.607 0 .854.653 1.322 1.206 1.875-.335.351-.72.519-1.206.519-.418 0-.837-.15-1.138-.452l-3.482-3.482a1.594 1.594 0 0 1 0-2.26l2.46-2.445c.302-.284.72-.452 1.14-.452.418 0 .836.168 1.138.47l3.448 3.465c.302.3.47.72.47 1.138zM27.59-32.68c0-1.289-.485-2.494-1.406-3.415l-3.482-3.482a4.841 4.841 0 0 0-3.415-1.406 4.863 4.863 0 0 0-3.482 1.473l-1.474-1.473a4.901 4.901 0 0 0 1.474-3.5 4.786 4.786 0 0 0-1.39-3.398l-3.449-3.465a4.759 4.759 0 0 0-3.415-1.423 4.786 4.786 0 0 0-3.398 1.39L1.69-48.934a4.79 4.79 0 0 0-1.423 3.398c0 1.29.485 2.495 1.406 3.415l3.482 3.483a4.841 4.841 0 0 0 3.415 1.406 4.863 4.863 0 0 0 3.483-1.473l1.473 1.473a4.901 4.901 0 0 0-1.473 3.499c0 1.272.485 2.494 1.39 3.398l3.448 3.466a4.759 4.759 0 0 0 3.415 1.423 4.786 4.786 0 0 0 3.398-1.39l2.461-2.444a4.79 4.79 0 0 0 1.423-3.399z"/></svg>