<?xml version="1.0" encoding="UTF-8"?>
<svg width="27" height="27" version="1.1" viewBox="0.452009 -53.1195 27.4052 27.4052" xmlns="http://www.w3.org/2000/svg" xmlns:xlink="http://www.w3.org/1999/xlink">
    <!--Generated by IJSVG (https://github.com/curthard89/IJSVG)-->
    <g fill="#000000">
        <path d="M19.4699,9.72657l-1.7913,-1.7913l4.90514,-4.90514l1.7913,1.7913Zm7.48327,-4.90514c0,-0.284598 -0.100447,-0.552456 -0.30134,-0.753349l-3.31474,-3.31474c-0.200893,-0.200893 -0.468751,-0.301339 -0.753349,-0.301339c-0.284599,0 -0.552456,0.100446 -0.753349,0.301339l-21.529,21.529c-0.200893,0.200893 -0.30134,0.46875 -0.30134,0.753349c0,0.284598 0.100447,0.552456 0.30134,0.753349l3.31474,3.31474c0.200893,0.200893 0.468751,0.30134 0.753349,0.30134c0.284599,0 0.552456,-0.100447 0.753349,-0.30134l21.529,-21.529c0.200893,-0.200893 0.30134,-0.46875 0.30134,-0.753349Zm-22.6172,-3.18081l-0.502233,-1.64063l-0.502232,1.64063l-1.64063,0.502233l1.64063,0.502232l0.502232,1.64063l0.502233,-1.64063l1.64063,-0.502232Zm5.85938,2.71206l-1.00447,-3.28125l-1.00447,3.28125l-3.28125,1.00446l3.28125,1.00447l1.00447,3.28125l1.00447,-3.28125l3.28125,-1.00447Zm15.5692,8.00224l-0.502233,-1.64063l-0.502232,1.64063l-1.64063,0.502233l1.64063,0.502233l0.502232,1.64063l0.502233,-1.64063l1.64063,-0.502233Zm-10.7143,-10.7143l-0.502233,-1.64063l-0.502233,1.64063l-1.64063,0.502233l1.64063,0.502232l0.502233,1.64063l0.502233,-1.64063l1.64063,-0.502232Z" transform="translate(0.452009, -53.1195)"></path>
    </g>
</svg>