<svg width="27" height="27" viewBox="0.452009 -53.1195 27.4052 27.4052" xmlns="http://www.w3.org/2000/svg"><path d="M19.922-43.393l-1.791-1.791 4.905-4.905 1.791 1.79zm7.483-4.905c0-.285-.1-.553-.301-.753l-3.315-3.315a1.05 1.05 0 0 0-.753-.301c-.285 0-.553.1-.754.3L.753-30.836c-.2.2-.3.469-.3.753 0 .285.1.553.3.754l3.315 3.314c.201.201.469.302.753.302.285 0 .553-.1.754-.302l21.529-21.529c.2-.2.301-.468.301-.753zm-22.617-3.18l-.502-1.642-.502 1.641-1.641.502 1.64.503.503 1.64.502-1.64 1.64-.503zm5.86 2.711l-1.005-3.281-1.005 3.281-3.28 1.005 3.28 1.004 1.005 3.281 1.004-3.28 3.282-1.005zm15.569 8.002l-.503-1.64-.502 1.64-1.64.503 1.64.502.502 1.64.503-1.64 1.64-.502zM15.502-51.479L15-53.119l-.502 1.64-1.64.502 1.64.503.502 1.64.502-1.64 1.64-.503z"/></svg>