<svg width="29" height="30" viewBox="0.569197 -55.7144 28.8616 30" xmlns="http://www.w3.org/2000/svg"><path d="M29.213-50.742l-2.36-2.36a1.623 1.623 0 0 0-1.139-.47h-8.571v-1.071c0-.586-.486-1.071-1.072-1.071H13.93c-.586 0-1.072.485-1.072 1.071v1.071H3.214c-.586 0-1.071.486-1.071 1.072v4.286c0 .586.485 1.071 1.071 1.071h22.5c.419 0 .837-.167 1.139-.469l2.36-2.36a.536.536 0 0 0 0-.77zM12.857-35.357v8.571c0 .586.486 1.072 1.072 1.072h2.142c.586 0 1.072-.486 1.072-1.072v-8.571zm13.929-7.5h-9.643v-3.214h-4.286v3.214H4.286c-.419 0-.837.167-1.139.469l-2.36 2.36a.536.536 0 0 0 0 .77l2.36 2.36c.302.302.72.47 1.139.47h22.5c.586 0 1.071-.486 1.071-1.072v-4.286c0-.586-.485-1.071-1.071-1.071z"/></svg>