<?xml version="1.0" encoding="UTF-8" standalone="no"?>
<svg width="29" height="30" version="1.1" viewBox="0.569197 -55.7144 28.8616 30" xmlns="http://www.w3.org/2000/svg" xmlns:xlink="http://www.w3.org/1999/xlink">
    <!--Generated by IJSVG (https://github.com/curthard89/IJSVG)-->
    <g fill="#000000">
        <path d="M28.644,4.9721l-2.36049,-2.36049c-0.30134,-0.30134 -0.719867,-0.46875 -1.13839,-0.46875h-8.57144v-1.07143c0,-0.585938 -0.485492,-1.07143 -1.07143,-1.07143h-2.14286c-0.585938,0 -1.07143,0.485492 -1.07143,1.07143v1.07143h-9.64287c-0.585939,0 -1.07143,0.485491 -1.07143,1.07143v4.28572c0,0.585938 0.485491,1.07143 1.07143,1.07143h22.5c0.418528,0 0.837055,-0.167411 1.13839,-0.468751l2.36049,-2.36049c0.217635,-0.217634 0.217635,-0.552456 0,-0.77009Zm-16.356,15.3851v8.57144c0,0.585938 0.485492,1.07143 1.07143,1.07143h2.14286c0.585938,0 1.07143,-0.485492 1.07143,-1.07143v-8.57144Zm13.9286,-7.50001h-9.64287v-3.21429h-4.28572v3.21429h-8.57144c-0.418527,0 -0.837054,0.167411 -1.13839,0.468751l-2.36049,2.36049c-0.217634,0.217635 -0.217634,0.552457 1.11022e-16,0.770091l2.36049,2.36049c0.30134,0.301339 0.719867,0.46875 1.13839,0.46875h22.5c0.585938,0 1.07143,-0.485492 1.07143,-1.07143v-4.28572c0,-0.585938 -0.485492,-1.07143 -1.07143,-1.07143Z" transform="translate(0.569197, -55.7144)"></path>
    </g>
</svg>