<?xml version="1.0" encoding="UTF-8"?>
<svg width="34" height="30" version="1.1" viewBox="0 -55.8483 34.2858 30.0837" xmlns="http://www.w3.org/2000/svg" xmlns:xlink="http://www.w3.org/1999/xlink">
    <!--Generated by IJSVG (https://github.com/curthard89/IJSVG)-->
    <g fill="#000000">
        <path d="M33.817,0.234375c-0.30134,-0.200893 -0.669644,-0.234375 -1.00447,-0.100446l-10.3125,4.11831l-10.3125,-4.11831c-0.267858,-0.117188 -0.535715,-0.117188 -0.803573,0l-10.7143,4.28572c-0.401787,0.15067 -0.669644,0.552456 -0.669644,0.987725v23.5715c0,0.351563 0.184152,0.686385 0.468751,0.887278c0.184152,0.117188 0.385045,0.184152 0.602679,0.184152c0.133929,0 0.267857,-0.016741 0.401786,-0.083705l10.3125,-4.11831l10.3125,4.11831c0.267857,0.117187 0.535715,0.117187 0.803572,0l10.7143,-4.28572c0.401786,-0.150669 0.669643,-0.552456 0.669643,-0.987724v-23.5715c0,-0.351563 -0.184152,-0.686384 -0.46875,-0.887278Zm-21.4956,2.26005l9.64287,3.85045v21.2612l-9.64287,-3.85045Zm-10.1786,3.63282l9.10715,-3.63282v21.2612l-9.10715,3.63282Zm30,17.846l-9.10715,3.63282v-21.2612l9.10715,-3.63282Z" transform="translate(0, -55.8483)"></path>
    </g>
</svg>