<svg width="30" height="26" viewBox="0 -49.2858 30 25.7143" xmlns="http://www.w3.org/2000/svg"><path d="M21.429-32.679a.529.529 0 0 1-.536.536h-3.75v3.75a.529.529 0 0 1-.536.536h-3.214a.529.529 0 0 1-.536-.536v-3.75h-3.75a.529.529 0 0 1-.536-.536v-3.214c0-.301.235-.536.536-.536h3.75v-3.75c0-.3.235-.535.536-.535h3.214c.302 0 .536.234.536.535v3.75h3.75c.301 0 .536.235.536.536zM10.714-45v-2.143h8.572V-45zm-6.428 0H3.75C1.69-45 0-43.31 0-41.25v13.929c0 2.059 1.69 3.75 3.75 3.75h.536zm19.821 0H21.43v-2.679c0-.887-.72-1.607-1.607-1.607h-9.643c-.888 0-1.608.72-1.608 1.607V-45H5.893v21.429h18.214zM30-41.25c0-2.06-1.69-3.75-3.75-3.75h-.536v21.429h.536c2.06 0 3.75-1.691 3.75-3.75z"/></svg>