<svg xmlns="http://www.w3.org/2000/svg" width="100" height="100" viewBox="0 0 100 100"><path fill="#E2574C" d="M50 0c27.614 0 50 22.386 50 50s-22.386 50-50 50-50-22.386-50-50 22.386-50 50-50z"/><path fill="#CB4E44" d="M95.828 70h-91.656c7.717 17.656 25.327 30 45.828 30s38.111-12.344 45.828-30z"/><path fill="#EDEDED" d="M22 24h56c1.104 0 2 .896 2 2v46c0 1.105-.896 2-2 2h-56c-1.104 0-2-.895-2-2v-46c0-1.104.896-2 2-2z"/><path fill="#CCD0D2" d="M33 66c-1.104 0-2 .896-2 2s.896 2 2 2 2-.896 2-2-.896-2-2-2zm7 0c-1.104 0-2 .896-2 2s.896 2 2 2 2-.896 2-2-.896-2-2-2zm7 0c-1.104 0-2 .896-2 2s.896 2 2 2 2-.896 2-2-.896-2-2-2z"/><path fill="#3DB39E" d="M26 66c1.104 0 2 .896 2 2s-.896 2-2 2-2-.896-2-2 .896-2 2-2z"/><path fill="#4681A0" d="M73 65c1.657 0 3 1.344 3 3s-1.343 3-3 3-3-1.344-3-3 1.343-3 3-3z"/><path fill="#324D5B" d="M26 28h48c1.104 0 2 .896 2 2v30c0 1.105-.896 2-2 2h-48c-1.104 0-2-.895-2-2v-30c0-1.104.896-2 2-2z"/><path fill="#3DB39E" d="M66.896 53.303c-.14.408-.534.684-.976.684h-.014c-.447-.006-.84-.295-.97-.709l-4.123-13.205-3.584 9.139c-.145.37-.502.622-.908.641-.428.015-.79-.198-.972-.55l-2.343-4.334h-5.642l-2.854 8.326c-.138.416-.571.684-.988.691-.448-.004-.843-.292-.974-.709l-4.124-13.205-3.583 9.139c-.145.37-.503.622-.909.641-.423.015-.789-.198-.971-.55l-2.343-4.282h-6.618v-1.997h7.255c.389 0 .745.132.919.469l1.58 2.882 3.821-9.744c.156-.399.533-.665.996-.643.439.016.82.299.949.707l4.046 12.958 2.073-5.989c.138-.412.533-.691.979-.691h7.024c.39 0 .745.215.919.552l1.58 2.851 3.822-9.744c.155-.401.558-.68.995-.643.44.016.821.3.948.707l4.06 13 2.062-6.008c.14-.409.533-.684.976-.684h6.996v1.997h-6.255l-2.849 8.303z"/><path fill="#CCD0D2" d="M78 72h-56c-1.104 0-2-.895-2-2v2c0 1.105.896 2 2 2h56c1.104 0 2-.895 2-2v-2c0 1.105-.896 2-2 2z"/><path fill="#2D4552" d="M26 28c-1.104 0-2 .896-2 2v30c0 1.105.896 2 2 2h24v-34h-24z"/><path fill="#37A18E" d="M32.963 49.303c.182.352.548.565.971.55.406-.02.765-.271.909-.641l3.583-9.139 4.124 13.205c.131.417.525.705.974.709.417-.008.851-.275.988-.691l2.854-8.326h2.634v-1.996h-3.382c-.445 0-.841.279-.979.691l-2.073 5.989-4.046-12.958c-.129-.408-.51-.691-.949-.707-.463-.021-.84.244-.996.643l-3.821 9.744-1.58-2.882c-.174-.337-.53-.469-.919-.469h-7.255v1.997h6.62l2.343 4.281z"/><path fill="#2D4552" d="M74 60h-48c-1.104 0-2-.895-2-2v2c0 1.105.896 2 2 2h48c1.104 0 2-.895 2-2v-2c0 1.105-.896 2-2 2z"/><path fill="#283E4A" d="M26 60c-1.104 0-2-.895-2-2v2c0 1.105.896 2 2 2h24v-2h-24z"/></svg>