<?xml version="1.0" encoding="UTF-8"?>
<svg width="34" height="24" version="1.1" viewBox="0 -47.1429 34.2858 23.5715" xmlns="http://www.w3.org/2000/svg" xmlns:xlink="http://www.w3.org/1999/xlink">
    <!--Generated by IJSVG (https://github.com/curthard89/IJSVG)-->
    <g fill="#000000">
        <path d="M17.1429,6.42858v6.42858h-6.42858v-6.42858Zm2.14286,10.7143h-10.7143v2.14286h10.7143Zm0,-12.8572h-10.7143v10.7143h10.7143Zm10.7143,12.8572h-8.57144v2.14286h8.57144Zm0,-4.28572h-8.57144v2.14286h8.57144Zm0,-4.28572h-8.57144v2.14286h8.57144Zm0,-4.28572h-8.57144v2.14286h8.57144Zm-25.7143,16.0714c0,0.585938 -0.485491,1.07143 -1.07143,1.07143c-0.585939,0 -1.07143,-0.485492 -1.07143,-1.07143v-16.0714h2.14286Zm27.8572,0c0,0.585938 -0.485491,1.07143 -1.07143,1.07143h-24.827c0.117188,-0.334822 0.184152,-0.703126 0.184152,-1.07143v-18.2143h25.7143Zm2.14286,-20.3572h-30v2.14286h-4.28572v18.2143c0,1.77455 1.43973,3.21429 3.21429,3.21429h27.8572c1.77455,0 3.21429,-1.43973 3.21429,-3.21429Z" transform="translate(0, -47.1429)"></path>
    </g>
</svg>