<svg width="34" height="24" viewBox="0 -47.1429 34.2858 23.5715" xmlns="http://www.w3.org/2000/svg"><path d="M17.143-40.714v6.428h-6.429v-6.428zM19.286-30H8.57v2.143h10.715zm0-12.857H8.57v10.714h10.715zM30-30H21.43v2.143H30zm0-4.286H21.43v2.143H30zm0-4.285H21.43v2.142H30zm0-4.286H21.43v2.143H30zM4.286-26.786c0 .586-.486 1.072-1.072 1.072a1.079 1.079 0 0 1-1.071-1.072v-16.071h2.143zm27.857 0c0 .586-.486 1.072-1.071 1.072H6.245c.117-.335.184-.703.184-1.072V-45h25.714zm2.143-20.357h-30V-45H0v18.214a3.215 3.215 0 0 0 3.214 3.214h27.858a3.215 3.215 0 0 0 3.214-3.214z"/></svg>