<svg xmlns="http://www.w3.org/2000/svg" width="100" height="100" viewBox="0 0 100 100"><path fill="#EDEDED" d="M50 0c27.614 0 50 22.386 50 50 0 27.615-22.387 50-50 50-27.615 0-50-22.385-50-50 0-27.614 22.385-50 50-50z"/><path fill="#BF392B" d="M11.33 57.835l6.694-11.574c.693-1.198 2.228-1.609 3.429-.917l49.272 28.399c1.201.692 1.611 2.225.918 3.423l-6.694 11.574c-.693 1.198-2.228 1.609-3.428.917l-49.272-28.399c-1.201-.692-1.612-2.225-.919-3.423z"/><path fill="#AC3327" d="M60 87.001h2v-18.286l-40.548-23.371c-1.201-.692-2.736-.281-3.429.917l-1.31 2.264 43.287 38.476z"/><path fill="#D6D6D6" d="M64.949 88.74l6.693-11.574c.693-1.198.283-2.73-.918-3.423l-15.823-9.12-9.66 15.651 16.28 9.383c1.201.693 2.735.281 3.428-.917z"/><path fill="#E2574C" d="M18.741 43.049l9.517-9.342c.985-.968 2.583-.968 3.569 0l40.447 39.705c.984.969.984 2.537 0 3.504l-9.518 9.342c-.985.969-2.583.969-3.568 0l-40.447-39.705c-.986-.968-.986-2.536 0-3.504z"/><path fill="#C7C7C7" d="M47.789 76.146l12.211 10.855h2v-18.286l-7.099-4.092z"/><path fill="#CB4E44" d="M58 84.001h2v-22.638l-28.173-27.656c-.985-.968-2.583-.968-3.569 0l-3.315 3.254 33.057 47.04z"/><path fill="#E0E0E0" d="M45.271 72.597l13.917 13.661c.985.969 2.583.969 3.568 0l9.518-9.342c.984-.967.984-2.535 0-3.504l-13.842-13.588-13.161 12.773z"/><path fill="#D07C40" d="M28.251 31.035l11.58-6.694c1.199-.693 2.732-.282 3.425.918l28.414 49.278c.693 1.2.282 2.736-.917 3.43l-11.58 6.693c-1.199.693-2.732.281-3.425-.919l-28.415-49.277c-.692-1.2-.281-2.735.918-3.429z"/><path fill="#BB6F39" d="M55 81h4v-28.436l-15.744-27.304c-.692-1.2-2.226-1.612-3.425-.918l-2.566 1.483 17.735 55.175z"/><path fill="#EBEBEB" d="M59.173 84.66l11.58-6.693c1.199-.693 1.61-2.229.917-3.43l-9.757-16.92-15.692 9.602 9.527 16.522c.692 1.2 2.226 1.613 3.425.919z"/><path fill="#DADADA" d="M59 81v-21.601l-9.145 5.596 5.145 16.005z"/><path fill="#F4B459" d="M41.886 22.532l13.055-3.441c1.353-.356 2.742.433 3.104 1.763l14.867 54.574c.362 1.329-.44 2.695-1.792 3.053l-13.055 3.439c-1.353.357-2.741-.432-3.104-1.762l-14.867-54.574c-.362-1.329.44-2.696 1.792-3.052z"/><path fill="#DBA250" d="M54 75.001h13v-21.278l-8.954-32.869c-.362-1.33-1.752-2.119-3.104-1.763l-4.712 1.242 3.77 54.668z"/><path fill="#EFC75E" d="M57 17h12c1.656 0 3 1.343 3 3v56c0 1.657-1.344 3-3 3h-12c-1.657 0-3-1.343-3-3v-56c0-1.656 1.343-3 3-3z"/><path fill="#F5F5F5" d="M49.954 61.774l5.008 18.384c.362 1.33 1.751 2.119 3.104 1.762l13.056-3.439c1.352-.357 2.154-1.724 1.792-3.053l-4.954-18.185-18.006 4.531z"/><path fill="#E1E1E1" d="M54 75.001h13v-17.517l-13.966 3.515z"/><path fill="#fff" d="M54 76c0 1.657 1.343 3 3 3h12c1.656 0 3-1.343 3-3v-19h-18v19z"/><path fill="#ccc" d="M57 67h4v-2h-4v2zm0 4h4v-2h-4v2zm0 4h4v-2h-4v2zm0-15v3h10v-3h-10z"/><path fill="#B0BBC0" d="M67.5 73c.828 0 1.5.672 1.5 1.5 0 .829-.672 1.5-1.5 1.5-.829 0-1.5-.671-1.5-1.5 0-.828.671-1.5 1.5-1.5z"/></svg>