<svg xmlns="http://www.w3.org/2000/svg" width="100" height="100" viewBox="0 0 100 100"><circle fill="#E2574C" cx="50" cy="50" r="50"/><path fill="#E3BD59" d="M32.43 23.783l-8.646 8.646c-2.387 2.387-2.387 6.258 0 8.645l35.141 35.141c2.387 2.388 6.258 2.388 8.645 0l8.646-8.645c2.388-2.388 2.388-6.258 0-8.646l-35.141-35.141c-2.387-2.387-6.258-2.387-8.645 0z"/><path fill="#EFC75E" d="M67.545 23.782l8.641 8.641c2.385 2.386 2.385 6.254 0 8.641l-35.122 35.12c-2.386 2.387-6.254 2.387-8.641 0l-8.64-8.64c-2.386-2.386-2.386-6.254 0-8.641l35.121-35.121c2.386-2.386 6.254-2.386 8.641 0z"/><path fill="#F1CD6E" d="M53.2 37.9l8.866 8.866c1.225 1.224 1.225 3.209 0 4.433l-10.866 10.866c-1.224 1.225-3.209 1.225-4.433 0l-8.866-8.866c-1.224-1.224-1.224-3.209 0-4.433l10.866-10.866c1.224-1.224 3.21-1.224 4.433 0z"/><path fill="#D0AC4D" d="M68.289 62.315c-.391.391-.391 1.024 0 1.415s1.023.391 1.414 0 .391-1.024 0-1.415-1.023-.39-1.414 0zm-6.004 6.004c-.391.391-.391 1.024 0 1.415s1.023.391 1.414 0 .391-1.024 0-1.415-1.023-.39-1.414 0zm0-6.004c-.391.391-.391 1.024 0 1.415s1.023.391 1.414 0 .391-1.024 0-1.415-1.023-.39-1.414 0zm3.002-3.002c-.392.391-.392 1.024 0 1.415.391.391 1.023.391 1.414 0s.391-1.024 0-1.415-1.023-.39-1.414 0zm-6.004 6.003c-.391.391-.391 1.024 0 1.415s1.023.391 1.415 0c.391-.391.391-1.024 0-1.415-.391-.39-1.024-.39-1.415 0zm-23.014-35.02c-.391.391-.391 1.023 0 1.414.391.392 1.024.392 1.415 0 .391-.391.391-1.023 0-1.414s-1.024-.391-1.415 0zm-6.004 6.004c-.391.391-.391 1.024 0 1.415s1.024.391 1.415 0 .391-1.024 0-1.415-1.024-.391-1.415 0zm6.004 0c-.391.391-.391 1.024 0 1.415s1.024.391 1.415 0 .391-1.024 0-1.415-1.024-.391-1.415 0zm3.002-3.002c-.391.391-.391 1.024 0 1.415s1.024.391 1.415 0 .391-1.024 0-1.415-1.024-.391-1.415 0zm-6.003 6.003c-.391.392-.391 1.024 0 1.415s1.024.391 1.415 0 .391-1.023 0-1.415c-.391-.391-1.025-.391-1.415 0zm16.025 3.991c-.391.39-.391 1.023 0 1.414.391.39 1.023.39 1.414 0 .391-.391.391-1.024 0-1.414-.391-.391-1.023-.391-1.414 0zm6 6c-.391.391-.391 1.023 0 1.414s1.024.391 1.415 0c.39-.391.39-1.023 0-1.414-.391-.391-1.024-.391-1.415 0zm-12.001 0c-.391.391-.391 1.023 0 1.414.39.391 1.023.391 1.414 0s.391-1.023 0-1.414-1.023-.391-1.414 0zm6.001 6.001c-.391.391-.391 1.023 0 1.414s1.023.391 1.414 0 .391-1.023 0-1.414-1.023-.391-1.414 0zm0-6.001c-.391.391-.391 1.023 0 1.414s1.023.391 1.414 0 .391-1.023 0-1.414-1.023-.391-1.414 0zm-14 8c-.391.39-.391 1.023 0 1.414s1.023.391 1.414 0 .391-1.024 0-1.414c-.391-.391-1.023-.391-1.414 0zm6 6c-.391.391-.391 1.023 0 1.414s1.024.391 1.415 0c.39-.391.39-1.023 0-1.414-.391-.391-1.024-.391-1.415 0zm-12.001 0c-.391.391-.391 1.023 0 1.414.39.391 1.023.391 1.414 0s.391-1.023 0-1.414-1.023-.391-1.414 0zm6.001 6.001c-.391.391-.391 1.023 0 1.414s1.023.391 1.414 0 .391-1.023 0-1.414-1.023-.391-1.414 0zm0-6.001c-.391.391-.391 1.023 0 1.414s1.023.391 1.414 0 .391-1.023 0-1.414-1.023-.391-1.414 0zm-3-3c-.391.391-.391 1.024 0 1.414.391.391 1.023.391 1.414 0 .391-.39.391-1.023 0-1.414s-1.023-.391-1.414 0zm6 6c-.391.391-.391 1.023 0 1.414s1.023.391 1.414 0 .391-1.023 0-1.414-1.023-.391-1.414 0zm26.414-35.586c.391-.391.391-1.024 0-1.415-.391-.39-1.023-.39-1.414 0-.391.391-.391 1.024 0 1.415s1.023.391 1.414 0zm6.001 4.586c-.391-.391-1.024-.391-1.415 0s-.391 1.023 0 1.414 1.024.391 1.415 0c.39-.391.39-1.023 0-1.414zm-12.001 0c-.391-.391-1.023-.391-1.414 0s-.391 1.023 0 1.414 1.023.391 1.414 0 .391-1.023 0-1.414zm6 6.001c-.391-.391-1.023-.391-1.414 0s-.391 1.023 0 1.414 1.023.391 1.414 0 .391-1.023 0-1.414zm0-4.587c.391-.391.391-1.023 0-1.414s-1.023-.391-1.414 0-.391 1.023 0 1.414 1.023.391 1.414 0zm-3-4.414c-.391-.391-1.023-.391-1.414 0s-.391 1.023 0 1.414 1.023.391 1.414 0 .391-1.023 0-1.414zm6 6c-.391-.391-1.023-.391-1.414 0s-.391 1.023 0 1.414 1.023.391 1.414 0 .391-1.023 0-1.414zm-15.414 7.999c-.391.391-.391 1.024 0 1.415s1.023.391 1.414 0 .391-1.024 0-1.415c-.391-.39-1.023-.39-1.414 0zm-6 6.001c-.391.39-.391 1.023 0 1.414.391.39 1.023.39 1.414 0 .391-.391.391-1.024 0-1.414-.391-.391-1.023-.391-1.414 0zm0-6.001c-.391.391-.391 1.024 0 1.415s1.023.391 1.414 0 .391-1.024 0-1.415c-.391-.39-1.023-.39-1.414 0zm6 6.001c-.391.39-.391 1.023 0 1.414.391.39 1.023.39 1.414 0 .391-.391.391-1.024 0-1.414-.391-.391-1.023-.391-1.414 0z"/><path fill="#F2D179" d="M62.066 46.767l-8.866-8.867c-1.224-1.225-3.209-1.225-4.433 0l-1 1c1.224-1.225 3.209-1.225 4.433 0l8.866 8.866c1.225 1.224 1.225 3.209 0 4.433l1-1c1.225-1.223 1.225-3.209 0-4.432z"/><path fill="#D9B963" d="M46.767 62.065l-8.866-8.866c-1.224-1.224-1.224-3.209 0-4.433l-1 1c-1.224 1.224-1.224 3.209 0 4.433l8.866 8.866c1.224 1.225 3.209 1.225 4.433 0l1-1c-1.224 1.225-3.209 1.225-4.433 0z"/><path fill="#EFC75E" d="M76.186 32.423l-8.641-8.641c-1.449-1.448-3.442-2.004-5.32-1.693 1.215.201 2.383.756 3.32 1.693l8.641 8.641c2.385 2.386 2.385 6.254 0 8.641l-35.122 35.12c-.938.938-2.105 1.493-3.32 1.694 1.878.311 3.872-.245 5.32-1.694l35.122-35.12c2.384-2.387 2.384-6.255 0-8.641z"/><path fill="#D9B455" d="M68.271 50.981l-17.289 17.289-1-1 17.289-17.289zM31.698 48.987l17.29-17.29 1 1-17.29 17.29z"/></svg>