<svg width="24" height="24" viewBox="0 -47.1429 23.5715 23.5715" xmlns="http://www.w3.org/2000/svg"><path d="M23.572-28.527c0-.117 0-.234-.05-.351-.118-.352-.938-.72-1.273-.888-.954-.535-1.925-1.054-2.863-1.607-.435-.268-.97-.77-1.49-.77-1.02 0-2.51 3.03-3.415 3.03-.452 0-1.038-.418-1.44-.653-3.047-1.69-5.156-3.8-6.847-6.847-.234-.402-.653-.987-.653-1.44 0-.903 3.03-2.393 3.03-3.415 0-.519-.502-1.054-.77-1.49-.552-.937-1.071-1.908-1.607-2.862-.167-.335-.535-1.155-.887-1.273-.117-.05-.234-.05-.352-.05-.602 0-1.774.268-2.327.52-.82.35-1.356 1.288-1.774 2.041C.318-43.594 0-42.589 0-41.468c0 1.557.636 2.964 1.155 4.387.368 1.02.82 2.008 1.39 2.93 1.758 2.845 5.19 6.277 8.035 8.035.921.57 1.909 1.021 2.93 1.39 1.423.518 2.83 1.155 4.386 1.155 1.122 0 2.126-.319 3.114-.854.753-.419 1.691-.954 2.043-1.775.25-.552.518-1.724.518-2.327z"/></svg>