<?xml version="1.0" encoding="UTF-8"?>
<svg width="24" height="24" version="1.1" viewBox="0 -47.1429 23.5715 23.5715" xmlns="http://www.w3.org/2000/svg" xmlns:xlink="http://www.w3.org/1999/xlink">
    <!--Generated by IJSVG (https://github.com/curthard89/IJSVG)-->
    <g fill="#000000">
        <path d="M23.5715,18.6161c0,-0.117187 0,-0.234375 -0.050224,-0.351563c-0.117187,-0.351563 -0.937501,-0.719867 -1.27232,-0.887277c-0.954242,-0.535715 -1.92522,-1.05469 -2.86273,-1.60714c-0.435269,-0.267858 -0.970983,-0.77009 -1.48996,-0.77009c-1.02121,0 -2.51116,3.03014 -3.41518,3.03014c-0.452009,0 -1.03795,-0.418527 -1.43973,-0.652902c-3.04688,-1.69085 -5.15626,-3.80023 -6.84711,-6.84711c-0.234375,-0.401786 -0.652903,-0.987724 -0.652903,-1.43973c0,-0.904019 3.03014,-2.39398 3.03014,-3.41518c0,-0.518974 -0.502233,-1.05469 -0.77009,-1.48996c-0.552456,-0.937502 -1.07143,-1.90848 -1.60715,-2.86273c-0.167411,-0.334822 -0.535715,-1.15514 -0.887278,-1.27232c-0.117188,-0.050223 -0.234375,-0.050223 -0.351563,-0.050223c-0.602679,0 -1.77456,0.267857 -2.32701,0.518973c-0.820313,0.351563 -1.35603,1.28907 -1.77455,2.04241c-0.535715,0.987724 -0.853796,1.99219 -0.853796,3.11384c0,1.55692 0.636161,2.96317 1.15514,4.38617c0.368304,1.02121 0.820314,2.00893 1.38951,2.92969c1.75781,2.84598 5.18974,6.27791 8.03572,8.03572c0.92076,0.569198 1.90848,1.02121 2.92969,1.38951c1.42299,0.518974 2.82924,1.15514 4.38617,1.15514c1.12165,0 2.12612,-0.31808 3.11384,-0.853795c0.753349,-0.418528 1.69085,-0.954243 2.04241,-1.77456c0.251116,-0.552456 0.518974,-1.72433 0.518974,-2.32701Z" transform="translate(0, -47.1429)"></path>
    </g>
</svg>