<svg xmlns="http://www.w3.org/2000/svg" width="100" height="100" viewBox="0 0 100 100"><path fill="#2EA9D3" d="M50 0c27.614 0 50 22.386 50 50 0 27.615-22.386 50-50 50s-50-22.386-50-50 22.386-50 50-50z"/><path fill="#2998BE" d="M14.592 33.141l51.129-13.7c1.613-.433 3.27.514 3.698 2.114l10.093 37.667c.429 1.601-.531 3.248-2.146 3.681l-51.128 13.7c-1.614.433-3.27-.514-3.698-2.114l-10.093-37.668c-.429-1.6.532-3.248 2.145-3.68zM23.038 33.013h52.933c1.67 0 3.024 1.343 3.024 3v38.996c0 1.656-1.354 3-3.024 3h-52.933c-1.671 0-3.024-1.344-3.024-3v-38.996c0-1.657 1.353-3 3.024-3z"/><path fill="#268BAE" d="M78.995 61.793v-4.498l-6.506-24.282h-49.451c-1.671 0-3.024 1.343-3.024 3v29.047l2.526 9.429c.429 1.601 2.084 2.547 3.698 2.114l51.128-13.699c.682-.183 1.237-.59 1.629-1.111z"/><path fill="#EDEDED" d="M15.592 31.141l51.129-13.7c1.613-.433 3.27.514 3.698 2.114l10.093 37.667c.429 1.601-.531 3.248-2.146 3.681l-51.128 13.7c-1.614.433-3.27-.514-3.698-2.114l-10.093-37.668c-.429-1.6.532-3.248 2.145-3.68z"/><path fill="#D5D5D5" d="M78.995 60.651v-9.089l-4.97-18.549h-50.987c-1.671 0-3.024 1.343-3.024 3v23.314l3.526 13.161c.429 1.601 2.084 2.547 3.698 2.114l51.128-13.699c.224-.059.432-.148.629-.252z"/><path fill="#4681A0" d="M19.78 34.136l44.781-11.999c1.236-.331 2.507.4 2.837 1.634l8.382 31.28c.33 1.233-.403 2.502-1.641 2.834l-44.78 11.998c-1.236.332-2.507-.4-2.838-1.634l-8.381-31.28c-.33-1.232.404-2.502 1.64-2.833z"/><path fill="#3F7490" d="M69.875 33.013h-45.903l-2.972.797c-.602.548-.986 1.328-.986 2.203v7.948l6.508 24.289c.331 1.233 1.602 1.966 2.838 1.634l44.78-11.998c1.237-.332 1.971-1.601 1.641-2.834l-5.906-22.039z"/><path fill="#F6F6F6" d="M25.038 31.013h52.933c1.67 0 3.024 1.343 3.024 3v38.996c0 1.656-1.354 3-3.024 3h-52.933c-1.671 0-3.024-1.344-3.024-3v-38.996c0-1.657 1.353-3 3.024-3z"/><path fill="#A3E0F5" d="M28.309 34.991h46.36c1.28 0 2.318 1.036 2.318 2.313v32.383c0 1.277-1.038 2.312-2.318 2.312h-46.36c-1.28 0-2.318-1.035-2.318-2.312v-32.383c-.001-1.278 1.037-2.313 2.318-2.313z"/><path fill="#3DB39E" d="M30.005 60.989c-1.389 0-2.729.116-4.015.313v8.384c0 1.277 1.038 2.312 2.318 2.312h17.482c.131-.49.219-.989.219-1.502.001-5.249-7.165-9.507-16.004-9.507z"/><path fill="#4BC2AD" d="M76.987 69.687v-12.45c-3.098-.797-6.497-1.237-10.065-1.237-14.401 0-26.077 7.164-26.077 16h33.824c1.28-.001 2.318-1.036 2.318-2.313z"/><path fill="#EFC75E" d="M25.99 37.304v11.584c.492.059.989.098 1.497.098 6.903 0 12.499-5.593 12.499-12.493 0-.509-.04-1.009-.099-1.502h-11.578c-1.281 0-2.319 1.035-2.319 2.313z"/></svg>