<svg xmlns="http://www.w3.org/2000/svg" width="100" height="100" viewBox="0 0 100 100"><path fill="#3DB39E" d="M50 0c27.614 0 50 22.386 50 50s-22.386 50-50 50-50-22.386-50-50 22.386-50 50-50z"/><path fill="#318F7E" d="M96.253 69h-92.506c7.48 18.189 25.367 31 46.253 31 20.887 0 38.773-12.811 46.253-31z"/><path fill="#EFC75E" d="M23 21c-1.657 0-3 1.343-3 3v55c0 1.656 1.343 3 3 3h65.413c7.232-8.672 11.587-19.826 11.587-32 0-10.815-3.445-20.819-9.282-29h-67.718z"/><path fill="#F2D27E" d="M97.369 66h-77.369v13c0 1.656 1.343 3 3 3h65.413c3.906-4.685 6.963-10.097 8.956-16z"/><path fill="#E5BF5A" d="M97.999 64h-77.999v2h77.369c.224-.661.434-1.327.63-2z"/><path fill="#F4F0D3" d="M32 82h8v1c0 1.656-1.343 3-3 3h-2c-1.657 0-3-1.344-3-3v-1z"/><path fill="#DCB756" d="M48 19c-11.598 0-21 9.402-21 21s9.402 21 21 21 21-9.402 21-21-9.402-21-21-21z"/><path fill="#C9A955" d="M59 52h24c2.762 0 5 2.238 5 5v9h-34v-9c0-2.762 2.238-5 5-5z"/><path fill="#F4F0D3" d="M61 71c-1.657 0-3 1.344-3 3 0 1.657 1.343 3 3 3s3-1.343 3-3c0-1.656-1.343-3-3-3zm10 0c-1.657 0-3 1.344-3 3 0 1.657 1.343 3 3 3s3-1.343 3-3c0-1.656-1.343-3-3-3zm10 0c-1.657 0-3 1.344-3 3 0 1.657 1.343 3 3 3s3-1.343 3-3c0-1.656-1.343-3-3-3z"/><path fill="#D0B46C" d="M46 66h2v16h-2v-16z"/><path fill="#F4F0D3" d="M35 70c2.209 0 4 1.791 4 4s-1.791 4-4 4-4-1.791-4-4 1.791-4 4-4z"/><path fill="#E5E3CA" d="M35 72c.553 0 1 .447 1 1s-.447 1-1 1-1-.447-1-1 .447-1 1-1z"/><path fill="#E67458" d="M27 71c.553 0 1 .447 1 1s-.447 1-1 1-1-.447-1-1 .447-1 1-1z"/><path fill="#BA9C4D" d="M83 54c1.654 0 3 1.346 3 3v7h-30v-7c0-1.654 1.346-3 3-3h24m0-2h-24c-2.762 0-5 2.238-5 5v9h34v-9c0-2.762-2.238-5-5-5z"/><path fill="#BE9E4B" d="M46 59c-11.598 0-21-9.402-21-21s9.402-21 21-21 21 9.402 21 21-9.402 21-21 21z"/><path fill="#AC8F43" d="M46 22c-8.837 0-16 7.164-16 16 0 8.837 7.163 16 16 16s16-7.163 16-16c0-8.836-7.163-16-16-16zm0 30c-7.732 0-14-6.268-14-14s6.268-14 14-14 14 6.268 14 14-6.268 14-14 14z"/><path fill="#324D5B" d="M46 25c-7.18 0-13 5.82-13 13s5.82 13 13 13 13-5.82 13-13-5.82-13-13-13z"/><path fill="#8B8F6F" d="M46.297 37.83l-1.445-18.826-7.926 3.431-6.925 5.08 15.702 10.655 1.445 18.826 7.892-3.41 6.959-5.101z"/><path fill="#416476" d="M45.314 25.035c-4.297.225-8.036 2.524-10.234 5.927l10.623 7.208.982 12.796c4.296-.225 8.036-2.524 10.234-5.927l-10.622-7.209-.983-12.795z"/><path fill="#BC9E4F" d="M65.22 52h-6.22c-2.762 0-5 2.238-5 5v3.119c4.601-1.371 8.535-4.273 11.22-8.119z"/><g fill="#BDA958"><path d="M32.598 29.276l1.655 1.124c2.364-3.647 6.376-6.113 10.985-6.361l-.153-1.992c-5.233.296-9.79 3.093-12.487 7.229zM59.402 46.724l-1.655-1.124c-2.364 3.647-6.376 6.113-10.985 6.362l.153 1.992c5.232-.297 9.79-3.094 12.487-7.23z"/></g><path fill="#BE9E4B" d="M81.15 23.151c-8.2 8.201-8.2 21.498 0 29.699 4.924 4.924 11.683 6.868 18.074 5.879.501-2.836.776-5.75.776-8.729 0-12.019-4.244-23.045-11.311-31.669-2.748 1.019-5.331 2.612-7.539 4.82z"/><path fill="#8B8F6F" d="M96.33 38.09l1.699-1.982c-1.16-4.018-2.808-7.826-4.879-11.359l2.52 13.161-12.29 14.334 7.991 3.169 8.173 1.26c.048-.359.097-.719.137-1.081l-3.351-17.502z"/><path fill="#324D5B" d="M86.808 28.808c-5.077 5.077-5.077 13.308 0 18.385 3.567 3.567 8.689 4.617 13.184 3.171l.009-.363c0-9.005-2.393-17.446-6.559-24.744-2.43.485-4.751 1.666-6.634 3.551z"/><path fill="#416476" d="M93.45 25.271l-.194.03 2.414 12.609-8.354 9.743c3.196 2.879 7.468 3.898 11.428 3.045l-2.414-12.608 1.699-1.982c-1.103-3.821-2.648-7.452-4.579-10.837z"/><path fill="#AC8F43" d="M86.101 47.899c-5.468-5.468-5.468-14.331 0-19.799 1.945-1.945 4.323-3.185 6.822-3.746-.361-.603-.738-1.195-1.124-1.782-2.604.707-5.067 2.069-7.112 4.114-6.249 6.249-6.249 16.378 0 22.627 4.115 4.116 9.912 5.503 15.177 4.196.049-.689.081-1.384.101-2.081-4.758 1.4-10.111.224-13.864-3.529z"/><path fill="#BDA958" d="M99.309 53.646l-.376-1.965c-4.251.907-8.831-.187-12.267-3.27l-1.3 1.517c3.909 3.49 9.11 4.735 13.943 3.718z"/><g fill="#D1B56D"><path d="M73.555 72.445c.277.455.445.984.445 1.555 0 1.657-1.343 3-3 3-.571 0-1.1-.168-1.555-.445.527.863 1.469 1.445 2.555 1.445 1.657 0 3-1.343 3-3 0-1.085-.582-2.027-1.445-2.555zM63.555 72.445c.277.455.445.984.445 1.555 0 1.657-1.343 3-3 3-.571 0-1.1-.168-1.555-.445.527.863 1.469 1.445 2.555 1.445 1.657 0 3-1.343 3-3 0-1.085-.582-2.027-1.445-2.555zM83.555 72.445c.277.455.445.984.445 1.555 0 1.657-1.343 3-3 3-.571 0-1.1-.168-1.555-.445.527.863 1.469 1.445 2.555 1.445 1.657 0 3-1.343 3-3 0-1.085-.582-2.027-1.445-2.555z"/></g><path fill="#324D5B" d="M74.609 60h-7.236c-3.519 0-6.975-.935-10.015-2.707l-19.358-11.293v2l19.358 11.293c3.04 1.773 6.496 2.707 10.015 2.707h7.236c3.53 0 6.997-.938 10.047-2.716l15.335-8.946.009-.338c0-.551-.023-1.096-.041-1.643l-15.303 8.927c-3.05 1.778-6.516 2.716-10.047 2.716z"/><path fill="#C3C0A9" d="M32 82v1c0 .353.072.686.184 1h7.633c.111-.314.183-.647.183-1v-1h-8z"/><path fill="#D1B56D" d="M38.28 71.72c.451.647.72 1.431.72 2.28 0 2.209-1.791 4-4 4-.849 0-1.633-.269-2.28-.72.722 1.038 1.92 1.72 3.28 1.72 2.209 0 4-1.791 4-4 0-1.36-.682-2.558-1.72-3.28z"/><path fill="#F4F0D3" d="M66 56h10c1.104 0 2 .896 2 2v2c0 1.104-.896 2-2 2h-10c-1.104 0-2-.896-2-2v-2c0-1.104.896-2 2-2zM96.735 32.223l-1.397 1.193-13.574-2.713c.742-1.446 1.711-2.805 2.923-4.016 2.046-2.046 4.508-3.412 7.112-4.115-.966-1.468-2-2.886-3.109-4.24-2.748 1.019-5.331 2.612-7.539 4.82-8.2 8.201-8.2 21.498 0 29.699 4.924 4.924 11.683 6.868 18.074 5.879.5-2.837.775-5.751.775-8.73 0-6.263-1.162-12.252-3.265-17.777zm-12.048 17.09c-3.659-3.659-5.158-8.648-4.532-13.411l13.158 4.785 4.785 13.158c-4.763.627-9.752-.872-13.411-4.532z"/><path fill="#DBD8BD" d="M97.414 36.586c-.781-.781-2.047-.781-2.828 0-.781.781-.781 2.047 0 2.828.781.781 2.047.781 2.828 0 .781-.781.781-2.047 0-2.828zM97.414 36.586c-.781-.781-2.047-.781-2.828 0-.781.781-.781 2.047 0 2.828.781.781 2.047.781 2.828 0 .781-.781.781-2.047 0-2.828z"/><g fill="#DCD8BE"><path d="M80.154 35.903l1.918.697c.19-1.905.782-3.773 1.752-5.485l-2.061-.412c-.843 1.645-1.372 3.406-1.609 5.2zM97.399 51.928l.698 1.918c.595-.078 1.183-.201 1.767-.345.048-.693.081-1.39.101-2.091-.841.251-1.698.431-2.566.518z"/></g><path fill="#AB9047" d="M56 59.413v-2.413c0-1.654 1.346-3 3-3h4.621c.57-.636 1.108-1.298 1.599-2h-6.22c-2.762 0-5 2.238-5 5v3.119c.682-.203 1.35-.437 2-.706z"/><path fill="#2F4754" d="M58.741 58.021c-.468-.226-.932-.464-1.383-.728l-19.358-11.293v2l18.876 11.012c.641-.3 1.262-.631 1.865-.991z"/><path fill="#F4F0D3" d="M46 17c-11.598 0-21 9.402-21 21s9.402 21 21 21 21-9.402 21-21-9.402-21-21-21zm-15.227 25.906c-.498-1.547-.773-3.193-.773-4.906 0-7.919 5.76-14.478 13.314-15.757l-1.024 12.984-11.517 7.679zm15.227 11.094c-5.175 0-9.763-2.468-12.688-6.278l12.688-5.921 12.688 5.921c-2.925 3.81-7.513 6.278-12.688 6.278zm15.227-11.094l-11.517-7.68-1.025-12.984c7.555 1.28 13.315 7.839 13.315 15.758 0 1.713-.275 3.359-.773 4.906z"/><path fill="#DBD8BD" d="M46 36c-1.104 0-2 .896-2 2s.896 2 2 2 2-.896 2-2-.896-2-2-2zM46 36c-1.104 0-2 .896-2 2s.896 2 2 2 2-.896 2-2-.896-2-2-2z"/><g fill="#DCD8BE"><path d="M46 22c-1.403 0-2.757.199-4.054.538.448-.117.905-.216 1.368-.295l-.162 2.048c.92-.19 1.872-.291 2.848-.291s1.928.101 2.846.291l-.161-2.048c.462.078.916.177 1.363.294-1.295-.339-2.647-.537-4.048-.537zM59.479 41.741c-.525 1.896-1.429 3.636-2.642 5.117l1.85.863c1.102-1.435 1.972-3.055 2.539-4.815l-1.747-1.165zM35.162 46.858c-1.212-1.481-2.115-3.221-2.641-5.117l-1.748 1.165c.567 1.761 1.438 3.38 2.539 4.815l1.85-.863z"/></g></svg>