<?xml version="1.0" encoding="UTF-8" standalone="no"?>
<svg width="30" height="30" version="1.1" viewBox="0 -56.1161 30.2009 30.2009" xmlns="http://www.w3.org/2000/svg" xmlns:xlink="http://www.w3.org/1999/xlink">
    <!--Generated by IJSVG (https://github.com/curthard89/IJSVG)-->
    <g fill="#000000">
        <path d="M29.3806,7.78461c-0.837054,-0.837054 -2.19308,-0.837054 -3.03014,0l-6.71318,6.69644l-3.91742,-3.91742l6.69644,-6.71318c0.837055,-0.820314 0.837055,-2.19308 0,-3.03014c-0.837054,-0.820313 -2.19308,-0.820313 -3.03014,0l-6.69644,6.71318l-2.51116,-2.51116l-2.67858,2.67858c-3.6663,3.6663 -4.18527,9.25782 -1.43973,13.4096l-6.06027,6.06028v3.03014h3.03014l6.06027,-6.06028c4.15179,2.74554 9.74332,2.22657 13.4096,-1.43973l2.67857,-2.67857l-2.51116,-2.51116l6.71318,-6.69644c0.820314,-0.837055 0.820314,-2.19308 0,-3.03014Z" transform="translate(0, -56.1161)"></path>
    </g>
</svg>