<svg xmlns="http://www.w3.org/2000/svg" width="100" height="100" viewBox="0 0 100 100"><path fill="#91D8F0" d="M50 0c-27.614 0-50 22.386-50 50 0 27.615 22.386 50 50 50s50-22.385 50-50c0-27.614-22.386-50-50-50z"/><path fill="#82C2D8" d="M73 54h-48c-1.657 0-2.979 1.979-5 4 0 0-3 3.314-3 3.998 0 .725 3 4.002 3 4.002 2.002 2.002 3.343 4 5 4h48c1.657 0 3-1.344 3-3v-10c0-1.657-1.343-3-3-3zM25 33h48c1.657 0 2.979 1.979 5 4 0 0 3 3.315 3 3.999 0 .724-3 4.001-3 4.001-2.002 2.002-3.343 4-5 4h-48c-1.657 0-3-1.344-3-3v-10c0-1.657 1.343-3 3-3z"/><path fill="#3DB39E" d="M86.376 84.285c-10.093-2.056-22.689-3.285-36.376-3.285-13.687 0-26.283 1.229-36.375 3.285 9.117 9.67 22.036 15.715 36.375 15.715s27.258-6.045 36.376-15.715z"/><path fill="#AC5C32" d="M58 26c0-1.657-1.343-3-3-3h-10c-1.657 0-3 1.343-3 3v73.356c2.605.419 5.276.645 8 .645s5.395-.226 8-.645v-73.356z"/><g fill="#B26841"><path d="M47.945 23h-1.349l.408 1.155c1.08 2.971 3.608 7.788 6.054 12.448 1.561 2.975 3.564 6.794 4.941 9.8v-2.964c-1.006-2.041-2.271-4.484-3.817-7.43-2.425-4.622-4.933-9.401-5.983-12.291l-.254-.718zM58 37.749c-2.279-4.924-4.418-10.079-6.275-14.749h-1.357c2.481 6.241 5.042 12.348 7.632 17.755v-3.006zM58 60.682c-3.097-2.4-5.802-4.051-7.523-4.422-.817-.176-1.455-.076-1.897.295-.707.594-1.054 1.457-1.003 2.494.161 3.275 4.326 8.457 10.424 13.154v-1.631c-5.271-4.236-9.021-8.881-9.154-11.586-.031-.642.148-1.117.551-1.455.044-.038.233-.15.813-.025 1.648.355 4.496 2.145 7.79 4.758v-1.582zM53.084 81.58c1.157.225 2.422 1.92 3.867 5.18.314.711.664 1.604 1.049 2.64v-3.397c-1.645-3.646-3.051-5.357-4.675-5.674-1.603-.309-3.104.775-5.011 2.629-2.114 2.055-.115 9.178 3.486 16.997.454-.016.907-.035 1.358-.063-3.59-7.703-5.545-14.479-3.96-16.018 1.569-1.526 2.828-2.501 3.886-2.294zM55.81 64.891c-.158.314-.033.697.28.857.629.318 1.268.701 1.91 1.108v-1.506c-.447-.266-.893-.514-1.336-.739-.312-.16-.695-.034-.854.28zM51.884 87.025c.125-.305.225-.359.223-.359h.008c.257 0 1.349.838 3.15 4.643 1.298 2.741 2.246 5.508 2.328 6.209.028.243.193.431.407.514v-3.477c-1.288-3.514-3.775-8.883-5.709-9.15-.394-.057-1.123.02-1.581 1.134-.784 1.905 1.581 7.499 4.491 13.192.454-.047.901-.112 1.352-.172-3.033-5.873-5.266-11.083-4.669-12.534zM42 88.094v5.783c.51 1.938 1.117 3.844 1.812 5.729.472.058.943.117 1.42.162-1.44-3.776-2.455-7.672-3.232-11.674zM55.229 75.74c.884.832 1.817 1.713 2.771 2.62v-1.756l-1.901-1.794c-2.86-2.691-5.331-5.018-7.103-6.975-2.739-3.025-4.92-6.859-6.996-11.254v2.895c1.791 3.52 3.719 6.635 6.056 9.217 1.805 1.995 4.293 4.336 7.173 7.047zM56.323 23.32c-.376-.186-.792-.298-1.236-.312-.556 1.607-.471 4.266 1.194 8.668.493 1.307 1.075 2.769 1.719 4.292v-3.379c-.178-.454-.354-.898-.531-1.365-1.38-3.65-1.76-6.366-1.146-7.904zM45.437 80.803c.904-2.84 2.205-4.41 3.866-4.672 2.342-.367 5.485 1.865 8.403 5.971l.294.466v-2.177c-3.038-3.918-6.238-5.932-8.894-5.518-2.175.34-3.817 2.205-4.881 5.542-1.384 4.344.957 11.949 4.403 19.55.458.013.912.035 1.372.035l.047-.001c-3.485-7.525-5.923-15.075-4.61-19.196zM42 29.475v1.861c4.463 4.686 5.543 4.679 6.233 4.212.743-.503 1.173-1.605-2.369-8.897-.599-1.232-1.123-2.402-1.618-3.543-.423.11-.806.311-1.135.579.493 1.134 1.015 2.296 1.61 3.522 2.502 5.151 2.765 6.744 2.748 7.21-.433-.15-1.776-.955-5.469-4.944zM58 55.324c-5.201-3.898-10.691-8.234-16-14.068v1.871c5.34 5.676 10.825 9.928 16 13.788v-1.591zM58 50.322c-3.953-2.369-9.881-8.833-16-15.816v1.929c6.141 6.97 12.035 13.27 16 15.356v-1.469z"/></g><path fill="#9A532D" d="M42 26v73.356c.991.159 1.99.295 3 .395v-73.751c0-1.657 1.343-3 3-3h-3c-1.657 0-3 1.343-3 3zM42 54h16v16h-16z"/><g fill="#9E5A36"><path d="M42 36.435c1.01 1.146 2.011 2.271 3 3.364v-1.902c-.99-1.106-1.992-2.24-3-3.391v1.929zM42 29.475v1.861c1.244 1.306 2.217 2.237 3 2.905v-1.711c-.769-.72-1.746-1.701-3-3.055zM47.945 23h-1.349l.108.305c.378-.183.796-.292 1.243-.3l-.002-.005zM43.646 23.336l-.007.004c-.188.097-.364.213-.527.346h-.001c.493 1.134 1.015 2.296 1.61 3.522l.278.581v-1.789c0-.308.06-.599.146-.879-.313-.684-.614-1.356-.9-2.014-.209.055-.41.132-.599.229zM42 43.126c.996 1.059 1.997 2.053 3 3.019v-1.777c-1.004-.995-2.006-2.02-3-3.112v1.87zM42 59.477c.946 1.86 1.937 3.598 3 5.213v-2.394c-1.052-1.771-2.039-3.679-3-5.714v2.895zM45 90.396v-11.921c-.283.582-.545 1.22-.774 1.94-.788 2.472-.368 5.999.774 9.981zM42 93.877c.508 1.934 1.115 3.836 1.809 5.717.397.05.79.117 1.191.156v-.635c-1.312-3.573-2.268-7.249-3-11.021v5.783z"/></g><path fill="#9A532D" d="M42 33h16v16h-16z"/><g fill="#9E5A36"><path d="M42 41.256v1.871c2.016 2.143 4.052 4.082 6.084 5.874h1.938c-2.68-2.297-5.374-4.834-8.022-7.745zM53.059 36.603c1.561 2.975 3.564 6.794 4.941 9.8v-2.964c-1.006-2.041-2.271-4.484-3.817-7.43-.526-1.003-1.055-2.012-1.573-3.01h-1.434c.616 1.189 1.252 2.401 1.883 3.604zM48.233 35.547c.429-.29.748-.787.267-2.547h-1.32c.251.808.297 1.219.29 1.419-.251-.086-.812-.398-1.956-1.419h-1.869c3.101 3.003 3.993 2.95 4.588 2.547zM58 37.749c-.726-1.567-1.43-3.158-2.123-4.749h-1.384c1.16 2.692 2.33 5.299 3.507 7.755v-3.006zM56.792 33c.37.944.773 1.94 1.208 2.969v-2.969h-1.208zM42 34.506v1.929c4.364 4.954 8.601 9.56 12.111 12.565h2.001c-3.833-2.985-8.9-8.546-14.112-14.494z"/></g><path fill="#8A4B28" d="M42 33h3v16h-3z"/><g fill="#9E5A36"><path d="M58 56.914v-1.59c-.58-.435-1.165-.877-1.751-1.324h-2.09c1.294 1.004 2.577 1.972 3.841 2.914zM48.996 67.836c-2.739-3.025-4.92-6.859-6.996-11.254v2.895c1.791 3.52 3.719 6.635 6.056 9.217.379.419.795.856 1.232 1.307h1.788c-.767-.766-1.468-1.489-2.08-2.165zM48.846 58.986c-.031-.642.148-1.117.551-1.455.044-.038.233-.15.813-.025 1.648.355 4.496 2.145 7.79 4.758v-1.582c-3.097-2.4-5.802-4.051-7.523-4.422-.817-.176-1.455-.076-1.897.295-.707.594-1.054 1.457-1.003 2.494.136 2.77 3.142 6.901 7.75 10.951h1.979c-4.902-4.077-8.333-8.43-8.46-11.014zM55.81 64.891c-.158.314-.033.697.28.857.629.318 1.268.701 1.91 1.108v-1.506c-.447-.266-.893-.514-1.336-.739-.312-.16-.695-.034-.854.28z"/></g><path fill="#EDEDED" d="M26 32h48c1.657 0 2.979 1.979 5 4 0 0 3 3.315 3 3.999 0 .724-3 4.001-3 4.001-2.002 2.002-3.343 4-5 4h-48c-1.657 0-3-1.344-3-3v-10c0-1.657 1.343-3 3-3z"/><path fill="#4681A0" d="M40 37c-1.657 0-3 1.343-3 3s1.343 3 3 3 3-1.343 3-3-1.343-3-3-3zm10 0c-1.657 0-3 1.343-3 3s1.343 3 3 3 3-1.343 3-3-1.343-3-3-3zm10 0c-1.657 0-3 1.343-3 3s1.343 3 3 3 3-1.343 3-3-1.343-3-3-3z"/><path fill="#8A4B28" d="M42 54h3v16h-3z"/><path fill="#EDEDED" d="M74 53h-48c-1.657 0-2.979 1.979-5 4 0 0-3 3.314-3 3.998 0 .725 3 4.002 3 4.002 2.002 2.002 3.343 4 5 4h48c1.657 0 3-1.344 3-3v-10c0-1.657-1.343-3-3-3z"/><path fill="#9FA8AC" d="M40 58c-1.657 0-3 1.343-3 3 0 1.656 1.343 3 3 3s3-1.344 3-3c0-1.657-1.343-3-3-3zm10 0c-1.657 0-3 1.343-3 3 0 1.656 1.343 3 3 3s3-1.344 3-3c0-1.657-1.343-3-3-3zm10 0c-1.657 0-3 1.343-3 3 0 1.656 1.343 3 3 3s3-1.344 3-3c0-1.657-1.343-3-3-3z"/></svg>