<svg xmlns="http://www.w3.org/2000/svg" width="100" height="100" viewBox="0 0 100 100"><path fill="#EFC75E" d="M50 0c27.614 0 50 22.386 50 50 0 27.615-22.386 50-50 50s-50-22.385-50-50c0-27.614 22.386-50 50-50z"/><path fill="#FDF0DE" d="M24 27h52c5.523 0 10 4.477 10 10v53c0 5.522-4.477 10-10 10h-52c-5.523 0-10-4.478-10-10v-53c0-5.523 4.477-10 10-10z"/><path fill="#324D5B" d="M14 90c0 5.522 4.477 10 10 10h52c5.523 0 10-4.478 10-10v-10h-72v10z"/><path fill="#2B414D" d="M27.5 87h45c1.381 0 2.5 1.119 2.5 2.5s-1.119 2.5-2.5 2.5h-45c-1.38 0-2.5-1.119-2.5-2.5s1.12-2.5 2.5-2.5z"/><path fill="#E49ADF" d="M41 60h6v20h-6v-20z"/><path fill="#E5C45A" d="M47 60h6v20h-6v-20z"/><path fill="#A6D26E" d="M53 60h6v20h-6v-20z"/><path fill="#2B414D" d="M50 40c7.732 0 14 6.268 14 14 0 7.731-6.268 14-14 14s-14-6.269-14-14c0-7.733 6.268-14 14-14z"/><path fill="#475F6C" d="M50 43c6.075 0 11 4.925 11 11s-4.925 11-11 11-11-4.925-11-11 4.925-11 11-11z"/><path fill="#2B414D" d="M50 46c4.418 0 8 3.582 8 8s-3.582 8-8 8-8-3.582-8-8 3.582-8 8-8z"/><path fill="#1E2D36" d="M50 50c2.209 0 4 1.791 4 4s-1.791 4-4 4-4-1.791-4-4 1.791-4 4-4z"/><path fill="#545F66" d="M48.5 51c.829 0 1.5.672 1.5 1.5s-.671 1.5-1.5 1.5-1.5-.672-1.5-1.5.671-1.5 1.5-1.5z"/><path fill="#3F5E6D" d="M72 40h4c1.104 0 2 .896 2 2v4c0 1.104-.896 2-2 2h-4c-1.104 0-2-.896-2-2v-4c0-1.104.896-2 2-2z"/><path fill="#E2574C" d="M26.5 49c1.933 0 3.5 1.566 3.5 3.5 0 1.933-1.567 3.5-3.5 3.5s-3.5-1.567-3.5-3.5c0-1.934 1.567-3.5 3.5-3.5z"/><path fill="#D2BB9A" d="M24 40h5c1.104 0 2 .896 2 2v1c0 1.104-.896 2-2 2h-5c-1.104 0-2-.896-2-2v-1c0-1.104.896-2 2-2z"/><path fill="#FEF6EB" d="M14 74h72v6h-72v-6z"/><path fill="#EFC2EC" d="M41 74h6v6h-6z"/><path fill="#EFDC9C" d="M47 74h6v6h-6z"/><path fill="#CAE4A8" d="M53 74h6v6h-6z"/><path fill="#F4D9B2" d="M76 27h-52c-5.523 0-10 4.477-10 10v5c0-5.523 4.477-10 10-10h52c5.523 0 10 4.477 10 10v-5c0-5.523-4.477-10-10-10z"/></svg>