<svg xmlns="http://www.w3.org/2000/svg" width="100" height="100" viewBox="0 0 100 100"><path fill="#3DB39E" d="M50 0c27.614 0 50 22.386 50 50s-22.386 50-50 50-50-22.386-50-50 22.386-50 50-50z"/><path fill="#37A18E" d="M48 25h25c1.104 0 2 .896 2 2v49c0 1.104-.896 2-2 2h-25c-1.104 0-2-.896-2-2v-49c0-1.104.896-2 2-2zM18 32h45c1.104 0 2 .896 2 2v38c0 1.104-.896 2-2 2h-45c-1.104 0-2-.896-2-2v-38c0-1.104.896-2 2-2z"/><path fill="#E6E5E3" d="M20 30h45c1.104 0 2 .896 2 2v38c0 1.104-.896 2-2 2h-45c-1.104 0-2-.896-2-2v-38c0-1.104.896-2 2-2z"/><path fill="#CFCECC" d="M65 30h-19v42h19c1.104 0 2-.896 2-2v-38c0-1.104-.896-2-2-2z"/><path fill="#C6C5C3" d="M23.5 32c-.828 0-1.5.672-1.5 1.5s.672 1.5 1.5 1.5 1.5-.672 1.5-1.5-.672-1.5-1.5-1.5zm5 0c-.828 0-1.5.672-1.5 1.5s.672 1.5 1.5 1.5 1.5-.672 1.5-1.5-.672-1.5-1.5-1.5zm5 0c-.828 0-1.5.672-1.5 1.5s.672 1.5 1.5 1.5 1.5-.672 1.5-1.5-.672-1.5-1.5-1.5z"/><path fill="#324D5B" d="M22 37h36v31h-36v-31z"/><path fill="#91D8F0" d="M25 40h10v25h-10v-25z"/><path fill="#2D4552" d="M46 37h12v31h-12z"/><path fill="#EFC75E" d="M38 40h10v25h-10v-25z"/><path fill="#D7B354" d="M46 40h2v25h-2z"/><path fill="#F2F1EF" d="M50 23h25c1.104 0 2 .896 2 2v49c0 1.104-.896 2-2 2h-25c-1.104 0-2-.896-2-2v-49c0-1.104.896-2 2-2z"/><path fill="#CECDCB" d="M63 70c-1.104 0-2 .896-2 2s.896 2 2 2 2-.896 2-2-.896-2-2-2zm3-44h-6c-.553 0-1 .447-1 1s.447 1 1 1h6c.553 0 1-.447 1-1s-.447-1-1-1z"/><path fill="#324D5B" d="M50 31h25v37h-25v-37z"/><path fill="#EFC75E" d="M53 51h19v14h-19v-14z"/><path fill="#91D8F0" d="M53 34h19v14h-19v-14z"/></svg>