<?xml version="1.0" encoding="UTF-8"?>
<svg width="32" height="19" version="1.1" viewBox="0 -38.5715 32.1429 19.2857" xmlns="http://www.w3.org/2000/svg" xmlns:xlink="http://www.w3.org/1999/xlink">
    <!--Generated by IJSVG (https://github.com/curthard89/IJSVG)-->
    <g fill="#000000">
        <path d="M21.4286,18.75c0,-0.117188 -0.050223,-0.251117 -0.117188,-0.351563l-2.67857,-3.21429c-0.100447,-0.117187 -0.267858,-0.184152 -0.418528,-0.184152h-9.64287v-6.42858h3.21429c0.585939,0 1.07143,-0.485491 1.07143,-1.07143c0,-0.251116 -0.083705,-0.502232 -0.251116,-0.686384l-5.35715,-6.42858c-0.200894,-0.234376 -0.502233,-0.368304 -0.820314,-0.368304c-0.318081,0 -0.61942,0.133928 -0.820313,0.368304l-5.35715,6.42858c-0.167411,0.184152 -0.251116,0.435268 -0.251116,0.686384c0,0.585939 0.485492,1.07143 1.07143,1.07143h3.21429v6.96429v2.67857c0,0.418527 -0.083705,1.07143 0.535715,1.07143h16.0714c0.284599,0 0.535715,-0.251117 0.535715,-0.535715Zm10.7143,-6.96429c0,-0.585938 -0.485491,-1.07143 -1.07143,-1.07143h-3.21429v-6.96429v-2.67858c0,-0.418527 0.083706,-1.07143 -0.535715,-1.07143h-16.0714c-0.284598,0 -0.535715,0.251117 -0.535715,0.535715c0,0.117188 0.050224,0.251117 0.117188,0.334822l2.67858,3.21429c0.100446,0.133928 0.267857,0.200893 0.418527,0.200893h9.64287v6.42858h-3.21429c-0.585938,0 -1.07143,0.485492 -1.07143,1.07143c0,0.251116 0.083706,0.502233 0.251117,0.686385l5.35715,6.42858c0.200893,0.234375 0.502233,0.385045 0.820313,0.385045c0.318081,0 0.619421,-0.15067 0.820314,-0.385045l5.35715,-6.42858c0.167411,-0.184152 0.251116,-0.435269 0.251116,-0.686385Z" transform="translate(0, -38.5715)"></path>
    </g>
</svg>