<svg xmlns="http://www.w3.org/2000/svg" width="100" height="100" viewBox="0 0 100 100"><path fill="#324D5B" d="M50 0c-27.614 0-50 22.386-50 50 0 27.615 22.386 50 50 50 27.613 0 50-22.385 50-50 0-27.614-22.387-50-50-50z"/><path fill="#EFC75E" d="M53.994 46.979c2.656 2.66 2.656 6.975 0 9.635-2.656 2.662-10.396 6.104-13.052 3.442s.779-10.417 3.435-13.077c2.656-2.662 6.961-2.662 9.617 0z"/><path fill="#DEB957" d="M46.012 45.77l-.012.23c0 4.97 4.03 9 9 9l.193-.01c1.365-2.575.967-5.843-1.199-8.012-2.162-2.165-5.414-2.568-7.982-1.208z"/><path fill="#26A6D1" d="M1.466 62.026c4.755 19.253 20.659 34.104 40.474 37.317-1.121-20.812-18.348-37.343-39.44-37.343-.347 0-.689.018-1.034.026z"/><g fill="#1795BF"><path d="M12.394 82.932c3.166-.437 5.606-3.146 5.606-6.432 0-3.591-2.91-6.5-6.5-6.5-2.457 0-4.595 1.364-5.7 3.376 1.826 3.445 4.045 6.647 6.594 9.556z"/><circle cx="29" cy="84" r="4"/></g><path fill="#EFC75E" d="M15.001 6.002c-.6 5.398-3.6 8.399-9 9 5.4.6 8.4 3.601 9 9 .6-5.399 3.601-8.4 9.001-9-5.4-.601-8.401-3.602-9.001-9zm56.999 68c-.467 4.198-2.799 6.532-7 7 4.201.466 6.533 2.8 7 7 .467-4.2 2.801-6.534 7.002-7-4.201-.468-6.535-2.802-7.002-7z"/><path fill="#5B717C" d="M89 45.001c-.332 2.999-2 4.667-5 5.001 3 .332 4.668 2 5 4.999.334-2.999 2-4.667 5-4.999-3-.334-4.666-2.002-5-5.001zm-70-2.001c-.267 2.399-1.6 3.734-4 4 2.4.267 3.733 1.601 4 4 .267-2.398 1.6-3.732 4-4-2.399-.266-3.733-1.601-4-4zm28 28c-.333 3-2 4.668-5 5.001 3 .333 4.667 2.001 5 5 .333-2.999 2-4.667 5-5-3-.333-4.666-2.001-5-5.001z"/><path fill="#F26C4F" d="M67.957 32.042c8.143 8.144 9.773 19.717 2.035 27.456l-3.654 3.655c-7.738 7.737-2.379-10.825-10.523-18.969-8.143-8.144-26.706-2.785-18.967-10.523l3.655-3.655c7.738-7.737 19.309-6.107 27.454 2.036z"/><path fill="#F4F0D3" d="M94.967 5.033c2.475 2.475 1.387 18.167-13.828 33.383-9.909 9.908-16.168 13.374-16.168 13.374-6.627 4.45-9.832 1.411-14.002-2.759-4.2-4.201-7.272-7.379-2.759-14.002 0 0 3.513-6.305 13.375-16.167 15.202-15.204 30.897-16.313 33.382-13.829z"/><path fill="#8BA0AB" d="M74.979 30.24c-1.402 0-2.721-.546-3.713-1.538-2.047-2.047-2.045-5.378 0-7.425.992-.991 2.311-1.537 3.713-1.537s2.721.546 3.713 1.537c.992.992 1.537 2.311 1.537 3.713s-.545 2.721-1.537 3.712-2.311 1.538-3.713 1.538z"/><path fill="#324D5B" d="M74.979 20.49c1.201 0 2.332.468 3.182 1.317.852.851 1.318 1.98 1.318 3.183 0 1.202-.467 2.332-1.318 3.182-.85.85-1.98 1.318-3.182 1.318-1.203 0-2.332-.468-3.182-1.318-1.754-1.754-1.754-4.61 0-6.365.849-.849 1.978-1.317 3.182-1.317m0-1.5c-1.535 0-3.072.585-4.242 1.757-2.344 2.344-2.344 6.143 0 8.486 1.17 1.171 2.707 1.757 4.242 1.757s3.07-.586 4.242-1.757c2.344-2.343 2.344-6.142 0-8.486-1.172-1.171-2.707-1.757-4.242-1.757z"/><path fill="#1483A8" d="M28 82c2.209 0 4 1.791 4 4 0 .242-.03.477-.071.707.659-.714 1.071-1.659 1.071-2.707 0-2.209-1.791-4-4-4-1.967 0-3.594 1.423-3.929 3.293.731-.79 1.768-1.293 2.929-1.293zM11.5 70c-2.461 0-4.586 1.379-5.689 3.396l.212.414c1.165-1.115 2.736-1.81 4.477-1.81 3.59 0 6.5 2.909 6.5 6.5 0 .643-.097 1.263-.271 1.849.795-1.078 1.271-2.407 1.271-3.849 0-3.591-2.91-6.5-6.5-6.5z"/><path fill="#F26C4F" d="M81.316 5.891c.662 3.021 2.346 6.145 4.986 8.781 2.287 2.284 4.939 3.849 7.574 4.659 2.746-7.325 2.482-12.905 1.09-14.298-1.355-1.355-6.65-1.634-13.65.858z"/><path fill="#DAD3AF" d="M68.023 49.756c-6.98 4.688-10.357 1.487-14.748-2.906-4.425-4.424-7.662-7.772-2.908-14.75 0 0 .466-.831 1.503-2.335-2.591 3.351-3.662 5.264-3.662 5.264-4.513 6.624-1.441 9.802 2.759 14.002 4.17 4.17 7.375 7.209 14.002 2.759 0 0 1.154-.642 3.244-2.146l-.19.112z"/><path fill="#F26C4F" d="M65.697 35.302c1.195 1.194-1.074 5.4-6.848 11.173-5.773 5.773-9.257 7.322-10.453 6.128-1.194-1.194.355-4.68 6.128-10.453s9.98-8.043 11.173-6.848z"/></svg>