<svg xmlns="http://www.w3.org/2000/svg" width="100" height="100" viewBox="0 0 100 100"><path fill="#EFC75E" d="M50 0c-27.614 0-50 22.385-50 49.999 0 27.615 22.386 50.001 50 50.001s50-22.386 50-50.001c0-27.614-22.386-49.999-50-49.999z"/><path fill="#324D5B" d="M78.846 72.895c.098-.451.154-.917.154-1.397 0-3.59-2.91-6.5-6.5-6.5s-6.5 2.91-6.5 6.5 2.91 6.5 6.5 6.5c.479 0 .945-.056 1.396-.154l9.425 9.426c1.741-1.559 3.37-3.237 4.878-5.022l-9.353-9.353z"/><path fill="#B4E7F8" d="M50 24.998c13.807 0 25 11.193 25 25s-11.193 25-25 25-25-11.193-25-25 11.193-25 25-25z"/><path fill="#2D4552" d="M75.896 75.844c-.45.099-.916.154-1.396.154-3.59 0-6.5-2.91-6.5-6.5 0-1.282.377-2.475 1.018-3.482-1.813 1.153-3.018 3.174-3.018 5.482 0 3.59 2.91 6.5 6.5 6.5.479 0 .945-.056 1.396-.154l9.425 9.426c.704-.63 1.394-1.273 2.061-1.94l-9.486-9.486z"/><path fill="#fff" d="M48.484 64.997c-7.435 0-13.484-6.048-13.484-13.481 0-.838.679-1.517 1.516-1.517s1.516.679 1.516 1.517c0 5.763 4.689 10.451 10.453 10.451.837 0 1.516.679 1.516 1.515-.001.836-.68 1.515-1.517 1.515z"/><path fill="#3C5663" d="M50 18.998c-17.121 0-31 13.879-31 31s13.879 31 31 31 31-13.879 31-31-13.879-31-31-31zm0 56c-13.807 0-25-11.193-25-25s11.193-25 25-25 25 11.193 25 25-11.193 25-25 25z"/><path fill="#A2CFDF" d="M50 24.998c-7.667 0-14.524 3.455-19.11 8.89 4.352-3.672 9.971-5.89 16.11-5.89 13.807 0 25 11.193 25 25 0 6.14-2.217 11.759-5.89 16.11 5.435-4.586 8.89-11.443 8.89-19.11 0-13.807-11.193-25-25-25z"/></svg>