<?xml version="1.0" encoding="UTF-8" standalone="no"?>
<svg width="30" height="30" version="1.1" viewBox="-0.033482 -55.8483 30.0837 30.067" xmlns="http://www.w3.org/2000/svg" xmlns:xlink="http://www.w3.org/1999/xlink">
    <!--Generated by IJSVG (https://github.com/curthard89/IJSVG)-->
    <g fill="#000000">
        <path d="M29.5648,0.251117c-0.334822,-0.234376 -0.786831,-0.251117 -1.13839,-0.033483l-27.8572,16.0714c-0.351563,0.200893 -0.569197,0.585938 -0.535715,0.987724c0.033482,0.418528 0.284599,0.770091 0.669644,0.92076l7.90179,3.23103v7.56697c0,0.435269 0.267857,0.837055 0.686385,1.00447c0.117187,0.050223 0.251116,0.066964 0.385045,0.066964c0.301339,0 0.585938,-0.117187 0.786831,-0.351563l4.98884,-5.47434l8.82255,3.59933c0.133929,0.050223 0.267858,0.083706 0.401787,0.083706c0.184152,0 0.368304,-0.050224 0.518973,-0.133929c0.284599,-0.167411 0.485492,-0.435269 0.535715,-0.753349l4.28572,-25.7143c0.066964,-0.418527 -0.100447,-0.820313 -0.45201,-1.07143Zm-5.72545,25.0949l-8.23662,-3.36496l8.00224,-13.3427l-14.4476,10.6976l-5.62501,-2.29353l24.0067,-13.8449Z" transform="translate(-0.033482, -55.8483)"></path>
    </g>
</svg>