<svg xmlns="http://www.w3.org/2000/svg" width="100" height="100" viewBox="0 0 100 100"><circle fill="#EDEDED" cx="50" cy="50" r="50"/><path fill="#415F6F" d="M77.617 63.592l2.376-1.346c-.155-.889-.385-1.764-.685-2.615l-2.732-.021-1.499-2.635 1.384-2.357c-.573-.686-1.207-1.329-1.9-1.924l-2.378 1.35-2.616-1.535.017-2.734-.188-.068c-.796-.282-1.604-.499-2.418-.651l-1.384 2.358-3.031-.024-1.352-2.375c-.89.153-1.765.38-2.617.679l-.017 2.73-2.636 1.493-2.361-1.386c-.686.57-1.33 1.203-1.923 1.895l1.354 2.379-1.532 2.61-2.736-.022c-.315.855-.553 1.726-.717 2.602l2.362 1.387-.02 3.029-2.375 1.346c.155.889.384 1.764.684 2.614l2.733.022 1.498 2.635-1.383 2.357c.572.684 1.205 1.33 1.898 1.922l2.38-1.348 2.616 1.535-.019 2.733.19.069c.795.281 1.603.498 2.416.65l1.383-2.357 3.032.024 1.352 2.374c.89-.153 1.765-.379 2.617-.679l.017-2.729 2.635-1.493 2.363 1.386c.686-.57 1.329-1.203 1.922-1.895l-1.354-2.379 1.532-2.609 2.736.021c.315-.854.553-1.725.717-2.602l-2.361-1.386.02-3.03zm-13.617 10.407c-4.971 0-9-4.029-9-9s4.029-9 9-9 9 4.029 9 9-4.029 9-9 9z"/><path fill="#E2574C" d="M47.119 49.38l2.873-.961c.022-1-.039-2.002-.182-2.993l-2.969-.605-1.064-3.188 2.012-2.272c-.477-.869-1.026-1.706-1.654-2.499l-2.877.961-2.516-2.228.605-2.973c-.863-.527-1.76-.972-2.679-1.339l-2.013 2.272-3.293-.672-.96-2.873c-1-.022-2.001.038-2.992.181l-.605 2.969-3.188 1.066-2.271-2.012c-.868.476-1.704 1.026-2.498 1.654l.962 2.877-2.228 2.517-2.973-.605c-.526.863-.972 1.76-1.339 2.68l2.271 2.013-.671 3.293-2.873.96c-.022 1.001.039 2.003.182 2.994l2.969.604 1.064 3.188-2.012 2.272c.476.868 1.026 1.705 1.653 2.499l2.877-.962 2.517 2.228-.606 2.974c.864.527 1.761.972 2.681 1.339l2.011-2.271 3.294.67.959 2.874c1.002.022 2.002-.038 2.993-.181l.605-2.971 3.187-1.064 2.272 2.012c.868-.475 1.705-1.026 2.498-1.653l-.962-2.878 2.229-2.518 2.972.605c.526-.862.972-1.76 1.339-2.68l-2.271-2.012.671-3.292zm-15.119 8.619c-5.522 0-10-4.478-10-10s4.478-10 10-10 10 4.478 10 10-4.478 10-10 10z"/><path fill="#638090" d="M73.807 33.332l2.184-.882c-.033-.778-.131-1.553-.292-2.316l-2.335-.328-.986-2.425 1.448-1.861c-.412-.652-.883-1.275-1.409-1.862l-2.186.884-2.065-1.61.321-2.338-.153-.08c-.648-.332-1.315-.609-1.995-.832l-1.448 1.861-2.591-.365-.89-2.186c-.778.031-1.553.125-2.314.284l-.321 2.335-2.423.979-1.864-1.454c-.65.41-1.273.878-1.858 1.403l.892 2.189-1.604 2.061-2.339-.33c-.365.696-.667 1.414-.906 2.146l1.866 1.454-.357 2.59-2.184.883c.033.778.13 1.553.291 2.315l2.336.329.986 2.425-1.451 1.859c.412.651.882 1.275 1.408 1.861l2.187-.883 2.066 1.61-.323 2.337.155.081c.648.332 1.315.608 1.994.832l1.447-1.861 2.592.365.89 2.186c.777-.031 1.553-.125 2.314-.285l.321-2.333 2.422-.979 1.866 1.455c.65-.411 1.272-.879 1.856-1.404l-.89-2.189 1.604-2.061 2.339.329c.366-.695.666-1.414.905-2.146l-1.864-1.454.358-2.589zm-11.807 7.667c-4.418 0-8-3.582-8-8s3.582-8 8-8 8 3.582 8 8-3.582 8-8 8z"/><g fill="#3B5664"><path d="M59.574 51.856l.016-2.467c-.334.093-.668.188-.996.303l-.017 2.73.997-.566zM66.005 51.416l1.337-2.279-.364-.083-1.384 2.358.411.004zM74 63.999c0-4.971-4.029-9-9-9-2.74 0-5.189 1.229-6.84 3.16 1.572-1.344 3.609-2.16 5.84-2.16 4.971 0 9 4.029 9 9 0 2.23-.816 4.268-2.16 5.84 1.931-1.651 3.16-4.1 3.16-6.84zM51.479 59.413l.411.003 2.121-3.613-1.354-2.379.356-.381c-.474.433-.933.886-1.356 1.381l1.354 2.379-1.532 2.61zM77.617 63.592l2.376-1.346-.084-.386-2.289 1.296-.003.436zM75.406 76.471l-2.363-1.386-3.632 2.059-.003.435 2.635-1.493 2.363 1.386c.553-.46 1.069-.971 1.563-1.51-.187.17-.368.348-.563.509zM50.368 66.408l.997-.565.022-3.464-2.362-1.387c.1-.535.238-1.067.394-1.596l-.677-.006c-.315.855-.553 1.726-.717 2.602l2.362 1.387-.019 3.029zM77.096 69.585l-.589 1.003 2.736.021c.123-.332.224-.669.323-1.005l-2.47-.019zM67.774 79.986l-1.352-2.374-3.443-.027-.589 1.003 3.032.024 1.352 2.374c.89-.153 1.765-.379 2.617-.679l.004-.696c-.534.15-1.073.281-1.621.375zM59.592 79.295l-.19-.069.019-2.733-2.616-1.535-2.38 1.348c-.693-.592-1.326-1.238-1.898-1.922l1.383-2.357-1.498-2.635-2.733-.022c-.256-.727-.449-1.474-.6-2.229l-1.084.614c.155.889.384 1.764.684 2.614l2.733.022 1.498 2.635-1.383 2.357c.572.684 1.205 1.33 1.898 1.922l2.38-1.348 2.616 1.535-.019 2.733.19.069c.795.281 1.603.498 2.416.65l.636-1.083c-.691-.145-1.376-.327-2.052-.566z"/></g><g fill="#CC4E45"><path d="M29.667 32.948l.557-2.839c-.271.026-.543.044-.813.083l-.605 2.969.861-.213zM22.811 35.746l-.888-2.655c-.365.246-.725.501-1.074.777l.962 2.877 1-.999zM43 46.999c0-5.522-4.478-10-10-10-3.016 0-5.713 1.341-7.547 3.453 1.755-1.524 4.04-2.453 6.547-2.453 5.522 0 10 4.478 10 10 0 2.507-.929 4.792-2.453 6.547 2.112-1.833 3.453-4.531 3.453-7.547zM16.872 46.644l.854-.286.816-4.008-2.271-2.013c.217-.542.469-1.074.741-1.598l-.402-.082c-.526.863-.972 1.76-1.339 2.68l2.271 2.013-.67 3.294zM37.656 32.555l1.095-1.236-.082-.037-1.109 1.252.096.021zM45.312 55.74l-.903 1.02 2.972.605c.216-.354.41-.717.599-1.082l-2.668-.543zM47.265 48.666l-.146.714 2.873-.961-.013-.661-2.714.908zM41.645 62.809l-2.272-2.012-4.041 1.35-.146.715 3.187-1.064 2.272 2.012c.868-.475 1.705-1.026 2.498-1.653l-.074-.223c-.465.313-.938.609-1.424.875zM23.643 62.401l.606-2.974-2.517-2.227-2.877.962c-.627-.794-1.178-1.631-1.653-2.499l2.012-2.272-1.064-3.188-2.969-.604c-.111-.773-.158-1.552-.169-2.333l-1.013.338c-.022 1.001.039 2.003.182 2.994l2.969.604 1.064 3.188-2.012 2.272c.476.868 1.026 1.705 1.653 2.499l2.877-.962 2.517 2.228-.606 2.974c.864.527 1.761.972 2.681 1.339l.918-1.037c-.892-.36-1.762-.79-2.599-1.302zM32.587 65.013l-.959-2.874-3.391-.689-.903 1.02 3.294.67.959 2.874c1.002.022 2.002-.038 2.993-.181l.187-.917c-.725.07-1.451.113-2.18.097z"/></g><g fill="#597382"><path d="M51.915 26.787l.199.028 2.405-3.089-.831-2.041c-.364.267-.721.546-1.061.852l.892 2.189-1.604 2.061zM59.687 21.24l.291-2.111c-.296.042-.591.085-.883.146l-.321 2.335.913-.37zM73.807 33.332l2.184-.882-.049-.576-2.048.828-.087.63zM71 31.999c0-4.418-3.582-8-8-8-2.464 0-4.666 1.116-6.133 2.867 1.389-1.164 3.179-1.867 5.133-1.867 4.418 0 8 3.582 8 8 0 1.955-.703 3.743-1.867 5.133 1.752-1.468 2.867-3.669 2.867-6.133zM65.09 21.57l1.42-1.825-.172-.064-1.448 1.861.2.028zM50.179 32.647l.913-.369.444-3.221-1.866-1.454c.119-.362.253-.721.402-1.076l-.496-.07c-.365.696-.667 1.414-.906 2.146l1.866 1.454-.357 2.59zM70.5 43.846l-1.866-1.455-3.335 1.349-.087.631 2.422-.979 1.866 1.455c.65-.411 1.272-.879 1.856-1.404l-.06-.147c-.261.19-.525.378-.796.55zM56.653 44.467l-.155-.081.323-2.337-2.066-1.61-2.187.883c-.526-.586-.996-1.209-1.408-1.861l1.448-1.861-.986-2.425-2.336-.329c-.121-.573-.194-1.155-.243-1.739l-1.048.424c.033.778.13 1.553.291 2.315l2.336.329.986 2.425-1.448 1.86c.412.651.882 1.275 1.408 1.861l2.187-.883 2.066 1.61-.323 2.337.155.081c.648.332 1.315.608 1.994.832l.827-1.064c-.618-.213-1.228-.464-1.821-.767zM72.87 38.164l-.8 1.028 2.339.329c.185-.351.353-.708.504-1.07l-2.043-.287zM63.576 45.989l-.89-2.186-2.792-.393-.8 1.028 2.592.365.89 2.186c.777-.031 1.553-.125 2.314-.285l.117-.854c-.474.067-.951.12-1.431.139z"/></g></svg>