<?xml version="1.0" encoding="UTF-8"?><svg version="1.1" viewBox="0 0 448 512" xmlns="http://www.w3.org/2000/svg" xmlns:xlink="http://www.w3.org/1999/xlink"><!--Generated by IJSVG (https://github.com/curthard89/IJSVG)--><g fill="#000000"><path d="M192.663,363.314l-79.984,80.002c-6.248,6.247 -16.383,6.245 -22.627,0l-79.982,-80.002c-10.07,-10.07 -2.898,-27.314 11.314,-27.314h47.981v-320c0,-8.837 7.163,-16 16,-16h32c8.837,0 16,7.163 16,16v320h47.984c14.241,0 21.363,17.264 11.314,27.314Zm119.075,-180.007l3.25816e-08,-1.1365e-07c-1.47538,5.14635 -6.18135,8.69285 -11.535,8.693h-35.717c-8.22,0 -14.007,-8.078 -11.362,-15.861l57.096,-168l2.84897e-07,-8.38375e-07c1.65363,-4.86619 6.22252,-8.13904 11.362,-8.139h39.566c5.139,0 9.708,3.273 11.362,8.139l57.096,168c2.645,7.783 -3.141,15.861 -11.362,15.861h-35.735l2.85702e-07,-6.30962e-12c-5.32649,0.000117871 -10.0156,-3.51091 -11.515,-8.622l-8.301,-28.299h-42.863l-8.092,28.228Zm22.857,-78.697h13.367l-6.6,-22.937l-6.767,22.937Zm12.575,287.323l67.451,-95.698l-1.85629e-08,2.63328e-08c1.42616,-2.02311 2.1918,-4.43774 2.192,-6.913v-21.322c0,-6.627 -5.373,-12 -12,-12h-124.926c-6.627,0 -12,5.373 -12,12v28.93c0,6.627 5.373,12 12,12h56.469c-0.739,0.991 -1.497,2.036 -2.27,3.133l-67.203,95.205l2.8216e-08,-3.99796e-08c-1.42889,2.02462 -2.19601,4.44193 -2.196,6.92v21.812c0,6.627 5.373,12 12,12h129.355c6.627,0 12,-5.373 12,-12v-28.93c0,-6.627 -5.373,-12 -12,-12h-61.146c0.74,-0.993 1.5,-2.039 2.274,-3.137Z" transform="translate(-5.365, 32)"></path></g></svg>