<svg xmlns="http://www.w3.org/2000/svg" width="100" height="100" viewBox="0 0 100 100"><path fill="#324D5B" d="M50 0c27.614 0 50 22.386 50 50s-22.386 50-50 50-50-22.386-50-50 22.386-50 50-50z"/><path fill="#565D50" d="M55.156 82.281l33.856-63.538c-2.192-2.733-4.659-5.234-7.37-7.453l-64.986 42.272 38.5 28.719z"/><path fill="#736A47" d="M87.966 17.484c-2.021-2.357-4.254-4.524-6.676-6.471l-42.29 26.299 4.983 17.795 19.736.799 24.247-38.422z"/><path fill="#8A7440" d="M81.285 11.009l-42.223 26.241 3.896 18.666 42.144-41.513c-1.212-1.195-2.488-2.326-3.817-3.394z"/><path fill="#EFC75E" d="M19.001 2.003c-.6 5.398-3.6 8.4-9 9 5.4.6 8.401 3.601 9 9 .6-5.399 3.601-8.4 9.001-9-5.4-.6-8.401-3.602-9.001-9zm61 59c-.467 4.198-2.8 6.532-7.001 7 4.201.466 6.534 2.8 7.001 7 .467-4.2 2.8-6.534 7.001-7-4.201-.468-6.534-2.802-7.001-7z"/><path fill="#5B717C" d="M88.001 36.002c-.333 2.999-2.001 4.667-5.001 5.001 3 .332 4.668 2 5.001 5 .333-3 2-4.668 5-5-3-.334-4.667-2.002-5-5.001zm-71.001-4.001c-.267 2.399-1.6 3.734-4 4.001 2.4.267 3.733 1.601 4 4 .267-2.399 1.6-3.733 4-4-2.399-.267-3.733-1.602-4-4.001zm30-22.999c-.333 2.999-2 4.667-5 5 3 .333 4.667 2.002 5 5.001.333-2.999 2-4.668 5-5.001-2.999-.333-4.666-2.001-5-5z"/><path fill="#EFC75E" d="M40.798 76.362l12.173 6.431c1.258.665 2.728-.408 2.487-1.816l-2.325-13.619c-.095-.559.09-1.129.494-1.524l9.848-9.646c1.018-.997.455-2.733-.95-2.938l-13.61-1.987c-.558-.081-1.041-.434-1.29-.942l-6.086-12.392c-.629-1.28-2.446-1.28-3.075 0l-6.086 12.392c-.25.509-.732.861-1.291.942l-13.61 1.987c-1.406.205-1.967 1.941-.95 2.938l9.848 9.646c.404.396.588.966.493 1.524l-2.325 13.619c-.24 1.408 1.229 2.481 2.488 1.816l12.172-6.431c.499-.263 1.095-.263 1.595 0z"/></svg>