<svg xmlns="http://www.w3.org/2000/svg" xmlns:xlink="http://www.w3.org/1999/xlink" width="100" height="100" viewBox="0 0 100 100"><path fill="#EDEDED" d="M50 0c27.614 0 50 22.386 50 50s-22.386 50-50 50-50-22.386-50-50 22.386-50 50-50z"/><defs><path id="a" d="M50 0c27.614 0 50 22.386 50 50s-22.386 50-50 50-50-22.386-50-50 22.386-50 50-50z"/></defs><clipPath id="b"><use xlink:href="#a" overflow="visible"/></clipPath><g clip-path="url(#b)"><path fill="#61BFAF" d="M92.007 45.988l-1.007.012-17.007 7.915v52.097l18.014-8.926z"/><path fill="#37A18E" d="M74.007 53.915l-17.007-7.915-1.007-.012v51.098l18.014 8.926z"/><path fill="#3DB39E" d="M56.007 46l17.993-9.012 17.993 9.012-17.993 9.013z"/><path fill="#E5766D" d="M68.007 28.988l-1.007.012-17.007 7.915v69.097l18.014-8.926z"/><path fill="#CB4E44" d="M50.007 36.915l-17.007-7.915-1.007-.012v68.098l18.014 8.926z"/><path fill="#E2574C" d="M32.007 29l17.993-9.012 17.993 9.012-17.993 9.013z"/><path fill="#EFCF7B" d="M44.007 59.988l-1.007.012-17.007 7.915v42.097l18.014-8.926z"/><path fill="#D7B354" d="M26.006 67.915l-17.006-7.915-1.007-.012v41.098l18.013 8.926z"/><path fill="#EFC75E" d="M8.007 60l17.993-9.012 17.993 9.012-17.993 9.013z"/></g></svg>