<svg xmlns="http://www.w3.org/2000/svg" width="100" height="100" viewBox="0 0 100 100"><path fill="#2EA9D3" d="M49.987.005c-27.614 0-50 22.385-50 49.999 0 27.615 22.386 50.001 50 50.001s50-22.387 50-50.001c0-27.613-22.385-49.999-50-49.999z"/><path fill="#2998BD" d="M51.422 48.613c-.793-.793-2.08-.793-2.873 0-.794.793-.794 2.078 0 2.872l35.312 35.287c.996-.918 1.954-1.876 2.873-2.871l-35.312-35.288z"/><path fill="#4ABEE5" d="M49.987 30.005c-11.046 0-20 8.954-20 20s8.954 20 20 20 20-8.954 20-20-8.954-20-20-20zm0 29.999c-5.522 0-10-4.477-10-10 0-5.522 4.478-10 10-10s10 4.478 10 10c0 5.523-4.477 10-10 10zm0-50c-22.092 0-40 17.909-40 40s17.908 40 40 40 40-17.909 40-40-17.908-40-40-40zm0 70.001c-16.568 0-30-13.432-30-30 0-16.568 13.432-30 30-30s30 13.432 30 30c0 16.568-13.431 30-30 30z"/><path fill="#EFC75E" d="M90.363 9.625c3.971 3.963 12.6 1.777 8.629 5.742l-10.663 10.634c-3.931 3.931-10.41 3.962-14.381 0-3.972-3.963-3.972-10.389 0-14.353l10.662-10.634c3.972-3.964 1.782 4.648 5.753 8.611z"/><g fill="#42ABCE"><path d="M72.567 69.744c-.893 1.021-1.853 1.979-2.874 2.87l7.09 7.085c1.006-.908 1.965-1.865 2.874-2.87l-7.09-7.085zM58.328 55.515c-.755 1.141-1.737 2.114-2.883 2.862l7.15 7.145c1.053-.856 2.019-1.815 2.878-2.866l-7.145-7.141z"/></g><path fill="#E3BD59" d="M90.363 9.625c-1.096-1.093-1.722-2.541-2.138-3.98l-16.637 16.638c.491 1.355 1.271 2.631 2.36 3.718 1.105 1.103 2.408 1.885 3.793 2.371l16.612-16.613c-1.443-.416-2.894-1.04-3.99-2.134z"/><path fill="#EDEEEF" d="M94.396 5.581c.793.793.793 2.078 0 2.871l-42.974 42.944c-.793.793-2.08.793-2.873 0-.794-.792-.794-2.078 0-2.872l42.973-42.943c.793-.794 2.08-.794 2.874 0z"/></svg>