<svg xmlns="http://www.w3.org/2000/svg" viewBox="0 0 124.1 80.5"><path fill="#A2DAF8" d="M87.3 80.3c-20.6 0-30.4-12.3-32.5-17.1-1.8-4.4-2.8-10-3-17v-2-7.4c0-3.8-.3-7-.9-9.5-.6-2.6-1.6-4.6-2.9-6.1-1.3-1.5-2.9-2.6-4.9-3.2-1.9-.6-4.2-.9-6.8-.9-2.6 0-4.9.3-6.8.9-1.9.6-3.6 1.7-4.9 3.2-1.3 1.5-2.3 3.5-2.9 6.1-.6 2.6-.9 5.8-.9 9.8v39.8h-.3c-3.4 0-6.5-8.3-9.8-8.3-3.4 0-7-22.9-10.5-23.5v-8.6c0-8 1-14.5 3.1-19.3 2-4.8 10.4-8.5 13.9-11C20.6 3.7 24.1.1 37.1.1c20.6 0 30.4 12.3 32.5 17.1 1.8 4.4 2.8 10 3 17v9.4c0 3.8.3 7 .9 9.5.6 2.6 1.6 4.6 2.9 6.1 1.3 1.5 2.9 2.6 4.9 3.2 1.9.6 4.2.9 6.8.9 2.6 0 4.9-.3 6.8-.9 1.9-.6 3.6-1.7 4.9-3.2 1.3-1.5 2.3-3.5 2.9-6.1.6-2.6.9-5.8.9-9.8V3.5h.3c3.4 0 6.5 8.3 9.8 8.3 3.4 0 7 22.9 10.5 23.5v8.6c0 8-1 14.5-3.1 19.3-2 4.8-10.4 8.5-13.9 11-3.5 2.6-6.9 6.1-19.9 6.1"/><path fill="#009FE3" d="M124.1 76.8V36.4c0-8-1-14.5-3.1-19.3-2-4.8-4.8-8.5-8.2-11-3.4-2.5-7.4-4.2-12-4.9C96.7.5 92.3.2 87.9.1c-4.4 0-8.8.3-12.9 1-4.6.8-8.6 2.4-12 4.9-3.4 2.5-6.2 6.2-8.2 11-2 4.8-3.1 11.3-3.1 19.3v7.4c0 3.8-.3 7-.9 9.5-.6 2.6-1.6 4.6-2.9 6.1-1.3 1.6-2.9 2.7-4.9 3.3-1.9.6-4.2.9-6.8.9-2.6 0-4.9-.3-6.8-.9-1.9-.6-3.6-1.7-4.9-3.2-1.3-1.5-2.3-3.5-2.9-6.1-.6-2.6-.9-5.8-.9-9.8V3.7c-3.5-.6-6.9-.9-10.3-.9-3.5 0-6.9.3-10.4.9v40.4c0 8 1 14.5 3.1 19.3 2 4.8 4.8 8.5 8.2 11 3.4 2.5 7.4 4.2 12 4.9 4.1.7 8.5 1 12.9 1.1 4.5-.1 8.8-.4 12.9-1.1 4.6-.8 8.6-2.4 12-4.9 3.4-2.5 6.2-6.2 8.2-11 1.9-4.4 2.9-10.3 3-17.4v-1.5V37c0-4 .3-7.2.9-9.8.6-2.6 1.6-4.6 2.9-6.1 1.3-1.5 2.9-2.6 4.9-3.2 1.9-.6 4.2-.9 6.8-.9 2.6 0 4.9.3 6.8.9 1.9.6 3.6 1.7 4.9 3.2 1.3 1.5 2.3 3.5 2.9 6.1.6 2.6.9 5.8.9 9.8v39.8c3.5.6 6.9.9 10.3.9 3.6 0 7-.3 10.5-.9z"/></svg>