<svg width="29" height="24" viewBox="1.07143 -45.0001 28.9286 23.5715" xmlns="http://www.w3.org/2000/svg"><path d="M10.714-25.714a2.158 2.158 0 0 1-2.143 2.142 2.158 2.158 0 0 1-2.142-2.142c0-1.172.97-2.143 2.142-2.143s2.143.97 2.143 2.143zm-6.428-8.572v-.502c0-.067.1-.318.15-.368l3.265-3.265c.05-.05.301-.15.368-.15h2.645v4.285zm21.428 8.572a2.158 2.158 0 0 1-2.143 2.142 2.158 2.158 0 0 1-2.142-2.142c0-1.172.97-2.143 2.142-2.143s2.143.97 2.143 2.143zM30-43.93c0-.586-.485-1.071-1.071-1.071H11.786c-.586 0-1.072.485-1.072 1.071v3.215H8.036c-.603 0-1.407.334-1.825.753l-3.315 3.315c-.92.92-.753 2.243-.753 3.432v5.357c-.586 0-1.072.485-1.072 1.071 0 1.239 1.306 1.072 2.143 1.072h1.072A4.294 4.294 0 0 0 8.57-21.43a4.294 4.294 0 0 0 4.286-4.285h6.429a4.294 4.294 0 0 0 4.285 4.285 4.294 4.294 0 0 0 4.286-4.285c.837 0 2.143.167 2.143-1.072z"/></svg>