<svg width="26" height="21" viewBox="0.736608 -42.8572 26.384 21.4286" xmlns="http://www.w3.org/2000/svg"><path d="M27.12-40.313c-.97.419-2.025.72-3.113.838a5.393 5.393 0 0 0 2.377-2.98 10.645 10.645 0 0 1-3.432 1.305 5.394 5.394 0 0 0-3.95-1.707 5.405 5.405 0 0 0-5.408 5.407c0 .419.05.837.134 1.239a15.37 15.37 0 0 1-11.15-5.658 5.367 5.367 0 0 0-.736 2.728c0 1.875.954 3.533 2.41 4.504a5.446 5.446 0 0 1-2.444-.687v.067a5.408 5.408 0 0 0 4.336 5.307 5.717 5.717 0 0 1-1.423.184c-.352 0-.686-.033-1.021-.083a5.417 5.417 0 0 0 5.056 3.75 10.83 10.83 0 0 1-6.714 2.31c-.452 0-.87-.017-1.305-.067A15.28 15.28 0 0 0 9.04-21.43c9.944 0 15.385-8.236 15.385-15.385 0-.234 0-.468-.016-.703a11.625 11.625 0 0 0 2.712-2.796z"/></svg>