<svg xmlns="http://www.w3.org/2000/svg" width="100" height="100" viewBox="0 0 100 100"><path fill="#EFC75E" d="M50 0c27.614 0 50 22.386 50 50s-22.386 50-50 50-50-22.386-50-50 22.386-50 50-50z"/><path fill="#26A6D1" d="M22 39h56c2.209 0 3.625 1.75 4 4l3.989 19.701h-71.978l3.989-19.701c.642-2.171 1.791-4 4-4z"/><path fill="#2095BC" d="M11 92.375h78v3.625c0 2.209-1.791 4-4 4h-70c-2.209 0-4-1.791-4-4v-3.625z"/><path fill="#37B8E3" d="M14 78h72l3 14c0 2.209-1.791 4-4 4h-70c-2.209 0-4-1.791-4-4l3-14z"/><path fill="#2295BC" d="M18 59h64c2.209 0 4 1.791 4 4v15h-72v-15c0-2.209 1.791-4 4-4z"/><path fill="#324D5B" d="M78 40c-.188-1.125-.896-2-2-2h-52c-1.104 0-1.781.875-2 2l-1 6c0 1.104.896 2 2 2h22.492c-1.346 1.061-2.855 2.312-4.493 3.601-3.37 2.651-2.475 3.399.64 3.399h18.101c3.114 0 3.158-1.096.229-3.399-1.421-1.118-2.84-2.436-4.187-3.601h21.218c1.104 0 2-.896 2-2l-1-6zM80 78v-11c0-1.656-1.343-3-3-3h-54c-1.657 0-3 1.344-3 3v11l-2 11c0 1.657 1.343 3 3 3h58c1.657 0 3-1.343 3-3l-2-11z"/><path fill="#405A67" d="M82 89l-2-11h-60l-2 11c0 1.657 1.343 3 3 3h58c1.657 0 3-1.343 3-3z"/><path fill="#7F8F98" d="M44 68h10c.553 0 1 .447 1 1v1c0 .553-.447 1-1 1h-10c-.553 0-1-.447-1-1v-1c0-.553.447-1 1-1z"/><path fill="#E4E7E7" d="M38 90h24v-5h-24v5zm37-15h-50l-1 8h52l-1-8z"/><path fill="#DFDFDF" d="M71 17h7c2.209 0 4 1.791 4 4v4c0 2.209-1.791 4-4 4h-7c-2.209 0-4-1.791-4-4v-4c0-2.209 1.791-4 4-4z"/><path fill="#F3F3F3" d="M79 17h-50c-2.061 0-4 1.955-4 4v23h50v-23c0-2.209 1.791-4 4-4z"/><path fill="#DADADA" d="M25 42h50v2h-50v-2z"/><path fill="#CCD0D2" d="M68.5 34h-37c-.828 0-1.5.672-1.5 1.5s.672 1.5 1.5 1.5h37c.828 0 1.5-.672 1.5-1.5s-.672-1.5-1.5-1.5zm-37-4h12c.828 0 1.5-.672 1.5-1.5s-.672-1.5-1.5-1.5h-12c-.828 0-1.5.672-1.5 1.5s.672 1.5 1.5 1.5z"/><path fill="#283E49" d="M59.74 53h-18.101c-.851 0-1.528-.059-2.006-.194-1.62 1.678-.571 2.194 2.006 2.194h18.101c2.494 0 3.014-.705 1.619-2.168-.39.11-.923.168-1.619.168z"/><g fill="#CDCFD0"><path d="M38 88h24v2h-24zM24.25 81l-.25 2h52l-.25-2z"/></g></svg>