<svg xmlns="http://www.w3.org/2000/svg" width="100" height="100" viewBox="0 0 100 100"><path fill="#324D5B" d="M50 0c-27.614 0-50 22.386-50 50s22.386 49.999 50 49.999 50-22.385 50-49.999-22.386-50-50-50z"/><path fill="#E2574C" d="M50 67.001c-3.313 0-6 2.686-6 6 0 3.313 2.687 6 6 6 3.314 0 6-2.687 6-6 0-3.314-2.686-6-6-6zm16-3.999c-3.313 0-6 2.685-6 5.999 0 3.313 2.687 6 6 6 3.314 0 6-2.687 6-6 0-3.314-2.686-5.999-6-5.999zm-32 0c-3.313 0-6 2.685-6 5.999 0 3.313 2.686 6 6 6s6-2.687 6-6c0-3.314-2.686-5.999-6-5.999z"/><path fill="#E4E7E7" d="M31.604 47.677c10.143-6.25 26.587-6.25 36.73 0s10.143 16.384 0 22.634c-10.143 6.249-26.587 6.249-36.73 0-10.143-6.25-10.143-16.384 0-22.634z"/><path fill="#CDCFCF" d="M34.604 68.311c-9.332-5.751-10.07-14.787-2.229-21.063-.255.145-.523.277-.771.429-10.143 6.25-10.143 16.384 0 22.634 10.143 6.249 26.587 6.249 36.73 0 .811-.499 1.549-1.026 2.229-1.571-10.187 5.798-26.064 5.667-35.959-.429z"/><path fill="#E2574C" d="M27.37 36.56c12.499-7.42 32.762-7.42 45.261 0 12.498 7.421 12.498 19.451 0 26.871-12.499 7.421-32.763 7.421-45.261 0-12.498-7.42-12.498-19.451 0-26.871z"/><path fill="#E4E7E7" d="M50 21.001c11.046 0 20 8.954 20 19.999 0 11.047-8.954 16.001-20 16.001-11.045 0-20-4.954-20-16.001 0-11.045 8.955-19.999 20-19.999z"/><path fill="#3DB39E" d="M50 57.001c4.509 0 8.655-.841 12-2.569v-13.432c0-6.627-5.372-11.999-12-11.999-6.627 0-12 5.372-12 11.999v13.432c3.346 1.728 7.491 2.569 12 2.569z"/><path fill="#CDCFCF" d="M32 41c0-10.708 8.422-19.424 19-19.949-.334-.016-.663-.05-1-.05-11.045 0-20 8.954-20 19.999 0 11.047 8.955 16.001 20 16.001.337 0 .666-.02 1-.028-10.578-.295-19-5.264-19-15.973z"/><path fill="#37A18E" d="M40 41c0-6.29 4.842-11.439 11-11.949-.33-.027-.662-.05-1-.05-6.627 0-12 5.372-12 11.999v13.432l.004.002.034.016c.321.164.651.318.988.465.288.127.583.244.881.359l.093.038v-.002c1.042.397 2.136.731 3.284.987l.376.085c.344.071.695.132 1.047.19l.763.117c.296.042.595.079.896.112.354.038.711.068 1.071.095l.702.052c.613.032 1.231.053 1.859.053.337 0 .666-.02 1-.028-4.127-.114-7.904-.964-11-2.569v-13.404z"/><path fill="#CB4E44" d="M74.631 61.431c-12.499 7.421-32.763 7.421-45.261 0-10.074-5.981-12.022-14.956-5.855-22.1-8.466 7.395-7.186 17.545 3.855 24.1 12.499 7.421 32.762 7.421 45.261 0 2.424-1.439 4.372-3.053 5.855-4.771-1.117.976-2.398 1.905-3.855 2.771z"/><path fill="#7A8B94" d="M17 27.001c3-.332 4.667-2.002 5-5.001.333 2.999 2 4.669 5 5.001-3 .333-4.667 2.001-5 5-.333-2.999-2-4.667-5-5z"/><path fill="#EFC75E" d="M79 17.003c5.4-.602 8.4-3.604 9.001-9.001.601 5.397 3.601 8.399 9.001 9.001-5.4.599-8.4 3.6-9.001 8.999-.601-5.399-3.601-8.4-9.001-8.999z"/><path fill="#5B717C" d="M87 58.001c-.332 2.998-2 4.667-5 5.001 3 .332 4.668 2 5 4.999.334-2.999 2.001-4.667 5.001-4.999-3-.334-4.667-2.003-5.001-5.001zm-71 7c-.267 2.398-1.6 3.733-4 4 2.4.267 3.733 1.601 4 4 .267-2.399 1.6-3.733 4-4-2.399-.267-3.733-1.602-4-4z"/><path fill="#fff" d="M50 37.001c3.314 0 6 2.687 6 6s-2.686 6-6 6c-3.313 0-6-2.687-6-6s2.687-6 6-6z"/><path fill="#324D5B" d="M50 40.001c1.657 0 3 1.345 3 3 0 1.659-1.343 3-3 3s-3-1.341-3-3c0-1.655 1.343-3 3-3z"/></svg>