<?xml version="1.0" encoding="UTF-8"?>
<svg width="30" height="28" version="1.1" viewBox="-0.100447 -53.5715 30.2009 27.8572" xmlns="http://www.w3.org/2000/svg" xmlns:xlink="http://www.w3.org/1999/xlink">
    <!--Generated by IJSVG (https://github.com/curthard89/IJSVG)-->
    <g fill="#000000">
        <path d="M17.2433,23.019c0,0.30134 -0.234376,0.552456 -0.535715,0.552456h-3.21429c-0.30134,0 -0.535715,-0.251116 -0.535715,-0.552456v-3.18081c0,-0.30134 0.234375,-0.552456 0.535715,-0.552456h3.21429c0.301339,0 0.535715,0.251116 0.535715,0.552456Zm-0.033483,-6.26117c-0.016741,0.217634 -0.267857,0.385045 -0.569197,0.385045h-3.0971c-0.31808,0 -0.569197,-0.167411 -0.569197,-0.385045l-0.284598,-7.65068c0,-0.100446 0.050223,-0.267857 0.167411,-0.351563c0.100446,-0.083705 0.251116,-0.184152 0.401786,-0.184152h3.68304c0.15067,0 0.30134,0.100447 0.401786,0.184152c0.117188,0.083706 0.167411,0.217635 0.167411,0.318081Zm-0.234375,-15.6362c-0.368304,-0.686385 -1.08817,-1.12165 -1.875,-1.12165c-0.786831,0 -1.5067,0.435268 -1.875,1.12165l-12.8572,23.5715c-0.368304,0.652903 -0.351562,1.45648 0.033483,2.10938c0.385045,0.652902 1.08817,1.05469 1.84152,1.05469h25.7143c0.753349,0 1.45648,-0.401787 1.84152,-1.05469c0.385045,-0.652903 0.401786,-1.45648 0.033482,-2.10938Z" transform="translate(-0.100447, -53.5715)"></path>
    </g>
</svg>