<svg width="30" height="28" viewBox="-0.100447 -53.5715 30.2009 27.8572" xmlns="http://www.w3.org/2000/svg"><path d="M17.143-30.553a.543.543 0 0 1-.536.553h-3.214a.543.543 0 0 1-.536-.553v-3.18c0-.302.235-.553.536-.553h3.214c.301 0 .536.251.536.553zm-.034-6.26c-.016.217-.267.384-.569.384h-3.097c-.318 0-.57-.167-.57-.385l-.284-7.65c0-.1.05-.268.168-.352.1-.084.25-.184.401-.184h3.684c.15 0 .3.1.401.184a.405.405 0 0 1 .168.318zm-.234-15.637a2.13 2.13 0 0 0-3.75 0L.268-28.878A2.11 2.11 0 0 0 .3-26.77a2.143 2.143 0 0 0 1.842 1.055h25.714c.753 0 1.457-.402 1.842-1.055a2.11 2.11 0 0 0 .033-2.11z"/></svg>