<svg xmlns="http://www.w3.org/2000/svg" width="100" height="100" viewBox="0 0 100 100"><path fill="#91D8F0" d="M92.237 23.266c-2.015 2.285-4.958 3.734-8.244 3.734-6.075 0-11-4.925-11-11 0-3.287 1.449-6.228 3.734-8.244-7.734-4.904-16.898-7.756-26.734-7.756-27.614 0-50 22.386-50 50s22.386 50 50 50 50-22.386 50-50c0-9.836-2.851-19-7.756-26.734z"/><path fill="#E4E7E7" d="M39.485 23.428l2.896-.772 6.36 23.636-2.895.772-6.361-23.636z"/><path fill="#EFC75E" d="M83.993 25.497c-5.236 0-9.496-4.26-9.496-9.497s4.26-9.497 9.496-9.497 9.496 4.26 9.496 9.497-4.26 9.497-9.496 9.497z"/><path fill="#26A6D1" d="M99.993 50c0-.87-.03-1.733-.074-2.592-1.292-1.116-1.934-2.408-1.934-2.408s-2.09 3.995-6.014 3.999c-3.956-.004-5.948-3.999-5.948-3.999s-1.991 4-6.023 4c-4.022 0-6.002-4-6.002-4s-2.09 3.995-6.014 3.999c-3.957-.004-5.948-3.999-5.948-3.999s-1.991 4-6.023 4c-4.022 0-6.002-4-6.002-4s-2.09 3.995-6.014 3.999c-3.957-.004-5.948-3.999-5.948-3.999s-1.991 4-6.023 4c-4.022 0-6.002-4-6.002-4s-2.09 3.995-6.014 3.999c-3.957-.004-5.948-3.999-5.948-3.999s-1.991 4-6.023 4c-4.022 0-6.002-4-6.002-4s-.675 1.288-1.976 2.402c-.045.861-.068 1.726-.068 2.598 0 27.614 22.386 50 50 50s50-22.386 50-50z"/><path fill="#324D5B" d="M48.266 40.646s.68 1.571 2.116 2.358c1.438.787 3.086 1.998 3.892 4.867.007-.009 5.684 20.869 5.684 20.869l.042.156c.287 1.059-2.204 2.635-5.566 3.521-3.363.886-6.322.747-6.61-.311l-.043-.155s-5.68-20.867-5.679-20.87c-.762-2.882.042-4.739.886-6.127.845-1.389.644-3.085.644-3.085l-2.634-9.659 4.638-1.223 2.63 9.659z"/><path fill="#233640" d="M49.822 72.107l-.043-.155s-5.68-20.867-5.679-20.87c-.762-2.882.042-4.739.886-6.127.845-1.389.644-3.085.644-3.085l-2.634-9.659 2.771-.73-.134-.492-4.638 1.223 2.634 9.659s.201 1.696-.644 3.085c-.844 1.388-1.647 3.245-.886 6.127-.001.003 5.679 20.87 5.679 20.87l.043.155c.198.729 1.665 1.021 3.658.843-.92-.109-1.534-.391-1.657-.844z"/><path fill="#2295BC" d="M49.993 100c24.637 0 45.097-17.823 49.226-41.275-.822-.901-1.234-1.725-1.234-1.725s-2.09 3.995-6.014 4c-3.957-.005-5.948-4-5.948-4s-1.991 4-6.023 4c-4.022 0-6.002-4-6.002-4s-2.09 3.995-6.014 4c-3.957-.005-5.948-4-5.948-4s-1.991 4-6.023 4c-4.022 0-6.002-4-6.002-4s-2.09 3.995-6.014 4c-3.957-.005-5.948-4-5.948-4s-1.991 4-6.023 4c-4.022 0-6.002-4-6.002-4s-2.09 3.995-6.014 4c-3.957-.005-5.948-4-5.948-4s-1.991 4-6.023 4c-4.022 0-6.002-4-6.002-4s-.434.822-1.27 1.721c4.128 23.454 24.588 41.279 49.226 41.279z"/><path fill="#1E85A7" d="M49.993 100c19.613 0 36.579-11.299 44.77-27.738-.792.434-1.721.736-2.791.737-3.957-.004-5.949-3.999-5.949-3.999s-1.991 4-6.023 4c-4.022 0-6.002-4-6.002-4s-2.09 3.995-6.014 3.999c-3.957-.004-5.948-3.999-5.948-3.999s-1.991 4-6.023 4c-4.022 0-6.002-4-6.002-4s-2.09 3.995-6.014 3.999c-3.957-.004-5.948-3.999-5.948-3.999s-1.991 4-6.023 4c-4.022 0-6.002-4-6.002-4s-2.09 3.995-6.014 3.999c-3.957-.004-5.948-3.999-5.948-3.999s-1.991 4-6.023 4c-1.085 0-2.017-.296-2.806-.721 8.193 16.429 25.153 27.721 44.76 27.721zM49.993 100c19.613 0 36.579-11.299 44.77-27.738-.792.434-1.721.736-2.791.737-3.957-.004-5.949-3.999-5.949-3.999s-1.991 4-6.023 4c-4.022 0-6.002-4-6.002-4s-2.09 3.995-6.014 3.999c-3.957-.004-5.948-3.999-5.948-3.999s-1.991 4-6.023 4c-4.022 0-6.002-4-6.002-4s-2.09 3.995-6.014 3.999c-3.957-.004-5.948-3.999-5.948-3.999s-1.991 4-6.023 4c-4.022 0-6.002-4-6.002-4s-2.09 3.995-6.014 3.999c-3.957-.004-5.948-3.999-5.948-3.999s-1.991 4-6.023 4c-1.085 0-2.017-.296-2.806-.721 8.193 16.429 25.153 27.721 44.76 27.721z"/><path fill="#1B7492" d="M49.993 100c14.958 0 28.373-6.577 37.536-16.987-1.002-1.004-1.506-2.013-1.506-2.013s-1.991 4-6.023 4c-4.022 0-6.002-4-6.002-4s-2.09 3.995-6.014 4c-3.957-.005-5.948-4-5.948-4s-1.991 4-6.023 4c-4.022 0-6.002-4-6.002-4s-2.09 3.995-6.014 4c-3.957-.005-5.948-4-5.948-4s-1.991 4-6.023 4c-4.022 0-6.002-4-6.002-4s-2.09 3.995-6.014 4c-3.957-.005-5.948-4-5.948-4s-.521 1.04-1.563 2.06c9.161 10.383 22.558 16.94 37.494 16.94z"/><path fill="#687C85" d="M50.741 53.291l-5.942-22.083-2.898.764 5.946 22.091z"/></svg>