<svg xmlns="http://www.w3.org/2000/svg" width="100" height="100" viewBox="0 0 100 100"><path fill="#3DB39E" d="M50 0c27.614 0 50 22.386 50 50s-22.386 50-50 50-50-22.386-50-50 22.386-50 50-50z"/><path fill="#37A18E" d="M50.189 41.941c-1.062.283-2.151-.344-2.436-1.401l-6.69-24.877c-.284-1.057.345-2.144 1.406-2.427l27.895-7.447c10.609 5.022 19.159 13.669 24.069 24.34l-44.244 11.812zM28 71c-3.011 0-5.809-.896-8.158-2.423l-3.487 3.487c-1.229 1.229-3.222 1.229-4.451 0-1.229-1.229-1.229-3.223 0-4.451l3.495-3.496c-1.512-2.341-2.399-5.123-2.399-8.117 0-8.284 6.716-15 15-15s15 6.716 15 15-6.716 15-15 15z"/><path fill="#324D5B" d="M51.189 40.941c-1.062.283-2.151-.344-2.436-1.401l-6.69-24.877c-.284-1.057.345-2.144 1.406-2.427l27.895-7.447c10.609 5.022 19.159 13.669 24.069 24.34l-44.244 11.812z"/><path fill="#F2F1EF" d="M31 68c-3.011 0-5.809-.896-8.158-2.423l-3.487 3.487c-1.229 1.229-3.222 1.229-4.451 0-1.229-1.229-1.229-3.223 0-4.451l3.495-3.496c-1.512-2.341-2.399-5.123-2.399-8.117 0-8.284 6.716-15 15-15s15 6.716 15 15-6.716 15-15 15z"/><path fill="#9B481A" d="M31 42c6.075 0 11 4.925 11 11s-4.925 11-11 11-11-4.925-11-11 4.925-11 11-11z"/><path fill="#E4E7E7" d="M62.905 98.311l-13.619-23.564c-.559-.966-.228-2.202.74-2.759l36.655-20.717c.967-.558 2.204-.227 2.763.74l7.984 13.813c-5.283 15.843-18.27 28.155-34.523 32.487z"/><g fill="#D7D8D8"><path d="M97.323 65.643l-1.02-1.766-39.991 23.026 1.021 1.767zM52.229 79.838l1.02 1.766 39.99-23.027-1.02-1.765zM90.845 78.791c.852-1.207 1.651-2.451 2.396-3.733l-32.845 18.911 1.021 1.767 29.428-16.945z"/></g><path fill="#CCD0D2" d="M52.908 67.735c-.489-.828-1.473-1.167-2.198-.758s-.917 1.413-.429 2.241l2.274 3.854c.489.827 1.474 1.166 2.198.757.726-.409.918-1.413.429-2.241l-2.274-3.853zm5.254-2.966c-.489-.828-1.473-1.167-2.198-.757-.726.408-.918 1.412-.429 2.24l2.274 3.854c.489.827 1.473 1.166 2.198.757.726-.41.918-1.413.429-2.24l-2.274-3.854zm5.254-2.967c-.489-.828-1.474-1.167-2.198-.757-.726.409-.918 1.412-.429 2.24l2.274 3.854c.489.828 1.473 1.166 2.198.757s.918-1.413.429-2.24l-2.274-3.854zm5.254-2.967c-.489-.827-1.474-1.167-2.198-.757-.726.409-.918 1.412-.429 2.24l2.274 3.854c.488.828 1.473 1.166 2.198.757s.917-1.413.429-2.24l-2.274-3.854zm5.254-2.967c-.489-.827-1.474-1.167-2.199-.757-.725.41-.917 1.412-.428 2.24l2.274 3.854c.488.828 1.473 1.167 2.198.758.726-.41.917-1.413.429-2.24l-2.274-3.855zm5.254-2.966c-.489-.828-1.474-1.168-2.199-.758-.725.41-.917 1.412-.428 2.24l2.274 3.854c.488.828 1.473 1.167 2.198.758.726-.41.917-1.413.429-2.24l-2.274-3.854zm7.528.887l-2.275-3.854c-.488-.828-1.473-1.167-2.198-.758-.725.41-.917 1.413-.428 2.24l2.274 3.854c.488.828 1.473 1.167 2.198.758.726-.41.917-1.413.429-2.24z"/><path fill="#8B4117" d="M29 45c6.075 0 11 4.925 11 11 0 1.605-.352 3.126-.97 4.502 1.837-1.967 2.97-4.599 2.97-7.502 0-6.075-4.925-11-11-11-4.47 0-8.309 2.67-10.03 6.499 2.008-2.148 4.858-3.499 8.03-3.499z"/><path fill="#D0D3D3" d="M50.857 73.747c-.458-.792-.31-1.76.289-2.392l-1.12.633c-.968.557-1.299 1.793-.74 2.759l13.619 23.563c.642-.171 1.27-.376 1.901-.572l-13.949-23.991z"/><g fill="#B9BCBE"><path d="M54.88 80.665l-1.026-1.764-1.625.937 1.02 1.766zM63.084 94.775l-1.025-1.763-1.663.957 1.021 1.766zM58.982 87.721l-1.025-1.764-1.645.946 1.021 1.767z"/></g><g fill="#B7BBBD"><path d="M65.69 65.655l-.146-.248-2.612 1.508.132.224c.468.792 1.385 1.127 2.099.799l.203-.117c.633-.446.788-1.382.324-2.166zM53.275 73.783c.472.266 1.025.302 1.479.046.726-.409.918-1.413.429-2.241l-.088-.148-2.379 1.374.559.969zM57.81 70.105c.489.827 1.473 1.166 2.198.757.726-.41.918-1.413.429-2.24l-.117-.198-2.612 1.508.102.173zM86.706 53.789l-.265-.447-2.611 1.508.249.422c.328.557.879.885 1.426.921l1.315-.76c.229-.479.208-1.098-.114-1.644zM70.944 62.688l-.176-.298-2.612 1.508.161.273c.408.692 1.161 1.034 1.821.893l.7-.404c.443-.49.51-1.289.106-1.972zM81.452 56.756l-.234-.397-2.612 1.508.22.372c.35.593.953.929 1.534.925l1.156-.667c.281-.49.281-1.157-.064-1.741zM76.198 59.723l-.205-.349-2.612 1.509.19.322c.374.634 1.038.978 1.654.922l.982-.567c.341-.494.358-1.215-.009-1.837z"/></g><path fill="#324D5B" d="M55.57.316c-1.885 3.434-3.762 6.73-1.588 10.695l1.941-1.18c-1.792-3.263-.062-5.968 1.738-9.247-.691-.106-1.39-.19-2.091-.268z"/><g fill="#2D4552"><path d="M72.426 22.088c.145.542.7.864 1.241.719l2.937-.79c.541-.145.861-.703.717-1.245l-.787-2.947c-.145-.542-.7-.865-1.241-.719l-2.937.79c-.541.146-.861.704-.717 1.246l.787 2.946zM59.559 17.126l-.787-2.947c-.145-.542-.7-.864-1.241-.719l-2.937.789c-.541.146-.861.703-.717 1.246l.787 2.946c.145.543.7.864 1.241.719l2.937-.789c.541-.145.861-.703.717-1.245zM75.222 12.915l-.787-2.947c-.145-.542-.7-.864-1.241-.719l-2.937.79c-.541.145-.861.703-.717 1.245l.787 2.947c.145.542.7.864 1.241.719l2.937-.789c.541-.146.861-.704.717-1.246zM88.089 17.877c.106.402.439.68.824.739-.301-.373-.609-.739-.921-1.103l.097.364zM83.124 15.001l-2.938.79c-.54.145-.861.703-.717 1.245l.787 2.947c.146.542.701.864 1.241.719l2.938-.79c.54-.146.861-.703.716-1.245l-.786-2.947c-.145-.542-.701-.865-1.241-.719zM46.832 20.547c.146.542.701.864 1.241.719l2.938-.79c.54-.146.861-.703.717-1.246l-.787-2.947c-.146-.542-.701-.864-1.241-.719l-2.938.789c-.54.146-.861.703-.717 1.246l.787 2.948zM77.372 9.178l.786 2.947c.146.542.701.864 1.241.719l2.938-.789.129-.064c-1.554-1.328-3.186-2.565-4.895-3.697-.192.243-.286.56-.199.884zM53.109 28.334c.54-.145.861-.703.716-1.245l-.786-2.946c-.146-.543-.701-.865-1.242-.72l-2.937.79c-.54.146-.861.703-.717 1.245l.787 2.947c.146.542.701.865 1.241.719l2.938-.79zM91.166 25.472l-.787-2.946c-.145-.543-.7-.864-1.241-.719l-22.516 6.053c-.541.146-.861.703-.717 1.246l.787 2.947c.145.542.7.864 1.241.719l22.516-6.053c.541-.147.862-.704.717-1.247zM64.594 24.193c.145.543.701.865 1.241.72l2.937-.79c.541-.145.862-.703.717-1.245l-.787-2.947c-.145-.542-.7-.865-1.24-.719l-2.938.79c-.54.145-.861.702-.717 1.245l.787 2.946zM53.896 31.281l-2.937.789c-.541.146-.861.703-.717 1.246l.787 2.946c.145.542.7.864 1.241.719l2.937-.789c.541-.146.861-.703.717-1.246l-.787-2.946c-.145-.542-.7-.864-1.241-.719zM56.763 26.299c.145.542.7.864 1.241.719l2.937-.79c.541-.146.861-.703.717-1.245l-.787-2.947c-.145-.542-.7-.864-1.241-.719l-2.937.79c-.541.145-.862.703-.717 1.245l.787 2.947zM67.391 15.02l-.787-2.947c-.146-.542-.701-.864-1.241-.719l-2.938.789c-.54.146-.861.703-.716 1.246l.786 2.947c.146.542.701.864 1.241.719l2.938-.789c.54-.146.861-.704.717-1.246zM58.86 34.157c.146.542.701.864 1.242.719l2.937-.789c.541-.146.861-.703.717-1.246l-.787-2.947c-.145-.542-.701-.864-1.241-.719l-2.938.79c-.54.145-.861.703-.716 1.245l.786 2.947z"/></g><g fill="#475F6C"><path d="M73.426 21.088c.145.542.7.864 1.241.719l2.937-.79c.541-.145.861-.703.717-1.245l-.787-2.947c-.145-.542-.7-.865-1.241-.719l-2.937.79c-.541.146-.861.704-.717 1.246l.787 2.946zM76.222 11.915l-.787-2.947c-.145-.542-.7-.864-1.241-.719l-2.937.79c-.541.145-.861.703-.717 1.245l.787 2.947c.145.542.7.864 1.241.719l2.937-.789c.541-.146.861-.704.717-1.246zM79.158 11.125c.146.542.701.864 1.241.719l1.448-.389c-1.049-.868-2.141-1.684-3.259-2.465l.57 2.135zM47.832 19.547c.146.542.701.864 1.241.719l2.938-.79c.54-.146.861-.703.717-1.246l-.787-2.947c-.146-.542-.701-.864-1.241-.719l-2.938.789c-.54.146-.861.703-.717 1.246l.787 2.948zM84.727 14.045c-.188-.069-.394-.1-.603-.044l-2.938.79c-.54.145-.861.703-.717 1.245l.787 2.947c.146.542.701.864 1.241.719l2.938-.79c.54-.146.861-.703.716-1.245l-.786-2.947-.062-.125-.576-.55zM60.559 16.126l-.787-2.947c-.145-.542-.7-.864-1.241-.719l-2.937.789c-.541.146-.861.703-.717 1.246l.787 2.946c.145.543.7.864 1.241.719l2.937-.789c.541-.145.861-.703.717-1.245zM92.166 24.472l-.607-2.275c-.319-.476-.654-.94-.989-1.405-.14-.024-.285-.024-.432.015l-22.516 6.053c-.541.146-.861.703-.717 1.246l.787 2.947c.145.542.7.864 1.241.719l22.516-6.053c.541-.147.862-.704.717-1.247zM65.594 23.193c.145.543.701.865 1.241.72l2.937-.79c.541-.145.862-.703.717-1.245l-.787-2.947c-.145-.542-.7-.865-1.24-.719l-2.938.79c-.54.145-.861.702-.717 1.245l.787 2.946zM68.391 14.02l-.787-2.947c-.146-.542-.701-.864-1.241-.719l-2.938.789c-.54.146-.861.703-.716 1.246l.786 2.947c.146.542.701.864 1.241.719l2.938-.789c.54-.146.861-.704.717-1.246zM54.896 30.281l-2.937.789c-.541.146-.861.703-.717 1.246l.787 2.946c.145.542.7.864 1.241.719l2.937-.789c.541-.146.861-.703.717-1.246l-.787-2.946c-.145-.542-.7-.864-1.241-.719zM51.172 28.124l2.938-.79c.54-.145.861-.703.716-1.245l-.786-2.946c-.146-.543-.701-.865-1.242-.72l-2.937.79c-.54.146-.861.703-.717 1.245l.787 2.947c.145.542.701.865 1.241.719zM59.86 33.157c.146.542.701.864 1.242.719l2.937-.789c.541-.146.861-.703.717-1.246l-.787-2.947c-.145-.542-.701-.864-1.241-.719l-2.938.79c-.54.145-.861.703-.716 1.245l.786 2.947zM57.763 25.299c.145.542.7.864 1.241.719l2.937-.79c.541-.146.861-.703.717-1.245l-.787-2.947c-.145-.542-.7-.864-1.241-.719l-2.937.79c-.541.145-.862.703-.717 1.245l.787 2.947z"/></g></svg>