<?xml version="1.0" encoding="UTF-8" standalone="no"?>
<svg width="27" height="28" version="1.1" viewBox="0.351563 -51.0771 27.4721 27.5056" xmlns="http://www.w3.org/2000/svg" xmlns:xlink="http://www.w3.org/1999/xlink">
    <!--Generated by IJSVG (https://github.com/curthard89/IJSVG)-->
    <g fill="#000000">
        <path d="M6.07702,22.5c0,0.585938 -0.485492,1.07143 -1.07143,1.07143c-0.585938,0 -1.07143,-0.485492 -1.07143,-1.07143c0,-0.585938 0.485492,-1.07143 1.07143,-1.07143c0.585938,0 1.07143,0.485492 1.07143,1.07143Zm10.7813,-7.03126c-2.19308,-0.870537 -3.9509,-2.62835 -4.82143,-4.82144l-11.4007,11.4007c-0.401786,0.401786 -0.636161,0.954242 -0.636161,1.52344c0,0.569197 0.234375,1.12165 0.636161,1.5067l1.77456,1.80804c0.401786,0.385045 0.954242,0.61942 1.52344,0.61942c0.569198,0 1.12165,-0.234375 1.5067,-0.61942Zm10.6139,-7.28238c0,-0.334822 -0.200893,-0.585938 -0.535715,-0.585938c-0.334822,0 -4.21876,2.4442 -4.77121,2.76228l-3.23103,-1.7913v-3.75l4.90514,-2.82925c0.15067,-0.100446 0.267858,-0.284598 0.267858,-0.468751c0,-0.200893 -0.100447,-0.351562 -0.267858,-0.46875c-1.02121,-0.686385 -2.61161,-1.05469 -3.83371,-1.05469c-4.13505,0 -7.50001,3.36496 -7.50001,7.50001c0,4.13505 3.36496,7.50001 7.50001,7.50001c3.16407,0 6.02679,-2.05915 7.08148,-5.03907c0.184152,-0.535715 0.385045,-1.2221 0.385045,-1.77456Z" transform="translate(0.351563, -51.0771)"></path>
    </g>
</svg>