<?xml version="1.0" encoding="UTF-8" standalone="no"?>
<svg width="31" height="26" version="1.1" viewBox="1.07143 -49.2858 31.0715 25.7143" xmlns="http://www.w3.org/2000/svg" xmlns:xlink="http://www.w3.org/1999/xlink">
    <!--Generated by IJSVG (https://github.com/curthard89/IJSVG)-->
    <g fill="#000000">
        <path d="M9.64287,21.4286c0,1.18862 -0.954242,2.14286 -2.14286,2.14286c-1.18862,0 -2.14286,-0.954243 -2.14286,-2.14286c0,-1.18862 0.954242,-2.14286 2.14286,-2.14286c1.18862,0 2.14286,0.954242 2.14286,2.14286Zm-6.42858,-8.57144v-0.502233c0.016741,-0.100446 0.100447,-0.284598 0.15067,-0.368304l3.26451,-3.26451c0.083705,-0.066965 0.267857,-0.133929 0.368304,-0.15067h2.64509v4.28572Zm21.4286,8.57144c0,1.18862 -0.954242,2.14286 -2.14286,2.14286c-1.18862,0 -2.14286,-0.954243 -2.14286,-2.14286c0,-1.18862 0.954242,-2.14286 2.14286,-2.14286c1.18862,0 2.14286,0.954242 2.14286,2.14286Zm2.14286,-11.25c0,0.301339 -0.234375,0.535714 -0.535715,0.535714h-3.75v3.75001c0,0.30134 -0.234376,0.535715 -0.535715,0.535715h-3.21429c-0.301339,0 -0.535715,-0.234375 -0.535715,-0.535715v-3.75001h-3.75c-0.30134,0 -0.535715,-0.234375 -0.535715,-0.535714v-3.21429c0,-0.30134 0.234375,-0.535715 0.535715,-0.535715h3.75v-3.75c0,-0.30134 0.234376,-0.535715 0.535715,-0.535715h3.21429c0.301339,0 0.535715,0.234375 0.535715,0.535715v3.75h3.75c0.30134,0 0.535715,0.234375 0.535715,0.535715Zm4.28572,-9.10715c0,-0.585938 -0.485491,-1.07143 -1.07143,-1.07143h-19.2857c-0.585938,0 -1.07143,0.485492 -1.07143,1.07143v5.35715h-2.67857c-0.585938,0 -1.40625,0.334822 -1.82478,0.753349l-3.31474,3.31474c-0.418527,0.418528 -0.753349,1.23884 -0.753349,1.82478v6.96429c-0.585939,0 -1.07143,0.485492 -1.07143,1.07143c0,0.585938 0.485491,1.07143 1.07143,1.07143h2.14286c0,2.36049 1.90848,4.28572 4.28572,4.28572c2.37724,0 4.28572,-1.92523 4.28572,-4.28572h6.42858c0,2.36049 1.92523,4.28572 4.28572,4.28572c2.37724,0 4.28572,-1.92523 4.28572,-4.28572h3.21429c0.585938,0 1.07143,-0.485492 1.07143,-1.07143Z" transform="translate(1.07143, -49.2858)"></path>
    </g>
</svg>