<?xml version="1.0" encoding="UTF-8"?>
<svg width="28" height="26" version="1.1" viewBox="1.07143 -49.2858 27.8572 25.7143" xmlns="http://www.w3.org/2000/svg" xmlns:xlink="http://www.w3.org/1999/xlink">
    <!--Generated by IJSVG (https://github.com/curthard89/IJSVG)-->
    <g fill="#000000">
        <path d="M17.1429,11.7857c0,0.585938 -0.485491,1.07143 -1.07143,1.07143h-4.28572c-0.585938,0 -1.07143,-0.485492 -1.07143,-1.07143c0,-0.585938 0.485492,-1.07143 1.07143,-1.07143h4.28572c0.585938,0 1.07143,0.485492 1.07143,1.07143Zm9.64287,-3.21429c0,-0.585938 -0.485492,-1.07143 -1.07143,-1.07143h-23.5715c-0.585939,0 -1.07143,0.485492 -1.07143,1.07143v16.0714c0,0.585939 0.485491,1.07143 1.07143,1.07143h23.5715c0.585938,0 1.07143,-0.485491 1.07143,-1.07143Zm1.07143,-7.50001c0,-0.585938 -0.485492,-1.07143 -1.07143,-1.07143h-25.7143c-0.585939,0 -1.07143,0.485492 -1.07143,1.07143v4.28572c0,0.585938 0.485491,1.07143 1.07143,1.07143h25.7143c0.585938,0 1.07143,-0.485492 1.07143,-1.07143Z" transform="translate(1.07143, -49.2858)"></path>
    </g>
</svg>