<svg width="28" height="26" viewBox="1.07143 -49.2858 27.8572 25.7143" xmlns="http://www.w3.org/2000/svg"><path d="M18.214-37.5c0 .586-.485 1.071-1.071 1.071h-4.286a1.079 1.079 0 0 1-1.071-1.071c0-.586.485-1.072 1.071-1.072h4.286c.586 0 1.071.486 1.071 1.072zm9.643-3.214c0-.586-.485-1.072-1.071-1.072H3.214c-.586 0-1.071.486-1.071 1.072v16.071c0 .586.485 1.071 1.071 1.071h23.572c.586 0 1.071-.485 1.071-1.071zm1.072-7.5c0-.586-.486-1.072-1.072-1.072H2.143c-.586 0-1.072.486-1.072 1.072v4.285c0 .586.486 1.072 1.072 1.072h25.714c.586 0 1.072-.486 1.072-1.072z"/></svg>