<?xml version="1.0" encoding="UTF-8"?>
<svg width="30" height="26" version="1.1" viewBox="0 -49.2858 30 25.7143" xmlns="http://www.w3.org/2000/svg" xmlns:xlink="http://www.w3.org/1999/xlink">
    <!--Generated by IJSVG (https://github.com/curthard89/IJSVG)-->
    <g fill="#000000">
        <path d="M15.5357,11.7857c0,0.30134 -0.234375,0.535715 -0.535715,0.535715c-0.887278,0 -1.60715,0.719867 -1.60715,1.60714c0,0.30134 -0.234375,0.535715 -0.535715,0.535715c-0.301339,0 -0.535715,-0.234375 -0.535715,-0.535715c0,-1.47322 1.20536,-2.67858 2.67858,-2.67858c0.30134,0 0.535715,0.234376 0.535715,0.535715Zm3.75,2.17634c0,-2.36049 -1.92523,-4.28572 -4.28572,-4.28572c-2.36049,0 -4.28572,1.92523 -4.28572,4.28572c0,2.36049 1.92523,4.28572 4.28572,4.28572c2.36049,0 4.28572,-1.92523 4.28572,-4.28572Zm-17.1429,9.60939v-2.14286h25.7143v2.14286Zm19.2857,-9.60939c0,3.54911 -2.87947,6.42858 -6.42858,6.42858c-3.54911,0 -6.42858,-2.87947 -6.42858,-6.42858c0,-3.54911 2.87947,-6.42858 6.42858,-6.42858c3.54911,0 6.42858,2.87947 6.42858,6.42858Zm-17.1429,-10.7478v-2.14286h6.42858v2.14286Zm-2.14286,3.21429v-2.14286h10.7813l1.07143,-2.14286h13.8616v2.31027v1.97545Zm27.8572,-4.28572c0,-1.18862 -0.954242,-2.14286 -2.14286,-2.14286h-25.7143c-1.18862,0 -2.14286,0.954242 -2.14286,2.14286v21.4286c0,1.18862 0.954242,2.14286 2.14286,2.14286h25.7143c1.18862,0 2.14286,-0.954242 2.14286,-2.14286Z" transform="translate(0, -49.2858)"></path>
    </g>
</svg>