<svg width="30" height="24" viewBox="0 -45.0335 30 23.6049" xmlns="http://www.w3.org/2000/svg"><path d="M23.572-36.462c0-4.738-5.274-8.571-11.786-8.571S0-41.2 0-36.463c0 2.713 1.741 5.14 4.453 6.714-.569 1.39-1.306 2.043-1.958 2.78-.185.217-.402.418-.335.736.05.284.284.485.535.485h.05c.503-.067.988-.15 1.44-.268a14.055 14.055 0 0 0 4.654-2.142c.938.167 1.926.267 2.947.267 6.512 0 11.786-3.833 11.786-8.571zM30-32.176c0-2.796-1.841-5.274-4.67-6.83.25.82.384 1.673.384 2.544 0 2.997-1.54 5.759-4.336 7.801-2.594 1.875-5.993 2.913-9.592 2.913-.486 0-.988-.033-1.473-.067 2.092 1.373 4.871 2.21 7.901 2.21 1.022 0 2.01-.1 2.947-.268a14.055 14.055 0 0 0 4.654 2.143c.452.117.937.201 1.44.268.267.033.518-.184.585-.486.067-.318-.15-.519-.334-.736-.653-.737-1.39-1.39-1.96-2.78C28.26-27.036 30-29.447 30-32.175z"/></svg>