<?xml version="1.0" encoding="UTF-8" standalone="no"?>
<svg width="15px" height="14px" viewBox="0 0 15 14" version="1.1" xmlns="http://www.w3.org/2000/svg" xmlns:xlink="http://www.w3.org/1999/xlink">
    <!-- Generator: Sketch 39.1 (31720) - http://www.bohemiancoding.com/sketch -->
    <title>content</title>
    <desc>Created with Sketch.</desc>
    <defs></defs>
    <g id="Symbols" stroke="none" stroke-width="1" fill="none" fill-rule="evenodd">
        <g id="admin-/-menu-sub-horizontal" transform="translate(-17.000000, -8.000000)" fill="#FFFFFF">
            <path d="M26.142868,14.2857218 C26.142868,14.5982222 25.8839392,14.857151 25.5714388,14.857151 L23.2857218,14.857151 C22.9732214,14.857151 22.7142925,14.5982222 22.7142925,14.2857218 C22.7142925,13.9732214 22.9732214,13.7142925 23.2857218,13.7142925 L25.5714388,13.7142925 C25.8839392,13.7142925 26.142868,13.9732214 26.142868,14.2857218 L26.142868,14.2857218 Z M31.2857313,12.571434 C31.2857313,12.2589336 31.0268024,12.0000048 30.7143021,12.0000048 L18.1428585,12.0000048 C17.8303581,12.0000048 17.5714293,12.2589336 17.5714293,12.571434 L17.5714293,21.1428728 C17.5714293,21.4553732 17.8303581,21.7143021 18.1428585,21.7143021 L30.7143021,21.7143021 C31.0268024,21.7143021 31.2857313,21.4553732 31.2857313,21.1428728 L31.2857313,12.571434 Z M31.8571606,8.57142925 C31.8571606,8.25892888 31.5982317,8 31.2857313,8 L17.5714293,8 C17.2589289,8 17,8.25892888 17,8.57142925 L17,10.8571463 C17,11.1696466 17.2589289,11.4285755 17.5714293,11.4285755 L31.2857313,11.4285755 C31.5982317,11.4285755 31.8571606,11.1696466 31.8571606,10.8571463 L31.8571606,8.57142925 Z" id="content"></path>
        </g>
    </g>
</svg>