<svg width="15" height="14" viewBox="0 0 15 14" xmlns="http://www.w3.org/2000/svg"><title>content</title><path d="M9.143 6.286a.575.575 0 0 1-.572.571H6.286a.575.575 0 0 1-.572-.571c0-.313.26-.572.572-.572H8.57c.313 0 .572.26.572.572zm5.143-1.715A.575.575 0 0 0 13.714 4H1.143a.575.575 0 0 0-.572.571v8.572c0 .312.26.571.572.571h12.571a.575.575 0 0 0 .572-.571V4.57zm.571-4A.575.575 0 0 0 14.286 0H.57A.575.575 0 0 0 0 .571v2.286c0 .313.259.572.571.572h13.715a.575.575 0 0 0 .571-.572V.571z" fill="#FFF" fill-rule="evenodd"/></svg>