<?xml version="1.0" encoding="UTF-8" standalone="no"?>
<svg width="36" height="30" version="1.1" viewBox="0 -55.7144 36.4286 30" xmlns="http://www.w3.org/2000/svg" xmlns:xlink="http://www.w3.org/1999/xlink">
    <!--Generated by IJSVG (https://github.com/curthard89/IJSVG)-->
    <g fill="#000000">
        <path d="M10.7143,27.3215v-5.72545l6.42858,-2.74554v5.2567Zm-1.07143,-7.60046l-6.7634,-2.89621l6.7634,-2.89621l6.7634,2.89621Zm18.2143,7.60046v-5.72545l6.42858,-2.74554v5.2567Zm-1.07143,-7.60046l-6.7634,-2.89621l6.7634,-2.89621l6.7634,2.89621Zm-7.50001,-4.90514v-4.46987l6.42858,-2.74554v4.45313Zm-1.07143,-6.34487l-7.38282,-3.16407l7.38282,-3.16407l7.38282,3.16407Zm18.2143,8.67189c0,-0.853795 -0.502233,-1.62389 -1.3058,-1.97545l-7.26563,-3.11384v-6.69644c0,-0.853796 -0.518974,-1.62389 -1.3058,-1.97545l-7.50001,-3.21429c-0.267857,-0.117188 -0.552456,-0.167411 -0.837055,-0.167411c-0.284598,0 -0.569197,0.050223 -0.837054,0.167411l-7.50001,3.21429c-0.786831,0.351563 -1.3058,1.12165 -1.3058,1.97545v6.69644l-7.26563,3.11384c-0.786831,0.351563 -1.30581,1.12165 -1.30581,1.97545v6.96429c0,0.803573 0.452009,1.55692 1.18862,1.90848l7.50001,3.75c0.30134,0.167411 0.619421,0.234376 0.954243,0.234376c0.334821,0 0.652902,-0.066965 0.954242,-0.234376l7.50001,-3.75c0.050223,-0.016741 0.083705,-0.033482 0.117187,-0.066964c0.033483,0.033482 0.066965,0.050223 0.117188,0.066964l7.50001,3.75c0.30134,0.167411 0.61942,0.234376 0.954242,0.234376c0.334822,0 0.652903,-0.066965 0.954242,-0.234376l7.50001,-3.75c0.736608,-0.351563 1.18862,-1.10491 1.18862,-1.90848Z" transform="translate(0, -55.7144)"></path>
    </g>
</svg>