<svg width="36" height="30" viewBox="0 -55.7144 36.4286 30" xmlns="http://www.w3.org/2000/svg"><path d="M10.714-28.393v-5.725l6.429-2.746v5.257zm-1.071-7.6L2.879-38.89l6.764-2.896 6.763 2.896zm18.214 7.6v-5.725l6.429-2.746v5.257zm-1.071-7.6l-6.764-2.897 6.764-2.896 6.763 2.896zm-7.5-4.905v-4.47l6.428-2.746v4.453zm-1.072-6.345l-7.383-3.164 7.383-3.165 7.383 3.165zm18.215 8.672a2.15 2.15 0 0 0-1.306-1.976l-7.266-3.114v-6.696c0-.854-.519-1.624-1.306-1.976l-7.5-3.214a2.077 2.077 0 0 0-.837-.167c-.284 0-.569.05-.837.167l-7.5 3.214a2.178 2.178 0 0 0-1.306 1.976v6.696l-7.265 3.114A2.178 2.178 0 0 0 0-38.57v6.964c0 .803.452 1.557 1.189 1.908l7.5 3.75c.301.168.62.235.954.235.335 0 .653-.067.954-.235l7.5-3.75a.27.27 0 0 0 .117-.067.27.27 0 0 0 .118.067l7.5 3.75c.3.168.619.235.954.235.335 0 .653-.067.954-.235l7.5-3.75a2.112 2.112 0 0 0 1.189-1.908z"/></svg>