<svg width="16" height="16" viewBox="0 0 16 16" xmlns="http://www.w3.org/2000/svg"><title>help</title><path d="M8 0C3.58 0 0 3.58 0 8s3.58 8 8 8 8-3.58 8-8-3.58-8-8-8zm0 1.143c1.16 0 2.259.295 3.223.803L9.491 3.68a4.583 4.583 0 0 0-2.982 0L4.777 1.946A6.895 6.895 0 0 1 8 1.143zm-6.054 10.08A6.895 6.895 0 0 1 1.143 8c0-1.16.295-2.259.803-3.223L3.68 6.509a4.583 4.583 0 0 0 0 2.982l-1.733 1.732zM8 14.857a6.895 6.895 0 0 1-3.223-.803l1.732-1.733a4.583 4.583 0 0 0 2.982 0l1.732 1.733A6.895 6.895 0 0 1 8 14.857zm0-3.428A3.43 3.43 0 0 1 8 4.57a3.43 3.43 0 0 1 0 6.858zm4.321-1.938c.161-.473.25-.973.25-1.491 0-.518-.089-1.018-.25-1.491l1.733-1.732c.509.964.803 2.062.803 3.223 0 1.16-.294 2.259-.803 3.223L12.32 9.491z" fill="#FFF" fill-rule="evenodd"/></svg>