<?xml version="1.0" encoding="UTF-8" standalone="no"?>
<svg width="16px" height="15px" viewBox="0 0 16 15" version="1.1" xmlns="http://www.w3.org/2000/svg" xmlns:xlink="http://www.w3.org/1999/xlink">
    <!-- Generator: Sketch 39.1 (31720) - http://www.bohemiancoding.com/sketch -->
    <title>love</title>
    <desc>Created with Sketch.</desc>
    <defs></defs>
    <g id="Page-1" stroke="none" stroke-width="1" fill="none" fill-rule="evenodd">
        <g id="Artboard" transform="translate(-1651.000000, -2090.000000)" fill="#FF6661">
            <g id="admin-menu-7" transform="translate(1490.000000, 2076.000000)">
                <path d="M169.00001,28.1428585 C169.142867,28.1428585 169.285724,28.089287 169.392867,27.982144 L174.955374,22.6249948 C175.035731,22.5446375 177.000019,20.7499925 177.000019,18.6071329 C177.000019,15.9910583 175.401803,14.4285564 172.732157,14.4285564 C171.169655,14.4285564 169.705368,15.6607008 169.00001,16.3571302 C168.294652,15.6607008 166.830364,14.4285564 165.267862,14.4285564 C162.598216,14.4285564 161,15.9910583 161,18.6071329 C161,20.7499925 162.964288,22.5446375 163.035717,22.6071376 L168.607152,27.982144 C168.714295,28.089287 168.857152,28.1428585 169.00001,28.1428585 L169.00001,28.1428585 Z" id="love"></path>
            </g>
        </g>
    </g>
</svg>