<svg width="16" height="14" viewBox="0 0 16 14" xmlns="http://www.w3.org/2000/svg"><title>manage</title><path d="M3.429 8.571a1.14 1.14 0 0 1-1.143 1.143 1.14 1.14 0 0 1-1.143-1.143A1.14 1.14 0 0 1 2.286 7.43 1.14 1.14 0 0 1 3.429 8.57zm1.714-4A1.14 1.14 0 0 1 4 5.714a1.14 1.14 0 0 1-1.143-1.143A1.14 1.14 0 0 1 4 3.43 1.14 1.14 0 0 1 5.143 4.57zm3.821 4.295c.58.402.884 1.134.697 1.857a1.722 1.722 0 0 1-2.098 1.223 1.722 1.722 0 0 1-1.224-2.098A1.709 1.709 0 0 1 7.857 8.58l.902-3.41a.574.574 0 0 1 .696-.411c.304.08.483.393.411.696l-.902 3.411zm5.893-.295a1.14 1.14 0 0 1-1.143 1.143 1.14 1.14 0 0 1-1.143-1.143 1.14 1.14 0 0 1 1.143-1.142 1.14 1.14 0 0 1 1.143 1.142zM9.143 2.857A1.14 1.14 0 0 1 8 4a1.14 1.14 0 0 1-1.143-1.143A1.14 1.14 0 0 1 8 1.714a1.14 1.14 0 0 1 1.143 1.143zm4 1.714A1.14 1.14 0 0 1 12 5.714a1.14 1.14 0 0 1-1.143-1.143A1.14 1.14 0 0 1 12 3.43a1.14 1.14 0 0 1 1.143 1.142zm2.857 4c0-4.41-3.59-8-8-8s-8 3.59-8 8c0 1.536.438 3.027 1.259 4.313.107.16.286.259.482.259H14.26a.578.578 0 0 0 .482-.26A8.02 8.02 0 0 0 16 8.572z" fill="#FBA026" fill-rule="evenodd"/></svg>