<?xml version="1.0" encoding="UTF-8" standalone="no"?>
<svg width="30" height="26" version="1.1" viewBox="0 -49.2858 30 25.7143" xmlns="http://www.w3.org/2000/svg" xmlns:xlink="http://www.w3.org/1999/xlink">
    <!--Generated by IJSVG (https://github.com/curthard89/IJSVG)-->
    <g fill="#000000">
        <path d="M21.4286,16.6072c0,0.301339 -0.234375,0.535715 -0.535715,0.535715h-3.75v3.75c0,0.30134 -0.234376,0.535715 -0.535715,0.535715h-3.21429c-0.30134,0 -0.535715,-0.234375 -0.535715,-0.535715v-3.75h-3.75c-0.30134,0 -0.535715,-0.234376 -0.535715,-0.535715v-3.21429c0,-0.30134 0.234375,-0.535715 0.535715,-0.535715h3.75v-3.75c0,-0.30134 0.234375,-0.535715 0.535715,-0.535715h3.21429c0.301339,0 0.535715,0.234375 0.535715,0.535715v3.75h3.75c0.30134,0 0.535715,0.234375 0.535715,0.535715Zm-10.7143,-12.3214v-2.14286h8.57144v2.14286Zm-6.42858,0h-0.535715c-2.05915,0 -3.75,1.69085 -3.75,3.75001v13.9286c0,2.05915 1.69085,3.75 3.75,3.75h0.535715Zm19.8215,0h-2.67857v-2.67857c0,-0.887278 -0.719867,-1.60714 -1.60714,-1.60714h-9.64287c-0.887278,0 -1.60715,0.719867 -1.60715,1.60714v2.67857h-2.67857v21.4286h18.2143Zm5.89286,3.75001c0,-2.05915 -1.69085,-3.75001 -3.75001,-3.75001h-0.535715v21.4286h0.535715c2.05916,0 3.75001,-1.69085 3.75001,-3.75Z" transform="translate(0, -49.2858)"></path>
    </g>
</svg>