<svg width="28" height="26" viewBox="0 -52.0313 27.8572 26.317" xmlns="http://www.w3.org/2000/svg"><path d="M27.857-33.65c0-1.757-.97-3.381-2.896-3.381-2.126 0-3.047 1.624-4.202 1.624-.586 0-1.105-.369-1.49-.77-.485-.52-.586-1.256-.586-1.96 0-1.372.184-2.745.402-4.1.033-.168.15-1.156.2-1.223v-.033c-1.908.1-3.816.535-5.741.535-1.189 0-2.428-.468-2.428-1.841 0-1.842 1.858-2.377 1.858-4.42 0-1.825-1.44-2.812-3.147-2.812-1.775 0-3.398.97-3.398 2.896 0 2.126 1.623 3.047 1.623 4.202 0 .586-.368 1.105-.77 1.49-.519.485-1.255.586-1.958.586-1.373 0-2.746-.184-4.102-.402-.167-.033-1.155-.15-1.222-.2v17.142c0 .017.05.017.084.034l.217.033c.302.05.62.084.921.134 1.356.218 2.729.402 4.102.402.703 0 1.44-.1 1.958-.586.402-.385.77-.904.77-1.49 0-1.155-1.623-2.076-1.623-4.202 0-1.925 1.623-2.896 3.381-2.896 1.725 0 3.164.987 3.164 2.812 0 2.042-1.858 2.578-1.858 4.42 0 1.373 1.239 1.841 2.428 1.841 1.74 0 3.482-.335 5.206-.502.184-.017.368-.017.553-.017v-.083c.016-1.29-.52-2.545-.52-3.85 0-1.24.503-2.077 1.842-2.077 1.842 0 2.377 1.858 4.42 1.858 1.824 0 2.812-1.44 2.812-3.164z"/></svg>