<?xml version="1.0" encoding="UTF-8" standalone="no"?>
<svg width="28" height="26" version="1.1" viewBox="0 -52.0313 27.8572 26.317" xmlns="http://www.w3.org/2000/svg" xmlns:xlink="http://www.w3.org/1999/xlink">
    <!--Generated by IJSVG (https://github.com/curthard89/IJSVG)-->
    <g fill="#000000">
        <path d="M27.8572,18.3817c0,-1.75781 -0.970983,-3.3817 -2.89621,-3.3817c-2.12612,0 -3.04688,1.62389 -4.20201,1.62389c-0.585938,0 -1.10491,-0.368304 -1.48996,-0.77009c-0.485491,-0.518974 -0.585938,-1.25558 -0.585938,-1.95871c0,-1.37277 0.184152,-2.74554 0.401786,-4.10157c0.033482,-0.16741 0.15067,-1.15514 0.200893,-1.2221v-0.033482c-1.90848,0.100446 -3.81697,0.535715 -5.74219,0.535715c-1.18862,0 -2.42746,-0.468751 -2.42746,-1.84152c0,-1.84152 1.85826,-2.37723 1.85826,-4.41965c0,-1.82478 -1.43973,-2.8125 -3.14733,-2.8125c-1.77456,0 -3.39844,0.970983 -3.39844,2.89621c0,2.12612 1.62389,3.04688 1.62389,4.20201c0,0.585938 -0.368304,1.10491 -0.77009,1.48996c-0.518974,0.485492 -1.25558,0.585938 -1.95871,0.585938c-1.37277,0 -2.74554,-0.184152 -4.10157,-0.401786c-0.167411,-0.033482 -1.15514,-0.15067 -1.2221,-0.200893v17.1429c0,0.016741 0.050223,0.016741 0.083705,0.033483l0.217635,0.033482c0.301339,0.050223 0.61942,0.083705 0.92076,0.133928c1.35603,0.217635 2.7288,0.401787 4.10157,0.401787c0.703126,0 1.43973,-0.100447 1.95871,-0.585939c0.401786,-0.385045 0.77009,-0.904019 0.77009,-1.48996c0,-1.15514 -1.62389,-2.07589 -1.62389,-4.20201c0,-1.92523 1.62389,-2.89621 3.3817,-2.89621c1.72433,0 3.16407,0.987724 3.16407,2.8125c0,2.04241 -1.85826,2.57813 -1.85826,4.41965c0,1.37277 1.23884,1.84152 2.42746,1.84152c1.74107,0 3.48215,-0.334822 5.20648,-0.502233c0.184152,-0.016741 0.368304,-0.016741 0.552456,-0.016741v-0.083705c0.016741,-1.28906 -0.518973,-2.54465 -0.518973,-3.85045c0,-1.23884 0.502232,-2.0759 1.84152,-2.0759c1.84152,0 2.37723,1.85826 4.41965,1.85826c1.82478,0 2.8125,-1.43973 2.8125,-3.16407Z" transform="translate(0, -52.0313)"></path>
    </g>
</svg>