<svg width="30" height="30" viewBox="-0.033482 -55.8483 30.0837 30.067" xmlns="http://www.w3.org/2000/svg"><path d="M29.531-55.597a1.04 1.04 0 0 0-1.138-.034L.536-39.559c-.352.2-.57.586-.536.987.033.419.285.77.67.921L8.57-34.42v7.567c0 .435.268.837.687 1.005.117.05.25.067.385.067.301 0 .586-.118.787-.352l4.989-5.474 8.822 3.6c.134.05.268.083.402.083a1.076 1.076 0 0 0 1.055-.887l4.285-25.715c.067-.418-.1-.82-.452-1.071zm-5.725 25.095l-8.237-3.365 8.002-13.343L9.124-36.512l-5.625-2.294L27.506-52.65z"/></svg>