<?xml version="1.0" encoding="UTF-8"?>
<svg width="26" height="21" version="1.1" viewBox="0 -42.8572 26.25 21.4286" xmlns="http://www.w3.org/2000/svg" xmlns:xlink="http://www.w3.org/1999/xlink">
    <!--Generated by IJSVG (https://github.com/curthard89/IJSVG)-->
    <g fill="#000000">
        <path d="M10.7143,19.8215c0,-0.61942 -0.652902,-0.535715 -1.07143,-0.535715h-4.82143c-1.47322,0 -2.67857,-1.20536 -2.67857,-2.67857v-11.7857c0,-1.47322 1.20536,-2.67857 2.67857,-2.67857h5.35715c0.753349,0 0.535714,-1.13839 0.535714,-1.60714c0,-0.284599 -0.251116,-0.535715 -0.535714,-0.535715h-5.35715c-2.66183,0 -4.82143,2.1596 -4.82143,4.82143v11.7857c0,2.66183 2.1596,4.82143 4.82143,4.82143h5.35715c0.753349,0 0.535714,-1.13839 0.535714,-1.60714Zm15.5357,-9.10715c0,-0.284599 -0.117187,-0.552456 -0.31808,-0.75335l-9.10715,-9.10715c-0.200893,-0.200893 -0.468751,-0.318081 -0.753349,-0.318081c-0.585938,0 -1.07143,0.485492 -1.07143,1.07143v4.82143h-7.50001c-0.585938,0 -1.07143,0.485492 -1.07143,1.07143v6.42858c0,0.585938 0.485492,1.07143 1.07143,1.07143h7.50001v4.82143c0,0.585938 0.485492,1.07143 1.07143,1.07143c0.284598,0 0.552456,-0.117188 0.753349,-0.318081l9.10715,-9.10715c0.200893,-0.200893 0.31808,-0.468751 0.31808,-0.753349Z" transform="translate(0, -42.8572)"></path>
    </g>
</svg>