<svg width="26" height="21" viewBox="0 -42.8572 26.25 21.4286" xmlns="http://www.w3.org/2000/svg"><path d="M10.714-23.036c0-.62-.653-.535-1.071-.535H4.82a2.686 2.686 0 0 1-2.678-2.679v-11.786a2.686 2.686 0 0 1 2.678-2.678h5.358c.753 0 .535-1.139.535-1.607a.55.55 0 0 0-.535-.536H4.82A4.823 4.823 0 0 0 0-38.036v11.786a4.823 4.823 0 0 0 4.821 4.821h5.358c.753 0 .535-1.138.535-1.607zm15.536-9.107c0-.284-.117-.552-.318-.753l-9.107-9.107c-.201-.201-.469-.318-.754-.318-.586 0-1.071.485-1.071 1.071v4.821H7.5c-.586 0-1.071.486-1.071 1.072v6.428c0 .586.485 1.072 1.071 1.072H15v4.821c0 .586.485 1.072 1.071 1.072.285 0 .553-.117.754-.318l9.107-9.108c.2-.2.318-.468.318-.753z"/></svg>