<?xml version="1.0" encoding="UTF-8" standalone="no"?>
<svg width="26" height="24" version="1.1" viewBox="0 -45.0001 25.7143 23.5715" xmlns="http://www.w3.org/2000/svg" xmlns:xlink="http://www.w3.org/1999/xlink">
    <!--Generated by IJSVG (https://github.com/curthard89/IJSVG)-->
    <g fill="#000000">
        <path d="M5.89286,19.2857h-5.89286v2.14286h5.89286Zm5.89286,-2.14286h-4.28572c-0.585938,0 -1.07143,0.485492 -1.07143,1.07143v4.28572c0,0.585938 0.485492,1.07143 1.07143,1.07143h4.28572c0.585939,0 1.07143,-0.485492 1.07143,-1.07143v-4.28572c0,-0.585938 -0.485491,-1.07143 -1.07143,-1.07143Zm2.67857,-6.42858h-14.4643v2.14286h14.4643Zm-10.7143,-8.57144h-3.75v2.14286h3.75Zm21.9643,17.1429h-12.3214v2.14286h12.3214Zm-16.0714,-19.2857h-4.28572c-0.585938,0 -1.07143,0.485492 -1.07143,1.07143v4.28572c0,0.585938 0.485492,1.07143 1.07143,1.07143h4.28572c0.585938,0 1.07143,-0.485491 1.07143,-1.07143v-4.28572c0,-0.585938 -0.485491,-1.07143 -1.07143,-1.07143Zm10.7143,8.57144h-4.28572c-0.585938,0 -1.07143,0.485492 -1.07143,1.07143v4.28572c0,0.585939 0.485492,1.07143 1.07143,1.07143h4.28572c0.585938,0 1.07143,-0.485491 1.07143,-1.07143v-4.28572c0,-0.585938 -0.485492,-1.07143 -1.07143,-1.07143Zm5.35715,2.14286h-3.75v2.14286h3.75Zm0,-8.57144h-14.4643v2.14286h14.4643Z" transform="translate(0, -45.0001)"></path>
    </g>
</svg>