<svg width="26" height="24" viewBox="0 -45.0001 25.7143 23.5715" xmlns="http://www.w3.org/2000/svg"><path d="M5.893-25.714H0v2.142h5.893zm5.893-2.143H7.5c-.586 0-1.071.485-1.071 1.071v4.286c0 .586.485 1.071 1.071 1.071h4.286c.586 0 1.071-.485 1.071-1.071v-4.286c0-.586-.485-1.071-1.071-1.071zm2.678-6.429H0v2.143h14.464zM3.75-42.857H0v2.143h3.75zm21.964 17.143H13.393v2.142h12.321zM9.643-45H5.357c-.586 0-1.071.485-1.071 1.071v4.286c0 .586.485 1.071 1.071 1.071h4.286c.586 0 1.071-.485 1.071-1.07v-4.287c0-.586-.485-1.071-1.071-1.071zm10.714 8.571h-4.286c-.585 0-1.071.486-1.071 1.072v4.286c0 .585.486 1.07 1.071 1.07h4.286c.586 0 1.072-.485 1.072-1.07v-4.286c0-.586-.486-1.072-1.072-1.072zm5.357 2.143h-3.75v2.143h3.75zm0-8.571H11.25v2.143h14.464z"/></svg>