<?xml version="1.0" encoding="UTF-8"?>
<svg width="28" height="29" version="1.1" viewBox="1.07143 -54.6429 27.8572 28.9286" xmlns="http://www.w3.org/2000/svg" xmlns:xlink="http://www.w3.org/1999/xlink">
    <!--Generated by IJSVG (https://github.com/curthard89/IJSVG)-->
    <g fill="#000000">
        <path d="M7.73438,23.3371c0,-1.18862 -0.954242,-2.14286 -2.14286,-2.14286c-1.17188,0 -2.14286,0.954243 -2.14286,2.14286c0,1.17188 0.970983,2.14286 2.14286,2.14286c1.18862,0 2.14286,-0.970983 2.14286,-2.14286Zm8.33706,3.44867c0,-1.18862 -0.954243,-2.14286 -2.14286,-2.14286c-1.18862,0 -2.14286,0.954242 -2.14286,2.14286c0,1.18862 0.954242,2.14286 2.14286,2.14286c1.18862,0 2.14286,-0.954243 2.14286,-2.14286Zm-11.7857,-11.7857c-8.88178e-16,-1.18862 -0.954242,-2.14286 -2.14286,-2.14286c-1.18862,0 -2.14286,0.954242 -2.14286,2.14286c0,1.18862 0.954242,2.14286 2.14286,2.14286c1.18862,0 2.14286,-0.954242 2.14286,-2.14286Zm20.1228,8.33706c0,-1.18862 -0.970983,-2.14286 -2.14286,-2.14286c-1.18862,0 -2.14286,0.954243 -2.14286,2.14286c0,1.17188 0.954242,2.14286 2.14286,2.14286c1.17188,0 2.14286,-0.970983 2.14286,-2.14286Zm-16.1384,-16.6741c1.77636e-15,-1.47322 -1.20536,-2.67858 -2.67857,-2.67858c-1.47322,0 -2.67857,1.20536 -2.67857,2.67858c0,1.47322 1.20536,2.67858 2.67857,2.67858c1.47322,0 2.67858,-1.20536 2.67858,-2.67858Zm19.5871,8.33706c0,-1.18862 -0.954242,-2.14286 -2.14286,-2.14286c-1.18862,0 -2.14286,0.954242 -2.14286,2.14286c0,1.18862 0.954242,2.14286 2.14286,2.14286c1.18862,0 2.14286,-0.954242 2.14286,-2.14286Zm-10.7143,-11.7857c0,-1.77455 -1.43973,-3.21429 -3.21429,-3.21429c-1.77456,0 -3.21429,1.43973 -3.21429,3.21429c0,1.77456 1.43973,3.21429 3.21429,3.21429c1.77456,0 3.21429,-1.43973 3.21429,-3.21429Zm8.87278,3.44866c0,-2.05915 -1.69085,-3.75 -3.75,-3.75c-2.0759,0 -3.75,1.69085 -3.75,3.75c0,2.0759 1.67411,3.75001 3.75,3.75001c2.05915,0 3.75,-1.67411 3.75,-3.75001Z" transform="translate(1.07143, -54.6429)"></path>
    </g>
</svg>