<?xml version="1.0" encoding="UTF-8" standalone="no"?>
<svg width="16px" height="14px" viewBox="0 0 16 14" version="1.1" xmlns="http://www.w3.org/2000/svg" xmlns:xlink="http://www.w3.org/1999/xlink">
    <!-- Generator: Sketch 39.1 (31720) - http://www.bohemiancoding.com/sketch -->
    <title>structure</title>
    <desc>Created with Sketch.</desc>
    <defs></defs>
    <g id="Symbols" stroke="none" stroke-width="1" fill="none" fill-rule="evenodd">
        <g id="admin-/-menu-sub-horizontal" transform="translate(-121.000000, -8.000000)" fill="#FFFFFF">
            <path d="M137.000019,18.0000119 C137.000019,17.5267971 136.61609,17.142868 136.142875,17.142868 L135.285731,17.142868 L135.285731,15.4285803 C135.285731,14.8035795 134.767874,14.2857218 134.142873,14.2857218 L129.571439,14.2857218 L129.571439,12.571434 L130.428583,12.571434 C130.901798,12.571434 131.285727,12.187505 131.285727,11.7142901 L131.285727,8.85714388 C131.285727,8.38392903 130.901798,8 130.428583,8 L127.571436,8 C127.098222,8 126.714293,8.38392903 126.714293,8.85714388 L126.714293,11.7142901 C126.714293,12.187505 127.098222,12.571434 127.571436,12.571434 L128.42858,12.571434 L128.42858,14.2857218 L123.857146,14.2857218 C123.232146,14.2857218 122.714288,14.8035795 122.714288,15.4285803 L122.714288,17.142868 L121.857144,17.142868 C121.383929,17.142868 121,17.5267971 121,18.0000119 L121,20.8571582 C121,21.330373 121.383929,21.7143021 121.857144,21.7143021 L124.71429,21.7143021 C125.187505,21.7143021 125.571434,21.330373 125.571434,20.8571582 L125.571434,18.0000119 C125.571434,17.5267971 125.187505,17.142868 124.71429,17.142868 L123.857146,17.142868 L123.857146,15.4285803 L128.42858,15.4285803 L128.42858,17.142868 L127.571436,17.142868 C127.098222,17.142868 126.714293,17.5267971 126.714293,18.0000119 L126.714293,20.8571582 C126.714293,21.330373 127.098222,21.7143021 127.571436,21.7143021 L130.428583,21.7143021 C130.901798,21.7143021 131.285727,21.330373 131.285727,20.8571582 L131.285727,18.0000119 C131.285727,17.5267971 130.901798,17.142868 130.428583,17.142868 L129.571439,17.142868 L129.571439,15.4285803 L134.142873,15.4285803 L134.142873,17.142868 L133.285729,17.142868 C132.812514,17.142868 132.428585,17.5267971 132.428585,18.0000119 L132.428585,20.8571582 C132.428585,21.330373 132.812514,21.7143021 133.285729,21.7143021 L136.142875,21.7143021 C136.61609,21.7143021 137.000019,21.330373 137.000019,20.8571582 L137.000019,18.0000119 Z" id="structure"></path>
        </g>
    </g>
</svg>