<?xml version="1.0" encoding="UTF-8"?>
<svg width="30" height="24" version="1.1" viewBox="0 -45.0001 30 23.5715" xmlns="http://www.w3.org/2000/svg" xmlns:xlink="http://www.w3.org/1999/xlink">
    <!--Generated by IJSVG (https://github.com/curthard89/IJSVG)-->
    <g fill="#000000">
        <path d="M6.42858,15c0,1.18862 -0.954242,2.14286 -2.14286,2.14286c-1.18862,0 -2.14286,-0.954242 -2.14286,-2.14286c0,-1.18862 0.954242,-2.14286 2.14286,-2.14286c1.18862,0 2.14286,0.954242 2.14286,2.14286Zm3.21429,-7.50001c0,1.18862 -0.954243,2.14286 -2.14286,2.14286c-1.18862,0 -2.14286,-0.954242 -2.14286,-2.14286c0,-1.18862 0.954242,-2.14286 2.14286,-2.14286c1.18862,0 2.14286,0.954242 2.14286,2.14286Zm7.16519,8.05247c1.08817,0.753349 1.65737,2.12612 1.3058,3.48215c-0.45201,1.70759 -2.20982,2.74554 -3.93416,2.29353c-1.70759,-0.45201 -2.74554,-2.20982 -2.29353,-3.93416c0.368304,-1.35603 1.52344,-2.27679 2.84599,-2.37723l1.69085,-6.3951c0.150669,-0.569197 0.736608,-0.92076 1.3058,-0.77009c0.569197,0.15067 0.904019,0.736608 0.77009,1.3058Zm11.0491,-0.552456c0,1.18862 -0.954242,2.14286 -2.14286,2.14286c-1.18862,0 -2.14286,-0.954242 -2.14286,-2.14286c0,-1.18862 0.954242,-2.14286 2.14286,-2.14286c1.18862,0 2.14286,0.954242 2.14286,2.14286Zm-10.7143,-10.7143c0,1.18862 -0.954243,2.14286 -2.14286,2.14286c-1.18862,0 -2.14286,-0.954242 -2.14286,-2.14286c0,-1.18862 0.954242,-2.14286 2.14286,-2.14286c1.18862,0 2.14286,0.954242 2.14286,2.14286Zm7.50001,3.21429c0,1.18862 -0.954243,2.14286 -2.14286,2.14286c-1.18862,0 -2.14286,-0.954242 -2.14286,-2.14286c0,-1.18862 0.954242,-2.14286 2.14286,-2.14286c1.18862,0 2.14286,0.954242 2.14286,2.14286Zm5.35715,7.50001c0,-8.2701 -6.72992,-15 -15,-15c-8.2701,0 -15,6.72992 -15,15c0,2.87947 0.820313,5.67523 2.36049,8.08595c0.200893,0.30134 0.535715,0.485492 0.904019,0.485492h23.471c0.368304,0 0.703126,-0.184152 0.904019,-0.485492c1.54018,-2.42746 2.36049,-5.20648 2.36049,-8.08595Z" transform="translate(0, -45.0001)"></path>
    </g>
</svg>