<?xml version="1.0" encoding="UTF-8" standalone="no"?>
<svg width="21" height="25" version="1.1" viewBox="0 -48.9007 21.4286 25.3293" xmlns="http://www.w3.org/2000/svg" xmlns:xlink="http://www.w3.org/1999/xlink">
    <!--Generated by IJSVG (https://github.com/curthard89/IJSVG)-->
    <g fill="#000000">
        <path d="M19.2857,2.14286v20.7924l-7.08148,-6.79688l-1.48996,-1.42299l-1.48996,1.42299l-7.08148,6.79688v-20.7924Zm0.200893,-2.14286c-0.518973,0 -17.0257,0 -17.5447,0c-0.251117,0 -0.502233,0.050223 -0.736608,0.15067c-0.736608,0.284598 -1.20536,0.970983 -1.20536,1.72433v21.5793c0,0.753349 0.468751,1.43973 1.20536,1.72433c0.234375,0.100446 0.485491,0.150669 0.736608,0.150669c0.518973,0 1.00447,-0.200893 1.38951,-0.552456l7.38282,-7.09822l7.38282,7.09822c0.385045,0.351563 0.870537,0.535715 1.38951,0.535715c0.251117,0 0.502233,-0.033482 0.736608,-0.133928c0.736608,-0.284599 1.20536,-0.970984 1.20536,-1.72433v-21.5793c0,-0.753349 -0.468751,-1.43973 -1.20536,-1.72433c-0.234375,-0.100447 -0.485491,-0.15067 -0.736608,-0.15067Z" transform="translate(0, -48.9007)"></path>
    </g>
</svg>