<svg width="26" height="26" viewBox="0 -49.2858 25.7143 25.7143" xmlns="http://www.w3.org/2000/svg"><path d="M21.512-36.429c0 .285-.1.553-.301.754l-1.523 1.523-6.06 6.06c-.202.201-.47.302-.754.302-.285 0-.553-.1-.753-.302l-1.524-1.523c-.2-.2-.318-.469-.318-.753 0-.285.117-.553.318-.754l3.164-3.164H5.357a1.079 1.079 0 0 1-1.071-1.071V-37.5c0-.586.485-1.071 1.071-1.071h8.404l-3.164-3.165a1.05 1.05 0 0 1-.301-.753c0-.284.1-.552.301-.753l1.524-1.524c.2-.2.468-.301.753-.301s.552.1.753.301l6.06 6.06 1.524 1.524c.2.2.301.469.301.753zm4.202 0c0-7.098-5.759-12.857-12.857-12.857C5.76-49.286 0-43.526 0-36.429 0-29.33 5.759-23.57 12.857-23.57c7.098 0 12.857-5.76 12.857-12.858z"/></svg>