<?xml version="1.0" encoding="UTF-8" standalone="no"?>
<svg width="31" height="23" version="1.1" viewBox="0.703126 -44.2969 30.7366 23.1027" xmlns="http://www.w3.org/2000/svg" xmlns:xlink="http://www.w3.org/1999/xlink">
    <!--Generated by IJSVG (https://github.com/curthard89/IJSVG)-->
    <g fill="#000000">
        <path d="M9.62613,18.9007c0.217635,-0.217634 0.217635,-0.552456 0,-0.77009l-6.57925,-6.57925l6.57925,-6.57925c0.217635,-0.217634 0.217635,-0.552456 0,-0.77009l-0.837054,-0.837054c-0.217634,-0.217635 -0.552456,-0.217635 -0.77009,0l-7.80135,7.80135c-0.217634,0.217634 -0.217634,0.552456 -3.33067e-16,0.77009l7.80135,7.80135c0.217634,0.217634 0.552456,0.217634 0.77009,0Zm9.89398,-17.8627c0.083706,-0.284599 -0.083705,-0.585938 -0.368304,-0.669644l-1.03795,-0.284598c-0.267858,-0.083706 -0.569197,0.083705 -0.652903,0.368304l-6.24443,21.6127c-0.083705,0.284598 0.083706,0.585938 0.368304,0.669643l1.03795,0.284599c0.267857,0.083705 0.569197,-0.083706 0.652902,-0.368304Zm10.9989,10.8985c0.217635,-0.217634 0.217635,-0.552456 0,-0.77009l-7.80135,-7.80135c-0.217634,-0.217635 -0.552456,-0.217635 -0.77009,0l-0.837055,0.837054c-0.217634,0.217634 -0.217634,0.552456 0,0.77009l6.57925,6.57925l-6.57925,6.57925c-0.217634,0.217634 -0.217634,0.552456 0,0.77009l0.837055,0.837055c0.217634,0.217634 0.552456,0.217634 0.77009,0Z" transform="translate(0.703126, -44.2969)"></path>
    </g>
</svg>