<?xml version="1.0" encoding="UTF-8" standalone="no"?>
<svg width="6" height="24" version="1.1" viewBox="0 -47.1429 6.42858 23.5715" xmlns="http://www.w3.org/2000/svg" xmlns:xlink="http://www.w3.org/1999/xlink">
    <!--Generated by IJSVG (https://github.com/curthard89/IJSVG)-->
    <g fill="#000000">
        <path d="M6.42858,18.75c0,-0.887278 -0.719867,-1.60715 -1.60715,-1.60715h-3.21429c-0.887278,0 -1.60715,0.719867 -1.60715,1.60715v3.21429c0,0.887277 0.719867,1.60714 1.60715,1.60714h3.21429c0.887278,0 1.60715,-0.719867 1.60715,-1.60714Zm0,-8.57144c0,-0.887278 -0.719867,-1.60715 -1.60715,-1.60715h-3.21429c-0.887278,0 -1.60715,0.719867 -1.60715,1.60715v3.21429c0,0.887278 0.719867,1.60714 1.60715,1.60714h3.21429c0.887278,0 1.60715,-0.719867 1.60715,-1.60714Zm0,-8.57144c0,-0.887277 -0.719867,-1.60714 -1.60715,-1.60714h-3.21429c-0.887278,0 -1.60715,0.719867 -1.60715,1.60714v3.21429c0,0.887278 0.719867,1.60714 1.60715,1.60714h3.21429c0.887278,0 1.60715,-0.719867 1.60715,-1.60714Z" transform="translate(0, -47.1429)"></path>
    </g>
</svg>