<svg width="30" height="23" viewBox="0 -43.3929 30 22.5" xmlns="http://www.w3.org/2000/svg"><path d="M30-28.393a.54.54 0 0 0-.536-.536H6.43v-3.214a.54.54 0 0 0-.536-.536.559.559 0 0 0-.385.151L.15-27.171a.53.53 0 0 0-.151.385c0 .134.05.268.15.369l5.341 5.357c.117.1.251.167.402.167a.54.54 0 0 0 .536-.536v-3.214h23.035a.55.55 0 0 0 .536-.536zm0-9.107a.559.559 0 0 0-.15-.385l-5.341-5.34a.618.618 0 0 0-.402-.168.529.529 0 0 0-.536.536v3.214H.536a.55.55 0 0 0-.536.536v3.214a.55.55 0 0 0 .536.536H23.57v3.214a.55.55 0 0 0 .536.536c.134 0 .285-.05.385-.15l5.357-5.358c.1-.1.151-.251.151-.385z"/></svg>