<?xml version="1.0" encoding="UTF-8" standalone="no"?>
<svg width="30" height="19" version="1.1" viewBox="0 -38.5715 30 19.2857" xmlns="http://www.w3.org/2000/svg" xmlns:xlink="http://www.w3.org/1999/xlink">
    <!--Generated by IJSVG (https://github.com/curthard89/IJSVG)-->
    <g fill="#000000">
        <path d="M27.8572,9.64287c-2.86273,4.41965 -7.48327,7.50001 -12.8572,7.50001c-5.37389,0 -9.99443,-3.08036 -12.8572,-7.50001c1.5904,-2.46094 3.76674,-4.57032 6.37836,-5.90961c-0.669644,1.13839 -1.02121,2.4442 -1.02121,3.76675c0,4.13505 3.36496,7.50001 7.50001,7.50001c4.13505,0 7.50001,-3.36496 7.50001,-7.50001c0,-1.32255 -0.351563,-2.62835 -1.02121,-3.76675c2.61161,1.33929 4.78795,3.44867 6.37836,5.90961Zm-12.0536,-6.42858c0,0.435268 -0.368304,0.803572 -0.803572,0.803572c-1.90849,0 -3.48215,1.57366 -3.48215,3.48215c0,0.435269 -0.368304,0.803573 -0.803573,0.803573c-0.435268,0 -0.803572,-0.368304 -0.803572,-0.803573c0,-2.79576 2.29353,-5.08929 5.08929,-5.08929c0.435268,0 0.803572,0.368304 0.803572,0.803572Zm14.1964,6.42858c0,-0.418527 -0.133929,-0.803572 -0.334822,-1.15514c-3.08036,-5.05581 -8.72211,-8.48773 -14.6652,-8.48773c-5.94309,0 -11.5848,3.43192 -14.6652,8.48773c-0.200893,0.351563 -0.334822,0.736608 -0.334822,1.15514c0,0.418527 0.133929,0.803572 0.334822,1.15513c3.08036,5.05581 8.72211,8.48773 14.6652,8.48773c5.94309,0 11.5848,-3.41518 14.6652,-8.48773c0.200893,-0.351563 0.334822,-0.736608 0.334822,-1.15513Z" transform="translate(0, -38.5715)"></path>
    </g>
</svg>