<svg width="30" height="19" viewBox="0 -38.5715 30 19.2857" xmlns="http://www.w3.org/2000/svg"><path d="M27.857-28.929c-2.863 4.42-7.483 7.5-12.857 7.5s-9.994-3.08-12.857-7.5c1.59-2.46 3.767-4.57 6.378-5.91A7.44 7.44 0 0 0 7.5-31.07c0 4.135 3.365 7.5 7.5 7.5s7.5-3.365 7.5-7.5a7.44 7.44 0 0 0-1.021-3.767c2.611 1.34 4.788 3.448 6.378 5.91zm-12.053-6.428a.815.815 0 0 1-.804.803 3.501 3.501 0 0 0-3.482 3.483.815.815 0 0 1-.804.803.815.815 0 0 1-.803-.803c0-2.796 2.293-5.09 5.089-5.09.435 0 .804.369.804.804zM30-28.93c0-.418-.134-.803-.335-1.155C26.585-35.14 20.943-38.57 15-38.57S3.415-35.14.335-30.084c-.201.352-.335.737-.335 1.155 0 .419.134.804.335 1.156 3.08 5.055 8.722 8.487 14.665 8.487s11.585-3.415 14.665-8.487c.201-.352.335-.737.335-1.156z"/></svg>