<?xml version="1.0" encoding="UTF-8" standalone="no"?>
<svg width="19" height="30" version="1.1" viewBox="0 -55.865 19.3694 30.1507" xmlns="http://www.w3.org/2000/svg" xmlns:xlink="http://www.w3.org/1999/xlink">
    <!--Generated by IJSVG (https://github.com/curthard89/IJSVG)-->
    <g fill="#000000">
        <path d="M18.9677,17.461l-17.1429,-17.1429c-0.200893,-0.217634 -0.468751,-0.318081 -0.753349,-0.318081c-0.133929,0 -0.284599,0.033482 -0.401786,0.083706c-0.401787,0.16741 -0.669644,0.552456 -0.669644,0.987724v25.1786c0,0.435269 0.267857,0.820314 0.669644,0.987725c0.117187,0.050223 0.267857,0.083705 0.401786,0.083705c0.284598,0 0.552456,-0.117187 0.753349,-0.318081l5.22322,-5.22322l3.19755,7.56697c0.234375,0.535715 0.853796,0.803573 1.40625,0.569197l2.96317,-1.25558c0.535715,-0.234375 0.803572,-0.853795 0.569197,-1.40625l-3.36496,-7.96876h6.3951c0.435269,0 0.820314,-0.267857 0.987725,-0.669643c0.167411,-0.385045 0.083705,-0.853796 -0.234375,-1.15514Z" transform="translate(0, -55.865)"></path>
    </g>
</svg>