<svg viewBox="0 -47.1429 30 23.5715" xmlns="http://www.w3.org/2000/svg"><path d="M6.429-29.464A.55.55 0 0 0 5.893-30H4.82a.55.55 0 0 0-.535.536v1.071a.55.55 0 0 0 .535.536h1.072a.55.55 0 0 0 .536-.536zm0-4.286a.55.55 0 0 0-.536-.536H4.82a.55.55 0 0 0-.535.536v1.071a.55.55 0 0 0 .535.536h1.072a.55.55 0 0 0 .536-.536zm0-4.286a.55.55 0 0 0-.536-.535H4.82a.55.55 0 0 0-.535.535v1.072a.55.55 0 0 0 .535.535h1.072a.55.55 0 0 0 .536-.535zm19.285 8.572A.55.55 0 0 0 25.18-30H9.107a.55.55 0 0 0-.536.536v1.071a.55.55 0 0 0 .536.536H25.18a.55.55 0 0 0 .535-.536zm0-4.286a.55.55 0 0 0-.535-.536H9.107a.55.55 0 0 0-.536.536v1.071a.55.55 0 0 0 .536.536H25.18a.55.55 0 0 0 .535-.536zm0-4.286a.55.55 0 0 0-.535-.535H9.107a.55.55 0 0 0-.536.535v1.072a.55.55 0 0 0 .536.535H25.18a.55.55 0 0 0 .535-.535zm2.143 11.786a.55.55 0 0 1-.536.536H2.68a.55.55 0 0 1-.536-.536v-13.929a.55.55 0 0 1 .536-.535H27.32a.55.55 0 0 1 .536.535zM30-44.464a2.686 2.686 0 0 0-2.679-2.679H2.68a2.686 2.686 0 0 0-2.68 2.679v18.214a2.686 2.686 0 0 0 2.68 2.679H27.32A2.686 2.686 0 0 0 30-26.25z"/></svg>