<svg width="27" height="30" viewBox="0.485492 -55.7144 27.3215 30" xmlns="http://www.w3.org/2000/svg"><path d="M19.939-48.884l1.222-3.65c.117-.334.134-.586.184-.786l.05-.335h.067c0 .1.017.2.034.335l.2.786 1.206 3.65zM12.32-31.607a.529.529 0 0 0-.535-.536H8.57v-23.036a.529.529 0 0 0-.535-.535H4.82a.529.529 0 0 0-.535.535v23.036H1.07a.548.548 0 0 0-.502.335.548.548 0 0 0 .117.586l5.357 5.357c.118.1.252.15.386.15a.59.59 0 0 0 .385-.15l5.34-5.34a.618.618 0 0 0 .167-.402zm13.996 1.992h-2.026v1.992H20.14c-.201 0-.352 0-.503.034l-.234.033v-.033l.184-.185c.117-.133.251-.284.352-.435l6.177-8.873v-1.49h-9.492v3.834h2.009v-1.925h3.884c.2 0 .368-.017.502-.05.1 0 .167-.017.234-.017v.05l-.184.15a3.302 3.302 0 0 0-.351.453l-6.178 8.856v1.507h9.777zm1.49-15.017h-1.172l-3.85-11.082h-2.712l-3.85 11.082H15.05v1.775h4.805v-1.775h-1.256l.787-2.41h4.068l.787 2.41h-1.255v1.775h4.82z"/></svg>