<?xml version="1.0" encoding="UTF-8" standalone="no"?>
<svg width="27" height="30" version="1.1" viewBox="0.485492 -55.7144 27.3215 30" xmlns="http://www.w3.org/2000/svg" xmlns:xlink="http://www.w3.org/1999/xlink">
    <!--Generated by IJSVG (https://github.com/curthard89/IJSVG)-->
    <g fill="#000000">
        <path d="M19.4531,6.83037l1.2221,-3.64956c0.117187,-0.334822 0.133928,-0.585938 0.184152,-0.786831l0.050223,-0.334822h0.066964c0,0.100447 0.016741,0.200893 0.033482,0.334822l0.200893,0.786831l1.20536,3.64956Zm-7.6172,17.2768c0,-0.301339 -0.234375,-0.535714 -0.535715,-0.535714h-3.21429v-23.0357c0,-0.30134 -0.234375,-0.535715 -0.535715,-0.535715h-3.21429c-0.301339,0 -0.535715,0.234375 -0.535715,0.535715v23.0357h-3.21429c-0.217634,0 -0.418527,0.133928 -0.502233,0.334821c-0.083705,0.200893 -0.033482,0.418528 0.117188,0.585939l5.35715,5.35715c0.117188,0.100446 0.251116,0.15067 0.385045,0.15067c0.133929,0 0.267858,-0.050224 0.385045,-0.15067l5.34041,-5.34041c0.100447,-0.117188 0.167411,-0.251117 0.167411,-0.401787Zm13.9956,1.99219h-2.02567v1.99219h-4.15179c-0.200893,0 -0.351563,0 -0.502233,0.033482l-0.234375,0.033483v-0.033483l0.184152,-0.184152c0.117188,-0.133928 0.251116,-0.284598 0.351563,-0.435268l6.17746,-8.87278v-1.48996h-9.4922v3.83371h2.00893v-1.92522h3.88393c0.200893,0 0.368304,-0.016741 0.502233,-0.050223c0.100446,0 0.167411,-0.016741 0.234375,-0.016741v0.050223l-0.184152,0.15067c-0.083706,0.083705 -0.217634,0.251116 -0.351563,0.452009l-6.17746,8.85604v1.5067h9.7768Zm1.48996,-15.0168h-1.17188l-3.85045,-11.0826h-2.71206l-3.85045,11.0826h-1.17188v1.77456h4.80469v-1.77456h-1.25558l0.786831,-2.41072h4.06808l0.786831,2.41072h-1.25558v1.77456h4.82144Z" transform="translate(0.485492, -55.7144)"></path>
    </g>
</svg>