<?xml version="1.0" encoding="UTF-8" standalone="no"?>
<svg width="30" height="24" version="1.1" viewBox="0 -47.1429 30 23.5715" xmlns="http://www.w3.org/2000/svg" xmlns:xlink="http://www.w3.org/1999/xlink">
    <!--Generated by IJSVG (https://github.com/curthard89/IJSVG)-->
    <g fill="#000000">
        <path d="M17.1429,21.4286v-2.14286h10.7143v2.14286Zm-6.42858,-8.57144v-2.14286h17.1429v2.14286Zm10.7143,-8.57144v-2.14286h6.42858v2.14286Zm8.57144,13.9286c0,-0.585938 -0.485492,-1.07143 -1.07143,-1.07143h-27.8572c-0.585938,0 -1.07143,0.485492 -1.07143,1.07143v4.28572c0,0.585939 0.485492,1.07143 1.07143,1.07143h27.8572c0.585938,0 1.07143,-0.485491 1.07143,-1.07143Zm0,-8.57144c0,-0.585938 -0.485492,-1.07143 -1.07143,-1.07143h-27.8572c-0.585938,0 -1.07143,0.485492 -1.07143,1.07143v4.28572c0,0.585938 0.485492,1.07143 1.07143,1.07143h27.8572c0.585938,0 1.07143,-0.485492 1.07143,-1.07143Zm0,-8.57144c0,-0.585939 -0.485492,-1.07143 -1.07143,-1.07143h-27.8572c-0.585938,0 -1.07143,0.485491 -1.07143,1.07143v4.28572c0,0.585938 0.485492,1.07143 1.07143,1.07143h27.8572c0.585938,0 1.07143,-0.485492 1.07143,-1.07143Z" transform="translate(0, -47.1429)"></path>
    </g>
</svg>