<svg width="16" height="21" viewBox="1.52344 -42.8572 15.5525 21.4286" xmlns="http://www.w3.org/2000/svg"><path d="M11.786-26.116a.672.672 0 0 0-.67-.67H7.098a.672.672 0 0 0-.67.67v4.018c0 .368.302.67.67.67h4.018c.368 0 .67-.302.67-.67zm5.29-10.045c0-3.834-4.018-6.696-7.6-6.696-3.416 0-5.96 1.456-7.768 4.453a.66.66 0 0 0 .167.887l2.746 2.093a.775.775 0 0 0 .418.134c.184 0 .385-.1.519-.268.988-1.239 1.39-1.64 1.791-1.925.369-.251 1.055-.486 1.808-.486 1.356 0 2.579.837 2.579 1.775 0 1.071-.536 1.624-1.825 2.21-1.473.67-3.482 2.41-3.482 4.436v.753c0 .369.234.938.602.938h4.018c.385 0 .67-.436.67-.804 0-.485.62-1.64 1.607-2.21 1.59-.887 3.75-2.109 3.75-5.29z"/></svg>