<?xml version="1.0" encoding="UTF-8"?>
<svg width="16" height="21" version="1.1" viewBox="1.52344 -42.8572 15.5525 21.4286" xmlns="http://www.w3.org/2000/svg" xmlns:xlink="http://www.w3.org/1999/xlink">
    <!--Generated by IJSVG (https://github.com/curthard89/IJSVG)-->
    <g fill="#000000">
        <path d="M10.2623,16.7411c0,-0.368304 -0.301339,-0.669643 -0.669643,-0.669643h-4.01786c-0.368304,0 -0.669644,0.301339 -0.669644,0.669643v4.01786c0,0.368304 0.30134,0.669644 0.669644,0.669644h4.01786c0.368304,0 0.669643,-0.30134 0.669643,-0.669644Zm5.29018,-10.0447c0,-3.83371 -4.01786,-6.69644 -7.60046,-6.69644c-3.41518,0 -5.95983,1.45647 -7.76787,4.45313c-0.184152,0.30134 -0.117187,0.669644 0.167411,0.887278l2.74554,2.09264c0.133929,0.083705 0.267858,0.133928 0.418528,0.133928c0.184152,0 0.385045,-0.100446 0.518973,-0.267857c0.987725,-1.23884 1.38951,-1.64063 1.7913,-1.92523c0.368304,-0.251116 1.05469,-0.485491 1.80804,-0.485491c1.35603,0 2.57813,0.837054 2.57813,1.77455c0,1.07143 -0.535715,1.62389 -1.82478,2.20982c-1.47322,0.669644 -3.48215,2.41072 -3.48215,4.43639v0.753349c0,0.368304 0.234375,0.937501 0.602679,0.937501h4.01786c0.385045,0 0.669644,-0.435268 0.669644,-0.803572c0,-0.485492 0.61942,-1.64063 1.60714,-2.20982c1.5904,-0.887277 3.75,-2.10938 3.75,-5.29018Z" transform="translate(1.52344, -42.8572)"></path>
    </g>
</svg>