<?xml version="1.0" encoding="utf-8"?>
<!-- Generator: Adobe Illustrator 18.0.0, SVG Export Plug-In . SVG Version: 6.00 Build 0)  -->
<!DOCTYPE svg PUBLIC "-//W3C//DTD SVG 1.1//EN" "http://www.w3.org/Graphics/SVG/1.1/DTD/svg11.dtd">
<svg version="1.1" id="Icons" xmlns="http://www.w3.org/2000/svg" xmlns:xlink="http://www.w3.org/1999/xlink" x="0px" y="0px"
	 viewBox="0 0 32 32" enable-background="new 0 0 32 32" xml:space="preserve">
<g>
	<path fill="none" stroke="#333333" stroke-width="2" stroke-linecap="round" stroke-linejoin="round" stroke-miterlimit="10" d="
		M4.541,8.892C7.13,4.239,13.012,1.395,18.57,2.109c2.46,0.316,5.013,1.44,6.032,3.557c0.647,1.342,0.581,2.918,0.076,4.313
		c-0.505,1.395-1.418,2.63-2.43,3.758c-1.229,1.37-2.723,2.9-2.421,4.665c0.264,1.54,2.24,2.889,3.879,2.221
		c1.367-0.557,1.227-2.477,3.094-2.342c0.983,0.071,1.698,0.889,1.999,1.711c0.331,0.903,0.21,1.9-0.07,2.817
		c-1.284,4.213-5.943,7.124-10.629,7.189c-4.686,0.066-9.175-2.413-11.938-5.95C2.789,19.729,1.901,13.637,4.541,8.892z"/>
	
		<circle fill="none" stroke="#333333" stroke-linecap="round" stroke-linejoin="round" stroke-miterlimit="10" cx="20" cy="7" r="1.5"/>
	
		<circle fill="none" stroke="#333333" stroke-linecap="round" stroke-linejoin="round" stroke-miterlimit="10" cx="15" cy="7" r="1.5"/>
	
		<circle fill="none" stroke="#333333" stroke-linecap="round" stroke-linejoin="round" stroke-miterlimit="10" cx="10" cy="9" r="1.5"/>
	
		<circle fill="none" stroke="#333333" stroke-linecap="round" stroke-linejoin="round" stroke-miterlimit="10" cx="8" cy="14" r="1.5"/>
	
		<circle fill="none" stroke="#333333" stroke-linecap="round" stroke-linejoin="round" stroke-miterlimit="10" cx="9" cy="19" r="1.5"/>
	
		<circle fill="none" stroke="#333333" stroke-linecap="round" stroke-linejoin="round" stroke-miterlimit="10" cx="13" cy="23" r="1.5"/>
</g>
</svg>
