<?xml version="1.0" encoding="utf-8"?>
<!-- Generator: Adobe Illustrator 18.0.0, SVG Export Plug-In . SVG Version: 6.00 Build 0)  -->
<!DOCTYPE svg PUBLIC "-//W3C//DTD SVG 1.1//EN" "http://www.w3.org/Graphics/SVG/1.1/DTD/svg11.dtd">
<svg version="1.1" id="Icons" xmlns="http://www.w3.org/2000/svg" xmlns:xlink="http://www.w3.org/1999/xlink" x="0px" y="0px"
	 viewBox="0 0 32 32" enable-background="new 0 0 32 32" xml:space="preserve">
<g>
	<g>
		<path fill="none" stroke="#333333" stroke-width="2" stroke-linecap="round" stroke-linejoin="round" stroke-miterlimit="10" d="
			M19.984,27.701c0.092,0.843-0.208,1.683-0.826,2.312C18.541,30.642,17.664,31,16.744,31h-1.487c-0.92,0-1.797-0.358-2.415-0.987
			c-0.617-0.628-0.917-1.468-0.826-2.312L12.744,21h6.513L19.984,27.701z"/>
		
			<line fill="none" stroke="#333333" stroke-width="2" stroke-linecap="round" stroke-linejoin="round" stroke-miterlimit="10" x1="13.829" y1="21" x2="14.914" y2="6.384"/>
		
			<line fill="none" stroke="#333333" stroke-width="2" stroke-linecap="round" stroke-linejoin="round" stroke-miterlimit="10" x1="17.085" y1="6.631" x2="18.171" y2="21"/>
	</g>
	<path fill="none" stroke="#333333" stroke-width="2" stroke-linecap="round" stroke-linejoin="round" stroke-miterlimit="10" d="
		M26,4l-5-3l-9.795,0.98C10.656,1.381,9.875,1,9,1H6v6h3c0.875,0,1.656-0.381,2.205-0.98L21,7L26,4z"/>
</g>
</svg>
