<?xml version="1.0" encoding="utf-8"?>
<!-- Generator: Adobe Illustrator 18.0.0, SVG Export Plug-In . SVG Version: 6.00 Build 0)  -->
<!DOCTYPE svg PUBLIC "-//W3C//DTD SVG 1.1//EN" "http://www.w3.org/Graphics/SVG/1.1/DTD/svg11.dtd">
<svg version="1.1" id="Icons" xmlns="http://www.w3.org/2000/svg" xmlns:xlink="http://www.w3.org/1999/xlink" x="0px" y="0px"
	 viewBox="0 0 32 32" enable-background="new 0 0 32 32" xml:space="preserve">
<g>
	<g>
		<g>
			<polyline fill="none" stroke="#333333" stroke-width="2" stroke-linejoin="round" stroke-miterlimit="10" points="23,14.917 
				23,9.542 14.792,1 12,1 6.5,1 1,1 1,8.5 1,16 1,23.5 1,31 6.5,31 12,31 17.5,31 23,31 			"/>
			
				<polyline fill="none" stroke="#333333" stroke-width="2" stroke-linecap="round" stroke-linejoin="round" stroke-miterlimit="10" points="
				14,2 14,10 22,10 			"/>
		</g>
		<circle fill="none" stroke="#333333" stroke-width="2" stroke-linejoin="round" stroke-miterlimit="10" cx="23" cy="23" r="8"/>
	</g>
	<path fill="none" stroke="#333333" stroke-width="2" stroke-linecap="round" stroke-linejoin="round" stroke-miterlimit="10" d="
		M21.75,25.5h-1.778c-1.222,0-2.222-1.125-2.222-2.5l0,0c0-1.375,1-2.5,2.222-2.5h1.778"/>
	<path fill="none" stroke="#333333" stroke-width="2" stroke-linecap="round" stroke-linejoin="round" stroke-miterlimit="10" d="
		M24,25.5h1.778C27,25.5,28,24.375,28,23l0,0c0-1.375-1-2.5-2.222-2.5H24"/>
	
		<line fill="none" stroke="#333333" stroke-width="2" stroke-linecap="round" stroke-linejoin="round" stroke-miterlimit="10" x1="22" y1="23" x2="24" y2="23"/>
</g>
</svg>
