<?xml version="1.0" encoding="utf-8"?>
<!-- Generator: Adobe Illustrator 18.0.0, SVG Export Plug-In . SVG Version: 6.00 Build 0)  -->
<!DOCTYPE svg PUBLIC "-//W3C//DTD SVG 1.1//EN" "http://www.w3.org/Graphics/SVG/1.1/DTD/svg11.dtd">
<svg version="1.1" id="Icons" xmlns="http://www.w3.org/2000/svg" xmlns:xlink="http://www.w3.org/1999/xlink" x="0px" y="0px"
	 viewBox="0 0 32 32" enable-background="new 0 0 32 32" xml:space="preserve">
<g>
	<g>
		
			<ellipse fill="none" stroke="#333333" stroke-width="2" stroke-linecap="round" stroke-miterlimit="10" cx="12" cy="7.724" rx="11" ry="3.724"/>
		<path fill="none" stroke="#333333" stroke-width="2" stroke-linecap="round" stroke-miterlimit="10" d="M23,14.241
			c0,2.057-4.925,3.724-11,3.724c-6.075,0-11-1.667-11-3.724"/>
		<path fill="none" stroke="#333333" stroke-width="2" stroke-linecap="round" stroke-miterlimit="10" d="M23,20.759
			c0,2.057-4.925,3.724-11,3.724c-6.075,0-11-1.667-11-3.724"/>
		<path fill="none" stroke="#333333" stroke-width="2" stroke-linecap="round" stroke-miterlimit="10" d="M23,27.276
			C23,29.333,18.075,31,12,31c-6.075,0-11-1.667-11-3.724"/>
		
			<line fill="none" stroke="#333333" stroke-width="2" stroke-linecap="round" stroke-miterlimit="10" x1="1" y1="27.276" x2="1" y2="7.724"/>
		
			<line fill="none" stroke="#333333" stroke-width="2" stroke-linecap="round" stroke-miterlimit="10" x1="23" y1="21.5" x2="23" y2="7.724"/>
		
			<line fill="none" stroke="#333333" stroke-width="2" stroke-linecap="round" stroke-miterlimit="10" x1="23" y1="27.276" x2="23" y2="21.5"/>
	</g>
	<path fill="none" stroke="#333333" stroke-width="2" stroke-linecap="round" stroke-miterlimit="10" d="M9.223,3.974
		C10.249,2.277,14.684,1,20,1c6.075,0,11,1.667,11,3.724c0,1.689-3.323,3.116-7.877,3.572"/>
	<path fill="none" stroke="#333333" stroke-width="2" stroke-linecap="round" stroke-miterlimit="10" d="M31,11.241
		c0,1.697-3.352,3.129-7.937,3.578"/>
	<path fill="none" stroke="#333333" stroke-width="2" stroke-linecap="round" stroke-miterlimit="10" d="M31,17.759
		c0,1.674-3.261,3.09-7.749,3.559"/>
	<path fill="none" stroke="#333333" stroke-width="2" stroke-linecap="round" stroke-miterlimit="10" d="M31,24.276
		c0,1.706-3.387,3.143-8.008,3.585"/>
	
		<line fill="none" stroke="#333333" stroke-width="2" stroke-linecap="round" stroke-miterlimit="10" x1="31" y1="24.276" x2="31" y2="4.724"/>
</g>
</svg>
