<?xml version="1.0" encoding="utf-8"?>
<!-- Generator: Adobe Illustrator 18.0.0, SVG Export Plug-In . SVG Version: 6.00 Build 0)  -->
<!DOCTYPE svg PUBLIC "-//W3C//DTD SVG 1.1//EN" "http://www.w3.org/Graphics/SVG/1.1/DTD/svg11.dtd">
<svg version="1.1" id="Icons" xmlns="http://www.w3.org/2000/svg" xmlns:xlink="http://www.w3.org/1999/xlink" x="0px" y="0px"
	 viewBox="0 0 32 32" enable-background="new 0 0 32 32" xml:space="preserve">
<g>
	<path fill="none" stroke="#333333" stroke-width="2" stroke-linecap="round" stroke-linejoin="round" stroke-miterlimit="10" d="
		M18,21.39V10.61c0.204-0.061,0.406-0.131,0.603-0.212c1.645-0.673,2.84-1.946,3.246-3.458c0.406-1.512-0.02-3.1-1.158-4.313
		C19.982,1.872,19.046,1.314,18,1v4h-4V1c-1.046,0.314-1.983,0.872-2.691,1.627C10.17,3.84,9.744,5.427,10.15,6.94
		c0.406,1.512,1.601,2.785,3.246,3.458c0.197,0.081,0.399,0.151,0.603,0.212v10.78c-1.046,0.314-1.983,0.872-2.691,1.627
		c-1.139,1.213-1.565,2.8-1.159,4.313c0.406,1.512,1.601,2.785,3.246,3.458C13.594,30.869,13.796,30.939,14,31v-4h4v4
		c0.204-0.061,0.406-0.131,0.603-0.212c1.645-0.673,2.84-1.946,3.246-3.458c0.406-1.513-0.02-3.1-1.158-4.313
		C19.982,22.262,19.046,21.704,18,21.39z"/>
</g>
</svg>
