<?xml version="1.0" encoding="utf-8"?>
<!-- Generator: Adobe Illustrator 18.0.0, SVG Export Plug-In . SVG Version: 6.00 Build 0)  -->
<!DOCTYPE svg PUBLIC "-//W3C//DTD SVG 1.1//EN" "http://www.w3.org/Graphics/SVG/1.1/DTD/svg11.dtd">
<svg version="1.1" id="Icons" xmlns="http://www.w3.org/2000/svg" xmlns:xlink="http://www.w3.org/1999/xlink" x="0px" y="0px"
	 viewBox="0 0 32 32" enable-background="new 0 0 32 32" xml:space="preserve">
<g>
	<path fill="none" stroke="#333333" stroke-width="2" stroke-linecap="round" stroke-linejoin="round" stroke-miterlimit="10" d="
		M19,16.104v6.394c0,0.446-0.366,0.606-0.818,0.606H8.597c-0.374,2.019-1.759,3.744-3.815,4.531C4.074,27.906,3.349,27.986,2.636,28
		c1.428-1.233,2.182-2.877,2.014-4.896H1.818C1.366,23.104,1,22.944,1,22.498v-9.691C1,12.361,1.366,12,1.818,12H13h5.182
		C18.634,12,19,12.361,19,12.808V16.104z"/>
	<path fill="none" stroke="#333333" stroke-width="2" stroke-linecap="round" stroke-linejoin="round" stroke-miterlimit="10" d="
		M13,12V5.808C13,5.362,13.366,5,13.818,5h16.364C30.634,5,31,5.362,31,5.808v9.691c0,0.446-0.366,0.606-0.818,0.606h-2.832
		c-0.168,2.019,0.586,3.663,2.014,4.896c-0.712-0.014-1.438-0.094-2.146-0.365c-2.056-0.786-3.441-2.512-3.815-4.531H19"/>
	<g>
		
			<circle fill="none" stroke="#333333" stroke-linecap="round" stroke-linejoin="round" stroke-miterlimit="10" cx="6" cy="18" r="0.5"/>
		
			<circle fill="none" stroke="#333333" stroke-linecap="round" stroke-linejoin="round" stroke-miterlimit="10" cx="10" cy="18" r="0.5"/>
		
			<circle fill="none" stroke="#333333" stroke-linecap="round" stroke-linejoin="round" stroke-miterlimit="10" cx="14" cy="18" r="0.5"/>
	</g>
</g>
</svg>
