<?xml version="1.0" encoding="utf-8"?>
<!-- Generator: Adobe Illustrator 18.0.0, SVG Export Plug-In . SVG Version: 6.00 Build 0)  -->
<!DOCTYPE svg PUBLIC "-//W3C//DTD SVG 1.1//EN" "http://www.w3.org/Graphics/SVG/1.1/DTD/svg11.dtd">
<svg version="1.1" id="Icons" xmlns="http://www.w3.org/2000/svg" xmlns:xlink="http://www.w3.org/1999/xlink" x="0px" y="0px"
	 viewBox="0 0 32 32" enable-background="new 0 0 32 32" xml:space="preserve">
<g>
	<line fill="none" stroke="#333333" stroke-width="2" stroke-miterlimit="10" x1="4.085" y1="6.913" x2="8.387" y2="11.215"/>
	<g>
		<path fill="none" stroke="#333333" stroke-width="2" stroke-miterlimit="10" d="M6.914,27.915C9.437,29.842,12.58,31,16,31
			s6.563-1.158,9.087-3.085c1.065-0.813,2.015-1.764,2.828-2.828C29.842,22.563,31,19.42,31,16s-1.158-6.563-3.085-9.087
			c-0.813-1.065-1.764-2.015-2.828-2.828C22.563,2.158,19.42,1,16,1S9.437,2.158,6.914,4.085C5.849,4.898,4.898,5.849,4.085,6.913
			C2.158,9.437,1,12.58,1,16s1.158,6.563,3.085,9.087C4.898,26.151,5.849,27.102,6.914,27.915z"/>
		<path fill="none" stroke="#333333" stroke-width="2" stroke-miterlimit="10" d="M23.613,11.215C24.487,12.602,25,14.24,25,16
			s-0.513,3.398-1.387,4.785c-0.719,1.142-1.686,2.109-2.828,2.828C19.398,24.487,17.76,25,16,25s-3.398-0.513-4.785-1.387
			c-1.142-0.719-2.109-1.686-2.828-2.828C7.513,19.398,7,17.76,7,16s0.513-3.398,1.387-4.785c0.719-1.142,1.686-2.109,2.828-2.828
			C12.602,7.513,14.24,7,16,7s3.398,0.513,4.785,1.387C21.927,9.106,22.894,10.073,23.613,11.215z"/>
		<line fill="none" stroke="#333333" stroke-width="2" stroke-miterlimit="10" x1="27.915" y1="25.087" x2="23.613" y2="20.785"/>
		<line fill="none" stroke="#333333" stroke-width="2" stroke-miterlimit="10" x1="6.914" y1="4.085" x2="11.215" y2="8.387"/>
		<line fill="none" stroke="#333333" stroke-width="2" stroke-miterlimit="10" x1="25.087" y1="27.915" x2="20.785" y2="23.613"/>
		<line fill="none" stroke="#333333" stroke-width="2" stroke-miterlimit="10" x1="27.915" y1="6.913" x2="23.613" y2="11.215"/>
		<line fill="none" stroke="#333333" stroke-width="2" stroke-miterlimit="10" x1="25.087" y1="4.085" x2="20.785" y2="8.387"/>
		<line fill="none" stroke="#333333" stroke-width="2" stroke-miterlimit="10" x1="11.215" y1="23.613" x2="6.914" y2="27.915"/>
	</g>
	<line fill="none" stroke="#333333" stroke-width="2" stroke-miterlimit="10" x1="8.387" y1="20.785" x2="4.085" y2="25.087"/>
</g>
</svg>
