<?xml version="1.0" encoding="utf-8"?>
<!-- Generator: Adobe Illustrator 18.0.0, SVG Export Plug-In . SVG Version: 6.00 Build 0)  -->
<!DOCTYPE svg PUBLIC "-//W3C//DTD SVG 1.1//EN" "http://www.w3.org/Graphics/SVG/1.1/DTD/svg11.dtd">
<svg version="1.1" id="Icons" xmlns="http://www.w3.org/2000/svg" xmlns:xlink="http://www.w3.org/1999/xlink" x="0px" y="0px"
	 viewBox="0 0 32 32" enable-background="new 0 0 32 32" xml:space="preserve">
<g>
	<path fill="none" stroke="#333333" stroke-width="2" stroke-linecap="round" stroke-linejoin="round" stroke-miterlimit="10" d="
		M13,6H8C7.448,6,7,6.448,7,7v23c0,0.552,0.448,1,1,1h16c0.552,0,1-0.448,1-1V7c0-0.552-0.448-1-1-1h-5"/>
	
		<polygon fill="none" stroke="#333333" stroke-width="2" stroke-linecap="round" stroke-linejoin="round" stroke-miterlimit="10" points="
		13,6 13,9 19,9 19,6 19,5 13,5 	"/>
	<path fill="none" stroke="#333333" stroke-linecap="round" stroke-linejoin="round" stroke-miterlimit="10" d="M17.5,5V3
		c0-0.828-0.672-1.5-1.5-1.5c-0.828,0-1.5,0.672-1.5,1.5v2"/>
	<polyline fill="none" stroke="#333333" stroke-linecap="round" stroke-linejoin="round" stroke-miterlimit="10" points="23,18.5 
		21.585,18.5 20.905,20.886 19.374,16.099 17.191,20.692 15.688,17.928 13.647,23.504 11.691,14.533 10.103,18.5 9,18.5 	"/>
</g>
</svg>
