<?xml version="1.0" encoding="utf-8"?>
<!-- Generator: Adobe Illustrator 18.0.0, SVG Export Plug-In . SVG Version: 6.00 Build 0)  -->
<!DOCTYPE svg PUBLIC "-//W3C//DTD SVG 1.1//EN" "http://www.w3.org/Graphics/SVG/1.1/DTD/svg11.dtd">
<svg version="1.1" id="Icons" xmlns="http://www.w3.org/2000/svg" xmlns:xlink="http://www.w3.org/1999/xlink" x="0px" y="0px"
	 viewBox="0 0 32 32" enable-background="new 0 0 32 32" xml:space="preserve">
<g>
	
		<circle fill="none" stroke="#333333" stroke-width="2" stroke-linecap="round" stroke-linejoin="round" stroke-miterlimit="10" cx="25" cy="10" r="2"/>
	
		<circle fill="none" stroke="#333333" stroke-width="2" stroke-linecap="round" stroke-linejoin="round" stroke-miterlimit="10" cx="25" cy="10" r="2"/>
	
		<polygon fill="none" stroke="#333333" stroke-width="2" stroke-linecap="round" stroke-linejoin="round" stroke-miterlimit="10" points="
		12.727,25 11.364,23.636 9.182,21.455 7,19.273 11.364,14.909 15.727,10.545 21.454,4.818 21.961,4.312 26.636,4 28.818,6.182 
		31,8.364 30.688,13.039 24.454,19.273 20.091,23.636 15.727,28 13.545,25.818 	"/>
	
		<polyline fill="none" stroke="#333333" stroke-width="2" stroke-linecap="round" stroke-linejoin="round" stroke-miterlimit="10" points="
		21.454,4.818 20.636,4 15.961,4.312 15.455,4.818 9.727,10.545 5.364,14.909 1,19.273 3.182,21.455 5.364,23.636 6.727,25 
		7.545,25.818 9.727,28 12.727,25 	"/>
</g>
</svg>
