<?xml version="1.0" encoding="utf-8"?>
<!-- Generator: Adobe Illustrator 18.0.0, SVG Export Plug-In . SVG Version: 6.00 Build 0)  -->
<!DOCTYPE svg PUBLIC "-//W3C//DTD SVG 1.1//EN" "http://www.w3.org/Graphics/SVG/1.1/DTD/svg11.dtd">
<svg version="1.1" id="Icons" xmlns="http://www.w3.org/2000/svg" xmlns:xlink="http://www.w3.org/1999/xlink" x="0px" y="0px"
	 viewBox="0 0 32 32" enable-background="new 0 0 32 32" xml:space="preserve">
<g>
	<path fill="none" stroke="#333333" stroke-width="2" stroke-linecap="round" stroke-linejoin="round" stroke-miterlimit="10" d="
		M14.451,17.549L14.451,17.549c-1.07-1.07-1.605-2.472-1.605-3.874c0-1.402,0.535-2.804,1.605-3.873l3.099-3.099l3.099-3.099
		C21.718,2.535,23.12,2,24.522,2c1.402,0,2.804,0.535,3.874,1.605l0,0l0,0C29.465,4.674,30,6.076,30,7.478s-0.535,2.804-1.605,3.874
		l-3.099,3.099l-3.099,3.099"/>
	<path fill="none" stroke="#333333" stroke-width="2" stroke-linecap="round" stroke-linejoin="round" stroke-miterlimit="10" d="
		M17.549,14.451L17.549,14.451c1.07,1.07,1.604,2.472,1.604,3.874c0,1.402-0.535,2.804-1.604,3.874l-3.099,3.099l-3.099,3.099
		C10.282,29.465,8.88,30,7.478,30c-1.402,0-2.804-0.535-3.874-1.604l0,0l0,0C2.535,27.326,2,25.924,2,24.522
		s0.535-2.804,1.604-3.874l3.099-3.099l3.099-3.099"/>
</g>
</svg>
