<?xml version="1.0" encoding="utf-8"?>
<!-- Generator: Adobe Illustrator 18.0.0, SVG Export Plug-In . SVG Version: 6.00 Build 0)  -->
<!DOCTYPE svg PUBLIC "-//W3C//DTD SVG 1.1//EN" "http://www.w3.org/Graphics/SVG/1.1/DTD/svg11.dtd">
<svg version="1.1" id="Icons" xmlns="http://www.w3.org/2000/svg" xmlns:xlink="http://www.w3.org/1999/xlink" x="0px" y="0px"
	 viewBox="0 0 32 32" enable-background="new 0 0 32 32" xml:space="preserve">
<g>
	
		<polygon fill="none" stroke="#333333" stroke-width="2" stroke-linecap="round" stroke-linejoin="round" stroke-miterlimit="10" points="
		31,25 23.5,27 16,25 8.5,27 1,25 1,20 1,15 1,10 1,5 8.5,7 16,5 23.5,7 31,5 31,10 31,15 31,20 	"/>
	
		<circle fill="none" stroke="#333333" stroke-linecap="round" stroke-linejoin="round" stroke-miterlimit="10" cx="6" cy="22" r="1.5"/>
	
		<circle fill="none" stroke="#333333" stroke-width="2" stroke-linecap="round" stroke-linejoin="round" stroke-miterlimit="10" cx="26" cy="11" r="1"/>
	
		<path fill="none" stroke="#333333" stroke-linecap="round" stroke-linejoin="round" stroke-miterlimit="10" stroke-dasharray="1,2" d="
		M6.5,18.5c0.177-2.028,1.293-4.012,3.094-5.049c1.801-1.038,4.272-0.986,5.888,0.308c0.756,0.606,1.297,1.432,2.036,2.059
		c1.196,1.016,2.903,1.435,4.452,1.093c1.549-0.341,2.902-1.435,3.531-2.853"/>
</g>
</svg>
