<?xml version="1.0" encoding="utf-8"?>
<!-- Generator: Adobe Illustrator 18.0.0, SVG Export Plug-In . SVG Version: 6.00 Build 0)  -->
<!DOCTYPE svg PUBLIC "-//W3C//DTD SVG 1.1//EN" "http://www.w3.org/Graphics/SVG/1.1/DTD/svg11.dtd">
<svg version="1.1" id="Icons" xmlns="http://www.w3.org/2000/svg" xmlns:xlink="http://www.w3.org/1999/xlink" x="0px" y="0px"
	 viewBox="0 0 32 32" enable-background="new 0 0 32 32" xml:space="preserve">
<path id="path17-6_1_" fill="none" stroke="#333333" stroke-width="2" stroke-miterlimit="10" d="M27.847,22.157
	c-0.871-0.697-1.802-1.322-2.718-1.961c-1.827-1.275-3.498-1.374-4.862,0.677c-0.766,1.152-1.837,1.202-2.958,0.697
	c-3.09-1.392-5.475-3.537-6.873-6.657c-0.618-1.38-0.61-2.618,0.836-3.595c0.766-0.516,1.537-1.127,1.476-2.256
	c-0.081-1.471-3.675-6.388-5.095-6.907c-0.587-0.215-1.172-0.201-1.77-0.001C2.554,3.267,1.175,5.987,2.496,9.208
	c3.939,9.61,10.872,16.299,20.414,20.383c0.544,0.233,1.148,0.326,1.455,0.409c2.173,0.022,4.718-2.058,5.453-4.122
	C30.525,23.892,29.03,23.103,27.847,22.157L27.847,22.157z"/>
</svg>
