<svg width="31" height="26" viewBox="1.07143 -49.2858 31.0715 25.7143" xmlns="http://www.w3.org/2000/svg"><path d="M10.714-27.857a2.136 2.136 0 0 1-2.143 2.143 2.136 2.136 0 0 1-2.142-2.143c0-1.189.954-2.143 2.142-2.143 1.19 0 2.143.954 2.143 2.143zM4.286-36.43v-.502c.016-.1.1-.284.15-.368l3.265-3.265a1.01 1.01 0 0 1 .368-.15h2.645v4.285zm21.428 8.572a2.136 2.136 0 0 1-2.143 2.143 2.136 2.136 0 0 1-2.142-2.143c0-1.189.954-2.143 2.142-2.143 1.19 0 2.143.954 2.143 2.143zm2.143-11.25a.529.529 0 0 1-.536.536h-3.75v3.75a.529.529 0 0 1-.535.535H19.82a.529.529 0 0 1-.535-.535v-3.75h-3.75a.529.529 0 0 1-.536-.536v-3.214c0-.302.234-.536.536-.536h3.75v-3.75c0-.302.234-.536.535-.536h3.215c.301 0 .535.234.535.536v3.75h3.75c.302 0 .536.234.536.536zm4.286-9.107c0-.586-.486-1.072-1.072-1.072H11.786c-.586 0-1.072.486-1.072 1.072v5.357H8.036c-.586 0-1.406.335-1.825.753l-3.315 3.315c-.418.418-.753 1.239-.753 1.825V-30c-.586 0-1.072.485-1.072 1.071s.486 1.072 1.072 1.072h2.143a4.283 4.283 0 0 0 4.285 4.286 4.283 4.283 0 0 0 4.286-4.286h6.429a4.294 4.294 0 0 0 4.286 4.286 4.283 4.283 0 0 0 4.285-4.286h3.215c.585 0 1.07-.486 1.07-1.072z"/></svg>