<svg width="16" height="16" viewBox="0 0 16 16" xmlns="http://www.w3.org/2000/svg"><title>appearance</title><path d="M14.42 0c-.438 0-.849.196-1.161.482l-5.696 5.17a2.573 2.573 0 0 0-.822 1.893c0 1.5 1.232 2.785 2.741 2.785.76 0 1.402-.303 1.947-.812 1.116-1.027 3.455-5.393 4.151-6.714.215-.42.402-.875.402-1.349C15.982.607 15.232 0 14.42 0zM6.304 9.232c-2.01.09-3.197.447-3.956 2.429a.514.514 0 0 1-.49.33c-.376 0-1.528-.92-1.858-1.143C0 13.59 1.313 16 4.34 16c2.553 0 4.32-1.75 4.267-4.295l-.009-.634a3.647 3.647 0 0 1-2.294-1.839z" fill="#FFF" fill-rule="evenodd"/></svg>