<svg width="28" height="26" viewBox="-0.066964 -50.2902 28.0413 26.2165" xmlns="http://www.w3.org/2000/svg"><path d="M27.439-43.929a2.23 2.23 0 0 0-.988-.72c.017.302.017.637-.084.955l-5.022 16.523c-.184.603-.904.955-1.524.955H4.37c-.92 0-2.075-.201-2.41-1.172-.134-.369-.117-.52.016-.72.151-.201.419-.251.637-.251H17.16c2.126 0 2.561-.57 3.348-3.148l4.587-15.167c.234-.787.134-1.574-.301-2.176-.419-.586-1.122-.938-1.909-.938h-12.74c-.285 0-.57.084-.854.15l.017-.05c-2.126-.602-2.26 1.691-2.963 2.73-.268.384-.67.72-.737 1.037-.05.302.117.586.084.87-.1.888-.77 2.479-1.172 3.031-.251.335-.62.502-.737.887-.1.268.067.653.034 1.005-.084.787-.67 2.277-1.122 3.047-.167.3-.485.535-.569.853-.084.285.084.653 0 .971-.184.87-.753 2.227-1.255 3.064-.268.452-.62.737-.687 1.138-.033.201.117.419.1.687-.016.402-.083.736-.117 1.071-.234.636-.234 1.373.034 2.126.62 1.741 2.444 3.097 4.152 3.097h15.452c1.44 0 2.913-1.104 3.331-2.527L27.74-41.77c.234-.77.117-1.557-.301-2.16zm-17.813.034l.352-1.072c.1-.3.418-.535.703-.535h10.178c.302 0 .47.234.369.535l-.352 1.072c-.1.301-.418.536-.703.536H9.994c-.3 0-.468-.235-.368-.536zm-1.39 4.286l.352-1.072c.1-.301.419-.536.703-.536H19.47c.301 0 .469.235.368.536l-.351 1.072c-.1.301-.419.535-.703.535H8.604c-.3 0-.468-.234-.367-.535z"/></svg>