<svg width="26" height="26" viewBox="0 -49.2858 25.7143 25.7143" xmlns="http://www.w3.org/2000/svg"><path d="M17.143-36.429a4.294 4.294 0 0 0-4.286-4.285 4.294 4.294 0 0 0-4.286 4.285 4.294 4.294 0 0 0 4.286 4.286 4.294 4.294 0 0 0 4.286-4.286zm2.143 0A6.43 6.43 0 0 1 12.857-30a6.43 6.43 0 0 1-6.428-6.429 6.43 6.43 0 0 1 6.428-6.428 6.43 6.43 0 0 1 6.429 6.428zm2.143 0A8.567 8.567 0 0 0 12.857-45a8.567 8.567 0 0 0-8.571 8.571 8.567 8.567 0 0 0 8.571 8.572 8.567 8.567 0 0 0 8.572-8.572zm2.142 0c0 5.91-4.804 10.715-10.714 10.715S2.143-30.52 2.143-36.43s4.805-10.714 10.714-10.714c5.91 0 10.714 4.805 10.714 10.714zm2.143 0c0-7.098-5.759-12.857-12.857-12.857C5.76-49.286 0-43.526 0-36.429 0-29.33 5.759-23.57 12.857-23.57c7.098 0 12.857-5.76 12.857-12.858z"/></svg>