<svg width="26" height="20" viewBox="2.02567 -40.0112 25.9487 19.8884" xmlns="http://www.w3.org/2000/svg"><path d="M27.974-36.127c0-.419-.167-.837-.468-1.139l-2.277-2.276a1.623 1.623 0 0 0-1.139-.47c-.418 0-.837.168-1.138.47L11.97-28.544l-4.922-4.938a1.623 1.623 0 0 0-1.138-.469c-.419 0-.837.167-1.139.469l-2.277 2.277c-.3.301-.468.72-.468 1.138 0 .419.167.837.468 1.138l6.06 6.06 2.277 2.277c.302.302.72.47 1.139.47.418 0 .837-.168 1.138-.47l2.277-2.276 12.12-12.12c.302-.302.47-.72.47-1.14z"/></svg>