<svg width="26" height="26" viewBox="0 -49.2858 25.7143 25.7143" xmlns="http://www.w3.org/2000/svg"><path d="M15-42.322a.529.529 0 0 0-.536-.535h-1.071a.529.529 0 0 0-.536.535v5.893h-3.75a.529.529 0 0 0-.536.536v1.071c0 .302.235.536.536.536h5.357a.529.529 0 0 0 .536-.536zm6.964 5.893c0 5.023-4.085 9.107-9.107 9.107-5.022 0-9.107-4.084-9.107-9.107 0-5.022 4.085-9.107 9.107-9.107 5.022 0 9.107 4.085 9.107 9.107zm3.75 0c0-7.098-5.759-12.857-12.857-12.857C5.76-49.286 0-43.526 0-36.429 0-29.33 5.759-23.57 12.857-23.57c7.098 0 12.857-5.76 12.857-12.858z"/></svg>