<svg width="15" height="15" viewBox="0 0 15 15" xmlns="http://www.w3.org/2000/svg"><title>configuration</title><path d="M3.241 12a.575.575 0 0 1-.571.571.575.575 0 0 1-.572-.571c0-.312.26-.571.572-.571.312 0 .571.259.571.571zm5.75-3.75A4.606 4.606 0 0 1 6.42 5.679l-6.08 6.08c-.215.214-.34.509-.34.812 0 .304.125.599.34.804l.946.964a1.15 1.15 0 0 0 1.616 0l6.09-6.089zm5.66-3.884c0-.178-.106-.312-.285-.312-.178 0-2.25 1.303-2.545 1.473l-1.723-.956v-2l2.616-1.508a.318.318 0 0 0 .143-.25c0-.108-.053-.188-.143-.25C12.17.196 11.321 0 10.67 0c-2.206 0-4 1.795-4 4s1.794 4 4 4c1.687 0 3.214-1.098 3.776-2.687.099-.286.206-.652.206-.947z" fill="#FFF" fill-rule="evenodd"/></svg>