<svg width="26" height="29" viewBox="0 -54.8103 25.7143 29.3974" xmlns="http://www.w3.org/2000/svg"><path d="M19.537-28.56c.033.117.084.284-.117.485-.134.134-1.44 1.038-2.98 1.189-1.524.134-3.6.234-4.838-.904a.422.422 0 0 1 0-.603c.15-.117.25-.2.435-.2.167 0 .134 0 .218.066.569.435 1.423.82 3.23.82 1.809 0 3.08-.518 3.65-.937.268-.2.368-.033.402.084zm-.653-1.926c.117.285 0 .452-.234.57-.201.1-.218.05-.419-.318-.2-.369-.368-.737-1.356-.737-.988 0-1.306.352-1.791.737-.469.401-.653.535-.82.318-.168-.235-.118-.452.2-.737s.82-.737 1.306-.937c.486-.201.737-.168 1.189-.168.452 0 .937.034 1.272.251.335.235.536.737.653 1.021zm5.943-4.704c0 .887-.285 2.461-.954 3.466-.687.987-1.105 1.356-1.909 1.289-1.02-.067-3.047-3.265-4.352-3.315-1.64-.05-5.207 3.432-8.02 3.432-1.69 0-2.21-.235-2.778-.62-.854-.585-1.256-1.506-1.24-2.745.034-2.21 2.093-4.286 4.705-4.303 3.315-.033 5.608 3.282 7.266 3.248 1.423-.017 4.135-2.796 5.474-2.796 1.423 0 1.808 1.474 1.808 2.344zm.887-2.678c0-7.517-5.558-10.916-6.462-11.468-1.49-.937-2.913-1.306-4.336-2.243-.87-.586-2.092-2.01-3.113-3.231-.185 1.958-.77 2.762-1.474 3.314-1.423 1.139-2.327 1.49-3.582 2.16C5.692-48.784 0-45.402 0-38.103c0 7.316 6.144 12.69 12.974 12.69 6.814 0 12.74-4.955 12.74-12.455z"/></svg>