<svg width="30" height="24" viewBox="0 -45.0001 30 23.5715" xmlns="http://www.w3.org/2000/svg"><path d="M30-37.4a9.86 9.86 0 0 1-1.674 1.457c-2.796 1.892-5.608 3.8-8.337 5.776-1.406 1.037-3.147 2.31-4.972 2.31h-.034c-1.825 0-3.566-1.273-4.972-2.31-2.729-1.993-5.541-3.884-8.32-5.776A9.362 9.362 0 0 1 0-37.4v13.293a2.686 2.686 0 0 0 2.679 2.678H27.32A2.686 2.686 0 0 0 30-24.107zm0-4.922A2.697 2.697 0 0 0 27.321-45H2.68c-1.792 0-2.68 1.406-2.68 3.047 0 1.523 1.692 3.415 2.88 4.219 2.595 1.808 5.224 3.616 7.819 5.44 1.088.754 2.93 2.294 4.285 2.294h.034c1.356 0 3.197-1.54 4.285-2.294 2.595-1.824 5.224-3.632 7.835-5.44C28.61-38.756 30-40.447 30-42.322z"/></svg>