<svg width="26" height="26" viewBox="0 -49.2858 25.7143 25.7143" xmlns="http://www.w3.org/2000/svg"><path d="M12.857-49.286C5.76-49.286 0-43.526 0-36.429 0-29.33 5.759-23.57 12.857-23.57c7.098 0 12.857-5.76 12.857-12.858 0-7.098-5.759-12.857-12.857-12.857zM15-28.41c0 .302-.234.553-.519.553h-3.214a.557.557 0 0 1-.553-.553v-3.18c0-.302.251-.553.553-.553h3.214c.285 0 .52.251.52.552zm-.033-5.759c-.017.235-.268.419-.57.419H11.3c-.318 0-.569-.184-.569-.419l-.285-10.396c0-.117.05-.234.168-.301a.644.644 0 0 1 .402-.134h3.683c.15 0 .301.05.402.134a.336.336 0 0 1 .167.301z"/></svg>