<svg width="20" height="16" viewBox="0 0 20 16" xmlns="http://www.w3.org/2000/svg"><title>extend</title><path d="M5.714 14.571v-3.053l3.429-1.464v2.803l-3.429 1.714zm-.571-4.053L1.536 8.973 5.143 7.43 8.75 8.973l-3.607 1.545zm9.714 4.053v-3.053l3.429-1.464v2.803l-3.429 1.714zm-.571-4.053l-3.607-1.545 3.607-1.544 3.607 1.544-3.607 1.545zm-4-2.616V5.518l3.428-1.464v2.375l-3.428 1.473zm-.572-3.384L5.777 2.83l3.937-1.687 3.938 1.687-3.938 1.688zm9.715 4.625c0-.455-.268-.866-.697-1.054l-3.875-1.66V2.857c0-.455-.277-.866-.696-1.053l-4-1.715A1.108 1.108 0 0 0 9.714 0c-.151 0-.303.027-.446.09l-4 1.714c-.42.187-.697.598-.697 1.053V6.43L.696 8.089C.276 8.277 0 8.688 0 9.143v3.714c0 .429.241.83.634 1.018l4 2c.16.09.33.125.509.125.178 0 .348-.036.509-.125l4-2a.144.144 0 0 0 .062-.036.144.144 0 0 0 .063.036l4 2c.16.09.33.125.509.125.178 0 .348-.036.509-.125l4-2c.393-.187.634-.59.634-1.018V9.143z" fill="#FFF" fill-rule="evenodd"/></svg>