<svg width="15" height="28" viewBox="-0.033482 -51.4286 15.0837 27.8572" xmlns="http://www.w3.org/2000/svg"><path d="M14.816-44.096a.813.813 0 0 0-.57-.251c-.066 0-.133.017-.2.033l-6.63 1.641 2.863-7.751c.05-.1.084-.201.084-.301 0-.386-.335-.704-.754-.704H4.12c-.352 0-.654.218-.737.536L.017-37.08a.657.657 0 0 0 .217.652.818.818 0 0 0 .52.185c.066 0 .133 0 .2-.017l6.797-1.691-3.298 13.527c-.084.351.134.703.502.82.084.017.168.034.235.034.301 0 .569-.168.703-.419l9.04-19.37a.664.664 0 0 0-.117-.736z"/></svg>