<svg width="32" height="24" viewBox="0 -47.1429 31.9587 23.5715" xmlns="http://www.w3.org/2000/svg"><path d="M29.816-33.7c0 .251-.15.469-.301.653l-4.922 6.077c-.57.703-1.741 1.256-2.629 1.256H3.75c-.368 0-.887-.117-.887-.586 0-.251.15-.469.301-.67l4.922-6.077c.57-.686 1.741-1.239 2.628-1.239H28.93c.368 0 .887.117.887.586zm-19.102-2.729c-1.523 0-3.314.854-4.285 2.043l-4.286 5.273v-14.28c0-.887.72-1.607 1.607-1.607h5.357c.887 0 1.607.72 1.607 1.607v1.071c0 .888.72 1.608 1.607 1.608h9.643c.888 0 1.607.72 1.607 1.607v2.678zm21.245 2.73c0-.403-.084-.788-.251-1.14-.503-1.07-1.641-1.59-2.78-1.59h-3.214v-2.678c0-2.06-1.69-3.75-3.75-3.75h-9.107v-.536c0-2.059-1.69-3.75-3.75-3.75H3.75c-2.06 0-3.75 1.691-3.75 3.75v16.072c0 2.059 1.69 3.75 3.75 3.75h18.214c1.507 0 3.332-.871 4.286-2.043l4.939-6.077c.452-.57.77-1.272.77-2.009z"/></svg>