<svg width="26" height="26" viewBox="0 -49.2858 25.7143 25.7143" xmlns="http://www.w3.org/2000/svg"><path d="M12.857-49.286C5.76-49.286 0-43.526 0-36.429 0-29.33 5.759-23.57 12.857-23.57c7.098 0 12.857-5.76 12.857-12.858 0-7.098-5.759-12.857-12.857-12.857zm4.587 8.722c.184-.117.486-.268.72-.2.184.05.335.117.117.267-.1.067-.25 0-.368.034.15.033.368.1.301.25.436.252-.134.553-.418.52.134.017-.285.268-.285.251-.15.084-.351.084-.469.234-.133.184.05.503-.2.436-.1.217-.486.1-.653.334.184.201-.184.486-.369.235-.167.067-.083.25-.25.351.066.1.083.201-.034.268.033-.017.234.15.284.168-.033.083-.1.15-.184.15.084.218-.1.452-.25.586-.168.134-.553.268-.604.302-.3.284-.502.703.034.82.017 0 .017.552.033.57.034.2.118.786-.234.568-.167-.083-.268-.552-.318-.736-.05-.201-.067-.201-.201-.402-.218.251-.251.067-.435-.05-.184-.1-.452-.067-.553-.168-.25.184-.435.134-.485-.15-.067.134.067.334.05.385-.084.167-.234.134-.368.033-.218-.167-.687.117-.938 0 .017 0 .084.067.134.1-.05.201-.167.084-.268.151-.117.084-.217.251-.318.335.218.419-.017.82 0 1.272 0 .335.218.921.536 1.105.15.084.653.117.804.05.234-.1.2-.284.284-.485.084-.218.184-.318.435-.335.72-.033.168.553.084.854-.05.218-.067.469-.1.67.083.033.167.016.25.016 0-.067.051-.15.051-.2.1.167.435.217.536.016.117.201.351.352.385.586.033.235.25.486-.067.486-.235 0 .033.468.067.552.184.335.485.469.82.301 0 .134-.05.503-.234.536-.168.034-.486-.318-.419-.502a.267.267 0 0 1-.117.15c-.167-.2-.452-.3-.603-.502-.033-.05-.485-.736-.385-.77-.234.1-.703-.067-.92-.184-.352-.184-.402-.67-.838-.603-.3.05-.385.168-.736.034-.235-.084-.435-.251-.67-.368-.268-.151-.736-.302-.837-.637-.1-.267-.067-.585-.218-.837-.1-.167-.401-.502-.619-.502.201 0-.184-.502-.234-.552-.184-.218-.854-.804-.72-1.139.033-.05-.335-.184-.402-.2.067.167.084.351.167.502.084.167.185.318.285.485.184.302.435.67.402 1.038-.218.067-.15-.251-.218-.385-.117-.218-.435-.218-.519-.452.034-.017.05-.017.084-.033.017-.285-.402-.52-.335-.72-.234-.184-.234-.536-.402-.77-.15-.218-.401-.318-.62-.47-.083-.05-.685-.82-.468-.87-.335.084-.502-.703-.452-.904 0 0-.033 0-.033-.016.067-.201-.05-1.24.217-1.256-.184.017-.234-.435-.184-.519.034-.067.285.184.301.218.1-.05.201-.185.168-.302-.05-.134-.234-.25-.352-.351-.05-.034-.72-.469-.736-.452.067-.117.05-.235-.05-.318-.319.25-.151-.235-.319-.285a.47.47 0 0 1-.2-.134 10.882 10.882 0 0 1 3.934-3.716c.1-.017.234-.017.368-.017.301.033.469.284.686.435.034-.084-.033-.217-.083-.301.05-.134.25-.168.368-.201.15-.017.368-.05.502.017-.1-.151-.217-.285-.335-.419-.016.017-.067.05-.083.084-.184-.15-.536.05-.703.117-.134.067-.252.15-.385.2a.286.286 0 0 1-.201.018 10.168 10.168 0 0 1 1.573-.687c.1.067.201.184.352.302-.1-.084-.1.3-.067.368.184.251.586.084.837.084-.017 0 .737.1.586-.084.117.167.117.418.268.57.15-.152-.067-.319.033-.47.034-.067.335-.15.435-.2.118-.084-.083-.201-.133-.235-.168-.1-.82-.15-.503-.536.118-.134.536-.067.67.017.184.1.385.285.134.452.117.017.67.168.586.385.05-.1.134-.251.268-.251.15.017.184.368.25.452.235.419.637-.418.704-.385-.301-.117.268-.268.418-.218.118.05.302.452.084.436.184.167.201.535-.134.519-.234-.017-.502-.335-.72-.084-.15.167-.217.418-.368.57-.234.233-.552.217-.837.183.117.017-.251.402-.285.469a.949.949 0 0 0-.2.385c-.034.167 0 .352-.084.519.284-.084.435.435.318.452.351-.05.636-.05.97.067.235.084.587.184.687.435.067-.1.385-.05.486-.016.2.1.217.318.268.502.067.25.284.67.569.535.05-.033.418-.2.284-.3-.134-.118-.284-.42-.15-.587.134-.184.452-.234.535-.469.134-.385-.401-.334-.401-.619 0-.167.217-.218.2-.418 0-.168-.25-.503-.05-.62.168-.1.971.067 1.122.167.15.1.62.235.653.386h-.084c.134.117.251.368.017.435.15-.034.586.134.285.234.1-.05.184-.017.284-.084.117-.066.184-.184.335-.1.033.017.218-.352.318-.335.15.017.184.235.251.335.067.15.251.2.318.352.117.284.067.552.452.652.117.034.435-.15.419.1.067-.066.1-.116.1-.133.017.234.117.502.402.469 0 0 0 .318-.033.368-.1.15-.352.117-.503.201-.05.017-.452.368-.402.418-.217-.25-.569-.25-.853-.184-.302.05-.586.084-.87.201-.135.067-.269.134-.37.251-.05.067-.133.369-.217.385.168-.033.251-.217.385-.318zm-2.729 14.682a2.82 2.82 0 0 1-.033-.268c-.017-.268.268-.452.251-.703-.184-.05-.234-.234-.2-.435.033-.285.284-.486.485-.67.2-.184.25-.569.2-.803-.083-.402-.083-.82-.15-1.222.017.1.301.067.351.2.067-.117.1-.267.185-.385.067-.1.184-.133.284-.217.168-.1.52-.486.72-.251.168.2-.251.418-.033.602.067-.134 0-.334.134-.468.267-.302.452.033.72.117.284.084.384.184.602.368-.067-.067.268-.184.301-.2.319-.068.452.116.67.284.234.167.603.284.57.62.167.033.267.083.401.133.134.067.318.034.419.134a10.627 10.627 0 0 1-5.877 3.164z"/></svg>