<svg width="26" height="26" viewBox="0 -49.2858 25.7143 25.7143" xmlns="http://www.w3.org/2000/svg"><path d="M25.714-36.429c0-7.081-5.775-12.857-12.857-12.857-3.298 0-6.495 1.323-8.856 3.55l-2.176-2.16a1.033 1.033 0 0 0-1.155-.235c-.402.168-.67.553-.67.988v7.5c0 .586.485 1.071 1.071 1.071h7.5c.436 0 .82-.267.988-.67a1.033 1.033 0 0 0-.234-1.154l-2.294-2.31A8.525 8.525 0 0 1 12.857-45c4.721 0 8.572 3.85 8.572 8.571s-3.85 8.572-8.572 8.572a8.476 8.476 0 0 1-6.763-3.332.546.546 0 0 0-.385-.2c-.151 0-.302.05-.419.15l-2.293 2.31a.557.557 0 0 0-.034.72 12.828 12.828 0 0 0 9.894 4.638c7.082 0 12.857-5.776 12.857-12.858zM15-41.25a.529.529 0 0 0-.536-.536h-1.071a.529.529 0 0 0-.536.536v5.893h-3.75a.529.529 0 0 0-.536.536v1.071c0 .301.235.536.536.536h5.357A.529.529 0 0 0 15-33.75z"/></svg>