<svg width="17" height="26" viewBox="0 -49.2858 17.1429 25.7143" xmlns="http://www.w3.org/2000/svg"><path d="M0-23.605c1.473-.084 2.93-.335 4.42-.335 1.138 0 2.293.017 3.448.034.955.016 1.942.334 2.897.334.368 0 .72-.05 1.088-.05a9.493 9.493 0 0 0 .268-1.657c-1.038-.168-2.076-.285-3.098-.52l-.016-.3c-.067-.704.753-4.035.92-4.839.888-4.302 1.96-8.638 2.763-12.974.167-.954.25-1.942.62-2.846 1.138-.452 2.36-.636 3.515-1.038.134-.485.25-.988.318-1.49-1.775.1-3.55.268-5.324.268-2.176 0-4.37-.167-6.529-.268l-.318 1.725c1.005.167 2.126.033 3.047.535v.419c.05 1.34-3.6 17.762-3.817 18.9-.117.586-.301 1.206-.686 1.691-1.005.52-2.16.653-3.231.988z"/></svg>