<svg width="28" height="27" viewBox="0 -50.2233 28.1753 26.6518" xmlns="http://www.w3.org/2000/svg"><path d="M13.929-43.795a3.215 3.215 0 0 1-3.215 3.215 3.31 3.31 0 0 1-1.39-.319c.202.436.319.905.319 1.39a3.215 3.215 0 1 1-3.214-3.214c.485 0 .954.117 1.39.318a3.31 3.31 0 0 1-.319-1.39 3.215 3.215 0 0 1 6.429 0zm14.246 11.786c0-.486-4.67-4.888-5.29-5.508a.577.577 0 0 0-.385-.167c-.385 0-1.925 1.54-1.925 1.925 0 .435 1.574 1.791 1.925 2.143l-1.607 1.607-5.943-5.943c1.306-1.758 2.193-3.9 2.193-6.11 0-3.65-2.528-6.161-6.16-6.161C5.49-50.223 0-44.733 0-39.241c0 3.633 2.511 6.16 6.16 6.16 2.21 0 4.353-.887 6.111-2.192L23.505-24.04c.3.301.72.469 1.138.469.937 0 2.009-1.072 2.009-2.01 0-.418-.168-.836-.469-1.138L22.5-30.402l1.607-1.607c.352.352 1.708 1.925 2.143 1.925.385 0 1.925-1.54 1.925-1.925z"/></svg>