<svg width="21" height="26" viewBox="0.401786 -49.2858 20.9933 25.7143" xmlns="http://www.w3.org/2000/svg"><path d="M21.395-48.265c0-.569-.452-1.02-1.021-1.02h-8.02c-3.08 0-5.725.2-6.98.619-1.34.452-2.511 1.339-3.499 2.661-.971 1.323-1.473 2.93-1.473 4.788 0 1.59.368 3.047 1.071 4.336a6.894 6.894 0 0 0 3.214 2.997c1.089.519 2.478.854 4.102.988v8.303c0 .57.452 1.022 1.021 1.022h1.808c.57 0 1.021-.453 1.021-1.022v-20.39h2.394v20.39c0 .57.452 1.022 1.022 1.022h1.808c.569 0 1.02-.453 1.02-1.022v-19.285c0-.352-.033-.754.051-1.072a.706.706 0 0 1 .536-.519c.284-.067.62-.017.904-.017.57 0 1.021-.987 1.021-1.556z"/></svg>