<svg width="18" height="16" viewBox="0 0 18 16" xmlns="http://www.w3.org/2000/svg"><title>Users</title><path d="M5.295 8a4.035 4.035 0 0 1-.724-2.286c0-.196.018-.393.045-.589a3.571 3.571 0 0 1-1.187.205c-1.206 0-2.134-.759-2.322-.759C-.027 4.571 0 7 0 7.723c0 .991.84 1.42 1.732 1.42H2.93A3.16 3.16 0 0 1 5.295 8zm9.562 5.688c0-2.018-.473-5.117-3.09-5.117-.303 0-1.41 1.242-3.196 1.242-1.785 0-2.892-1.242-3.196-1.242-2.616 0-3.09 3.099-3.09 5.117 0 1.446.956 2.312 2.385 2.312h7.803c1.429 0 2.384-.866 2.384-2.312zM5.714 2.286A2.29 2.29 0 0 0 3.43 0a2.29 2.29 0 0 0-2.286 2.286A2.29 2.29 0 0 0 3.429 4.57a2.29 2.29 0 0 0 2.285-2.285zM12 5.714a3.43 3.43 0 0 0-6.857 0 3.43 3.43 0 0 0 6.857 0zm5.143 2.01c0-.724.027-3.153-1.107-3.153-.188 0-1.116.76-2.322.76-.41 0-.803-.072-1.187-.206.027.196.044.393.044.59 0 .812-.258 1.615-.723 2.285a3.16 3.16 0 0 1 2.366 1.143h1.197c.893 0 1.732-.429 1.732-1.42zM16 2.285A2.29 2.29 0 0 0 13.714 0a2.29 2.29 0 0 0-2.285 2.286 2.29 2.29 0 0 0 2.285 2.285A2.29 2.29 0 0 0 16 2.286z" fill="#FFF" fill-rule="evenodd"/></svg>