<svg width="32" height="26" viewBox="0 -49.2858 32.1429 25.7143" xmlns="http://www.w3.org/2000/svg"><path d="M10.714-41.786a3.215 3.215 0 1 0-6.43.002 3.215 3.215 0 0 0 6.43-.002zm17.143 6.429l-6.964-6.965-8.572 8.572-2.678-2.679-5.357 5.358v3.214h23.571zm1.607-11.786a.55.55 0 0 1 .536.536v20.357a.55.55 0 0 1-.536.536H2.68a.55.55 0 0 1-.536-.536v-20.357a.55.55 0 0 1 .536-.536zm2.679.536a2.686 2.686 0 0 0-2.679-2.679H2.68A2.686 2.686 0 0 0 0-46.607v20.357a2.686 2.686 0 0 0 2.679 2.679h26.785a2.686 2.686 0 0 0 2.679-2.679z"/></svg>