<svg viewBox="0 -49.2858 25.7143 25.7143" xmlns="http://www.w3.org/2000/svg"><path d="M20.357-35.357c0 .586-.485 1.071-1.071 1.071H15V-30c0 .586-.485 1.071-1.071 1.071h-2.143A1.079 1.079 0 0 1 10.714-30v-4.286H6.43a1.079 1.079 0 0 1-1.072-1.071V-37.5c0-.586.486-1.071 1.072-1.071h4.285v-4.286c0-.586.486-1.072 1.072-1.072h2.143c.586 0 1.071.486 1.071 1.072v4.286h4.286c.586 0 1.071.485 1.071 1.07zm5.357-1.072c0-7.098-5.759-12.857-12.857-12.857C5.76-49.286 0-43.526 0-36.429 0-29.33 5.759-23.57 12.857-23.57c7.098 0 12.857-5.76 12.857-12.858z"/></svg>