<svg width="26" height="28" viewBox="0 -53.5715 25.7143 27.8572" xmlns="http://www.w3.org/2000/svg"><path d="M25.714-38.572c0-4.068-1.875-7.818-5.14-10.262a2.122 2.122 0 0 0-2.996.419c-.72.937-.519 2.293.419 2.996 2.176 1.641 3.432 4.135 3.432 6.847 0 4.721-3.85 8.572-8.572 8.572-4.72 0-8.571-3.85-8.571-8.572 0-2.712 1.255-5.206 3.432-6.847.937-.703 1.138-2.059.418-2.996a2.12 2.12 0 0 0-2.997-.419A12.727 12.727 0 0 0 0-38.57c0 7.081 5.776 12.857 12.857 12.857 7.082 0 12.857-5.776 12.857-12.858zM15-51.428a2.158 2.158 0 0 0-2.143-2.143 2.158 2.158 0 0 0-2.143 2.143v10.715c0 1.171.971 2.142 2.143 2.142A2.158 2.158 0 0 0 15-40.714z"/></svg>