<svg width="26" height="26" viewBox="0 -49.2858 25.7143 25.7143" xmlns="http://www.w3.org/2000/svg"><path d="M25.296-33.75a.54.54 0 0 0-.536-.536h-3.214c-.251 0-.419.15-.502.385-.285.67-.486 1.306-.888 1.959a8.546 8.546 0 0 1-7.299 4.085 8.555 8.555 0 0 1-5.826-2.31l2.294-2.294c.2-.2.318-.469.318-.753 0-.586-.486-1.072-1.072-1.072h-7.5C.485-34.286 0-33.8 0-33.214v7.5c0 .586.485 1.071 1.071 1.071.285 0 .553-.117.754-.318l2.16-2.16c2.377 2.26 5.54 3.55 8.805 3.55 6.178 0 11.066-4.136 12.49-10.062a.285.285 0 0 0 .016-.117zm.418-13.393c0-.586-.485-1.071-1.071-1.071-.285 0-.553.117-.753.318l-2.177 2.16c-2.377-2.244-5.575-3.55-8.856-3.55-6.177 0-11.116 4.118-12.556 10.062v.117a.54.54 0 0 0 .536.535H4.17c.25 0 .418-.15.502-.385.284-.67.485-1.305.887-1.958a8.546 8.546 0 0 1 7.3-4.085c2.159 0 4.251.82 5.842 2.293l-2.31 2.31c-.201.202-.319.47-.319.754 0 .586.486 1.071 1.072 1.071h7.5c.586 0 1.071-.485 1.071-1.071z"/></svg>