<svg viewBox="0 -42.8572 25.7143 21.4286" xmlns="http://www.w3.org/2000/svg"><path d="M25.714-24.643c0-.586-.485-1.071-1.071-1.071H1.07C.485-25.714 0-25.23 0-24.643v2.143c0 .586.485 1.071 1.071 1.071h23.572c.586 0 1.071-.485 1.071-1.071zm0-8.571c0-.586-.485-1.072-1.071-1.072H1.07C.485-34.286 0-33.8 0-33.214v2.143C0-30.486.485-30 1.07-30h23.572c.586 0 1.071-.486 1.071-1.071zm0-8.572c0-.586-.485-1.071-1.071-1.071H1.07c-.586 0-1.071.485-1.071 1.071v2.143c0 .586.485 1.072 1.071 1.072h23.572c.586 0 1.071-.486 1.071-1.072z"/></svg>