<svg width="24" height="24" viewBox="0 -47.1429 23.5882 23.5715" xmlns="http://www.w3.org/2000/svg"><path d="M6.429-26.786a3.215 3.215 0 1 0-6.43.002 3.215 3.215 0 0 0 6.43-.002zM15-24.726a15.036 15.036 0 0 0-4.386-9.46 15.036 15.036 0 0 0-9.459-4.385h-.084c-.267 0-.535.1-.72.284C.118-38.086 0-37.8 0-37.5v2.26c0 .552.419 1.005.971 1.055a10.712 10.712 0 0 1 9.643 9.643c.05.552.502.97 1.055.97h2.26c.3 0 .586-.117.786-.351.201-.218.302-.502.285-.804zm8.571.033a23.57 23.57 0 0 0-6.93-15.52 23.57 23.57 0 0 0-15.52-6.93h-.05c-.267 0-.535.1-.736.301-.218.201-.335.47-.335.77v2.395c0 .552.435 1.02 1.004 1.054 9.727.57 17.478 8.32 18.03 18.047.034.57.503 1.005 1.072 1.005H22.5c.301 0 .57-.118.77-.335a1.02 1.02 0 0 0 .301-.787z"/></svg>