<svg width="26" height="26" viewBox="0 -49.2858 25.7143 25.7143" xmlns="http://www.w3.org/2000/svg"><path d="M20.357-34.286a5.36 5.36 0 0 0-3.65 1.44l-6.026-3.013c.017-.185.033-.386.033-.57 0-.184-.016-.385-.033-.569l6.027-3.013a5.351 5.351 0 0 0 9.007-3.917 5.351 5.351 0 0 0-5.358-5.358A5.351 5.351 0 0 0 15-43.929c0 .184.017.385.034.57l-6.027 3.013A5.351 5.351 0 0 0 0-36.43a5.351 5.351 0 0 0 9.007 3.918l6.027 3.013a6.488 6.488 0 0 0-.034.57 5.351 5.351 0 0 0 5.357 5.356 5.351 5.351 0 0 0 5.357-5.357 5.351 5.351 0 0 0-5.357-5.357z"/></svg>