<svg width="28" height="29" viewBox="1.07143 -54.6429 27.8572 28.9286" xmlns="http://www.w3.org/2000/svg"><path d="M8.806-31.306a2.136 2.136 0 0 0-2.143-2.143 2.147 2.147 0 0 0-2.143 2.143c0 1.172.971 2.143 2.143 2.143a2.147 2.147 0 0 0 2.143-2.143zm8.337 3.449A2.136 2.136 0 0 0 15-30a2.136 2.136 0 0 0-2.143 2.143c0 1.188.954 2.143 2.143 2.143a2.136 2.136 0 0 0 2.143-2.143zM5.357-39.643a2.136 2.136 0 0 0-2.143-2.143 2.136 2.136 0 0 0-2.143 2.143c0 1.189.955 2.143 2.143 2.143a2.136 2.136 0 0 0 2.143-2.143zm20.123 8.337a2.147 2.147 0 0 0-2.143-2.143 2.136 2.136 0 0 0-2.143 2.143c0 1.172.954 2.143 2.143 2.143a2.158 2.158 0 0 0 2.143-2.143zM9.342-47.98a2.686 2.686 0 0 0-2.679-2.678 2.686 2.686 0 0 0-2.679 2.678A2.686 2.686 0 0 0 6.663-45.3a2.686 2.686 0 0 0 2.679-2.679zm19.587 8.337a2.136 2.136 0 0 0-2.143-2.143 2.136 2.136 0 0 0-2.143 2.143c0 1.189.954 2.143 2.143 2.143a2.136 2.136 0 0 0 2.143-2.143zM18.214-51.429a3.215 3.215 0 1 0-6.43.002 3.215 3.215 0 0 0 6.43-.002zm8.873 3.45c0-2.06-1.69-3.75-3.75-3.75a3.755 3.755 0 0 0-3.75 3.75 3.744 3.744 0 0 0 3.75 3.75c2.06 0 3.75-1.675 3.75-3.75z"/></svg>