<svg width="16" height="14" viewBox="0 0 16 14" xmlns="http://www.w3.org/2000/svg"><title>structure</title><path d="M16 10a.857.857 0 0 0-.857-.857h-.857V7.429a1.15 1.15 0 0 0-1.143-1.143H8.57V4.57h.858a.857.857 0 0 0 .857-.857V.857A.857.857 0 0 0 9.429 0H6.57a.857.857 0 0 0-.857.857v2.857c0 .474.384.857.857.857h.858v1.715H2.857a1.15 1.15 0 0 0-1.143 1.143v1.714H.857A.857.857 0 0 0 0 10v2.857c0 .473.384.857.857.857h2.857a.857.857 0 0 0 .857-.857V10a.857.857 0 0 0-.857-.857h-.857V7.429H7.43v1.714H6.57a.857.857 0 0 0-.857.857v2.857c0 .473.384.857.857.857H9.43a.857.857 0 0 0 .857-.857V10a.857.857 0 0 0-.857-.857H8.57V7.429h4.572v1.714h-.857a.857.857 0 0 0-.857.857v2.857c0 .473.384.857.857.857h2.857a.857.857 0 0 0 .857-.857V10z" fill="#FFF" fill-rule="evenodd"/></svg>