<svg width="30" height="24" viewBox="0 -45.0001 30 23.5715" xmlns="http://www.w3.org/2000/svg"><path d="M6.429-30a2.136 2.136 0 0 1-2.143 2.143A2.136 2.136 0 0 1 2.143-30c0-1.189.954-2.143 2.143-2.143 1.188 0 2.143.954 2.143 2.143zm3.214-7.5A2.136 2.136 0 0 1 7.5-35.357 2.136 2.136 0 0 1 5.357-37.5c0-1.189.954-2.143 2.143-2.143 1.189 0 2.143.954 2.143 2.143zm7.165 8.052a3.248 3.248 0 0 1 1.306 3.483 3.228 3.228 0 0 1-3.934 2.293 3.228 3.228 0 0 1-2.294-3.934 3.204 3.204 0 0 1 2.846-2.377l1.691-6.395c.15-.57.737-.921 1.306-.77.569.15.904.736.77 1.305zM27.858-30a2.136 2.136 0 0 1-2.144 2.143A2.136 2.136 0 0 1 23.571-30c0-1.189.955-2.143 2.143-2.143 1.189 0 2.143.954 2.143 2.143zM17.142-40.714A2.136 2.136 0 0 1 15-38.572a2.136 2.136 0 0 1-2.143-2.142c0-1.189.954-2.143 2.143-2.143 1.189 0 2.143.954 2.143 2.143zm7.5 3.214a2.136 2.136 0 0 1-2.143 2.143 2.136 2.136 0 0 1-2.143-2.143c0-1.189.954-2.143 2.143-2.143 1.189 0 2.143.954 2.143 2.143zM30-30c0-8.27-6.73-15-15-15S0-38.27 0-30c0 2.88.82 5.675 2.36 8.086.201.301.536.485.905.485h23.47c.369 0 .704-.184.905-.485A15.036 15.036 0 0 0 30-30z"/></svg>