<svg width="32" height="25" viewBox="0 -48.9342 31.7913 25.3628" xmlns="http://www.w3.org/2000/svg"><path d="M7.5-43.577a2.136 2.136 0 0 1-2.143 2.143 2.136 2.136 0 0 1-2.143-2.143c0-1.189.955-2.143 2.143-2.143 1.189 0 2.143.954 2.143 2.143zm17.863 9.643c0-.57-.235-1.122-.62-1.524L12.773-47.41c-.853-.854-2.477-1.523-3.666-1.523H2.143A2.158 2.158 0 0 0 0-46.791v6.964c0 1.189.67 2.812 1.523 3.65l11.97 11.986c.385.385.938.62 1.507.62.57 0 1.122-.235 1.523-.62l8.22-8.236c.385-.386.62-.938.62-1.507zm6.428 0c0-.57-.234-1.122-.62-1.524L19.203-47.41c-.854-.854-2.478-1.523-3.666-1.523h-3.75c1.188 0 2.812.67 3.666 1.523l11.97 11.953c.385.402.62.955.62 1.524 0 .569-.235 1.121-.62 1.507l-7.868 7.868c.569.586 1.004.988 1.875.988.569 0 1.121-.235 1.523-.62l8.22-8.236c.385-.386.62-.938.62-1.507z"/></svg>