<svg width="30" height="24" viewBox="0 -47.1429 30 23.5715" xmlns="http://www.w3.org/2000/svg"><path d="M17.143-25.714v-2.143h10.714v2.143zm-6.429-8.572v-2.143h17.143v2.143zm10.715-8.571V-45h6.428v2.143zM30-28.93C30-29.515 29.515-30 28.93-30H1.07C.485-30 0-29.515 0-28.929v4.286c0 .586.485 1.072 1.071 1.072H28.93c.586 0 1.071-.486 1.071-1.072zm0-8.571c0-.586-.485-1.071-1.071-1.071H1.07C.485-38.571 0-38.086 0-37.5v4.286c0 .586.485 1.071 1.071 1.071H28.93c.586 0 1.071-.485 1.071-1.071zm0-8.571c0-.586-.485-1.072-1.071-1.072H1.07C.485-47.143 0-46.657 0-46.07v4.285c0 .586.485 1.072 1.071 1.072H28.93c.586 0 1.071-.486 1.071-1.072z"/></svg>