<svg viewBox="0 -47.1429 30 23.5715" xmlns="http://www.w3.org/2000/svg"><path d="M8.571-28.393c0-.887-.72-1.607-1.607-1.607H1.607C.72-30 0-29.28 0-28.393v3.214c0 .888.72 1.608 1.607 1.608h5.357c.888 0 1.607-.72 1.607-1.608zm0-8.571c0-.888-.72-1.607-1.607-1.607H1.607c-.887 0-1.607.72-1.607 1.607v3.214c0 .887.72 1.607 1.607 1.607h5.357c.888 0 1.607-.72 1.607-1.607zM30-28.393C30-29.28 29.28-30 28.393-30H12.32c-.887 0-1.607.72-1.607 1.607v3.214c0 .888.72 1.608 1.607 1.608h16.072c.887 0 1.607-.72 1.607-1.608zM8.571-45.536c0-.887-.72-1.607-1.607-1.607H1.607c-.887 0-1.607.72-1.607 1.607v3.214c0 .888.72 1.608 1.607 1.608h5.357c.888 0 1.607-.72 1.607-1.608zM30-36.964c0-.888-.72-1.608-1.607-1.608H12.32c-.887 0-1.607.72-1.607 1.608v3.214c0 .887.72 1.607 1.607 1.607h16.072c.887 0 1.607-.72 1.607-1.607zm0-8.572c0-.887-.72-1.607-1.607-1.607H12.32c-.887 0-1.607.72-1.607 1.607v3.214c0 .888.72 1.608 1.607 1.608h16.072c.887 0 1.607-.72 1.607-1.608z"/></svg>