<svg version="1.2" baseProfile="tiny" xmlns="http://www.w3.org/2000/svg" width="500" height="133.411" viewBox="0 0 500 133.411"><path fill="#2AA9E0" d="M243.936 25h-21.889l.036 40.955c0 11.969-5.131 21.652-17.1 21.652-11.974 0-17.152-9.683-17.152-21.652V25.04h-21.832l-.006 40.915c0 23.651 15.203 42.82 38.858 42.82 23.648 0 39.078-19.169 39.078-42.82L243.936 25zM441.309.045h21.781v106.616h-21.781z"/><g fill="#2AA9E0"><path d="M479.17 2.062V.146h8.487v1.915h-3.104v8.441h-2.277v-8.44h-3.106zM492.051.146l2.423 7.121h.029l2.29-7.121H500v10.356h-2.132v-7.34h-.029l-2.538 7.34h-1.756l-2.538-7.267h-.028v7.267h-2.132V.146h3.204z"/></g><path fill="#2AA9E0" d="M148.194 24.109c-18.775-4.333-30.619 14.319-31.111 15.319-.242.491-.251.777-1.083.755-.687-.014-.766-.755-.766-.755l-2.33-14.268h-19.51v81.43h21.871V62.514c0-3.602 9.7-20.872 28.492-16.426 9.504 2.248 13.535 6.281 13.535 6.281V27.563c-3.517-1.834-5.93-2.723-9.098-3.454zM273.616 133.411v-29.3c.002 0 .005.003.007.005l.003-10.972s.035-.878.826-.889c.706-.008.863.46 1.035.889 1.658 4.126 10.779 19.847 31.018 14.916 18.118-5.104 31.407-21.741 31.407-41.5 0-23.805-19.303-43.111-43.114-43.111-23.811 0-43.113 19.306-43.113 43.111v66.85h21.931zm21.2-88.668c12.055 0 21.825 9.772 21.825 21.818 0 12.056-9.77 21.829-21.825 21.829-12.053 0-21.82-9.772-21.82-21.829.001-12.046 9.768-21.818 21.82-21.818zM410.536 106.627h21.931V66.561c0-23.805-19.3-43.111-43.112-43.111S346.24 42.756 346.24 66.561c0 19.758 13.29 36.395 31.408 41.5 20.24 4.931 29.357-10.79 31.018-14.916.172-.429.327-.896 1.035-.889.791.011.824.889.824.889m.632-26.584c0 12.056-9.771 21.829-21.821 21.829-12.053 0-21.825-9.772-21.825-21.829 0-12.046 9.772-21.818 21.825-21.818 12.051 0 21.821 9.772 21.821 21.818zM24.879 106.457H0V0h26.695C59.02 0 83.536 5.931 83.536 53.229c0 46.84-25.969 53.228-58.657 53.228zm5.94-88.004h-8.795v69.533l9.032.231c18.522 0 30.452-1.686 30.452-34.989 0-31.937-10.532-34.775-30.689-34.775z"/></svg>