<svg width="27" height="28" viewBox="0.351563 -51.0771 27.4721 27.5056" xmlns="http://www.w3.org/2000/svg"><path d="M6.429-28.577c0 .586-.486 1.071-1.072 1.071a1.079 1.079 0 0 1-1.071-1.071c0-.586.485-1.072 1.071-1.072s1.072.486 1.072 1.072zm10.78-7.031a8.636 8.636 0 0 1-4.82-4.822L.987-29.03a2.169 2.169 0 0 0-.636 1.524c0 .57.234 1.122.636 1.507l1.774 1.808c.402.385.955.62 1.524.62.569 0 1.121-.235 1.506-.62zm10.615-7.283c0-.335-.201-.586-.536-.586s-4.219 2.445-4.771 2.763l-3.231-1.792v-3.75l4.905-2.829c.15-.1.268-.285.268-.469 0-.2-.1-.351-.268-.468-1.021-.687-2.612-1.055-3.834-1.055-4.135 0-7.5 3.365-7.5 7.5s3.365 7.5 7.5 7.5c3.164 0 6.027-2.06 7.082-5.04.184-.535.385-1.221.385-1.774z"/></svg>